<svg viewBox="0 0 24 24" height="24" width="24" xmlns="http://www.w3.org/2000/svg">
  <path d="M15.75 15.177v6.442c-.632.864-1.882.258-3.75-1.815 0 0-2.482 3.221-3.75 1.815v-6.442h-.542a1.432 1.432 0 0 1-1.43-1.426v-1.91l-1.36-1.355a1.425 1.425 0 0 1 0-2.017l1.36-1.355V5.197c0-.785.644-1.426 1.43-1.426h1.924l1.353-1.354a1.437 1.437 0 0 1 2.024 0l1.36 1.354h1.923c.787 0 1.43.642 1.43 1.426v1.917l1.36 1.348c.557.558.557 1.46 0 2.017l-1.36 1.355v1.917a1.432 1.432 0 0 1-1.43 1.426zM12 13.21a3.743 3.743 0 0 0 3.75-3.737c0-2.064-1.679-3.737-3.75-3.737S8.25 7.41 8.25 9.474A3.743 3.743 0 0 0 12 13.211z" fill-rule="nonzero"/>
  <path d="M0 0h24v24H0z" fill="none"/>
</svg>
