<svg fill="#000000" height="24" viewBox="0 0 24 24" width="24" xmlns="http://www.w3.org/2000/svg">
  <path d="m19 4h-4.18c-.42-1.16-1.52-2-2.82-2s-2.4.84-2.82 2h-4.18c-1.1 0-2 .9-2 2v14c0 1.1.9 2 2 2h14c1.1 0 2-.9 2-2v-14c0-1.1-.9-2-2-2zm-7 0c.55 0 1 .45 1 1s-.45 1-1 1-1-.45-1-1 .45-1 1-1zm-2.71 13.29-2.59-2.59c-.39-.39-.39-1.02 0-1.41s1.02-.39 1.41 0l1.89 1.88 5.88-5.88c.39-.39 1.02-.39 1.41 0s.39 1.02 0 1.41l-6.59 6.59c-.38.39-1.02.39-1.41 0z"/>
  <path d="m0 0h24v24h-24z" fill="none"/>
</svg>