<svg fill="#000000" width="24" height="24" viewBox="0 0 24 24" xmlns="http://www.w3.org/2000/svg">
  <path d="M3 0h18a3 3 0 0 1 3 3v18a3 3 0 0 1-3 3H3a3 3 0 0 1-3-3V3a3 3 0 0 1 3-3zm8.994 6s-5.625 0-7.037.367a2.326 2.326 0 0 0-1.59 1.601C3 9.381 3 12.306 3 12.306s0 2.936.367 4.326a2.291 2.291 0 0 0 1.59 1.59c1.423.378 7.037.378 7.037.378s5.637 0 7.05-.367a2.237 2.237 0 0 0 1.578-1.59C21 15.242 21 12.317 21 12.317s.011-2.936-.378-4.349a2.223 2.223 0 0 0-1.579-1.579C17.631 6 11.994 6 11.994 6zm-1.79 3.603l4.681 2.703-4.68 2.69V9.604z"/>
</svg>