<svg  fill="#000000" height="24" viewBox="0 0 24 24" width="24" xmlns="http://www.w3.org/2000/svg">
  <path d="M18 19v-9a1 1 0 0 0-1-1H1a1 1 0 0 0-1 1v9a1 1 0 0 0 1 1h16a1 1 0 0 0 1-1zM6.059 17.219a.624.624 0 1 1-1.118.558s-.861-1.71-.881-1.762a.065.065 0 0 0-.121 0l-.88 1.759a.625.625 0 1 1-1.118-.558l1.305-2.606a.252.252 0 0 0 0-.224l-1.3-2.609a.625.625 0 0 1 1.118-.558l.875 1.75a.072.072 0 0 0 .132 0l.875-1.75a.625.625 0 0 1 1.118.558l-1.31 2.609a.252.252 0 0 0 0 .224l1.305 2.609zm4.441.9h-2A1.626 1.626 0 0 1 6.875 16.5v-5a.625.625 0 1 1 1.25 0v5c0 .207.168.375.375.375h2a.625.625 0 1 1 0 1.25v-.006zm2.927-4.758l1.84 1.227a1.927 1.927 0 0 1-1.07 3.531H12.5a.625.625 0 1 1 0-1.25h1.7a.678.678 0 0 0 .376-1.242L12.733 14.4a1.927 1.927 0 0 1 1.07-3.531h1.7a.625.625 0 1 1 0 1.25H13.8a.678.678 0 0 0-.376 1.242h.003z" fill-rule="nonzero"/>
  <path d="M23.707 5.705L18.293.291A1 1 0 0 0 17.586 0H6a2 2 0 0 0-2 2v5.75c0 .138.112.25.25.25h1.5A.25.25 0 0 0 6 7.748V2.5a.5.5 0 0 1 .5-.5h10.25a.25.25 0 0 1 .25.25V5a2 2 0 0 0 2 2h2.75a.25.25 0 0 1 .25.25V21.5a.5.5 0 0 1-.5.5H6.249A.249.249 0 0 1 6 21.749v-.5A.251.251 0 0 0 5.749 21H4.25a.25.25 0 0 0-.25.25V22a2 2 0 0 0 2 2h16a2 2 0 0 0 2-2V6.412a1 1 0 0 0-.293-.707z"/>
</svg>