<svg fill="#000000" height="24" viewBox="0 0 24 24" width="24" xmlns="http://www.w3.org/2000/svg">
  <path d="M14.3835364,2.17421917 L12.4763319,2.34239035 L11.5787341,2.2035279 L10.9632385,3.1134424 L9.16648857,3.20699185 L8.04196561,2.9022253 L7.04256234,3.41747809 L4.87433908,3.7017807 L3.13665191,4.17391304 L3.13043478,4.17391304 C5.36704645,1.62395986 8.75460387,0 12.543166,0 C14.4044186,0 16.1607572,0.404162828 17.7391304,1.10286023 L17.3023772,1.16498291 L16.1040259,0.995424543 L15.2569422,1.527487 L14.6646988,2.14137871 L15.5468483,2.31482316 L16.5292437,3.20027033 L16.8329075,3.98558234 L17.0596745,4.72200946 L18.622719,6.13809417 L19.02525,6.2666141 L19.5800052,5.37643613 L21.5440114,5.20060825 L21.912802,5.08312683 C23.229463,7.05192611 23.9984307,9.42441991 24,11.9735301 C24,17.8097544 19.9770436,22.6911467 14.5691608,24 L14.7943585,23.1815724 L16.9098042,21.7623339 L17.4645595,20.2429601 L18.9263827,19.5601487 L20.3113092,16.9014418 L18.1699696,15.635954 L17.0604591,14.3704663 L16.4060519,14.2931967 L15.0956683,13.9391755 L13.9673259,13.7601937 L12.9794379,14.0393107 L12.3744643,13.3564992 L11.7687061,13.1783059 L11.8197091,12.2684163 L11.0884051,12.2912818 L10.6725349,12.7730345 L10.4347826,11.7598558 L11.3904996,11.3041226 L12.3744643,11.7598558 L12.9025411,11.7598558 L13.0939984,10.9745438 L14.5652375,9.20128407 L16.6084945,8.16445145 L17.7909784,8.3158369 L17.898477,7.73473755 L16.4319458,6.23980626 L15.8787598,5.12649245 L15.0705591,5.12649245 L14.5668068,4.83002929 L13.4831901,4.66918225 L13.2564232,5.96305474 L11.9436855,5.70916873 L11.8440336,4.89941428 L12.8515381,4.66997071 L13.1834497,3.21840505 L14.1831077,3.63156116 L14.1572139,4.24892994 L14.9191196,4.56825862 L15.4275798,4.7188556 L16.0521699,4.3908538 L15.49663,3.73327326 L14.3612257,2.61995945 L14.3835364,2.17421917 Z M14.0302128,18.1027138 C14.0302128,18.1027138 14.6078944,20.0215535 14.6086957,20.0978352 C14.6086957,20.1733305 14.031014,22.3957243 14.031014,22.3957243 L14.1624145,23.8922619 C13.6432222,23.9536018 13.1184212,24 12.5832044,24 C5.63339764,24 0,18.4683943 0,11.6478632 C0,9.37435285 0.636170918,7.25183314 1.7274364,5.42264423 L2.63281818,5.2173913 L1.72503273,5.92358719 L2.43651859,6.38127762 L3.85067687,6.38127762 L5.94988065,6.01402431 L7.2718983,8.12396147 L7.2718983,10.0954905 L9.07545087,12.4956129 L9.38151798,12.4956129 L9.38151798,11.6486496 L10.0761782,13.0751968 L12.1689722,13.5360329 L13.1136139,14.4671419 L13.9548978,14.7140745 L13.1136139,16.4347389 L14.0302128,18.1027138 Z M14.3835364,2.17421917 L14.6562123,2.15017548 L14.6646988,2.14137871 L14.3879042,2.08695652 L14.3835364,2.17421917 Z M13.0591876,1.14159555 L12.3426637,1.56110633 L12.840811,1.86514202 L13.9474597,1.76062975 L15.1061769,0.931109301 L14.3057217,0.496250561 L13.0591876,1.14159555 Z M9.36699094,1.23587585 C9.3491167,1.37254574 8.56653576,1.84613979 8.5673129,1.84613979 L9.36699094,2.28611452 L11.0300726,1.87537399 L10.6376164,1.23587585 L9.91720673,1.45147808 L9.36699094,1.23587585 Z"/>
</svg>
