<svg fill="#000000" height="24" viewBox="0 0 24 24" width="24" xmlns="http://www.w3.org/2000/svg">
  <path d="m11.9634641 2v1.37339056h-6.34912039c-.61879807 0-1.12043302.46116592-1.12043302 1.03004291v13.97424893h-1.49391069v-13.97424893c0-1.32737965 1.17048155-2.40343347 2.61434371-2.40343347zm-4.03518264 2.83261802h11.20433014c1.0313301 0 1.8673884.76860987 1.8673884 1.7167382v13.73390558c0 .9481283-.8360583 1.7167382-1.8673884 1.7167382h-11.20433014c-1.03133012 0-1.86738837-.7686099-1.86738837-1.7167382v-13.73390558c0-.94812833.83605825-1.7167382 1.86738837-1.7167382zm5.60216514 9.44206008c1.289665 0 2.3342354-.9603005 2.3342354-2.1459228s-1.0445704-2.14592269-2.3342354-2.14592269c-1.2896651 0-2.3342355.96030039-2.3342355 2.14592269s1.0445704 2.1459228 2.3342355 2.1459228zm0 1.0729614c-1.5581022 0-4.66847096.718884-4.66847096 2.1459227v.5364807c0 .2950643.26260149.5364807.58355886.5364807h8.1698241c.3209574 0 .5835588-.2414164.5835588-.5364807v-.5364807c0-1.4270387-3.1103687-2.1459227-4.6684708-2.1459227z"/>
  <path d="m0 0h24v24h-24z" fill="none" />
</svg>