<svg fill="#000000" height="24" viewBox="0 0 24 24" width="24" xmlns="http://www.w3.org/2000/svg">
  <path d="m19.6407062 12.98c.0411221-.32.0719637-.64.0719637-.98s-.0308416-.66-.0719637-.98l2.1691922-1.65c.1953302-.15.2467328-.42.1233664-.64l-2.0561064-3.46c-.1233664-.22-.4009408-.3-.6271125-.22l-2.5598525 1c-.5345877-.4-1.1102975-.73-1.7374099-.98l-.3906603-2.65c-.0308415-.24-.2467327-.42-.5037461-.42h-4.11221286c-.2570133 0-.47290448.18-.50374608.42l-.39066022 2.65c-.62711246.25-1.20282227.59-1.73740994.98l-2.55985252-1c-.23645224-.09-.50374608 0-.62711247.22l-2.05610643 3.46c-.13364692.22-.07196373.49.12336638.64l2.1691923 1.65c-.04112213.32-.07196373.65-.07196373.98s.0308416.66.07196373.98l-2.1691923 1.65c-.19533011.15-.24673277.42-.12336638.64l2.05610643 3.46c.12336639.22.40094076.3.62711247.22l2.55985252-1c.53458767.4 1.11029748.73 1.73740994.98l.39066022 2.65c.0308416.24.24673278.42.50374608.42h4.11221286c.2570134 0 .4729046-.18.5037461-.42l.3906603-2.65c.6271124-.25 1.2028222-.59 1.7374099-.98l2.5598525 1c.2364523.09.5037461 0 .6271125-.22l2.0561064-3.46c.1233664-.22.0719638-.49-.1233664-.64zm-7.6384355 2.52c-1.9841427 0-3.59818629-1.57-3.59818629-3.5s1.61404359-3.5 3.59818629-3.5 3.5981863 1.57 3.5981863 3.5-1.6140436 3.5-3.5981863 3.5z"/>
  <path d="m0 0h24v24h-24z" fill="none" />
</svg>