<svg fill="#000000" height="24" width="24" viewBox="0 0 24 24" xmlns="http://www.w3.org/2000/svg">
  <path d="M19.778 2H4.222C3 2 2 3 2 4.222v15.556C2 21 3 22 4.222 22h15.556C21 22 22 21 22 19.778V4.222C22 3 21 2 19.778 2zM7.556 17.556c-.612 0-1.112-.5-1.112-1.112V10.89c0-.611.5-1.111 1.112-1.111.61 0 1.11.5 1.11 1.11v5.556c0 .612-.5 1.112-1.11 1.112zm4.444 0c-.611 0-1.111-.5-1.111-1.112V7.556c0-.612.5-1.112 1.111-1.112s1.111.5 1.111 1.112v8.888c0 .612-.5 1.112-1.111 1.112zm4.444 0c-.61 0-1.11-.5-1.11-1.112v-2.222c0-.61.5-1.11 1.11-1.11.612 0 1.112.5 1.112 1.11v2.222c0 .612-.5 1.112-1.112 1.112z"/>
  <path d="M0 0h24v24H0z" fill="none" />
</svg>