<svg fill="#000000" height="24" width="24" viewBox="0 0 24 24" xmlns="http://www.w3.org/2000/svg">
<path d="M6 2c-1.1 0-1.99.9-1.99 2L4 20c0 1.1.89 2 1.99 2H18c1.1 0 2-.9 2-2V8l-6-6zm7 7V3.5L18.5 9zm-3.58 7.664a.787.787 0 0 1-.035-.25.33.33 0 0 1 .059-.184.308.308 0 0 1 .146-.108.668.668 0 0 1 .23-.034h.292c.072 0 .133.007.185.02a.377.377 0 0 1 .24.175c.029.046.056.101.082.166a1.053 1.053 0 0 0 .42.537c.097.065.204.113.322.146a1.596 1.596 0 0 0 .834-.015.875.875 0 0 0 .585-.507c.055-.127.083-.268.083-.424 0-.137-.025-.254-.073-.351s-.118-.183-.205-.254a1.234 1.234 0 0 0-.308-.18 4.46 4.46 0 0 0-.439-.152l-.81-.234a3.364 3.364 0 0 1-.56-.224 2.021 2.021 0 0 1-.497-.361 1.725 1.725 0 0 1-.371-.546 1.854 1.854 0 0 1-.142-.751c0-.247.041-.48.122-.698.082-.218.2-.41.356-.575.156-.166.345-.304.566-.415s.465-.188.732-.234v-.644c0-.071.008-.131.024-.18a.35.35 0 0 1 .073-.127.28.28 0 0 1 .127-.078.625.625 0 0 1 .185-.024h.176c.071 0 .133.008.185.024a.28.28 0 0 1 .127.078.35.35 0 0 1 .073.127.576.576 0 0 1 .025.18v.644c.195.033.377.085.546.156s.323.16.463.263.262.225.366.361.185.287.244.45c.039.09.057.17.053.238a.296.296 0 0 1-.063.176.372.372 0 0 1-.156.112.63.63 0 0 1-.234.039h-.244a.675.675 0 0 1-.19-.025.506.506 0 0 1-.264-.18 1.179 1.179 0 0 1-.102-.156.891.891 0 0 0-.38-.395.954.954 0 0 0-.25-.093 1.327 1.327 0 0 0-.287-.029c-.136 0-.265.018-.385.054a.941.941 0 0 0-.317.16.755.755 0 0 0-.215.269.851.851 0 0 0-.078.375c0 .137.02.254.059.351.039.098.097.18.175.25.078.067.174.126.288.175.114.049.255.099.424.151l.81.244c.267.078.5.172.702.283.202.11.374.242.517.395.143.153.25.328.322.526.072.199.107.425.107.678 0 .28-.043.535-.131.766s-.216.436-.386.615c-.169.178-.37.323-.604.434s-.498.185-.79.224v.683c0 .071-.008.132-.025.18s-.04.091-.073.127a.28.28 0 0 1-.127.078.625.625 0 0 1-.185.025h-.176a.625.625 0 0 1-.185-.025.28.28 0 0 1-.127-.078c-.032-.036-.057-.078-.073-.127s-.024-.109-.024-.18v-.673c-.234-.033-.452-.09-.654-.17s-.379-.183-.531-.303a1.837 1.837 0 0 1-.63-.951z" />
<path d="M0 0h24v24H0z" fill="none" />
</svg>