<svg width="20" height="20" viewBox="0 0 20 20">
  <g fill="none" fill-rule="evenodd" transform="translate(-2 -2)">
    <path fill="#000" fill-rule="nonzero" d="M20.5231788,2 L3.4777512,2 C2.66154708,2 2,2.64135888 2,3.43295561 L2,20.5664399 C2,21.3580831 2.66177958,22 3.4777512,22 L20.5231788,22 C21.3391969,22 22,21.3576646 22,20.5664399 L22,3.43295561 C22,2.64159138 21.3391969,2 20.5231788,2 Z M8.06342984,18.7413593 L5.0415728,18.7413593 L5.0415728,9.71160472 L8.06342984,9.71160472 L8.06342984,18.7413593 Z M6.55280357,8.47798976 L6.53248332,8.47798976 C5.51912172,8.47798976 4.86222458,7.78497064 4.86222458,6.91734826 C4.86222458,6.03224231 5.53841897,5.35800873 6.57186832,5.35800873 C7.60541067,5.35800873 8.24115058,6.03205632 8.26123833,6.91734826 C8.26123833,7.78515663 7.60564317,8.47798976 6.55280357,8.47798976 Z M18.9563347,18.7413593 L15.9354542,18.7413593 L15.9354542,13.910127 C15.9354542,12.696181 15.4977552,11.8678502 14.4052981,11.8678502 C13.5695643,11.8678502 13.0734621,12.4266736 12.8556124,12.9662 C12.7748894,13.1588913 12.7548946,13.4283987 12.7548946,13.6975342 L12.7548946,18.7411734 L9.73457208,18.7411734 C9.73457208,18.7411734 9.77409657,10.5583491 9.73457208,9.71146523 L12.7553596,9.71146523 L12.7553596,10.9916256 C13.1563705,10.376492 13.8729729,9.4990119 15.477156,9.4990119 C17.4654707,9.4990119 18.9563347,10.788844 18.9563347,13.5636639 L18.9563347,18.7413593 Z M12.7358299,11.0531651 C12.7469299,11.0349651 12.7624299,11.0130651 12.7778299,10.9917651 L12.7778299,11.0531651 L12.7358299,11.0531651 Z"/>
    <polygon points="0 0 24 0 24 24 0 24"/>
  </g>
</svg>
