<svg width="24" height="24" viewBox="0 0 24 24">
  <path d="M24,5.1996323 C23.1169538,5.57271924 22.1679798,5.82487282 21.1719521,5.93827921 C22.1886097,5.35769872 22.9692966,4.43840447 23.3369472,3.34306269 C22.385603,3.88057216 21.3318117,4.27097114 20.2102491,4.48139185 C19.3120158,3.56970819 18.0323494,3 16.6161747,3 C13.8968067,3 11.6921321,5.10027626 11.6921321,7.69080933 C11.6921321,8.05846013 11.7357621,8.41649313 11.8196861,8.75980671 C7.72742236,8.56418905 4.09928674,6.69666352 1.67075606,3.85866031 C1.24692198,4.55147632 1.00410403,5.35728056 1.00410403,6.21694446 C1.00410403,7.84435958 1.87345551,9.28017142 3.19464502,10.1213524 C2.38744651,10.0970152 1.62826731,9.88600908 0.964336659,9.53466672 C0.963985519,9.55423686 0.963985519,9.57389061 0.963985519,9.59362801 C0.963985519,11.8664392 2.66125315,13.7624 4.91377153,14.1932773 C4.50055964,14.3004949 4.06557665,14.3577835 3.61646001,14.3577835 C3.29919894,14.3577835 2.99071656,14.3284283 2.69013497,14.2736487 C3.3166685,16.1373271 5.13508175,17.4935203 7.28971798,17.5314061 C5.60456491,18.7894977 3.48144409,19.5394351 1.17458575,19.5394351 C0.777175463,19.5394351 0.385207944,19.5172723 0,19.4739504 C2.17904093,20.8048864 4.76725557,21.5814191 7.54789861,21.5814191 C16.6046746,21.5814191 21.5572478,14.433555 21.5572478,8.23475855 C21.5572478,8.03136303 21.5525074,7.82905473 21.5430264,7.62791729 C22.5049928,6.9665473 23.3398442,6.14033661 24,5.1996323"/>
</svg>
