<svg width="24" height="24" viewBox="0 0 24 24">
  <path d="M23.986537,9.89063347 C23.9778119,9.38444657 23.9396278,8.74443563 23.8728759,7.97119168 C23.8057487,7.19750445 23.7097255,6.50607197 23.584853,5.89684499 C23.4419674,5.21255439 23.1316626,4.63593378 22.6540793,4.16718019 C22.1764961,3.69832809 21.6206213,3.42654262 20.9865019,3.35142974 C19.0042101,3.11722534 16.0087251,3 11.9999531,3 C7.99113415,3 4.99560226,3.11722534 3.01345123,3.35142974 C2.3794256,3.42649336 1.82575553,3.69832809 1.35267559,4.16718019 C0.879408005,4.63578602 0.571354857,5.21240662 0.428469233,5.89684499 C0.294684007,6.50626898 0.194110542,7.19765221 0.127171019,7.97119168 C0.0603253158,8.74443563 0.0223288105,9.3842003 0.0134629593,9.89063347 C0.00440947098,10.3968696 0,11.0999261 0,12 C0,12.8999754 0.00440947098,13.6032289 0.0135098685,14.1093665 C0.0223757198,14.6158982 0.060372225,15.2555644 0.127217929,16.0287591 C0.194157451,16.802397 0.290180718,17.4938295 0.415193911,18.103155 C0.558079535,18.7876426 0.868290509,19.3641647 1.34596756,19.8327213 C1.82373843,20.3014749 2.37966014,20.5733096 3.01349814,20.6483732 C4.99564917,20.8828239 7.99099342,21 12,21 C16.0091473,21 19.004257,20.8828239 20.9865488,20.6483732 C21.6206682,20.5733589 22.1741037,20.3014749 22.6473713,19.8327213 C23.1206389,19.3641155 23.4285044,18.7872979 23.57139,18.103155 C23.7052691,17.4938295 23.8057487,16.802397 23.8728759,16.0287591 C23.9396278,15.2556136 23.9775305,14.6156027 23.986537,14.1093665 C23.9954967,13.6032289 24,12.8999754 24,12 C24,11.0999261 23.9955436,10.3968696 23.986537,9.89063347 Z M16.7411195,12.7594035 L9.88406375,17.2592311 C9.75900365,17.3529621 9.60706454,17.399803 9.42857478,17.399803 C9.29474264,17.399803 9.15636031,17.3621727 9.0135216,17.2872076 C8.71893141,17.1186592 8.57168322,16.856035 8.57168322,16.4998769 L8.57168322,7.50017239 C8.57168322,7.14411274 8.71897832,6.88148858 9.0135216,6.71279245 C9.31716527,6.54380079 9.60725217,6.55325763 9.88406375,6.74091668 L16.7411664,11.2407935 C17.0089245,11.3998851 17.1428035,11.6531509 17.1428035,12.0000493 C17.1428035,12.3467998 17.0088776,12.6001642 16.7411195,12.7594035 Z"/>
</svg>
