<?xml version="1.0" encoding="UTF-8" standalone="no"?>
<svg width="400px" height="400px" viewBox="0 0 400 400" version="1.1" xmlns="http://www.w3.org/2000/svg" xmlns:xlink="http://www.w3.org/1999/xlink">
    <!-- Generator: Sketch 3.8.3 (29802) - http://www.bohemiancoding.com/sketch -->
    <title>blog</title>
    <desc>Created with Sketch.</desc>
    <defs></defs>
    <g id="Page-1" stroke="none" stroke-width="1" fill="none" fill-rule="evenodd">
        <g id="blog">
            <g transform="translate(40.000000, 58.000000)" id="Layer_1">
                <g>
                    <g id="Group">
                        <path d="M278.373609,278.504348 L93.9732565,278.504348 C74.380719,278.504348 58.5116503,262.627826 58.5116503,243.026087 L58.5116503,40.8 L171.98879,40.8 C171.98879,21.1982609 187.857859,5.32173913 207.450396,5.32173913 C227.042934,5.32173913 242.912003,21.1982609 242.912003,40.8 L242.912003,212.869565 L242.912003,243.026087 C242.912003,262.627826 258.781071,278.504348 278.373609,278.504348 L278.373609,278.504348 Z" id="Shape" fill="#F6FAFC"></path>
                        <path d="M313.835215,212.869565 L313.835215,243.026087 C313.835215,262.627826 297.966146,278.504348 278.373609,278.504348 C258.781071,278.504348 242.912003,262.627826 242.912003,243.026087 L242.912003,212.869565 L313.835215,212.869565 L313.835215,212.869565 Z" id="Shape" fill="#E6F0F4"></path>
                        <path d="M40.7808471,5.32173913 L207.450396,5.32173913 C187.857859,5.32173913 171.98879,21.1982609 171.98879,40.8 L58.5116503,40.8 L5.31924093,40.8 C5.31924093,21.1982609 21.1883097,5.32173913 40.7808471,5.32173913 L40.7808471,5.32173913 Z" id="Shape" fill="#E6F0F4"></path>
                        <path d="M212.769637,24.8347826 C230.278805,24.8347826 237.592762,38.9373913 237.592762,58.5391304 L242.912003,40.8 C242.912003,21.1982609 227.042934,5.32173913 207.450396,5.32173913 C187.857859,5.32173913 171.98879,21.1982609 171.98879,40.8 L58.5116503,40.8 L58.5116503,58.5391304 L195.038834,58.5391304 C192.157579,42.573913 194.817199,24.8347826 212.769637,24.8347826 L212.769637,24.8347826 Z" id="Shape" fill="#E6F0F4"></path>
                        <path d="M278.373609,278.504348 C297.966146,278.504348 313.835215,262.627826 313.835215,243.026087 L242.912003,243.026087 C242.912003,262.627826 258.781071,278.504348 278.373609,278.504348 L278.373609,278.504348 Z" id="Shape" fill="#D8E5EA"></path>
                        <path d="M247.690454,260.765217 L93.9732565,260.765217 C74.380719,260.765217 58.5116503,244.888696 58.5116503,225.286957 L58.5116503,243.026087 C58.5116503,262.627826 74.380719,278.504348 93.9732565,278.504348 L278.373609,278.504348 C265.249268,278.504348 253.823539,271.3608 247.690454,260.765217 L247.690454,260.765217 Z" id="Shape" fill="#E6F0F4"></path>
                        <path d="M248.231243,207.547826 L248.231243,40.8 C248.231243,18.3032348 229.936601,0 207.450396,0 L40.7808471,0 C18.2946426,0 0,18.3032348 0,40.8 L0,46.1217391 L53.1924093,46.1217391 L53.1924093,243.026087 C53.1924093,265.522852 71.487052,283.826087 93.9732565,283.826087 L278.373609,283.826087 C300.859813,283.826087 319.154456,265.522852 319.154456,243.026087 L319.154456,207.547826 L248.231243,207.547826 L248.231243,207.547826 Z M40.7808471,10.6434783 L180.040348,10.6434783 C173.077461,16.9834435 168.295464,25.682713 167.0153,35.4782609 L11.1083481,35.4782609 C13.6278953,21.3792 25.9756266,10.6434783 40.7808471,10.6434783 L40.7808471,10.6434783 Z M93.9732565,273.182609 C77.3524016,273.182609 63.8308912,259.654748 63.8308912,243.026087 L63.8308912,46.1217391 L177.308031,46.1217391 L177.308031,40.8 C177.308031,24.1713391 190.829542,10.6434783 207.450396,10.6434783 C224.071251,10.6434783 237.592762,24.1713391 237.592762,40.8 L237.592762,243.026087 C237.592762,254.960974 242.741787,265.714435 250.935191,273.182609 L93.9732565,273.182609 L93.9732565,273.182609 Z M278.373609,273.182609 C261.752754,273.182609 248.231243,259.654748 248.231243,243.026087 L248.231243,218.191304 L308.515974,218.191304 L308.515974,243.026087 C308.515974,259.654748 294.994464,273.182609 278.373609,273.182609 L278.373609,273.182609 Z" id="Shape" fill="#234957"></path>
                        <path d="M198.584995,218.191304 L99.2924974,218.191304 C96.3545033,218.191304 93.9732565,215.808939 93.9732565,212.869565 C93.9732565,209.930191 96.3545033,207.547826 99.2924974,207.547826 L198.584995,207.547826 C201.522989,207.547826 203.904236,209.930191 203.904236,212.869565 C203.904236,215.808939 201.522989,218.191304 198.584995,218.191304 L198.584995,218.191304 Z" id="Shape" fill="#234957"></path>
                        <path d="M170.21571,182.713043 L99.2924974,182.713043 C96.3545033,182.713043 93.9732565,180.330678 93.9732565,177.391304 C93.9732565,174.45193 96.3545033,172.069565 99.2924974,172.069565 L170.21571,172.069565 C173.153704,172.069565 175.534951,174.45193 175.534951,177.391304 C175.534951,180.330678 173.153704,182.713043 170.21571,182.713043 L170.21571,182.713043 Z" id="Shape" fill="#234957"></path>
                        <path d="M170.21571,147.234783 L99.2924974,147.234783 C96.3545033,147.234783 93.9732565,144.852417 93.9732565,141.913043 C93.9732565,138.97367 96.3545033,136.591304 99.2924974,136.591304 L170.21571,136.591304 C173.153704,136.591304 175.534951,138.97367 175.534951,141.913043 C175.534951,144.852417 173.153704,147.234783 170.21571,147.234783 L170.21571,147.234783 Z" id="Shape" fill="#234957"></path>
                        <path d="M187.946513,111.756522 L99.2924974,111.756522 C96.3545033,111.756522 93.9732565,109.374157 93.9732565,106.434783 C93.9732565,103.495409 96.3545033,101.113043 99.2924974,101.113043 L187.946513,101.113043 C190.884507,101.113043 193.265754,103.495409 193.265754,106.434783 C193.265754,109.374157 190.884507,111.756522 187.946513,111.756522 L187.946513,111.756522 Z" id="Shape" fill="#234957"></path>
                        <path d="M295.196595,60.1551652 C295.226737,62.9277913 294.990917,65.8494261 294.547647,68.8881391 L291.776323,85.7048348 L289.801111,97.6237565 L289.682315,97.5936 L230.025255,69.299687 L237.339211,60.9800348 L249.252538,47.4078261 C257.47963,37.8198261 266.710286,32.538887 277.089899,37.4650435 L284.639675,41.064313 C292.45364,44.7842087 295.107941,51.7166609 295.196595,60.1551652 L295.196595,60.1551652 Z" id="Shape" fill="#1B9ED6"></path>
                        <path d="M284.639675,41.066087 L277.089899,37.4668174 C273.884169,35.9448 270.790144,35.4019826 267.798958,35.6538783 C274.914329,39.4660174 277.416145,46.1501217 277.501253,54.2533565 C277.531396,57.0259826 277.295576,59.9476174 276.852306,62.9863304 L274.080981,79.8030261 L272.483436,89.4371478 L289.680542,97.5936 L289.797565,97.6237565 L291.772777,85.7048348 L294.544101,68.8881391 C294.987371,65.8494261 295.223191,62.9277913 295.193049,60.1551652 C295.107941,51.7166609 292.45364,44.7842087 284.639675,41.066087 L284.639675,41.066087 Z" id="Shape" fill="#1C7CD3"></path>
                        <path d="M289.799338,97.6237565 L289.593661,98.9222609 L251.995493,178.226817 C247.954643,186.723861 238.842783,191.266852 229.966743,189.909809 C228.019901,189.615339 226.04469,189.024626 224.186501,188.139443 L201.538947,177.400174 C199.652389,176.514991 197.971509,175.363722 196.496306,174.036835 C189.831297,168.017948 187.561755,158.075165 191.600831,149.578122 L229.17063,70.2735652 L230.025255,69.299687 L289.682315,97.5936 L289.799338,97.6237565 L289.799338,97.6237565 Z" id="Shape" fill="#F6FAFC"></path>
                        <path d="M289.682315,97.5936 L272.286624,89.1905739 L231.353292,169.374991 C227.358542,177.776243 218.404487,182.290852 209.624193,181.07927 L224.188274,188.139443 C226.046463,189.024626 228.021674,189.615339 229.968516,189.909809 C238.844556,191.266852 247.956416,186.723861 251.997266,178.226817 L289.595434,98.9222609 L289.801111,97.6237565 L289.682315,97.5936 L289.682315,97.5936 Z" id="Shape" fill="#D8E5EA"></path>
                        <path d="M229.96497,189.909809 L229.846174,190.825148 L222.679383,205.960174 L213.24305,201.475722 L198.145271,194.305565 L188.708937,189.821113 L195.875728,174.716243 L196.494533,174.036835 C197.969736,175.363722 199.650616,176.514991 201.537174,177.400174 L224.184728,188.139443 C226.042916,189.024626 228.019901,189.615339 229.96497,189.909809 L229.96497,189.909809 Z" id="Shape" fill="#1B9ED6"></path>
                        <path d="M224.184728,188.139443 L217.932847,185.175235 L210.884853,200.060139 L213.244823,201.475722 L222.681156,205.960174 L229.846174,190.825148 L229.96497,189.909809 C228.019901,189.615339 226.042916,189.024626 224.184728,188.139443 L224.184728,188.139443 Z" id="Shape" fill="#1C7CD3"></path>
                        <path d="M222.681156,211.280139 C221.899228,211.280139 221.119072,211.10807 220.399202,210.765704 L186.426983,194.628417 C183.774455,193.367165 182.645003,190.193635 183.90389,187.539861 L191.07068,172.433217 C192.331341,169.77767 195.506927,168.649461 198.157682,169.907165 C200.811984,171.166643 201.941436,174.341948 200.682549,176.997496 L195.795939,187.296835 L220.154517,198.866296 L225.041126,188.54567 C226.300013,185.890122 229.4756,184.758365 232.126355,186.014296 C234.782429,187.272 235.913655,190.447304 234.656541,193.102852 L227.48975,208.237878 C226.88513,209.515096 225.798231,210.497843 224.468421,210.973252 C223.888624,211.179026 223.285777,211.280139 222.681156,211.280139 L222.681156,211.280139 Z" id="Shape" fill="#234957"></path>
                        <path d="M198.530029,218.285322 C197.847393,218.285322 197.161211,218.154052 196.508718,217.882643 C194.521095,217.059548 193.210788,215.133078 193.210788,212.981322 L192.829576,194.415548 C192.769291,191.477948 195.100892,189.045913 198.038886,188.9856 C201.012342,188.875617 203.406,191.259757 203.466285,194.197357 L203.631181,202.23673 L209.971717,197.282191 C212.287359,195.4728 215.627843,195.882574 217.438158,198.201078 C219.2467,200.517809 218.835345,203.861635 216.519702,205.671026 L201.86874,217.119861 C200.911276,217.88087 199.728632,218.285322 198.530029,218.285322 L198.530029,218.285322 Z" id="Shape" fill="#234957"></path>
                        <path d="M289.676996,102.917113 C288.912798,102.917113 288.137962,102.752139 287.402134,102.402678 L227.745074,74.1087652 C225.090772,72.849287 223.959547,69.6757565 225.216661,67.0202087 C226.477321,64.3646609 229.649362,63.2346783 232.30189,64.4906087 L291.95895,92.7845217 C294.613251,94.044 295.744477,97.2175304 294.487363,99.8730783 C293.577772,101.794226 291.669938,102.917113 289.676996,102.917113 L289.676996,102.917113 Z" id="Shape" fill="#234957"></path>
                        <path d="M294.306508,161.103235 C292.347255,161.103235 290.359632,160.682817 288.471301,159.792313 C281.667992,156.556696 278.761913,148.378957 281.978281,141.554713 C283.233622,138.899165 286.40389,137.760313 289.059964,139.012696 C291.716038,140.266852 292.854356,143.438609 291.600788,146.097704 C290.879144,147.628591 291.517453,149.457496 293.024571,150.172383 C293.758627,150.516522 294.590201,150.56087 295.357945,150.285913 C296.12037,150.014504 296.730309,149.45927 297.077833,148.723096 C298.333174,146.065774 301.501668,144.93047 304.159516,146.181078 C306.81559,147.435235 307.953908,150.606991 306.70034,153.266087 C304.372285,158.204661 299.443122,161.103235 294.306508,161.103235 L294.306508,161.103235 Z" id="Shape" fill="#234957"></path>
                        <path d="M233.089138,195.469252 C231.777058,195.469252 230.456113,195.368139 229.161765,195.171235 C226.642218,194.789843 224.195367,194.039478 221.897455,192.944974 L199.258765,182.211026 C196.996315,181.150226 194.861526,179.727548 192.935961,177.996209 C184.389714,170.277913 181.868394,157.656522 186.795784,147.295096 L224.362036,67.9976348 C224.574806,67.5506087 224.846087,67.135513 225.174107,66.7629913 L245.256015,43.8990261 C253.110761,34.742087 260.954868,30.2700522 269.192599,30.2700522 C272.604005,30.2700522 276.027824,31.0754087 279.37008,32.661287 L286.926948,36.2641043 C295.820719,40.494887 300.393493,48.5165217 300.515836,60.1019478 C300.547751,63.0590609 300.317251,66.1846957 299.811923,69.6580174 L294.847298,99.7595478 C294.767509,100.259791 294.616798,100.747617 294.400482,101.205287 L256.800541,180.509843 C252.477771,189.5976 243.170872,195.469252 233.089138,195.469252 L233.089138,195.469252 Z M233.656523,73.2271304 L196.407652,151.8576 C193.48207,158.011304 194.985642,165.504313 200.060198,170.08633 C201.202061,171.113426 202.460948,171.954261 203.796078,172.582226 L226.463137,183.330365 C227.807131,183.970748 229.2912,184.42487 230.762856,184.648383 C231.532373,184.765461 232.314302,184.825774 233.089138,184.825774 C239.089241,184.825774 244.624798,181.338261 247.190445,175.940243 L284.460593,97.3310609 L284.545701,96.7882435 L289.29933,68.0206957 C289.703592,65.2392 289.902177,62.5783304 289.877354,60.2101565 C289.799338,52.7313391 287.478376,48.3089739 282.355947,45.8716174 L274.802625,42.2705739 C272.878833,41.3570087 271.040149,40.9099826 269.194372,40.9099826 C264.313082,40.9099826 258.961926,44.2626783 253.289842,50.8740522 L233.656523,73.2271304 L233.656523,73.2271304 Z" id="Shape" fill="#234957"></path>
                        <path d="M286.788648,149.148835 C286.02445,149.148835 285.249614,148.983861 284.513786,148.6344 C281.857712,147.376696 280.726486,144.201391 281.985373,141.545843 L307.021267,88.679687 C310.700409,80.9205913 307.388295,71.6199652 299.639934,67.9426435 L293.34018,64.9677913 C290.682332,63.7136348 289.545788,60.5418783 290.799356,57.8845565 C292.052923,55.2254609 295.226737,54.0901565 297.879265,55.3425391 L304.189658,58.322713 C317.246622,64.5207652 322.824732,80.1826435 316.634909,93.2386435 L291.599015,146.106574 C290.687652,148.024174 288.779817,149.148835 286.788648,149.148835 L286.788648,149.148835 Z" id="Shape" fill="#234957"></path>
                    </g>
                </g>
            </g>
        </g>
    </g>
</svg>