<?xml version="1.0" encoding="UTF-8" standalone="no"?>
<svg width="400" height="400" viewBox="0 0 400 400" xmlns="http://www.w3.org/2000/svg">
  <title>blog</title>
  <g fill="none" fill-rule="evenodd">
    <path d="M318.374 336.504h-184.4c-19.593 0-35.462-15.876-35.462-35.478V98.8h113.477c0-19.602 15.869-35.478 35.461-35.478 19.593 0 35.462 15.876 35.462 35.478v202.226c0 19.602 15.87 35.478 35.462 35.478z" fill="#F6FAFC"/>
    <path d="M353.835 270.87v30.156c0 19.602-15.869 35.478-35.461 35.478-19.593 0-35.462-15.876-35.462-35.478V270.87h70.923zM80.78 63.322h166.67c-19.592 0-35.461 15.876-35.461 35.478H45.319c0-19.602 15.87-35.478 35.462-35.478z" fill="#E6F0F4"/>
    <path d="M252.77 82.835c17.509 0 24.823 14.102 24.823 33.704l5.319-17.739c0-19.602-15.87-35.478-35.462-35.478-19.592 0-35.461 15.876-35.461 35.478H98.512v17.74h136.527c-2.881-15.966-.222-33.705 17.73-33.705z" fill="#E6F0F4"/>
    <path d="M318.374 336.504c19.592 0 35.461-15.876 35.461-35.478h-70.923c0 19.602 15.87 35.478 35.462 35.478z" fill="#D8E5EA"/>
    <path d="M287.69 318.765H133.973c-19.592 0-35.461-15.876-35.461-35.478v17.74c0 19.6 15.869 35.477 35.461 35.477h184.4c-13.124 0-24.55-7.143-30.683-17.739z" fill="#E6F0F4"/>
    <path d="M288.231 265.548V98.8c0-22.497-18.294-40.8-40.78-40.8H80.78C58.295 58 40 76.303 40 98.8v5.322h53.192v196.904c0 22.497 18.295 40.8 40.781 40.8h184.4c22.487 0 40.781-18.303 40.781-40.8v-35.478h-70.923zM80.781 68.643h139.26c-6.964 6.34-11.746 15.04-13.026 24.835H51.108c2.52-14.099 14.868-24.835 29.673-24.835zm53.192 262.54c-16.62 0-30.142-13.528-30.142-30.157V104.122h113.477V98.8c0-16.629 13.522-30.157 30.142-30.157 16.621 0 30.143 13.528 30.143 30.157v202.226c0 11.935 5.149 22.688 13.342 30.157H133.973zm184.4 0c-16.62 0-30.142-13.528-30.142-30.157v-24.835h60.285v24.835c0 16.629-13.522 30.157-30.142 30.157z" fill="#234957"/>
    <path d="M238.585 276.191h-99.293a5.32 5.32 0 0 1-5.319-5.321 5.32 5.32 0 0 1 5.32-5.322h99.292a5.32 5.32 0 0 1 5.32 5.322 5.32 5.32 0 0 1-5.32 5.321zM210.216 240.713h-70.924a5.32 5.32 0 0 1-5.319-5.322 5.32 5.32 0 0 1 5.32-5.321h70.923a5.32 5.32 0 0 1 5.319 5.321 5.32 5.32 0 0 1-5.32 5.322zM210.216 205.235h-70.924a5.32 5.32 0 0 1-5.319-5.322 5.32 5.32 0 0 1 5.32-5.322h70.923a5.32 5.32 0 0 1 5.319 5.322 5.32 5.32 0 0 1-5.32 5.322zM227.947 169.757h-88.655a5.32 5.32 0 0 1-5.319-5.322 5.32 5.32 0 0 1 5.32-5.322h88.654a5.32 5.32 0 0 1 5.319 5.322 5.32 5.32 0 0 1-5.32 5.322z" fill="#234957"/>
    <path d="M335.197 118.155c.03 2.773-.206 5.694-.65 8.733l-2.77 16.817-1.976 11.919-.119-.03-59.657-28.294 7.314-8.32 11.914-13.572c8.227-9.588 17.457-14.87 27.837-9.943l7.55 3.6c7.814 3.72 10.468 10.652 10.557 19.09z" fill="#1B9ED6"/>
    <path d="M324.64 99.066l-7.55-3.6c-3.206-1.521-6.3-2.064-9.291-1.812 7.115 3.812 9.617 10.496 9.702 18.6.03 2.772-.205 5.694-.649 8.732l-2.771 16.817-1.598 9.634 17.198 8.157.117.03 1.975-11.92 2.771-16.816c.443-3.039.68-5.96.649-8.733-.085-8.438-2.74-15.37-10.553-19.089z" fill="#1C7CD3"/>
    <path d="M329.8 155.624l-.206 1.298-37.599 79.305c-4.04 8.497-13.152 13.04-22.028 11.683a20.728 20.728 0 0 1-5.78-1.77l-22.648-10.74a20.667 20.667 0 0 1-5.043-3.363c-6.665-6.02-8.934-15.962-4.895-24.459l37.57-79.304.854-.974 59.657 28.294.117.03z" fill="#F6FAFC"/>
    <path d="M329.682 155.594l-17.395-8.403-40.934 80.184c-3.994 8.401-12.949 12.916-21.729 11.704l14.564 7.06a20.728 20.728 0 0 0 5.78 1.77c8.877 1.358 17.988-3.185 22.03-11.682l37.597-79.305.206-1.298-.119-.03z" fill="#D8E5EA"/>
    <path d="M269.965 247.91l-.119.915-7.167 15.135-9.436-4.484-15.098-7.17-9.436-4.485 7.167-15.105.619-.68a20.667 20.667 0 0 0 5.042 3.364l22.648 10.74a20.746 20.746 0 0 0 5.78 1.77z" fill="#1B9ED6"/>
    <path d="M264.185 246.14l-6.252-2.965-7.048 14.885 2.36 1.416 9.436 4.484 7.165-15.135.119-.915a20.746 20.746 0 0 1-5.78-1.77z" fill="#1C7CD3"/>
    <path d="M262.681 269.28a5.312 5.312 0 0 1-2.282-.514l-33.972-16.138a5.324 5.324 0 0 1-2.523-7.088l7.167-15.107a5.322 5.322 0 0 1 7.087-2.526 5.324 5.324 0 0 1 2.525 7.09l-4.887 10.3 24.359 11.57 4.886-10.321a5.323 5.323 0 0 1 7.085-2.532 5.323 5.323 0 0 1 2.53 7.089l-7.166 15.135a5.324 5.324 0 0 1-3.022 2.735 5.334 5.334 0 0 1-1.787.307z" fill="#234957"/>
    <path d="M238.53 276.285a5.255 5.255 0 0 1-2.021-.402 5.314 5.314 0 0 1-3.298-4.902l-.381-18.565a5.321 5.321 0 0 1 5.209-5.43c2.973-.11 5.367 2.274 5.427 5.211l.165 8.04 6.34-4.955a5.316 5.316 0 0 1 7.467.92 5.323 5.323 0 0 1-.918 7.469l-14.651 11.449a5.373 5.373 0 0 1-3.339 1.165zM329.677 160.917a5.288 5.288 0 0 1-2.275-.514l-59.657-28.294a5.325 5.325 0 0 1-2.528-7.089 5.323 5.323 0 0 1 7.085-2.53l59.657 28.295a5.325 5.325 0 0 1-2.282 10.132zM334.307 219.103c-1.96 0-3.947-.42-5.836-1.31-6.803-3.236-9.71-11.414-6.493-18.238a5.324 5.324 0 0 1 7.082-2.542 5.325 5.325 0 0 1 2.54 7.085c-.72 1.53-.083 3.36 1.425 4.074a3.05 3.05 0 0 0 2.333.114 3.006 3.006 0 0 0 1.72-1.563 5.323 5.323 0 0 1 7.082-2.542 5.325 5.325 0 0 1 2.54 7.085c-2.328 4.939-7.257 7.837-12.393 7.837z" fill="#234957"/>
    <path d="M273.09 253.47c-1.313 0-2.634-.102-3.928-.299a25.908 25.908 0 0 1-7.265-2.226l-22.638-10.734a25.98 25.98 0 0 1-6.323-4.215c-8.546-7.718-11.068-20.34-6.14-30.7l37.566-79.298a5.33 5.33 0 0 1 .812-1.235l20.082-22.864c7.855-9.157 15.699-13.629 23.937-13.629 3.411 0 6.835.805 10.177 2.391l7.557 3.603c8.894 4.23 13.466 12.253 13.589 23.838.032 2.957-.199 6.083-.704 9.556l-4.965 30.102c-.08.5-.23.988-.447 1.445l-37.6 79.305c-4.322 9.088-13.63 14.96-23.71 14.96zm.567-122.243l-37.25 78.63c-2.925 6.154-1.421 13.647 3.653 18.23a15.4 15.4 0 0 0 3.736 2.495l22.667 10.748a15.545 15.545 0 0 0 6.626 1.496c6 0 11.536-3.488 14.101-8.886l37.27-78.609.086-.543 4.753-28.767c.405-2.782.603-5.443.578-7.81-.078-7.48-2.399-11.902-7.521-14.34l-7.553-3.6c-1.924-.914-3.763-1.361-5.609-1.361-4.88 0-10.232 3.353-15.904 9.964l-19.633 22.353z" fill="#234957"/>
    <path d="M326.789 207.149a5.321 5.321 0 0 1-4.803-7.603l25.035-52.866c3.68-7.76.367-17.06-7.381-20.737l-6.3-2.975a5.322 5.322 0 0 1 4.54-9.625l6.31 2.98c13.057 6.198 18.635 21.86 12.445 34.916l-25.036 52.868a5.324 5.324 0 0 1-4.81 3.042z" fill="#234957"/>
  </g>
</svg>
