<?xml version="1.0" encoding="UTF-8" standalone="no"?>
<svg width="400" height="400" viewBox="0 0 400 400" xmlns="http://www.w3.org/2000/svg">
  <g fill="none" fill-rule="evenodd" opacity=".6">
    <path d="M200.348 120.522c-44.348 0-79.826 35.478-79.826 79.826 0 44.348 35.478 79.826 79.826 79.826 44.348 0 79.826-35.478 79.826-79.826 0-44.348-35.478-79.826-79.826-79.826zm0-79.826c-87.957 0-159.652 71.695-159.652 159.652C40.696 288.304 112.39 360 200.348 360 288.304 360 360 288.304 360 200.348c0-87.957-71.696-159.652-159.652-159.652zm0 287.521c-70.218 0-127.87-56.913-127.87-127.87 0-70.217 56.913-127.869 127.87-127.869a127.442 127.442 0 0 1 127.87 127.87c0 70.217-57.653 127.87-127.87 127.87z" fill="#b0bec5"/>
    <path d="M20 20h247.609v247.609H20z"/>
  </g>
</svg>
