<?xml version="1.0" encoding="UTF-8" standalone="no"?>
<svg width="400px" height="400px" viewBox="0 0 400 400" version="1.1" xmlns="http://www.w3.org/2000/svg" xmlns:xlink="http://www.w3.org/1999/xlink">
  <g stroke="none" stroke-width="1" fill="none" fill-rule="evenodd" opacity="0.6" transform="translate(20.000000, 20.000000)">
    <path d="M180.347826,100.521739 C136,100.521739 100.521739,136 100.521739,180.347826 C100.521739,224.695652 136,260.173913 180.347826,260.173913 C224.695652,260.173913 260.173913,224.695652 260.173913,180.347826 C260.173913,136 224.695652,100.521739 180.347826,100.521739 L180.347826,100.521739 L180.347826,100.521739 Z M180.347826,20.6956522 C92.3913043,20.6956522 20.6956522,92.3913043 20.6956522,180.347826 C20.6956522,268.304348 92.3913043,340 180.347826,340 C268.304348,340 340,268.304348 340,180.347826 C340,92.3913043 268.304348,20.6956522 180.347826,20.6956522 L180.347826,20.6956522 L180.347826,20.6956522 Z M180.347826,308.217391 C110.130435,308.217391 52.4782609,251.304348 52.4782609,180.347826 C52.4782609,110.130435 109.391304,52.4782609 180.347826,52.4782609 C251.304348,52.4782609 308.217391,109.391304 308.217391,180.347826 C308.217391,250.565217 250.565217,308.217391 180.347826,308.217391 L180.347826,308.217391 L180.347826,308.217391 Z" fill="#b0bec5"></path>
    <polygon points="0 0 247.608696 0 247.608696 247.608696 0 247.608696"></polygon>
  </g>
</svg>
