<?xml version="1.0" encoding="UTF-8" standalone="no"?><svg width="400" height="400" viewBox="0 0 400 400" xmlns="http://www.w3.org/2000/svg"><title>careers</title><g fill="none" fill-rule="evenodd"><path d="M319.111 328v16c0 5.867-4.8 10.667-10.667 10.667h-81.777c-5.867 0-10.667-4.8-10.667-10.667V233.778h103.111V328z" fill="#F6FAFC"/><path d="M301.333 233.778v104.889c0 5.866-4.8 10.666-10.666 10.666h17.777c5.867 0 10.667-4.8 10.667-10.666V233.778h-17.778z" fill="#E6F0F4"/><path d="M233.778 233.778v104.889c0 5.866 4.8 10.666 10.666 10.666h-17.777c-5.867 0-10.667-4.8-10.667-10.666V233.778h17.778z" fill="#FFF"/><path d="M286.844 297.031c3.254-3.627.587-9.333-4.284-9.244-3.538.053-5.6-2.898-5.6-3.61 0-.8.924-4.48 2.898-11.555 1.529-5.458-5.138-9.44-9.21-5.493l-20.301 19.662c-3.591 3.485-1.138 9.547 3.857 9.547h.036c3.538 0 6.187 3.27 5.422 6.738l-2.506 11.608c-1.21 5.583 5.76 9.138 9.564 4.89l20.124-22.543z" fill="#F6FAFC"/><path d="M282.56 287.787c4.871-.09 7.538 5.617 4.284 9.244l-20.124 22.542c-3.804 4.25-10.773.694-9.564-4.889l2.506-11.608c.765-3.467-1.884-6.738-5.422-6.738h-.036c-4.995 0-7.448-6.062-3.857-9.547l20.302-19.662c4.071-3.947 10.738.035 9.209 5.493-1.974 7.076-2.898 10.756-2.898 11.556 0 .71 2.062 3.662 5.6 3.609z" fill="#FBB735"/><path d="M283.556 93.191l-34.454 35.325-45.173 46.328-36.676 37.6c-20.444-20.96-27.875-50.204-22.293-77.208a87.882 87.882 0 0 1 2.044-8c3.876-12.463 10.614-24.178 20.25-34.045 9.51-9.76 20.782-16.622 32.782-20.604 28.444-9.423 60.924-2.56 83.52 20.604z" fill="#EA5F6E"/><path d="M182.204 92.089c28.192-9.339 60.336-2.658 82.904 20.016l18.448-18.914c-22.596-23.164-55.076-30.027-83.52-20.604-12 3.982-23.272 10.844-32.783 20.604a84.087 84.087 0 0 0-10.01 12.443c7.648-6.086 16.105-10.606 24.961-13.545z" fill="#FBB735"/><path d="M164.462 117.404a87.882 87.882 0 0 1 2.045-8 84.738 84.738 0 0 1 14.643-27.642 82.661 82.661 0 0 0-13.898 11.43c-9.636 9.866-16.374 21.581-20.25 34.044a87.882 87.882 0 0 0-2.044 8c-5.58 27.004 1.85 56.248 22.295 77.208l18.482-18.947c-19.646-20.877-26.757-49.557-21.273-76.093z" fill="#D34A5E"/><path d="M249.102 128.516a33.546 33.546 0 0 1 4.231 16.373c0 18.649-15.129 33.778-33.777 33.778a33.735 33.735 0 0 1-15.627-3.823l45.173-46.328z" fill="#FBB735"/><path d="M223.111 155.556l26.084-26.863c-.032-.058-.06-.12-.093-.177l-45.173 46.328a33.735 33.735 0 0 0 15.627 3.823c12.056 0 22.613-6.343 28.59-15.855-5.2 3.268-21.924-3.109-25.035-7.256z" fill="#FFD366"/><path d="M174.613 53.689l25.423 18.898c-12 3.982-23.272 10.844-32.783 20.604-9.635 9.867-16.373 21.582-20.249 34.045l-8.088-11.112-10.774-14.79c-11.395-15.254-9.6-31.29 3.182-44.392 7.165-7.36 14.863-11.609 23.076-11.609 6.418 0 13.156 2.614 20.213 8.356z" fill="#EA5F6E"/><path d="M144.94 56c6.418 0 13.156 2.613 20.214 8.356l20.057 14.91c4.76-2.738 9.72-4.985 14.825-6.68L174.613 53.69c-7.057-5.742-13.795-8.356-20.213-8.356-8.213 0-15.911 4.25-23.076 11.61-2.25 2.307-4.14 4.709-5.697 7.176C131.707 58.946 138.144 56 144.94 56z" fill="#FBB735"/><path d="M152.567 103.556l-10.773-14.792c-9.979-13.356-9.842-27.313-1.07-39.376-3.227 1.915-6.365 4.436-9.4 7.554-12.782 13.102-14.577 29.138-3.182 44.391l10.774 14.791 8.088 11.112a85.085 85.085 0 0 1 8.77-19.273l-3.207-4.407z" fill="#D34A5E"/><path d="M189.333 339.538v15.129h-128v-15.13c0-7.324 5.991-13.315 13.316-13.315h101.369c7.324 0 13.315 5.991 13.315 13.316z" fill="#EA5F6E"/><path d="M176.018 326.222h-35.555c7.324 0 13.315 5.991 13.315 13.316v15.129h35.555v-15.13c0-7.324-5.99-13.315-13.315-13.315z" fill="#D34A5E"/><path d="M138.916 116.124l8.088 11.112a87.882 87.882 0 0 0-2.044 8L88.231 205.51A26.571 26.571 0 0 0 72 200c-.267 0-.533 0-.782.018l67.698-83.894zM84.551 250.187l27.431 76.035H91.396l-25.618-73.618a26.5 26.5 0 0 0 6.222.73c4.533 0 8.818-1.138 12.551-3.147z" fill="#F6FAFC"/><path d="M88.231 205.511c6.347 4.889 10.436 12.551 10.436 21.156 0 10.186-5.725 19.04-14.116 23.52A26.436 26.436 0 0 1 72 253.333a26.5 26.5 0 0 1-6.222-.729c-11.716-2.808-20.445-13.368-20.445-25.937 0-14.454 11.52-26.24 25.885-26.65.249-.017.515-.017.782-.017a26.571 26.571 0 0 1 16.231 5.511zm-7.342 21.156c0-4.907-3.982-8.89-8.889-8.89-4.907 0-8.889 3.983-8.889 8.89 0 4.906 3.982 8.889 8.889 8.889 4.907 0 8.889-3.983 8.889-8.89z" fill="#FBB735"/><path d="M333.333 333.333h-14.222a5.333 5.333 0 1 1 0-10.666h14.222c8.823 0 16-7.179 16-16v-24.89c0-8.82-7.177-16-16-16h-14.222a5.333 5.333 0 1 1 0-10.666h14.222c14.704 0 26.667 11.963 26.667 26.667v24.889c0 14.704-11.963 26.666-26.667 26.666z" fill="#234957"/><path d="M308.444 360h-81.777c-8.823 0-16-7.179-16-16V233.778a5.333 5.333 0 0 1 5.333-5.334h103.111a5.333 5.333 0 0 1 5.333 5.334V344c0 8.821-7.176 16-16 16zm-87.11-120.889V344a5.34 5.34 0 0 0 5.333 5.333h81.777a5.34 5.34 0 0 0 5.334-5.333V239.111h-92.445zM72 240.889c-7.842 0-14.222-6.38-14.222-14.222s6.38-14.223 14.222-14.223 14.222 6.38 14.222 14.223c0 7.841-6.38 14.222-14.222 14.222zm0-17.778a3.56 3.56 0 0 0-3.556 3.556A3.56 3.56 0 0 0 72 230.222a3.56 3.56 0 0 0 3.556-3.555A3.56 3.56 0 0 0 72 223.11zM189.333 360h-128A5.333 5.333 0 0 1 56 354.667v-15.13c0-10.282 8.366-18.648 18.649-18.648h101.369c10.282 0 18.649 8.366 18.649 18.649v15.129a5.333 5.333 0 0 1-5.334 5.333zM66.667 349.333H184v-9.795c0-4.402-3.58-7.982-7.982-7.982H74.648c-4.4 0-7.981 3.58-7.981 7.982v9.795zM167.253 217.778a5.334 5.334 0 0 1-3.817-1.61c-21.004-21.533-29.863-52.193-23.7-82.013a94.257 94.257 0 0 1 2.164-8.471c4.294-13.805 11.536-25.98 21.536-36.22 9.894-10.152 21.643-17.535 34.92-21.94a85.85 85.85 0 0 1 27.038-4.361c23.424 0 45.434 9.34 61.978 26.302a5.33 5.33 0 0 1 0 7.447L171.07 216.165a5.315 5.315 0 0 1-3.817 1.613zm58.14-143.947a75.225 75.225 0 0 0-23.681 3.817c-11.636 3.861-21.945 10.343-30.64 19.264-8.814 9.028-15.198 19.762-18.976 31.906a82.677 82.677 0 0 0-1.911 7.48c-5.074 24.538 1.344 49.69 17.2 68.37l108.6-111.358c-14.013-12.597-31.79-19.479-50.591-19.479z" fill="#234957"/><path d="M72 258.667c-2.542 0-5.056-.295-7.472-.879C50.088 254.328 40 241.528 40 226.667c0-17.407 13.598-31.435 30.974-31.977.33-.02.678-.023 1.026-.023 7.1 0 13.835 2.286 19.477 6.613C99.438 207.412 104 216.663 104 226.667a31.942 31.942 0 0 1-16.937 28.224c-4.585 2.467-9.799 3.776-15.063 3.776zm-.2-53.334c-.074 0-.143 0-.212.006-.063.003-.155.009-.22.01-11.608.331-20.701 9.695-20.701 21.318 0 9.909 6.725 18.442 16.355 20.75 4.91 1.186 10.47.512 15.003-1.927 6.981-3.728 11.308-10.937 11.308-18.823 0-6.669-3.045-12.84-8.357-16.93-3.806-2.921-8.43-4.404-13.177-4.404zM297.778 221.333a5.333 5.333 0 0 1-5.334-5.333c0-17.644 14.356-32 32-32a5.333 5.333 0 1 1 0 10.667c-11.763 0-21.333 9.57-21.333 21.333a5.333 5.333 0 0 1-5.333 5.333zM262.222 221.333A5.333 5.333 0 0 1 256.89 216c0-17.644 14.355-32 32-32a5.333 5.333 0 1 1 0 10.667c-11.764 0-21.333 9.57-21.333 21.333a5.333 5.333 0 0 1-5.334 5.333z" fill="#234957"/><path d="M324.444 194.667a5.333 5.333 0 1 1 0-10.667c11.764 0 21.334-9.57 21.334-21.333a5.333 5.333 0 1 1 10.666 0c0 17.644-14.355 32-32 32zM233.778 221.333a5.333 5.333 0 0 1-5.334-5.333c0-8.821 7.177-16 16-16a5.333 5.333 0 1 1 0 10.667 5.34 5.34 0 0 0-5.333 5.333 5.333 5.333 0 0 1-5.333 5.333zM219.556 184a39.326 39.326 0 0 1-18.091-4.425 5.333 5.333 0 0 1 4.928-9.46 28.218 28.218 0 0 0 13.163 3.218c15.683 0 28.444-12.76 28.444-28.444 0-4.834-1.23-9.598-3.557-13.78a5.333 5.333 0 0 1 9.319-5.187 39.078 39.078 0 0 1 4.905 18.967c0 21.566-17.545 39.111-39.111 39.111zM147.008 132.569a5.327 5.327 0 0 1-4.316-2.194l-18.86-25.902c-12.568-16.82-11.208-36 3.674-51.255 15.714-16.14 33.386-17.511 50.38-3.74l25.332 18.828a5.333 5.333 0 1 1-6.363 8.56l-25.422-18.898a4.697 4.697 0 0 1-.185-.144c-5.84-4.748-11.508-7.157-16.848-7.157-6.32 0-12.798 3.363-19.255 9.996-11.223 11.506-12.192 24.814-2.73 37.48l18.9 25.955a5.333 5.333 0 0 1-4.307 8.47z" fill="#234957"/><path d="M88.228 210.844a5.304 5.304 0 0 1-3.346-1.184 5.332 5.332 0 0 1-.8-7.5l56.729-70.276a5.334 5.334 0 0 1 8.3 6.7L92.382 208.86a5.325 5.325 0 0 1-4.154 1.984zM68.727 205.54a5.335 5.335 0 0 1-4.155-8.674l68.92-85.82a5.335 5.335 0 0 1 8.318 6.68l-68.921 85.819a5.325 5.325 0 0 1-4.162 1.995zM111.982 331.557a5.336 5.336 0 0 1-5.017-3.525l-27.43-76.036a5.333 5.333 0 0 1 3.206-6.826 5.33 5.33 0 0 1 6.827 3.207l27.431 76.035a5.333 5.333 0 0 1-5.017 7.145zM91.396 331.557a5.333 5.333 0 0 1-5.037-3.582l-25.618-73.618a5.334 5.334 0 0 1 10.075-3.504l25.618 73.618a5.334 5.334 0 0 1-5.038 7.086zM157.333 331.556a5.333 5.333 0 0 1-5.333-5.334v-12.444h-7.111v12.444a5.333 5.333 0 1 1-10.667 0v-17.778a5.333 5.333 0 0 1 5.334-5.333h17.777a5.333 5.333 0 0 1 5.334 5.333v17.778a5.333 5.333 0 0 1-5.334 5.334zM262.647 326.78c-3.303 0-6.519-1.54-8.597-4.117-2.043-2.533-2.813-5.854-2.107-9.11l2.503-11.603-.035-.195c-.068-.084-.137-.084-.175-.084-4.49 0-8.453-2.667-10.124-6.791a10.855 10.855 0 0 1 2.52-11.916l20.305-19.666c2.057-1.995 4.727-3.095 7.518-3.095 3.419 0 6.704 1.639 8.782 4.382 2.047 2.699 2.687 6.151 1.753 9.475-1.2 4.303-1.875 6.866-2.252 8.392 4.346.024 8.142 2.5 9.913 6.469 1.769 3.963 1.063 8.434-1.84 11.671l-20.114 22.532c-2.112 2.36-4.967 3.656-8.05 3.656zm11.81-55.91l-20.4 19.75c-.085.082-.114.11-.057.251.053.132.085.132.204.132 3.353 0 6.447 1.482 8.525 4.07a10.821 10.821 0 0 1 2.14 9.151l-2.5 11.584c.01.206.164.304.278.304h.005l20.212-22.633c.08-.126.062-.219-.004-.295-.032-.037-.055-.066-.188-.066l-.206.002c-6.004 0-10.84-4.892-10.84-8.942 0-1.149.216-2.67 3.094-12.989 0-.21-.167-.32-.263-.32z" fill="#234957"/></g></svg>