<?xml version="1.0" encoding="UTF-8" standalone="no"?>
<svg width="400px" height="400px" viewBox="0 0 400 400" version="1.1" xmlns="http://www.w3.org/2000/svg" xmlns:xlink="http://www.w3.org/1999/xlink">
    <!-- Generator: Sketch 3.8.3 (29802) - http://www.bohemiancoding.com/sketch -->
    <title>careers</title>
    <desc>Created with Sketch.</desc>
    <defs></defs>
    <g id="Page-1" stroke="none" stroke-width="1" fill="none" fill-rule="evenodd">
        <g id="careers">
            <g transform="translate(40.000000, 40.000000)" id="Layer_4">
                <g>
                    <g id="Group">
                        <path d="M279.111111,288 L279.111111,304 C279.111111,309.866667 274.311111,314.666667 268.444444,314.666667 L186.666667,314.666667 C180.8,314.666667 176,309.866667 176,304 L176,193.777778 L279.111111,193.777778 L279.111111,220.444444 L279.111111,288 L279.111111,288 Z" id="Shape" fill="#F6FAFC"></path>
                        <path d="M261.333333,193.777778 L261.333333,298.666667 C261.333333,304.533333 256.533333,309.333333 250.666667,309.333333 L268.444444,309.333333 C274.311111,309.333333 279.111111,304.533333 279.111111,298.666667 L279.111111,288 L279.111111,220.444444 L279.111111,193.777778 L261.333333,193.777778 L261.333333,193.777778 Z" id="Shape" fill="#E6F0F4"></path>
                        <path d="M193.777778,193.777778 L193.777778,298.666667 C193.777778,304.533333 198.577778,309.333333 204.444444,309.333333 L186.666667,309.333333 C180.8,309.333333 176,304.533333 176,298.666667 L176,288 L176,220.444444 L176,193.777778 L193.777778,193.777778 L193.777778,193.777778 Z" id="Shape" fill="#FFFFFF"></path>
                        <path d="M246.844444,257.031111 C250.097778,253.404444 247.431111,247.697778 242.56,247.786667 C239.022222,247.84 236.96,244.888889 236.96,244.177778 C236.96,243.377778 237.884444,239.697778 239.857778,232.622222 C241.386667,227.164444 234.72,223.182222 230.648889,227.128889 L210.346667,246.791111 C206.755556,250.275556 209.208889,256.337778 214.204444,256.337778 L214.24,256.337778 C217.777778,256.337778 220.426667,259.608889 219.662222,263.075556 L217.155556,274.684444 C215.946667,280.266667 222.915556,283.822222 226.72,279.573333 L246.844444,257.031111 L246.844444,257.031111 Z" id="Shape" fill="#F6FAFC"></path>
                        <path d="M242.56,247.786667 C247.431111,247.697778 250.097778,253.404444 246.844444,257.031111 L226.72,279.573333 C222.915556,283.822222 215.946667,280.266667 217.155556,274.684444 L219.662222,263.075556 C220.426667,259.608889 217.777778,256.337778 214.24,256.337778 L214.204444,256.337778 C209.208889,256.337778 206.755556,250.275556 210.346667,246.791111 L230.648889,227.128889 C234.72,223.182222 241.386667,227.164444 239.857778,232.622222 C237.884444,239.697778 236.96,243.377778 236.96,244.177778 C236.96,244.888889 239.022222,247.84 242.56,247.786667 L242.56,247.786667 Z" id="Shape" fill="#FBB735"></path>
                        <path d="M243.555556,53.1911111 L209.102222,88.5155556 L163.928889,134.844444 L127.253333,172.444444 C106.808889,151.484444 99.3777778,122.24 104.96,95.2355556 C105.511111,92.5333333 106.204444,89.8666667 107.004444,87.2355556 C110.88,74.7733333 117.617778,63.0577778 127.253333,53.1911111 C136.764444,43.4311111 148.035556,36.5688889 160.035556,32.5866667 C188.48,23.1644444 220.96,30.0266667 243.555556,53.1911111 L243.555556,53.1911111 Z" id="Shape" fill="#EA5F6E"></path>
                        <path d="M142.204444,52.0888889 C170.396444,42.7502222 202.540444,49.4311111 225.107556,72.1048889 L243.555556,53.1911111 C220.96,30.0266667 188.48,23.1644444 160.035556,32.5866667 C148.035556,36.5688889 136.764444,43.4311111 127.253333,53.1911111 C123.463111,57.072 120.138667,61.248 117.242667,65.6337778 C124.890667,59.5484444 133.347556,55.0275556 142.204444,52.0888889 L142.204444,52.0888889 Z" id="Shape" fill="#FBB735"></path>
                        <path d="M124.462222,77.4044444 C125.013333,74.7022222 125.706667,72.0355556 126.506667,69.4044444 C129.576889,59.5342222 134.472889,50.1475556 141.150222,41.7617778 C136.225778,44.992 131.552,48.7786667 127.251556,53.1911111 C117.616,63.0577778 110.878222,74.7733333 107.002667,87.2355556 C106.202667,89.8666667 105.509333,92.5333333 104.958222,95.2355556 C99.3777778,122.24 106.808889,151.484444 127.253333,172.444444 L145.735111,153.496889 C126.088889,132.620444 118.977778,103.939556 124.462222,77.4044444 L124.462222,77.4044444 Z" id="Shape" fill="#D34A5E"></path>
                        <path d="M209.102222,88.5155556 C211.804444,93.3688889 213.333333,98.9511111 213.333333,104.888889 C213.333333,123.537778 198.204444,138.666667 179.555556,138.666667 C173.92,138.666667 168.604444,137.28 163.928889,134.844444 L209.102222,88.5155556 L209.102222,88.5155556 Z" id="Shape" fill="#FBB735"></path>
                        <path d="M183.111111,115.555556 L209.194667,88.6933333 C209.162667,88.6346667 209.134222,88.5724444 209.102222,88.5155556 L163.928889,134.844444 C168.604444,137.28 173.92,138.666667 179.555556,138.666667 C191.612444,138.666667 202.168889,132.323556 208.145778,122.812444 C202.945778,126.08 186.222222,119.703111 183.111111,115.555556 L183.111111,115.555556 Z" id="Shape" fill="#FFD366"></path>
                        <path d="M134.613333,13.6888889 L160.035556,32.5866667 C148.035556,36.5688889 136.764444,43.4311111 127.253333,53.1911111 C117.617778,63.0577778 110.88,74.7733333 107.004444,87.2355556 L98.9155556,76.1244444 L88.1422222,61.3333333 C76.7466667,46.08 78.5422222,30.0444444 91.3244444,16.9422222 C98.4888889,9.58222222 106.186667,5.33333333 114.4,5.33333333 C120.817778,5.33333333 127.555556,7.94666667 134.613333,13.6888889 L134.613333,13.6888889 Z" id="Shape" fill="#EA5F6E"></path>
                        <path d="M104.940444,16 C111.358222,16 118.096,18.6133333 125.153778,24.3555556 L145.210667,39.2657778 C149.971556,36.528 154.931556,34.2808889 160.035556,32.5866667 L134.613333,13.6888889 C127.555556,7.94666667 120.817778,5.33333333 114.4,5.33333333 C106.186667,5.33333333 98.4888889,9.58222222 91.3244444,16.9422222 C89.0737778,19.2497778 87.184,21.6515556 85.6266667,24.1191111 C91.7066667,18.9457778 98.144,16 104.940444,16 L104.940444,16 Z" id="Shape" fill="#FBB735"></path>
                        <path d="M112.567111,63.5555556 L101.793778,48.7644444 C91.8151111,35.408 91.952,21.4506667 100.723556,9.38844444 C97.4968889,11.3031111 94.3591111,13.824 91.3244444,16.9422222 C78.5422222,30.0444444 76.7466667,46.08 88.1422222,61.3333333 L98.9155556,76.1244444 L107.004444,87.2355556 C109.088,80.5333333 112.028444,74.0604444 115.774222,67.9626667 L112.567111,63.5555556 L112.567111,63.5555556 Z" id="Shape" fill="#D34A5E"></path>
                        <path d="M149.333333,299.537778 L149.333333,314.666667 L21.3333333,314.666667 L21.3333333,299.537778 C21.3333333,292.213333 27.3244444,286.222222 34.6488889,286.222222 L51.3955556,286.222222 L71.9822222,286.222222 L99.5555556,286.222222 L117.333333,286.222222 L136.017778,286.222222 C143.342222,286.222222 149.333333,292.213333 149.333333,299.537778 L149.333333,299.537778 Z" id="Shape" fill="#EA5F6E"></path>
                        <path d="M136.017778,286.222222 L117.333333,286.222222 L100.462222,286.222222 C107.786667,286.222222 113.777778,292.213333 113.777778,299.537778 L113.777778,314.666667 L149.333333,314.666667 L149.333333,299.537778 C149.333333,292.213333 143.342222,286.222222 136.017778,286.222222 L136.017778,286.222222 Z" id="Shape" fill="#D34A5E"></path>
                        <path d="M98.9155556,76.1244444 L107.004444,87.2355556 C106.204444,89.8666667 105.511111,92.5333333 104.96,95.2355556 L48.2311111,165.511111 C43.7333333,162.062222 38.1155556,160 32,160 C31.7333333,160 31.4666667,160 31.2177778,160.017778 L98.9155556,76.1244444 L98.9155556,76.1244444 Z" id="Shape" fill="#F6FAFC"></path>
                        <path d="M44.5511111,210.186667 L71.9822222,286.222222 L51.3955556,286.222222 L25.7777778,212.604444 C27.7688889,213.084444 29.8488889,213.333333 32,213.333333 C36.5333333,213.333333 40.8177778,212.195556 44.5511111,210.186667 L44.5511111,210.186667 Z" id="Shape" fill="#F6FAFC"></path>
                        <path d="M48.2311111,165.511111 C54.5777778,170.4 58.6666667,178.062222 58.6666667,186.666667 C58.6666667,196.853333 52.9422222,205.706667 44.5511111,210.186667 C40.8177778,212.195556 36.5333333,213.333333 32,213.333333 C29.8488889,213.333333 27.7688889,213.084444 25.7777778,212.604444 C14.0622222,209.795556 5.33333333,199.235556 5.33333333,186.666667 C5.33333333,172.213333 16.8533333,160.426667 31.2177778,160.017778 C31.4666667,160 31.7333333,160 32,160 C38.1155556,160 43.7333333,162.062222 48.2311111,165.511111 L48.2311111,165.511111 Z M40.8888889,186.666667 C40.8888889,181.76 36.9066667,177.777778 32,177.777778 C27.0933333,177.777778 23.1111111,181.76 23.1111111,186.666667 C23.1111111,191.573333 27.0933333,195.555556 32,195.555556 C36.9066667,195.555556 40.8888889,191.573333 40.8888889,186.666667 L40.8888889,186.666667 Z" id="Shape" fill="#FBB735"></path>
                        <path d="M293.333333,293.333333 L279.111111,293.333333 C276.165333,293.333333 273.777778,290.945778 273.777778,288 C273.777778,285.054222 276.165333,282.666667 279.111111,282.666667 L293.333333,282.666667 C302.156444,282.666667 309.333333,275.488 309.333333,266.666667 L309.333333,241.777778 C309.333333,232.956444 302.156444,225.777778 293.333333,225.777778 L279.111111,225.777778 C276.165333,225.777778 273.777778,223.390222 273.777778,220.444444 C273.777778,217.498667 276.165333,215.111111 279.111111,215.111111 L293.333333,215.111111 C308.037333,215.111111 320,227.073778 320,241.777778 L320,266.666667 C320,281.370667 308.037333,293.333333 293.333333,293.333333 L293.333333,293.333333 Z" id="Shape" fill="#234957"></path>
                        <path d="M268.444444,320 L186.666667,320 C177.843556,320 170.666667,312.821333 170.666667,304 L170.666667,193.777778 C170.666667,190.832 173.054222,188.444444 176,188.444444 L279.111111,188.444444 C282.056889,188.444444 284.444444,190.832 284.444444,193.777778 L284.444444,304 C284.444444,312.821333 277.267556,320 268.444444,320 L268.444444,320 Z M181.333333,199.111111 L181.333333,304 C181.333333,306.940444 183.726222,309.333333 186.666667,309.333333 L268.444444,309.333333 C271.384889,309.333333 273.777778,306.940444 273.777778,304 L273.777778,199.111111 L181.333333,199.111111 L181.333333,199.111111 Z" id="Shape" fill="#234957"></path>
                        <path d="M32,200.888889 C24.1582222,200.888889 17.7777778,194.508444 17.7777778,186.666667 C17.7777778,178.824889 24.1582222,172.444444 32,172.444444 C39.8417778,172.444444 46.2222222,178.824889 46.2222222,186.666667 C46.2222222,194.508444 39.8417778,200.888889 32,200.888889 L32,200.888889 Z M32,183.111111 C30.0391111,183.111111 28.4444444,184.705778 28.4444444,186.666667 C28.4444444,188.627556 30.0391111,190.222222 32,190.222222 C33.9608889,190.222222 35.5555556,188.627556 35.5555556,186.666667 C35.5555556,184.705778 33.9608889,183.111111 32,183.111111 L32,183.111111 Z" id="Shape" fill="#234957"></path>
                        <path d="M149.333333,320 L21.3333333,320 C18.3875556,320 16,317.612444 16,314.666667 L16,299.537778 C16,289.255111 24.3662222,280.888889 34.6488889,280.888889 L136.017778,280.888889 C146.300444,280.888889 154.666667,289.255111 154.666667,299.537778 L154.666667,314.666667 C154.666667,317.612444 152.279111,320 149.333333,320 L149.333333,320 Z M26.6666667,309.333333 L144,309.333333 L144,299.537778 C144,295.136 140.419556,291.555556 136.017778,291.555556 L34.6488889,291.555556 C30.2471111,291.555556 26.6666667,295.136 26.6666667,299.537778 L26.6666667,309.333333 L26.6666667,309.333333 Z" id="Shape" fill="#234957"></path>
                        <path d="M127.253333,177.777778 C125.815111,177.777778 124.439111,177.196444 123.436444,176.168889 C102.432,154.634667 93.5733333,123.975111 99.7368889,94.1546667 C100.291556,91.4364444 101.020444,88.5831111 101.900444,85.6835556 C106.193778,71.8791111 113.436444,59.7048889 123.436444,49.4631111 C133.329778,39.312 145.079111,31.9288889 158.355556,27.5235556 C167.089778,24.6311111 176.184889,23.1626667 185.393778,23.1626667 C208.817778,23.1626667 230.828444,32.5031111 247.372444,49.4648889 C249.393778,51.536 249.393778,54.8408889 247.372444,56.912 L131.070222,176.165333 C130.067556,177.198222 128.691556,177.777778 127.253333,177.777778 L127.253333,177.777778 Z M185.393778,33.8311111 C177.328,33.8311111 169.358222,35.1164444 161.712,37.648 C150.076444,41.5093333 139.767111,47.9911111 131.072,56.912 C122.257778,65.9395556 115.873778,76.6737778 112.096,88.8177778 C111.320889,91.3653333 110.675556,93.8933333 110.184889,96.2986667 C105.111111,120.835556 111.528889,145.987556 127.384889,164.668444 L235.985778,53.3102222 C221.971556,40.7128889 204.195556,33.8311111 185.393778,33.8311111 L185.393778,33.8311111 Z" id="Shape" fill="#234957"></path>
                        <path d="M32,218.666667 C29.4577778,218.666667 26.944,218.371556 24.528,217.788444 C10.0888889,214.327111 0,201.528889 0,186.666667 C0,169.260444 13.5982222,155.232 30.9742222,154.689778 C31.3031111,154.670222 31.6515556,154.666667 32,154.666667 C39.1004444,154.666667 45.8346667,156.952889 51.4773333,161.28 C59.4382222,167.411556 64,176.663111 64,186.666667 C64,198.497778 57.5111111,209.313778 47.0631111,214.890667 C42.4782222,217.358222 37.264,218.666667 32,218.666667 L32,218.666667 Z M31.7991111,165.333333 C31.7262222,165.333333 31.6568889,165.333333 31.5875556,165.338667 C31.5253333,165.342222 31.4328889,165.347556 31.3688889,165.349333 C19.76,165.68 10.6666667,175.043556 10.6666667,186.666667 C10.6666667,196.576 17.392,205.109333 27.0222222,207.416889 C31.9324444,208.602667 37.4915556,207.928889 42.0248889,205.489778 C49.0062222,201.761778 53.3333333,194.552889 53.3333333,186.666667 C53.3333333,179.998222 50.288,173.827556 44.976,169.736889 C41.1697778,166.816 36.5457778,165.333333 31.7991111,165.333333 L31.7991111,165.333333 Z" id="Shape" fill="#234957"></path>
                        <path d="M257.777778,181.333333 C254.832,181.333333 252.444444,178.945778 252.444444,176 C252.444444,158.355556 266.8,144 284.444444,144 C287.390222,144 289.777778,146.387556 289.777778,149.333333 C289.777778,152.279111 287.390222,154.666667 284.444444,154.666667 C272.680889,154.666667 263.111111,164.236444 263.111111,176 C263.111111,178.945778 260.723556,181.333333 257.777778,181.333333 L257.777778,181.333333 Z" id="Shape" fill="#234957"></path>
                        <path d="M222.222222,181.333333 C219.276444,181.333333 216.888889,178.945778 216.888889,176 C216.888889,158.355556 231.244444,144 248.888889,144 C251.834667,144 254.222222,146.387556 254.222222,149.333333 C254.222222,152.279111 251.834667,154.666667 248.888889,154.666667 C237.125333,154.666667 227.555556,164.236444 227.555556,176 C227.555556,178.945778 225.168,181.333333 222.222222,181.333333 L222.222222,181.333333 Z" id="Shape" fill="#234957"></path>
                        <path d="M284.444444,154.666667 C281.498667,154.666667 279.111111,152.279111 279.111111,149.333333 C279.111111,146.387556 281.498667,144 284.444444,144 C296.208,144 305.777778,134.430222 305.777778,122.666667 C305.777778,119.720889 308.165333,117.333333 311.111111,117.333333 C314.056889,117.333333 316.444444,119.720889 316.444444,122.666667 C316.444444,140.311111 302.088889,154.666667 284.444444,154.666667 L284.444444,154.666667 Z" id="Shape" fill="#234957"></path>
                        <path d="M193.777778,181.333333 C190.832,181.333333 188.444444,178.945778 188.444444,176 C188.444444,167.178667 195.621333,160 204.444444,160 C207.390222,160 209.777778,162.387556 209.777778,165.333333 C209.777778,168.279111 207.390222,170.666667 204.444444,170.666667 C201.504,170.666667 199.111111,173.059556 199.111111,176 C199.111111,178.945778 196.723556,181.333333 193.777778,181.333333 L193.777778,181.333333 Z" id="Shape" fill="#234957"></path>
                        <path d="M179.555556,144 C173.278222,144 167.022222,142.469333 161.464889,139.575111 C158.853333,138.213333 157.838222,134.993778 159.2,132.380444 C160.56,129.768889 163.783111,128.753778 166.392889,130.115556 C170.492444,132.250667 174.920889,133.333333 179.555556,133.333333 C195.239111,133.333333 208,120.572444 208,104.888889 C208,100.055111 206.769778,95.2906667 204.442667,91.1093333 C203.009778,88.5351111 203.936,85.2888889 206.508444,83.856 C209.084444,82.4213333 212.328889,83.3493333 213.761778,85.9217778 C216.970667,91.6853333 218.666667,98.2453333 218.666667,104.888889 C218.666667,126.455111 201.121778,144 179.555556,144 L179.555556,144 Z" id="Shape" fill="#234957"></path>
                        <path d="M107.008,92.5688889 C105.36,92.5688889 103.735111,91.808 102.691556,90.3751111 L83.8311111,64.4728889 C71.264,47.6533333 72.624,28.4728889 87.5057778,13.2177778 C103.219556,-2.92266667 120.892444,-4.29333333 137.886222,9.47733333 L163.217778,28.3057778 C165.582222,30.0622222 166.072889,33.4044444 164.316444,35.7671111 C162.56,38.1297778 159.217778,38.6222222 156.855111,36.8657778 L131.432889,17.968 C131.370667,17.9217778 131.308444,17.8737778 131.248,17.824 C125.408,13.0755556 119.740444,10.6666667 114.4,10.6666667 C108.08,10.6666667 101.601778,14.0302222 95.1448889,20.6631111 C83.9217778,32.1688889 82.9528889,45.4773333 92.4142222,58.1422222 L111.315556,84.0977778 C113.048889,86.4782222 112.524444,89.8151111 110.142222,91.5484444 C109.196444,92.2364444 108.097778,92.5688889 107.008,92.5688889 L107.008,92.5688889 Z" id="Shape" fill="#234957"></path>
                        <path d="M48.2275556,170.844444 C47.0506667,170.844444 45.8666667,170.456889 44.8817778,169.660444 C42.5884444,167.809778 42.2311111,164.451556 44.0817778,162.16 L100.810667,91.8844444 C102.663111,89.5911111 106.021333,89.2355556 108.311111,91.0844444 C110.604444,92.9351111 110.961778,96.2933333 109.111111,98.5848889 L52.3822222,168.860444 C51.328,170.167111 49.7831111,170.844444 48.2275556,170.844444 L48.2275556,170.844444 Z" id="Shape" fill="#234957"></path>
                        <path d="M28.7271111,165.539556 C27.5555556,165.539556 26.3751111,165.155556 25.392,164.364444 C23.0951111,162.519111 22.7288889,159.162667 24.5724444,156.865778 L93.4915556,71.0453333 C95.3368889,68.7502222 98.6951111,68.3822222 100.990222,70.2257778 C103.287111,72.0711111 103.653333,75.4275556 101.809778,77.7244444 L32.8888889,163.544889 C31.8346667,164.856889 30.288,165.539556 28.7271111,165.539556 L28.7271111,165.539556 Z" id="Shape" fill="#234957"></path>
                        <path d="M71.9822222,291.557333 C69.7973333,291.557333 67.7493333,290.204444 66.9653333,288.032 L39.5342222,211.996444 C38.5351111,209.224889 39.9697778,206.168889 42.7413333,205.169778 C45.5111111,204.165333 48.5688889,205.607111 49.568,208.376889 L76.9991111,284.412444 C77.9982222,287.184 76.5635556,290.24 73.792,291.239111 C73.1946667,291.454222 72.5831111,291.557333 71.9822222,291.557333 L71.9822222,291.557333 Z" id="Shape" fill="#234957"></path>
                        <path d="M51.3955556,291.557333 C49.1875556,291.557333 47.1253333,290.177778 46.3591111,287.975111 L20.7413333,214.357333 C19.7742222,211.576889 21.2444444,208.535111 24.0266667,207.568 C26.8124444,206.604444 29.8471111,208.071111 30.816,210.853333 L56.4337778,284.471111 C57.4008889,287.251556 55.9306667,290.293333 53.1484444,291.260444 C52.5688889,291.461333 51.9768889,291.557333 51.3955556,291.557333 L51.3955556,291.557333 Z" id="Shape" fill="#234957"></path>
                        <path d="M117.333333,291.555556 C114.387556,291.555556 112,289.168 112,286.222222 L112,273.777778 L104.888889,273.777778 L104.888889,286.222222 C104.888889,289.168 102.501333,291.555556 99.5555556,291.555556 C96.6097778,291.555556 94.2222222,289.168 94.2222222,286.222222 L94.2222222,268.444444 C94.2222222,265.498667 96.6097778,263.111111 99.5555556,263.111111 L117.333333,263.111111 C120.279111,263.111111 122.666667,265.498667 122.666667,268.444444 L122.666667,286.222222 C122.666667,289.168 120.279111,291.555556 117.333333,291.555556 L117.333333,291.555556 Z" id="Shape" fill="#234957"></path>
                        <path d="M222.647111,286.780444 C219.344,286.780444 216.128,285.240889 214.049778,282.663111 C212.007111,280.129778 211.237333,276.808889 211.943111,273.553778 L214.446222,261.950222 L214.410667,261.754667 C214.343111,261.671111 214.273778,261.671111 214.236444,261.671111 C209.745778,261.671111 205.783111,259.004444 204.112,254.88 C202.439111,250.748444 203.425778,246.071111 206.631111,242.963556 L226.936889,223.297778 C228.993778,221.303111 231.664,220.202667 234.455111,220.202667 C237.873778,220.202667 241.159111,221.841778 243.237333,224.584889 C245.283556,227.283556 245.923556,230.736 244.990222,234.060444 C243.790222,238.362667 243.114667,240.926222 242.737778,242.451556 C247.084444,242.476444 250.88,244.951111 252.650667,248.920889 C254.419556,252.883556 253.713778,257.354667 250.810667,260.592 L230.696889,283.123556 C228.584889,285.484444 225.729778,286.780444 222.647111,286.780444 L222.647111,286.780444 Z M234.456889,230.869333 L214.056889,250.620444 C213.971556,250.702222 213.943111,250.730667 214,250.871111 C214.053333,251.002667 214.085333,251.002667 214.204444,251.002667 C217.557333,251.002667 220.650667,252.485333 222.728889,255.073778 C224.803556,257.656889 225.582222,260.992 224.869333,264.224 L222.369778,275.808 C222.378667,276.014222 222.533333,276.112 222.647111,276.112 L222.652444,276.112 L242.864,253.479111 C242.944,253.352889 242.926222,253.260444 242.860444,253.184 C242.828444,253.146667 242.805333,253.118222 242.672,253.118222 L242.465778,253.12 C236.462222,253.12 231.626667,248.227556 231.626667,244.177778 C231.626667,243.029333 231.841778,241.507556 234.72,231.189333 C234.72,230.979556 234.552889,230.869333 234.456889,230.869333 L234.456889,230.869333 Z" id="Shape" fill="#234957"></path>
                    </g>
                </g>
            </g>
        </g>
    </g>
</svg>