<?xml version="1.0" encoding="UTF-8" standalone="no"?><svg width="400" height="400" viewBox="0 0 400 400" xmlns="http://www.w3.org/2000/svg"><title>company-group</title><g fill="none" fill-rule="evenodd"><path d="M335.255 114.309v148.219c0 7.372-.94 13.993-2.693 21.366h-22.376v2.95H267.42v5.898h-26.544V114.308h94.378z" fill="#3EB38A"/><path fill="#3EB38A" d="M321.983 96.613v17.696h-67.834V96.613h57.603zM311.752 96.613h-47.006c8.268 0 14.957-8.848 14.957-16.221h17.094c-.001 7.373 6.687 16.22 14.955 16.22z"/><path d="M321.983 114.309V295.69h10.58c1.751-11.627 2.692-22.07 2.692-33.694V114.309h-13.272zM312.821 96.613h-8.534v17.696h19.17V96.613z" fill="#2A9E71"/><path fill="#30C68D" d="M254.149 114.309h-13.272v178.433h13.272zM264.746 96.613h-10.597v17.696h17.696V96.613z"/><path d="M335.255 273.571a4.424 4.424 0 0 1-4.424-4.424V117.258h-8.848a4.424 4.424 0 1 1 0-8.848h13.272a4.424 4.424 0 0 1 4.424 4.424v156.313a4.423 4.423 0 0 1-4.424 4.424zM240.877 277.995a4.424 4.424 0 0 1-4.424-4.424V112.834a4.424 4.424 0 0 1 4.424-4.424h13.272a4.424 4.424 0 1 1 0 8.848H245.3v156.313a4.423 4.423 0 0 1-4.424 4.424zM311.752 100.645c-9.16 0-17.078-7.56-18.958-17.304H283.7c-1.889 9.684-9.802 17.199-18.955 17.199a4.424 4.424 0 1 1 0-8.848c5.512 0 10.533-6.089 10.533-12.775a4.424 4.424 0 0 1 4.424-4.424h17.093a4.424 4.424 0 0 1 4.424 4.424c0 6.74 5.02 12.88 10.533 12.88a4.424 4.424 0 1 1-.001 8.848z" fill="#234957"/><path d="M321.983 117.258h-67.834a4.424 4.424 0 0 1-4.424-4.424V96.613a4.424 4.424 0 0 1 4.424-4.424h67.834a4.424 4.424 0 0 1 4.424 4.424v16.221a4.423 4.423 0 0 1-4.424 4.424zm-63.41-8.848h58.986v-7.373h-58.986v7.373zM288.066 83.341a4.424 4.424 0 0 1-4.424-4.424V49.424a4.424 4.424 0 1 1 8.848 0v29.493a4.423 4.423 0 0 1-4.424 4.424zM310.186 179.194h-10.323a4.424 4.424 0 1 1 0-8.848h10.323a4.424 4.424 0 1 1 0 8.848zM282.167 161.498H270.37a4.424 4.424 0 1 1 0-8.848h11.797a4.424 4.424 0 1 1 0 8.848zM282.167 179.194H270.37a4.424 4.424 0 1 1 0-8.848h11.797a4.424 4.424 0 1 1 0 8.848zM310.186 161.498h-10.323a4.424 4.424 0 1 1 0-8.848h10.323a4.424 4.424 0 1 1 0 8.848zM282.167 143.802H270.37a4.424 4.424 0 1 1 0-8.848h11.797a4.424 4.424 0 1 1 0 8.848zM310.186 143.802h-10.323a4.424 4.424 0 1 1 0-8.848h10.323a4.424 4.424 0 1 1 0 8.848zM282.167 214.585H270.37a4.424 4.424 0 1 1 0-8.848h11.797a4.424 4.424 0 1 1 0 8.848zM310.186 214.585h-10.323a4.424 4.424 0 1 1 0-8.848h10.323a4.424 4.424 0 1 1 0 8.848zM282.167 232.281H270.37a4.424 4.424 0 1 1 0-8.848h11.797a4.424 4.424 0 1 1 0 8.848zM310.186 232.281h-10.323a4.424 4.424 0 1 1 0-8.848h10.323a4.424 4.424 0 1 1 0 8.848zM282.167 249.977H270.37a4.424 4.424 0 1 1 0-8.848h11.797a4.424 4.424 0 1 1 0 8.848zM310.186 249.977h-10.323a4.424 4.424 0 1 1 0-8.848h10.323a4.424 4.424 0 1 1 0 8.848zM282.167 196.89H270.37a4.424 4.424 0 1 1 0-8.849h11.797a4.424 4.424 0 1 1 0 8.848zM310.186 196.89h-10.323a4.424 4.424 0 1 1 0-8.849h10.323a4.424 4.424 0 1 1 0 8.848z" fill="#234957"/><g><path d="M73.728 268.367c5.862 13.495 32.699 55.343 95.73 76.104 10.504-1.113 16.382-2.99 19.495-4.435 2.47-1.126 3.262-2.003 3.262-2.003v-1.371c0-14.956-2.202-27.854-6.346-38.666-7.985-21.102-24.622-34.247-52.64-39.406v1.235c0 4.527-1.53 8.644-4.494 11.635-2.99 2.964-7.03 4.83-11.56 4.83-9.055 0-16.389-7.41-16.389-16.465v-1.235c-11.798 2.153-17.452 3.644-27.058 9.777z" fill="#1B9ED6"/><path d="M100.785 258.854v-.265c-1.475.336-3.572.786-5.338 1.227 1.87-.018 3.863-.363 5.338-.962z" fill="#FF6C81"/><path d="M144.466 244.366a46.305 46.305 0 0 1-10.647 5.735 46.381 46.381 0 0 1-16.384 2.964 46.387 46.387 0 0 1-16.383-2.964c-3.842-1.482-7.183-3.402-10.476-5.79-11.8-8.479-19.284-22.338-19.284-37.897v-27.442c0-2.69-.4-5.323.068-7.876 11.443 3.348 39.747.33 39.747.33v10.757c26.544 2.058 50.995-15.56 50.995-15.56 1.098 3.925 2.093 8.068 2.093 12.35V206.413c0 12.843-5.295 24.478-13.748 32.957a44.884 44.884 0 0 1-5.981 4.995z" fill="#F4CCAD"/><path d="M162.102 166.624s-24.45 17.617-50.995 15.559v-10.758s-28.304 3.019-39.747-.329c-.466 2.553-.068 5.187-.068 7.876V192.692c0-2.69-.4-5.324.068-7.877 11.443 3.347 39.747.329 39.747.329V195.9c26.544 2.059 50.995-15.559 50.995-15.559 1.098 3.924 2.093 8.068 2.093 12.35v-12.816 1.84-2.744c0-4.28-.995-8.424-2.093-12.348z" fill="#EDB795"/><path d="M152.011 148.226c4.83 4.424 8.087 11.545 10.037 18.653 0 0-24.395 17.362-50.94 15.305v-10.757s-28.559 3.018-40.002-.33c1.647-9.686 6.494-18.385 13.19-25.082 8.479-8.452 20.205-13.438 33.048-13.438 13.665 0 26.106 5.326 34.64 15.649h.027z" fill="#FBB735"/><path d="M152.011 148.226h-.028c-8.533-10.323-20.882-15.65-34.55-15.65-3.782 0-7.439.632-10.962 1.489 9.212 2.249 17.39 6.788 23.56 14.16h.029c4.83 4.425 8.087 11.546 10.036 18.654 0 0-12.764 8.413-28.986 12.873v2.43c26.544 2.06 50.94-15.305 50.94-15.305-1.95-7.106-5.21-14.227-10.039-18.651z" fill="#F93"/><path d="M133.227 258.589v1.234c0 4.527-1.529 8.645-4.493 11.635-2.99 2.964-7.031 4.83-11.56 4.83-9.056 0-16.39-7.409-16.39-16.465v-10.976l.175-.22a46.633 46.633 0 0 0 16.429 2.965c5.763 0 10.966-1.043 16.07-2.964l-.232.22v9.74h.001z" fill="#F4CCAD"/><path d="M133.482 248.628c-5.103 1.921-10.452 2.964-16.213 2.964a46.428 46.428 0 0 1-16.391-2.964l-.092.22v10.975c0 .876.182 1.73.316 2.57a46.654 46.654 0 0 0 16.289 2.919c5.71 0 10.862-1.03 15.928-2.917.134-.84-.089-1.694-.089-2.57V248.849l.252-.221z" fill="#EDB795"/><path d="M71.292 206.414c0 15.56 7.484 29.418 19.284 37.897-6.12 4.39-24.879 11.69-39.56 2.634-6.998-4.309-12.873-12.32-16.275-26.125 0 0 36.55.906 36.55-36.826v22.42z" fill="#FBB735"/><path d="M80.79 235.174c-8.435 2.832-20.05 4.126-29.9-1.95-4.33-2.664-8.296-6.759-11.502-12.755-3 .395-4.964.353-4.964.353 3.402 13.802 9.467 21.816 16.464 26.125 14.682 9.055 33.314 1.756 39.434-2.634a47.261 47.261 0 0 1-9.532-9.139z" fill="#F93"/><path d="M66.894 255.668c-6.103 0-12.474-1.347-18.328-4.957-8.861-5.454-15.067-15.156-18.438-28.832a4.425 4.425 0 0 1 .833-3.814c.854-1.073 2.13-1.657 3.53-1.669.088-.012 13.44.027 22.42-8.877 5.629-5.58 8.484-13.623 8.484-23.903a4.424 4.424 0 1 1 8.848 0c0 12.773-3.762 22.953-11.18 30.261-7.495 7.385-16.935 9.976-22.903 10.882 2.905 8.684 7.28 14.867 13.048 18.417 12.434 7.671 28.707 1.573 34.222-2.385a4.425 4.425 0 0 1 5.16 7.189c-4.69 3.367-14.761 7.688-25.696 7.688z" fill="#234957"/><path d="M117.382 257.579c-6.272 0-12.384-1.091-18.17-3.246-4.476-1.71-8.5-3.841-11.995-6.351-13.66-9.718-21.824-25.255-21.824-41.549v-27.48c0-3.046.465-5.816.982-8.62 1.745-10.165 6.8-19.655 14.61-27.386 9.706-9.578 22.649-14.85 36.45-14.85 15.24 0 28.73 6.012 38.048 16.942 4.993 4.57 9.073 11.9 11.498 20.654 1.132 4.005 1.64 8.102 1.64 13.26v27.482c0 13.732-5.31 26.57-14.95 36.145-2.17 2.147-4.082 3.9-6.384 5.5-3.545 2.535-7.514 4.649-11.743 6.247a51.863 51.863 0 0 1-18.162 3.252zm.053-120.634c-11.46 0-22.196 4.366-30.23 12.294-6.486 6.422-10.68 14.255-12.12 22.646-.45 2.438-.844 4.768-.844 7.067v27.481c0 13.436 6.773 26.277 18.12 34.35 2.891 2.074 6.243 3.844 9.974 5.27 4.758 1.772 9.831 2.676 15.046 2.676 5.195 0 10.26-.904 15.054-2.69a42.764 42.764 0 0 0 9.754-5.196c1.836-1.274 3.363-2.68 5.251-4.548 7.95-7.895 12.331-18.504 12.331-29.862v-27.48c0-4.309-.404-7.664-1.312-10.877-1.935-6.987-5.123-12.913-8.782-16.352a4.218 4.218 0 0 1-.689-.66c-7.613-9.105-18.82-14.12-31.553-14.12z" fill="#234957"/><path d="M117.6 235.536c-6.85 0-13.302-2.336-18.166-6.579a4.422 4.422 0 0 1-.426-6.24 4.421 4.421 0 0 1 6.242-.427c3.252 2.836 7.637 4.398 12.35 4.398 4.569 0 8.863-1.487 12.091-4.184a4.423 4.423 0 0 1 6.232.558 4.426 4.426 0 0 1-.557 6.231c-4.818 4.026-11.128 6.243-17.766 6.243zM118.48 213.11h-1.474a4.424 4.424 0 1 1 0-8.847h1.475a4.424 4.424 0 1 1 0 8.848zM76.177 271.824a4.425 4.425 0 0 1-2.06-8.342c8.605-4.518 17.369-7.63 26.046-9.243a4.424 4.424 0 0 1 1.618 8.698c-7.806 1.45-15.73 4.27-23.55 8.378a4.405 4.405 0 0 1-2.054.509zM192.213 342.88a4.424 4.424 0 0 1-4.424-4.424v-1.796c0-14.913-1.87-27.044-5.715-37.082-7.592-20.06-23.154-31.628-48.98-36.428a4.425 4.425 0 0 1-3.543-5.157 4.42 4.42 0 0 1 5.158-3.54c28.77 5.344 46.968 19.077 55.635 41.979 4.233 11.05 6.296 24.215 6.296 40.23v1.794a4.427 4.427 0 0 1-4.427 4.424z" fill="#234957"/><path fill="#FFF" d="M98.185 248.011l-10.97 6.908-3.107 20.906 10.694-5.11 8.917-.293-2.38-17.052zM136.831 248.011l10.97 6.908 3.107 20.906-10.694-5.11-8.917-.293 2.382-17.052z"/><path d="M117.342 280.713c-11.568 0-20.981-9.37-20.981-20.89v-8.371a4.424 4.424 0 1 1 8.848 0v8.371c0 6.64 5.443 12.042 12.133 12.042 3.085 0 5.855-1.194 8.232-3.548 2.072-2.092 3.23-5.118 3.23-8.494v-8.371a4.424 4.424 0 1 1 8.847 0v8.371c0 5.723-2.067 10.961-5.822 14.75-4.062 4.027-9.061 6.14-14.487 6.14zM115.593 186.78c-1.597 0-3.206-.06-4.826-.185a4.424 4.424 0 0 1-4.082-4.41v-5.599c-8.771 1.214-26.04 2.944-36.138-.404a4.426 4.426 0 0 1 .746-8.786h.179c.513 0 1.022.09 1.505.264 9.108 3.296 30.063.692 37.368-.59a4.423 4.423 0 0 1 5.19 4.356v6.505h.033c23.055 0 43.628-14.398 43.846-14.553a4.425 4.425 0 0 1 5.12 7.217c-.988.699-23.13 16.184-48.94 16.184zM132.003 204.446a4.423 4.423 0 0 1-3.96-6.388 12.585 12.585 0 0 1 11.345-7.045c4.738 0 9.039 2.606 11.224 6.798a4.424 4.424 0 1 1-7.847 4.088 3.79 3.79 0 0 0-3.377-2.038c-1.46 0-2.769.812-3.416 2.122a4.423 4.423 0 0 1-3.969 2.463z" fill="#234957"/><path d="M151.411 282.427c-.85 0-1.7-.245-2.44-.735l-10.687-7.066-9.257 2.156a4.432 4.432 0 0 1-5.313-3.303 4.425 4.425 0 0 1 3.304-5.315l11.12-2.588a4.422 4.422 0 0 1 3.44.62l3.998 2.645-1.725-11.616-7.135-6a4.425 4.425 0 0 1 5.695-6.772l8.418 7.08a4.424 4.424 0 0 1 1.527 2.734l3.432 23.084a4.424 4.424 0 0 1-4.377 5.076zM83.785 282.427a4.424 4.424 0 0 1-4.375-5.076l3.43-23.084a4.417 4.417 0 0 1 1.528-2.734l8.417-7.08a4.425 4.425 0 0 1 5.695 6.772l-7.134 6-1.726 11.616 3.998-2.644a4.437 4.437 0 0 1 3.44-.621l11.12 2.588a4.423 4.423 0 1 1-2.01 8.618l-9.256-2.156-10.686 7.066c-.74.49-1.592.735-2.44.735zM99.496 206.556c-3.734 0-6.772-3.04-6.772-6.773 0-3.734 3.038-6.773 6.772-6.773a6.782 6.782 0 0 1 6.773 6.773 6.782 6.782 0 0 1-6.773 6.773z" fill="#234957"/></g><g><path fill="#FFF" d="M173.851 273.574l-7.705 8.369-4.213 28.489 14.503-6.962 12.092-.401-3.228-23.235zM242.655 273.574l7.706 8.369 4.214 28.489-14.503-6.962-12.094-.401 3.23-23.235z"/><g transform="translate(122.903 180.668)"><ellipse fill="#F4CEAE" cx="20.493" cy="19.176" rx="14.677" ry="14.748"/><path d="M20.493 38.348c-10.532 0-19.1-8.6-19.1-19.17C1.392 8.606 9.96.006 20.492.006c10.532 0 19.101 8.6 19.101 19.172 0 10.57-8.569 19.17-19.1 19.17zm0-29.496c-5.652 0-10.253 4.632-10.253 10.324 0 5.693 4.6 10.323 10.253 10.323 5.654 0 10.254-4.632 10.254-10.323 0-5.692-4.6-10.324-10.254-10.324z" fill="#234957"/></g><g transform="translate(252.673 180.668)"><ellipse fill="#EEB490" cx="19.881" cy="19.176" rx="14.677" ry="14.748"/><path d="M19.881 38.348c-10.533 0-19.1-8.6-19.1-19.17C.78 8.606 9.348.006 19.88.006c10.532 0 19.1 8.6 19.1 19.172 0 10.57-8.57 19.17-19.1 19.17zm0-29.496c-5.654 0-10.253 4.632-10.253 10.324 0 5.693 4.6 10.323 10.253 10.323 5.653 0 10.252-4.632 10.252-10.323 0-5.692-4.6-10.324-10.252-10.324z" fill="#234957"/></g><path d="M230.554 286.821v1.693c0 12.5-10.242 22.722-22.683 22.722-6.22 0-12.082-2.581-16.184-6.669-4.069-4.121-6.845-9.802-6.845-16.053v-11.779l.29-.319c7.021 2.665 14.679.737 22.583.737 7.922 0 15.606 1.928 22.61-.737l.232.319v10.086h-.003z" fill="#EEB490"/><path d="M230.242 276.434c-1.326 11.251-10.9 20.054-22.441 20.054-6.22 0-11.874-2.581-15.977-6.669-3.48-3.526-5.848-8.196-6.465-13.384-.019-.007-.21-.012-.23-.019l-.29.319v11.779c0 6.25 2.741 11.93 6.811 16.053 4.103 4.09 9.913 6.669 16.133 6.669 12.44 0 22.77-10.221 22.77-22.722v-11.779l-.187-.319c-.017.007-.105.012-.124.018z" fill="#F4CEAE"/><path d="M271.845 162.486v56.61c0 27.45-17.324 51.04-41.554 60.278a63.419 63.419 0 0 1-22.492 4.09 63.435 63.435 0 0 1-22.494-4.09c-8.592-3.294-16.45-8.367-22.856-14.804-11.605-11.7-18.9-27.753-18.9-45.472V169.57c4.425-.94 17.186-4.91 23.932-4.91l104.364-2.175z" fill="#F4CEAE"/><path d="M145.025 162.977v18.93l104.064 7.081c0 27.45-17.25 62.214-41.48 71.452a63.217 63.217 0 0 1-22.455 4.089 63.33 63.33 0 0 1-22.475-4.09 64.808 64.808 0 0 1-5.899-2.632c1.785 2.369 3.677 4.657 5.763 6.76a64.955 64.955 0 0 0 22.763 14.804 63.451 63.451 0 0 0 22.498 4.09c7.912 0 15.477-1.44 22.487-4.09 24.23-9.238 41.554-32.827 41.554-60.278v-56.607l-126.82.49z" fill="#EEB490"/><path d="M207.752 258.834c-8.804 0-17.127-3.44-23.435-9.686a4.42 4.42 0 0 1-.031-6.255 4.42 4.42 0 0 1 6.255-.031c4.642 4.595 10.753 7.125 17.21 7.125 6.665 0 12.911-2.664 17.595-7.501a4.425 4.425 0 0 1 6.356 6.155c-6.365 6.572-14.87 10.193-23.95 10.193zM209.91 229.332h-2.95a4.424 4.424 0 1 1 0-8.848h2.95a4.424 4.424 0 1 1 0 8.848zM180.089 210.169c-4.057 0-7.359-3.308-7.359-7.375 0-4.066 3.302-7.373 7.359-7.373 4.058 0 7.36 3.307 7.36 7.373 0 4.067-3.302 7.375-7.36 7.375zM224.367 210.17a4.401 4.401 0 0 1-1.616-.308 4.422 4.422 0 0 1-2.5-5.735c2.045-5.207 7.157-8.706 12.719-8.706 5.495 0 10.435 3.29 12.588 8.38a4.424 4.424 0 0 1-2.351 5.798 4.42 4.42 0 0 1-5.798-2.35c-.767-1.811-2.509-2.98-4.44-2.98-1.956 0-3.758 1.244-4.485 3.093a4.424 4.424 0 0 1-4.117 2.808z" fill="#234957"/><path d="M271.845 152.653v16.915c0-10.764-17.493-9.467-17.493-9.467l-111.122 5.825c-15.396 0-27.699-12.55-27.699-28.02V120.21c0-14.658 11.81-26.545 26.398-26.545h1.62v26.545c0-9.777 7.374-14.748 17.697-14.748v14.748l84.654 5.898c14.588 0 25.945 11.888 25.945 26.546z" fill="#608287"/><path d="M171.568 137.906V118.733h-1.753c-4.818 0-10.044-3.106-12.993-.842v-2.106V137.906c0 12.843 8.51 23.646 20.242 26.955l-10.883.567c1.673.314 3.366.498 5.128.498l20.48-1.065c-11.731-3.309-20.22-14.112-20.22-26.955z" opacity=".2" fill="#D8E5EA"/><path d="M245.782 126.107l-15.726-1.125c12.751 3.62 22.62 15.372 22.62 29.342v5.917l2.011-.141s17.16-1.298 17.16 9.467v-16.914c-.002-14.658-11.476-26.546-26.065-26.546z" fill="#4E676D"/><path d="M139.126 137.906V93.664h-1.6c-14.589 0-26.419 11.885-26.419 26.545V137.906c0 15.47 12.49 28.02 27.886 28.02l20.417-1.065c-11.731-3.309-20.284-14.112-20.284-26.955z" opacity=".4" fill="#D8E5EA"/><path d="M207.8 288.33a68.676 68.676 0 0 1-24.138-4.352c-9.153-3.474-17.35-8.777-24.388-15.767-12.993-12.924-20.148-30.127-20.148-48.442v-53.847a4.424 4.424 0 1 1 8.848 0v53.847c0 15.944 6.229 30.917 17.538 42.167 6.148 6.108 13.304 10.739 21.269 13.763a59.838 59.838 0 0 0 21.017 3.783c7.276 0 14.127-1.24 20.949-3.79 23.127-8.728 38.674-31.204 38.674-55.923v-67.12a4.424 4.424 0 1 1 8.848 0v67.12c0 28.378-17.848 54.18-44.41 64.205a68.456 68.456 0 0 1-24.06 4.356z" fill="#234957"/><path d="M271.845 174.77a4.424 4.424 0 0 1-4.424-4.424c0-1.162-.347-2.016-1.124-2.77-2.572-2.492-8.843-3.135-11.458-3.054l-111.212 5.822c-.077.003-.154.006-.232.006-17.817 0-32.31-14.555-32.31-32.444a4.424 4.424 0 1 1 8.848 0c0 12.974 10.466 23.536 23.351 23.596l111.19-5.819c1.299-.038 12.066-.197 17.983 5.543 2.492 2.419 3.81 5.573 3.81 9.121a4.42 4.42 0 0 1-4.422 4.423zM271.845 157.074a4.424 4.424 0 0 1-4.424-4.424c0-12.402-9.351-22.119-21.287-22.119a4.424 4.424 0 1 1 0-8.847c16.898 0 30.135 13.602 30.135 30.966a4.423 4.423 0 0 1-4.424 4.424z" fill="#234957"/><path d="M115.531 142.327a4.424 4.424 0 0 1-4.424-4.424v-16.221a4.424 4.424 0 1 1 8.848 0v16.221a4.424 4.424 0 0 1-4.424 4.424zM246.14 130.531c-.102 0-.206-.003-.31-.01l-85.127-5.899a4.422 4.422 0 0 1-4.107-4.718 4.42 4.42 0 0 1 4.719-4.107l85.126 5.898a4.424 4.424 0 0 1-.3 8.836zM143.396 124.633a4.424 4.424 0 0 1-4.423-4.424c0-11.467 8.855-19.17 22.035-19.17a4.424 4.424 0 1 1 0 8.847c-3.094 0-13.188.745-13.188 10.323a4.424 4.424 0 0 1-4.424 4.424z" fill="#234957"/><path d="M161.246 124.631a4.424 4.424 0 0 1-4.424-4.424v-14.746a4.424 4.424 0 1 1 8.848 0v14.746a4.424 4.424 0 0 1-4.424 4.424zM115.51 124.633a4.424 4.424 0 0 1-4.423-4.424c0-17.077 13.837-30.97 30.842-30.97a4.424 4.424 0 1 1 0 8.849c-12.127 0-21.994 9.923-21.994 22.12a4.424 4.424 0 0 1-4.424 4.425z" fill="#234957"/><path d="M143.55 124.631a4.424 4.424 0 0 1-4.424-4.424V93.664a4.424 4.424 0 1 1 8.848 0v26.543a4.424 4.424 0 0 1-4.424 4.424z" fill="#234957"/><path d="M218.757 308.813c1.475-.885 2.886-1.947 4.106-3.156l.233.206 8.371-1.946.466 1.946-4.177 24.584c-6.899.59-10.976-3.775-10.976-3.775l2.853-17.697s-.874-.06-.874-.148v-.014h-.002zM199.17 326.672c4.945 17.506 19.006 23.154 37.367 20.293l.015.074a144.937 144.937 0 0 1-10.846 1.917c-6.238.87-12.622 1.297-19.109 1.297-4.197 0-8.365-.177-12.49-.56-1.13-.103-2.275-.206-3.39-.34l-6.635-45.628 9.13 2.138c.601.59 1.233 1.121 1.908 1.637l1.115 1.475 2.934 17.697z" fill="#D8E5EA"/><path d="M238.21 302.339l13.53 8.995c-2.142 2.846-4.124 5.427-5.973 7.595-7.074 8.317-13.223 11.119-18.008 11.517l4.183-24.584-.456-1.947 6.723-1.576zM184.08 303.725l6.635 45.629c-10.141-1.136-19.96-3.362-29.325-6.607-13.913-4.704-26.83-11.576-38.409-20.204-.777-.59-1.54-1.165-2.32-1.77 12.403-12.283 27.344-21.988 43.914-28.211l-3.082 20.838 16.643-11.06 5.945 1.385z" fill="#4E676D"/><path d="M135.339 330.536a125.558 125.558 0 0 1 26.594-20.104l2.642-17.87c-16.57 6.223-31.511 15.928-43.913 28.212.777.604 1.54 1.18 2.32 1.77a140.404 140.404 0 0 0 13.683 9.003c-.441-.334-.88-.665-1.326-1.011zM178.824 302.5l-.686-.16-1.702 1.132c.796-.323 1.582-.667 2.388-.972z" fill="#608287"/><path d="M219.717 308.969l-2.936 17.69H199.17l-2.936-17.69s6.664-1.472 11.742-1.472c3.713 0 8.967.943 10.949 1.326.5.089.793.146.793.146zM344.103 307.869c-3.67 20.278-19.814 28.02-19.814 28.02.69-20.662-10.552-30.365-12.034-31.544a37.94 37.94 0 0 1 4.33-2.375c12.754-5.972 27.518 5.899 27.518 5.899z" fill="#1C7CD3"/><path d="M312.255 304.345c-8.66 5.515-11.345 12.623-32.129 25.055-15.542 9.305-30.63 15.537-43.59 17.558-18.361 2.86-32.422-2.603-37.368-20.299h17.612s4.08 4.372 10.979 3.782c4.785-.398 10.934-3.197 18.008-11.514 1.85-2.167 3.831-4.747 5.974-7.593.749-1.017 1.54-2.079 2.333-3.17 2.51-3.407 5.18-7.078 7.984-10.824 12.182-16.208 27.079-33.638 43.15-35.555 26.785-3.2 30.205 3.686 30.205 13.273 0 14.32 8.688 32.812 8.688 32.812s-14.764-11.87-27.518-5.898a37.812 37.812 0 0 0-4.328 2.373z" fill="#1B9ED6"/><path d="M322.21 276.04c2.265 10.156 5.748 19.417 7.947 24.99 10.227.085 13.946 6.839 13.946 6.839s-8.689-18.494-8.689-32.813c0-9.234.494-17.204-22.5-9.831 4.893 1.352 7.73 3.791 9.296 10.815z" fill="#34BBEA"/><path d="M206.596 354.677a139.9 139.9 0 0 1-12.899-.58l-.246-.023c-1.09-.099-2.189-.2-3.262-.33-10.345-1.158-20.533-3.452-30.245-6.817-14.13-4.778-27.464-11.792-39.605-20.839l-.512-.388c-.627-.474-1.247-.946-1.879-1.436a4.424 4.424 0 0 1 5.429-6.987c.603.468 1.196.917 1.793 1.372l.486.368c11.364 8.466 23.874 15.048 37.151 19.538a131.472 131.472 0 0 0 28.4 6.4c1.026.124 2.043.215 3.049.308l.253.024c3.87.36 7.936.541 12.085.541 6.301 0 12.526-.422 18.498-1.256 3.377-.46 6.886-1.08 10.44-1.84a4.424 4.424 0 0 1 2.08 8.6l-.134.03v.002c-3.803.817-7.564 1.48-11.176 1.974-6.362.888-12.997 1.34-19.706 1.34z" fill="#234957"/><path d="M120.662 325.198a4.425 4.425 0 0 1-3.113-7.568c12.909-12.786 28.633-22.887 45.47-29.21a4.424 4.424 0 1 1 3.11 8.283c-15.68 5.888-30.325 15.298-42.354 27.213a4.401 4.401 0 0 1-3.113 1.282zM227.766 334.871a4.421 4.421 0 0 1-4.366-5.166l4.183-24.583a4.43 4.43 0 0 1 5.102-3.62 4.421 4.421 0 0 1 3.62 5.103l-4.184 24.584a4.423 4.423 0 0 1-4.355 3.682zM190.71 353.778a4.424 4.424 0 0 1-4.373-3.787l-6.635-45.627a4.423 4.423 0 0 1 3.742-5.014c2.415-.361 4.663 1.323 5.014 3.741l6.635 45.627a4.424 4.424 0 0 1-4.384 5.06zM262.058 301.765a4.41 4.41 0 0 1-1.949-.455 121.015 121.015 0 0 0-9.88-4.324 4.428 4.428 0 0 1-2.543-5.717 4.428 4.428 0 0 1 5.717-2.544 129.867 129.867 0 0 1 10.608 4.642 4.425 4.425 0 0 1 2.02 5.922 4.42 4.42 0 0 1-3.973 2.476zM324.29 340.314a4.425 4.425 0 0 1-4.422-4.571c.623-18.644-9.241-27.038-10.366-27.933a4.425 4.425 0 0 1 5.507-6.926c1.29 1.026 11.276 9.48 13.358 26.769 4.265-3.82 9.548-10.411 11.386-20.569a4.433 4.433 0 0 1 5.14-3.565c2.405.435 4.001 2.737 3.566 5.14-4.024 22.246-21.512 30.866-22.255 31.222a4.456 4.456 0 0 1-1.915.433z" fill="#234957"/><path d="M161.493 317.824a4.426 4.426 0 0 1-4.375-5.071l4.653-31.456a4.427 4.427 0 0 1 1.327-2.558l7.998-7.61a4.425 4.425 0 0 1 6.1 6.41l-6.896 6.559-2.974 20.114 8.362-5.558a4.43 4.43 0 0 1 3.454-.625l15.078 3.527a4.423 4.423 0 1 1-2.018 8.613l-13.207-3.09-15.052 10.002a4.393 4.393 0 0 1-2.45.743zM227.941 352.092c-16.977 0-28.556-8.389-33.027-24.218a4.424 4.424 0 0 1 8.513-2.405c3.983 14.098 14.901 19.85 32.429 17.124 12.052-1.88 26.575-7.754 41.998-16.99 12.486-7.468 18.185-12.92 22.766-17.302 3.01-2.879 5.61-5.366 9.256-7.689a42.55 42.55 0 0 1 4.822-2.645c7.264-3.402 14.834-2.16 20.803.103-2.263-6.728-4.512-15.338-4.512-23.015 0-3.694-.581-5.716-2.004-6.98-2.118-1.878-7.87-3.736-23.254-1.899-14.247 1.699-28.285 18.05-40.137 33.823a939.286 939.286 0 0 0-5.698 7.712l-2.261 3.076c-.534.735-1.082 1.48-1.62 2.203l-.714.968c-2.038 2.709-4.175 5.503-6.17 7.842-6.863 8.07-13.933 12.465-21.007 13.055-7.106.615-12.517-2.958-14.578-5.164a4.423 4.423 0 0 1 6.43-6.079c.187.186 2.907 2.81 7.404 2.428 4.602-.384 9.791-3.834 15.016-9.976 1.845-2.164 3.881-4.83 5.809-7.39l.696-.945c.522-.707 1.058-1.43 1.594-2.168l2.266-3.086c1.845-2.513 3.767-5.132 5.754-7.788 12.982-17.273 28.613-35.204 46.167-37.297 15.598-1.868 24.907-.61 30.176 4.069 4.412 3.915 4.979 9.322 4.979 13.596 0 13.18 8.185 30.757 8.267 30.934a4.423 4.423 0 0 1-6.775 5.328c-.12-.093-12.809-10.053-22.87-5.342a33.826 33.826 0 0 0-3.826 2.097c-2.918 1.859-5.117 3.963-7.9 6.623-4.9 4.688-10.999 10.522-24.337 18.501-16.39 9.812-32.013 16.086-45.18 18.138-3.243.508-6.34.758-9.275.758z" fill="#234957"/><path d="M216.783 331.083H199.17a4.426 4.426 0 0 1-4.365-3.7l-2.936-17.69a4.426 4.426 0 0 1 3.41-5.045c.291-.063 7.199-1.575 12.696-1.575 3.912 0 9.065.884 11.788 1.41l.722.128a4.423 4.423 0 0 1 3.595 5.08l-2.935 17.692a4.424 4.424 0 0 1-4.363 3.7zm-13.864-8.848h10.112l1.603-9.665c-2.123-.329-4.698-.649-6.66-.649-2.12 0-4.612.298-6.666.615l1.611 9.699zM254.07 312.588a4.424 4.424 0 0 1-4.37-3.778l-3.653-24.712-6.894-6.558a4.423 4.423 0 1 1 6.098-6.41l7.998 7.609a4.419 4.419 0 0 1 1.328 2.557l3.875 26.22a4.424 4.424 0 0 1-4.381 5.072z" fill="#234957"/><path d="M251.738 315.758a4.4 4.4 0 0 1-2.445-.74l-11.937-7.935-13.213 3.09a4.43 4.43 0 0 1-5.315-3.304 4.426 4.426 0 0 1 3.303-5.315l15.067-3.524a4.44 4.44 0 0 1 3.46.624l13.534 8.997a4.422 4.422 0 0 1-2.454 8.107zM197.98 303.684c-.313-.239-.635-.46-.952-.674-.239-.16-.534-.361-.687-.51-.059-.055-.094-.102-.14-.154l-.332-.364c-3.308-3.533-5.13-8.282-5.13-13.374v-9.138h-8.848v9.138c0 7.346 2.67 14.244 7.524 19.426l.166.184c.213.24.403.449.621.654.671.657 1.338 1.109 1.874 1.47.179.12.36.24.536.374a4.406 4.406 0 0 0 2.68.907 4.423 4.423 0 0 0 2.688-7.94z" fill="#234957"/><path d="M226.13 280.945v7.663c0 5.087-2.186 10.15-6.018 13.91-.786.778-1.604 1.275-2.843 2.03l-.224.137a4.424 4.424 0 1 0 4.606 7.555l.22-.134c1.447-.882 2.946-1.794 4.454-3.289 5.5-5.394 8.653-12.76 8.653-20.207v-7.665h-8.847z" fill="#234957"/></g><path d="M211.384 354.677c-58.932 0-113.062-32.182-141.266-83.99a4.424 4.424 0 0 1 7.77-4.23c26.656 48.958 77.807 79.372 133.496 79.372a4.424 4.424 0 1 1 0 8.848z" fill="#234957"/></g></svg>