<?xml version="1.0" encoding="UTF-8" standalone="no"?>
<svg width="400px" height="400px" viewBox="0 0 400 400" version="1.1" xmlns="http://www.w3.org/2000/svg" xmlns:xlink="http://www.w3.org/1999/xlink">
    <!-- Generator: Sketch 3.8.3 (29802) - http://www.bohemiancoding.com/sketch -->
    <title>company</title>
    <desc>Created with Sketch.</desc>
    <defs></defs>
    <g id="Page-1" stroke="none" stroke-width="1" fill="none" fill-rule="evenodd">
        <g id="company">
            <g transform="translate(51.000000, 41.000000)" id="Layer_3">
                <g>
                    <g id="Group">
                        <path d="M311.160221,116.685083 L305.856354,114.917127 L305.856354,79.7825414 C305.856354,78.0198895 304.662983,76.3756906 302.925083,76.0822099 C300.716906,75.7109392 298.78453,77.4240884 298.78453,79.5668508 L298.78453,112.560442 L291.712707,110.203757 L291.712707,92.158232 C291.712707,90.3955801 290.519337,88.7513812 288.781436,88.4579006 C286.57326,88.0866298 284.640884,89.799779 284.640884,91.9425414 L284.640884,107.845304 L268.729282,102.541436 C265.302983,101.325083 261.657459,105.723757 261.657459,109.61326 L261.657459,146.740331 L254.585635,146.740331 L254.585635,38.8950276 C254.585635,35.0055249 251.403315,31.8232044 247.513812,31.8232044 L245.745856,31.8232044 L245.745856,28.2872928 C245.745856,26.3425414 244.076906,25.2870718 242.209945,24.7513812 L213.922652,17.679558 C212.080442,17.3843094 210.38674,19.2707182 210.38674,21.2154696 L210.38674,31.8232044 L205.082873,31.8232044 C201.19337,31.8232044 198.01105,35.0055249 198.01105,38.8950276 L198.01105,146.740331 L38.8950276,146.740331 L38.8950276,122.25768 C38.8950276,118.368177 35.6897238,113.750276 31.8232044,115.185856 L7.0718232,121.98895 C3.09392265,123.205304 0,126.939227 0,130.828729 L0,146.740331 L0,201.546961 L0,225.013039 C0,232.238674 2.1798895,239.315801 6.33458564,245.227845 C37.360442,289.377238 88.680663,318.232044 146.740331,318.232044 C236.271381,318.232044 310.456575,249.619448 318.232044,162.110939 L318.232044,159.116022 L318.232044,123.756906 C318.232044,119.867403 315.079779,117.878453 311.160221,116.685083 L311.160221,116.685083 Z" id="Shape" fill="#D8E5EA"></path>
                        <polygon id="Shape" fill="#FFFFFF" points="107.845304 220.994475 98.5635359 231.027624 93.4877348 265.179227 110.958674 256.834475 125.524862 256.353591 121.635359 228.499448"></polygon>
                        <polygon id="Shape" fill="#FFFFFF" points="190.725304 220.994475 200.007072 231.027624 205.082873 265.179227 187.613702 256.834475 173.045746 256.353591 176.935249 228.499448"></polygon>
                        <g transform="translate(47.734807, 109.613260)">
                            <ellipse id="Oval" fill="#F4CEAE" cx="23.4254144" cy="22.9922652" rx="17.679558" ry="17.679558"></ellipse>
                            <path d="M23.4254144,45.9756906 C10.7527072,45.9756906 0.44198895,35.6649724 0.44198895,22.9922652 C0.44198895,10.319558 10.7527072,0.00883977901 23.4254144,0.00883977901 C36.0981215,0.00883977901 46.4088398,10.319558 46.4088398,22.9922652 C46.4088398,35.6649724 36.0981215,45.9756906 23.4254144,45.9756906 L23.4254144,45.9756906 Z M23.4254144,10.6165746 C16.601105,10.6165746 11.0497238,16.1697238 11.0497238,22.9922652 C11.0497238,29.8148066 16.601105,35.3679558 23.4254144,35.3679558 C30.2497238,35.3679558 35.801105,29.8148066 35.801105,22.9922652 C35.801105,16.1697238 30.2497238,10.6165746 23.4254144,10.6165746 L23.4254144,10.6165746 Z" id="Shape" fill="#234957"></path>
                        </g>
                        <g transform="translate(203.314917, 109.613260)">
                            <ellipse id="Oval" fill="#EEB490" cx="23.4254144" cy="22.9922652" rx="17.679558" ry="17.679558"></ellipse>
                            <path d="M23.4254144,45.9756906 C10.7527072,45.9756906 0.44198895,35.6649724 0.44198895,22.9922652 C0.44198895,10.319558 10.7527072,0.00883977901 23.4254144,0.00883977901 C36.0981215,0.00883977901 46.4088398,10.319558 46.4088398,22.9922652 C46.4088398,35.6649724 36.0981215,45.9756906 23.4254144,45.9756906 L23.4254144,45.9756906 Z M23.4254144,10.6165746 C16.6028729,10.6165746 11.0497238,16.1697238 11.0497238,22.9922652 C11.0497238,29.8148066 16.6028729,35.3679558 23.4254144,35.3679558 C30.2479558,35.3679558 35.801105,29.8148066 35.801105,22.9922652 C35.801105,16.1697238 30.2479558,10.6165746 23.4254144,10.6165746 L23.4254144,10.6165746 Z" id="Shape" fill="#234957"></path>
                        </g>
                        <path d="M175.978785,236.876022 L175.978785,238.905635 C175.978785,253.890829 163.725083,266.14453 148.73989,266.14453 C141.247293,266.14453 134.437127,263.050608 129.495691,258.149834 C124.594917,253.208398 121.500994,246.398232 121.500994,238.905635 L121.500994,236.876022 L121.500994,224.783204 L121.642431,224.401326 C130.098564,227.596022 139.219448,225.285304 148.741657,225.285304 C158.283315,225.285304 167.402431,227.596022 175.840884,224.401326 L175.98232,224.783204 L175.98232,236.876022 L175.978785,236.876022 Z" id="Shape" fill="#EEB490"></path>
                        <path d="M175.773702,224.422541 C174.17547,237.912044 162.643094,248.463204 148.73989,248.463204 C141.247293,248.463204 134.437127,245.369282 129.495691,240.468508 C125.303867,236.241326 122.450387,230.64221 121.709613,224.422541 C121.68663,224.413702 121.663646,224.408398 121.642431,224.399558 L121.500994,224.781436 L121.500994,236.874254 L121.500994,238.903867 C121.500994,246.396464 124.594917,253.20663 129.495691,258.148066 C134.437127,263.04884 141.247293,266.142762 148.73989,266.142762 C163.725083,266.142762 175.978785,253.889061 175.978785,238.903867 L175.978785,236.874254 L175.978785,224.781436 L175.837348,224.399558 C175.816133,224.408398 175.794917,224.41547 175.773702,224.422541 L175.773702,224.422541 Z" id="Shape" fill="#F4CEAE"></path>
                        <path d="M225.909392,87.8179006 L225.909392,155.682652 C225.909392,188.591381 205.029834,216.869834 175.842652,227.944309 C167.400663,231.121326 158.276243,232.846851 148.745193,232.846851 C139.214144,232.846851 130.089724,231.121326 121.647735,227.944309 C111.298122,223.994696 101.947403,217.912928 94.2320442,210.195801 C80.2510497,196.170608 71.5827624,176.924641 71.5827624,155.680884 L71.5827624,96.3129282 C75.8771271,95.1849724 92.1776796,90.4256354 100.301436,90.4256354 L225.909392,87.8179006 L225.909392,87.8179006 Z" id="Shape" fill="#F4CEAE"></path>
                        <path d="M73.5169061,88.4066298 L73.5169061,111.101878 L198.674033,119.591602 C198.674033,152.500331 177.794475,194.174586 148.607293,205.250829 C140.165304,208.427845 131.040884,210.15337 121.509834,210.15337 C111.978785,210.15337 102.854365,208.427845 94.4123757,205.250829 C91.9779006,204.322652 89.6106077,203.253039 87.2945856,202.095028 C89.4444199,204.934365 91.718011,207.678232 94.2302762,210.197569 C101.947403,217.912928 111.298122,223.996464 121.645967,227.946077 C130.087956,231.123094 139.212376,232.848619 148.743425,232.848619 C158.274475,232.848619 167.398895,231.123094 175.840884,227.946077 C205.028066,216.869834 225.907624,188.593149 225.907624,155.68442 L225.907624,87.8179006 L73.5169061,88.4066298 L73.5169061,88.4066298 Z" id="Shape" fill="#EEB490"></path>
                        <path d="M148.679779,203.323757 C138.087956,203.323757 128.070718,199.202652 120.47558,191.720663 C118.389392,189.666298 118.364641,186.307182 120.419006,184.220994 C122.476906,182.133039 125.832486,182.108287 127.920442,184.166188 C133.51779,189.680442 140.890166,192.71779 148.679779,192.71779 C156.718674,192.71779 164.253702,189.519558 169.898785,183.715359 C171.940773,181.615028 175.301657,181.570829 177.398453,183.61105 C179.498785,185.653039 179.544751,189.010387 177.502762,191.110718 C169.843978,198.986961 159.607514,203.323757 148.679779,203.323757 L148.679779,203.323757 Z" id="Shape" fill="#234957"></path>
                        <path d="M150.718232,167.964641 L147.18232,167.964641 C144.252818,167.964641 141.878453,165.590276 141.878453,162.660773 C141.878453,159.731271 144.252818,157.356906 147.18232,157.356906 L150.718232,157.356906 C153.647735,157.356906 156.022099,159.731271 156.022099,162.660773 C156.022099,165.590276 153.647735,167.964641 150.718232,167.964641 L150.718232,167.964641 Z" id="Shape" fill="#234957"></path>
                        <path d="M115.359116,144.981215 C110.484862,144.981215 106.519337,141.015691 106.519337,136.141436 C106.519337,131.267182 110.484862,127.301657 115.359116,127.301657 C120.23337,127.301657 124.198895,131.267182 124.198895,136.141436 C124.198895,141.015691 120.23337,144.981215 115.359116,144.981215 L115.359116,144.981215 Z" id="Shape" fill="#234957"></path>
                        <path d="M168.694807,144.982983 C168.047735,144.982983 167.388287,144.862762 166.746519,144.609945 C164.022099,143.535028 162.685525,140.451713 163.76221,137.727293 C166.22674,131.491713 172.372155,127.301657 179.056796,127.301657 C185.66011,127.301657 191.603978,131.242431 194.194033,137.343646 C195.337901,140.039779 194.082652,143.153149 191.384751,144.300552 C188.690387,145.442652 185.575249,144.190939 184.427845,141.491271 C183.504972,139.316685 181.395801,137.91116 179.055028,137.91116 C176.685967,137.91116 174.504309,139.405083 173.625635,141.629171 C172.805304,143.710055 170.807514,144.982983 168.694807,144.982983 L168.694807,144.982983 Z" id="Shape" fill="#234957"></path>
                        <path d="M226.740331,76.0309392 L226.740331,96.3093923 C226.740331,83.4033149 205.241989,84.959116 205.241989,84.959116 L71.160221,91.9425414 C52.6143646,91.9425414 37.5690608,76.8972376 37.5690608,58.3513812 L37.5690608,38.9038674 L37.5690608,37.1359116 C37.5690608,19.5624309 51.8187845,5.31270718 69.3922652,5.31270718 L71.160221,5.31270718 L71.160221,37.1359116 C71.160221,25.4143646 80.6541436,19.4563536 92.3756906,19.4563536 L92.3756906,37.1359116 L194.917127,44.2077348 C212.490608,44.2077348 226.740331,58.4574586 226.740331,76.0309392 L226.740331,76.0309392 Z" id="Shape" fill="#608287"></path>
                        <g opacity="0.2" transform="translate(86.629834, 31.823204)" id="Shape" fill="#D8E5EA">
                            <path d="M18.121547,26.5281768 L18.121547,7.08066298 L18.121547,5.31270718 L18.121547,3.54475138 L16.3535912,3.54475138 C10.5511602,3.54475138 5.12707182,-0.180331492 0.44198895,2.53348066 L0.44198895,0.00883977901 L0.44198895,1.77679558 L0.44198895,26.5281768 C0.44198895,41.9235359 10.8234254,54.8755801 24.9564641,58.8428729 L11.9124862,59.521768 C13.9279558,59.8983425 15.998232,60.119337 18.121547,60.119337 L42.6360221,58.8428729 C28.5029834,54.8773481 18.121547,41.9235359 18.121547,26.5281768 L18.121547,26.5281768 Z"></path>
                        </g>
                        <path d="M194.917127,44.2077348 L175.358232,42.8587845 C190.718232,47.1973481 201.98895,61.2861878 201.98895,78.0340331 L201.98895,85.1288398 L205.241989,84.959116 C205.241989,84.959116 226.740331,83.4033149 226.740331,96.3093923 L226.740331,76.0309392 C226.740331,58.4574586 212.490608,44.2077348 194.917127,44.2077348 L194.917127,44.2077348 Z" id="Shape" fill="#4E676D"></path>
                        <g opacity="0.4" transform="translate(31.823204, 5.303867)" id="Shape" fill="#D8E5EA">
                            <path d="M34.0331492,53.0475138 L34.0331492,33.6 L34.0331492,31.8320442 L34.0331492,0.00883977901 L32.2651934,0.00883977901 C14.6917127,0.00883977901 0.44198895,14.2585635 0.44198895,31.8320442 L0.44198895,33.6 L0.44198895,53.0475138 C0.44198895,71.5933702 15.4872928,86.638674 34.0331492,86.638674 L58.5476243,85.3622099 C44.4145856,81.3966851 34.0331492,68.4428729 34.0331492,53.0475138 L34.0331492,53.0475138 Z"></path>
                        </g>
                        <path d="M148.950276,238.682873 C138.892376,238.682873 129.078453,236.929061 119.784309,233.470939 C108.761105,229.303867 98.5653039,222.773039 90.2735912,214.575028 C74.5264088,198.985193 65.8563536,178.358453 65.8563536,156.490608 L65.8563536,91.9425414 C65.8563536,89.0130387 68.2307182,86.638674 71.160221,86.638674 C74.0897238,86.638674 76.4640884,89.0130387 76.4640884,91.9425414 L76.4640884,156.490608 C76.4640884,175.504972 84.0167956,193.455028 97.7343646,207.034696 C104.975912,214.194917 113.891713,219.901878 123.51116,223.538564 C131.590718,226.545856 140.16,228.075138 148.950276,228.075138 C157.740552,228.075138 166.308066,226.545856 174.415912,223.529724 C202.533481,212.967956 221.436464,186.024309 221.436464,156.490608 L221.436464,76.0309392 C221.436464,73.1014365 223.810829,70.7270718 226.740331,70.7270718 C229.669834,70.7270718 232.044199,73.1014365 232.044199,76.0309392 L232.044199,156.490608 C232.044199,190.41768 210.377901,221.35337 178.130387,233.465635 C168.820331,236.929061 159.008177,238.682873 148.950276,238.682873 L148.950276,238.682873 Z" id="Shape" fill="#234957"></path>
                        <path d="M226.740331,101.61326 C223.810829,101.61326 221.436464,99.238895 221.436464,96.3093923 C221.436464,95.041768 221.075801,94.1666298 220.22895,93.3798895 C217.074917,90.4433149 209.027182,90.0048619 205.623867,90.2488398 L71.4360221,97.239337 C71.3440884,97.2446409 71.2521547,97.2464088 71.160221,97.2464088 C49.7131492,97.2464088 32.2651934,79.798453 32.2651934,58.3513812 C32.2651934,55.4218785 34.639558,53.0475138 37.5690608,53.0475138 C40.4985635,53.0475138 42.8729282,55.4218785 42.8729282,58.3513812 C42.8729282,73.9058564 55.4908287,86.5679558 71.0276243,86.638674 L204.96442,79.6623204 C206.401768,79.561547 220.108729,78.7801105 227.454586,85.6132597 C230.456575,88.4048619 232.044199,92.1034254 232.044199,96.3093923 C232.044199,99.238895 229.669834,101.61326 226.740331,101.61326 L226.740331,101.61326 Z" id="Shape" fill="#234957"></path>
                        <path d="M226.740331,81.3348066 C223.810829,81.3348066 221.436464,78.960442 221.436464,76.0309392 C221.436464,61.4081768 209.53989,49.5116022 194.917127,49.5116022 C191.987624,49.5116022 189.61326,47.1372376 189.61326,44.2077348 C189.61326,41.278232 191.987624,38.9038674 194.917127,38.9038674 C215.388287,38.9038674 232.044199,55.559779 232.044199,76.0309392 C232.044199,78.960442 229.669834,81.3348066 226.740331,81.3348066 L226.740331,81.3348066 Z" id="Shape" fill="#234957"></path>
                        <path d="M37.5690608,63.6552486 C34.639558,63.6552486 32.2651934,61.280884 32.2651934,58.3513812 L32.2651934,38.9038674 C32.2651934,35.9743646 34.639558,33.6 37.5690608,33.6 C40.4985635,33.6 42.8729282,35.9743646 42.8729282,38.9038674 L42.8729282,58.3513812 C42.8729282,61.280884 40.4985635,63.6552486 37.5690608,63.6552486 L37.5690608,63.6552486 Z" id="Shape" fill="#234957"></path>
                        <path d="M194.922431,49.5116022 C194.800442,49.5116022 194.676685,49.5080663 194.552928,49.4992265 L92.0114917,42.4274033 C89.0890608,42.2258564 86.8844199,39.6923757 87.0859669,36.7717127 C87.2875138,33.8492818 89.8174586,31.6481768 92.7416575,31.8444199 L195.283094,38.9162431 C198.205525,39.1177901 200.410166,41.6512707 200.210387,44.5719337 C200.015912,47.3706077 197.683978,49.5116022 194.922431,49.5116022 L194.922431,49.5116022 Z" id="Shape" fill="#234957"></path>
                        <path d="M71.160221,42.439779 C68.2307182,42.439779 65.8563536,40.0654144 65.8563536,37.1359116 C65.8563536,23.3900552 76.5135912,14.1524862 92.3756906,14.1524862 C95.3051934,14.1524862 97.679558,16.5268508 97.679558,19.4563536 C97.679558,22.3858564 95.3051934,24.760221 92.3756906,24.760221 C88.6435359,24.760221 76.4640884,25.6530387 76.4640884,37.1359116 C76.4640884,40.0654144 74.0897238,42.439779 71.160221,42.439779 L71.160221,42.439779 Z" id="Shape" fill="#234957"></path>
                        <path d="M92.3756906,42.439779 C89.4461878,42.439779 87.0718232,40.0654144 87.0718232,37.1359116 L87.0718232,19.4563536 C87.0718232,16.5268508 89.4461878,14.1524862 92.3756906,14.1524862 C95.3051934,14.1524862 97.679558,16.5268508 97.679558,19.4563536 L97.679558,37.1359116 C97.679558,40.0654144 95.3051934,42.439779 92.3756906,42.439779 L92.3756906,42.439779 Z" id="Shape" fill="#234957"></path>
                        <path d="M37.5690608,42.439779 C34.639558,42.439779 32.2651934,40.0654144 32.2651934,37.1359116 C32.2651934,16.6647514 48.919337,0.00883977901 69.3922652,0.00883977901 C72.321768,0.00883977901 74.6961326,2.38320442 74.6961326,5.31270718 C74.6961326,8.24220994 72.321768,10.6165746 69.3922652,10.6165746 C54.7695028,10.6165746 42.8729282,22.5131492 42.8729282,37.1359116 C42.8729282,40.0654144 40.4985635,42.439779 37.5690608,42.439779 L37.5690608,42.439779 Z" id="Shape" fill="#234957"></path>
                        <path d="M71.160221,42.439779 C68.2307182,42.439779 65.8563536,40.0654144 65.8563536,37.1359116 L65.8563536,5.31270718 C65.8563536,2.38320442 68.2307182,0.00883977901 71.160221,0.00883977901 C74.0897238,0.00883977901 76.4640884,2.38320442 76.4640884,5.31270718 L76.4640884,37.1359116 C76.4640884,40.0654144 74.0897238,42.439779 71.160221,42.439779 L71.160221,42.439779 Z" id="Shape" fill="#234957"></path>
                        <path d="M162.139227,263.239779 C163.889503,262.179006 165.516022,260.906077 166.983425,259.456354 L167.21326,259.703867 L177.272928,257.370166 L177.820994,259.703867 L172.78232,289.175691 C164.472928,289.882873 159.558011,284.649724 159.558011,284.649724 L163.093923,263.434254 C163.093923,263.434254 162.740331,263.363536 162.139227,263.257459 L162.139227,263.239779 L162.139227,263.239779 Z" id="Shape" fill="#D8E5EA"></path>
                        <path d="M138.342541,284.649724 C144.300552,305.635359 161.237569,312.40663 183.354696,308.976796 L183.372376,309.065193 C179.076243,309.98453 174.727072,310.762431 170.307182,311.363536 C162.79337,312.40663 155.102762,312.919337 147.288398,312.919337 C142.232044,312.919337 137.21105,312.707182 132.243094,312.247514 C130.881768,312.123757 129.502762,312 128.159116,311.840884 L120.167956,257.140331 L131.164641,259.703867 C131.889503,260.41105 132.649724,261.047514 133.462983,261.666298 L134.80663,263.434254 L138.342541,284.649724 L138.342541,284.649724 Z" id="Shape" fill="#D8E5EA"></path>
                        <path d="M185.370166,255.478453 L201.670718,266.262983 C199.089503,269.675138 196.702762,272.769061 194.475138,275.367956 C185.953591,285.339227 178.545856,288.698343 172.78232,289.175691 L177.820994,259.703867 L177.272928,257.370166 L185.370166,255.478453 L185.370166,255.478453 Z" id="Shape" fill="#4E676D"></path>
                        <path d="M120.167956,257.140331 L128.159116,311.840884 C115.942541,310.479558 104.114917,307.809945 92.8353591,303.920442 C76.0751381,298.280663 60.5171271,290.041989 46.5679558,279.699448 C45.6309392,278.992265 44.7116022,278.302762 43.7745856,277.577901 C58.7138122,262.850829 76.7116022,251.21768 96.6718232,243.756906 L92.959116,268.738122 L113.007735,255.478453 L120.167956,257.140331 L120.167956,257.140331 Z" id="Shape" fill="#4E676D"></path>
                        <path d="M61.4541436,289.281768 C70.9798895,279.890387 81.759116,271.77547 93.4877348,265.179227 L96.6718232,243.756906 C76.7116022,251.21768 58.7138122,262.850829 43.7745856,277.577901 C44.7116022,278.302762 45.6309392,278.992265 46.5679558,279.699448 C51.838232,283.608398 57.3418785,287.21326 63.0506077,290.492818 C62.520221,290.09326 61.9898343,289.69547 61.4541436,289.281768 L61.4541436,289.281768 Z" id="Shape" fill="#608287"></path>
                        <path d="M113.83337,255.67116 L113.007735,255.480221 L110.958674,256.836243 C111.916906,256.449061 112.86453,256.037127 113.83337,255.67116 L113.83337,255.67116 Z" id="Shape" fill="#608287"></path>
                        <path d="M163.093923,263.434254 L159.558011,284.649724 L138.342541,284.649724 L134.80663,263.434254 C134.80663,263.434254 142.833149,261.666298 148.950276,261.666298 C153.423204,261.666298 159.752486,262.79779 162.139227,263.257459 C162.740331,263.363536 163.093923,263.434254 163.093923,263.434254 L163.093923,263.434254 Z" id="Shape" fill="#1C7CD3"></path>
                        <path d="M312.928177,262.108287 C308.508287,286.41768 289.060773,295.699448 289.060773,295.699448 C289.891713,270.930387 276.349171,259.297238 274.563536,257.882873 C276.119337,256.892818 277.816575,255.955801 279.779006,255.036464 C295.142541,247.876243 312.928177,262.108287 312.928177,262.108287 L312.928177,262.108287 Z" id="Shape" fill="#1C7CD3"></path>
                        <path d="M274.563536,257.882873 C264.132597,264.495028 260.897238,273.016575 235.862983,287.920442 C217.140331,299.076243 198.965746,306.554696 183.354696,308.976796 C161.237569,312.40663 144.300552,305.635359 138.342541,284.649724 L159.558011,284.649724 C159.558011,284.649724 164.472928,289.882873 172.78232,289.175691 C178.545856,288.698343 185.953591,285.339227 194.475138,275.367956 C196.702762,272.769061 199.089503,269.675138 201.670718,266.262983 C202.572376,265.043094 203.527072,263.770166 204.481768,262.461878 C207.504972,258.377901 210.722652,253.975691 214.099448,249.485083 C228.773481,230.055249 246.718232,209.158011 266.077348,206.859669 C298.342541,203.023204 302.461878,211.279558 302.461878,222.771271 C302.461878,239.938122 312.928177,262.108287 312.928177,262.108287 C312.928177,262.108287 295.142541,247.876243 279.779006,255.036464 C277.816575,255.955801 276.119337,256.892818 274.563536,257.882873 L274.563536,257.882873 Z" id="Shape" fill="#1B9ED6"></path>
                        <path d="M286.55558,223.950497 C289.283536,236.126409 293.480663,247.229171 296.129061,253.908508 C308.448177,254.01105 312.928177,262.108287 312.928177,262.108287 C312.928177,262.108287 302.461878,239.938122 302.461878,222.771271 C302.461878,211.702099 303.05768,202.14453 275.359116,210.984309 C281.251713,212.605525 284.669171,215.531492 286.55558,223.950497 L286.55558,223.950497 Z" id="Shape" fill="#34BBEA"></path>
                        <path d="M147.288398,318.223204 C141.963315,318.223204 136.737238,317.989834 131.75337,317.528398 C130.241768,317.390497 128.871602,317.264972 127.535028,317.107624 C115.070939,315.719779 102.801326,312.967072 91.1045304,308.934365 C74.0932597,303.209724 58.0313812,294.803094 43.4068508,283.960221 L42.7862983,283.489945 C42.0331492,282.922431 41.2853039,282.358453 40.5268508,281.771492 C38.2090608,279.978785 37.7847514,276.649724 39.5756906,274.330166 C41.3683978,272.012376 44.6974586,271.586298 47.0152486,273.380773 C47.7401105,273.941215 48.4525967,274.478674 49.1721547,275.023204 L49.760884,275.466961 C63.4537017,285.618564 78.5272928,293.510718 94.521989,298.892376 C105.516906,302.686409 117.017459,305.264088 128.740773,306.56884 C130.020773,306.719116 131.293702,306.834033 132.556022,306.950718 C144.71779,308.078674 157.636243,307.767514 169.573481,306.109171 C173.645083,305.557569 177.870497,304.815028 182.152486,303.900994 C182.57326,303.796685 183.011713,303.741878 183.43779,303.741878 C186.367293,303.741878 188.741657,306.116243 188.741657,309.045746 C188.741657,311.558011 186.996685,313.66011 184.652376,314.209945 C184.594033,314.224088 184.535691,314.238232 184.47558,314.24884 L184.47558,314.250608 C179.898343,315.230055 175.370608,316.025635 171.017901,316.617901 C163.357348,317.68221 155.367956,318.223204 147.288398,318.223204 L147.288398,318.223204 Z" id="Shape" fill="#234957"></path>
                        <path d="M43.7745856,282.881768 C42.4044199,282.881768 41.0360221,282.353149 39.998232,281.301215 C37.9403315,279.21326 37.9650829,275.855912 40.0512707,273.799779 C55.5969061,258.475138 74.5334807,246.368177 94.8154696,238.787182 C97.5628729,237.767072 100.616133,239.156685 101.639779,241.898785 C102.665193,244.64442 101.272044,247.699448 98.5281768,248.724862 C79.6340331,255.786077 61.9880663,267.069171 47.4961326,281.354254 C46.4636464,282.374365 45.12,282.881768 43.7745856,282.881768 L43.7745856,282.881768 Z" id="Shape" fill="#234957"></path>
                        <path d="M172.789392,294.479558 C172.492376,294.479558 172.191823,294.454807 171.887735,294.403536 C169.000663,293.910276 167.061215,291.169945 167.554475,288.281105 L172.593149,258.809282 C173.086409,255.92221 175.812597,253.982762 178.71558,254.476022 C181.602652,254.969282 183.542099,257.709613 183.04884,260.598453 L178.010166,290.070276 C177.569945,292.655028 175.326409,294.479558 172.789392,294.479558 L172.789392,294.479558 Z" id="Shape" fill="#234957"></path>
                        <path d="M128.152044,317.144751 C125.561989,317.144751 123.29547,315.245967 122.911823,312.608177 L114.920663,257.909392 C114.496354,255.009945 116.502983,252.319116 119.402431,251.894807 C122.301878,251.475801 124.994475,253.478895 125.417017,256.376575 L133.408177,311.075359 C133.832486,313.974807 131.825856,316.665635 128.926409,317.089945 C128.666519,317.127072 128.408398,317.144751 128.152044,317.144751 L128.152044,317.144751 Z" id="Shape" fill="#234957"></path>
                        <path d="M133.459448,266.970166 C132.342099,266.970166 131.214144,266.618343 130.255912,265.891713 C129.21105,265.097901 128.298785,264.316464 127.464309,263.504972 C127.114254,263.172597 126.741215,262.817238 126.366409,262.422983 C120.401326,256.081326 117.127072,247.777238 117.127072,239.020552 L117.127072,228.784088 C117.127072,225.854586 119.501436,223.480221 122.430939,223.480221 C125.360442,223.480221 127.734807,225.854586 127.734807,228.784088 L127.734807,239.020552 C127.734807,245.066961 129.985414,250.788066 134.072928,255.133702 C134.297459,255.370608 134.544972,255.60221 134.78895,255.833812 C135.384751,256.411934 135.975249,256.915801 136.670055,257.442652 C139.003757,259.214144 139.458122,262.541436 137.68663,264.875138 C136.645304,266.24884 135.061215,266.970166 133.459448,266.970166 L133.459448,266.970166 Z" id="Shape" fill="#234957"></path>
                        <path d="M162.14453,268.545414 C160.351823,268.545414 158.601547,267.636685 157.60442,265.992486 C156.085746,263.487293 156.884862,260.225414 159.388287,258.70674 C160.777901,257.863425 162.077348,256.846851 163.256575,255.685304 C167.655249,251.389171 170.165746,245.325083 170.165746,239.020552 L170.165746,228.906077 C170.165746,225.976575 172.54011,223.60221 175.469613,223.60221 C178.399116,223.60221 180.773481,225.976575 180.773481,228.906077 L180.773481,239.020552 C180.773481,248.16442 177.097901,256.997127 170.689061,263.252155 C168.947624,264.975912 166.986961,266.505193 164.890166,267.778122 C164.029171,268.297901 163.081547,268.545414 162.14453,268.545414 L162.14453,268.545414 Z" id="Shape" fill="#234957"></path>
                        <path d="M214.095912,254.790718 C213.314475,254.790718 212.517127,254.615691 211.769282,254.247956 C207.837348,252.326188 203.832928,250.581215 199.867403,249.062541 C197.130608,248.015912 195.76221,244.950276 196.80884,242.215249 C197.85547,239.480221 200.914033,238.110055 203.656133,239.156685 C207.918674,240.78674 212.218343,242.657238 216.433149,244.720442 C219.063867,246.007514 220.152928,249.182762 218.865856,251.815249 C217.941215,253.698122 216.056575,254.790718 214.095912,254.790718 L214.095912,254.790718 Z" id="Shape" fill="#234957"></path>
                        <path d="M289.060773,301.003315 C288.045967,301.003315 287.034696,300.711602 286.156022,300.137017 C284.605525,299.123978 283.696796,297.373702 283.760442,295.522652 C284.508287,273.189834 272.627624,263.11779 271.271602,262.041105 C268.975028,260.223646 268.586077,256.887514 270.407072,254.590939 C272.22453,252.292597 275.562431,251.905414 277.857238,253.726409 C279.413039,254.956906 291.45105,265.110276 293.950939,285.857238 C299.097459,281.283536 305.490387,273.371934 307.712707,261.158895 C308.236022,258.277127 311.002873,256.364199 313.879337,256.89105 C316.761105,257.414365 318.672265,260.174144 318.147182,263.05768 C313.299448,289.729061 292.241326,300.059227 291.34674,300.485304 C290.62011,300.831823 289.838674,301.003315 289.060773,301.003315 L289.060773,301.003315 Z" id="Shape" fill="#234957"></path>
                        <path d="M92.959116,274.041989 C91.9690608,274.041989 90.9790055,273.766188 90.1109392,273.21105 C88.3447514,272.08663 87.4059669,270.028729 87.7135912,267.956685 L93.318011,230.247956 C93.4930387,229.072265 94.0552486,227.992044 94.918011,227.175249 L104.55337,218.052597 C106.680221,216.038895 110.037569,216.130829 112.051271,218.25768 C114.064972,220.38453 113.973039,223.741878 111.846188,225.75558 L103.540331,233.61768 L99.9549171,257.750276 L110.083536,251.05326 C111.298122,250.24884 112.790276,249.98011 114.208177,250.310718 L132.368619,254.537901 C135.222099,255.20442 136.995359,258.054365 136.330608,260.909613 C135.664088,263.761326 132.812376,265.527514 129.960663,264.869834 L114.031381,261.158895 L95.8850829,273.159779 C94.9975691,273.748508 93.9792265,274.041989 92.959116,274.041989 L92.959116,274.041989 Z" id="Shape" fill="#234957"></path>
                        <path d="M173.005083,315.123978 C152.567514,315.123978 138.625414,305.067845 133.240221,286.09768 C132.439337,283.279558 134.076464,280.346519 136.892818,279.547403 C139.709171,278.741215 142.643978,280.381878 143.443094,283.2 C148.243094,300.103425 161.389613,307.023204 182.539669,303.733039 C197.05989,301.482431 214.557348,294.438895 233.147403,283.36442 C248.190939,274.407956 255.059448,267.870055 260.577238,262.617459 C264.201547,259.168177 267.332597,256.185635 271.722431,253.404641 C273.515138,252.262541 275.415691,251.224751 277.52663,250.232928 C286.279779,246.156022 295.398895,247.653481 302.596243,250.374365 C299.868287,242.30895 297.158011,231.978785 297.158011,222.771271 C297.158011,218.356685 296.461436,215.938122 294.757127,214.421215 C292.207735,212.158232 285.27558,209.92 266.704972,212.126409 C249.53105,214.163094 232.615249,233.769724 218.331934,252.679779 C216.003536,255.779006 213.74232,258.844641 211.571271,261.791823 L208.746077,265.615912 C208.14674,266.438011 207.526188,267.274254 206.918011,268.09105 L205.938564,269.411713 C203.477569,272.664751 200.905193,276.01326 198.502541,278.81547 C190.237348,288.487956 181.731713,293.752928 173.222541,294.458343 C164.646188,295.202652 158.171934,290.915359 155.69326,288.277569 C153.688398,286.143646 153.792707,282.786298 155.928398,280.781436 C158.046409,278.792486 161.370166,278.882652 163.380331,280.967072 C163.599558,281.186298 166.896796,284.352707 172.335028,283.887735 C177.888177,283.426298 184.14674,279.287514 190.444199,271.916906 C192.666519,269.325083 195.120442,266.128619 197.441768,263.059448 L198.401768,261.765304 C198.990497,260.971492 199.595138,260.158232 200.198011,259.330829 L203.033812,255.492597 C205.224309,252.520663 207.503204,249.428508 209.85989,246.293923 C225.499227,225.589392 244.32442,204.096354 265.45326,201.587624 C284.259006,199.349392 295.469613,200.860994 301.802431,206.48663 C307.088619,211.180552 307.767514,217.651271 307.767514,222.765967 C307.767514,238.562652 317.625635,259.627845 317.726409,259.84 C318.78011,262.07116 318.154254,264.737238 316.216575,266.266519 C314.280663,267.795801 311.543867,267.785193 309.616796,266.245304 C309.471823,266.130387 294.168398,254.184309 282.022541,259.838232 C280.339448,260.62674 278.827845,261.452376 277.417017,262.352265 C273.897017,264.583425 271.248619,267.10453 267.894807,270.295691 C261.991602,275.916022 254.645746,282.908287 238.580331,292.474696 C218.835801,304.236906 200.019448,311.754254 184.171492,314.213481 C180.260773,314.823425 176.535691,315.123978 173.005083,315.123978 L173.005083,315.123978 Z" id="Shape" fill="#234957"></path>
                        <path d="M159.558011,289.953591 L138.342541,289.953591 C135.750718,289.953591 133.537238,288.07779 133.11116,285.521326 L129.575249,264.305856 C129.110276,261.521326 130.908287,258.86232 133.66453,258.254144 C134.016354,258.176354 142.33105,256.362431 148.950276,256.362431 C153.667182,256.362431 159.865635,257.419669 163.13989,258.049061 C163.733923,258.15337 164.133481,258.232928 164.133481,258.232928 C166.939227,258.795138 168.797348,261.484199 168.325304,264.305856 L164.789392,285.521326 C164.363315,288.07779 162.151602,289.953591 159.558011,289.953591 L159.558011,289.953591 Z M142.836685,279.345856 L155.065635,279.345856 L156.998011,267.749834 C154.432707,267.353812 151.326409,266.970166 148.950276,266.970166 C146.480442,266.970166 143.466077,267.320221 140.897238,267.714475 L142.836685,279.345856 L142.836685,279.345856 Z" id="Shape" fill="#234957"></path>
                        <path d="M204.474696,267.765746 C201.889945,267.765746 199.626961,265.874033 199.234475,263.239779 L194.835801,233.61768 L186.533481,225.75558 C184.40663,223.74011 184.314696,220.38453 186.328398,218.25768 C188.340331,216.132597 191.69768,216.038895 193.826298,218.052597 L203.45989,227.175249 C204.320884,227.992044 204.884862,229.072265 205.05989,230.246188 L209.729061,261.68221 C210.158674,264.57989 208.157348,267.27779 205.261436,267.707403 C204.996243,267.746298 204.734586,267.765746 204.474696,267.765746 L204.474696,267.765746 Z" id="Shape" fill="#234957"></path>
                        <path d="M201.665414,271.566851 C200.661215,271.566851 199.644641,271.28221 198.744751,270.686409 L184.348287,261.162431 L168.410166,264.869834 C165.565525,265.53989 162.70674,263.75779 162.045525,260.902541 C161.382541,258.050829 163.159337,255.199116 166.012818,254.537901 L184.160884,250.312486 C185.584088,249.98011 187.078011,250.250608 188.294365,251.05326 L204.596685,261.839558 C207.04,263.45547 207.710055,266.745635 206.094144,269.18895 C205.074033,270.732376 203.387403,271.566851 201.665414,271.566851 L201.665414,271.566851 Z" id="Shape" fill="#234957"></path>
                    </g>
                </g>
            </g>
        </g>
    </g>
</svg>