<?xml version="1.0" encoding="UTF-8" standalone="no"?>
<svg width="400px" height="400px" viewBox="0 0 400 400" version="1.1" xmlns="http://www.w3.org/2000/svg" xmlns:xlink="http://www.w3.org/1999/xlink">
    <!-- Generator: Sketch 3.8.3 (29802) - http://www.bohemiancoding.com/sketch -->
    <title>company-group</title>
    <desc>Created with Sketch.</desc>
    <defs></defs>
    <g id="Page-1" stroke="none" stroke-width="1" fill="none" fill-rule="evenodd">
        <g id="company-group">
            <g transform="translate(30.000000, 45.000000)" id="Layer_1">
                <g>
                    <g id="Group">
                        <g transform="translate(206.451613, 0.000000)" id="Shape">
                            <path d="M98.803318,69.3087558 L98.803318,217.527742 C98.803318,224.899539 97.8624885,231.520737 96.1105991,238.894009 L73.7341935,238.894009 L73.7341935,241.843318 L30.9692166,241.843318 L30.9692166,247.741935 L4.42543779,247.741935 L4.42543779,120.488111 L4.42543779,77.9472811 L4.42543779,69.3087558 L17.6103226,69.3087558 L85.9841475,69.3087558 L98.803318,69.3087558 L98.803318,69.3087558 Z" fill="#3EB38A"></path>
                            <polygon fill="#3EB38A" points="85.5314286 51.6129032 85.5314286 69.3087558 17.6973272 69.3087558 17.6973272 51.6129032 28.2941935 51.6129032 75.3002765 51.6129032"></polygon>
                            <path d="M75.3002765,51.6129032 L28.2941935,51.6129032 C36.5625806,51.6129032 43.2516129,42.764977 43.2516129,35.3917051 L51.7987097,35.3917051 L60.3458065,35.3917051 C60.3443318,42.764977 67.0318894,51.6129032 75.3002765,51.6129032 L75.3002765,51.6129032 Z" fill="#3EB38A"></path>
                            <path d="M85.5314286,69.3087558 L85.5314286,250.691244 L96.1105991,250.691244 C97.8624885,239.063594 98.803318,228.621567 98.803318,216.996866 L98.803318,69.3087558 L85.5314286,69.3087558 L85.5314286,69.3087558 Z" fill="#2A9E71"></path>
                            <polygon fill="#2A9E71" points="76.3694009 51.6129032 67.835576 51.6129032 67.835576 69.3087558 87.0060829 69.3087558 87.0060829 51.6129032"></polygon>
                            <polygon fill="#30C68D" points="17.6973272 69.3087558 4.42543779 69.3087558 4.42543779 82.7089401 4.42543779 148.702673 4.42543779 247.741935 17.6973272 247.741935"></polygon>
                            <polygon fill="#30C68D" points="28.2941935 51.6129032 17.6973272 51.6129032 17.6973272 69.3087558 35.3931797 69.3087558 35.3931797 51.6129032"></polygon>
                            <path d="M98.803318,228.571429 C96.3598157,228.571429 94.3793548,226.590968 94.3793548,224.147465 L94.3793548,72.2580645 L85.5314286,72.2580645 C83.0879263,72.2580645 81.1074654,70.2776037 81.1074654,67.8341014 C81.1074654,65.3905991 83.0879263,63.4101382 85.5314286,63.4101382 L98.803318,63.4101382 C101.24682,63.4101382 103.227281,65.3905991 103.227281,67.8341014 L103.227281,224.147465 C103.227281,226.590968 101.248295,228.571429 98.803318,228.571429 L98.803318,228.571429 Z" fill="#234957"></path>
                            <path d="M4.42543779,232.995392 C1.98193548,232.995392 0.00147465438,231.014931 0.00147465438,228.571429 L0.00147465438,67.8341014 C0.00147465438,65.3905991 1.98193548,63.4101382 4.42543779,63.4101382 L17.6973272,63.4101382 C20.1408295,63.4101382 22.1212903,65.3905991 22.1212903,67.8341014 C22.1212903,70.2776037 20.1408295,72.2580645 17.6973272,72.2580645 L8.84940092,72.2580645 L8.84940092,228.571429 C8.84940092,231.014931 6.87041475,232.995392 4.42543779,232.995392 L4.42543779,232.995392 Z" fill="#234957"></path>
                            <path d="M75.3002765,55.6446083 C66.1411982,55.6446083 58.2223041,48.0840553 56.3421198,38.3410138 L47.2494009,38.3410138 C45.3603687,48.0250691 37.4473733,55.5399078 28.2941935,55.5399078 C25.8506912,55.5399078 23.8702304,53.559447 23.8702304,51.1159447 C23.8702304,48.6724424 25.8506912,46.6919816 28.2941935,46.6919816 C33.8064516,46.6919816 38.8276498,40.6031336 38.8276498,33.9170507 C38.8276498,31.4735484 40.8081106,29.4930876 43.2516129,29.4930876 L60.3443318,29.4930876 C62.7878341,29.4930876 64.7682949,31.4735484 64.7682949,33.9170507 C64.7682949,40.6576959 69.7880184,46.796682 75.3017512,46.796682 C77.7452535,46.796682 79.7257143,48.7771429 79.7257143,51.2206452 C79.7257143,53.6641475 77.7437788,55.6446083 75.3002765,55.6446083 L75.3002765,55.6446083 Z" fill="#234957"></path>
                            <path d="M85.5314286,72.2580645 L17.6973272,72.2580645 C15.2538249,72.2580645 13.2733641,70.2776037 13.2733641,67.8341014 L13.2733641,51.6129032 C13.2733641,49.1694009 15.2538249,47.1889401 17.6973272,47.1889401 L85.5314286,47.1889401 C87.9749309,47.1889401 89.9553917,49.1694009 89.9553917,51.6129032 L89.9553917,67.8341014 C89.9553917,70.2776037 87.9764055,72.2580645 85.5314286,72.2580645 L85.5314286,72.2580645 Z M22.1212903,63.4101382 L81.1074654,63.4101382 L81.1074654,56.0368664 L22.1212903,56.0368664 L22.1212903,63.4101382 L22.1212903,63.4101382 Z" fill="#234957"></path>
                            <path d="M51.6143779,38.3410138 C49.1708756,38.3410138 47.1904147,36.360553 47.1904147,33.9170507 L47.1904147,4.42396313 C47.1904147,1.98046083 49.1708756,0 51.6143779,0 C54.0578802,0 56.038341,1.98046083 56.038341,4.42396313 L56.038341,33.9170507 C56.038341,36.360553 54.0593548,38.3410138 51.6143779,38.3410138 L51.6143779,38.3410138 Z" fill="#234957"></path>
                            <path d="M73.7341935,134.193548 L63.4116129,134.193548 C60.9681106,134.193548 58.9876498,132.213088 58.9876498,129.769585 C58.9876498,127.326083 60.9681106,125.345622 63.4116129,125.345622 L73.7341935,125.345622 C76.1776959,125.345622 78.1581567,127.326083 78.1581567,129.769585 C78.1581567,132.213088 76.1791705,134.193548 73.7341935,134.193548 L73.7341935,134.193548 Z" fill="#234957"></path>
                            <path d="M45.7157604,116.497696 L33.9185253,116.497696 C31.475023,116.497696 29.4945622,114.517235 29.4945622,112.073733 C29.4945622,109.63023 31.475023,107.64977 33.9185253,107.64977 L45.7157604,107.64977 C48.1592627,107.64977 50.1397235,109.63023 50.1397235,112.073733 C50.1397235,114.517235 48.1607373,116.497696 45.7157604,116.497696 L45.7157604,116.497696 Z" fill="#234957"></path>
                            <path d="M45.7157604,134.193548 L33.9185253,134.193548 C31.475023,134.193548 29.4945622,132.213088 29.4945622,129.769585 C29.4945622,127.326083 31.475023,125.345622 33.9185253,125.345622 L45.7157604,125.345622 C48.1592627,125.345622 50.1397235,127.326083 50.1397235,129.769585 C50.1397235,132.213088 48.1607373,134.193548 45.7157604,134.193548 L45.7157604,134.193548 Z" fill="#234957"></path>
                            <path d="M73.7341935,116.497696 L63.4116129,116.497696 C60.9681106,116.497696 58.9876498,114.517235 58.9876498,112.073733 C58.9876498,109.63023 60.9681106,107.64977 63.4116129,107.64977 L73.7341935,107.64977 C76.1776959,107.64977 78.1581567,109.63023 78.1581567,112.073733 C78.1581567,114.517235 76.1791705,116.497696 73.7341935,116.497696 L73.7341935,116.497696 Z" fill="#234957"></path>
                            <path d="M45.7157604,98.8018433 L33.9185253,98.8018433 C31.475023,98.8018433 29.4945622,96.8213825 29.4945622,94.3778802 C29.4945622,91.9343779 31.475023,89.9539171 33.9185253,89.9539171 L45.7157604,89.9539171 C48.1592627,89.9539171 50.1397235,91.9343779 50.1397235,94.3778802 C50.1397235,96.8213825 48.1607373,98.8018433 45.7157604,98.8018433 L45.7157604,98.8018433 Z" fill="#234957"></path>
                            <path d="M73.7341935,98.8018433 L63.4116129,98.8018433 C60.9681106,98.8018433 58.9876498,96.8213825 58.9876498,94.3778802 C58.9876498,91.9343779 60.9681106,89.9539171 63.4116129,89.9539171 L73.7341935,89.9539171 C76.1776959,89.9539171 78.1581567,91.9343779 78.1581567,94.3778802 C78.1581567,96.8213825 76.1791705,98.8018433 73.7341935,98.8018433 L73.7341935,98.8018433 Z" fill="#234957"></path>
                            <path d="M45.7157604,169.585253 L33.9185253,169.585253 C31.475023,169.585253 29.4945622,167.604793 29.4945622,165.16129 C29.4945622,162.717788 31.475023,160.737327 33.9185253,160.737327 L45.7157604,160.737327 C48.1592627,160.737327 50.1397235,162.717788 50.1397235,165.16129 C50.1397235,167.604793 48.1607373,169.585253 45.7157604,169.585253 L45.7157604,169.585253 Z" fill="#234957"></path>
                            <path d="M73.7341935,169.585253 L63.4116129,169.585253 C60.9681106,169.585253 58.9876498,167.604793 58.9876498,165.16129 C58.9876498,162.717788 60.9681106,160.737327 63.4116129,160.737327 L73.7341935,160.737327 C76.1776959,160.737327 78.1581567,162.717788 78.1581567,165.16129 C78.1581567,167.604793 76.1791705,169.585253 73.7341935,169.585253 L73.7341935,169.585253 Z" fill="#234957"></path>
                            <path d="M45.7157604,187.281106 L33.9185253,187.281106 C31.475023,187.281106 29.4945622,185.300645 29.4945622,182.857143 C29.4945622,180.413641 31.475023,178.43318 33.9185253,178.43318 L45.7157604,178.43318 C48.1592627,178.43318 50.1397235,180.413641 50.1397235,182.857143 C50.1397235,185.300645 48.1607373,187.281106 45.7157604,187.281106 L45.7157604,187.281106 Z" fill="#234957"></path>
                            <path d="M73.7341935,187.281106 L63.4116129,187.281106 C60.9681106,187.281106 58.9876498,185.300645 58.9876498,182.857143 C58.9876498,180.413641 60.9681106,178.43318 63.4116129,178.43318 L73.7341935,178.43318 C76.1776959,178.43318 78.1581567,180.413641 78.1581567,182.857143 C78.1581567,185.300645 76.1791705,187.281106 73.7341935,187.281106 L73.7341935,187.281106 Z" fill="#234957"></path>
                            <path d="M45.7157604,204.976959 L33.9185253,204.976959 C31.475023,204.976959 29.4945622,202.996498 29.4945622,200.552995 C29.4945622,198.109493 31.475023,196.129032 33.9185253,196.129032 L45.7157604,196.129032 C48.1592627,196.129032 50.1397235,198.109493 50.1397235,200.552995 C50.1397235,202.996498 48.1607373,204.976959 45.7157604,204.976959 L45.7157604,204.976959 Z" fill="#234957"></path>
                            <path d="M73.7341935,204.976959 L63.4116129,204.976959 C60.9681106,204.976959 58.9876498,202.996498 58.9876498,200.552995 C58.9876498,198.109493 60.9681106,196.129032 63.4116129,196.129032 L73.7341935,196.129032 C76.1776959,196.129032 78.1581567,198.109493 78.1581567,200.552995 C78.1581567,202.996498 76.1791705,204.976959 73.7341935,204.976959 L73.7341935,204.976959 Z" fill="#234957"></path>
                            <path d="M45.7157604,151.889401 L33.9185253,151.889401 C31.475023,151.889401 29.4945622,149.90894 29.4945622,147.465438 C29.4945622,145.021935 31.475023,143.041475 33.9185253,143.041475 L45.7157604,143.041475 C48.1592627,143.041475 50.1397235,145.021935 50.1397235,147.465438 C50.1397235,149.90894 48.1607373,151.889401 45.7157604,151.889401 L45.7157604,151.889401 Z" fill="#234957"></path>
                            <path d="M73.7341935,151.889401 L63.4116129,151.889401 C60.9681106,151.889401 58.9876498,149.90894 58.9876498,147.465438 C58.9876498,145.021935 60.9681106,143.041475 63.4116129,143.041475 L73.7341935,143.041475 C76.1776959,143.041475 78.1581567,145.021935 78.1581567,147.465438 C78.1581567,149.90894 76.1791705,151.889401 73.7341935,151.889401 L73.7341935,151.889401 Z" fill="#234957"></path>
                        </g>
                        <g transform="translate(0.000000, 82.580645)" id="Shape">
                            <path d="M43.7279263,140.786728 C49.5896774,154.28129 76.4269124,196.129032 139.458065,216.890691 C149.962028,215.777327 155.84,213.900092 158.952995,212.454931 C161.423041,211.32977 162.214931,210.45235 162.214931,210.45235 L162.214931,209.080922 C162.214931,194.124977 160.013272,181.22765 155.869493,170.415484 C147.88424,149.31318 131.247189,136.168111 103.228756,131.00977 L103.228756,132.244055 C103.228756,136.771244 101.699539,140.888479 98.7354839,143.879078 C95.7448848,146.843134 91.7043318,148.708571 87.1756682,148.708571 C78.1198157,148.708571 70.7863594,141.299908 70.7863594,132.244055 L70.7863594,131.00977 C58.9876498,133.162765 53.3338249,134.653641 43.7279263,140.786728 L43.7279263,140.786728 Z" fill="#1B9ED6"></path>
                            <path d="M70.7848848,131.273733 L70.7848848,131.008295 C69.3102304,131.344516 67.2132719,131.794286 65.4466359,132.235207 C67.3164977,132.217512 69.3102304,131.872442 70.7848848,131.273733 L70.7848848,131.273733 Z" fill="#FF6C81"></path>
                            <path d="M114.465622,116.785253 C111.200737,119.1447 107.632074,121.066175 103.818618,122.520184 C98.7148387,124.441659 93.1981567,125.48424 87.4352074,125.48424 C81.6722581,125.48424 76.1570507,124.441659 71.0517972,122.520184 C67.2103226,121.038157 63.8687558,119.118157 60.5758525,116.730691 C48.7756682,108.251429 41.2917972,94.3926267 41.2917972,78.8335484 L41.2917972,56.4143779 L41.2917972,54.1360369 L41.2917972,53.6700461 L41.2917972,51.3917051 C41.2917972,48.7019355 40.8921659,46.0682028 41.3596313,43.515576 C52.8029493,46.8630415 81.1074654,43.844424 81.1074654,43.844424 L81.1074654,54.6020276 C107.651244,56.6606452 132.102488,39.0429493 132.102488,39.0429493 C133.199631,42.9670046 134.195023,47.1107834 134.195023,51.3917051 L134.195023,54.1360369 L134.195023,60.5301382 L134.195023,78.8335484 C134.195023,91.6763134 128.899539,103.311336 120.44682,111.790599 C118.609401,113.629493 116.578802,115.3047 114.465622,116.785253 L114.465622,116.785253 Z" fill="#F4CCAD"></path>
                            <path d="M132.102488,39.0429493 C132.102488,39.0429493 107.651244,56.6606452 81.1074654,54.6020276 L81.1074654,43.844424 C81.1074654,43.844424 52.8029493,46.8630415 41.3596313,43.515576 C40.8936406,46.0682028 41.2917972,48.7019355 41.2917972,51.3917051 L41.2917972,53.6685714 L41.2917972,54.1345622 L41.2917972,56.4114286 L41.2917972,65.1104147 C41.2917972,62.4206452 40.8921659,59.7869124 41.3596313,57.2342857 C52.8029493,60.5817512 81.1074654,57.5631336 81.1074654,57.5631336 L81.1074654,68.3207373 C107.651244,70.3793548 132.102488,52.761659 132.102488,52.761659 C133.199631,56.6857143 134.195023,60.8294931 134.195023,65.1104147 L134.195023,52.2956682 L134.195023,54.1345622 L134.195023,51.3917051 C134.195023,47.1107834 133.199631,42.9670046 132.102488,39.0429493 L132.102488,39.0429493 Z" fill="#EDB795"></path>
                            <path d="M122.011429,20.6451613 C126.840922,25.0691244 130.098433,32.1902304 132.047926,39.2980645 C132.047926,39.2980645 107.652719,56.6606452 81.1089401,54.6035023 L81.1089401,43.8458986 C81.1089401,43.8458986 52.5493088,46.8645161 41.1059908,43.5170507 C42.7531797,33.8300461 47.6003687,25.1310599 54.2952995,18.4346544 C62.7745622,9.98193548 74.5010138,4.99612903 87.3437788,4.99612903 C101.009401,4.99612903 113.449585,10.3225806 121.98341,20.6451613 L122.011429,20.6451613 L122.011429,20.6451613 Z" fill="#FBB735"></path>
                            <path d="M122.011429,20.6451613 L121.98341,20.6451613 C113.449585,10.3225806 101.100829,4.99612903 87.4337327,4.99612903 C83.6512442,4.99612903 79.9941014,5.62728111 76.4711521,6.4840553 C85.683318,8.73290323 93.8617512,13.2718894 100.031705,20.6451613 L100.059724,20.6451613 C104.889217,25.0691244 108.146728,32.1902304 110.096221,39.2980645 C110.096221,39.2980645 97.3316129,47.7109677 81.1104147,52.1717972 L81.1104147,54.6020276 C107.654194,56.6606452 132.049401,39.2965899 132.049401,39.2965899 C130.099908,32.1902304 126.840922,25.0691244 122.011429,20.6451613 L122.011429,20.6451613 Z" fill="#FF9933"></path>
                            <path d="M103.227281,131.008295 L103.227281,132.242581 C103.227281,136.76977 101.698065,140.887005 98.7340092,143.877604 C95.7434101,146.841659 91.7028571,148.707097 87.1741935,148.707097 C78.118341,148.707097 70.7848848,141.298433 70.7848848,132.242581 L70.7848848,131.008295 L70.7848848,121.266728 L70.958894,121.047005 C76.0626728,122.968479 81.6250691,124.01106 87.3880184,124.01106 C93.1509677,124.01106 98.3535484,122.968479 103.457327,121.047005 L103.225806,121.266728 L103.225806,131.008295 L103.227281,131.008295 Z" fill="#F4CCAD"></path>
                            <path d="M103.482396,121.047005 C98.3786175,122.968479 93.0300461,124.01106 87.2685714,124.01106 C81.5070968,124.01106 75.9815668,122.968479 70.877788,121.047005 L70.7863594,121.266728 L70.7863594,131.008295 L70.7863594,132.242581 C70.7863594,133.118525 70.9677419,133.97235 71.1019355,134.812903 C76.1673733,136.700461 81.6796313,137.731244 87.3909677,137.731244 C93.1008295,137.731244 98.2532719,136.701935 103.31871,134.814378 C103.452903,133.973825 103.23023,133.12 103.23023,132.244055 L103.23023,131.00977 L103.23023,121.268203 L103.482396,121.047005 L103.482396,121.047005 Z" fill="#EDB795"></path>
                            <path d="M41.2917972,78.8335484 C41.2917972,94.3926267 48.7756682,108.251429 60.5758525,116.730691 C54.4560369,121.120737 35.6969585,128.420276 21.0152995,119.364424 C14.0180645,115.055484 8.14304147,107.043687 4.74101382,93.239447 C4.74101382,93.239447 41.2917972,94.1448848 41.2917972,56.4129032 L41.2917972,78.8335484 L41.2917972,78.8335484 Z" fill="#FBB735"></path>
                            <path d="M50.7900461,107.593733 C42.355023,110.425069 30.7406452,111.719816 20.8899539,105.64424 C16.5603687,102.979539 12.5935484,98.884424 9.38764977,92.8884793 C6.38820276,93.2836866 4.42396313,93.2409217 4.42396313,93.2409217 C7.82599078,107.043687 13.8912442,115.056959 20.8884793,119.365899 C35.5701382,128.421751 54.2023963,121.122212 60.322212,116.732166 C56.7329032,114.151521 53.5240553,111.066544 50.7900461,107.593733 L50.7900461,107.593733 Z" fill="#FF9933"></path>
                            <path d="M36.8943779,128.087005 C30.7907834,128.087005 24.4202765,126.740645 18.5658986,123.130691 C9.70470046,117.675945 3.49935484,107.974194 0.128294931,94.2982488 C-0.200552995,92.9681106 0.10764977,91.5598157 0.961474654,90.4847926 C1.81529954,89.4112442 3.09087558,88.8272811 4.49032258,88.8154839 C4.57880184,88.8036866 17.9303226,88.8420276 26.9109677,79.9380645 C32.5397235,74.3579724 35.3946544,66.3152074 35.3946544,56.0353917 C35.3946544,53.5918894 37.3751152,51.6114286 39.8186175,51.6114286 C42.2621198,51.6114286 44.2425806,53.5918894 44.2425806,56.0353917 C44.2425806,68.8088479 40.4807373,78.9883871 33.0632258,86.2967742 C25.5675576,93.6818433 16.1282949,96.2728111 10.1603687,97.1782488 C13.0654378,105.862488 17.4407373,112.045714 23.2081106,115.595207 C35.6423963,123.266359 51.9152074,117.168664 57.4304147,113.210691 C59.4152995,111.78765 62.1802765,112.243318 63.6047926,114.225253 C65.0293088,116.210138 64.5751152,118.975115 62.5902304,120.399631 C57.9008295,123.766267 47.8289401,128.087005 36.8943779,128.087005 L36.8943779,128.087005 Z" fill="#234957"></path>
                            <path d="M87.3821198,129.998157 C81.1104147,129.998157 74.9979724,128.906912 69.2129032,126.752442 C64.7358525,125.041843 60.7115207,122.910968 57.2165899,120.401106 C43.5568664,110.683134 35.3931797,95.1461751 35.3931797,78.8527189 L35.3931797,51.3725346 C35.3931797,48.3258986 35.8576959,45.5564977 36.3752995,42.7531797 C38.1198157,32.5869124 43.1749309,23.0975115 50.9847005,15.3658986 C60.6908756,5.78801843 73.6339171,0.516129032 87.4352074,0.516129032 C102.674286,0.516129032 116.165899,6.52829493 125.482765,17.4584332 C130.475945,22.0283871 134.556313,29.3574194 136.980645,38.1124424 C138.11318,42.1176037 138.620461,46.2141935 138.620461,51.3725346 L138.620461,78.8541935 C138.620461,92.5861751 133.311705,105.424516 123.670415,114.999447 C121.501198,117.146544 119.588571,118.899908 117.286636,120.498433 C113.741567,123.034839 109.773272,125.148018 105.543963,126.746544 C99.7397235,128.906912 93.6346544,129.998157 87.3821198,129.998157 L87.3821198,129.998157 Z M87.4352074,9.3640553 C75.9756682,9.3640553 65.2387097,13.7305069 57.2047926,21.6582488 C50.7192627,28.0803687 46.5253456,35.9137327 45.0846083,44.3045161 C44.6348387,46.7421198 44.241106,49.0720737 44.241106,51.3710599 L44.241106,78.8527189 C44.241106,92.2882949 51.0141935,105.129585 62.3601843,113.201843 C65.2519816,115.276682 68.603871,117.046267 72.3347465,118.472258 C77.0934562,120.244793 82.1662673,121.148756 87.3806452,121.148756 C92.5758525,121.148756 97.6412903,120.244793 102.435392,118.458986 C105.927373,117.139171 109.215853,115.388756 112.188756,113.262304 C114.0247,111.988203 115.552442,110.582857 117.44,108.71447 C125.389862,100.819171 129.77106,90.2105069 129.77106,78.8527189 L129.77106,51.3725346 C129.77106,47.0635945 129.367005,43.7087558 128.458618,40.4954839 C126.523871,33.5085714 123.335668,27.5819355 119.677051,24.1430415 C119.424885,23.9513364 119.193364,23.7301382 118.988387,23.483871 C111.374747,14.3778802 100.168848,9.3640553 87.4352074,9.3640553 L87.4352074,9.3640553 Z" fill="#234957"></path>
                            <path d="M87.6003687,107.955023 C80.7491244,107.955023 74.2975115,105.619171 69.4341014,101.37659 C67.5922581,99.7706912 67.4020276,96.9762212 69.0079263,95.1358525 C70.6138249,93.2925346 73.4068203,93.1023041 75.2501382,94.7096774 C78.5017512,97.5454378 82.8873733,99.1070968 87.6003687,99.1070968 C92.1688479,99.1070968 96.4630415,97.6206452 99.6910599,94.9235023 C101.56682,93.3559447 104.355392,93.6051613 105.922949,95.4809217 C107.489032,97.3552074 107.239816,100.145253 105.36553,101.712811 C100.547834,105.738618 94.237788,107.955023 87.6003687,107.955023 L87.6003687,107.955023 Z" fill="#234957"></path>
                            <path d="M88.4807373,85.5299539 L87.0060829,85.5299539 C84.5625806,85.5299539 82.5821198,83.5494931 82.5821198,81.1059908 C82.5821198,78.6624885 84.5625806,76.6820276 87.0060829,76.6820276 L88.4807373,76.6820276 C90.9242396,76.6820276 92.9047005,78.6624885 92.9047005,81.1059908 C92.9047005,83.5494931 90.9242396,85.5299539 88.4807373,85.5299539 L88.4807373,85.5299539 Z" fill="#234957"></path>
                            <path d="M46.1773272,144.243318 C44.5861751,144.243318 43.0481106,143.38212 42.2576959,141.876498 C41.1207373,139.71318 41.9539171,137.038157 44.117235,135.901198 C52.7218433,131.382857 61.4857143,128.271336 70.1625806,126.658065 C72.5618433,126.20682 74.8741014,127.795023 75.3209217,130.197235 C75.7677419,132.599447 74.1824885,134.908756 71.7802765,135.355576 C63.9749309,136.806636 56.0516129,139.626175 48.2315207,143.734562 C47.5752995,144.079631 46.8704147,144.243318 46.1773272,144.243318 L46.1773272,144.243318 Z" fill="#234957"></path>
                            <path d="M162.213456,215.299539 C159.769954,215.299539 157.789493,213.319078 157.789493,210.875576 L157.789493,209.079447 C157.789493,194.166267 155.919631,182.03576 152.073733,171.997788 C144.482212,151.938065 128.920184,140.369401 103.093088,135.569401 C100.690876,135.122581 99.1056221,132.814747 99.5509677,130.412535 C99.997788,128.010323 102.307097,126.419171 104.709309,126.871889 C133.478341,132.216037 151.677051,145.949493 160.343594,168.850876 C164.577327,179.900461 166.640369,193.066175 166.640369,209.080922 L166.640369,210.875576 C166.637419,213.319078 164.658433,215.299539 162.213456,215.299539 L162.213456,215.299539 Z" fill="#234957"></path>
                            <polygon fill="#FFFFFF" points="68.1850691 120.430599 57.2151152 127.33788 54.1080184 148.244055 64.802212 143.134378 73.719447 142.840922 71.3393548 125.789493"></polygon>
                            <polygon fill="#FFFFFF" points="106.831336 120.430599 117.80129 127.33788 120.908387 148.244055 110.214194 143.134378 101.296959 142.840922 103.678525 125.789493"></polygon>
                            <path d="M87.3423041,153.132535 C75.7736406,153.132535 66.3609217,143.762581 66.3609217,132.242581 L66.3609217,123.870968 C66.3609217,121.427465 68.3413825,119.447005 70.7848848,119.447005 C73.2283871,119.447005 75.2088479,121.427465 75.2088479,123.870968 L75.2088479,132.242581 C75.2088479,138.882949 80.6517972,144.284608 87.3423041,144.284608 C90.4272811,144.284608 93.196682,143.090138 95.5738249,140.73659 C97.6457143,138.644055 98.803318,135.618065 98.803318,132.242581 L98.803318,123.870968 C98.803318,121.427465 100.783779,119.447005 103.227281,119.447005 C105.670783,119.447005 107.651244,121.427465 107.651244,123.870968 L107.651244,132.242581 C107.651244,137.965714 105.583779,143.203687 101.829309,146.992074 C97.7666359,151.019355 92.7675576,153.132535 87.3423041,153.132535 L87.3423041,153.132535 Z" fill="#234957"></path>
                            <path d="M85.5933641,59.1985253 C83.9963134,59.1985253 82.3874654,59.1395392 80.7668203,59.0141935 C78.4634101,58.8357604 76.684977,56.9142857 76.684977,54.6035023 L76.684977,49.0057143 C67.9137327,50.2193548 50.64553,51.9491244 40.5470968,48.601659 C38.4589862,48.2462673 36.8693088,46.4294931 36.8693088,44.2396313 C36.8693088,41.796129 38.8497696,39.8156682 41.2932719,39.8156682 L41.4717051,39.8156682 C41.9848848,39.8156682 42.4936406,39.9056221 42.9773272,40.0796313 C52.0847926,43.3754839 73.0396313,40.7712442 80.3450691,39.4897696 C81.6353917,39.2626728 82.9552074,39.6180645 83.955023,40.4586175 C84.9563134,41.2991705 85.5343779,42.5393548 85.5343779,43.8458986 L85.5343779,50.3505991 L85.5682949,50.3505991 C108.623041,50.3505991 129.195945,35.9520737 129.414194,35.797235 C131.406452,34.3845161 134.168479,34.8519816 135.582673,36.8457143 C136.995392,38.8379724 136.527926,41.6 134.534194,43.0141935 C133.546175,43.7131797 111.40424,59.1985253 85.5933641,59.1985253 L85.5933641,59.1985253 Z" fill="#234957"></path>
                            <path d="M102.003318,76.8648848 C101.344147,76.8648848 100.674654,76.7159447 100.043502,76.4047926 C97.8536406,75.3209217 96.9570507,72.6665438 98.0423963,70.476682 C100.192442,66.1323502 104.541198,63.4322581 109.388387,63.4322581 C114.126452,63.4322581 118.426544,66.0379724 120.611982,70.2304147 C121.741567,72.396682 120.899539,75.0687558 118.731797,76.198341 C116.567005,77.324977 113.891982,76.484424 112.765346,74.3181567 C112.110599,73.0617512 110.817327,72.2801843 109.388387,72.2801843 C107.928479,72.2801843 106.618986,73.0927189 105.971613,74.402212 C105.198894,75.9623963 103.632811,76.8648848 102.003318,76.8648848 L102.003318,76.8648848 Z" fill="#234957"></path>
                            <path d="M121.411244,154.846083 C120.560369,154.846083 119.710968,154.60129 118.970691,154.111705 L108.283871,147.045161 L99.0274654,149.201106 C96.6503226,149.749677 94.2702304,148.275023 93.7142857,145.89788 C93.1598157,143.517788 94.6374194,141.139171 97.0175115,140.583226 L108.13788,137.995207 C109.320553,137.720922 110.565161,137.945069 111.578249,138.616037 L115.576037,141.260092 L113.850691,129.64424 L106.716313,123.643871 C104.846452,122.071889 104.606083,119.280369 106.178065,117.410507 C107.750046,115.539171 110.541567,115.300276 112.411429,116.872258 L120.828756,123.952074 C121.654562,124.648111 122.19871,125.619908 122.356498,126.686083 L125.788018,149.770323 C126.044608,151.498618 125.261567,153.215115 123.788387,154.152995 C123.062857,154.616037 122.237051,154.846083 121.411244,154.846083 L121.411244,154.846083 Z" fill="#234957"></path>
                            <path d="M53.7850691,154.846083 C52.9592627,154.846083 52.1334562,154.616037 51.4094009,154.152995 C49.9362212,153.215115 49.1531797,151.498618 49.4097696,149.770323 L52.8398157,126.686083 C52.9976037,125.618433 53.5417512,124.646636 54.3675576,123.952074 L62.7848848,116.872258 C64.6562212,115.301751 67.4462673,115.540645 69.0182488,117.410507 C70.5902304,119.280369 70.3498618,122.070415 68.48,123.643871 L61.3456221,129.64424 L59.6202765,141.260092 L63.6180645,138.616037 C64.6326267,137.945069 65.877235,137.723871 67.0584332,137.995207 L78.1788018,140.583226 C80.558894,141.139171 82.0379724,143.516313 81.4820276,145.89788 C80.9275576,148.275023 78.5474654,149.749677 76.1688479,149.201106 L66.9124424,147.045161 L56.2256221,154.111705 C55.4853456,154.60129 54.63447,154.846083 53.7850691,154.846083 L53.7850691,154.846083 Z" fill="#234957"></path>
                            <path d="M69.4960369,78.9751152 C65.762212,78.9751152 62.724424,75.9358525 62.724424,72.2020276 C62.724424,68.4682028 65.762212,65.4289401 69.4960369,65.4289401 C73.2298618,65.4289401 76.2691244,68.4682028 76.2691244,72.2020276 C76.2691244,75.9358525 73.2298618,78.9751152 69.4960369,78.9751152 L69.4960369,78.9751152 Z" fill="#234957"></path>
                        </g>
                        <g transform="translate(79.631336, 44.239631)">
                            <polygon id="Shape" fill="#FFFFFF" points="64.2197235 184.334747 56.5146544 192.70341 52.3015668 221.192258 66.8047926 214.230415 78.8969585 213.829309 75.6689401 190.594654"></polygon>
                            <polygon id="Shape" fill="#FFFFFF" points="133.024147 184.334747 140.729217 192.70341 144.943779 221.192258 130.440553 214.230415 118.346912 213.829309 121.576406 190.594654"></polygon>
                            <g transform="translate(13.271889, 91.428571)">
                                <ellipse id="Oval" fill="#F4CEAE" cx="20.4932719" cy="19.1764055" rx="14.677235" ry="14.7480184"></ellipse>
                                <path d="M20.4932719,38.3483871 C9.96129032,38.3483871 1.39207373,29.7482028 1.39207373,19.1778802 C1.39207373,8.60608295 9.96129032,0.00589861751 20.4932719,0.00589861751 C31.0252535,0.00589861751 39.59447,8.60608295 39.59447,19.1778802 C39.59447,29.7482028 31.0252535,38.3483871 20.4932719,38.3483871 L20.4932719,38.3483871 Z M20.4932719,8.85235023 C14.8409217,8.85235023 10.24,13.4842396 10.24,19.1764055 C10.24,24.8685714 14.839447,29.4989862 20.4932719,29.4989862 C26.1470968,29.4989862 30.7465438,24.8670968 30.7465438,19.1764055 C30.7465438,13.4842396 26.1470968,8.85235023 20.4932719,8.85235023 L20.4932719,8.85235023 Z" id="Shape" fill="#234957"></path>
                            </g>
                            <g transform="translate(143.041475, 91.428571)">
                                <ellipse id="Oval" fill="#EEB490" cx="19.8812903" cy="19.1764055" rx="14.677235" ry="14.7480184"></ellipse>
                                <path d="M19.8812903,38.3483871 C9.3478341,38.3483871 0.780092166,29.7482028 0.780092166,19.1778802 C0.780092166,8.60608295 9.34930876,0.00589861751 19.8812903,0.00589861751 C30.4132719,0.00589861751 38.9810138,8.60608295 38.9810138,19.1778802 C38.9810138,29.7482028 30.4117972,38.3483871 19.8812903,38.3483871 L19.8812903,38.3483871 Z M19.8812903,8.85235023 C14.2274654,8.85235023 9.62801843,13.4842396 9.62801843,19.1764055 C9.62801843,24.8685714 14.2274654,29.4989862 19.8812903,29.4989862 C25.5336406,29.4989862 30.1330876,24.8670968 30.1330876,19.1764055 C30.1330876,13.4842396 25.5336406,8.85235023 19.8812903,8.85235023 L19.8812903,8.85235023 Z" id="Shape" fill="#234957"></path>
                            </g>
                            <path d="M120.923134,197.581567 L120.923134,199.27447 C120.923134,211.775115 110.680184,221.995945 98.24,221.995945 C92.0199078,221.995945 86.1581567,219.4153 82.0556682,215.327558 C77.9870968,211.205899 75.2103226,205.52553 75.2103226,199.27447 L75.2103226,197.581567 L75.2103226,187.494931 L75.5008295,187.176406 C82.521659,189.841106 90.1795392,187.913733 98.0836866,187.913733 C106.00553,187.913733 113.689954,189.841106 120.694562,187.176406 L120.926083,187.494931 L120.926083,197.581567 L120.923134,197.581567 Z" id="Shape" fill="#EEB490"></path>
                            <path d="M120.610507,187.194101 C119.284793,198.445714 109.709862,207.247926 98.1692166,207.247926 C91.9491244,207.247926 86.2952995,204.667281 82.1928111,200.579539 C78.7126267,197.053641 76.3443318,192.38341 75.7279263,187.195576 C75.7087558,187.188203 75.5170507,187.183779 75.4978802,187.176406 L75.2073733,187.494931 L75.2073733,197.581567 L75.2073733,199.27447 C75.2073733,205.524055 77.9487558,211.204424 82.0188018,215.327558 C86.1212903,219.416774 91.9314286,221.995945 98.1515207,221.995945 C110.591705,221.995945 120.921659,211.775115 120.921659,199.27447 L120.921659,197.581567 L120.921659,187.494931 L120.734378,187.176406 C120.718157,187.183779 120.629677,187.188203 120.610507,187.194101 L120.610507,187.194101 Z" id="Shape" fill="#F4CEAE"></path>
                            <path d="M162.213456,73.2460829 L162.213456,129.85659 C162.213456,157.307281 144.889217,180.895853 120.659171,190.134562 C113.650138,192.784516 106.080737,194.223779 98.1677419,194.223779 C90.2547465,194.223779 82.6823963,192.784516 75.6733641,190.134562 C67.0820276,186.840184 59.2235945,181.767373 52.8176959,175.330507 C41.2121659,163.630599 33.9185253,147.577512 33.9185253,129.858065 L33.9185253,80.3317972 C38.3424885,79.3909677 51.1041475,75.4211982 57.8492166,75.4211982 L162.213456,73.2460829 L162.213456,73.2460829 Z" id="Shape" fill="#F4CEAE"></path>
                            <path d="M35.3931797,73.7371429 L35.3931797,92.6672811 L139.458065,99.7485714 C139.458065,127.199263 122.207558,161.962765 97.9775115,171.2 C90.9684793,173.849954 83.4359447,175.289217 75.5229493,175.289217 C67.6099539,175.289217 60.0567742,173.849954 53.0477419,171.2 C51.0274654,170.425806 49.0720737,169.533641 47.1491244,168.567742 C48.9334562,170.936037 50.8254378,173.2247 52.9120737,175.327558 C59.3179724,181.764424 67.0835023,186.837235 75.6748387,190.131613 C82.683871,192.781567 90.2591705,194.220829 98.1721659,194.220829 C106.085161,194.220829 113.650138,192.781567 120.659171,190.131613 C144.889217,180.892903 162.213456,157.304332 162.213456,129.853641 L162.213456,73.2460829 L35.3931797,73.7371429 L35.3931797,73.7371429 Z" id="Shape" fill="#EEB490"></path>
                            <path d="M98.120553,169.594101 C89.3168664,169.594101 80.9939171,166.153733 74.6853456,159.908571 C72.9482028,158.190599 72.9334562,155.39023 74.6543779,153.653088 C76.3738249,151.915945 79.1741935,151.901198 80.9098618,153.62212 C85.5520737,158.217143 91.6630415,160.74765 98.120553,160.74765 C104.784516,160.74765 111.031152,158.082949 115.714654,153.246083 C117.411982,151.492719 120.2153,151.44553 121.970138,153.145806 C123.724977,154.846083 123.770691,157.646452 122.070415,159.40129 C115.705806,165.973825 107.201475,169.594101 98.120553,169.594101 L98.120553,169.594101 Z" id="Shape" fill="#234957"></path>
                            <path d="M100.277972,140.092166 L97.3286636,140.092166 C94.8851613,140.092166 92.9047005,138.111705 92.9047005,135.668203 C92.9047005,133.2247 94.8851613,131.24424 97.3286636,131.24424 L100.277972,131.24424 C102.721475,131.24424 104.701935,133.2247 104.701935,135.668203 C104.701935,138.111705 102.722949,140.092166 100.277972,140.092166 L100.277972,140.092166 Z" id="Shape" fill="#234957"></path>
                            <path d="M70.4575115,120.929032 C66.4007373,120.929032 63.0989862,117.621382 63.0989862,113.554286 C63.0989862,109.488664 66.4007373,106.181014 70.4575115,106.181014 C74.5157604,106.181014 77.8175115,109.488664 77.8175115,113.554286 C77.8175115,117.621382 74.5157604,120.929032 70.4575115,120.929032 L70.4575115,120.929032 Z" id="Shape" fill="#234957"></path>
                            <path d="M114.735484,120.930507 C114.197235,120.930507 113.651613,120.831705 113.119263,120.622304 C110.845346,119.730138 109.724608,117.16129 110.619724,114.887373 C112.665069,109.680369 117.776221,106.181014 123.338618,106.181014 C128.83318,106.181014 133.773272,109.470968 135.926267,114.561475 C136.878894,116.811797 135.825991,119.407189 133.575668,120.359816 C131.323871,121.315392 128.728479,120.261014 127.777327,118.009217 C127.010507,116.198341 125.26894,115.02894 123.337143,115.02894 C121.381751,115.02894 119.579724,116.273548 118.852719,118.122765 C118.169954,119.864332 116.500645,120.930507 114.735484,120.930507 L114.735484,120.930507 Z" id="Shape" fill="#234957"></path>
                            <path d="M162.213456,63.4130876 L162.213456,80.3288479 C162.213456,69.563871 144.721106,70.8615668 144.721106,70.8615668 L33.5985253,76.6864516 C18.2031336,76.6864516 5.90009217,64.1371429 5.90009217,48.6665438 L5.90009217,32.443871 L5.90009217,30.9692166 C5.90009217,16.3111521 17.7091244,4.42396313 32.2978802,4.42396313 L33.9185253,4.42396313 L33.9185253,30.9692166 C33.9185253,21.1922581 41.2917972,16.2211982 51.6143779,16.2211982 L51.6143779,30.9692166 L136.268387,36.8678341 C150.857143,36.8678341 162.213456,48.755023 162.213456,63.4130876 L162.213456,63.4130876 Z" id="Shape" fill="#608287"></path>
                            <g opacity="0.2" transform="translate(47.188940, 26.543779)" id="Shape" fill="#D8E5EA">
                                <path d="M14.7480184,22.122765 L14.7480184,5.90009217 L14.7480184,4.42543779 L14.7480184,2.94930876 L12.9946544,2.94930876 C8.17695853,2.94930876 2.95078341,-0.156313364 0.00147465438,2.10728111 L0.00147465438,0.00147465438 L0.00147465438,1.47612903 L0.00147465438,22.122765 C0.00147465438,34.96553 8.51170507,45.7688479 20.2440553,49.0779724 L9.36110599,49.6442396 C11.0333641,49.958341 12.7262673,50.1426728 14.4884793,50.1426728 L34.9684793,49.0779724 C23.2376037,45.7688479 14.7480184,34.96553 14.7480184,22.122765 L14.7480184,22.122765 Z"></path>
                            </g>
                            <path d="M136.150415,36.8678341 L120.4247,35.7426728 C133.176037,39.3629493 143.044424,51.11447 143.044424,65.083871 L143.044424,71.001659 L145.055853,70.8600922 C145.055853,70.8600922 162.214931,69.5623963 162.214931,80.3273733 L162.214931,63.4130876 C162.213456,48.755023 150.739171,36.8678341 136.150415,36.8678341 L136.150415,36.8678341 Z" id="Shape" fill="#4E676D"></path>
                            <g opacity="0.4" transform="translate(1.474654, 4.423963)" id="Shape" fill="#D8E5EA">
                                <path d="M28.0199078,44.2425806 L28.0199078,28.0199078 L28.0199078,26.5452535 L28.0199078,0 L26.4199078,0 C11.8311521,0 0.00147465438,11.8857143 0.00147465438,26.5452535 L0.00147465438,28.0199078 L0.00147465438,44.2425806 C0.00147465438,59.7131797 12.4917972,72.2624885 27.8871889,72.2624885 L48.3037788,71.197788 C36.5729032,67.8886636 28.0199078,57.0853456 28.0199078,44.2425806 L28.0199078,44.2425806 Z"></path>
                            </g>
                            <path d="M98.1677419,199.090138 C89.8728111,199.090138 81.7518894,197.625806 74.0305991,194.738433 C64.8774194,191.264147 56.6798157,185.96129 49.642765,178.971429 C36.6495853,166.047558 29.4945622,148.84424 29.4945622,130.529032 L29.4945622,76.6820276 C29.4945622,74.2385253 31.475023,72.2580645 33.9185253,72.2580645 C36.3620276,72.2580645 38.3424885,74.2385253 38.3424885,76.6820276 L38.3424885,130.529032 C38.3424885,146.472995 44.5714286,161.446636 55.880553,172.696774 C62.0283871,178.804793 69.1848848,183.435207 77.1494931,186.459724 C83.8547465,188.966636 90.9330876,190.242212 98.1662673,190.242212 C105.442212,190.242212 112.293456,189.002028 119.115207,186.45235 C142.242212,177.723871 157.789493,155.248664 157.789493,130.529032 L157.789493,63.4101382 C157.789493,60.9666359 159.769954,58.9861751 162.213456,58.9861751 C164.656959,58.9861751 166.637419,60.9666359 166.637419,63.4101382 L166.637419,130.529032 C166.637419,158.907281 148.789677,184.709309 122.228203,194.734009 C114.493641,197.625806 106.403687,199.090138 98.1677419,199.090138 L98.1677419,199.090138 Z" id="Shape" fill="#234957"></path>
                            <path d="M162.213456,85.5299539 C159.769954,85.5299539 157.789493,83.5494931 157.789493,81.1059908 C157.789493,79.9439631 157.442949,79.0901382 156.665806,78.3365899 C154.094009,75.844424 147.822304,75.2014747 145.207742,75.2825806 L33.9952074,81.1045161 C33.9185253,81.1074654 33.8418433,81.1104147 33.7636866,81.1104147 C15.9469124,81.1104147 1.45400922,66.555576 1.45400922,48.6665438 C1.45400922,46.2230415 3.43447005,44.2425806 5.87797235,44.2425806 C8.32147465,44.2425806 10.3019355,46.2230415 10.3019355,48.6665438 C10.3019355,61.640553 20.7675576,72.2020276 33.6530876,72.2624885 L144.842028,66.4435023 C146.141198,66.4051613 156.909124,66.2458986 162.825438,71.9867281 C165.317604,74.4051613 166.635945,77.559447 166.635945,81.1074654 C166.637419,83.5494931 164.658433,85.5299539 162.213456,85.5299539 L162.213456,85.5299539 Z" id="Shape" fill="#234957"></path>
                            <path d="M162.213456,67.8341014 C159.769954,67.8341014 157.789493,65.8536406 157.789493,63.4101382 C157.789493,51.0082949 148.43871,41.2917972 136.502857,41.2917972 C134.059355,41.2917972 132.078894,39.3113364 132.078894,36.8678341 C132.078894,34.4243318 134.059355,32.443871 136.502857,32.443871 C153.400922,32.443871 166.637419,46.0460829 166.637419,63.4101382 C166.637419,65.8536406 164.658433,67.8341014 162.213456,67.8341014 L162.213456,67.8341014 Z" id="Shape" fill="#234957"></path>
                            <path d="M5.90009217,53.0875576 C3.45658986,53.0875576 1.47612903,51.1070968 1.47612903,48.6635945 L1.47612903,32.4423963 C1.47612903,29.998894 3.45658986,28.0184332 5.90009217,28.0184332 C8.34359447,28.0184332 10.3240553,29.998894 10.3240553,32.4423963 L10.3240553,48.6635945 C10.3240553,51.1070968 8.34359447,53.0875576 5.90009217,53.0875576 L5.90009217,53.0875576 Z" id="Shape" fill="#234957"></path>
                            <path d="M136.508756,41.2917972 C136.407005,41.2917972 136.302304,41.2888479 136.199078,41.2814747 L51.0717051,35.3828571 C48.6341014,35.2147465 46.7952074,33.1015668 46.9647926,30.6639631 C47.1329032,28.2263594 49.2387097,26.3904147 51.6836866,26.5570507 L136.809585,32.4556682 C139.247189,32.6237788 141.086083,34.7369585 140.917972,37.1745622 C140.75576,39.5074654 138.812166,41.2917972 136.508756,41.2917972 L136.508756,41.2917972 Z" id="Shape" fill="#234957"></path>
                            <path d="M33.7651613,35.3931797 C31.321659,35.3931797 29.3411982,33.4127189 29.3411982,30.9692166 C29.3411982,19.5023041 38.1964977,11.7987097 51.3769585,11.7987097 C53.8204608,11.7987097 55.8009217,13.7791705 55.8009217,16.2226728 C55.8009217,18.6661751 53.8204608,20.6466359 51.3769585,20.6466359 C48.2831336,20.6466359 38.1891244,21.3913364 38.1891244,30.9692166 C38.1891244,33.4127189 36.2086636,35.3931797 33.7651613,35.3931797 L33.7651613,35.3931797 Z" id="Shape" fill="#234957"></path>
                            <path d="M51.6143779,35.3917051 C49.1708756,35.3917051 47.1904147,33.4112442 47.1904147,30.9677419 L47.1904147,16.2211982 C47.1904147,13.7776959 49.1708756,11.797235 51.6143779,11.797235 C54.0578802,11.797235 56.038341,13.7776959 56.038341,16.2211982 L56.038341,30.9677419 C56.038341,33.4112442 54.0578802,35.3917051 51.6143779,35.3917051 L51.6143779,35.3917051 Z" id="Shape" fill="#234957"></path>
                            <path d="M5.879447,35.3931797 C3.4359447,35.3931797 1.45548387,33.4127189 1.45548387,30.9692166 C1.45548387,13.8927189 15.2921659,3.55271368e-15 32.2978802,3.55271368e-15 C34.7413825,3.55271368e-15 36.7218433,1.98046083 36.7218433,4.42396313 C36.7218433,6.86746544 34.7413825,8.84792627 32.2978802,8.84792627 C20.1703226,8.84792627 10.3034101,18.7708756 10.3034101,30.9692166 C10.3034101,33.4127189 8.32294931,35.3931797 5.879447,35.3931797 L5.879447,35.3931797 Z" id="Shape" fill="#234957"></path>
                            <path d="M33.9185253,35.3917051 C31.475023,35.3917051 29.4945622,33.4112442 29.4945622,30.9677419 L29.4945622,4.42396313 C29.4945622,1.98046083 31.475023,0 33.9185253,0 C36.3620276,0 38.3424885,1.98046083 38.3424885,4.42396313 L38.3424885,30.9677419 C38.3424885,33.4112442 36.3620276,35.3917051 33.9185253,35.3917051 L33.9185253,35.3917051 Z" id="Shape" fill="#234957"></path>
                            <path d="M109.125899,219.573088 C110.600553,218.688295 112.011797,217.626544 113.231336,216.417327 L113.464332,216.623779 L121.835945,214.677235 L122.301935,216.623779 L118.12424,241.207742 C111.225806,241.797604 107.148387,237.432627 107.148387,237.432627 L110.001843,219.7353 C110.001843,219.7353 109.127373,219.676313 109.127373,219.587834 L109.127373,219.573088 L109.125899,219.573088 Z" id="Shape" fill="#D8E5EA"></path>
                            <path d="M89.5380645,237.432627 C94.4840553,254.938249 108.544885,260.586175 126.905806,257.725346 L126.920553,257.799078 C123.353364,258.565899 119.74341,259.214747 116.07447,259.716129 C109.836682,260.586175 103.452903,261.013825 96.9658986,261.013825 C92.7690323,261.013825 88.6001843,260.836866 84.475576,260.453456 C83.3459908,260.35023 82.2001843,260.247005 81.0853456,260.114286 L74.4508756,214.48553 L83.5804608,216.623779 C84.1821198,217.213641 84.8132719,217.744516 85.4886636,218.260645 L86.6035023,219.7353 L89.5380645,237.432627 L89.5380645,237.432627 Z" id="Shape" fill="#D8E5EA"></path>
                            <path d="M128.578065,213.099355 L142.109493,222.094747 C139.96682,224.940829 137.984885,227.521475 136.135668,229.689217 C129.061751,238.006267 122.912442,240.808111 118.127189,241.206267 L122.310783,216.622304 L121.855115,214.67576 L128.578065,213.099355 L128.578065,213.099355 Z" id="Shape" fill="#4E676D"></path>
                            <path d="M74.4494009,214.48553 L81.083871,260.114286 C70.9426728,258.978802 61.1229493,256.752074 51.758894,253.507834 C37.84553,248.803687 24.9290323,241.931797 13.3500461,233.303594 C12.5729032,232.713733 11.8090323,232.138618 11.0304147,231.534009 C23.4322581,219.250138 38.3734562,209.545438 54.9441475,203.322396 L51.8621198,224.160737 L68.5050691,213.100829 L74.4494009,214.48553 L74.4494009,214.48553 Z" id="Shape" fill="#4E676D"></path>
                            <path d="M25.7076498,241.296221 C33.6162212,233.462857 42.564424,226.692719 52.3015668,221.192258 L54.9441475,203.322396 C38.3734562,209.545438 23.4322581,219.250138 11.0304147,231.534009 C11.8075576,232.138618 12.5714286,232.713733 13.3500461,233.303594 C17.7253456,236.564055 22.2938249,239.570876 27.0333641,242.307834 C26.5924424,241.973088 26.1529954,241.642765 25.7076498,241.296221 L25.7076498,241.296221 Z" id="Shape" fill="#608287"></path>
                            <path d="M69.1922581,213.260092 L68.5065438,213.100829 L66.8047926,214.231889 C67.601106,213.90894 68.3870968,213.565346 69.1922581,213.260092 L69.1922581,213.260092 Z" id="Shape" fill="#608287"></path>
                            <path d="M110.085899,219.729401 L107.149862,237.419355 L89.5380645,237.419355 L86.6020276,219.729401 C86.6020276,219.729401 93.2659908,218.257696 98.3432258,218.257696 C102.056406,218.257696 107.310599,219.2 109.292535,219.58341 C109.792442,219.671889 110.085899,219.729401 110.085899,219.729401 L110.085899,219.729401 Z" id="Shape" fill="#1C7CD3"></path>
                            <path d="M234.471521,218.629309 C230.802581,238.907281 214.658065,246.649217 214.658065,246.649217 C215.348203,225.987834 204.105438,216.284608 202.62341,215.104885 C203.915207,214.279078 205.323502,213.497512 206.952995,212.730691 C219.707281,206.758341 234.471521,218.629309 234.471521,218.629309 L234.471521,218.629309 Z" id="Shape" fill="#1C7CD3"></path>
                            <path d="M202.62341,215.104885 C193.96424,220.620092 191.278894,227.727926 170.495115,240.160737 C154.952258,249.465806 139.865069,255.697696 126.904332,257.717972 C108.54341,260.578802 94.4825806,255.115207 89.5365899,237.419355 L107.148387,237.419355 C107.148387,237.419355 111.228756,241.791705 118.127189,241.201843 C122.912442,240.803687 129.061751,238.004793 136.135668,229.687742 C137.984885,227.52 139.96682,224.940829 142.109493,222.094747 C142.858618,221.077235 143.650507,220.015484 144.442396,218.92424 C146.952258,215.517788 149.622857,211.845899 152.426175,208.100276 C164.608295,191.89235 179.505253,174.461935 195.576037,172.544885 C222.361659,169.344885 225.781382,176.231521 225.781382,185.818249 C225.781382,200.138618 234.470046,218.630783 234.470046,218.630783 C234.470046,218.630783 219.705806,206.759816 206.951521,212.732166 C205.323502,213.497512 203.915207,214.279078 202.62341,215.104885 L202.62341,215.104885 Z" id="Shape" fill="#1B9ED6"></path>
                            <path d="M212.578802,186.800369 C214.843871,196.956313 218.327005,206.217143 220.525714,211.789862 C230.752442,211.875392 234.471521,218.629309 234.471521,218.629309 C234.471521,218.629309 225.782857,200.135668 225.782857,185.816774 C225.782857,176.582488 226.276866,168.611982 203.282581,175.985253 C208.175484,177.337512 211.012719,179.77659 212.578802,186.800369 L212.578802,186.800369 Z" id="Shape" fill="#34BBEA"></path>
                            <path d="M96.964424,265.437788 C92.5419355,265.437788 88.2020276,265.243134 84.0656221,264.858249 L83.8193548,264.834654 C82.7295853,264.735853 81.6309677,264.634101 80.5574194,264.504332 C70.2127189,263.346728 60.0243318,261.052166 50.3122581,257.687005 C36.1835945,252.909124 22.8482949,245.895668 10.7074654,236.848664 L10.1957604,236.460829 C9.56903226,235.985991 8.94820276,235.514101 8.31705069,235.024516 C6.38820276,233.524793 6.03870968,230.746544 7.53843318,228.816221 C9.03815668,226.885899 11.8149309,226.539355 13.7452535,228.037604 C14.3483871,228.505069 14.9411982,228.954839 15.5384332,229.409032 L16.0250691,229.777696 C27.3887558,238.243687 39.8982488,244.825069 53.1760369,249.315392 C62.3011982,252.477051 71.8466359,254.627097 81.5749309,255.715392 C82.6012903,255.839263 83.6188018,255.930691 84.6245161,256.023594 L84.8781567,256.047189 C88.7476498,256.407005 92.8132719,256.588387 96.9629493,256.588387 C103.264147,256.588387 109.488664,256.166636 115.461014,255.331982 C118.837972,254.871889 122.346175,254.252535 125.901567,253.491613 C126.254009,253.403134 126.622673,253.357419 126.97659,253.357419 C129.420092,253.357419 131.400553,255.33788 131.400553,257.781382 C131.400553,259.879816 129.940645,261.636129 127.980829,262.091797 C127.93659,262.10212 127.890876,262.112442 127.846636,262.122765 L127.846636,262.12424 C124.043502,262.941198 120.283134,263.604793 116.67023,264.098802 C110.308571,264.986544 103.674101,265.437788 96.964424,265.437788 L96.964424,265.437788 Z" id="Shape" fill="#234957"></path>
                            <path d="M11.0304147,235.957972 C9.89198157,235.957972 8.75207373,235.52 7.88792627,234.647005 C6.16847926,232.909862 6.18175115,230.109493 7.91741935,228.390046 C20.8265438,215.604793 36.5507834,205.50341 53.3883871,199.180092 C55.6741014,198.324793 58.2252535,199.477972 59.084977,201.766636 C59.9447005,204.053825 58.7856221,206.603502 56.4984332,207.463226 C40.8184332,213.351521 26.1721659,222.76129 14.1434101,234.676498 C13.282212,235.531797 12.1570507,235.957972 11.0304147,235.957972 L11.0304147,235.957972 Z" id="Shape" fill="#234957"></path>
                            <path d="M118.134562,245.631705 C117.88682,245.631705 117.637604,245.61106 117.386912,245.568295 C114.977327,245.159816 113.358157,242.874101 113.768111,240.465991 L117.951705,215.882028 C118.360184,213.472442 120.663594,211.851797 123.054009,212.263226 C125.463594,212.671705 127.082765,214.957419 126.672811,217.36553 L122.489217,241.949493 C122.123502,244.106912 120.250691,245.631705 118.134562,245.631705 L118.134562,245.631705 Z" id="Shape" fill="#234957"></path>
                            <path d="M81.0779724,264.538249 C78.916129,264.538249 77.0256221,262.952995 76.7056221,260.751336 L70.0711521,215.124055 C69.7201843,212.705622 71.3939171,210.461198 73.8123502,210.11023 C76.2278341,209.74894 78.4752074,211.432995 78.8261751,213.851429 L85.4621198,259.47871 C85.8130876,261.897143 84.1378802,264.141567 81.7209217,264.492535 C81.5056221,264.523502 81.2903226,264.538249 81.0779724,264.538249 L81.0779724,264.538249 Z" id="Shape" fill="#234957"></path>
                            <path d="M152.426175,212.525714 C151.771429,212.525714 151.104885,212.378249 150.478157,212.070046 C147.208848,210.464147 143.884977,209.010138 140.597972,207.746359 C138.318157,206.86894 137.179724,204.310415 138.054194,202.029124 C138.933088,199.749309 141.485714,198.61235 143.771429,199.485346 C147.3047,200.843502 150.873364,202.405161 154.380092,204.127558 C156.571429,205.204055 157.476866,207.855484 156.398894,210.04977 C155.630599,211.617327 154.058618,212.525714 152.426175,212.525714 L152.426175,212.525714 Z" id="Shape" fill="#234957"></path>
                            <path d="M214.658065,251.074654 C213.813088,251.074654 212.969585,250.832811 212.238157,250.355023 C210.94341,249.510046 210.183963,248.050138 210.237051,246.503226 C210.859355,227.859171 200.995392,219.465438 199.87023,218.570323 C197.957604,217.049954 197.640553,214.265806 199.160922,212.35318 C200.68424,210.439078 203.466912,210.123502 205.378065,211.643871 C206.668387,212.67023 216.653272,221.124424 218.735484,238.413272 C223.000184,234.592442 228.283871,228.002212 230.12129,217.844793 C230.557788,215.441106 232.865622,213.849954 235.261935,214.279078 C237.667097,214.714101 239.262673,217.016037 238.82765,219.419724 C234.803318,241.664885 217.315392,250.285714 216.572166,250.641106 C215.964608,250.930138 215.309862,251.074654 214.658065,251.074654 L214.658065,251.074654 Z" id="Shape" fill="#234957"></path>
                            <path d="M51.8621198,228.5847 C51.0392627,228.5847 50.2149309,228.356129 49.4923502,227.896037 C48.0176959,226.958157 47.2302304,225.241659 47.4868203,223.513364 L52.1393548,192.057512 C52.283871,191.079816 52.7513364,190.180276 53.4665438,189.498986 L61.4650691,181.88977 C63.236129,180.207189 66.0379724,180.276498 67.7190783,182.046083 C69.4031336,183.815668 69.3338249,186.616037 67.5642396,188.300092 L60.6687558,194.85788 L57.6943779,214.972166 L66.0571429,209.414194 C67.0731797,208.738802 68.3236866,208.51318 69.5107834,208.78894 L84.5891244,212.316313 C86.9677419,212.873733 88.443871,215.253825 87.8864516,217.632442 C87.3290323,220.009585 84.9518894,221.48424 82.5703226,220.92977 L69.363318,217.838894 L54.3115207,227.841475 C53.5697696,228.338433 52.7159447,228.5847 51.8621198,228.5847 L51.8621198,228.5847 Z" id="Shape" fill="#234957"></path>
                            <path d="M118.310046,262.852719 C101.33235,262.852719 89.7533641,254.46341 85.282212,238.63447 C84.6171429,236.282396 85.9856221,233.838894 88.3362212,233.1753 C90.683871,232.511705 93.1317972,233.877235 93.7953917,236.229309 C97.7784332,250.327005 108.696774,256.079631 126.224516,253.352995 C138.276866,251.474286 152.799263,245.599263 168.222673,236.363502 C180.708571,228.895853 186.408111,223.442581 190.988387,219.061382 C193.998157,216.182857 196.599447,213.695115 200.244793,211.372535 C201.745991,210.414009 203.325346,209.546912 205.066912,208.727005 C212.33106,205.324977 219.900461,206.566636 225.869862,208.83023 C223.606267,202.102857 221.357419,193.49235 221.357419,185.8153 C221.357419,182.12129 220.776406,180.099539 219.353364,178.83576 C217.23576,176.957051 211.484608,175.098986 196.099539,176.936406 C181.852903,178.635207 167.814194,194.986175 155.962396,210.759078 C153.996682,213.383963 152.091429,215.979355 150.264332,218.471521 L148.003687,221.54765 C147.469862,222.282028 146.92129,223.026728 146.384516,223.750783 L145.669309,224.718157 C143.631336,227.427097 141.494562,230.221567 139.499355,232.560369 C132.636313,240.631152 125.56682,245.025622 118.492903,245.615484 C111.386544,246.230415 105.976037,242.657327 103.91447,240.451244 C102.246636,238.666912 102.342488,235.868018 104.128295,234.19871 C105.900829,232.544147 108.67318,232.626728 110.343963,234.372719 C110.531244,234.558525 113.251982,237.181935 117.748203,236.8 C122.350599,236.41659 127.539908,232.965899 132.764608,226.823963 C134.609401,224.660645 136.645899,221.99447 138.573272,219.43447 L139.269309,218.489217 C139.791336,217.782857 140.328111,217.058802 140.86341,216.321475 L143.129954,213.235023 C144.974747,210.722212 146.896221,208.103226 148.884055,205.447373 C161.865438,188.174747 177.496774,170.242949 195.05106,168.150415 C210.648479,166.282028 219.957972,167.539908 225.226912,172.218986 C229.639078,176.134194 230.205346,181.541751 230.205346,185.8153 C230.205346,198.99576 238.391152,216.572166 238.472258,216.749124 C239.349677,218.613088 238.821751,220.835392 237.204055,222.108018 C235.586359,223.379171 233.30212,223.368848 231.697696,222.077051 C231.578249,221.984147 218.888848,212.024332 208.827281,216.735853 C207.441106,217.389124 206.186175,218.076313 205.002028,218.832811 C202.083687,220.690876 199.884977,222.795207 197.102304,225.455484 C192.202028,230.14341 186.102857,235.977143 172.764608,243.956498 C156.3753,253.768848 140.751336,260.042028 127.584147,262.094747 C124.341382,262.602028 121.244608,262.852719 118.310046,262.852719 L118.310046,262.852719 Z" id="Shape" fill="#234957"></path>
                            <path d="M107.151336,241.843318 L89.5395392,241.843318 C87.3762212,241.843318 85.5284793,240.277235 85.1745622,238.14341 L82.2385253,220.453456 C81.8536406,218.133825 83.3518894,215.917419 85.6479263,215.408664 C85.9399078,215.345253 92.8471889,213.833733 98.3447005,213.833733 C102.256959,213.833733 107.409401,214.717051 110.133088,215.243502 L110.854194,215.371797 C113.243134,215.793548 114.846083,218.058618 114.449401,220.451982 L111.514839,238.14341 C111.160922,240.277235 109.314654,241.843318 107.151336,241.843318 L107.151336,241.843318 Z M93.2881106,232.995392 L103.399816,232.995392 L105.002765,223.330507 C102.879263,223.001659 100.304516,222.681659 98.3432258,222.681659 C96.2226728,222.681659 93.7305069,222.979539 91.6763134,223.29659 L93.2881106,232.995392 L93.2881106,232.995392 Z" id="Shape" fill="#234957"></path>
                            <path d="M144.439447,223.348203 C142.282028,223.348203 140.392995,221.768848 140.068571,219.570138 L136.415853,194.85788 L129.521843,188.300092 C127.750783,186.614562 127.681475,183.815668 129.36553,182.046083 C131.054009,180.275023 133.852903,180.208664 135.619539,181.88977 L143.618065,189.498986 C144.333272,190.180276 144.802212,191.079816 144.945253,192.056037 L148.820645,218.276866 C149.177512,220.6953 147.506728,222.942673 145.091244,223.299539 C144.872995,223.331982 144.653272,223.348203 144.439447,223.348203 L144.439447,223.348203 Z" id="Shape" fill="#234957"></path>
                            <path d="M142.106544,226.51871 C141.265991,226.51871 140.415115,226.279816 139.661567,225.778433 L127.72424,217.843318 L114.511336,220.932719 C112.12682,221.479816 109.752627,220.008111 109.196682,217.629493 C108.642212,215.249401 110.12129,212.869309 112.499908,212.314839 L127.566452,208.790415 C128.753548,208.51318 130.00553,208.737327 131.027465,209.414194 L144.560369,218.41106 C146.595392,219.763318 147.148387,222.509124 145.794654,224.544147 C144.942304,225.827097 143.536959,226.51871 142.106544,226.51871 L142.106544,226.51871 Z" id="Shape" fill="#234957"></path>
                            <path d="M88.3494931,214.44424 C88.0353917,214.205346 87.7139171,213.984147 87.3968664,213.770323 C87.1579724,213.609585 86.8630415,213.409032 86.7096774,213.260092 C86.6506912,213.20553 86.6152995,213.158341 86.5695853,213.106728 L86.237788,212.742488 C82.9301382,209.209217 81.1074654,204.460829 81.1074654,199.368848 L81.1074654,190.230415 L72.2595392,190.230415 L72.2595392,199.368848 C72.2595392,206.714101 74.9301382,213.612535 79.7832258,218.79447 L79.9498618,218.978802 C80.162212,219.217696 80.3524424,219.427097 80.5706912,219.632074 C81.241659,220.28977 81.9082028,220.741014 82.444977,221.102304 C82.6234101,221.223226 82.8047926,221.342673 82.9802765,221.476866 C83.7824885,222.088848 84.7262673,222.383779 85.6611982,222.383779 C86.9928111,222.383779 88.3096774,221.785069 89.1811982,220.643687 C90.6632258,218.703041 90.2916129,215.927742 88.3494931,214.44424 L88.3494931,214.44424 Z" id="Shape" fill="#234957"></path>
                            <path d="M116.499171,191.705069 L116.499171,199.368848 C116.499171,204.454931 114.312258,209.518894 110.481106,213.277788 C109.695115,214.056406 108.876682,214.553364 107.637972,215.308387 L107.413825,215.44553 C105.327189,216.716682 104.668018,219.438894 105.939171,221.52553 C106.77235,222.892535 108.229309,223.646083 109.720184,223.646083 C110.5047,223.646083 111.299539,223.436682 112.019171,223.000184 L112.238894,222.865991 C113.687005,221.984147 115.185253,221.072811 116.693825,219.577512 C122.192811,214.183226 125.347097,206.817327 125.347097,199.370323 L125.347097,191.705069 L116.499171,191.705069 L116.499171,191.705069 Z" id="Shape" fill="#234957"></path>
                        </g>
                        <path d="M181.383963,309.677419 C122.45235,309.677419 68.322212,277.494562 40.1179724,225.687005 C38.9500461,223.541382 39.7419355,220.854562 41.8875576,219.686636 C44.0331797,218.520184 46.7214747,219.312074 47.8879263,221.456221 C74.5437788,270.414747 125.695115,300.829493 181.383963,300.829493 C183.827465,300.829493 185.807926,302.809954 185.807926,305.253456 C185.807926,307.696959 183.82894,309.677419 181.383963,309.677419 L181.383963,309.677419 Z" id="Shape" fill="#234957"></path>
                    </g>
                </g>
            </g>
        </g>
    </g>
</svg>