<?xml version="1.0" encoding="UTF-8" standalone="no"?><svg width="400" height="400" viewBox="0 0 400 400" xmlns="http://www.w3.org/2000/svg"><title>company</title><g fill="none" fill-rule="evenodd"><path d="M362.16 157.685l-5.304-1.768v-35.134c0-1.763-1.193-3.407-2.93-3.7a3.545 3.545 0 0 0-4.141 3.484v32.993l-7.072-2.356v-18.046c0-1.762-1.194-3.407-2.932-3.7a3.545 3.545 0 0 0-4.14 3.485v15.902l-15.912-5.304c-3.426-1.216-7.072 3.183-7.072 7.072v37.127h-7.071V79.895c0-3.89-3.183-7.072-7.072-7.072h-1.768v-3.536c0-1.944-1.67-3-3.536-3.536l-28.287-7.071c-1.843-.296-3.536 1.59-3.536 3.535v10.608h-5.304c-3.89 0-7.072 3.183-7.072 7.072V187.74H89.895v-24.482c0-3.89-3.205-8.508-7.072-7.072l-24.751 6.803c-3.978 1.216-7.072 4.95-7.072 8.84v94.184c0 7.226 2.18 14.303 6.335 20.215 31.025 44.15 82.346 73.004 140.405 73.004 89.531 0 163.717-68.613 171.492-156.121v-38.355c0-3.889-3.152-5.878-7.072-7.07z" fill="#D8E5EA"/><path fill="#FFF" d="M158.845 261.994l-9.281 10.034-5.076 34.151 17.47-8.345 14.567-.48-3.89-27.855zM241.725 261.994l9.282 10.034 5.076 34.151-17.47-8.345-14.567-.48 3.89-27.855z"/><g transform="translate(98.735 150.613)"><ellipse fill="#F4CEAE" cx="23.425" cy="22.992" rx="17.68" ry="17.68"/><path d="M23.425 45.976C10.753 45.976.442 35.665.442 22.992.442 10.32 10.752.01 23.425.01S46.41 10.319 46.41 22.992s-10.31 22.984-22.984 22.984zm0-35.36c-6.824 0-12.375 5.554-12.375 12.376 0 6.823 5.551 12.376 12.375 12.376 6.825 0 12.376-5.553 12.376-12.376 0-6.822-5.551-12.375-12.376-12.375z" fill="#234957"/></g><g transform="translate(254.315 150.613)"><ellipse fill="#EEB490" cx="23.425" cy="22.992" rx="17.68" ry="17.68"/><path d="M23.425 45.976C10.753 45.976.442 35.665.442 22.992.442 10.32 10.752.01 23.425.01S46.41 10.319 46.41 22.992s-10.31 22.984-22.984 22.984zm0-35.36c-6.822 0-12.375 5.554-12.375 12.376 0 6.823 5.553 12.376 12.375 12.376 6.823 0 12.376-5.553 12.376-12.376 0-6.822-5.553-12.375-12.376-12.375z" fill="#234957"/></g><path d="M226.979 277.876v2.03c0 14.985-12.254 27.239-27.24 27.239-7.492 0-14.302-3.094-19.243-7.995-4.901-4.942-7.995-11.752-7.995-19.244v-14.123l.141-.382c8.457 3.195 17.577.884 27.1.884 9.541 0 18.66 2.311 27.099-.884l.141.382v12.093h-.003z" fill="#EEB490"/><path d="M226.774 265.423c-1.599 13.489-13.13 24.04-27.034 24.04-7.493 0-14.303-3.094-19.244-7.994-4.192-4.228-7.046-9.827-7.786-16.046-.023-.01-.046-.015-.068-.023l-.141.381v14.123c0 7.492 3.094 14.303 7.995 19.244 4.941 4.9 11.751 7.995 19.244 7.995 14.985 0 27.239-12.254 27.239-27.24v-14.122l-.142-.381a.918.918 0 0 1-.063.023z" fill="#F4CEAE"/><path d="M276.91 128.818v67.865c0 32.908-20.88 61.187-50.067 72.261-8.442 3.177-17.567 4.903-27.098 4.903-9.53 0-18.655-1.726-27.097-4.903a78.25 78.25 0 0 1-27.416-17.748c-13.981-14.025-22.65-33.271-22.65-54.515v-59.368c4.295-1.128 20.596-5.887 28.72-5.887l125.607-2.608z" fill="#F4CEAE"/><path d="M124.517 129.407v22.695l125.157 8.49c0 32.908-20.88 74.583-50.067 85.659-8.442 3.177-17.566 4.902-27.097 4.902-9.531 0-18.656-1.725-27.098-4.902a78.335 78.335 0 0 1-7.117-3.156c2.15 2.84 4.423 5.583 6.935 8.103a78.307 78.307 0 0 0 27.416 17.748c8.442 3.177 17.566 4.903 27.097 4.903 9.531 0 18.656-1.726 27.098-4.903 29.187-11.076 50.067-39.353 50.067-72.262v-67.866l-152.391.589z" fill="#EEB490"/><path d="M199.68 244.324c-10.592 0-20.61-4.121-28.204-11.603a5.304 5.304 0 0 1-.057-7.5 5.302 5.302 0 0 1 7.501-.055c5.598 5.514 12.97 8.552 20.76 8.552 8.039 0 15.574-3.198 21.219-9.003a5.303 5.303 0 1 1 7.604 7.395c-7.659 7.877-17.895 12.214-28.823 12.214zM201.718 208.965h-3.536a5.304 5.304 0 1 1 0-10.608h3.536a5.304 5.304 0 1 1 0 10.608zM166.36 185.981c-4.875 0-8.84-3.965-8.84-8.84 0-4.874 3.965-8.84 8.84-8.84 4.873 0 8.839 3.966 8.839 8.84 0 4.875-3.966 8.84-8.84 8.84zM219.695 185.983a5.304 5.304 0 0 1-4.933-7.256c2.465-6.235 8.61-10.425 15.295-10.425 6.603 0 12.547 3.94 15.137 10.042a5.307 5.307 0 0 1-2.81 6.957 5.307 5.307 0 0 1-6.956-2.81 5.84 5.84 0 0 0-5.373-3.58c-2.369 0-4.55 1.494-5.43 3.718a5.302 5.302 0 0 1-4.93 3.354z" fill="#234957"/><path d="M277.74 117.03v20.28c0-12.907-21.498-11.35-21.498-11.35l-134.082 6.983c-18.546 0-33.59-15.046-33.59-33.592V78.136c0-17.574 14.249-31.823 31.822-31.823h1.768v31.823c0-11.722 9.494-17.68 21.216-17.68v17.68l102.541 7.072c17.574 0 31.823 14.25 31.823 31.823z" fill="#608287"/><path d="M155.751 99.351V76.368h-1.768c-5.802 0-11.226-3.725-15.911-1.011v-2.525V99.351c0 15.396 10.381 28.348 24.514 32.315l-13.044.679c2.016.377 4.086.598 6.21.598l24.514-1.277c-14.133-3.965-24.515-16.92-24.515-32.315z" opacity=".2" fill="#D8E5EA"/><path d="M245.917 85.208l-19.559-1.35c15.36 4.34 26.63 18.428 26.63 35.176v7.095l3.254-.17s21.498-1.556 21.498 11.35v-20.278c0-17.574-14.25-31.823-31.823-31.823z" fill="#4E676D"/><path d="M116.856 99.351V46.313h-1.768c-17.573 0-31.823 14.25-31.823 31.823V99.35c0 18.546 15.045 33.592 33.591 33.592l24.515-1.277c-14.133-3.965-24.515-16.92-24.515-32.315z" opacity=".4" fill="#D8E5EA"/><path d="M199.95 279.683c-10.058 0-19.872-1.754-29.166-5.212-11.023-4.167-21.219-10.698-29.51-18.896-15.748-15.59-24.418-36.217-24.418-58.084v-64.548a5.304 5.304 0 1 1 10.608 0v64.548c0 19.014 7.553 36.964 21.27 50.544 7.242 7.16 16.158 12.867 25.777 16.504 8.08 3.007 16.649 4.536 25.44 4.536 8.79 0 17.357-1.53 25.465-4.545 28.117-10.562 47.02-37.506 47.02-67.04v-80.46a5.304 5.304 0 1 1 10.608 0v80.46c0 33.928-21.666 64.863-53.914 76.976-9.31 3.463-19.122 5.217-29.18 5.217z" fill="#234957"/><path d="M277.74 142.613a5.304 5.304 0 0 1-5.304-5.304c0-1.267-.36-2.142-1.207-2.93-3.154-2.936-11.202-3.374-14.605-3.13l-134.188 6.99a4.786 4.786 0 0 1-.276.007c-21.447 0-38.895-17.448-38.895-38.895a5.304 5.304 0 1 1 10.608 0c0 15.555 12.618 28.217 28.155 28.288l133.936-6.977c1.438-.1 15.145-.882 22.49 5.951 3.003 2.792 4.59 6.49 4.59 10.696a5.304 5.304 0 0 1-5.304 5.304zM277.74 122.335a5.304 5.304 0 0 1-5.304-5.304c0-14.623-11.896-26.52-26.519-26.52a5.304 5.304 0 1 1 0-10.607c20.471 0 37.127 16.656 37.127 37.127a5.304 5.304 0 0 1-5.304 5.304z" fill="#234957"/><path d="M88.57 104.655a5.304 5.304 0 0 1-5.305-5.304V79.904a5.304 5.304 0 1 1 10.608 0V99.35a5.304 5.304 0 0 1-5.304 5.304zM245.922 90.512c-.122 0-.245-.004-.37-.013l-102.54-7.072a5.304 5.304 0 0 1 .73-10.583l102.541 7.072a5.306 5.306 0 0 1 4.927 5.656 5.308 5.308 0 0 1-5.288 4.94zM122.16 83.44a5.304 5.304 0 0 1-5.304-5.304c0-13.746 10.658-22.984 26.52-22.984a5.304 5.304 0 1 1 0 10.608c-3.732 0-15.912.893-15.912 12.376a5.304 5.304 0 0 1-5.304 5.304z" fill="#234957"/><path d="M143.376 83.44a5.304 5.304 0 0 1-5.304-5.304v-17.68a5.304 5.304 0 1 1 10.608 0v17.68a5.304 5.304 0 0 1-5.304 5.304zM88.57 83.44a5.304 5.304 0 0 1-5.305-5.304c0-20.471 16.654-37.127 37.127-37.127a5.304 5.304 0 1 1 0 10.608c-14.622 0-26.52 11.896-26.52 26.519a5.304 5.304 0 0 1-5.303 5.304z" fill="#234957"/><path d="M122.16 83.44a5.304 5.304 0 0 1-5.304-5.304V46.313a5.304 5.304 0 1 1 10.608 0v31.823a5.304 5.304 0 0 1-5.304 5.304z" fill="#234957"/><path d="M213.14 304.24a26.29 26.29 0 0 0 4.843-3.784l.23.248 10.06-2.334.548 2.334-5.039 29.472c-8.31.707-13.224-4.526-13.224-4.526l3.536-21.216s-.354-.07-.955-.177v-.017zM189.343 325.65c5.958 20.985 22.895 27.757 45.012 24.327l.017.088a175.24 175.24 0 0 1-13.065 2.299c-7.514 1.043-15.204 1.555-23.019 1.555-5.056 0-10.077-.212-15.045-.671-1.361-.124-2.74-.248-4.084-.407l-7.991-54.7 10.997 2.563a24.452 24.452 0 0 0 2.298 1.962l1.344 1.768 3.536 21.216z" fill="#D8E5EA"/><path d="M236.37 296.478l16.3 10.785c-2.58 3.412-4.967 6.506-7.195 9.105-8.521 9.971-15.93 13.33-21.693 13.808l5.039-29.472-.548-2.334 8.097-1.892zM171.168 298.14l7.991 54.7c-12.216-1.36-24.044-4.03-35.324-7.92-16.76-5.64-32.318-13.878-46.267-24.22-.937-.708-1.856-1.397-2.793-2.122 14.939-14.727 32.937-26.36 52.897-33.821l-3.713 24.981 20.049-13.26 7.16 1.662z" fill="#4E676D"/><path d="M112.454 330.282a151.229 151.229 0 0 1 32.034-24.103l3.184-21.422c-19.96 7.46-37.958 19.094-52.897 33.82.937.726 1.856 1.415 2.793 2.122a168.899 168.899 0 0 0 16.483 10.794c-.53-.4-1.061-.798-1.597-1.211zM164.833 296.671l-.825-.19-2.05 1.355c.959-.387 1.907-.799 2.875-1.165z" fill="#608287"/><path d="M214.094 304.434l-3.536 21.216h-21.215l-3.536-21.216s8.026-1.768 14.143-1.768c4.473 0 10.802 1.132 13.19 1.591.6.107.954.177.954.177zM363.928 303.108c-4.42 24.31-23.867 33.591-23.867 33.591.83-24.769-12.712-36.402-14.497-37.816a45.783 45.783 0 0 1 5.215-2.847c15.364-7.16 33.15 7.072 33.15 7.072z" fill="#1C7CD3"/><path d="M325.564 298.883c-10.431 6.612-13.667 15.134-38.701 30.037-18.723 11.156-36.897 18.635-52.508 21.057-22.117 3.43-39.054-3.342-45.012-24.327h21.215s4.915 5.233 13.224 4.526c5.764-.478 13.172-3.837 21.693-13.808 2.228-2.599 4.615-5.693 7.196-9.105.901-1.22 1.856-2.493 2.81-3.801 3.024-4.084 6.242-8.486 9.618-12.977 14.674-19.43 32.62-40.327 51.978-42.625 32.266-3.837 36.385 4.42 36.385 15.911 0 17.167 10.466 39.337 10.466 39.337s-17.785-14.232-33.149-7.072a45.783 45.783 0 0 0-5.215 2.847z" fill="#1B9ED6"/><path d="M337.556 264.95c2.728 12.176 6.925 23.28 9.573 29.959 12.32.102 16.8 8.2 16.8 8.2s-10.467-22.17-10.467-39.338c0-11.069.596-20.626-27.103-11.787 5.893 1.622 9.31 4.547 11.197 12.966z" fill="#34BBEA"/><path d="M198.288 359.223c-5.325 0-10.55-.233-15.535-.695a162.98 162.98 0 0 1-4.218-.42c-12.464-1.388-24.734-4.14-36.43-8.174-17.012-5.724-33.074-14.13-47.698-24.974l-.62-.47a218.949 218.949 0 0 1-2.26-1.719 5.305 5.305 0 0 1-.951-7.44 5.3 5.3 0 0 1 7.44-.95c.724.56 1.437 1.098 2.156 1.642l.589.444c13.693 10.152 28.766 18.044 44.761 23.425 10.995 3.794 22.495 6.372 34.219 7.677 1.28.15 2.553.265 3.815.382 12.162 1.128 25.08.817 37.017-.842a169.604 169.604 0 0 0 12.58-2.208 5.304 5.304 0 0 1 2.5 10.309c-.059.014-.117.028-.177.039v.002c-4.578.98-9.105 1.775-13.458 2.367-7.66 1.064-15.65 1.605-23.73 1.605z" fill="#234957"/><path d="M94.775 323.882a5.303 5.303 0 0 1-3.723-9.082c15.545-15.325 34.481-27.432 54.763-35.013a5.304 5.304 0 1 1 3.713 9.938c-18.894 7.061-36.54 18.344-51.032 32.63a5.275 5.275 0 0 1-3.721 1.527zM223.79 335.48a5.303 5.303 0 0 1-5.235-6.198l5.038-29.473a5.296 5.296 0 0 1 6.123-4.333 5.303 5.303 0 0 1 4.333 6.122l-5.039 29.472a5.302 5.302 0 0 1-5.22 4.41zM179.152 358.145a5.302 5.302 0 0 1-5.24-4.537l-7.991-54.699a5.302 5.302 0 0 1 4.481-6.014 5.307 5.307 0 0 1 6.015 4.482l7.991 54.698a5.302 5.302 0 0 1-5.256 6.07z" fill="#234957"/><path d="M184.46 307.97a5.288 5.288 0 0 1-3.204-1.078 29.947 29.947 0 0 1-2.792-2.387c-.35-.332-.723-.688-1.098-1.082-5.965-6.342-9.239-14.646-9.239-23.402v-10.237a5.304 5.304 0 1 1 10.608 0v10.237c0 6.046 2.25 11.767 6.338 16.113.224.237.472.468.716.7a19.784 19.784 0 0 0 1.881 1.609 5.304 5.304 0 0 1-3.21 9.527zM213.145 309.545a5.305 5.305 0 0 1-2.756-9.839c1.389-.843 2.688-1.86 3.868-3.02 4.398-4.297 6.909-10.36 6.909-16.665v-10.115a5.304 5.304 0 1 1 10.607 0v10.115c0 9.143-3.675 17.976-10.084 24.231a31.53 31.53 0 0 1-5.799 4.526 5.295 5.295 0 0 1-2.745.767zM265.096 295.79a5.27 5.27 0 0 1-2.327-.542 146.765 146.765 0 0 0-11.902-5.185 5.302 5.302 0 0 1-3.058-6.848 5.3 5.3 0 0 1 6.847-3.058c4.263 1.63 8.562 3.5 12.777 5.563a5.303 5.303 0 0 1 2.433 7.095 5.31 5.31 0 0 1-4.77 2.976zM340.06 342.003a5.305 5.305 0 0 1-5.3-5.48c.748-22.333-11.132-32.405-12.488-33.482a5.3 5.3 0 0 1-.865-7.45 5.3 5.3 0 0 1 7.45-.865c1.556 1.23 13.594 11.384 16.094 32.131 5.146-4.573 11.54-12.485 13.762-24.698a5.303 5.303 0 1 1 10.434 1.899c-4.848 26.671-25.906 37.001-26.8 37.427a5.308 5.308 0 0 1-2.286.518z" fill="#234957"/><path d="M143.96 315.042a5.304 5.304 0 0 1-5.246-6.085l5.604-37.709a5.302 5.302 0 0 1 1.6-3.073l9.635-9.122a5.304 5.304 0 0 1 7.293 7.703l-8.306 7.862-3.585 24.132 10.129-6.697a5.294 5.294 0 0 1 4.124-.742l18.16 4.227a5.306 5.306 0 0 1 3.963 6.372 5.311 5.311 0 0 1-6.37 3.96l-15.93-3.711-18.146 12a5.284 5.284 0 0 1-2.926.883zM224.005 356.124c-20.437 0-34.38-10.056-39.765-29.026a5.303 5.303 0 0 1 3.653-6.55 5.298 5.298 0 0 1 6.55 3.652c4.8 16.903 17.947 23.823 39.097 20.533 14.52-2.25 32.017-9.294 50.607-20.369 15.044-8.956 21.912-15.494 27.43-20.747 3.625-3.449 6.756-6.431 11.145-9.212a51.288 51.288 0 0 1 5.805-3.172c8.753-4.077 17.872-2.58 25.07.141-2.729-8.065-5.439-18.395-5.439-27.603 0-4.414-.697-6.833-2.4-8.35-2.55-2.263-9.482-4.501-28.053-2.295-17.174 2.037-34.09 21.644-48.373 40.554-2.328 3.099-4.59 6.165-6.76 9.112l-2.826 3.824c-.6.822-1.22 1.658-1.828 2.475l-.98 1.32c-2.46 3.254-5.033 6.602-7.435 9.404-8.266 9.673-16.771 14.938-25.28 15.643-8.577.745-15.051-3.543-17.53-6.18a5.303 5.303 0 0 1 .235-7.497 5.31 5.31 0 0 1 7.452.186c.22.22 3.517 3.386 8.955 2.92 5.553-.46 11.812-4.6 18.11-11.97 2.222-2.592 4.675-5.788 6.997-8.858l.96-1.294c.588-.794 1.193-1.607 1.796-2.434l2.836-3.838c2.19-2.972 4.47-6.064 6.826-9.2 15.64-20.704 34.464-42.197 55.593-44.705 18.806-2.239 30.017-.727 36.35 4.899 5.286 4.694 5.965 11.164 5.965 16.279 0 15.797 9.858 36.862 9.958 37.074a5.304 5.304 0 0 1-8.11 6.405c-.144-.115-15.448-12.06-27.593-6.407a40.227 40.227 0 0 0-4.606 2.514c-3.52 2.231-6.168 4.753-9.522 7.944-5.903 5.62-13.25 12.612-29.315 22.179-19.744 11.762-38.56 19.28-54.409 21.738-3.91.61-7.635.911-11.166.911z" fill="#234957"/><path d="M210.558 330.954h-21.215a5.305 5.305 0 0 1-5.232-4.433l-3.536-21.215a5.303 5.303 0 0 1 4.09-6.052c.351-.078 8.666-1.892 15.285-1.892 4.717 0 10.916 1.058 14.19 1.687.594.104.993.184.993.184a5.306 5.306 0 0 1 4.192 6.073l-3.536 21.215a5.304 5.304 0 0 1-5.231 4.433zm-16.721-10.608h12.229l1.932-11.596c-2.565-.396-5.672-.78-8.048-.78-2.47 0-5.484.35-8.053.744l1.94 11.632zM255.475 308.766a5.306 5.306 0 0 1-5.24-4.526l-4.4-29.622-8.302-7.862a5.304 5.304 0 0 1 7.293-7.703l9.634 9.122a5.313 5.313 0 0 1 1.6 3.071l4.67 31.436a5.305 5.305 0 0 1-5.255 6.084z" fill="#234957"/><path d="M252.665 312.567a5.276 5.276 0 0 1-2.92-.88l-14.397-9.525-15.938 3.708c-2.844.67-5.703-1.112-6.364-3.967a5.302 5.302 0 0 1 3.967-6.365l18.148-4.226a5.311 5.311 0 0 1 4.133.741l16.303 10.787a5.303 5.303 0 0 1-2.932 9.727z" fill="#234957"/></g></svg>