<?xml version="1.0" encoding="UTF-8" standalone="no"?><svg width="16" height="11" viewBox="0 0 16 11" xmlns="http://www.w3.org/2000/svg"><title>DRAG_ICON-1</title><g fill="none" fill-rule="evenodd"><path d="M0 0h16v11H0z"/><path d="M2 0C.9 0 0 .9 0 2s.9 2 2 2 2-.9 2-2-.9-2-2-2zm12 0c-1.1 0-2 .9-2 2s.9 2 2 2 2-.9 2-2-.9-2-2-2zM8 0C6.9 0 6 .9 6 2s.9 2 2 2 2-.9 2-2-.9-2-2-2zM2 7C.9 7 0 7.9 0 9s.9 2 2 2 2-.9 2-2-.9-2-2-2zm12 0c-1.1 0-2 .9-2 2s.9 2 2 2 2-.9 2-2-.9-2-2-2zM8 7c-1.1 0-2 .9-2 2s.9 2 2 2 2-.9 2-2-.9-2-2-2z" fill="#AFAFAF"/></g></svg>