<?xml version="1.0" encoding="UTF-8" standalone="no"?><svg width="400" height="400" viewBox="0 0 400 400" xmlns="http://www.w3.org/2000/svg"><title>email</title><g fill="none" fill-rule="evenodd"><path d="M263.82 120.955c-.899-13.843 3.416-26.607 18.877-26.607 17.797 0 25.168 14.203 25.168 34.158l5.393-17.978v104.27l-45.303 42.247-47.28-44.405c-10.787-9.348-26.608-9.348-37.574-.18l-50.157 45.843-45.483-42.427 1.078-1.078v-86.293h168.09c4.135 0 7.371-3.415 7.191-7.55z" fill="#F6FAFC"/><path d="M267.955 229.36l85.933 80.719c-2.877 10.786-12.764 18.876-24.63 18.876H70.921c-11.865 0-21.752-8.09-24.629-18.876l86.832-79.281 50.157-42.247c10.786-9.169 26.786-9.169 37.573.18l47.101 40.629z" fill="#E6F0F4"/><path fill="#E6F0F4" d="M89.258 195.022l47.461 40.99-14.562 12.404-34.696-34.517zM311.46 195.022L264 236.012l14.562 12.404 34.696-34.517zM282.697 94.348c-15.461 0-19.776 12.944-18.877 26.607.18 4.135-3.056 7.55-7.19 7.55H88.54v-17.977h152.808c0-19.775 16-35.955 35.955-35.955a35.83 35.83 0 0 1 35.955 35.955l-5.393 17.978c0-19.955-7.37-34.158-25.168-34.158z"/><path d="M277.303 74.573a35.83 35.83 0 0 0-35.955 35.955H45.393c0-19.775 16.18-35.955 35.955-35.955H277.303z" fill="#E6F0F4"/><path fill="#FFD366" d="M88.54 137.315v77.483l-1.08 1.258-42.067-39.19z"/><path fill="#FBB735" d="M56.899 166.258l-11.506 10.607 42.068 39.191 1.078-1.258v-19.056z"/><path fill="#FFD366" d="M313.258 138.034l41.169 38.472-.36.36-40.809 37.932v-14.023z"/><path fill="#FBB735" d="M313.258 195.022v19.776l40.81-37.933.359-.36-10.607-9.887z"/><path d="M245.663 74.573h-88.45l25.888-23.73c10.787-9.169 26.787-9.169 37.573.18l24.989 23.55z" fill="#FFD366"/><path d="M132.944 258.483l-86.832 79.281c-.539-1.977-.719-4.135-.719-6.292V176.685l42.068 39.191 45.483 42.607z" fill="#FBB735"/><path d="M46.112 319.787c-.539-1.978-.719-4.135-.719-6.293v17.978c0 2.157.36 4.315.72 6.292l86.83-79.28-17.437-12.765-69.394 74.068z" fill="#F93"/><path d="M354.607 176.865v154.787c0 2.157-.36 4.314-.72 6.292l-85.932-80.72 45.303-42.246 40.81-38.113.18-.18.359.18z" fill="#FBB735"/><path d="M285.213 244.64l-17.258 12.585 85.933 80.719c.539-1.978.719-4.135.719-6.292v-17.978c0 2.157-.36 4.315-.72 6.292l-68.674-75.326z" fill="#F93"/><path d="M267.955 257.225l85.933 80.719c-2.877 10.786-12.764 18.876-24.63 18.876H70.921c-11.865 0-21.752-8.09-24.629-18.876l86.832-79.281 50.157-45.843c10.786-9.168 26.786-9.168 37.573.18l47.101 44.225z" fill="#FBB735"/><path d="M183.101 237.809c10.787-9.169 26.787-9.169 37.393.18L352.63 340.64c.36-.898.72-1.797.9-2.876l-85.933-80.72-47.281-44.404a28.644 28.644 0 0 0-37.394-.18l-50.157 45.843-86.831 79.281c.18.9.539 1.978.898 2.877l136.27-102.652z" fill="#FFD366"/><path d="M329.079 333.45H70.742c-3.955 0-7.73-.9-11.146-2.517l-13.484 12.404c2.877 10.787 12.764 17.079 24.63 17.079h258.337c11.865 0 21.752-6.292 24.629-17.079l-13.304-12.404c-3.235 1.438-7.19 2.516-11.325 2.516z" fill="#F93"/><path d="M88.54 220.191c-3.057 0-5.394-2.337-5.394-5.393v-104.45c0-3.056 2.337-5.393 5.393-5.393 3.057 0 5.394 2.337 5.394 5.393v104.45c0 3.056-2.337 5.393-5.394 5.393z" fill="#234957"/><path d="M318.652 214.798h-10.787v-104.45c0-16.899-13.663-30.561-30.562-30.561s-30.561 13.662-30.561 30.561c0 3.056-2.338 5.394-5.394 5.394H45.393c-3.056 0-5.393-2.338-5.393-5.394C40 87.517 58.517 69 81.348 69h195.955c22.832 0 41.349 18.517 41.349 41.348v104.45zM51.326 105.135h184.989c1.258-9.888 6.112-18.697 13.123-25.169H81.348a30.358 30.358 0 0 0-30.022 25.169z" fill="#234957"/><path d="M262.921 182.438H138.876c-3.056 0-5.393-2.337-5.393-5.393 0-3.056 2.337-5.393 5.393-5.393h124.045c3.057 0 5.394 2.337 5.394 5.393 0 3.056-2.337 5.393-5.394 5.393zM199.101 155.472h-60.225c-3.056 0-5.393-2.337-5.393-5.393 0-3.057 2.337-5.394 5.393-5.394h60.225c3.056 0 5.393 2.337 5.393 5.394 0 2.876-2.337 5.393-5.393 5.393zM46.112 343.157c-1.438 0-2.876-.539-3.955-1.797-1.977-2.158-1.797-5.573.36-7.551l136.989-125.303s.18 0 .18-.18c12.943-10.966 31.64-10.966 44.584.36 0 0 .18 0 .18.18l133.213 124.943c2.157 1.978 2.337 5.393.18 7.55-1.978 2.158-5.394 2.338-7.55.18L217.257 216.596c-8.809-7.551-21.393-7.551-30.382-.18L49.888 341.539c-1.079 1.259-2.337 1.618-3.776 1.618z" fill="#234957"/><path d="M132.944 263.876c-1.259 0-2.697-.539-3.596-1.438l-87.55-81.618c-2.158-1.977-2.337-5.393-.18-7.55 1.978-2.158 5.393-2.337 7.55-.18l87.551 81.618c2.157 1.977 2.337 5.393.18 7.55a5.577 5.577 0 0 1-3.955 1.618zM267.955 262.618c-1.438 0-2.876-.54-3.955-1.798-1.978-2.157-1.978-5.573.18-7.55l86.292-80.36c2.157-1.977 5.573-1.977 7.55.18 1.978 2.157 1.978 5.573-.18 7.55L271.73 261c-1.258 1.079-2.517 1.618-3.775 1.618zM157.213 79.966c-1.438 0-2.876-.539-3.955-1.797-1.977-2.158-1.797-5.573.36-7.551l25.888-23.73s.18 0 .18-.18c12.943-10.966 31.64-10.966 44.584.36 0 0 .18 0 .18.18l24.988 23.55c2.158 1.977 2.337 5.393.18 7.55-1.978 2.158-5.393 2.337-7.55.18l-24.99-23.37c-8.808-7.551-21.393-7.551-30.381-.18l-25.888 23.73c-1.079.719-2.337 1.258-3.596 1.258z" fill="#234957"/><path d="M329.079 362.213H70.742c-14.023 0-26.427-9.528-29.843-23.01-.72-2.518-.899-5.034-.899-7.551V176.865c0-1.438.72-2.876 1.798-3.955l43.146-39.37c2.157-1.978 5.573-1.798 7.55.359 1.978 2.157 1.798 5.573-.36 7.55l-41.347 37.933v152.45c0 1.617.18 3.415.539 4.853a20.02 20.02 0 0 0 19.416 14.922h258.337c9.168 0 17.258-6.113 19.415-14.922.36-1.618.54-3.236.54-4.854V179.382l-39.73-37.213c-2.158-1.978-2.338-5.394-.18-7.551 2.157-2.157 5.393-2.337 7.55-.18l41.348 38.832c1.08 1.078 1.798 2.517 1.798 3.955V332.01c0 2.517-.36 5.214-.899 7.55-3.415 13.124-15.64 22.652-29.842 22.652z" fill="#234957"/></g></svg>