<?xml version="1.0" encoding="UTF-8" standalone="no"?>
<svg width="400px" height="400px" viewBox="0 0 400 400" version="1.1" xmlns="http://www.w3.org/2000/svg" xmlns:xlink="http://www.w3.org/1999/xlink">
    <!-- Generator: Sketch 3.8.3 (29802) - http://www.bohemiancoding.com/sketch -->
    <title>email</title>
    <desc>Created with Sketch.</desc>
    <defs></defs>
    <g id="Page-1" stroke="none" stroke-width="1" fill="none" fill-rule="evenodd">
        <g id="email">
            <g transform="translate(40.000000, 37.000000)" id="Layer_1">
                <g>
                    <path d="M223.820225,83.9550562 C222.921348,70.1123596 227.235955,57.3483146 242.696629,57.3483146 C260.494382,57.3483146 267.865169,71.5505618 267.865169,91.505618 L273.258427,73.5280899 L273.258427,101.033708 L273.258427,163.775281 L273.258427,177.797753 L227.955056,220.044944 L180.674157,175.640449 C169.88764,166.292135 154.067416,166.292135 143.101124,175.460674 L92.9438202,221.303371 L47.4606742,178.876404 L48.5393258,177.797753 L48.5393258,100.314607 L48.5393258,91.505618 L216.629213,91.505618 C220.764045,91.505618 224,88.0898876 223.820225,83.9550562 L223.820225,83.9550562 Z" id="Shape" fill="#F6FAFC"></path>
                    <path d="M227.955056,192.359551 L313.88764,273.078652 C311.011236,283.865169 301.123596,291.955056 289.258427,291.955056 L30.9213483,291.955056 C19.0561798,291.955056 9.16853933,283.865169 6.29213483,273.078652 L93.1235955,193.797753 L143.280899,151.550562 C154.067416,142.382022 170.067416,142.382022 180.853933,151.730337 L227.955056,192.359551 L227.955056,192.359551 Z" id="Shape" fill="#E6F0F4"></path>
                    <polygon id="Shape" fill="#E6F0F4" points="49.258427 158.022472 96.7191011 199.011236 82.1573034 211.41573 47.4606742 176.898876"></polygon>
                    <polygon id="Shape" fill="#E6F0F4" points="271.460674 158.022472 224 199.011236 238.561798 211.41573 273.258427 176.898876"></polygon>
                    <path d="M242.696629,57.3483146 C227.235955,57.3483146 222.921348,70.2921348 223.820225,83.9550562 C224,88.0898876 220.764045,91.505618 216.629213,91.505618 L48.5393258,91.505618 L48.5393258,73.5280899 L201.348315,73.5280899 C201.348315,53.752809 217.348315,37.5730337 237.303371,37.5730337 C257.258427,37.5730337 273.258427,53.5730337 273.258427,73.5280899 L267.865169,91.505618 C267.865169,71.5505618 260.494382,57.3483146 242.696629,57.3483146 L242.696629,57.3483146 Z" id="Shape" fill="#E6F0F4"></path>
                    <path d="M237.303371,37.5730337 C217.348315,37.5730337 201.348315,53.5730337 201.348315,73.5280899 L48.5393258,73.5280899 L5.39325843,73.5280899 C5.39325843,53.752809 21.5730337,37.5730337 41.3483146,37.5730337 L117.213483,37.5730337 L205.662921,37.5730337 L237.303371,37.5730337 L237.303371,37.5730337 Z" id="Shape" fill="#E6F0F4"></path>
                    <polygon id="Shape" fill="#FFD366" points="48.5393258 100.314607 48.5393258 177.797753 47.4606742 179.05618 5.39325843 139.865169"></polygon>
                    <polygon id="Shape" fill="#FBB735" points="16.8988764 129.258427 5.39325843 139.865169 47.4606742 179.05618 48.5393258 177.797753 48.5393258 158.741573"></polygon>
                    <polygon id="Shape" fill="#FFD366" points="273.258427 101.033708 314.426966 139.505618 314.067416 139.865169 273.258427 177.797753 273.258427 163.775281"></polygon>
                    <polygon id="Shape" fill="#FBB735" points="273.258427 158.022472 273.258427 163.775281 273.258427 177.797753 314.067416 139.865169 314.426966 139.505618 303.820225 129.617978"></polygon>
                    <path d="M205.662921,37.5730337 L117.213483,37.5730337 L143.101124,13.8426966 C153.88764,4.6741573 169.88764,4.6741573 180.674157,14.0224719 L205.662921,37.5730337 L205.662921,37.5730337 Z" id="Shape" fill="#FFD366"></path>
                    <path d="M92.9438202,221.483146 L6.11235955,300.764045 C5.57303371,298.786517 5.39325843,296.629213 5.39325843,294.47191 L5.39325843,139.685393 L47.4606742,178.876404 L92.9438202,221.483146 L92.9438202,221.483146 Z" id="Shape" fill="#FBB735"></path>
                    <path d="M6.11235955,282.786517 C5.57303371,280.808989 5.39325843,278.651685 5.39325843,276.494382 L5.39325843,294.47191 C5.39325843,296.629213 5.75280899,298.786517 6.11235955,300.764045 L92.9438202,221.483146 L75.505618,208.719101 L6.11235955,282.786517 L6.11235955,282.786517 Z" id="Shape" fill="#FF9933"></path>
                    <path d="M314.606742,139.865169 L314.606742,294.651685 C314.606742,296.808989 314.247191,298.966292 313.88764,300.94382 L227.955056,220.224719 L273.258427,177.977528 L314.067416,139.865169 L314.247191,139.685393 L314.606742,139.865169 L314.606742,139.865169 Z" id="Shape" fill="#FBB735"></path>
                    <path d="M245.213483,207.640449 L227.955056,220.224719 L313.88764,300.94382 C314.426966,298.966292 314.606742,296.808989 314.606742,294.651685 L314.606742,276.674157 C314.606742,278.831461 314.247191,280.988764 313.88764,282.966292 L245.213483,207.640449 L245.213483,207.640449 Z" id="Shape" fill="#FF9933"></path>
                    <path d="M227.955056,220.224719 L313.88764,300.94382 C311.011236,311.730337 301.123596,319.820225 289.258427,319.820225 L30.9213483,319.820225 C19.0561798,319.820225 9.16853933,311.730337 6.29213483,300.94382 L93.1235955,221.662921 L143.280899,175.820225 C154.067416,166.651685 170.067416,166.651685 180.853933,176 L227.955056,220.224719 L227.955056,220.224719 Z" id="Shape" fill="#FBB735"></path>
                    <path d="M143.101124,200.808989 C153.88764,191.640449 169.88764,191.640449 180.494382,200.988764 L312.629213,303.640449 C312.988764,302.741573 313.348315,301.842697 313.52809,300.764045 L227.595506,220.044944 L180.314607,175.640449 C169.52809,166.292135 153.707865,166.292135 142.921348,175.460674 L92.7640449,221.303371 L5.93258427,300.58427 C6.11235955,301.483146 6.47191011,302.561798 6.83146067,303.460674 L143.101124,200.808989 L143.101124,200.808989 Z" id="Shape" fill="#FFD366"></path>
                    <path d="M289.078652,296.449438 L30.741573,296.449438 C26.7865169,296.449438 23.011236,295.550562 19.5955056,293.932584 L6.11235955,306.337079 C8.98876404,317.123596 18.8764045,323.41573 30.741573,323.41573 L289.078652,323.41573 C300.94382,323.41573 310.831461,317.123596 313.707865,306.337079 L300.404494,293.932584 C297.168539,295.370787 293.213483,296.449438 289.078652,296.449438 L289.078652,296.449438 Z" id="Shape" fill="#FF9933"></path>
                    <path d="M48.5393258,183.191011 C45.4831461,183.191011 43.1460674,180.853933 43.1460674,177.797753 L43.1460674,73.3483146 C43.1460674,70.2921348 45.4831461,67.9550562 48.5393258,67.9550562 C51.5955056,67.9550562 53.9325843,70.2921348 53.9325843,73.3483146 L53.9325843,177.797753 C53.9325843,180.853933 51.5955056,183.191011 48.5393258,183.191011 L48.5393258,183.191011 Z" id="Shape" fill="#234957"></path>
                    <path d="M278.651685,177.797753 L267.865169,177.797753 L267.865169,73.3483146 C267.865169,56.4494382 254.202247,42.7865169 237.303371,42.7865169 C220.404494,42.7865169 206.741573,56.4494382 206.741573,73.3483146 C206.741573,76.4044944 204.404494,78.741573 201.348315,78.741573 L5.39325843,78.741573 C2.33707865,78.741573 0,76.4044944 0,73.3483146 C0,50.5168539 18.5168539,32 41.3483146,32 L237.303371,32 C260.134831,32 278.651685,50.5168539 278.651685,73.3483146 L278.651685,177.797753 L278.651685,177.797753 Z M11.3258427,68.1348315 L196.314607,68.1348315 C197.573034,58.247191 202.426966,49.4382022 209.438202,42.9662921 L41.3483146,42.9662921 C26.247191,42.9662921 13.8426966,53.752809 11.3258427,68.1348315 L11.3258427,68.1348315 Z" id="Shape" fill="#234957"></path>
                    <path d="M222.921348,145.438202 L98.8764045,145.438202 C95.8202247,145.438202 93.4831461,143.101124 93.4831461,140.044944 C93.4831461,136.988764 95.8202247,134.651685 98.8764045,134.651685 L222.921348,134.651685 C225.977528,134.651685 228.314607,136.988764 228.314607,140.044944 C228.314607,143.101124 225.977528,145.438202 222.921348,145.438202 L222.921348,145.438202 Z" id="Shape" fill="#234957"></path>
                    <path d="M159.101124,118.47191 L98.8764045,118.47191 C95.8202247,118.47191 93.4831461,116.134831 93.4831461,113.078652 C93.4831461,110.022472 95.8202247,107.685393 98.8764045,107.685393 L159.101124,107.685393 C162.157303,107.685393 164.494382,110.022472 164.494382,113.078652 C164.494382,115.955056 162.157303,118.47191 159.101124,118.47191 L159.101124,118.47191 Z" id="Shape" fill="#234957"></path>
                    <path d="M6.11235955,306.157303 C4.6741573,306.157303 3.23595506,305.617978 2.15730337,304.359551 C0.179775281,302.202247 0.359550562,298.786517 2.51685393,296.808989 L139.505618,171.505618 C139.505618,171.505618 139.685393,171.505618 139.685393,171.325843 C152.629213,160.359551 171.325843,160.359551 184.269663,171.685393 C184.269663,171.685393 184.449438,171.685393 184.449438,171.865169 L317.662921,296.808989 C319.820225,298.786517 320,302.202247 317.842697,304.359551 C315.865169,306.516854 312.449438,306.696629 310.292135,304.539326 L177.258427,179.595506 C168.449438,172.044944 155.865169,172.044944 146.876404,179.41573 L9.88764045,304.539326 C8.80898876,305.797753 7.5505618,306.157303 6.11235955,306.157303 L6.11235955,306.157303 Z" id="Shape" fill="#234957"></path>
                    <path d="M92.9438202,226.876404 C91.6853933,226.876404 90.247191,226.337079 89.3483146,225.438202 L1.79775281,143.820225 C-0.359550562,141.842697 -0.539325843,138.426966 1.61797753,136.269663 C3.59550562,134.11236 7.01123596,133.932584 9.16853933,136.089888 L96.7191011,217.707865 C98.8764045,219.685393 99.0561798,223.101124 96.8988764,225.258427 C95.8202247,226.337079 94.3820225,226.876404 92.9438202,226.876404 L92.9438202,226.876404 Z" id="Shape" fill="#234957"></path>
                    <path d="M227.955056,225.617978 C226.516854,225.617978 225.078652,225.078652 224,223.820225 C222.022472,221.662921 222.022472,218.247191 224.179775,216.269663 L310.47191,135.910112 C312.629213,133.932584 316.044944,133.932584 318.022472,136.089888 C320,138.247191 320,141.662921 317.842697,143.640449 L231.730337,224 C230.47191,225.078652 229.213483,225.617978 227.955056,225.617978 L227.955056,225.617978 Z" id="Shape" fill="#234957"></path>
                    <path d="M117.213483,42.9662921 C115.775281,42.9662921 114.337079,42.4269663 113.258427,41.1685393 C111.280899,39.011236 111.460674,35.5955056 113.617978,33.6179775 L139.505618,9.88764045 C139.505618,9.88764045 139.685393,9.88764045 139.685393,9.70786517 C152.629213,-1.25842697 171.325843,-1.25842697 184.269663,10.0674157 C184.269663,10.0674157 184.449438,10.0674157 184.449438,10.247191 L209.438202,33.7977528 C211.595506,35.7752809 211.775281,39.1910112 209.617978,41.3483146 C207.640449,43.505618 204.224719,43.6853933 202.067416,41.5280899 L177.078652,18.1573034 C168.269663,10.6067416 155.685393,10.6067416 146.696629,17.9775281 L120.808989,41.7078652 C119.730337,42.4269663 118.47191,42.9662921 117.213483,42.9662921 L117.213483,42.9662921 Z" id="Shape" fill="#234957"></path>
                    <path d="M289.078652,325.213483 L30.741573,325.213483 C16.7191011,325.213483 4.31460674,315.685393 0.898876404,302.202247 C0.179775281,299.685393 0,297.168539 0,294.651685 L0,139.865169 C0,138.426966 0.719101124,136.988764 1.79775281,135.910112 L44.9438202,96.5393258 C47.1011236,94.5617978 50.5168539,94.741573 52.494382,96.8988764 C54.4719101,99.0561798 54.2921348,102.47191 52.1348315,104.449438 L10.7865169,142.382022 L10.7865169,294.831461 C10.7865169,296.449438 10.9662921,298.247191 11.3258427,299.685393 C13.6629213,308.494382 21.5730337,314.606742 30.741573,314.606742 L289.078652,314.606742 C298.247191,314.606742 306.337079,308.494382 308.494382,299.685393 C308.853933,298.067416 309.033708,296.449438 309.033708,294.831461 L309.033708,142.382022 L269.303371,105.168539 C267.146067,103.191011 266.966292,99.7752809 269.123596,97.6179775 C271.280899,95.4606742 274.516854,95.2808989 276.674157,97.4382022 L318.022472,136.269663 C319.101124,137.348315 319.820225,138.786517 319.820225,140.224719 L319.820225,295.011236 C319.820225,297.52809 319.460674,300.224719 318.921348,302.561798 C315.505618,315.685393 303.280899,325.213483 289.078652,325.213483 L289.078652,325.213483 Z" id="Shape" fill="#234957"></path>
                </g>
            </g>
        </g>
    </g>
</svg>