<?xml version="1.0" encoding="utf-8"?><svg id="Layer_1" xmlns="http://www.w3.org/2000/svg" xmlns:xlink="http://www.w3.org/1999/xlink" viewBox="0 0 600 600"><style>.star{transform-origin:center;-moz-transform-origin:center}.star-1{animation:pulse .4s alternate infinite;-moz-animation:pulse .4s alternate infinite}.star-2{animation:pulse .3s alternate-reverse infinite;-moz-animation:pulse .3s alternate-reverse infinite}.star-3{animation:pulse .3s alternate infinite;-moz-animation:pulse .3s alternate infinite}.star-4{animation:pulse .4s alternate-reverse infinite;-moz-animation:pulse .4s alternate-reverse infinite}.star-5{animation:pulse .4s alternate infinite;-moz-animation:pulse .4s alternate infinite}.star-6{animation:pulse .3s alternate-reverse infinite;-moz-animation:pulse .3s alternate-reverse infinite}.star-7{animation:pulse .4s alternate infinite;-moz-animation:pulse .4s alternate infinite}@-moz-keyframes pulse{0%{opacity:1;transform:scale(1.1);-moz-transform:scale(1.1)}to{opacity:.8;transform:scale(.8);-moz-transform:scale(1.1)}}@keyframes pulse{0%{opacity:1;transform:scale(1.1);-moz-transform:scale(1.1)}to{opacity:.8;transform:scale(.8);-moz-transform:scale(1.1)}}</style><path fill="#D8E5EA" d="M454.7 142c7.9 23.1 18.4 70.1-5.7 111.4-1.5-2.6-3.4-4.9-5.8-7-31.2-25.2-98.5-79.4-108.8-86.8 0 0 42.7-37 98.9-34.1 2.2.1 4.4.5 6.3 1.2 6.9 2.5 12.6 8.1 15.1 15.3"/><path fill="#BAD2D8" d="M349.6 152.3s39.9 14.4 64.4 27.8c7.4 4 16.5-.6 17.5-8.9 1.8-12.7 2.8-29.4-.6-41.4l17.9 9 10.9 56.6-10.2 47.6-15-6.3-85.1-68.7-7.3-8.2 7.5-7.5z"/><path fill="#FFF" d="M449 253.5c4.4 7.6 4.3 17.2-.8 24.9-11.6 17.3-32.1 40.1-58.9 39.5 6.7-5.5 11-13.9 11-23.1 0-14.7-10.6-27-24.6-29.5.3-2.3.5-4.5.5-6.4 0-37.1-28-68.8-63-79.8v-19.3s7.5-9.8 21 0c10.3 7.5 77.6 61.6 108.8 86.8 2.6 2 4.6 4.4 6 6.9"/><path fill="#D8E5EA" d="M377.9 319.1c-.8-4.5-2.1-8.9-3.7-13.2-1.2-3.3-2.4-5.9-3.2-7.9-5.2-12.2-4.6-15.2-.1-31.4.9-3.4 1.6-6.4 2-9l1.8-12.3 12.2 2.3c19.9 3.6 34.3 21.1 34.3 41.3 0 12.7-5.6 24.5-15.5 32.5-3.5 2.9-7.6-.7-12 .9L380.5 333l-2.6-13.9z"/><path fill="#3278BD" d="M389.3 318c-2.5 2.1-5.4 3.7-8.5 4.9-1-5.3-2.4-10.4-4.3-15.2-6.7-17.9-8.1-13.5-3-32 1-3.6 1.8-7.2 2.3-10.5 13.9 2.6 24.6 14.8 24.6 29.5-.1 9.4-4.4 17.8-11.1 23.3"/><path fill="#E9606F" d="M415.1 419.8s52.9 35.4 74.6 68.5c-42.1 33.5-92.7 56.8-148 66.5 5-4.3 55-48.4 70.7-120 1-4.9 2-9.9 2.7-15"/><path fill="#D34C60" d="M455.3 512.2c11.9-7.3 23.4-15.2 34.3-23.9-21.6-33.1-74.6-67.7-74.6-67.7-.7 5.1-1.7 9.6-2.7 15.6-2.2 9-5.2 19-8.5 27.9 15.6 12 37.6 29.7 51.5 48.1"/><path fill="#FFF" d="M439.5 126.9c-2-.7-4.1-1-6.3-1.2-56.1-2.9-98.9 34.1-98.9 34.1-13.5-9.8-21 0-21 0l-14.9-10s29.4-58.8 87.3-75.5c.8-.2 1.7-.4 2.5-.4.8-.1 1.7-.1 2.5.1 10.4 1.4 47.6 9.7 48.8 52.9"/><path fill="#3278BD" d="M389.3 318c-2.5 2.1-5.4 3.7-8.5 4.9-1-5.3-2.4-10.4-4.3-15.2-6.7-17.9-8.1-13.5-3-32 1-3.6 1.8-7.2 2.3-10.5 13.9 2.6 24.6 14.8 24.6 29.5-.1 9.4-4.4 17.8-11.1 23.3"/><path fill="#D8E5EA" d="M388.2 73.8c-.8.1-1.7.2-2.5.4-58 16.7-87.3 75.5-87.3 75.5l-12-8-11.8 7.9c-1.5-2.8-30.7-59.1-87.2-75.4-.6-.2-1.3-.3-2-.3l.1-.8c27.5-22.7 62.7-36.3 101-36.3 38.5.1 74.1 14 101.7 37"/><path fill="#BAD2D8" d="M291 108.9l-.2-.1c-2.8-1.9-6.3-1.9-9 0-3.8 2.6-9 1.5-11.5-2.5-7.5-12.2-25-36.9-52.3-54.1-11.8 5.6-22.8 12.7-32.8 20.9l-.1.8c.7 0 1.3.2 2 .3 56.5 16.3 85.9 72.6 87.2 75.4l11.8-7.9 12 8s29.5-58.8 87.3-75.5c.8-.2 2.6-.4 2.6-.4v-.1c-9-8.5-21.4-15.8-33.5-21.5-27.3 17.2-44.7 41.9-52.3 54.1-2.1 4.1-7.3 5.2-11.2 2.6"/><path fill="#638389" d="M382.4 343.8c6.4 28 .3 54-14.8 74-13.6 17.9-34.5 31-60.4 35.9 0 0-8.5 1.2-8.9 12-2.7 0-17.3-.1-20-.3-35.7-2.2-62.3-20.2-77.3-45.5-12.8-21.8-16.9-48.9-10.7-76h.1c1.9 40.2 35.4 74.3 74.7 83.4 11.5 2 21.1-10 21.1-21.6 0 11.6 9.9 23.1 21.2 21.6 39.8-9 72.7-42.7 74.7-83.5h.3z"/><path fill="#1F9DD6" d="M382.3 339.8c0 1.3 0 2.7-.1 3.9-2.1 40.8-34.9 74.5-74.7 83.5-11.3 1.5-21.2-10.1-21.2-21.6 0 11.6-9.6 23.4-21.1 21.6-39.3-9.1-72.8-43.3-74.7-83.4 0-.4-.1-.7-.1-1.1-.2-6.7.3-13.4 1.6-19.7.9-5.1 2.4-10 4.1-14.7 6.7-18.2 8.4-13.9 3.1-32.5-1-3.5-1.8-7.1-2.3-10.4-.3-2.3-.5-4.5-.5-6.5 0-37.1 28-68.7 63-79.8v16.8l27 17.9 27-17.9v-16.8c35 11.1 63 42.6 63 79.8 0 2-.2 4.1-.5 6.4-.5 3.3-1.2 6.8-2.3 10.5-5.1 18.5-3.7 14 3 32 1.9 4.9 3.3 10 4.3 15.2.8 5.3 1.4 11.1 1.4 16.8"/><path fill="#1F9DD6" d="M382.3 339.8c0 1.3 0 2.7-.1 3.9-2.1 40.8-34.9 74.5-74.7 83.5-11.3 1.5-21.2-10.1-21.2-21.6 0 11.6-9.6 23.4-21.1 21.6-39.3-9.1-72.8-43.3-74.7-83.4 0-.4-.1-.7-.1-1.1-.2-6.7.3-13.4 1.6-19.7.9-5.1 2.4-10 4.1-14.7 6.7-18.2 8.4-13.9 3.1-32.5-1-3.5-1.8-7.1-2.3-10.4-.3-2.3-.5-4.5-.5-6.5 0-37.1 28-68.7 63-79.8v16.8l27 17.9 27-17.9v-16.8c35 11.1 63 42.6 63 79.8 0 2-.2 4.1-.5 6.4-.5 3.3-1.2 6.8-2.3 10.5-5.1 18.5-3.7 14 3 32 1.9 4.9 3.3 10 4.3 15.2.8 5.3 1.4 11.1 1.4 16.8"/><path fill="#1F9DD6" d="M382.3 339.8c0 1.3 0 2.7-.1 3.9-2.1 40.8-34.9 74.5-74.7 83.5-11.3 1.5-21.2-10.1-21.2-21.6 0 11.6-9.6 23.4-21.1 21.6-39.3-9.1-72.8-43.3-74.7-83.4 0-.4-.1-.7-.1-1.1-.2-6.7.3-13.4 1.6-19.7.9-5.1 2.4-10 4.1-14.7 6.7-18.2 8.4-13.9 3.1-32.5-1-3.5-1.8-7.1-2.3-10.4-.3-2.3-.5-4.5-.5-6.5 0-37.1 28-68.7 63-79.8v16.8l27 17.9 27-17.9v-16.8c35 11.1 63 42.6 63 79.8 0 2-.2 4.1-.5 6.4-.5 3.3-1.2 6.8-2.3 10.5-5.1 18.5-3.7 14 3 32 1.9 4.9 3.3 10 4.3 15.2.8 5.3 1.4 11.1 1.4 16.8"/><path fill="#1F9DD6" d="M382.3 339.8c0 1.3 0 2.7-.1 3.9-2.1 40.8-34.9 74.5-74.7 83.5-11.3 1.5-21.2-10.1-21.2-21.6 0 11.6-9.6 23.4-21.1 21.6-39.3-9.1-72.8-43.3-74.7-83.4 0-.4-.1-.7-.1-1.1-.2-6.7.3-13.4 1.6-19.7.9-5.1 2.4-10 4.1-14.7 6.7-18.2 8.4-13.9 3.1-32.5-1-3.5-1.8-7.1-2.3-10.4-.3-2.3-.5-4.5-.5-6.5 0-37.1 28-68.7 63-79.8v16.8l27 17.9 27-17.9v-16.8c35 11.1 63 42.6 63 79.8 0 2-.2 4.1-.5 6.4-.5 3.3-1.2 6.8-2.3 10.5-5.1 18.5-3.7 14 3 32 1.9 4.9 3.3 10 4.3 15.2.8 5.3 1.4 11.1 1.4 16.8"/><path fill="#39BCEB" d="M220.5 343.8c0-.4-.1-.7-.1-1.1-.2-6.7.3-13.4 1.6-19.8.9-5.1 2.4-10 4.1-14.7 6.7-18.2 8.4-13.9 3.1-32.5-1-3.5-1.8-7.1-2.3-10.4-.3-2.3-.6-4.5-.6-6.5 0-25.6 11.9-48.5 32.9-63.9v-15.8c-36 11.1-63 42.5-63 79.8 0 2.1.2 4.3.5 6.5.5 3.3 1.3 6.8 2.3 10.4 5.3 18.7 3.6 14.3-3.1 32.5-1.8 4.8-3.2 9.6-4.1 14.7-1.2 6.3-1.8 13-1.6 19.8 0 .4 0 .7.1 1.1 1.9 40.2 35.4 74.3 74.7 83.4 5.5.9 10.5-1.3 14.3-5.1-32-13.6-57.3-43.6-58.8-78.4"/><defs><path id="SVGID_1_" d="M284.5 179h97.8v248.4h-97.8z"/></defs><clipPath id="SVGID_2_"><use xlink:href="#SVGID_1_" overflow="visible"/></clipPath><g clip-path="url(#SVGID_2_)"><path fill="#3278BD" d="M380.6 322.8c-1-5.3-2.4-10.4-4.3-15.2-6.7-17.9-8.1-13.5-3-32 1-3.6 1.8-7.2 2.3-10.5.3-2.3.5-4.5.5-6.4 0-37.1-28-68.8-63-79.8l-9 15.9c19.7 15.5 33 38.4 33 64 0 2-.2 4.1-.5 6.4-.5 3.3-1.2 6.8-2.3 10.5-5.1 18.5-3.7 14 3 32 1.9 4.9 3.3 10 4.3 15.2 1 5.5 1.6 11.2 1.6 16.9 0 1.3 0 2.7-.1 3.9-1.8 35.2-26.5 65-58.7 78.4 3.7 3.6 17.7 5.8 23 5.1 39.8-9 72.7-42.7 74.7-83.5.1-1.3.1-2.6.1-3.9.1-5.7-.5-11.5-1.6-17"/></g><path fill="#1F9DD6" d="M412.4 434.8c-15.7 71.5-65.8 115.8-70.7 120-3.9.7-7.9 1.2-11.8 1.9-14.6 2.1-29.6 3-44.8 3-9.9 0-19.6-.4-29.3-1.3-8.6-.7-17-1.9-25.4-3.2 0 0-53.7-44.4-70.7-118.6 13.3-6.5 27.2-12.1 41.6-16.7 14.8 25.3 41.5 43.4 77.3 45.5 2.6.2 17.3.3 20 .3.5-10.8 8.9-12 8.9-12 25.7-4.9 46.7-17.9 60.4-35.9 15.2 4.4 30.2 10.1 44.5 17"/><path fill="#1F9DD6" d="M412.4 434.8c-15.7 71.5-65.8 115.8-70.7 120-3.9.7-7.9 1.2-11.8 1.9-14.6 2.1-29.6 3-44.8 3-9.9 0-19.6-.4-29.3-1.3-8.6-.7-17-1.9-25.4-3.2 0 0-53.7-44.4-70.7-118.6 13.3-6.5 27.2-12.1 41.6-16.7 14.8 25.3 41.5 43.4 77.3 45.5 2.6.2 17.3.3 20 .3.5-10.8 8.9-12 8.9-12 25.7-4.9 46.7-17.9 60.4-35.9 15.2 4.4 30.2 10.1 44.5 17"/><defs><path id="SVGID_3_" d="M190.4 425.5h186.4v66.1H190.4z"/></defs><clipPath id="SVGID_4_"><use xlink:href="#SVGID_3_" overflow="visible"/></clipPath><g clip-path="url(#SVGID_4_)"><path fill="#3278BD" d="M190.4 426.7s24.7 82.3 127.2 61.6c2.8-.5 4.8-3 4.8-5.9v-.8c0-2.3 1.3-4.5 3.4-5.4 10.5-4.9 41.6-21.4 51-50.6l-18.5 2.7-56.5 32.4-6.5 10.6s-64-5.6-94.3-44.5l-10.6-.1z"/></g><path fill="#3278BD" d="M407.1 438.1l-9.3-7s-21.2 81.1-80.6 92c-10.1 1.6-20.3 2.5-30.8 2.5-10 0-19.8-.7-29.5-2.3-60.3-10.2-81.7-92.2-81.7-92.2l-9.3 7c-1 15.1 12.1 41.9 23.2 61.5-2.1-1.2-4.1-2.5-6.2-3.7 21.5 37.9 47.3 59.1 47.3 59.1 8.4 1.3 16.8 2.5 25.4 3.2 9.6.9 19.4 1.3 29.3 1.3 15.2 0 30.2-1 44.8-3 3.9-.5 7.9-1.1 11.8-1.9 3.3-2.8 26.5-23.3 46.3-57.7l-3.9 2.4c11.2-19.5 24.2-46.2 23.2-61.2"/><path fill="#FAB739" d="M274.4 149.7l12-7.9 11.9 8 15 10v36l-26.9 17.9-27.1-17.9v-36l.6-.3z"/><path fill="#FFD46B" d="M298.3 149.8l-2-1.2-37.1 32v15.2l17.5 11.6 27.7-53.2 2.9 2.1z"/><path fill="#FFF" d="M274.4 149.7l-14.6 9.8c-1.6-1.7-8.8-8.2-20.6.3 0 0-.1 0-.1.1l-.1-.1s-42.7-37-98.9-34.1c-2.4.1-4.7.5-6.7 1.3v-.1c1-43.2 38.4-51.5 48.8-52.9 1-.1 2-.2 3 0 .7 0 1.3.2 2 .3 56.5 16.3 85.9 72.6 87.2 75.4"/><path fill="#FFF" d="M259.9 159.5l-.6.3V179c-35 11.1-63 42.5-63 79.8 0 2.1.2 4.3.5 6.5l-.6.1c-13.6 2.8-24 14.8-24 29.4 0 9.3 4.4 17.7 11 23.2-26.5.1-46.6-22.4-58.1-39.5-5.1-7.7-5.2-17.2-.8-24.9 1.5-2.6 3.4-5 5.9-7 31.1-25.1 98.1-79.1 108.7-86.7 0 0 .1 0 .1-.1 12.1-8.6 19.3-2 20.9-.3"/><path fill="#D8E5EA" d="M239 159.8c-10.5 7.7-77.6 61.7-108.7 86.8-2.5 2-4.4 4.4-5.9 7l-.1-.1c-24.2-41.3-13.6-88.3-5.7-111.4 2.4-7.2 8-12.7 14.8-15 2.1-.7 4.4-1.2 6.7-1.3 56.2-3.1 98.9 34 98.9 34"/><path fill="#E9606F" d="M159.5 436.5c17 74.2 70.7 118.6 70.7 118.6-17.6-2.9-34.8-7.3-51.3-13-32.7-11-63-27.1-90-47.2-1.9-1.3-3.6-2.8-5.5-4.1 21.6-33.1 73-70.9 73-70.9.8 5.6 1.8 11.2 3.1 16.6"/><path fill="#D8E5EA" d="M194.8 319.1c.8-4.5 2.1-8.9 3.7-13.2 1.2-3.3 2.3-5.9 3.2-7.9 5.2-12.2 4.6-15.2.1-31.4-.9-3.4-1.6-6.4-2-9l-1.8-12.3-12.2 2.3c-19.9 3.6-34.3 21.1-34.3 41.3 0 12.7 5.6 24.5 15.5 32.5 3.5 2.9 7.6-.7 12 .9l13.3 10.9 2.5-14.1z"/><path fill="#EC677E" d="M168 464.3c-3.3-8.7-6.2-18-8.5-27.8-1.2-5.4-2.3-10.9-3.1-16.7 0 0-51.3 37.8-73 70.9 1.8 1.5 3.6 2.8 5.5 4.1 9.3 7 19.1 13.4 29.1 19.3 13.8-18.2 34.8-37.2 50-49.8"/><path fill="#39BCEB" d="M183.4 318c-6.7-5.5-11-13.9-11-23.2 0-14.5 10.3-26.6 24-29.4l.6-.1c.5 3.3 1.3 6.8 2.3 10.4 5.3 18.7 3.6 14.3-3.1 32.5-1.8 4.8-3.2 9.6-4.1 14.7-3.3-1.2-6.2-2.9-8.7-4.9"/><path fill="#1B2733" d="M307.3 462.7c-4.3 0-8-3-8.8-7.3-.9-4.9 2.3-9.5 7.2-10.5 22.8-4.4 42.2-15.9 54.9-32.5 14.1-18.6 18.8-42.2 13.2-66.6-1.1-4.9 1.9-9.6 6.7-10.8 4.9-1.1 9.6 1.9 10.8 6.7 6.8 29.7 1 58.6-16.4 81.4-15.2 20.1-38.6 34.1-65.8 39.3-.7.2-1.3.3-1.8.3zM286.4 225.8c-2 0-3.9-.6-5.5-1.9l-27-21c-2.2-1.7-3.4-4.4-3.4-7.1v-36.1c0-3 1.5-5.8 3.9-7.5l.3-.2 26.2-20.4c3.2-2.5 7.8-2.5 11.1 0l27 21c2.2 1.7 3.4 4.4 3.4 7.1v36c0 2.8-1.2 5.4-3.4 7.1l-27 21c-1.8 1.3-3.8 2-5.6 2zm-18.1-34.4l17.9 14 17.9-14v-27.2l-17.9-14-18 14v27.2h.1zM192 331.9c-1 0-2.1-.2-3.1-.6-4.1-1.6-7.9-3.7-11.2-6.4-9-7.4-14.3-18.4-14.3-30.1 0-18.5 13.1-34.5 31.1-38.2 4.9-1 9.6 2.2 10.6 7.1 1 4.9-2.2 9.6-7.1 10.6-9.6 2-16.7 10.7-16.7 20.5 0 6.3 2.8 12.2 7.8 16.3 1.8 1.5 3.7 2.6 6 3.4 4.7 1.8 7.1 7 5.3 11.6-1.4 3.6-4.8 5.8-8.4 5.8z"/><path fill="#BAD2D8" d="M224.7 152.3s-39.9 14.4-64.4 27.8c-7.4 4-16.5-.6-17.5-8.9-1.8-12.7-2.8-29.4.6-41.4l-17.9 9-10.9 56.6 10.2 47.6 15-6.3 85.1-68.7 7.3-8.2-7.5-7.5z"/><path fill="#1B2733" d="M380.6 331.9c-3.6 0-7.2-2.3-8.4-5.9-1.7-4.7.7-9.9 5.4-11.5 2.1-.7 4.1-2 5.9-3.4 5-4 7.8-10 7.8-16.3 0-10.2-7.3-18.9-17.1-20.6-4.9-.9-8.1-5.6-7.3-10.5.9-4.9 5.6-8.1 10.5-7.3 18.5 3.4 32 19.5 32 38.4 0 11.7-5.2 22.7-14.3 30.2-3.3 2.8-7.1 4.9-11.2 6.4-1.2.3-2.2.5-3.3.5z"/><path fill="#1B2733" d="M390.4 327h-1.3c-.4 0-1.1 0-1.8-.1-5-.4-8.6-4.7-8.3-9.6.4-5 4.7-8.6 9.6-8.3h.5c22.4.4 40.4-19.1 51.5-35.6 3.1-4.7 3.3-10.6.5-15.5-.9-1.7-2.2-3.1-3.7-4.4C413.2 234 339.6 174.7 329 167c-6.3-4.6-8.6-1.9-8.6-1.8-3 3.9-8.7 4.7-12.7 1.7s-4.7-8.7-1.7-12.7c5.2-6.7 18.3-12.7 33.4-1.8 7.4 5.3 43.2 33.8 109.2 87.1 3.3 2.7 6 5.8 8 9.4 6.1 10.9 5.7 24-1.1 34.3-13.2 20.1-35.3 43.8-65.1 43.8zM183.1 327c-29.9 0-52-23.7-65.2-43.6-6.8-10.3-7.4-23.4-1.2-34.2 2.1-3.7 4.8-7 8.1-9.5 65.8-53 101.5-81.5 109.1-87 .1 0 .1-.1.2-.1 14.9-10.7 27.3-4.6 32.4.8.6.6.9 1 .9 1l-14.3 11s.1.2.4.4c-.1-.1-.2-.2-.2-.3-1.7-1.9-4.8-1.2-8.7 1.6-.1 0-.1.1-.2.1-7.5 5.4-43.9 34.4-108.3 86.4-1.5 1.2-2.7 2.7-3.7 4.4-2.8 4.9-2.6 10.8.5 15.5 10.9 16.3 28.4 35.6 50.5 35.6.6 0 1.1 0 1.8-.1 5-.2 9.1 3.6 9.4 8.6.2 5-3.6 9.1-8.6 9.4-1-.1-1.9 0-2.9 0z"/><defs><path id="SVGID_5_" d="M262.3 300.8H309v21.6h-46.7z"/></defs><clipPath id="SVGID_6_"><use xlink:href="#SVGID_5_" overflow="visible"/></clipPath><g clip-path="url(#SVGID_6_)"><path fill="#3278BD" d="M262.3 316.8s24.7 12.3 46.7 0c0 0-3.9-16.1-22.7-16.1-18.7.1-24 16.1-24 16.1"/></g><defs><path id="SVGID_7_" d="M274.3 360.7h24v12h-24z"/></defs><clipPath id="SVGID_8_"><use xlink:href="#SVGID_7_" overflow="visible"/></clipPath><g clip-path="url(#SVGID_8_)"><path fill="#3278BD" d="M276.7 371.1c4.4 1.3 11.9 2.8 19.4.1 2.1-.7 2.9-3.2 1.7-5-1.8-2.5-5.1-5.5-11.2-5.5-5.9 0-9.4 2.8-11.5 5.2-1.5 1.8-.7 4.5 1.6 5.2"/></g><path fill="#1B2733" d="M449 262.5c-1.6 0-3.1-.4-4.6-1.2-4.3-2.5-5.7-8-3.2-12.3 22.2-38 12.7-81.4 5-104-1.6-4.5-5.1-8.1-9.6-9.5-1.2-.4-2.6-.7-4-.7-51.7-2.7-92 31.6-92.4 32-3.7 3.2-9.4 2.8-12.7-.9-3.2-3.7-2.8-9.4.9-12.7 1.9-1.7 46.1-39.4 105.2-36.3 3.1.2 6 .7 8.8 1.7 9.6 3.2 17.5 11 20.9 20.9 8.6 25.5 19.3 74.8-6.5 118.9-1.8 2.5-4.8 4.1-7.8 4.1zM124.3 262.5c-3.1 0-6.1-1.6-7.8-4.5-25.8-44.1-15.1-93.4-6.5-118.9 3.3-9.6 10.7-17.2 20.3-20.6 3-1 6.1-1.7 9.3-1.9 59-3.1 103.3 34.8 105.2 36.3 3.7 3.2 4.1 8.9.9 12.7-3.2 3.7-8.9 4.1-12.7.9-.6-.5-41-34.6-92.4-32-1.6.1-2.9.3-4.3.8-4.4 1.6-7.8 5.1-9.3 9.4-7.7 22.5-17.2 66.1 5 104 2.5 4.3 1 9.8-3.2 12.3-1.4 1.1-2.9 1.5-4.5 1.5z"/><path fill="#1B2733" d="M298.9 157.6c-1.5 0-2.9-.3-4.3-1-4.4-2.4-6-7.8-3.6-12.1 5.5-10.3 36-62.6 92.1-78.7 1.6-.4 3.1-.7 4.6-.7 1.5-.1 2.8-.1 4.3.1 26.6 3.7 55.5 21.9 56.4 61.6.1 5-3.8 9.1-8.8 9.2-5 .1-9.1-3.8-9.2-8.8-.8-34.9-29-42.5-41.1-44.2h-1.2c-50.3 14.5-78.3 64.4-81.3 70-1.6 2.9-4.7 4.6-7.9 4.6zM273.9 157.5c-3.2 0-6.3-1.7-7.9-4.8-5-9.2-32.2-55.8-81.2-69.9-.3 0-.5-.1-.9-.1h-.3c-12.1 1.7-40.2 9.4-41.1 44.3-.1 5-4.1 8.8-9.2 8.8-5-.1-8.9-4.3-8.8-9.2 1-39.7 29.9-57.9 56.5-61.6 1.8-.3 3.4-.3 5.1-.1 1.5.1 2.6.4 3.5.6 56 16.2 86.6 68.4 92.2 78.6 2.4 4.4.7 9.9-3.6 12.2-1.4.9-2.9 1.2-4.3 1.2z"/><path fill="#1B2733" d="M388.2 82.8c-2.1 0-4-.7-5.8-2.1-26.9-22.5-61-34.9-96.2-34.9-34.8 0-68.6 12.1-95.3 34.2-3.8 3.1-9.5 2.6-12.7-1.2s-2.6-9.5 1.2-12.7c30-24.7 67.8-38.4 106.8-38.4 39.3 0 77.6 13.9 107.7 39.1 3.8 3.2 4.4 8.8 1.1 12.7-1.7 2.3-4.3 3.3-6.8 3.3zM239.5 358.9c-6.5 0-12.6-3.5-15.9-9.4-3.9-7-2.8-15.5 2.7-21.1l.2-.2c3.5-3.4 9.2-3.4 12.7 0s3.5 9 .2 12.6l.2.2 18.6-4.1c18.5-4.1 38-4.1 56.4 0L333 341c.1 0 .2-.1.3-.2-3.4-3.5-3.4-9.1.1-12.7 3.3-3.3 8.6-3.5 12.1-.5.3.2.5.5.8.7 5.6 5.8 6.6 14.3 2.8 21.3-4 7.2-12 10.8-20 9l-18.5-4.1c-15.9-3.5-32.7-3.5-48.5 0l-18.5 4.1c-1.4.2-2.8.3-4.1.3zM268.3 318.7c-1.1 0-2.3-.2-3.4-.6-4.6-1.9-6.8-7.2-5-11.7 4.4-10.7 14.7-17.6 26.5-17.6 11.4 0 21.7 6.6 26.1 16.9 2 4.6-.1 9.9-4.7 11.8-4.6 2-9.9-.1-11.8-4.7-1.7-3.7-5.4-6.1-9.6-6.1-4.3 0-8.2 2.6-9.8 6.4-1.3 3.5-4.8 5.6-8.3 5.6zM347.4 255.7c-3.1 0-6.1-1.6-7.8-4.5-4.9-8.3-13.8-13.5-23.3-13.5-5 0-9-4-9-9s4-9 9-9c16 0 30.9 8.6 38.9 22.5 2.5 4.3 1 9.8-3.2 12.3-1.4.8-3 1.2-4.6 1.2zM226.3 255.7c-1.6 0-3.1-.4-4.5-1.2-4.3-2.5-5.7-8-3.2-12.3 8.1-13.9 22.9-22.5 38.9-22.5 5 0 9 4 9 9s-4 9-9 9c-9.5 0-18.6 5.2-23.3 13.5-1.8 3-4.8 4.5-7.9 4.5zM256.4 279.8c-8.3 0-15-6.7-15-15s6.7-15 15-15 15 6.7 15 15c-.1 8.3-6.8 15-15 15zM316.3 279.8c-8.3 0-15-6.7-15-15s6.7-15 15-15 15 6.7 15 15-6.8 15-15 15zM230.2 564c-2 0-4-.6-5.7-2.1-2.3-1.9-56.3-47.2-73.8-123.4-.2-.8-.4-1.7-.5-2.5-16.1 13-44.9 37.7-59.2 59.5-2.7 4.1-8.3 5.3-12.4 2.6-4.1-2.7-5.3-8.3-2.6-12.4 22.3-34 73-71.6 75.2-73.2 2.6-1.9 5.9-2.3 8.8-1 2.9 1.2 5 3.9 5.4 7.1.7 5.3 1.8 10.7 3 15.9 16.2 70.4 67.2 113.2 67.7 113.7 3.8 3.2 4.4 8.8 1.2 12.7-1.9 2.1-4.5 3.1-7.1 3.1zM489.7 497.2c-2.9 0-5.8-1.5-7.6-4-14.4-22.1-44.3-45.7-60.7-57.8l-.3 1.2c-1 4.9-5.8 7.9-10.7 6.8-4.9-1-7.9-5.8-6.8-10.7 1.1-5 2-9.6 2.6-14.2.4-3.1 2.4-5.7 5.2-7 2.8-1.2 6.1-1 8.7.7 2.2 1.5 54.8 36.7 77.1 71 2.7 4.1 1.6 9.8-2.6 12.4-1.5 1.2-3.3 1.6-4.9 1.6z"/><path fill="#1B2733" d="M341.2 564c-2.6 0-5.3-1.1-7.1-3.3-3.1-3.8-2.5-9.4 1.3-12.6l.2-.2c2.2-1.8 52.4-45.2 67.7-115 1-4.9 5.9-7.9 10.7-6.8 4.9 1 7.9 5.9 6.8 10.7-16.4 74.5-67.8 119.9-73.7 124.9l-.5.5c-1.3 1.2-3.4 1.8-5.4 1.8zM267.7 436.4c-1.3 0-2.6-.1-3.9-.3-.2 0-.4-.1-.5-.1-45.3-10.6-79.7-49.2-81.6-91.8 0-.3-.1-.9-.1-1.6-.2-7.2.3-14.5 1.7-21.5.9-5.3 2.5-10.8 4.5-16.2 1.5-3.9 2.7-6.8 3.7-9.2 2.6-6 2.6-6-.7-17.7-1.1-4.1-2-8-2.6-11.4-.4-3.1-.6-5.6-.6-7.9 0-39.1 28.5-75.4 69.3-88.3 4.8-1.5 9.8 1.1 11.3 5.9 1.5 4.8-1.1 9.8-5.9 11.3-33.4 10.5-56.7 39.7-56.7 71.1 0 1.5.1 3.1.4 5.3.4 2.7 1.1 5.8 2.1 9.2 4.5 15.8 4.8 18.5 0 29.7-.9 2.2-2.1 4.9-3.4 8.5-1.7 4.4-2.9 8.8-3.7 13.2-1.1 5.8-1.6 11.7-1.3 17.8v1c1.6 34 30.5 66.3 67.4 75 1.9.2 3.6-.4 5.4-1.9 3-2.5 5-6.8 5-10.8 0-5 4-9 9-9s9 4 9 9c0 9.2-4.4 18.7-11.3 24.6-5 4-10.7 6.1-16.5 6.1z"/><path fill="#1B2733" d="M305.4 436.4c-6.1 0-12.1-2.4-17.2-6.7-6.8-6-11-14.9-11-24 0-5 4-9 9-9s9 4 9 9c0 3.8 1.9 7.9 4.8 10.5 1.3 1.1 3.4 2.5 5.8 2.3 37.2-8.6 65.5-40.1 67.2-75.1 0-1.1.1-2.3.1-3.5 0-5.1-.5-10.3-1.5-15.2-.8-4.7-2.2-9.2-3.8-13.7-1.2-3.4-2.4-5.9-3.2-8-4.8-11.2-4.4-13.7 0-29.5.9-3.5 1.7-6.7 2.1-9.3.3-1.9.4-3.6.4-5.2 0-31.3-23.3-60.7-56.6-71.2-4.8-1.5-7.4-6.5-5.9-11.3s6.5-7.4 11.3-5.9c40.8 12.9 69.3 49.3 69.3 88.4 0 2.5-.2 5.1-.6 7.9-.5 3.3-1.2 7.2-2.5 11.4-3.2 11.8-3.2 11.8-.7 17.6.9 2.2 2.1 5 3.5 8.6 2.1 5.4 3.6 11 4.7 16.7 1.1 6.1 1.8 12.3 1.8 18.6 0 1.5 0 2.9-.1 4.4-2.2 43-36.5 81.7-81.7 91.9-.3.1-.5.1-.8.1-1.3.1-2.3.2-3.4.2zM201.1 428.9c-3.1 0-6.1-1.6-7.8-4.5-14.2-24.2-18.4-53.5-11.6-82.7 1.1-4.9 5.9-7.9 10.8-6.7s7.9 5.9 6.7 10.8c-5.7 24.6-2.3 49.3 9.6 69.5 2.5 4.3 1 9.8-3.2 12.3-1.4.8-3 1.3-4.5 1.3z"/><path fill="#1B2733" d="M298.4 474.7c-1.3 0-17.4-.1-20.6-.3-36.3-2.2-67-20.4-84.3-50-2.5-4.3-1-9.8 3.2-12.3 4.3-2.5 9.8-1 12.3 3.2 14.4 24.6 39.3 39.2 70 41.1 1.3.1 7.3.2 12.3.2 3.4-8 10.6-11.2 14.8-11.8l2.6 17.8s.2 0 .4-.1c-1 .3-1.6 1.5-1.7 3.5-.3 4.9-4.2 8.7-9 8.7zM285 568.6c-10.1 0-20.2-.5-30.1-1.3-8.6-.7-17.4-1.9-26-3.3-17.9-3-35.8-7.5-52.8-13.4-33.1-11.1-64.2-27.4-92.5-48.4-2-1.5-3.7-2.9-5.6-4.4-3.9-3.1-4.6-8.7-1.6-12.7 3-3.9 8.7-4.6 12.7-1.6 1.8 1.3 3.5 2.7 5.3 4 26.8 19.9 56.2 35.4 87.6 45.9 16.2 5.6 33 9.9 49.9 12.7 8.2 1.3 16.5 2.4 24.7 3.1 23.9 2.3 48.8 1.6 72.1-1.7 4.3-.6 8-1.1 11.5-1.8 52.4-9 102.2-31.4 144-64.6 3.8-3.1 9.5-2.5 12.7 1.5 3.1 3.8 2.5 9.5-1.5 12.7-44.2 35.1-96.8 58.7-152.1 68.3-3.7.6-7.7 1.2-12.1 1.9-15.2 2.1-30.6 3.1-46.2 3.1z"/><g><path fill="#1B2733" d="M412.4 443.8c-1.3 0-2.7-.3-3.9-.8-14-6.6-28.6-12.2-43.4-16.5-4.8-1.3-7.6-6.3-6.1-11.1 1.3-4.8 6.3-7.6 11.1-6.1 15.7 4.5 31.1 10.4 46 17.4 3.1 1.3 5.4 4.6 5.4 8.2-.1 4.9-4.1 8.9-9.1 8.9z"/></g><g><path fill="#1B2733" d="M159.5 445.6c-5 0-9-4-9-9 0-3.7 2.3-7 5.5-8.3 13.7-6.7 28-12.4 42.4-17 .8-.3 1.8-.4 2.7-.4 5 0 9 4 9 9 0 4.1-2.8 7.7-6.7 8.7-13.6 4.3-27 9.6-39.9 16.1-1.2.6-2.7.9-4 .9z"/></g><g><path class="star star-1" fill="#FAB739" d="M107.8 371.2c-3.3 0-6-2.7-6-6 0-5-4-9-9-9-3.3 0-6-2.7-6-6s2.7-6 6-6c5 0 9-4 9-9 0-3.3 2.7-6 6-6s6 2.7 6 6c0 5 4 9 9 9 3.3 0 6 2.7 6 6s-2.7 6-6 6c-5 0-9 4-9 9-.1 3.3-2.7 6-6 6z"/></g><g><path class="star star-2" fill="#E9606F" d="M76.4 429.7c-5 0-9-4-9-9s4-9 9-9 9 4 9 9c0 4.9-4 9-9 9zm0-12c-1.7 0-3 1.3-3 3s1.3 3 3 3 3-1.3 3-3-1.3-3-3-3z"/></g><g><path class="star star-3" fill="#39BCEB" d="M452.6 374.2c-3.3 0-6-2.7-6-6 0-1.7-1.3-3-3-3-3.3 0-6-2.7-6-6s2.7-6 6-6c1.7 0 3-1.3 3-3 0-3.3 2.7-6 6-6s6 2.7 6 6c0 1.7 1.3 3 3 3 3.3 0 6 2.7 6 6s-2.7 6-6 6c-1.7 0-3 1.3-3 3 .1 3.3-2.6 6-6 6z"/></g><g><path class="star star-4" fill="#FAB739" d="M530.5 320.3c-3.3 0-6-2.7-6-6 0-5-4-9-9-9-3.3 0-6-2.7-6-6s2.7-6 6-6c5 0 9-4 9-9 0-3.3 2.7-6 6-6s6 2.7 6 6c0 5 4 9 9 9 3.3 0 6 2.7 6 6s-2.7 6-6 6c-5 0-9 4-9 9 .1 3.3-2.6 6-6 6z"/></g><g><path class="star star-5" fill="#FAB739" d="M496 429.7c-5 0-9-4-9-9s4-9 9-9 9 4 9 9c0 4.9-4 9-9 9zm0-12c-1.7 0-3 1.3-3 3s1.3 3 3 3 3-1.3 3-3-1.3-3-3-3z"/></g><g><path class="star star-6" fill="#E9606F" d="M510.9 216.7c-5 0-9-4-9-9s4-9 9-9 9 4 9 9-4 9-9 9zm0-11.9c-1.7 0-3 1.3-3 3s1.3 3 3 3 3-1.3 3-3-1.3-3-3-3z"/></g><g><path class="star star-7" fill="#E9606F" d="M64.2 204.8c-5 0-9-4-9-9s4-9 9-9 9 4 9 9-4.1 9-9 9zm0-12c-1.7 0-3 1.3-3 3s1.3 3 3 3 3-1.3 3-3-1.4-3-3-3z"/></g></svg>