<?xml version="1.0" encoding="UTF-8" standalone="no"?>
<svg width="400px" height="400px" viewBox="0 0 400 400" version="1.1" xmlns="http://www.w3.org/2000/svg" xmlns:xlink="http://www.w3.org/1999/xlink">
    <!-- Generator: Sketch 3.8.3 (29802) - http://www.bohemiancoding.com/sketch -->
    <title>genie</title>
    <desc>Created with Sketch.</desc>
    <defs>
        <rect id="path-1" x="0.327967807" y="0" width="64.150503" height="163.101006"></rect>
        <rect id="path-3" x="0.262374245" y="0.328303152" width="122.266398" height="43.4016767"></rect>
        <rect id="path-5" x="0.196780684" y="0.525285044" width="30.6321932" height="14.1826962"></rect>
        <rect id="path-7" x="0.196780684" y="0.459624413" width="15.7424547" height="7.87927565"></rect>
    </defs>
    <g id="Page-1" stroke="none" stroke-width="1" fill="none" fill-rule="evenodd">
        <g id="genie">
            <g transform="translate(43.000000, 22.000000)" id="Layer_1">
                <g>
                    <g id="Group">
                        <path d="M262.177465,75.509725 C267.359356,90.6773307 274.24668,121.537827 258.438632,148.655667 C257.454728,146.948491 256.208451,145.438296 254.634205,144.059423 C234.169014,127.512944 190.024547,91.9248826 183.26841,87.065996 C183.26841,87.065996 211.276861,62.7715627 248.140443,64.675721 C249.583501,64.7413816 251.026559,65.0040241 252.272837,65.4636486 C256.798793,67.1051643 260.537626,70.7821596 262.177465,75.509725" id="Shape" fill="#D8E5EA"></path>
                        <path d="M193.238632,82.27277 C193.238632,82.27277 219.410463,91.7279007 235.480885,100.526425 C240.334809,103.15285 246.303823,100.132461 246.959759,94.6826291 C248.140443,86.343729 248.796378,75.3784038 246.566197,67.4991281 L258.307445,73.4085848 L265.457143,110.572502 L258.7666,141.826962 L248.927565,137.690342 L193.107445,92.5814889 L188.319115,87.1973172 L193.238632,82.27277 L193.238632,82.27277 Z" id="Shape" fill="#BAD2D8"></path>
                        <path d="M258.438632,148.721328 C261.324748,153.711536 261.259155,160.014956 257.913883,165.070825 C250.30503,176.430114 236.85835,191.400738 219.279276,191.006774 C223.674044,187.395439 226.494567,181.879946 226.494567,175.839168 C226.494567,166.187056 219.54165,158.110798 210.358551,156.469282 C210.555332,154.959088 210.686519,153.514554 210.686519,152.267002 C210.686519,127.906908 192.320322,107.092488 169.362575,99.8698189 L169.362575,87.1973172 C169.362575,87.1973172 174.282093,80.7625755 183.137223,87.1973172 C189.89336,92.1218645 234.037827,127.644266 254.503018,144.190744 C256.208451,145.503957 257.520322,147.079812 258.438632,148.721328" id="Shape" fill="#FFFFFF"></path>
                        <path d="M211.80161,191.794702 C211.276861,188.839973 210.424145,185.950905 209.374648,183.127498 C208.587525,180.960698 207.800402,179.253521 207.275654,177.940309 C203.864789,169.929712 204.25835,167.959893 207.21006,157.322871 C207.800402,155.090409 208.259557,153.12059 208.521932,151.413414 L209.702616,143.337156 L217.70503,144.847351 C230.758149,147.211133 240.203622,158.701744 240.203622,171.965191 C240.203622,180.304091 236.530382,188.052046 230.03662,193.304896 C227.740845,195.209054 225.051509,192.845272 222.165392,193.895842 L213.507042,200.921529 L211.80161,191.794702 L211.80161,191.794702 Z" id="Shape" fill="#D8E5EA"></path>
                        <path d="M219.279276,191.072435 C217.639437,192.451308 215.737223,193.501878 213.703823,194.289805 C213.047887,190.809792 212.129577,187.4611 210.8833,184.30939 C206.488531,172.556137 205.570221,175.445205 208.915493,163.297988 C209.571429,160.934205 210.096177,158.570423 210.424145,156.403622 C219.54165,158.110798 226.560161,166.121395 226.560161,175.773508 C226.494567,181.945607 223.674044,187.4611 219.279276,191.072435" id="Shape" fill="#3278BD"></path>
                        <path d="M236.202414,257.914956 C236.202414,257.914956 270.901408,281.15882 285.135211,302.892488 C257.520322,324.888799 224.32998,340.187726 188.05674,346.556808 C191.336419,343.7334 224.133199,314.777062 234.431388,267.764051 L234.431388,267.764051 C235.087324,264.54668 235.74326,261.263649 236.202414,257.914956" id="Shape" fill="#E9606F"></path>
                        <path d="M262.571026,318.585379 C270.37666,313.792153 277.91992,308.604963 285.069618,302.892488 C270.901408,281.15882 236.136821,258.440241 236.136821,258.440241 C235.677666,261.788934 235.02173,264.743662 234.365795,268.6833 L234.365795,268.6833 C232.922736,274.592757 230.95493,281.15882 228.790342,287.002616 C239.022938,294.881891 253.453521,306.503823 262.571026,318.585379" id="Shape" fill="#D34C60"></path>
                        <path d="M252.207243,65.5949698 C250.895372,65.1353454 249.517907,64.9383635 248.074849,64.8070423 C211.276861,62.902884 183.202817,87.1973172 183.202817,87.1973172 C174.347686,80.7625755 169.428169,87.1973172 169.428169,87.1973172 L159.654728,80.6312542 C159.654728,80.6312542 178.939235,42.0228035 216.917907,31.0574782 C217.442656,30.9261569 218.032998,30.7948357 218.557746,30.7948357 C219.082495,30.7291751 219.672837,30.7291751 220.197586,30.8604963 C227.019316,31.7797451 251.420121,37.2295775 252.207243,65.5949698" id="Shape" fill="#FFFFFF"></path>
                        <path d="M219.279276,191.072435 C217.639437,192.451308 215.737223,193.501878 213.703823,194.289805 C213.047887,190.809792 212.129577,187.4611 210.8833,184.30939 C206.488531,172.556137 205.570221,175.445205 208.915493,163.297988 C209.571429,160.934205 210.096177,158.570423 210.424145,156.403622 C219.54165,158.110798 226.560161,166.121395 226.560161,175.773508 C226.494567,181.945607 223.674044,187.4611 219.279276,191.072435" id="Shape" fill="#3278BD"></path>
                        <path d="M218.557746,30.7291751 L218.557746,30.7291751 C218.032998,30.7948357 217.442656,30.8604963 216.917907,30.9918176 C178.873642,41.9571429 159.654728,80.5655936 159.654728,80.5655936 L151.783501,75.3127431 L144.043461,80.4999329 C143.059557,78.6614353 123.906237,41.6945003 86.8458753,30.9918176 C86.4523139,30.8604963 85.993159,30.7948357 85.534004,30.7948357 L85.5995976,30.2695506 C103.637827,15.3645875 126.726761,6.43474178 151.849095,6.43474178 C177.102616,6.50040241 200.453924,15.62723 218.557746,30.7291751" id="Shape" fill="#D8E5EA"></path>
                        <path d="M154.800805,53.7760563 L154.669618,53.7103957 C152.832998,52.4628437 150.537223,52.4628437 148.766197,53.7103957 L148.766197,53.7103957 C146.273642,55.4175721 142.862777,54.6953052 141.222938,52.0688799 C136.303421,44.058283 124.824547,27.8401073 106.917505,16.5464789 C99.1774648,20.2234742 91.962173,24.8853789 85.4028169,30.2695506 L85.3372233,30.7948357 C85.7963783,30.7948357 86.1899396,30.9261569 86.6490946,30.9918176 C123.709457,41.6945003 142.993964,78.6614353 143.84668,80.4999329 L151.58672,75.3127431 L159.457948,80.5655936 C159.457948,80.5655936 178.808048,41.9571429 216.721127,30.9918176 C217.245875,30.8604963 218.426559,30.7291751 218.426559,30.7291751 L218.426559,30.6635144 C212.523139,25.0823608 204.389537,20.2891348 196.452716,16.5464789 C178.545674,27.8401073 167.132394,44.058283 162.147284,52.0688799 C160.769819,54.7609658 157.358954,55.4832327 154.800805,53.7760563" id="Shape" fill="#BAD2D8"></path>
                        <path d="M214.75332,208.012877 C218.951308,226.397854 214.950101,243.469618 205.045473,256.601744 C196.124748,268.354997 182.415694,276.956539 165.426962,280.17391 C165.426962,280.17391 159.851509,280.961838 159.589135,288.053186 C157.818109,288.053186 148.241449,287.987525 146.470423,287.856204 C123.053521,286.41167 105.605634,274.592757 95.7665996,257.980617 L95.7665996,257.980617 C87.3706237,243.6666 84.6812877,225.872569 88.7480885,208.078538 L88.8136821,208.078538 C90.0599598,234.474111 112.033803,256.864386 137.812072,262.839504 C145.355332,264.152716 151.652314,256.273441 151.652314,248.656808 C151.652314,256.273441 158.146076,263.824413 165.558149,262.839504 C191.664386,256.930047 213.244668,234.802414 214.556539,208.012877 L214.75332,208.012877 L214.75332,208.012877 Z" id="Shape" fill="#638389"></path>
                        <path d="M214.687726,205.386452 C214.687726,206.24004 214.687726,207.159289 214.622133,207.947217 C213.244668,234.736754 191.72998,256.864386 165.623742,262.773843 C158.21167,263.758753 151.717907,256.142119 151.717907,248.591147 C151.717907,256.20778 145.420926,263.955734 137.877666,262.773843 C112.099396,256.798726 90.1255533,234.34279 88.8792757,208.012877 C88.8792757,207.750235 88.8136821,207.553253 88.8136821,207.29061 C88.682495,202.891348 89.0104628,198.492086 89.8631791,194.355466 C90.4535211,191.006774 91.4374245,187.789403 92.5525151,184.703353 C96.9472837,172.753119 98.0623742,175.576526 94.5859155,163.363649 C93.9299799,161.065526 93.4052314,158.701744 93.0772636,156.534943 C92.8804829,155.024748 92.7492958,153.580215 92.7492958,152.267002 C92.7492958,127.906908 111.115493,107.158149 134.073239,99.8698189 L134.073239,110.900805 L151.783501,122.654058 L169.493763,110.900805 L169.493763,99.8698189 C192.451509,107.158149 210.817706,127.841247 210.817706,152.267002 C210.817706,153.580215 210.686519,154.959088 210.489738,156.469282 C210.161771,158.636083 209.702616,160.934205 208.981087,163.363649 C205.635815,175.510865 206.554125,172.556137 210.948893,184.37505 C212.195171,187.592421 213.113481,190.941113 213.769416,194.355466 C214.294165,197.83548 214.687726,201.643796 214.687726,205.386452" id="Shape" fill="#1F9DD6"></path>
                        <path d="M214.687726,205.386452 C214.687726,206.24004 214.687726,207.159289 214.622133,207.947217 C213.244668,234.736754 191.72998,256.864386 165.623742,262.773843 C158.21167,263.758753 151.717907,256.142119 151.717907,248.591147 C151.717907,256.20778 145.420926,263.955734 137.877666,262.773843 C112.099396,256.798726 90.1255533,234.34279 88.8792757,208.012877 C88.8792757,207.750235 88.8136821,207.553253 88.8136821,207.29061 C88.682495,202.891348 89.0104628,198.492086 89.8631791,194.355466 C90.4535211,191.006774 91.4374245,187.789403 92.5525151,184.703353 C96.9472837,172.753119 98.0623742,175.576526 94.5859155,163.363649 C93.9299799,161.065526 93.4052314,158.701744 93.0772636,156.534943 C92.8804829,155.024748 92.7492958,153.580215 92.7492958,152.267002 C92.7492958,127.906908 111.115493,107.158149 134.073239,99.8698189 L134.073239,110.900805 L151.783501,122.654058 L169.493763,110.900805 L169.493763,99.8698189 C192.451509,107.158149 210.817706,127.841247 210.817706,152.267002 C210.817706,153.580215 210.686519,154.959088 210.489738,156.469282 C210.161771,158.636083 209.702616,160.934205 208.981087,163.363649 C205.635815,175.510865 206.554125,172.556137 210.948893,184.37505 C212.195171,187.592421 213.113481,190.941113 213.769416,194.355466 C214.294165,197.83548 214.687726,201.643796 214.687726,205.386452" id="Shape" fill="#1F9DD6"></path>
                        <path d="M214.687726,205.386452 C214.687726,206.24004 214.687726,207.159289 214.622133,207.947217 C213.244668,234.736754 191.72998,256.864386 165.623742,262.773843 C158.21167,263.758753 151.717907,256.142119 151.717907,248.591147 C151.717907,256.20778 145.420926,263.955734 137.877666,262.773843 C112.099396,256.798726 90.1255533,234.34279 88.8792757,208.012877 C88.8792757,207.750235 88.8136821,207.553253 88.8136821,207.29061 C88.682495,202.891348 89.0104628,198.492086 89.8631791,194.355466 C90.4535211,191.006774 91.4374245,187.789403 92.5525151,184.703353 C96.9472837,172.753119 98.0623742,175.576526 94.5859155,163.363649 C93.9299799,161.065526 93.4052314,158.701744 93.0772636,156.534943 C92.8804829,155.024748 92.7492958,153.580215 92.7492958,152.267002 C92.7492958,127.906908 111.115493,107.158149 134.073239,99.8698189 L134.073239,110.900805 L151.783501,122.654058 L169.493763,110.900805 L169.493763,99.8698189 C192.451509,107.158149 210.817706,127.841247 210.817706,152.267002 C210.817706,153.580215 210.686519,154.959088 210.489738,156.469282 C210.161771,158.636083 209.702616,160.934205 208.981087,163.363649 C205.635815,175.510865 206.554125,172.556137 210.948893,184.37505 C212.195171,187.592421 213.113481,190.941113 213.769416,194.355466 C214.294165,197.83548 214.687726,201.643796 214.687726,205.386452" id="Shape" fill="#1F9DD6"></path>
                        <path d="M214.687726,205.386452 C214.687726,206.24004 214.687726,207.159289 214.622133,207.947217 C213.244668,234.736754 191.72998,256.864386 165.623742,262.773843 C158.21167,263.758753 151.717907,256.142119 151.717907,248.591147 C151.717907,256.20778 145.420926,263.955734 137.877666,262.773843 C112.099396,256.798726 90.1255533,234.34279 88.8792757,208.012877 C88.8792757,207.750235 88.8136821,207.553253 88.8136821,207.29061 C88.682495,202.891348 89.0104628,198.492086 89.8631791,194.355466 C90.4535211,191.006774 91.4374245,187.789403 92.5525151,184.703353 C96.9472837,172.753119 98.0623742,175.576526 94.5859155,163.363649 C93.9299799,161.065526 93.4052314,158.701744 93.0772636,156.534943 C92.8804829,155.024748 92.7492958,153.580215 92.7492958,152.267002 C92.7492958,127.906908 111.115493,107.158149 134.073239,99.8698189 L134.073239,110.900805 L151.783501,122.654058 L169.493763,110.900805 L169.493763,99.8698189 C192.451509,107.158149 210.817706,127.841247 210.817706,152.267002 C210.817706,153.580215 210.686519,154.959088 210.489738,156.469282 C210.161771,158.636083 209.702616,160.934205 208.981087,163.363649 C205.635815,175.510865 206.554125,172.556137 210.948893,184.37505 C212.195171,187.592421 213.113481,190.941113 213.769416,194.355466 C214.294165,197.83548 214.687726,201.643796 214.687726,205.386452" id="Shape" fill="#1F9DD6"></path>
                        <path d="M108.557344,208.012877 C108.557344,207.750235 108.491751,207.553253 108.491751,207.29061 C108.360563,202.891348 108.688531,198.492086 109.541247,194.289805 C110.13159,190.941113 111.115493,187.723742 112.230584,184.637693 C116.625352,172.687458 117.740443,175.510865 114.263984,163.297988 C113.608048,160.999866 113.0833,158.636083 112.755332,156.469282 C112.558551,154.959088 112.361771,153.514554 112.361771,152.201341 C112.361771,135.39222 120.167404,120.355936 133.942052,110.244199 L133.942052,99.8698189 C110.32837,107.158149 92.6181087,127.775587 92.6181087,152.267002 C92.6181087,153.645875 92.7492958,155.090409 92.9460765,156.534943 C93.2740443,158.701744 93.7987928,160.999866 94.4547284,163.363649 C97.9311871,175.642186 96.8160966,172.753119 92.421328,184.703353 C91.2406439,187.855064 90.322334,191.006774 89.731992,194.355466 C88.9448692,198.492086 88.5513078,202.891348 88.682495,207.356271 C88.682495,207.618913 88.682495,207.815895 88.7480885,208.078538 C89.9943662,234.474111 111.968209,256.864386 137.746479,262.839504 C141.354125,263.430449 144.633803,261.985915 147.126358,259.490812 C126.136419,250.560966 109.541247,230.862777 108.557344,208.012877" id="Shape" fill="#39BCEB"></path>
                        <g id="Clipped" transform="translate(150.209256, 99.804158)">
                            <mask id="mask-2" fill="white">
                                <use xlink:href="#path-1"></use>
                            </mask>
                            <g id="SVGID_1_"></g>
                            <path d="M63.3633803,94.4199866 C62.7074447,90.9399732 61.7891348,87.591281 60.5428571,84.4395708 C56.1480885,72.6863179 55.2297787,75.5753856 58.5750503,63.428169 C59.2309859,61.0643863 59.7557344,58.7006036 60.0837022,56.5338028 C60.2804829,55.0236083 60.41167,53.5790744 60.41167,52.3315225 C60.41167,27.9714286 42.0454728,7.15700872 19.0877264,-0.0656606304 L13.1843058,10.3743796 C26.1062374,20.5517773 34.8301811,35.5880617 34.8301811,52.3971831 C34.8301811,53.7103957 34.698994,55.0892689 34.5022133,56.5994634 C34.1742455,58.7662643 33.7150905,61.0643863 32.9935614,63.4938296 C29.6482897,75.6410463 30.5665996,72.6863179 34.9613682,84.5052314 C36.2076459,87.7226023 37.1259557,91.0712944 37.7818913,94.4856472 C38.437827,98.0969819 38.8313883,101.839638 38.8313883,105.582294 C38.8313883,106.435882 38.8313883,107.355131 38.7657948,108.143058 C37.5851107,131.2556 21.383501,150.822468 0.262374245,159.620993 C2.68933602,161.984775 11.8724346,163.429309 15.3488934,162.969685 C41.4551308,157.060228 63.0354125,134.932596 64.3472837,108.143058 C64.4128773,107.28947 64.4128773,106.435882 64.4128773,105.582294 C64.4784708,101.839638 64.0849095,98.0313213 63.3633803,94.4199866" id="Shape" fill="#3278BD" mask="url(#mask-2)"></path>
                        </g>
                        <path d="M234.431388,267.764051 C224.133199,314.711402 191.270825,343.799061 188.05674,346.556808 C185.498592,347.016432 182.874849,347.344735 180.3167,347.804359 C170.74004,349.183233 160.901006,349.774178 150.930785,349.774178 C144.437022,349.774178 138.074447,349.511536 131.711871,348.92059 C126.070825,348.460966 120.560966,347.673038 115.051107,346.81945 C115.051107,346.81945 79.8273642,317.66613 68.6764588,268.945942 C77.4004024,264.678001 86.5179074,261.001006 95.9633803,257.980617 L95.9633803,257.980617 C105.671227,274.592757 123.184708,286.477331 146.667203,287.856204 C148.372636,287.987525 158.014889,288.053186 159.785915,288.053186 C160.113883,280.961838 165.623742,280.17391 165.623742,280.17391 C182.481288,276.956539 196.255936,268.420657 205.242254,256.601744 C215.212475,259.490812 225.051509,263.233467 234.431388,267.764051" id="Shape" fill="#1F9DD6"></path>
                        <path d="M234.431388,267.764051 C224.133199,314.711402 191.270825,343.799061 188.05674,346.556808 C185.498592,347.016432 182.874849,347.344735 180.3167,347.804359 C170.74004,349.183233 160.901006,349.774178 150.930785,349.774178 C144.437022,349.774178 138.074447,349.511536 131.711871,348.92059 C126.070825,348.460966 120.560966,347.673038 115.051107,346.81945 C115.051107,346.81945 79.8273642,317.66613 68.6764588,268.945942 C77.4004024,264.678001 86.5179074,261.001006 95.9633803,257.980617 L95.9633803,257.980617 C105.671227,274.592757 123.184708,286.477331 146.667203,287.856204 C148.372636,287.987525 158.014889,288.053186 159.785915,288.053186 C160.113883,280.961838 165.623742,280.17391 165.623742,280.17391 C182.481288,276.956539 196.255936,268.420657 205.242254,256.601744 C215.212475,259.490812 225.051509,263.233467 234.431388,267.764051" id="Shape" fill="#1F9DD6"></path>
                        <g id="Clipped" transform="translate(88.551308, 261.329309)">
                            <mask id="mask-4" fill="white">
                                <use xlink:href="#path-3"></use>
                            </mask>
                            <g id="SVGID_3_"></g>
                            <path d="M0.262374245,1.11623072 C0.262374245,1.11623072 16.4639839,55.1549296 83.6973843,41.5631791 C85.534004,41.2348759 86.8458753,39.5933602 86.8458753,37.6892019 L86.8458753,37.1639168 C86.8458753,35.6537223 87.6985915,34.2091885 89.0760563,33.6182428 C95.9633803,30.4008719 116.362978,19.5668679 122.528773,0.393963783 L110.393964,2.1668008 L73.3336016,23.4408451 L69.0700201,30.4008719 C69.0700201,30.4008719 27.0901408,26.7238766 7.21529175,1.18189135 L0.262374245,1.11623072 L0.262374245,1.11623072 L0.262374245,1.11623072 Z" id="Shape" fill="#3278BD" mask="url(#mask-4)"></path>
                        </g>
                        <path d="M230.95493,269.930852 L224.854728,265.334608 C224.854728,265.334608 210.948893,318.585379 171.986318,325.742388 C165.361368,326.792958 158.670825,327.383903 151.783501,327.383903 C145.224145,327.383903 138.795976,326.924279 132.4334,325.873709 C92.8804829,319.176325 78.8434608,265.334608 78.8434608,265.334608 L72.7432596,269.930852 C72.0873239,279.845607 80.6800805,297.442656 87.9609658,310.31214 C86.583501,309.524212 85.2716298,308.670624 83.894165,307.882696 C97.9967807,332.768075 114.91992,346.688129 114.91992,346.688129 C120.429779,347.541717 125.939638,348.329645 131.580684,348.789269 C137.877666,349.380215 144.305835,349.642857 150.799598,349.642857 C160.769819,349.642857 170.608853,348.986251 180.185513,347.673038 C182.743662,347.344735 185.367404,346.950771 187.925553,346.425486 C190.090141,344.586989 205.307847,331.126559 218.295372,308.539302 C217.442656,309.064588 216.58994,309.589873 215.737223,310.115158 C223.083702,297.311335 231.610865,279.779946 230.95493,269.930852" id="Shape" fill="#3278BD"></path>
                        <polygon id="Shape" fill="#FAB739" points="143.912274 80.5655936 151.783501 75.3784038 159.589135 80.6312542 169.428169 87.1973172 169.428169 99.8041583 169.428169 110.835144 151.783501 122.588397 134.007646 110.835144 134.007646 99.8041583 134.007646 87.1973172 134.401207 87.0003353"></polygon>
                        <polygon id="Shape" fill="#FFD46B" points="159.589135 80.6312542 158.277264 79.8433266 133.942052 100.854728 133.942052 110.835144 145.420926 118.451777 163.590342 83.5203219 165.492555 84.8991952"></polygon>
                        <path d="M143.912274,80.5655936 L134.335614,87.0003353 C133.286117,85.8841046 128.56338,81.6161636 120.82334,87.1973172 C120.82334,87.1973172 120.757746,87.1973172 120.757746,87.2629779 L120.692153,87.1973172 C120.692153,87.1973172 92.6837022,62.902884 55.8201207,64.8070423 C54.2458753,64.8727029 52.7372233,65.1353454 51.4253521,65.6606304 L51.4253521,65.5949698 C52.0812877,37.2295775 76.6132797,31.7797451 83.4350101,30.8604963 C84.0909457,30.7948357 84.7468813,30.7291751 85.4028169,30.8604963 C85.8619718,30.8604963 86.2555332,30.9918176 86.7146881,31.0574782 C123.77505,41.760161 143.059557,78.7270959 143.912274,80.5655936" id="Shape" fill="#FFFFFF"></path>
                        <path d="M134.401207,87.0003353 L134.007646,87.1973172 L134.007646,99.8041583 C111.049899,107.092488 92.6837022,127.709926 92.6837022,152.201341 C92.6837022,153.580215 92.8148893,155.024748 93.01167,156.469282 L92.6181087,156.534943 C83.6973843,158.373441 76.8756539,166.252716 76.8756539,175.839168 C76.8756539,181.945607 79.7617706,187.4611 84.0909457,191.072435 C66.7086519,191.138095 53.5243461,176.364453 45.9810865,165.136486 C42.6358149,160.080617 42.5702213,153.842857 45.456338,148.786989 C46.4402414,147.079812 47.6865191,145.503957 49.3263581,144.190744 C69.7259557,127.709926 113.673642,92.2531858 120.626559,87.2629779 C120.626559,87.2629779 120.692153,87.2629779 120.692153,87.1973172 C128.628974,81.550503 133.35171,85.8841046 134.401207,87.0003353" id="Shape" fill="#FFFFFF"></path>
                        <path d="M120.692153,87.1973172 L120.692153,87.1973172 C113.804829,92.2531858 69.7915493,127.709926 49.3919517,144.190744 C47.7521127,145.503957 46.505835,147.079812 45.5219316,148.786989 L45.456338,148.721328 C29.5826962,121.603488 36.5356137,90.7429913 41.717505,75.5753856 C43.2917505,70.8478203 46.9649899,67.2364856 51.4253521,65.7262911 C52.8028169,65.2666667 54.3114688,64.9383635 55.8201207,64.8727029 C92.6837022,62.8372233 120.692153,87.1973172 120.692153,87.1973172" id="Shape" fill="#D8E5EA"></path>
                        <path d="M68.5452716,268.880282 C79.6961771,317.600469 114.91992,346.753789 114.91992,346.753789 C103.375453,344.849631 92.0933602,341.960563 81.2704225,338.217907 C59.821328,330.995238 39.9464789,320.423877 22.2362173,307.22609 C20.9899396,306.372502 19.8748491,305.387592 18.6285714,304.534004 C32.7967807,282.800335 66.5118712,257.980617 66.5118712,257.980617 C67.0366197,261.657612 67.6925553,265.334608 68.5452716,268.880282" id="Shape" fill="#E9606F"></path>
                        <path d="M91.6997988,191.794702 C92.2245473,188.839973 93.0772636,185.950905 94.1267606,183.127498 C94.9138833,180.960698 95.6354125,179.253521 96.2257545,177.940309 C99.6366197,169.929712 99.2430584,167.959893 96.2913481,157.322871 C95.701006,155.090409 95.2418511,153.12059 94.9794769,151.413414 L93.7987928,143.337156 L85.7963783,144.847351 C72.7432596,147.211133 63.2977867,158.701744 63.2977867,171.965191 C63.2977867,180.304091 66.9710262,188.052046 73.4647887,193.304896 C75.7605634,195.209054 78.4498994,192.845272 81.3360161,193.895842 L90.0599598,201.05285 L91.6997988,191.794702 L91.6997988,191.794702 Z" id="Shape" fill="#D8E5EA"></path>
                        <path d="M74.1207243,287.133937 C71.9561368,281.421462 70.0539235,275.315023 68.5452716,268.880282 C67.7581489,265.334608 67.0366197,261.723273 66.5118712,257.914956 C66.5118712,257.914956 32.8623742,282.734675 18.6285714,304.468343 C19.8092555,305.453253 20.9899396,306.306841 22.2362173,307.160429 C28.3364185,311.756673 34.7645875,315.958954 41.3239437,319.832931 C50.3758551,307.882696 64.150503,295.407176 74.1207243,287.133937" id="Shape" fill="#EC677E"></path>
                        <path d="M84.2221328,191.072435 C79.8273642,187.4611 77.006841,181.945607 77.006841,175.839168 C77.006841,166.318377 83.7629779,158.373441 92.7492958,156.534943 L93.1428571,156.469282 C93.4708249,158.636083 93.9955734,160.934205 94.6515091,163.297988 C98.1279678,175.576526 97.0128773,172.687458 92.6181087,184.637693 C91.4374245,187.789403 90.5191147,190.941113 89.9287726,194.289805 C87.7641851,193.501878 85.8619718,192.385647 84.2221328,191.072435" id="Shape" fill="#39BCEB"></path>
                        <path d="M165.492555,286.083367 C162.672032,286.083367 160.24507,284.113548 159.720322,281.290141 C159.12998,278.07277 161.228974,275.052381 164.443058,274.395775 C179.39839,271.506707 192.123541,263.955734 200.453924,253.05607 C209.702616,240.843192 212.785513,225.347284 209.112274,209.32609 C208.390744,206.108719 210.358551,203.022669 213.507042,202.234742 C216.721127,201.512475 219.804024,203.482294 220.591147,206.634004 C225.051509,226.135211 221.247082,245.111133 209.833803,260.081757 C199.863581,273.279544 184.514688,282.472032 166.673239,285.886385 C166.214085,286.017706 165.820523,286.083367 165.492555,286.083367 L165.492555,286.083367 Z" id="Shape" fill="#1B2733"></path>
                        <path d="M151.783501,130.533333 C150.47163,130.533333 149.225352,130.13937 148.175855,129.285781 L130.465594,115.497049 C129.022535,114.380818 128.235412,112.607981 128.235412,110.835144 L128.235412,87.1316566 C128.235412,85.1618377 129.219316,83.32334 130.793561,82.2071093 L130.990342,82.0757881 L148.175855,68.6810195 C150.274849,67.0395037 153.292153,67.0395037 155.45674,68.6810195 L173.167002,82.4697518 C174.61006,83.5859826 175.397183,85.3588196 175.397183,87.1316566 L175.397183,110.769484 C175.397183,112.607981 174.61006,114.315158 173.167002,115.431388 L155.45674,129.220121 C154.276056,130.073709 152.964185,130.533333 151.783501,130.533333 L151.783501,130.533333 Z M139.911066,107.946076 L151.652314,117.138565 L163.393561,107.946076 L163.393561,90.086385 L151.652314,80.8938967 L139.845473,90.086385 L139.845473,107.946076 L139.911066,107.946076 L139.911066,107.946076 Z" id="Shape" fill="#1B2733"></path>
                        <path d="M89.8631791,200.199262 C89.2072435,200.199262 88.4857143,200.067941 87.8297787,199.805298 C85.1404427,198.754728 82.6478873,197.375855 80.4832998,195.603018 C74.5798793,190.744131 71.1034205,183.521462 71.1034205,175.839168 C71.1034205,163.691952 79.6961771,153.186251 91.5030181,150.756808 C94.7171026,150.100201 97.8,152.201341 98.4559356,155.418712 C99.1118712,158.636083 97.0128773,161.722133 93.7987928,162.378739 C87.5018109,163.691952 82.844668,169.404427 82.844668,175.839168 C82.844668,179.975788 84.6812877,183.849765 87.9609658,186.541851 C89.1416499,187.526761 90.3879276,188.249027 91.8965795,188.774313 C94.9794769,189.956204 96.5537223,193.370557 95.3730382,196.390946 C94.4547284,198.754728 92.2245473,200.199262 89.8631791,200.199262 L89.8631791,200.199262 Z" id="Shape" fill="#1B2733"></path>
                        <path d="M111.312274,82.27277 C111.312274,82.27277 85.1404427,91.7279007 69.0700201,100.526425 C64.2160966,103.15285 58.2470825,100.132461 57.5911469,94.6826291 C56.4104628,86.343729 55.7545272,75.3784038 57.9847082,67.4991281 L46.2434608,73.4085848 L39.0937626,110.572502 L45.7843058,141.826962 L55.62334,137.690342 L111.443461,92.5814889 L116.231791,87.1973172 L111.312274,82.27277 L111.312274,82.27277 Z" id="Shape" fill="#BAD2D8"></path>
                        <path d="M213.572636,200.199262 C211.211268,200.199262 208.849899,198.689068 208.062777,196.325285 C206.947686,193.239235 208.521932,189.824883 211.604829,188.774313 C212.982294,188.314688 214.294165,187.4611 215.474849,186.541851 C218.754527,183.915426 220.591147,179.975788 220.591147,175.839168 C220.591147,169.141784 215.802817,163.429309 209.374648,162.313078 C206.160563,161.722133 204.061569,158.636083 204.586318,155.418712 C205.17666,152.201341 208.259557,150.100201 211.473642,150.625486 C223.608451,152.857948 232.463581,163.429309 232.463581,175.839168 C232.463581,183.521462 229.052716,190.744131 223.083702,195.668679 C220.919115,197.507176 218.426559,198.88605 215.737223,199.870959 C214.950101,200.067941 214.294165,200.199262 213.572636,200.199262 L213.572636,200.199262 Z" id="Shape" fill="#1B2733"></path>
                        <path d="M220.000805,196.981891 L219.148089,196.981891 C218.885714,196.981891 218.426559,196.981891 217.967404,196.916231 C214.687726,196.653588 212.326358,193.830181 212.523139,190.61281 C212.785513,187.329779 215.606036,184.965996 218.820121,185.162978 L219.148089,185.162978 C233.841046,185.42562 245.647887,172.621797 252.928773,161.787793 C254.962173,158.701744 255.09336,154.827767 253.25674,151.610396 C252.666398,150.494165 251.813682,149.574916 250.829779,148.721328 C234.956137,135.917505 186.679276,96.9807512 179.726358,91.9248826 C175.593964,88.9044936 174.085312,90.6773307 174.085312,90.7429913 C172.117505,93.3037559 168.378672,93.8290409 165.75493,91.859222 C163.131187,89.8894031 162.672032,86.1467471 164.639839,83.5203219 C168.050704,79.1210597 176.643461,75.1814219 186.548089,82.3384306 C191.402012,85.818444 214.884507,104.531724 258.176258,139.52884 C260.340845,141.301677 262.111871,143.337156 263.423742,145.700939 C267.42495,152.857948 267.162575,161.45949 262.702213,168.222535 C254.043863,181.420322 239.547686,196.981891 220.000805,196.981891 L220.000805,196.981891 Z" id="Shape" fill="#1B2733"></path>
                        <path d="M84.0253521,196.981891 C64.4128773,196.981891 49.9167002,181.420322 41.2583501,168.353856 C36.7979879,161.590812 36.4044266,152.989269 40.4712274,145.897921 C41.8486922,143.468478 43.6197183,141.301677 45.7843058,139.660161 C88.9448692,104.860027 112.361771,86.1467471 117.346881,82.5354125 L117.346881,82.5354125 C117.412475,82.5354125 117.412475,82.4697518 117.478068,82.4697518 C127.251509,75.4440644 135.385111,79.4493628 138.730382,82.9950369 C139.123944,83.3890007 139.320724,83.6516432 139.320724,83.6516432 L129.940845,90.8743125 C129.940845,90.8743125 130.006439,91.0056338 130.203219,91.1369551 C130.137626,91.0712944 130.072032,91.0056338 130.072032,90.9399732 C128.956942,89.6924212 126.923541,90.1520456 124.365392,91.9905433 L124.365392,91.9905433 C124.299799,91.9905433 124.299799,92.0562039 124.234205,92.0562039 C119.314688,95.6018779 95.4386318,114.643461 53.1963783,148.786989 C52.2124748,149.574916 51.4253521,150.559826 50.7694165,151.676056 C48.9327968,154.893427 49.0639839,158.767404 51.0973843,161.853454 C58.2470825,172.556137 69.7259557,185.228638 84.2221328,185.228638 C84.6156942,185.228638 84.943662,185.228638 85.4028169,185.162978 C88.682495,185.031657 91.371831,187.526761 91.5686117,190.809792 C91.6997988,194.092824 89.2072435,196.784909 85.9275654,196.981891 C85.2716298,196.916231 84.6812877,196.981891 84.0253521,196.981891 L84.0253521,196.981891 Z" id="Shape" fill="#1B2733"></path>
                        <g id="Clipped" transform="translate(135.778672, 179.253521)">
                            <mask id="mask-6" fill="white">
                                <use xlink:href="#path-5"></use>
                            </mask>
                            <g id="SVGID_5_"></g>
                            <path d="M0.196780684,11.0309859 C0.196780684,11.0309859 16.3983903,19.1072435 30.8289738,11.0309859 C30.8289738,11.0309859 28.2708249,0.459624413 15.9392354,0.459624413 C3.67323944,0.525285044 0.196780684,11.0309859 0.196780684,11.0309859" id="Shape" fill="#3278BD" mask="url(#mask-6)"></path>
                        </g>
                        <g id="Clipped" transform="translate(143.649899, 218.649899)">
                            <mask id="mask-8" fill="white">
                                <use xlink:href="#path-7"></use>
                            </mask>
                            <g id="SVGID_7_"></g>
                            <path d="M1.77102616,7.28832998 C4.65714286,8.14191818 9.57665996,9.12682763 14.4961771,7.35399061 C15.8736419,6.8943662 16.3983903,5.25285044 15.6112676,4.07095909 C14.4305835,2.42944333 12.265996,0.459624413 8.26478873,0.459624413 C4.39476861,0.459624413 2.09899396,2.29812207 0.721529175,3.8739772 C-0.262374245,5.05586854 0.262374245,6.82870557 1.77102616,7.28832998" id="Shape" fill="#3278BD" mask="url(#mask-8)"></path>
                        </g>
                        <path d="M258.438632,154.630785 C257.389135,154.630785 256.405231,154.368142 255.421328,153.842857 C252.600805,152.201341 251.682495,148.590007 253.322334,145.7666 C267.884105,120.81556 261.652716,92.3188464 256.602012,77.4795439 C255.552515,74.5248156 253.25674,72.1610329 250.30503,71.241784 C249.517907,70.9791415 248.599598,70.7821596 247.681288,70.7821596 C213.769416,69.0093226 187.335211,91.5309188 187.072837,91.7935614 C184.645875,93.8947015 180.907042,93.632059 178.742455,91.2026157 C176.643461,88.7731724 176.905835,85.0305164 179.332797,82.8637156 C180.579074,81.7474849 209.571429,56.9934272 248.337223,59.0289068 C250.370624,59.160228 252.272837,59.4885312 254.109457,60.1451375 C260.406439,62.2462777 265.58833,67.3678068 267.818511,73.8682093 C273.459557,90.61167 280.478068,122.982361 263.55493,151.938699 C262.374245,153.580215 260.406439,154.630785 258.438632,154.630785 L258.438632,154.630785 Z" id="Shape" fill="#1B2733"></path>
                        <path d="M45.456338,154.630785 C43.4229376,154.630785 41.4551308,153.580215 40.3400402,151.676056 C23.4169014,122.719718 30.4354125,90.3490275 36.0764588,73.6055667 C38.2410463,67.3021462 43.0949698,62.3119383 49.3919517,60.0794769 C51.3597586,59.4228706 53.393159,58.9632461 55.4921529,58.8319249 C94.1923541,56.7964453 123.250302,81.6818243 124.496579,82.6667337 C126.923541,84.7678739 127.185915,88.5105298 125.086922,91.0056338 C122.987928,93.4350771 119.249095,93.6977197 116.756539,91.5965795 C116.362978,91.2682763 89.8631791,68.8780013 56.1480885,70.5851777 C55.0985915,70.6508384 54.2458753,70.7821596 53.3275654,71.1104628 C50.4414487,72.1610329 48.2112676,74.4591549 47.2273642,77.282562 C42.17666,92.0562039 35.9452716,120.684239 50.5070423,145.569618 C52.1468813,148.393025 51.1629779,152.004359 48.4080483,153.645875 C47.4897384,154.368142 46.505835,154.630785 45.456338,154.630785 L45.456338,154.630785 Z" id="Shape" fill="#1B2733"></path>
                        <path d="M159.982696,85.7527834 C158.998793,85.7527834 158.080483,85.5558015 157.162173,85.0961771 C154.276056,83.5203219 153.226559,79.9746479 154.800805,77.1512408 C158.408451,70.3881958 178.414487,36.0476861 215.212475,25.4763246 C216.261972,25.2136821 217.245875,25.0167002 218.229779,25.0167002 C219.213682,24.9510396 220.066398,24.9510396 221.050302,25.0823608 C238.498189,27.5118042 257.454728,39.4620389 258.04507,65.5293092 C258.110664,68.8123407 255.552515,71.5044266 252.272837,71.5700872 C248.993159,71.6357478 246.303823,69.0749832 246.238229,65.7919517 C245.713481,42.8763917 227.216097,37.8861838 219.279276,36.7699531 L218.492153,36.7699531 C185.498592,46.2907445 167.132394,79.0553991 165.164588,82.7323944 C164.115091,84.6365526 162.08169,85.7527834 159.982696,85.7527834 L159.982696,85.7527834 Z" id="Shape" fill="#1B2733"></path>
                        <path d="M143.584306,85.6871227 C141.485312,85.6871227 139.451911,84.570892 138.402414,82.5354125 C135.122736,76.4946345 117.281288,45.8967807 85.1404427,36.6386318 C84.943662,36.6386318 84.8124748,36.5729712 84.5501006,36.5729712 L84.3533199,36.5729712 C76.416499,37.6892019 57.9847082,42.7450704 57.3943662,65.6606304 C57.3287726,68.943662 54.7050302,71.4387659 51.3597586,71.4387659 C48.0800805,71.3731053 45.5219316,68.6153588 45.5875252,65.3979879 C46.2434608,39.3307176 65.2,27.3804829 82.6478873,24.9510396 C83.8285714,24.7540577 84.8780684,24.7540577 85.993159,24.8853789 C86.9770624,24.9510396 87.6985915,25.1480215 88.2889336,25.2793427 C125.021328,35.9163649 145.092958,70.191214 148.766197,76.8885983 C150.340443,79.777666 149.225352,83.3890007 146.404829,84.8991952 C145.486519,85.4901408 144.502616,85.6871227 143.584306,85.6871227 L143.584306,85.6871227 Z" id="Shape" fill="#1B2733"></path>
                        <path d="M218.557746,36.6386318 C217.180282,36.6386318 215.934004,36.1790074 214.75332,35.2597586 C197.108652,20.4861167 174.741247,12.3441985 151.652314,12.3441985 C128.825755,12.3441985 106.655131,20.2891348 89.1416499,34.8001341 C86.6490946,36.8356137 82.9102616,36.5073105 80.8112676,34.0122066 C78.7122736,31.5171026 79.105835,27.7744467 81.5983903,25.6733065 C101.276459,9.45513078 126.070825,0.459624413 151.652314,0.459624413 C177.430584,0.459624413 202.552918,9.58645205 222.296579,26.1329309 C224.789135,28.2340711 225.182696,31.9110664 223.018109,34.471831 C221.903018,35.9820255 220.197586,36.6386318 218.557746,36.6386318 L218.557746,36.6386318 Z" id="Shape" fill="#1B2733"></path>
                        <path d="M121.020121,217.927632 C116.756539,217.927632 112.755332,215.62951 110.590744,211.755533 C108.032596,207.159289 108.754125,201.578135 112.361771,197.90114 C112.427364,197.83548 112.492958,197.769819 112.492958,197.769819 C114.788732,195.537357 118.527565,195.537357 120.82334,197.769819 C123.119115,200.00228 123.119115,203.679276 120.954527,206.043058 C121.020121,206.108719 121.020121,206.108719 121.085714,206.17438 L133.286117,203.482294 C145.420926,200.790208 158.21167,200.790208 170.280885,203.482294 L182.350101,206.17438 C182.415694,206.17438 182.481288,206.108719 182.546881,206.043058 C180.3167,203.744936 180.3167,200.067941 182.612475,197.704158 C184.777062,195.537357 188.253521,195.406036 190.549296,197.375855 C190.746076,197.507176 190.877264,197.704158 191.074044,197.83548 C194.747284,201.643796 195.403219,207.22495 192.910664,211.821194 C190.286922,216.548759 185.039437,218.912542 179.791952,217.730651 L167.657143,215.038565 C157.227767,212.740443 146.208048,212.740443 135.844266,215.038565 L123.709457,217.730651 C122.791147,217.861972 121.872837,217.927632 121.020121,217.927632 L121.020121,217.927632 Z" id="Shape" fill="#1B2733"></path>
                        <path d="M139.911066,191.532059 C139.189537,191.532059 138.402414,191.400738 137.680885,191.138095 C134.663581,189.890543 133.220523,186.41053 134.401207,183.455801 C137.287324,176.430114 144.043461,171.899531 151.783501,171.899531 C159.261167,171.899531 166.017304,176.233132 168.903421,182.996177 C170.215292,186.016566 168.837827,189.496579 165.820523,190.744131 C162.803219,192.057344 159.326761,190.678471 158.080483,187.658082 C156.965392,185.228638 154.538431,183.652783 151.783501,183.652783 C148.962978,183.652783 146.404829,185.35996 145.355332,187.855064 C144.502616,190.153186 142.206841,191.532059 139.911066,191.532059 L139.911066,191.532059 Z" id="Shape" fill="#1B2733"></path>
                        <path d="M191.795573,150.165862 C189.762173,150.165862 187.794366,149.115292 186.679276,147.211133 C183.465191,141.761301 177.627364,138.346948 171.395976,138.346948 C168.116298,138.346948 165.492555,135.720523 165.492555,132.437492 C165.492555,129.15446 168.116298,126.528035 171.395976,126.528035 C181.890946,126.528035 191.664386,132.174849 196.911871,141.301677 C198.55171,144.125084 197.567807,147.736419 194.812877,149.377934 C193.894567,149.903219 192.84507,150.165862 191.795573,150.165862 L191.795573,150.165862 Z" id="Shape" fill="#1B2733"></path>
                        <path d="M112.361771,150.165862 C111.312274,150.165862 110.32837,149.903219 109.41006,149.377934 C106.589537,147.736419 105.671227,144.125084 107.311066,141.301677 C112.624145,132.174849 122.331992,126.528035 132.826962,126.528035 C136.10664,126.528035 138.730382,129.15446 138.730382,132.437492 C138.730382,135.720523 136.10664,138.346948 132.826962,138.346948 C126.595573,138.346948 120.626559,141.761301 117.543662,147.211133 C116.362978,149.180952 114.395171,150.165862 112.361771,150.165862 L112.361771,150.165862 Z" id="Shape" fill="#1B2733"></path>
                        <g transform="translate(122.004024, 145.766600)" id="Shape" fill="#1B2733">
                            <path d="M10.1014085,20.2234742 C4.65714286,20.2234742 0.262374245,15.8242119 0.262374245,10.3743796 C0.262374245,4.92454728 4.65714286,0.525285044 10.1014085,0.525285044 C15.545674,0.525285044 19.9404427,4.92454728 19.9404427,10.3743796 C19.8748491,15.8242119 15.4800805,20.2234742 10.1014085,20.2234742 L10.1014085,20.2234742 Z"></path>
                            <path d="M49.3919517,20.2234742 C43.9476861,20.2234742 39.5529175,15.8242119 39.5529175,10.3743796 C39.5529175,4.92454728 43.9476861,0.525285044 49.3919517,0.525285044 C54.8362173,0.525285044 59.2309859,4.92454728 59.2309859,10.3743796 C59.2309859,15.8242119 54.7706237,20.2234742 49.3919517,20.2234742 L49.3919517,20.2234742 Z"></path>
                        </g>
                        <path d="M114.91992,352.597586 C113.608048,352.597586 112.296177,352.203622 111.181087,351.218712 C109.672435,349.97116 74.2519115,320.226895 62.7730382,270.193494 C62.6418511,269.668209 62.510664,269.077264 62.4450704,268.551979 C51.884507,277.08786 32.9935614,293.306036 23.6136821,307.620054 C21.8426559,310.31214 18.1694165,311.100067 15.4800805,309.32723 C12.7907445,307.554393 12.0036217,303.877398 13.7746479,301.185312 C28.4020121,278.860698 61.6579477,254.1723 63.101006,253.12173 C64.8064386,251.874178 66.9710262,251.611536 68.8732394,252.465124 C70.7754527,253.253052 72.1529175,255.025889 72.4152918,257.127029 C72.8744467,260.607042 73.5959759,264.152716 74.3830986,267.567069 C85.0092555,313.792153 118.461972,341.894903 118.78994,342.223206 C121.282495,344.324346 121.676056,348.001341 119.577062,350.562106 C118.330785,351.940979 116.625352,352.597586 114.91992,352.597586 L114.91992,352.597586 Z" id="Shape" fill="#1B2733"></path>
                        <path d="M285.135211,308.736284 C283.232998,308.736284 281.330785,307.751375 280.150101,306.109859 C270.704628,291.59886 251.092153,276.102951 240.334809,268.158015 C240.269215,268.420657 240.203622,268.6833 240.138028,268.945942 C239.482093,272.163313 236.333602,274.133132 233.119517,273.410865 C229.905433,272.754259 227.937626,269.602549 228.659155,266.385178 C229.380684,263.102146 229.971026,260.081757 230.364588,257.061368 C230.626962,255.025889 231.938833,253.318712 233.775453,252.465124 C235.612072,251.677197 237.77666,251.808518 239.482093,252.924748 C240.925151,253.909658 275.427364,277.0222 290.054728,299.543796 C291.825755,302.235882 291.104225,305.978538 288.349296,307.685714 C287.365392,308.473642 286.184708,308.736284 285.135211,308.736284 L285.135211,308.736284 Z" id="Shape" fill="#1B2733"></path>
                        <path d="M187.728773,352.597586 C186.02334,352.597586 184.252314,351.875319 183.07163,350.430785 C181.038229,347.935681 181.431791,344.258685 183.924346,342.157545 L184.055533,342.026224 C185.498592,340.844333 218.426559,312.347619 228.462374,266.516499 C229.11831,263.299128 232.332394,261.329309 235.480885,262.051576 C238.69497,262.708182 240.662777,265.925553 239.941247,269.077264 C229.183903,317.994433 195.468813,347.804359 191.598793,351.087391 C191.402012,351.284373 191.270825,351.415694 191.270825,351.415694 C190.418109,352.203622 189.040644,352.597586 187.728773,352.597586 L187.728773,352.597586 Z" id="Shape" fill="#1B2733"></path>
                        <path d="M139.517505,268.814621 C138.664789,268.814621 137.812072,268.74896 136.959356,268.617639 C136.828169,268.617639 136.696982,268.551979 136.631388,268.551979 C106.917505,261.591952 84.3533199,236.246948 83.1070423,208.27552 C83.1070423,208.078538 83.0414487,207.684574 83.0414487,207.22495 C82.9102616,202.497384 83.2382294,197.704158 84.1565392,193.107914 C84.7468813,189.627901 85.7963783,186.016566 87.1082495,182.470892 C88.0921529,179.910127 88.8792757,178.005969 89.5352113,176.430114 C91.2406439,172.490476 91.2406439,172.490476 89.0760563,164.808182 C88.3545272,162.116097 87.7641851,159.555332 87.3706237,157.322871 C87.1082495,155.287391 86.9770624,153.645875 86.9770624,152.135681 C86.9770624,126.462374 105.671227,102.627565 132.4334,94.1573441 C135.581891,93.1724346 138.861569,94.879611 139.845473,98.0313213 C140.829376,101.183032 139.123944,104.466063 135.975453,105.450973 C114.067203,112.345339 98.7839034,131.518243 98.7839034,152.135681 C98.7839034,153.12059 98.849497,154.17116 99.0462777,155.615694 C99.3086519,157.388531 99.7678068,159.424011 100.423742,161.656472 C103.375453,172.030852 103.572233,173.803689 100.423742,181.157679 C99.8334004,182.602213 99.0462777,184.37505 98.1935614,186.738833 C97.0784708,189.627901 96.2913481,192.516968 95.7665996,195.406036 C95.0450704,199.214353 94.7171026,203.08833 94.9138833,207.093628 L94.9138833,207.553253 L94.9138833,207.750235 C95.9633803,230.074849 114.91992,251.283233 139.123944,256.995708 C140.370221,257.127029 141.485312,256.733065 142.665996,255.748156 C144.633803,254.10664 145.945674,251.283233 145.945674,248.656808 C145.945674,245.373776 148.569416,242.747351 151.849095,242.747351 C155.128773,242.747351 157.752515,245.373776 157.752515,248.656808 C157.752515,254.697586 154.866398,260.935345 150.340443,264.809323 C147.060765,267.435748 143.321932,268.814621 139.517505,268.814621 L139.517505,268.814621 Z" id="Shape" fill="#1B2733"></path>
                        <path d="M164.246278,268.814621 C160.24507,268.814621 156.309457,267.238766 152.964185,264.415359 C148.503823,260.475721 145.748893,254.631925 145.748893,248.656808 C145.748893,245.373776 148.372636,242.747351 151.652314,242.747351 C154.931992,242.747351 157.555734,245.373776 157.555734,248.656808 C157.555734,251.151911 158.802012,253.843997 160.704225,255.551174 C161.556942,256.273441 162.934406,257.192689 164.508652,257.061368 C188.909457,251.414554 207.472435,230.731455 208.587525,207.750235 C208.587525,207.027968 208.653119,206.24004 208.653119,205.452113 C208.653119,202.103421 208.325151,198.689068 207.669215,195.471697 C207.144467,192.385647 206.226157,189.430919 205.17666,186.47619 C204.389537,184.243729 203.602414,182.602213 203.077666,181.22334 C199.929175,173.869349 200.191549,172.227834 203.077666,161.853454 C203.668008,159.555332 204.192757,157.454192 204.455131,155.747015 C204.651911,154.499463 204.717505,153.383233 204.717505,152.332663 C204.717505,131.780885 189.434205,112.47666 167.591549,105.582294 C164.443058,104.597384 162.737626,101.314353 163.721529,98.1626425 C164.705433,95.0109323 167.985111,93.3037559 171.133602,94.2886653 C197.895775,102.758887 216.58994,126.659356 216.58994,152.332663 C216.58994,153.974178 216.458753,155.681355 216.196378,157.519852 C215.86841,159.686653 215.409256,162.247418 214.556539,165.005164 C212.457545,172.753119 212.457545,172.753119 214.097384,176.561435 C214.687726,178.005969 215.474849,179.844467 216.393159,182.208249 C217.770624,185.753924 218.754527,189.430919 219.476056,193.173575 C220.197586,197.178873 220.65674,201.249832 220.65674,205.386452 C220.65674,206.371362 220.65674,207.29061 220.591147,208.27552 C219.148089,236.509591 196.649497,261.920255 167.001207,268.617639 C166.804427,268.6833 166.673239,268.6833 166.476459,268.6833 C165.623742,268.74896 164.967807,268.814621 164.246278,268.814621 L164.246278,268.814621 Z" id="Shape" fill="#1B2733"></path>
                        <path d="M95.8321932,263.890074 C93.7987928,263.890074 91.8309859,262.839504 90.7158954,260.935345 C81.4016097,245.045473 78.6466801,225.806908 83.1070423,206.634004 C83.8285714,203.416633 86.9770624,201.446814 90.1911469,202.234742 C93.4052314,203.022669 95.3730382,206.108719 94.5859155,209.32609 C90.8470825,225.478605 93.0772636,241.696781 100.882897,254.960228 C102.522736,257.783635 101.538833,261.39497 98.7839034,263.036486 C97.8655936,263.561771 96.8160966,263.890074 95.8321932,263.890074 L95.8321932,263.890074 Z" id="Shape" fill="#1B2733"></path>
                        <path d="M159.654728,293.962643 C158.802012,293.962643 148.241449,293.896982 146.142455,293.765661 C122.331992,292.321127 102.194769,280.370892 90.8470825,260.935345 C89.2072435,258.111938 90.1911469,254.500604 92.9460765,252.859088 C95.7665996,251.217572 99.3742455,252.202482 101.014085,254.960228 C110.459557,271.112743 126.792354,280.699195 146.929577,281.946747 C147.782294,282.012408 151.717907,282.078068 154.997586,282.078068 C157.227767,276.825218 161.950503,274.724078 164.705433,274.330114 L166.410865,286.017706 C166.410865,286.017706 166.542052,286.017706 166.673239,285.952046 C166.017304,286.149027 165.623742,286.936955 165.558149,288.250168 C165.361368,291.467539 162.803219,293.962643 159.654728,293.962643 L159.654728,293.962643 Z" id="Shape" fill="#1B2733"></path>
                        <path d="M150.865191,355.617975 C144.240241,355.617975 137.615292,355.289671 131.121529,354.764386 C125.480483,354.304762 119.708249,353.516834 114.067203,352.597586 C102.325956,350.627767 90.5847082,347.673038 79.4338028,343.799061 C57.722334,336.510731 37.3227364,325.808048 18.7597586,312.019316 C17.4478873,311.034406 16.3327968,310.115158 15.0865191,309.130248 C12.5283702,307.094769 12.0692153,303.417773 14.0370221,300.791348 C16.004829,298.230584 19.743662,297.770959 22.3674044,299.740778 C23.5480885,300.594366 24.6631791,301.513615 25.8438632,302.367203 C43.4229376,315.433669 62.7074447,325.611066 83.3038229,332.505433 C93.9299799,336.182428 104.949698,339.005835 116.03501,340.844333 C121.413682,341.697921 126.857948,342.420188 132.23662,342.879812 C147.913481,344.390007 164.246278,343.930382 179.529577,341.763581 C182.350101,341.369618 184.777062,341.041315 187.072837,340.58169 C221.443863,334.672233 254.109457,319.964252 281.527565,298.164923 C284.020121,296.129443 287.758954,296.523407 289.857948,299.149832 C291.891348,301.644936 291.497787,305.387592 288.874044,307.488732 C259.88169,330.535614 225.379477,346.031522 189.106237,352.334943 C186.679276,352.728907 184.055533,353.122871 181.169416,353.582495 C171.199195,354.961368 161.097787,355.617975 150.865191,355.617975 L150.865191,355.617975 Z" id="Shape" fill="#1B2733"></path>
                        <path d="M234.431388,273.673508 C233.578672,273.673508 232.660362,273.476526 231.873239,273.148223 C222.690141,268.814621 213.113481,265.137626 203.405634,262.314219 C200.257143,261.46063 198.420523,258.177599 199.404427,255.025889 C200.257143,251.874178 203.536821,250.035681 206.685312,251.02059 C216.983501,253.975319 227.084909,257.849296 236.85835,262.44554 C238.891751,263.299128 240.400402,265.465929 240.400402,267.829712 C240.334809,271.047082 237.711066,273.673508 234.431388,273.673508 L234.431388,273.673508 Z" id="Shape" fill="#1B2733"></path>
                        <path d="M68.5452716,274.855399 C65.2655936,274.855399 62.6418511,272.228974 62.6418511,268.945942 C62.6418511,266.516499 64.150503,264.349698 66.249497,263.49611 C75.2358149,259.096848 84.6156942,255.354192 94.061167,252.333803 C94.5859155,252.136821 95.2418511,252.07116 95.8321932,252.07116 C99.1118712,252.07116 101.735614,254.697586 101.735614,257.980617 C101.735614,260.672703 99.898994,263.036486 97.3408451,263.693092 C88.4201207,266.516499 79.6305835,269.996512 71.1690141,274.264453 C70.3818913,274.658417 69.3979879,274.855399 68.5452716,274.855399 L68.5452716,274.855399 Z" id="Shape" fill="#1B2733"></path>
                        <path d="M34.6334004,226.00389 C32.4688129,226.00389 30.6977867,224.231053 30.6977867,222.064252 C30.6977867,218.781221 28.0740443,216.154795 24.7943662,216.154795 C22.6297787,216.154795 20.8587525,214.381958 20.8587525,212.215158 C20.8587525,210.048357 22.6297787,208.27552 24.7943662,208.27552 C28.0740443,208.27552 30.6977867,205.649095 30.6977867,202.366063 C30.6977867,200.199262 32.4688129,198.426425 34.6334004,198.426425 C36.7979879,198.426425 38.5690141,200.199262 38.5690141,202.366063 C38.5690141,205.649095 41.1927565,208.27552 44.4724346,208.27552 C46.6370221,208.27552 48.4080483,210.048357 48.4080483,212.215158 C48.4080483,214.381958 46.6370221,216.154795 44.4724346,216.154795 C41.1927565,216.154795 38.5690141,218.781221 38.5690141,222.064252 C38.5034205,224.231053 36.7979879,226.00389 34.6334004,226.00389 L34.6334004,226.00389 Z" id="Shape" fill="#FAB739"></path>
                        <path d="M14.0370221,264.415359 C10.7573441,264.415359 8.13360161,261.788934 8.13360161,258.505902 C8.13360161,255.222871 10.7573441,252.596445 14.0370221,252.596445 C17.3167002,252.596445 19.9404427,255.222871 19.9404427,258.505902 C19.9404427,261.723273 17.3167002,264.415359 14.0370221,264.415359 L14.0370221,264.415359 Z M14.0370221,256.536083 C12.9219316,256.536083 12.0692153,257.389671 12.0692153,258.505902 C12.0692153,259.622133 12.9219316,260.475721 14.0370221,260.475721 C15.1521127,260.475721 16.004829,259.622133 16.004829,258.505902 C16.004829,257.389671 15.1521127,256.536083 14.0370221,256.536083 L14.0370221,256.536083 Z" id="Shape" fill="#E9606F"></path>
                        <path d="M260.8,227.973709 C258.635412,227.973709 256.864386,226.200872 256.864386,224.034071 C256.864386,222.91784 256.01167,222.064252 254.896579,222.064252 C252.731992,222.064252 250.960966,220.291415 250.960966,218.124614 C250.960966,215.957814 252.731992,214.184977 254.896579,214.184977 C256.01167,214.184977 256.864386,213.331388 256.864386,212.215158 C256.864386,210.048357 258.635412,208.27552 260.8,208.27552 C262.964588,208.27552 264.735614,210.048357 264.735614,212.215158 C264.735614,213.331388 265.58833,214.184977 266.703421,214.184977 C268.868008,214.184977 270.639034,215.957814 270.639034,218.124614 C270.639034,220.291415 268.868008,222.064252 266.703421,222.064252 C265.58833,222.064252 264.735614,222.91784 264.735614,224.034071 C264.801207,226.200872 263.030181,227.973709 260.8,227.973709 L260.8,227.973709 Z" id="Shape" fill="#39BCEB"></path>
                        <path d="M311.897384,192.582629 C309.732797,192.582629 307.961771,190.809792 307.961771,188.642991 C307.961771,185.35996 305.338028,182.733535 302.05835,182.733535 C299.893763,182.733535 298.122736,180.960698 298.122736,178.793897 C298.122736,176.627096 299.893763,174.854259 302.05835,174.854259 C305.338028,174.854259 307.961771,172.227834 307.961771,168.944802 C307.961771,166.778001 309.732797,165.005164 311.897384,165.005164 C314.061972,165.005164 315.832998,166.778001 315.832998,168.944802 C315.832998,172.227834 318.45674,174.854259 321.736419,174.854259 C323.901006,174.854259 325.672032,176.627096 325.672032,178.793897 C325.672032,180.960698 323.901006,182.733535 321.736419,182.733535 C318.45674,182.733535 315.832998,185.35996 315.832998,188.642991 C315.898592,190.809792 314.127565,192.582629 311.897384,192.582629 L311.897384,192.582629 Z" id="Shape" fill="#FAB739"></path>
                        <path d="M289.267606,264.415359 C285.987928,264.415359 283.364185,261.788934 283.364185,258.505902 C283.364185,255.222871 285.987928,252.596445 289.267606,252.596445 C292.547284,252.596445 295.171026,255.222871 295.171026,258.505902 C295.171026,261.723273 292.547284,264.415359 289.267606,264.415359 L289.267606,264.415359 Z M289.267606,256.536083 C288.152515,256.536083 287.299799,257.389671 287.299799,258.505902 C287.299799,259.622133 288.152515,260.475721 289.267606,260.475721 C290.382696,260.475721 291.235412,259.622133 291.235412,258.505902 C291.235412,257.389671 290.382696,256.536083 289.267606,256.536083 L289.267606,256.536083 Z" id="Shape" fill="#FAB739"></path>
                        <path d="M299.041046,124.558216 C295.761368,124.558216 293.137626,121.931791 293.137626,118.648759 C293.137626,115.365728 295.761368,112.739302 299.041046,112.739302 C302.320724,112.739302 304.944467,115.365728 304.944467,118.648759 C304.944467,121.931791 302.320724,124.558216 299.041046,124.558216 L299.041046,124.558216 Z M299.041046,116.744601 C297.925956,116.744601 297.073239,117.598189 297.073239,118.71442 C297.073239,119.830651 297.925956,120.684239 299.041046,120.684239 C300.156137,120.684239 301.008853,119.830651 301.008853,118.71442 C301.008853,117.598189 300.156137,116.744601 299.041046,116.744601 L299.041046,116.744601 Z" id="Shape" fill="#E9606F"></path>
                        <path d="M6.03460765,116.744601 C2.75492958,116.744601 0.131187123,114.118176 0.131187123,110.835144 C0.131187123,107.552113 2.75492958,104.925687 6.03460765,104.925687 C9.31428571,104.925687 11.9380282,107.552113 11.9380282,110.835144 C11.9380282,114.118176 9.24869215,116.744601 6.03460765,116.744601 L6.03460765,116.744601 Z M6.03460765,108.865325 C4.9195171,108.865325 4.0668008,109.718913 4.0668008,110.835144 C4.0668008,111.951375 4.9195171,112.804963 6.03460765,112.804963 C7.14969819,112.804963 8.00241449,111.951375 8.00241449,110.835144 C8.00241449,109.718913 7.08410463,108.865325 6.03460765,108.865325 L6.03460765,108.865325 Z" id="Shape" fill="#E9606F"></path>
                    </g>
                </g>
            </g>
        </g>
    </g>
</svg>