<?xml version="1.0" encoding="UTF-8" standalone="no"?><svg width="400" height="400" viewBox="0 0 400 400" xmlns="http://www.w3.org/2000/svg" xmlns:xlink="http://www.w3.org/1999/xlink"><title>genie</title><defs><path id="a" d="M.328 0h64.151v163.101H.328z"/><path id="c" d="M.262.328h122.266V43.73H.262z"/><path id="e" d="M.197.525h30.632v14.183H.197z"/><path id="g" d="M.197.46h15.742v7.879H.197z"/></defs><g fill="none" fill-rule="evenodd"><path d="M305.177 97.51c5.182 15.167 12.07 46.028-3.738 73.146-.984-1.708-2.23-3.218-3.805-4.597-20.465-16.546-64.61-52.134-71.366-56.993 0 0 28.009-24.294 64.872-22.39 1.444.065 2.887.328 4.133.788 4.526 1.641 8.265 5.318 9.904 10.046" fill="#D8E5EA"/><path d="M236.239 104.273s26.171 9.455 42.242 18.253c4.854 2.627 10.823-.394 11.479-5.843 1.18-8.34 1.836-19.305-.394-27.184l11.741 5.91 7.15 37.164-6.69 31.254-9.84-4.137-55.82-45.109-4.788-5.384 4.92-4.924z" fill="#BAD2D8"/><path d="M301.439 170.721c2.886 4.99 2.82 11.294-.525 16.35-7.609 11.36-21.056 26.33-38.635 25.936 4.395-3.612 7.216-9.127 7.216-15.168 0-9.652-6.953-17.728-16.136-19.37.196-1.51.328-2.954.328-4.202 0-24.36-18.367-45.175-41.324-52.397v-12.673s4.92-6.434 13.774 0c6.756 4.925 50.9 40.447 71.366 56.994a14.965 14.965 0 0 1 3.936 4.53" fill="#FFF"/><path d="M254.802 213.795c-.525-2.955-1.378-5.844-2.427-8.668-.787-2.166-1.575-3.873-2.1-5.187-3.41-8.01-3.017-9.98-.065-20.617.59-2.233 1.05-4.202 1.312-5.91l1.18-8.076 8.003 1.51c13.053 2.364 22.499 13.855 22.499 27.118 0 8.34-3.674 16.087-10.167 21.34-2.296 1.904-4.985-.46-7.872.59l-8.658 7.027-1.705-9.127z" fill="#D8E5EA"/><path d="M262.28 213.072c-1.64 1.38-3.543 2.43-5.576 3.218-.656-3.48-1.574-6.829-2.82-9.98-4.395-11.754-5.314-8.865-1.969-21.012.656-2.364 1.181-4.728 1.51-6.894 9.117 1.707 16.135 9.717 16.135 19.37-.065 6.172-2.886 11.687-7.28 15.298" fill="#3278BD"/><path d="M279.202 279.915s34.7 23.244 48.933 44.977c-27.615 21.997-60.805 37.296-97.078 43.665 3.28-2.824 36.076-31.78 46.374-78.793.656-3.217 1.312-6.5 1.771-9.849" fill="#E9606F"/><path d="M305.571 340.585c7.806-4.793 15.349-9.98 22.499-15.693-14.169-21.733-48.933-44.452-48.933-44.452-.46 3.349-1.115 6.304-1.771 10.243-1.443 5.91-3.411 12.476-5.576 18.32 10.233 7.879 24.664 19.5 33.781 31.582" fill="#D34C60"/><path d="M295.207 87.595c-1.312-.46-2.69-.657-4.132-.788-36.798-1.904-64.872 22.39-64.872 22.39-8.855-6.434-13.775 0-13.775 0l-9.773-6.566s19.284-38.608 57.263-49.574c.525-.13 1.115-.262 1.64-.262.524-.066 1.115-.066 1.64.065 6.821.92 31.222 6.37 32.01 34.735" fill="#FFF"/><path d="M262.28 213.072c-1.64 1.38-3.543 2.43-5.576 3.218-.656-3.48-1.574-6.829-2.82-9.98-4.395-11.754-5.314-8.865-1.969-21.012.656-2.364 1.181-4.728 1.51-6.894 9.117 1.707 16.135 9.717 16.135 19.37-.065 6.172-2.886 11.687-7.28 15.298" fill="#3278BD"/><path d="M261.558 52.73c-.525.065-1.115.13-1.64.262-38.044 10.965-57.263 49.574-57.263 49.574l-7.871-5.253-7.74 5.187c-.984-1.839-20.138-38.805-57.198-49.508a4.225 4.225 0 0 0-1.312-.197l.066-.525c18.038-14.905 41.127-23.835 66.25-23.835 25.253.065 48.604 9.192 66.708 24.294" fill="#D8E5EA"/><path d="M197.8 75.776l-.13-.066c-1.837-1.247-4.133-1.247-5.904 0-2.492 1.708-5.903.985-7.543-1.641-4.92-8.01-16.398-24.229-34.305-35.523-7.74 3.677-14.956 8.34-21.515 13.724l-.066.525c.46 0 .853.131 1.312.197 37.06 10.703 56.345 47.67 57.198 49.508l7.74-5.187 7.87 5.253s19.351-38.609 57.264-49.574c.525-.132 1.706-.263 1.706-.263v-.065c-5.904-5.582-14.037-10.375-21.974-14.118-17.907 11.294-29.32 27.512-34.306 35.523-1.377 2.692-4.788 3.414-7.346 1.707" fill="#BAD2D8"/><path d="M257.753 230.013c4.198 18.385.197 35.457-9.708 48.589-8.92 11.753-22.63 20.355-39.618 23.572 0 0-5.575.788-5.838 7.88-1.77 0-11.348-.066-13.119-.198-23.416-1.444-40.864-13.263-50.703-29.875-8.396-14.314-11.086-32.108-7.019-49.902h.066c1.246 26.395 23.22 48.785 48.998 54.76 7.543 1.314 13.84-6.566 13.84-14.182 0 7.616 6.494 15.167 13.906 14.183 26.106-5.91 47.687-28.038 48.999-54.827h.196z" fill="#638389"/><path d="M257.688 227.386c0 .854 0 1.773-.066 2.561-1.377 26.79-22.892 48.917-48.998 54.827-7.412.985-13.906-6.632-13.906-14.183 0 7.617-6.297 15.365-13.84 14.183-25.779-5.975-47.752-28.431-48.999-54.761 0-.263-.065-.46-.065-.722-.132-4.4.196-8.799 1.05-12.936.59-3.348 1.573-6.566 2.689-9.652 4.394-11.95 5.51-9.126 2.033-21.34a55.876 55.876 0 0 1-1.509-6.828c-.197-1.51-.328-2.955-.328-4.268 0-24.36 18.366-45.109 41.324-52.397v11.03l17.71 11.754 17.71-11.753V121.87c22.959 7.288 41.325 27.971 41.325 52.397 0 1.313-.131 2.692-.328 4.202-.328 2.167-.787 4.465-1.509 6.895-3.345 12.147-2.427 9.192 1.968 21.011 1.246 3.217 2.164 6.566 2.82 9.98.525 3.48.919 7.289.919 11.031" fill="#1F9DD6"/><path d="M257.688 227.386c0 .854 0 1.773-.066 2.561-1.377 26.79-22.892 48.917-48.998 54.827-7.412.985-13.906-6.632-13.906-14.183 0 7.617-6.297 15.365-13.84 14.183-25.779-5.975-47.752-28.431-48.999-54.761 0-.263-.065-.46-.065-.722-.132-4.4.196-8.799 1.05-12.936.59-3.348 1.573-6.566 2.689-9.652 4.394-11.95 5.51-9.126 2.033-21.34a55.876 55.876 0 0 1-1.509-6.828c-.197-1.51-.328-2.955-.328-4.268 0-24.36 18.366-45.109 41.324-52.397v11.03l17.71 11.754 17.71-11.753V121.87c22.959 7.288 41.325 27.971 41.325 52.397 0 1.313-.131 2.692-.328 4.202-.328 2.167-.787 4.465-1.509 6.895-3.345 12.147-2.427 9.192 1.968 21.011 1.246 3.217 2.164 6.566 2.82 9.98.525 3.48.919 7.289.919 11.031" fill="#1F9DD6"/><path d="M257.688 227.386c0 .854 0 1.773-.066 2.561-1.377 26.79-22.892 48.917-48.998 54.827-7.412.985-13.906-6.632-13.906-14.183 0 7.617-6.297 15.365-13.84 14.183-25.779-5.975-47.752-28.431-48.999-54.761 0-.263-.065-.46-.065-.722-.132-4.4.196-8.799 1.05-12.936.59-3.348 1.573-6.566 2.689-9.652 4.394-11.95 5.51-9.126 2.033-21.34a55.876 55.876 0 0 1-1.509-6.828c-.197-1.51-.328-2.955-.328-4.268 0-24.36 18.366-45.109 41.324-52.397v11.03l17.71 11.754 17.71-11.753V121.87c22.959 7.288 41.325 27.971 41.325 52.397 0 1.313-.131 2.692-.328 4.202-.328 2.167-.787 4.465-1.509 6.895-3.345 12.147-2.427 9.192 1.968 21.011 1.246 3.217 2.164 6.566 2.82 9.98.525 3.48.919 7.289.919 11.031" fill="#1F9DD6"/><path d="M257.688 227.386c0 .854 0 1.773-.066 2.561-1.377 26.79-22.892 48.917-48.998 54.827-7.412.985-13.906-6.632-13.906-14.183 0 7.617-6.297 15.365-13.84 14.183-25.779-5.975-47.752-28.431-48.999-54.761 0-.263-.065-.46-.065-.722-.132-4.4.196-8.799 1.05-12.936.59-3.348 1.573-6.566 2.689-9.652 4.394-11.95 5.51-9.126 2.033-21.34a55.876 55.876 0 0 1-1.509-6.828c-.197-1.51-.328-2.955-.328-4.268 0-24.36 18.366-45.109 41.324-52.397v11.03l17.71 11.754 17.71-11.753V121.87c22.959 7.288 41.325 27.971 41.325 52.397 0 1.313-.131 2.692-.328 4.202-.328 2.167-.787 4.465-1.509 6.895-3.345 12.147-2.427 9.192 1.968 21.011 1.246 3.217 2.164 6.566 2.82 9.98.525 3.48.919 7.289.919 11.031" fill="#1F9DD6"/><path d="M151.557 230.013c0-.263-.065-.46-.065-.722-.131-4.4.197-8.799 1.05-13.001.59-3.349 1.573-6.566 2.689-9.652 4.394-11.95 5.51-9.127 2.033-21.34a55.876 55.876 0 0 1-1.509-6.829c-.196-1.51-.393-2.954-.393-4.268 0-16.809 7.805-31.845 21.58-41.957V121.87c-23.614 7.288-41.324 27.906-41.324 52.397 0 1.379.131 2.823.328 4.268.328 2.167.853 4.465 1.509 6.829 3.476 12.278 2.361 9.39-2.034 21.34-1.18 3.151-2.099 6.303-2.689 9.651a60.379 60.379 0 0 0-1.05 13.001c0 .263 0 .46.066.723 1.246 26.395 23.22 48.785 48.998 54.76 3.608.591 6.888-.853 9.38-3.348-20.99-8.93-37.585-28.628-38.569-51.478" fill="#39BCEB"/><g transform="translate(193.21 121.804)"><mask id="b" fill="#fff"><use xlink:href="#a"/></mask><path d="M63.363 94.42c-.656-3.48-1.574-6.829-2.82-9.98-4.395-11.754-5.313-8.865-1.968-21.012.656-2.364 1.18-4.727 1.509-6.894.196-1.51.328-2.955.328-4.202 0-24.36-18.367-45.175-41.324-52.398l-5.904 10.44C26.106 20.552 34.83 35.588 34.83 52.397c0 1.313-.131 2.692-.328 4.202-.328 2.167-.787 4.465-1.508 6.895-3.346 12.147-2.427 9.192 1.967 21.011 1.247 3.218 2.165 6.566 2.82 9.98.657 3.612 1.05 7.355 1.05 11.097 0 .854 0 1.773-.065 2.561-1.18 23.113-17.382 42.68-38.504 51.478 2.427 2.364 11.61 3.808 15.087 3.349 26.106-5.91 47.686-28.037 48.998-54.827.066-.854.066-1.707.066-2.56.065-3.743-.328-7.552-1.05-11.163" fill="#3278BD" mask="url(#b)"/></g><path d="M277.431 289.764c-10.298 46.947-43.16 76.035-46.374 78.793-2.558.46-5.182.788-7.74 1.247-9.577 1.38-19.416 1.97-29.386 1.97-6.494 0-12.857-.262-19.22-.853-5.64-.46-11.15-1.248-16.66-2.102 0 0-35.224-29.153-46.375-77.873a202.328 202.328 0 0 1 27.287-10.965c9.708 16.612 27.222 28.496 50.704 29.875 1.706.132 11.348.197 13.119.197.328-7.091 5.838-7.88 5.838-7.88 16.857-3.216 30.632-11.752 39.618-23.571 9.97 2.889 19.81 6.631 29.19 11.162" fill="#1F9DD6"/><path d="M277.431 289.764c-10.298 46.947-43.16 76.035-46.374 78.793-2.558.46-5.182.788-7.74 1.247-9.577 1.38-19.416 1.97-29.386 1.97-6.494 0-12.857-.262-19.22-.853-5.64-.46-11.15-1.248-16.66-2.102 0 0-35.224-29.153-46.375-77.873a202.328 202.328 0 0 1 27.287-10.965c9.708 16.612 27.222 28.496 50.704 29.875 1.706.132 11.348.197 13.119.197.328-7.091 5.838-7.88 5.838-7.88 16.857-3.216 30.632-11.752 39.618-23.571 9.97 2.889 19.81 6.631 29.19 11.162" fill="#1F9DD6"/><g transform="translate(131.551 283.33)"><mask id="d" fill="#fff"><use xlink:href="#c"/></mask><path d="M.262 1.116s16.202 54.039 83.435 40.447c1.837-.328 3.149-1.97 3.149-3.874v-.525c0-1.51.853-2.955 2.23-3.546 6.887-3.217 27.287-14.051 33.453-33.224l-12.135 1.773-37.06 21.274-4.264 6.96S27.09 26.724 7.215 1.18L.262 1.117z" fill="#3278BD" mask="url(#d)"/></g><path d="M273.955 291.93l-6.1-4.595s-13.906 53.25-52.869 60.407c-6.625 1.051-13.315 1.642-20.202 1.642-6.56 0-12.988-.46-19.35-1.51-39.554-6.698-53.59-60.54-53.59-60.54l-6.1 4.597c-.657 9.915 7.936 27.512 15.217 40.381-1.377-.788-2.69-1.641-4.067-2.43 14.103 24.886 31.026 38.806 31.026 38.806 5.51.854 11.02 1.642 16.66 2.101 6.298.591 12.726.854 19.22.854 9.97 0 19.809-.657 29.386-1.97 2.558-.328 5.181-.722 7.74-1.248 2.164-1.838 17.382-15.298 30.37-37.886l-2.559 1.576c7.347-12.804 15.874-30.335 15.218-40.184" fill="#3278BD"/><path fill="#FAB739" d="M186.912 102.566l7.872-5.188 7.805 5.253 9.84 6.566V132.835l-17.645 11.753-17.776-11.753V109.197l.393-.197z"/><path fill="#FFD46B" d="M202.59 102.631l-1.313-.788-24.335 21.012v9.98l11.479 7.617 18.17-34.932 1.902 1.38z"/><path d="M186.912 102.566L177.336 109c-1.05-1.116-5.773-5.384-13.513.197 0 0-.065 0-.065.066l-.066-.066s-28.008-24.294-64.872-22.39c-1.574.066-3.083.328-4.395.854v-.066c.656-28.365 25.188-33.815 32.01-34.735.656-.065 1.312-.13 1.968 0 .459 0 .853.132 1.312.197 37.06 10.703 56.345 47.67 57.197 49.509" fill="#FFF"/><path d="M177.401 109l-.393.197v12.607c-22.958 7.288-41.324 27.906-41.324 52.397 0 1.38.13 2.824.328 4.268l-.394.066c-8.92 1.838-15.742 9.718-15.742 19.304 0 6.107 2.886 11.622 7.215 15.233-17.382.066-30.567-14.708-38.11-25.936-3.345-5.055-3.41-11.293-.525-16.349.984-1.707 2.23-3.283 3.87-4.596 20.4-16.481 64.348-51.938 71.3-56.928 0 0 .066 0 .066-.066 7.937-5.646 12.66-1.313 13.71-.197" fill="#FFF"/><path d="M163.692 109.197c-6.887 5.056-50.9 40.513-71.3 56.994-1.64 1.313-2.886 2.889-3.87 4.596l-.066-.066c-15.873-27.118-8.92-57.978-3.738-73.146 1.574-4.727 5.247-8.339 9.707-9.849 1.378-.46 2.886-.788 4.395-.853 36.864-2.036 64.872 22.324 64.872 22.324" fill="#D8E5EA"/><path d="M111.545 290.88c11.151 48.72 46.375 77.874 46.375 77.874a205.375 205.375 0 0 1-33.65-8.536c-21.449-7.223-41.324-17.794-59.034-30.992-1.246-.853-2.361-1.838-3.607-2.692 14.168-21.734 47.883-46.553 47.883-46.553.525 3.677 1.18 7.354 2.033 10.9" fill="#E9606F"/><path d="M134.7 213.795c.525-2.955 1.377-5.844 2.427-8.668a74.768 74.768 0 0 1 2.099-5.187c3.41-8.01 3.017-9.98.065-20.617-.59-2.233-1.05-4.202-1.312-5.91l-1.18-8.076-8.003 1.51c-13.053 2.364-22.498 13.855-22.498 27.118 0 8.34 3.673 16.087 10.167 21.34 2.296 1.904 4.985-.46 7.871.59l8.724 7.158 1.64-9.258z" fill="#D8E5EA"/><path d="M117.12 309.134a144.949 144.949 0 0 1-5.575-18.254c-.787-3.545-1.508-7.157-2.033-10.965 0 0-33.65 24.82-47.883 46.553 1.18.985 2.36 1.839 3.607 2.692 6.1 4.597 12.529 8.799 19.088 12.673 9.052-11.95 22.827-24.426 32.797-32.7" fill="#EC677E"/><path d="M127.222 213.072c-4.395-3.61-7.215-9.126-7.215-15.233 0-9.52 6.756-17.466 15.742-19.304l.394-.066c.328 2.167.853 4.465 1.509 6.829 3.476 12.279 2.36 9.39-2.034 21.34-1.18 3.151-2.099 6.303-2.69 9.652a20.124 20.124 0 0 1-5.706-3.218" fill="#39BCEB"/><path d="M208.493 308.083a5.839 5.839 0 0 1-5.773-4.793c-.59-3.217 1.509-6.238 4.723-6.894 14.955-2.89 27.68-10.44 36.01-21.34 9.25-12.213 12.333-27.709 8.66-43.73-.722-3.217 1.246-6.303 4.394-7.091 3.214-.723 6.297 1.247 7.084 4.399 4.46 19.501.656 38.477-10.757 53.448-9.97 13.198-25.32 22.39-43.16 25.804-.46.132-.853.197-1.181.197zM194.784 152.533c-1.312 0-2.559-.394-3.608-1.247l-17.71-13.789c-1.443-1.116-2.23-2.889-2.23-4.662v-23.703c0-1.97.983-3.809 2.558-4.925l.196-.131 17.186-13.395c2.099-1.641 5.116-1.641 7.28 0l17.711 13.789c1.443 1.116 2.23 2.889 2.23 4.662v23.637c0 1.839-.787 3.546-2.23 4.662l-17.71 13.79c-1.18.853-2.493 1.312-3.673 1.312zm-11.873-22.587l11.741 9.193 11.742-9.193v-17.86l-11.742-9.192-11.807 9.192v17.86h.066zM132.863 222.2a5.592 5.592 0 0 1-2.033-.395c-2.69-1.05-5.182-2.43-7.347-4.202-5.903-4.859-9.38-12.082-9.38-19.764 0-12.147 8.593-22.653 20.4-25.082 3.214-.657 6.297 1.444 6.953 4.662.656 3.217-1.443 6.303-4.657 6.96-6.297 1.313-10.954 7.025-10.954 13.46 0 4.137 1.836 8.01 5.116 10.703a12.256 12.256 0 0 0 3.936 2.232c3.082 1.182 4.657 4.597 3.476 7.617a5.925 5.925 0 0 1-5.51 3.808z" fill="#1B2733"/><path d="M154.312 104.273s-26.172 9.455-42.242 18.253c-4.854 2.627-10.823-.394-11.479-5.843-1.18-8.34-1.836-19.305.394-27.184l-11.742 5.91-7.15 37.164 6.691 31.254 9.84-4.137 55.82-45.109 4.788-5.384-4.92-4.924z" fill="#BAD2D8"/><path d="M256.573 222.2c-2.362 0-4.723-1.51-5.51-3.875-1.115-3.086.459-6.5 3.542-7.55 1.377-.46 2.69-1.314 3.87-2.233 3.28-2.627 5.116-6.566 5.116-10.703 0-6.697-4.788-12.41-11.216-13.526-3.214-.59-5.313-3.677-4.789-6.894.59-3.218 3.674-5.319 6.888-4.794 12.134 2.233 20.99 12.804 20.99 25.214 0 7.682-3.411 14.905-9.38 19.83-2.165 1.838-4.657 3.217-7.347 4.202-.787.197-1.443.328-2.164.328z" fill="#1B2733"/><path d="M263 218.982h-.852c-.262 0-.721 0-1.18-.066-3.28-.262-5.642-3.086-5.445-6.303.263-3.283 3.083-5.647 6.297-5.45h.328c14.693.263 26.5-12.541 33.78-23.375 2.034-3.086 2.165-6.96.329-10.178-.59-1.116-1.443-2.035-2.427-2.889-15.874-12.803-64.15-51.74-71.104-56.796-4.132-3.02-5.64-1.248-5.64-1.182-1.968 2.56-5.707 3.086-8.331 1.116-2.624-1.97-3.083-5.712-1.115-8.339 3.41-4.399 12.003-8.339 21.908-1.182 4.854 3.48 28.337 22.194 71.628 57.19 2.165 1.774 3.936 3.81 5.248 6.173 4 7.157 3.739 15.758-.722 22.522-8.658 13.197-23.154 28.759-42.701 28.759zM127.025 218.982c-19.612 0-34.108-15.562-42.767-28.628-4.46-6.763-4.854-15.365-.787-22.456 1.378-2.43 3.149-4.596 5.313-6.238 43.16-34.8 66.578-53.513 71.563-57.125.065 0 .065-.065.131-.065 9.774-7.026 17.907-3.02 21.252.525.394.394.59.657.59.657l-9.38 7.222s.066.132.263.263c-.065-.066-.131-.131-.131-.197-1.115-1.248-3.148-.788-5.707 1.05-.065 0-.065.066-.13.066-4.92 3.546-28.796 22.587-71.039 56.731-.984.788-1.77 1.773-2.427 2.89-1.836 3.216-1.705 7.09.328 10.176 7.15 10.703 18.629 23.376 33.125 23.376.394 0 .722 0 1.18-.066 3.28-.131 5.97 2.364 6.167 5.647.13 3.283-2.362 5.975-5.641 6.172-.656-.066-1.247 0-1.903 0z" fill="#1B2733"/><g transform="translate(178.779 201.254)"><mask id="f" fill="#fff"><use xlink:href="#e"/></mask><path d="M.197 11.031s16.201 8.076 30.632 0c0 0-2.558-10.571-14.89-10.571C3.673.525.197 11.03.197 11.03" fill="#3278BD" mask="url(#f)"/></g><g transform="translate(186.65 240.65)"><mask id="h" fill="#fff"><use xlink:href="#g"/></mask><path d="M1.771 7.288c2.886.854 7.806 1.839 12.725.066 1.378-.46 1.902-2.101 1.115-3.283C14.431 2.429 12.266.46 8.265.46 4.395.46 2.099 2.298.722 3.874-.262 5.056.262 6.829 1.77 7.288" fill="#3278BD" mask="url(#h)"/></g><path d="M301.439 176.63c-1.05 0-2.034-.262-3.018-.787-2.82-1.642-3.739-5.253-2.099-8.076 14.562-24.951 8.33-53.448 3.28-68.287-1.05-2.955-3.345-5.319-6.297-6.238-.787-.263-1.705-.46-2.624-.46-33.912-1.773-60.346 20.749-60.608 21.012-2.427 2.1-6.166 1.838-8.33-.591-2.1-2.43-1.837-6.172.59-8.34 1.246-1.116 30.238-25.87 69.004-23.834 2.034.131 3.936.46 5.772 1.116 6.297 2.101 11.48 7.223 13.71 13.723 5.64 16.744 12.66 49.114-4.264 78.07-1.18 1.642-3.149 2.693-5.116 2.693zM88.456 176.63a5.913 5.913 0 0 1-5.116-2.954c-16.923-28.956-9.905-61.327-4.264-78.07 2.165-6.304 7.019-11.294 13.316-13.527 1.968-.656 4.001-1.116 6.1-1.247 38.7-2.036 67.758 22.85 69.005 23.835 2.427 2.1 2.689 5.844.59 8.339-2.1 2.43-5.838 2.692-8.33.59-.394-.328-26.894-22.718-60.609-21.01-1.05.065-1.902.196-2.82.524a10.145 10.145 0 0 0-6.1 6.173c-5.051 14.773-11.283 43.401 3.279 68.287 1.64 2.823.656 6.434-2.099 8.076-.918.722-1.902.985-2.952.985z" fill="#1B2733"/><path d="M202.983 107.753a6.13 6.13 0 0 1-2.82-.657c-2.887-1.576-3.936-5.121-2.362-7.945 3.607-6.763 23.613-41.103 60.411-51.675 1.05-.262 2.034-.46 3.018-.46.984-.065 1.836-.065 2.82.066 17.448 2.43 36.405 14.38 36.995 40.447.066 3.283-2.492 5.975-5.772 6.041a5.883 5.883 0 0 1-6.035-5.778c-.525-22.916-19.022-27.906-26.959-29.022h-.787c-32.993 9.52-51.36 42.285-53.327 45.962-1.05 1.905-3.083 3.02-5.182 3.02zM186.584 107.687c-2.099 0-4.132-1.116-5.182-3.152-3.28-6.04-21.12-36.638-53.262-45.896-.196 0-.328-.066-.59-.066h-.197c-7.937 1.116-26.368 6.172-26.959 29.088-.065 3.283-2.689 5.778-6.034 5.778-3.28-.066-5.838-2.824-5.772-6.041.655-26.067 19.612-38.018 37.06-40.447 1.18-.197 2.23-.197 3.345-.066.984.066 1.706.263 2.296.394 36.732 10.637 56.804 44.912 60.477 51.61 1.574 2.889.46 6.5-2.361 8.01-.918.591-1.902.788-2.82.788z" fill="#1B2733"/><path d="M261.558 58.639c-1.378 0-2.624-.46-3.805-1.38a98.368 98.368 0 0 0-63.1-22.915c-22.827 0-44.998 7.945-62.511 22.456-2.493 2.036-6.232 1.707-8.33-.788-2.1-2.495-1.706-6.238.786-8.339 19.678-16.218 44.473-25.213 70.054-25.213 25.779 0 50.9 9.126 70.645 25.673 2.492 2.101 2.886 5.778.721 8.339-1.115 1.51-2.82 2.167-4.46 2.167zM164.02 239.928c-4.263 0-8.265-2.298-10.43-6.172-2.557-4.597-1.836-10.178 1.772-13.855l.131-.131c2.296-2.233 6.035-2.233 8.33 0 2.296 2.232 2.296 5.91.132 8.273l.13.131 12.201-2.692c12.135-2.692 24.926-2.692 36.995 0l12.07 2.692c.065 0 .13-.065.196-.13-2.23-2.3-2.23-5.976.065-8.34 2.165-2.167 5.642-2.298 7.937-.328.197.131.328.328.525.46 3.673 3.808 4.33 9.389 1.837 13.985-2.624 4.728-7.872 7.092-13.119 5.91l-12.135-2.692c-10.43-2.299-21.449-2.299-31.813 0l-12.135 2.692c-.918.131-1.836.197-2.689.197zM182.911 213.532a6.657 6.657 0 0 1-2.23-.394c-3.017-1.247-4.46-4.727-3.28-7.682 2.886-7.026 9.642-11.556 17.383-11.556 7.477 0 14.233 4.333 17.12 11.096 1.311 3.02-.066 6.5-3.083 7.748-3.018 1.313-6.494-.066-7.74-3.086-1.116-2.43-3.543-4.005-6.297-4.005-2.821 0-5.38 1.707-6.429 4.202-.852 2.298-3.148 3.677-5.444 3.677zM234.796 172.166a5.913 5.913 0 0 1-5.117-2.955c-3.214-5.45-9.052-8.864-15.283-8.864a5.882 5.882 0 0 1-5.903-5.91 5.882 5.882 0 0 1 5.903-5.909c10.495 0 20.268 5.647 25.516 14.774 1.64 2.823.656 6.434-2.1 8.076a6.09 6.09 0 0 1-3.016.788zM155.362 172.166a5.849 5.849 0 0 1-2.952-.788c-2.82-1.642-3.739-5.253-2.099-8.076 5.313-9.127 15.021-14.774 25.516-14.774a5.882 5.882 0 0 1 5.903 5.91 5.882 5.882 0 0 1-5.903 5.909c-6.231 0-12.2 3.414-15.283 8.864-1.181 1.97-3.149 2.955-5.182 2.955z" fill="#1B2733"/><g fill="#1B2733"><path d="M175.105 187.99a9.83 9.83 0 0 1-9.839-9.849 9.83 9.83 0 0 1 9.84-9.85 9.83 9.83 0 0 1 9.838 9.85c-.065 5.45-4.46 9.85-9.839 9.85zM214.396 187.99a9.83 9.83 0 0 1-9.84-9.849 9.83 9.83 0 0 1 9.84-9.85 9.83 9.83 0 0 1 9.839 9.85c0 5.45-4.46 9.85-9.839 9.85z"/></g><path d="M157.92 374.598c-1.312 0-2.624-.394-3.739-1.38-1.509-1.247-36.93-30.991-48.408-81.025a14.533 14.533 0 0 1-.328-1.641c-10.56 8.536-29.451 24.754-38.831 39.068-1.771 2.692-5.445 3.48-8.134 1.707-2.69-1.773-3.476-5.45-1.705-8.142 14.627-22.324 47.883-47.013 49.326-48.063 1.705-1.248 3.87-1.51 5.772-.657a5.834 5.834 0 0 1 3.542 4.662c.46 3.48 1.181 7.026 1.968 10.44 10.626 46.225 44.079 74.328 44.407 74.656 2.492 2.101 2.886 5.778.787 8.34-1.246 1.378-2.952 2.035-4.657 2.035zM328.135 330.736c-1.902 0-3.804-.985-4.985-2.626-9.445-14.511-29.058-30.007-39.815-37.952l-.197.788c-.656 3.217-3.804 5.187-7.018 4.465-3.215-.657-5.182-3.808-4.46-7.026.72-3.283 1.311-6.303 1.705-9.324.262-2.035 1.574-3.742 3.41-4.596 1.837-.788 4.002-.656 5.707.46 1.443.985 35.945 24.097 50.573 46.619 1.77 2.692 1.05 6.435-1.706 8.142-.984.788-2.164 1.05-3.214 1.05z" fill="#1B2733"/><path d="M230.729 374.598c-1.706 0-3.477-.723-4.657-2.167-2.034-2.495-1.64-6.172.852-8.273l.132-.132c1.443-1.182 34.37-29.678 44.406-75.51.656-3.217 3.87-5.187 7.019-4.464 3.214.656 5.182 3.874 4.46 7.025-10.757 48.917-44.472 78.727-48.342 82.01l-.328.329c-.853.788-2.23 1.182-3.542 1.182zM182.518 290.815c-.853 0-1.706-.066-2.559-.197-.13 0-.262-.066-.328-.066-29.713-6.96-52.278-32.305-53.524-60.276 0-.197-.066-.591-.066-1.051-.13-4.728.197-9.52 1.116-14.117.59-3.48 1.64-7.091 2.951-10.637.984-2.56 1.771-4.465 2.427-6.04 1.706-3.94 1.706-3.94-.459-11.623-.721-2.692-1.312-5.253-1.705-7.485-.263-2.036-.394-3.677-.394-5.187 0-25.674 18.694-49.508 45.456-57.979 3.149-.985 6.429.723 7.412 3.874.984 3.152-.721 6.435-3.87 7.42-21.908 6.894-37.191 26.067-37.191 46.685 0 .985.065 2.035.262 3.48.263 1.773.722 3.808 1.378 6.04 2.951 10.375 3.148 12.148 0 19.502-.59 1.444-1.378 3.217-2.23 5.58a47.6 47.6 0 0 0-2.427 8.668c-.722 3.808-1.05 7.682-.853 11.688v.656c1.05 22.325 20.006 43.533 44.21 49.246 1.246.131 2.361-.263 3.542-1.248 1.968-1.641 3.28-4.465 3.28-7.091a5.882 5.882 0 0 1 5.903-5.91 5.882 5.882 0 0 1 5.904 5.91c0 6.04-2.887 12.278-7.413 16.152-3.28 2.627-7.018 4.006-10.822 4.006z" fill="#1B2733"/><path d="M207.246 290.815c-4 0-7.937-1.576-11.282-4.4-4.46-3.94-7.215-9.783-7.215-15.758a5.882 5.882 0 0 1 5.903-5.91 5.882 5.882 0 0 1 5.904 5.91c0 2.495 1.246 5.187 3.148 6.894.853.722 2.23 1.642 3.805 1.51 24.4-5.646 42.963-26.33 44.079-49.31 0-.723.065-1.511.065-2.299 0-3.349-.328-6.763-.984-9.98-.525-3.086-1.443-6.041-2.492-8.996-.787-2.232-1.575-3.874-2.1-5.253-3.148-7.354-2.885-8.995 0-19.37.591-2.298 1.116-4.399 1.378-6.106a21.57 21.57 0 0 0 .263-3.414c0-20.552-15.284-39.856-37.126-46.75-3.149-.986-4.854-4.269-3.87-7.42.983-3.152 4.263-4.86 7.412-3.874 26.762 8.47 45.456 32.37 45.456 58.044 0 1.641-.131 3.348-.394 5.187-.328 2.167-.787 4.727-1.64 7.485-2.098 7.748-2.098 7.748-.459 11.556.59 1.445 1.378 3.283 2.296 5.647 1.378 3.546 2.362 7.223 3.083 10.966.722 4.005 1.18 8.076 1.18 12.212 0 .985 0 1.905-.065 2.89-1.443 28.234-23.942 53.644-53.59 60.342-.197.065-.328.065-.525.065-.852.066-1.508.132-2.23.132zM138.832 285.89a5.913 5.913 0 0 1-5.116-2.955c-9.314-15.89-12.07-35.128-7.609-54.301.722-3.217 3.87-5.187 7.084-4.4 3.214.789 5.182 3.875 4.395 7.092-3.739 16.153-1.509 32.37 6.297 45.634 1.64 2.824.656 6.435-2.1 8.076-.917.526-1.967.854-2.95.854z" fill="#1B2733"/><path d="M202.655 315.963c-.853 0-11.414-.066-13.513-.197-23.81-1.445-43.947-13.395-55.295-32.83-1.64-2.824-.656-6.435 2.1-8.077 2.82-1.641 6.427-.657 8.067 2.101 9.446 16.153 25.778 25.74 45.916 26.987.852.065 4.788.131 8.068.131 2.23-5.253 6.953-7.354 9.707-7.748l1.706 11.688s.131 0 .262-.066c-.656.197-1.05.985-1.115 2.298-.197 3.218-2.755 5.713-5.903 5.713zM193.865 377.618c-6.625 0-13.25-.328-19.743-.854-5.642-.46-11.414-1.247-17.055-2.166-11.741-1.97-23.482-4.925-34.633-8.799-21.712-7.288-42.111-17.991-60.674-31.78-1.312-.985-2.427-1.904-3.673-2.889-2.559-2.035-3.018-5.712-1.05-8.339 1.968-2.56 5.707-3.02 8.33-1.05 1.181.853 2.296 1.773 3.477 2.626 17.579 13.067 36.863 23.244 57.46 30.138 10.626 3.677 21.646 6.5 32.731 8.34 5.379.853 10.823 1.575 16.202 2.035 15.676 1.51 32.01 1.05 47.293-1.116 2.82-.394 5.247-.723 7.543-1.182 34.37-5.91 67.036-20.618 94.455-42.417 2.492-2.036 6.231-1.642 8.33.985 2.033 2.495 1.64 6.238-.984 8.339-28.992 23.047-63.495 38.543-99.768 44.846-2.427.394-5.05.788-7.937 1.247-9.97 1.38-20.071 2.036-30.304 2.036zM277.431 295.674a6.853 6.853 0 0 1-2.558-.526c-9.183-4.333-18.76-8.01-28.467-10.834a5.76 5.76 0 0 1-4.002-7.288c.853-3.152 4.133-4.99 7.281-4.005 10.299 2.954 20.4 6.828 30.173 11.425 2.034.853 3.542 3.02 3.542 5.384a5.967 5.967 0 0 1-5.969 5.844z" fill="#1B2733"/><path d="M111.545 296.855a5.882 5.882 0 0 1-5.903-5.91c0-2.429 1.509-4.595 3.607-5.449a206.631 206.631 0 0 1 27.812-11.162c.525-.197 1.18-.263 1.771-.263a5.882 5.882 0 0 1 5.904 5.91c0 2.692-1.837 5.055-4.395 5.712-8.92 2.823-17.71 6.304-26.172 10.571-.787.394-1.771.591-2.624.591z" fill="#1B2733"/><path d="M77.633 248.004a3.95 3.95 0 0 1-3.935-3.94 5.882 5.882 0 0 0-5.904-5.91 3.95 3.95 0 0 1-3.935-3.939 3.95 3.95 0 0 1 3.935-3.94 5.882 5.882 0 0 0 5.904-5.909 3.95 3.95 0 0 1 3.935-3.94 3.95 3.95 0 0 1 3.936 3.94 5.882 5.882 0 0 0 5.903 5.91 3.95 3.95 0 0 1 3.936 3.94 3.95 3.95 0 0 1-3.936 3.939 5.882 5.882 0 0 0-5.903 5.91c-.066 2.166-1.771 3.939-3.936 3.939z" fill="#FAB739"/><path d="M57.037 286.415a5.882 5.882 0 0 1-5.903-5.91 5.882 5.882 0 0 1 5.903-5.909 5.882 5.882 0 0 1 5.903 5.91c0 3.217-2.623 5.91-5.903 5.91zm0-7.879c-1.115 0-1.968.854-1.968 1.97s.853 1.97 1.968 1.97 1.968-.854 1.968-1.97-.853-1.97-1.968-1.97z" fill="#E9606F"/><path d="M303.8 249.974a3.95 3.95 0 0 1-3.936-3.94c0-1.116-.852-1.97-1.967-1.97a3.95 3.95 0 0 1-3.936-3.94 3.95 3.95 0 0 1 3.936-3.939c1.115 0 1.967-.854 1.967-1.97a3.95 3.95 0 0 1 3.936-3.94 3.95 3.95 0 0 1 3.936 3.94c0 1.116.852 1.97 1.967 1.97a3.95 3.95 0 0 1 3.936 3.94 3.95 3.95 0 0 1-3.936 3.94c-1.115 0-1.967.853-1.967 1.97.065 2.166-1.706 3.939-3.936 3.939z" fill="#39BCEB"/><path d="M354.897 214.583a3.95 3.95 0 0 1-3.935-3.94 5.882 5.882 0 0 0-5.904-5.91 3.95 3.95 0 0 1-3.935-3.94 3.95 3.95 0 0 1 3.935-3.939 5.882 5.882 0 0 0 5.904-5.91 3.95 3.95 0 0 1 3.935-3.939 3.95 3.95 0 0 1 3.936 3.94 5.882 5.882 0 0 0 5.903 5.91 3.95 3.95 0 0 1 3.936 3.939 3.95 3.95 0 0 1-3.936 3.94 5.882 5.882 0 0 0-5.903 5.909c.066 2.167-1.705 3.94-3.936 3.94zM332.268 286.415a5.882 5.882 0 0 1-5.904-5.91 5.882 5.882 0 0 1 5.904-5.909 5.882 5.882 0 0 1 5.903 5.91c0 3.217-2.624 5.91-5.903 5.91zm0-7.879c-1.115 0-1.968.854-1.968 1.97s.853 1.97 1.968 1.97 1.967-.854 1.967-1.97-.852-1.97-1.967-1.97z" fill="#FAB739"/><path d="M342.041 146.558a5.882 5.882 0 0 1-5.903-5.91 5.882 5.882 0 0 1 5.903-5.909 5.882 5.882 0 0 1 5.903 5.91 5.882 5.882 0 0 1-5.903 5.91zm0-7.813c-1.115 0-1.968.853-1.968 1.97 0 1.116.853 1.97 1.968 1.97s1.968-.854 1.968-1.97c0-1.117-.853-1.97-1.968-1.97zM49.035 138.745a5.882 5.882 0 0 1-5.904-5.91 5.882 5.882 0 0 1 5.904-5.91 5.882 5.882 0 0 1 5.903 5.91c0 3.283-2.69 5.91-5.903 5.91zm0-7.88c-1.115 0-1.968.854-1.968 1.97s.853 1.97 1.968 1.97 1.967-.854 1.967-1.97-.918-1.97-1.967-1.97z" fill="#E9606F"/></g></svg>