<?xml version="1.0" encoding="utf-8"?>
<!-- Generator: Adobe Illustrator 18.1.0, SVG Export Plug-In . SVG Version: 6.00 Build 0)  -->
<svg version="1.1" id="Layer_1" xmlns="http://www.w3.org/2000/svg" xmlns:xlink="http://www.w3.org/1999/xlink" x="0px" y="0px"
	 viewBox="0 0 600 600" enable-background="new 0 0 600 600" xml:space="preserve">
<style type="text/css">
	.star {
       	transform-origin: center;
       	-moz-transform-origin: center;
	}
    .star-1 {
        animation: pulse 0.4s alternate infinite;
        -moz-animation: pulse 0.4s alternate infinite;
    }
    .star-2 {
        animation: pulse 0.3s alternate-reverse infinite;
        -moz-animation: pulse 0.3s alternate-reverse infinite;
    }
    .star-3 {
        animation: pulse 0.3s alternate infinite;
        -moz-animation: pulse 0.3s alternate infinite;
    }
    .star-4 {
        animation: pulse 0.4s alternate-reverse infinite;
        -moz-animation: pulse 0.4s alternate-reverse infinite;
    }
    .star-5 {
        animation: pulse 0.4s alternate infinite;
        -moz-animation: pulse 0.4s alternate infinite;
    }
    .star-6 {
     	animation: pulse 0.3s alternate-reverse infinite;
     	-moz-animation: pulse 0.3s alternate-reverse infinite;
    }
    .star-7 {
       	animation: pulse 0.4s alternate infinite;
       	-moz-animation: pulse 0.4s alternate infinite;
    }

    @-moz-keyframes pulse {
        0% {
            opacity: 1;
            transform: scale(1.1);
            -moz-transform: scale(1.1);
        }
        100% {
        	opacity: 0.8;
        	transform: scale(0.8);
            -moz-transform: scale(1.1);
        }
    }

    @keyframes pulse {
        0% {
            opacity: 1;
            transform: scale(1.1);
            -moz-transform: scale(1.1);
        }
        100% {
        	opacity: 0.8;
        	transform: scale(0.8);
            -moz-transform: scale(1.1);
        }
    }
</style>
<g>
	<g>
		<path fill="#D8E5EA" d="M454.7,142c7.9,23.1,18.4,70.1-5.7,111.4c-1.5-2.6-3.4-4.9-5.8-7c-31.2-25.2-98.5-79.4-108.8-86.8
			c0,0,42.7-37,98.9-34.1c2.2,0.1,4.4,0.5,6.3,1.2C446.5,129.2,452.2,134.8,454.7,142"/>
	</g>
	<g>
		<path fill="#BAD2D8" d="M349.6,152.3c0,0,39.9,14.4,64.4,27.8c7.4,4,16.5-0.6,17.5-8.9c1.8-12.7,2.8-29.4-0.6-41.4l17.9,9
			l10.9,56.6l-10.2,47.6l-15-6.3l-85.1-68.7l-7.3-8.2L349.6,152.3z"/>
	</g>
	<g>
		<path fill="#FFFFFF" d="M449,253.5c4.4,7.6,4.3,17.2-0.8,24.9c-11.6,17.3-32.1,40.1-58.9,39.5c6.7-5.5,11-13.9,11-23.1
			c0-14.7-10.6-27-24.6-29.5c0.3-2.3,0.5-4.5,0.5-6.4c0-37.1-28-68.8-63-79.8v-19.3c0,0,7.5-9.8,21,0c10.3,7.5,77.6,61.6,108.8,86.8
			C445.6,248.6,447.6,251,449,253.5"/>
	</g>
	<g>
		<path fill="#D8E5EA" d="M377.9,319.1c-0.8-4.5-2.1-8.9-3.7-13.2c-1.2-3.3-2.4-5.9-3.2-7.9c-5.2-12.2-4.6-15.2-0.1-31.4
			c0.9-3.4,1.6-6.4,2-9l1.8-12.3l12.2,2.3c19.9,3.6,34.3,21.1,34.3,41.3c0,12.7-5.6,24.5-15.5,32.5c-3.5,2.9-7.6-0.7-12,0.9
			L380.5,333L377.9,319.1z"/>
	</g>
	<g>
		<path fill="#3278BD" d="M389.3,318c-2.5,2.1-5.4,3.7-8.5,4.9c-1-5.3-2.4-10.4-4.3-15.2c-6.7-17.9-8.1-13.5-3-32
			c1-3.6,1.8-7.2,2.3-10.5c13.9,2.6,24.6,14.8,24.6,29.5C400.3,304.1,396,312.5,389.3,318"/>
	</g>
	<g>
		<path fill="#E9606F" d="M415.1,419.8c0,0,52.9,35.4,74.6,68.5c-42.1,33.5-92.7,56.8-148,66.5c5-4.3,55-48.4,70.7-120l0,0
			C413.4,429.9,414.4,424.9,415.1,419.8"/>
	</g>
	<g>
		<path fill="#D34C60" d="M455.3,512.2c11.9-7.3,23.4-15.2,34.3-23.9c-21.6-33.1-74.6-67.7-74.6-67.7c-0.7,5.1-1.7,9.6-2.7,15.6l0,0
			c-2.2,9-5.2,19-8.5,27.9C419.4,476.1,441.4,493.8,455.3,512.2"/>
	</g>
	<g>
		<path fill="#FFFFFF" d="M439.5,126.9c-2-0.7-4.1-1-6.3-1.2c-56.1-2.9-98.9,34.1-98.9,34.1c-13.5-9.8-21,0-21,0l-14.9-10
			c0,0,29.4-58.8,87.3-75.5c0.8-0.2,1.7-0.4,2.5-0.4c0.8-0.1,1.7-0.1,2.5,0.1C401.1,75.4,438.3,83.7,439.5,126.9"/>
	</g>
	<g>
		<path fill="#3278BD" d="M389.3,318c-2.5,2.1-5.4,3.7-8.5,4.9c-1-5.3-2.4-10.4-4.3-15.2c-6.7-17.9-8.1-13.5-3-32
			c1-3.6,1.8-7.2,2.3-10.5c13.9,2.6,24.6,14.8,24.6,29.5C400.3,304.1,396,312.5,389.3,318"/>
	</g>
	<g>
		<path fill="#D8E5EA" d="M388.2,73.8L388.2,73.8c-0.8,0.1-1.7,0.2-2.5,0.4c-58,16.7-87.3,75.5-87.3,75.5l-12-8l-11.8,7.9
			c-1.5-2.8-30.7-59.1-87.2-75.4c-0.6-0.2-1.3-0.3-2-0.3l0.1-0.8c27.5-22.7,62.7-36.3,101-36.3C325,36.9,360.6,50.8,388.2,73.8"/>
	</g>
	<g>
		<path fill="#BAD2D8" d="M291,108.9l-0.2-0.1c-2.8-1.9-6.3-1.9-9,0l0,0c-3.8,2.6-9,1.5-11.5-2.5c-7.5-12.2-25-36.9-52.3-54.1
			c-11.8,5.6-22.8,12.7-32.8,20.9l-0.1,0.8c0.7,0,1.3,0.2,2,0.3c56.5,16.3,85.9,72.6,87.2,75.4l11.8-7.9l12,8
			c0,0,29.5-58.8,87.3-75.5c0.8-0.2,2.6-0.4,2.6-0.4v-0.1c-9-8.5-21.4-15.8-33.5-21.5c-27.3,17.2-44.7,41.9-52.3,54.1
			C300.1,110.4,294.9,111.5,291,108.9"/>
	</g>
	<g>
		<path fill="#638389" d="M382.4,343.8c6.4,28,0.3,54-14.8,74c-13.6,17.9-34.5,31-60.4,35.9c0,0-8.5,1.2-8.9,12
			c-2.7,0-17.3-0.1-20-0.3c-35.7-2.2-62.3-20.2-77.3-45.5l0,0c-12.8-21.8-16.9-48.9-10.7-76h0.1c1.9,40.2,35.4,74.3,74.7,83.4
			c11.5,2,21.1-10,21.1-21.6c0,11.6,9.9,23.1,21.2,21.6c39.8-9,72.7-42.7,74.7-83.5L382.4,343.8z"/>
	</g>
	<g>
		<path fill="#1F9DD6" d="M382.3,339.8c0,1.3,0,2.7-0.1,3.9c-2.1,40.8-34.9,74.5-74.7,83.5c-11.3,1.5-21.2-10.1-21.2-21.6
			c0,11.6-9.6,23.4-21.1,21.6c-39.3-9.1-72.8-43.3-74.7-83.4c0-0.4-0.1-0.7-0.1-1.1c-0.2-6.7,0.3-13.4,1.6-19.7
			c0.9-5.1,2.4-10,4.1-14.7c6.7-18.2,8.4-13.9,3.1-32.5c-1-3.5-1.8-7.1-2.3-10.4c-0.3-2.3-0.5-4.5-0.5-6.5c0-37.1,28-68.7,63-79.8
			v16.8l27,17.9l27-17.9v-16.8c35,11.1,63,42.6,63,79.8c0,2-0.2,4.1-0.5,6.4c-0.5,3.3-1.2,6.8-2.3,10.5c-5.1,18.5-3.7,14,3,32
			c1.9,4.9,3.3,10,4.3,15.2C381.7,328.3,382.3,334.1,382.3,339.8"/>
	</g>
	<g>
		<path fill="#1F9DD6" d="M382.3,339.8c0,1.3,0,2.7-0.1,3.9c-2.1,40.8-34.9,74.5-74.7,83.5c-11.3,1.5-21.2-10.1-21.2-21.6
			c0,11.6-9.6,23.4-21.1,21.6c-39.3-9.1-72.8-43.3-74.7-83.4c0-0.4-0.1-0.7-0.1-1.1c-0.2-6.7,0.3-13.4,1.6-19.7
			c0.9-5.1,2.4-10,4.1-14.7c6.7-18.2,8.4-13.9,3.1-32.5c-1-3.5-1.8-7.1-2.3-10.4c-0.3-2.3-0.5-4.5-0.5-6.5c0-37.1,28-68.7,63-79.8
			v16.8l27,17.9l27-17.9v-16.8c35,11.1,63,42.6,63,79.8c0,2-0.2,4.1-0.5,6.4c-0.5,3.3-1.2,6.8-2.3,10.5c-5.1,18.5-3.7,14,3,32
			c1.9,4.9,3.3,10,4.3,15.2C381.7,328.3,382.3,334.1,382.3,339.8"/>
	</g>
	<g>
		<path fill="#1F9DD6" d="M382.3,339.8c0,1.3,0,2.7-0.1,3.9c-2.1,40.8-34.9,74.5-74.7,83.5c-11.3,1.5-21.2-10.1-21.2-21.6
			c0,11.6-9.6,23.4-21.1,21.6c-39.3-9.1-72.8-43.3-74.7-83.4c0-0.4-0.1-0.7-0.1-1.1c-0.2-6.7,0.3-13.4,1.6-19.7
			c0.9-5.1,2.4-10,4.1-14.7c6.7-18.2,8.4-13.9,3.1-32.5c-1-3.5-1.8-7.1-2.3-10.4c-0.3-2.3-0.5-4.5-0.5-6.5c0-37.1,28-68.7,63-79.8
			v16.8l27,17.9l27-17.9v-16.8c35,11.1,63,42.6,63,79.8c0,2-0.2,4.1-0.5,6.4c-0.5,3.3-1.2,6.8-2.3,10.5c-5.1,18.5-3.7,14,3,32
			c1.9,4.9,3.3,10,4.3,15.2C381.7,328.3,382.3,334.1,382.3,339.8"/>
	</g>
	<g>
		<path fill="#1F9DD6" d="M382.3,339.8c0,1.3,0,2.7-0.1,3.9c-2.1,40.8-34.9,74.5-74.7,83.5c-11.3,1.5-21.2-10.1-21.2-21.6
			c0,11.6-9.6,23.4-21.1,21.6c-39.3-9.1-72.8-43.3-74.7-83.4c0-0.4-0.1-0.7-0.1-1.1c-0.2-6.7,0.3-13.4,1.6-19.7
			c0.9-5.1,2.4-10,4.1-14.7c6.7-18.2,8.4-13.9,3.1-32.5c-1-3.5-1.8-7.1-2.3-10.4c-0.3-2.3-0.5-4.5-0.5-6.5c0-37.1,28-68.7,63-79.8
			v16.8l27,17.9l27-17.9v-16.8c35,11.1,63,42.6,63,79.8c0,2-0.2,4.1-0.5,6.4c-0.5,3.3-1.2,6.8-2.3,10.5c-5.1,18.5-3.7,14,3,32
			c1.9,4.9,3.3,10,4.3,15.2C381.7,328.3,382.3,334.1,382.3,339.8"/>
	</g>
	<g>
		<path fill="#39BCEB" d="M220.5,343.8c0-0.4-0.1-0.7-0.1-1.1c-0.2-6.7,0.3-13.4,1.6-19.8c0.9-5.1,2.4-10,4.1-14.7
			c6.7-18.2,8.4-13.9,3.1-32.5c-1-3.5-1.8-7.1-2.3-10.4c-0.3-2.3-0.6-4.5-0.6-6.5c0-25.6,11.9-48.5,32.9-63.9v-15.8
			c-36,11.1-63,42.5-63,79.8c0,2.1,0.2,4.3,0.5,6.5c0.5,3.3,1.3,6.8,2.3,10.4c5.3,18.7,3.6,14.3-3.1,32.5c-1.8,4.8-3.2,9.6-4.1,14.7
			c-1.2,6.3-1.8,13-1.6,19.8c0,0.4,0,0.7,0.1,1.1c1.9,40.2,35.4,74.3,74.7,83.4c5.5,0.9,10.5-1.3,14.3-5.1
			C247.3,408.6,222,378.6,220.5,343.8"/>
	</g>
	<g>
		<g>
			<g>
				<g>
					<defs>
						<rect id="SVGID_1_" x="284.5" y="179" width="97.8" height="248.4"/>
					</defs>
					<clipPath id="SVGID_2_">
						<use xlink:href="#SVGID_1_"  overflow="visible"/>
					</clipPath>
					<g clip-path="url(#SVGID_2_)">
						<path fill="#3278BD" d="M380.6,322.8c-1-5.3-2.4-10.4-4.3-15.2c-6.7-17.9-8.1-13.5-3-32c1-3.6,1.8-7.2,2.3-10.5
							c0.3-2.3,0.5-4.5,0.5-6.4c0-37.1-28-68.8-63-79.8l-9,15.9c19.7,15.5,33,38.4,33,64c0,2-0.2,4.1-0.5,6.4
							c-0.5,3.3-1.2,6.8-2.3,10.5c-5.1,18.5-3.7,14,3,32c1.9,4.9,3.3,10,4.3,15.2c1,5.5,1.6,11.2,1.6,16.9c0,1.3,0,2.7-0.1,3.9
							c-1.8,35.2-26.5,65-58.7,78.4c3.7,3.6,17.7,5.8,23,5.1c39.8-9,72.7-42.7,74.7-83.5c0.1-1.3,0.1-2.6,0.1-3.9
							C382.3,334.1,381.7,328.3,380.6,322.8"/>
					</g>
				</g>
			</g>
		</g>
	</g>
	<g>
		<path fill="#1F9DD6" d="M412.4,434.8c-15.7,71.5-65.8,115.8-70.7,120c-3.9,0.7-7.9,1.2-11.8,1.9c-14.6,2.1-29.6,3-44.8,3
			c-9.9,0-19.6-0.4-29.3-1.3c-8.6-0.7-17-1.9-25.4-3.2c0,0-53.7-44.4-70.7-118.6c13.3-6.5,27.2-12.1,41.6-16.7l0,0
			c14.8,25.3,41.5,43.4,77.3,45.5c2.6,0.2,17.3,0.3,20,0.3c0.5-10.8,8.9-12,8.9-12c25.7-4.9,46.7-17.9,60.4-35.9
			C383.1,422.2,398.1,427.9,412.4,434.8"/>
	</g>
	<g>
		<path fill="#1F9DD6" d="M412.4,434.8c-15.7,71.5-65.8,115.8-70.7,120c-3.9,0.7-7.9,1.2-11.8,1.9c-14.6,2.1-29.6,3-44.8,3
			c-9.9,0-19.6-0.4-29.3-1.3c-8.6-0.7-17-1.9-25.4-3.2c0,0-53.7-44.4-70.7-118.6c13.3-6.5,27.2-12.1,41.6-16.7l0,0
			c14.8,25.3,41.5,43.4,77.3,45.5c2.6,0.2,17.3,0.3,20,0.3c0.5-10.8,8.9-12,8.9-12c25.7-4.9,46.7-17.9,60.4-35.9
			C383.1,422.2,398.1,427.9,412.4,434.8"/>
	</g>
	<g>
		<g>
			<g>
				<g>
					<defs>
						<rect id="SVGID_3_" x="190.4" y="425.5" width="186.4" height="66.1"/>
					</defs>
					<clipPath id="SVGID_4_">
						<use xlink:href="#SVGID_3_"  overflow="visible"/>
					</clipPath>
					<g clip-path="url(#SVGID_4_)">
						<path fill="#3278BD" d="M190.4,426.7c0,0,24.7,82.3,127.2,61.6c2.8-0.5,4.8-3,4.8-5.9v-0.8c0-2.3,1.3-4.5,3.4-5.4
							c10.5-4.9,41.6-21.4,51-50.6l-18.5,2.7l-56.5,32.4l-6.5,10.6c0,0-64-5.6-94.3-44.5L190.4,426.7L190.4,426.7z"/>
					</g>
				</g>
			</g>
		</g>
	</g>
	<g>
		<path fill="#3278BD" d="M407.1,438.1l-9.3-7c0,0-21.2,81.1-80.6,92c-10.1,1.6-20.3,2.5-30.8,2.5c-10,0-19.8-0.7-29.5-2.3
			c-60.3-10.2-81.7-92.2-81.7-92.2l-9.3,7c-1,15.1,12.1,41.9,23.2,61.5c-2.1-1.2-4.1-2.5-6.2-3.7c21.5,37.9,47.3,59.1,47.3,59.1
			c8.4,1.3,16.8,2.5,25.4,3.2c9.6,0.9,19.4,1.3,29.3,1.3c15.2,0,30.2-1,44.8-3c3.9-0.5,7.9-1.1,11.8-1.9
			c3.3-2.8,26.5-23.3,46.3-57.7c-1.3,0.8-2.6,1.6-3.9,2.4C395.1,479.8,408.1,453.1,407.1,438.1"/>
	</g>
	<g>
		<polygon fill="#FAB739" points="274.4,149.7 286.4,141.8 298.3,149.8 313.3,159.8 313.3,179 313.3,195.8 286.4,213.7 259.3,195.8
			259.3,179 259.3,159.8 259.9,159.5 		"/>
	</g>
	<g>
		<polygon fill="#FFD46B" points="298.3,149.8 296.3,148.6 259.2,180.6 259.2,195.8 276.7,207.4 304.4,154.2 307.3,156.3 		"/>
	</g>
	<g>
		<path fill="#FFFFFF" d="M274.4,149.7l-14.6,9.8c-1.6-1.7-8.8-8.2-20.6,0.3c0,0-0.1,0-0.1,0.1l-0.1-0.1c0,0-42.7-37-98.9-34.1
			c-2.4,0.1-4.7,0.5-6.7,1.3v-0.1c1-43.2,38.4-51.5,48.8-52.9c1-0.1,2-0.2,3,0c0.7,0,1.3,0.2,2,0.3
			C243.7,90.6,273.1,146.9,274.4,149.7"/>
	</g>
	<g>
		<path fill="#FFFFFF" d="M259.9,159.5l-0.6,0.3V179c-35,11.1-63,42.5-63,79.8c0,2.1,0.2,4.3,0.5,6.5l-0.6,0.1
			c-13.6,2.8-24,14.8-24,29.4c0,9.3,4.4,17.7,11,23.2c-26.5,0.1-46.6-22.4-58.1-39.5c-5.1-7.7-5.2-17.2-0.8-24.9
			c1.5-2.6,3.4-5,5.9-7c31.1-25.1,98.1-79.1,108.7-86.7c0,0,0.1,0,0.1-0.1C251.1,151.2,258.3,157.8,259.9,159.5"/>
	</g>
	<g>
		<path fill="#D8E5EA" d="M239,159.8L239,159.8c-10.5,7.7-77.6,61.7-108.7,86.8c-2.5,2-4.4,4.4-5.9,7l-0.1-0.1
			c-24.2-41.3-13.6-88.3-5.7-111.4c2.4-7.2,8-12.7,14.8-15c2.1-0.7,4.4-1.2,6.7-1.3C196.3,122.7,239,159.8,239,159.8"/>
	</g>
	<g>
		<path fill="#E9606F" d="M159.5,436.5c17,74.2,70.7,118.6,70.7,118.6c-17.6-2.9-34.8-7.3-51.3-13c-32.7-11-63-27.1-90-47.2
			c-1.9-1.3-3.6-2.8-5.5-4.1c21.6-33.1,73-70.9,73-70.9C157.2,425.5,158.2,431.1,159.5,436.5"/>
	</g>
	<g>
		<path fill="#D8E5EA" d="M194.8,319.1c0.8-4.5,2.1-8.9,3.7-13.2c1.2-3.3,2.3-5.9,3.2-7.9c5.2-12.2,4.6-15.2,0.1-31.4
			c-0.9-3.4-1.6-6.4-2-9l-1.8-12.3l-12.2,2.3c-19.9,3.6-34.3,21.1-34.3,41.3c0,12.7,5.6,24.5,15.5,32.5c3.5,2.9,7.6-0.7,12,0.9
			l13.3,10.9L194.8,319.1z"/>
	</g>
	<g>
		<path fill="#EC677E" d="M168,464.3c-3.3-8.7-6.2-18-8.5-27.8c-1.2-5.4-2.3-10.9-3.1-16.7c0,0-51.3,37.8-73,70.9
			c1.8,1.5,3.6,2.8,5.5,4.1c9.3,7,19.1,13.4,29.1,19.3C131.8,495.9,152.8,476.9,168,464.3"/>
	</g>
	<g>
		<path fill="#39BCEB" d="M183.4,318c-6.7-5.5-11-13.9-11-23.2c0-14.5,10.3-26.6,24-29.4l0.6-0.1c0.5,3.3,1.3,6.8,2.3,10.4
			c5.3,18.7,3.6,14.3-3.1,32.5c-1.8,4.8-3.2,9.6-4.1,14.7C188.8,321.7,185.9,320,183.4,318"/>
	</g>
	<g>
		<path fill="#1B2733" d="M307.3,462.7c-4.3,0-8-3-8.8-7.3c-0.9-4.9,2.3-9.5,7.2-10.5c22.8-4.4,42.2-15.9,54.9-32.5
			c14.1-18.6,18.8-42.2,13.2-66.6c-1.1-4.9,1.9-9.6,6.7-10.8c4.9-1.1,9.6,1.9,10.8,6.7c6.8,29.7,1,58.6-16.4,81.4
			c-15.2,20.1-38.6,34.1-65.8,39.3C308.4,462.6,307.8,462.7,307.3,462.7z"/>
	</g>
	<g>
		<path fill="#1B2733" d="M286.4,225.8c-2,0-3.9-0.6-5.5-1.9l-27-21c-2.2-1.7-3.4-4.4-3.4-7.1v-36.1c0-3,1.5-5.8,3.9-7.5l0.3-0.2
			l26.2-20.4c3.2-2.5,7.8-2.5,11.1,0l27,21c2.2,1.7,3.4,4.4,3.4,7.1v36c0,2.8-1.2,5.4-3.4,7.1l-27,21
			C290.2,225.1,288.2,225.8,286.4,225.8z M268.3,191.4l17.9,14l17.9-14v-27.2l-17.9-14l-18,14v27.2H268.3z"/>
	</g>
	<g>
		<path fill="#1B2733" d="M192,331.9c-1,0-2.1-0.2-3.1-0.6c-4.1-1.6-7.9-3.7-11.2-6.4c-9-7.4-14.3-18.4-14.3-30.1
			c0-18.5,13.1-34.5,31.1-38.2c4.9-1,9.6,2.2,10.6,7.1c1,4.9-2.2,9.6-7.1,10.6c-9.6,2-16.7,10.7-16.7,20.5c0,6.3,2.8,12.2,7.8,16.3
			c1.8,1.5,3.7,2.6,6,3.4c4.7,1.8,7.1,7,5.3,11.6C199,329.7,195.6,331.9,192,331.9z"/>
	</g>
	<g>
		<path fill="#BAD2D8" d="M224.7,152.3c0,0-39.9,14.4-64.4,27.8c-7.4,4-16.5-0.6-17.5-8.9c-1.8-12.7-2.8-29.4,0.6-41.4l-17.9,9
			l-10.9,56.6l10.2,47.6l15-6.3l85.1-68.7l7.3-8.2L224.7,152.3z"/>
	</g>
	<g>
		<path fill="#1B2733" d="M380.6,331.9c-3.6,0-7.2-2.3-8.4-5.9c-1.7-4.7,0.7-9.9,5.4-11.5c2.1-0.7,4.1-2,5.9-3.4
			c5-4,7.8-10,7.8-16.3c0-10.2-7.3-18.9-17.1-20.6c-4.9-0.9-8.1-5.6-7.3-10.5c0.9-4.9,5.6-8.1,10.5-7.3c18.5,3.4,32,19.5,32,38.4
			c0,11.7-5.2,22.7-14.3,30.2c-3.3,2.8-7.1,4.9-11.2,6.4C382.7,331.7,381.7,331.9,380.6,331.9z"/>
	</g>
	<g>
		<path fill="#1B2733" d="M390.4,327c-0.4,0-0.8,0-1.3,0c-0.4,0-1.1,0-1.8-0.1c-5-0.4-8.6-4.7-8.3-9.6c0.4-5,4.7-8.6,9.6-8.3
			c0.2,0,0.4,0,0.5,0c22.4,0.4,40.4-19.1,51.5-35.6c3.1-4.7,3.3-10.6,0.5-15.5c-0.9-1.7-2.2-3.1-3.7-4.4
			c-24.2-19.5-97.8-78.8-108.4-86.5c-6.3-4.6-8.6-1.9-8.6-1.8c-3,3.9-8.7,4.7-12.7,1.7s-4.7-8.7-1.7-12.7
			c5.2-6.7,18.3-12.7,33.4-1.8c7.4,5.3,43.2,33.8,109.2,87.1c3.3,2.7,6,5.8,8,9.4c6.1,10.9,5.7,24-1.1,34.3
			C442.3,303.3,420.2,327,390.4,327z"/>
	</g>
	<g>
		<path fill="#1B2733" d="M183.1,327c-29.9,0-52-23.7-65.2-43.6c-6.8-10.3-7.4-23.4-1.2-34.2c2.1-3.7,4.8-7,8.1-9.5
			c65.8-53,101.5-81.5,109.1-87l0,0c0.1,0,0.1-0.1,0.2-0.1c14.9-10.7,27.3-4.6,32.4,0.8c0.6,0.6,0.9,1,0.9,1l-14.3,11
			c0,0,0.1,0.2,0.4,0.4c-0.1-0.1-0.2-0.2-0.2-0.3c-1.7-1.9-4.8-1.2-8.7,1.6l0,0c-0.1,0-0.1,0.1-0.2,0.1
			c-7.5,5.4-43.9,34.4-108.3,86.4c-1.5,1.2-2.7,2.7-3.7,4.4c-2.8,4.9-2.6,10.8,0.5,15.5c10.9,16.3,28.4,35.6,50.5,35.6
			c0.6,0,1.1,0,1.8-0.1c5-0.2,9.1,3.6,9.4,8.6c0.2,5-3.6,9.1-8.6,9.4C185,326.9,184.1,327,183.1,327z"/>
	</g>
	<g>
		<g>
			<g>
				<g>
					<defs>
						<rect id="SVGID_5_" x="262.3" y="300.8" width="46.7" height="21.6"/>
					</defs>
					<clipPath id="SVGID_6_">
						<use xlink:href="#SVGID_5_"  overflow="visible"/>
					</clipPath>
					<g clip-path="url(#SVGID_6_)">
						<path fill="#3278BD" d="M262.3,316.8c0,0,24.7,12.3,46.7,0c0,0-3.9-16.1-22.7-16.1C267.6,300.8,262.3,316.8,262.3,316.8"/>
					</g>
				</g>
			</g>
		</g>
	</g>
	<g>
		<g>
			<g>
				<g>
					<defs>
						<rect id="SVGID_7_" x="274.3" y="360.7" width="24" height="12"/>
					</defs>
					<clipPath id="SVGID_8_">
						<use xlink:href="#SVGID_7_"  overflow="visible"/>
					</clipPath>
					<g clip-path="url(#SVGID_8_)">
						<path fill="#3278BD" d="M276.7,371.1c4.4,1.3,11.9,2.8,19.4,0.1c2.1-0.7,2.9-3.2,1.7-5c-1.8-2.5-5.1-5.5-11.2-5.5
							c-5.9,0-9.4,2.8-11.5,5.2C273.6,367.7,274.4,370.4,276.7,371.1"/>
					</g>
				</g>
			</g>
		</g>
	</g>
	<g>
		<path fill="#1B2733" d="M449,262.5c-1.6,0-3.1-0.4-4.6-1.2c-4.3-2.5-5.7-8-3.2-12.3c22.2-38,12.7-81.4,5-104
			c-1.6-4.5-5.1-8.1-9.6-9.5c-1.2-0.4-2.6-0.7-4-0.7c-51.7-2.7-92,31.6-92.4,32c-3.7,3.2-9.4,2.8-12.7-0.9
			c-3.2-3.7-2.8-9.4,0.9-12.7c1.9-1.7,46.1-39.4,105.2-36.3c3.1,0.2,6,0.7,8.8,1.7c9.6,3.2,17.5,11,20.9,20.9
			c8.6,25.5,19.3,74.8-6.5,118.9C455,260.9,452,262.5,449,262.5z"/>
	</g>
	<g>
		<path fill="#1B2733" d="M124.3,262.5c-3.1,0-6.1-1.6-7.8-4.5c-25.8-44.1-15.1-93.4-6.5-118.9c3.3-9.6,10.7-17.2,20.3-20.6
			c3-1,6.1-1.7,9.3-1.9c59-3.1,103.3,34.8,105.2,36.3c3.7,3.2,4.1,8.9,0.9,12.7c-3.2,3.7-8.9,4.1-12.7,0.9c-0.6-0.5-41-34.6-92.4-32
			c-1.6,0.1-2.9,0.3-4.3,0.8c-4.4,1.6-7.8,5.1-9.3,9.4c-7.7,22.5-17.2,66.1,5,104c2.5,4.3,1,9.8-3.2,12.3
			C127.4,262.1,125.9,262.5,124.3,262.5z"/>
	</g>
	<g>
		<path fill="#1B2733" d="M298.9,157.6c-1.5,0-2.9-0.3-4.3-1c-4.4-2.4-6-7.8-3.6-12.1c5.5-10.3,36-62.6,92.1-78.7
			c1.6-0.4,3.1-0.7,4.6-0.7c1.5-0.1,2.8-0.1,4.3,0.1c26.6,3.7,55.5,21.9,56.4,61.6c0.1,5-3.8,9.1-8.8,9.2c-5,0.1-9.1-3.8-9.2-8.8
			c-0.8-34.9-29-42.5-41.1-44.2c-0.3,0-0.8,0-1.2,0c-50.3,14.5-78.3,64.4-81.3,70C305.2,155.9,302.1,157.6,298.9,157.6z"/>
	</g>
	<g>
		<path fill="#1B2733" d="M273.9,157.5c-3.2,0-6.3-1.7-7.9-4.8c-5-9.2-32.2-55.8-81.2-69.9c-0.3,0-0.5-0.1-0.9-0.1
			c-0.1,0-0.2,0-0.3,0c-12.1,1.7-40.2,9.4-41.1,44.3c-0.1,5-4.1,8.8-9.2,8.8c-5-0.1-8.9-4.3-8.8-9.2c1-39.7,29.9-57.9,56.5-61.6
			c1.8-0.3,3.4-0.3,5.1-0.1c1.5,0.1,2.6,0.4,3.5,0.6c56,16.2,86.6,68.4,92.2,78.6c2.4,4.4,0.7,9.9-3.6,12.2
			C276.8,157.2,275.3,157.5,273.9,157.5z"/>
	</g>
	<g>
		<path fill="#1B2733" d="M388.2,82.8c-2.1,0-4-0.7-5.8-2.1c-26.9-22.5-61-34.9-96.2-34.9c-34.8,0-68.6,12.1-95.3,34.2
			c-3.8,3.1-9.5,2.6-12.7-1.2s-2.6-9.5,1.2-12.7c30-24.7,67.8-38.4,106.8-38.4c39.3,0,77.6,13.9,107.7,39.1
			c3.8,3.2,4.4,8.8,1.1,12.7C393.3,81.8,390.7,82.8,388.2,82.8z"/>
	</g>
	<g>
		<path fill="#1B2733" d="M239.5,358.9c-6.5,0-12.6-3.5-15.9-9.4c-3.9-7-2.8-15.5,2.7-21.1c0.1-0.1,0.2-0.2,0.2-0.2
			c3.5-3.4,9.2-3.4,12.7,0s3.5,9,0.2,12.6c0.1,0.1,0.1,0.1,0.2,0.2l18.6-4.1c18.5-4.1,38-4.1,56.4,0L333,341c0.1,0,0.2-0.1,0.3-0.2
			c-3.4-3.5-3.4-9.1,0.1-12.7c3.3-3.3,8.6-3.5,12.1-0.5c0.3,0.2,0.5,0.5,0.8,0.7c5.6,5.8,6.6,14.3,2.8,21.3c-4,7.2-12,10.8-20,9
			l-18.5-4.1c-15.9-3.5-32.7-3.5-48.5,0l-18.5,4.1C242.2,358.8,240.8,358.9,239.5,358.9z"/>
	</g>
	<g>
		<path fill="#1B2733" d="M268.3,318.7c-1.1,0-2.3-0.2-3.4-0.6c-4.6-1.9-6.8-7.2-5-11.7c4.4-10.7,14.7-17.6,26.5-17.6
			c11.4,0,21.7,6.6,26.1,16.9c2,4.6-0.1,9.9-4.7,11.8c-4.6,2-9.9-0.1-11.8-4.7c-1.7-3.7-5.4-6.1-9.6-6.1c-4.3,0-8.2,2.6-9.8,6.4
			C275.3,316.6,271.8,318.7,268.3,318.7z"/>
	</g>
	<g>
		<path fill="#1B2733" d="M347.4,255.7c-3.1,0-6.1-1.6-7.8-4.5c-4.9-8.3-13.8-13.5-23.3-13.5c-5,0-9-4-9-9s4-9,9-9
			c16,0,30.9,8.6,38.9,22.5c2.5,4.3,1,9.8-3.2,12.3C350.6,255.3,349,255.7,347.4,255.7z"/>
	</g>
	<g>
		<path fill="#1B2733" d="M226.3,255.7c-1.6,0-3.1-0.4-4.5-1.2c-4.3-2.5-5.7-8-3.2-12.3c8.1-13.9,22.9-22.5,38.9-22.5c5,0,9,4,9,9
			c0,5-4,9-9,9c-9.5,0-18.6,5.2-23.3,13.5C232.4,254.2,229.4,255.7,226.3,255.7z"/>
	</g>
	<g>
		<g>
			<g>
				<path fill="#1B2733" d="M256.4,279.8c-8.3,0-15-6.7-15-15c0-8.3,6.7-15,15-15c8.3,0,15,6.7,15,15
					C271.3,273.1,264.6,279.8,256.4,279.8z"/>
			</g>
		</g>
		<g>
			<g>
				<path fill="#1B2733" d="M316.3,279.8c-8.3,0-15-6.7-15-15c0-8.3,6.7-15,15-15s15,6.7,15,15C331.3,273.1,324.5,279.8,316.3,279.8
					z"/>
			</g>
		</g>
	</g>
	<g>
		<path fill="#1B2733" d="M230.2,564c-2,0-4-0.6-5.7-2.1c-2.3-1.9-56.3-47.2-73.8-123.4c-0.2-0.8-0.4-1.7-0.5-2.5
			c-16.1,13-44.9,37.7-59.2,59.5c-2.7,4.1-8.3,5.3-12.4,2.6c-4.1-2.7-5.3-8.3-2.6-12.4c22.3-34,73-71.6,75.2-73.2
			c2.6-1.9,5.9-2.3,8.8-1c2.9,1.2,5,3.9,5.4,7.1c0.7,5.3,1.8,10.7,3,15.9c16.2,70.4,67.2,113.2,67.7,113.7c3.8,3.2,4.4,8.8,1.2,12.7
			C235.4,563,232.8,564,230.2,564z"/>
	</g>
	<g>
		<path fill="#1B2733" d="M489.7,497.2c-2.9,0-5.8-1.5-7.6-4c-14.4-22.1-44.3-45.7-60.7-57.8c-0.1,0.4-0.2,0.8-0.3,1.2
			c-1,4.9-5.8,7.9-10.7,6.8c-4.9-1-7.9-5.8-6.8-10.7c1.1-5,2-9.6,2.6-14.2c0.4-3.1,2.4-5.7,5.2-7c2.8-1.2,6.1-1,8.7,0.7
			c2.2,1.5,54.8,36.7,77.1,71c2.7,4.1,1.6,9.8-2.6,12.4C493.1,496.8,491.3,497.2,489.7,497.2z"/>
	</g>
	<g>
		<path fill="#1B2733" d="M341.2,564c-2.6,0-5.3-1.1-7.1-3.3c-3.1-3.8-2.5-9.4,1.3-12.6l0.2-0.2c2.2-1.8,52.4-45.2,67.7-115
			c1-4.9,5.9-7.9,10.7-6.8c4.9,1,7.9,5.9,6.8,10.7c-16.4,74.5-67.8,119.9-73.7,124.9c-0.3,0.3-0.5,0.5-0.5,0.5
			C345.3,563.4,343.2,564,341.2,564z"/>
	</g>
	<g>
		<path fill="#1B2733" d="M267.7,436.4c-1.3,0-2.6-0.1-3.9-0.3c-0.2,0-0.4-0.1-0.5-0.1c-45.3-10.6-79.7-49.2-81.6-91.8
			c0-0.3-0.1-0.9-0.1-1.6c-0.2-7.2,0.3-14.5,1.7-21.5c0.9-5.3,2.5-10.8,4.5-16.2c1.5-3.9,2.7-6.8,3.7-9.2c2.6-6,2.6-6-0.7-17.7
			c-1.1-4.1-2-8-2.6-11.4c-0.4-3.1-0.6-5.6-0.6-7.9c0-39.1,28.5-75.4,69.3-88.3c4.8-1.5,9.8,1.1,11.3,5.9c1.5,4.8-1.1,9.8-5.9,11.3
			c-33.4,10.5-56.7,39.7-56.7,71.1c0,1.5,0.1,3.1,0.4,5.3c0.4,2.7,1.1,5.8,2.1,9.2c4.5,15.8,4.8,18.5,0,29.7
			c-0.9,2.2-2.1,4.9-3.4,8.5c-1.7,4.4-2.9,8.8-3.7,13.2c-1.1,5.8-1.6,11.7-1.3,17.8v0.7c0,0.1,0,0.2,0,0.3c1.6,34,30.5,66.3,67.4,75
			c1.9,0.2,3.6-0.4,5.4-1.9c3-2.5,5-6.8,5-10.8c0-5,4-9,9-9c5,0,9,4,9,9c0,9.2-4.4,18.7-11.3,24.6
			C279.2,434.3,273.5,436.4,267.7,436.4z"/>
	</g>
	<g>
		<path fill="#1B2733" d="M305.4,436.4c-6.1,0-12.1-2.4-17.2-6.7c-6.8-6-11-14.9-11-24c0-5,4-9,9-9s9,4,9,9c0,3.8,1.9,7.9,4.8,10.5
			c1.3,1.1,3.4,2.5,5.8,2.3c37.2-8.6,65.5-40.1,67.2-75.1c0-1.1,0.1-2.3,0.1-3.5c0-5.1-0.5-10.3-1.5-15.2c-0.8-4.7-2.2-9.2-3.8-13.7
			c-1.2-3.4-2.4-5.9-3.2-8c-4.8-11.2-4.4-13.7,0-29.5c0.9-3.5,1.7-6.7,2.1-9.3c0.3-1.9,0.4-3.6,0.4-5.2c0-31.3-23.3-60.7-56.6-71.2
			c-4.8-1.5-7.4-6.5-5.9-11.3s6.5-7.4,11.3-5.9c40.8,12.9,69.3,49.3,69.3,88.4c0,2.5-0.2,5.1-0.6,7.9c-0.5,3.3-1.2,7.2-2.5,11.4
			c-3.2,11.8-3.2,11.8-0.7,17.6c0.9,2.2,2.1,5,3.5,8.6c2.1,5.4,3.6,11,4.7,16.7c1.1,6.1,1.8,12.3,1.8,18.6c0,1.5,0,2.9-0.1,4.4
			c-2.2,43-36.5,81.7-81.7,91.9c-0.3,0.1-0.5,0.1-0.8,0.1C307.5,436.3,306.5,436.4,305.4,436.4z"/>
	</g>
	<g>
		<path fill="#1B2733" d="M201.1,428.9c-3.1,0-6.1-1.6-7.8-4.5c-14.2-24.2-18.4-53.5-11.6-82.7c1.1-4.9,5.9-7.9,10.8-6.7
			s7.9,5.9,6.7,10.8c-5.7,24.6-2.3,49.3,9.6,69.5c2.5,4.3,1,9.8-3.2,12.3C204.2,428.4,202.6,428.9,201.1,428.9z"/>
	</g>
	<g>
		<path fill="#1B2733" d="M298.4,474.7c-1.3,0-17.4-0.1-20.6-0.3c-36.3-2.2-67-20.4-84.3-50c-2.5-4.3-1-9.8,3.2-12.3
			c4.3-2.5,9.8-1,12.3,3.2c14.4,24.6,39.3,39.2,70,41.1c1.3,0.1,7.3,0.2,12.3,0.2c3.4-8,10.6-11.2,14.8-11.8l2.6,17.8
			c0,0,0.2,0,0.4-0.1c-1,0.3-1.6,1.5-1.7,3.5C307.1,470.9,303.2,474.7,298.4,474.7z"/>
	</g>
	<g>
		<path fill="#1B2733" d="M285,568.6c-10.1,0-20.2-0.5-30.1-1.3c-8.6-0.7-17.4-1.9-26-3.3c-17.9-3-35.8-7.5-52.8-13.4
			c-33.1-11.1-64.2-27.4-92.5-48.4c-2-1.5-3.7-2.9-5.6-4.4c-3.9-3.1-4.6-8.7-1.6-12.7c3-3.9,8.7-4.6,12.7-1.6c1.8,1.3,3.5,2.7,5.3,4
			c26.8,19.9,56.2,35.4,87.6,45.9c16.2,5.6,33,9.9,49.9,12.7c8.2,1.3,16.5,2.4,24.7,3.1c23.9,2.3,48.8,1.6,72.1-1.7
			c4.3-0.6,8-1.1,11.5-1.8c52.4-9,102.2-31.4,144-64.6c3.8-3.1,9.5-2.5,12.7,1.5c3.1,3.8,2.5,9.5-1.5,12.7
			c-44.2,35.1-96.8,58.7-152.1,68.3c-3.7,0.6-7.7,1.2-12.1,1.9C316,567.6,300.6,568.6,285,568.6z"/>
	</g>
	<g>
		<path fill="#1B2733" d="M412.4,443.8c-1.3,0-2.7-0.3-3.9-0.8c-14-6.6-28.6-12.2-43.4-16.5c-4.8-1.3-7.6-6.3-6.1-11.1
			c1.3-4.8,6.3-7.6,11.1-6.1c15.7,4.5,31.1,10.4,46,17.4c3.1,1.3,5.4,4.6,5.4,8.2C421.4,439.8,417.4,443.8,412.4,443.8z"/>
	</g>
	<g>
		<path fill="#1B2733" d="M159.5,445.6c-5,0-9-4-9-9c0-3.7,2.3-7,5.5-8.3c13.7-6.7,28-12.4,42.4-17c0.8-0.3,1.8-0.4,2.7-0.4
			c5,0,9,4,9,9c0,4.1-2.8,7.7-6.7,8.7c-13.6,4.3-27,9.6-39.9,16.1C162.3,445.3,160.8,445.6,159.5,445.6z"/>
	</g>
	<g>
		<path class="star star-1" fill="#FAB739" d="M107.8,371.2c-3.3,0-6-2.7-6-6c0-5-4-9-9-9c-3.3,0-6-2.7-6-6s2.7-6,6-6c5,0,9-4,9-9c0-3.3,2.7-6,6-6
			c3.3,0,6,2.7,6,6c0,5,4,9,9,9c3.3,0,6,2.7,6,6c0,3.3-2.7,6-6,6c-5,0-9,4-9,9C113.7,368.5,111.1,371.2,107.8,371.2z"/>
	</g>
	<g>
		<path class="star star-2" fill="#E9606F" d="M76.4,429.7c-5,0-9-4-9-9s4-9,9-9s9,4,9,9C85.4,425.6,81.4,429.7,76.4,429.7z M76.4,417.7
			c-1.7,0-3,1.3-3,3s1.3,3,3,3c1.7,0,3-1.3,3-3S78.1,417.7,76.4,417.7z"/>
	</g>
	<g>
		<path class="star star-3" fill="#39BCEB" d="M452.6,374.2c-3.3,0-6-2.7-6-6c0-1.7-1.3-3-3-3c-3.3,0-6-2.7-6-6c0-3.3,2.7-6,6-6c1.7,0,3-1.3,3-3
			c0-3.3,2.7-6,6-6c3.3,0,6,2.7,6,6c0,1.7,1.3,3,3,3c3.3,0,6,2.7,6,6c0,3.3-2.7,6-6,6c-1.7,0-3,1.3-3,3
			C458.7,371.5,456,374.2,452.6,374.2z"/>
	</g>
	<g>
		<path class="star star-4" fill="#FAB739" d="M530.5,320.3c-3.3,0-6-2.7-6-6c0-5-4-9-9-9c-3.3,0-6-2.7-6-6s2.7-6,6-6c5,0,9-4,9-9c0-3.3,2.7-6,6-6
			c3.3,0,6,2.7,6,6c0,5,4,9,9,9c3.3,0,6,2.7,6,6c0,3.3-2.7,6-6,6c-5,0-9,4-9,9C536.6,317.6,533.9,320.3,530.5,320.3z"/>
	</g>
	<g>
		<path class="star star-5" fill="#FAB739" d="M496,429.7c-5,0-9-4-9-9s4-9,9-9c5,0,9,4,9,9C505,425.6,501,429.7,496,429.7z M496,417.7c-1.7,0-3,1.3-3,3
			s1.3,3,3,3c1.7,0,3-1.3,3-3S497.7,417.7,496,417.7z"/>
	</g>
	<g>
		<path class="star star-6" fill="#E9606F" d="M510.9,216.7c-5,0-9-4-9-9s4-9,9-9c5,0,9,4,9,9S515.9,216.7,510.9,216.7z M510.9,204.8c-1.7,0-3,1.3-3,3
			c0,1.7,1.3,3,3,3s3-1.3,3-3S512.6,204.8,510.9,204.8z"/>
	</g>
	<g>
		<path class="star star-7" fill="#E9606F" d="M64.2,204.8c-5,0-9-4-9-9s4-9,9-9s9,4,9,9S69.1,204.8,64.2,204.8z M64.2,192.8c-1.7,0-3,1.3-3,3s1.3,3,3,3
			c1.7,0,3-1.3,3-3C67.2,194.1,65.8,192.8,64.2,192.8z"/>
	</g>
</g>
</svg>
