<?xml version="1.0" encoding="UTF-8" standalone="no"?><svg width="400" height="400" viewBox="0 0 400 400" xmlns="http://www.w3.org/2000/svg"><title>get-lysted</title><g transform="translate(40 47)" fill="none" fill-rule="evenodd"><path d="M299.956 155.506c8.242 4.042 14.611 11.334 17.42 20.2-2.809 8.866-9.178 16.158-17.42 20.2a33.831 33.831 0 0 1-14.94 3.455c-15.166 0-28.008-9.935-32.36-23.655 4.352-13.72 17.194-23.656 32.36-23.656 5.36 0 10.434 1.245 14.94 3.456z" fill="#FAF9FC"/><path d="M299.956 155.506a33.831 33.831 0 0 0-14.94-3.456c-1.836 0-3.636.153-5.394.432a33.745 33.745 0 0 1 9.582 3.024c8.242 4.042 14.61 11.334 17.42 20.2-2.81 8.866-9.178 16.158-17.42 20.2a33.757 33.757 0 0 1-9.582 3.023 34.15 34.15 0 0 0 5.394.432c5.36 0 10.434-1.244 14.94-3.455 8.242-4.042 14.611-11.334 17.42-20.2-2.809-8.866-9.178-16.158-17.42-20.2z" fill="#E4EEF2"/><path d="M269.51 155.506a33.831 33.831 0 0 1 14.94-3.456c1.836 0 3.636.153 5.394.432a33.745 33.745 0 0 0-9.582 3.024c-8.241 4.042-14.61 11.334-17.42 20.2 2.81 8.866 9.179 16.158 17.42 20.2a33.757 33.757 0 0 0 9.582 3.023 34.15 34.15 0 0 1-5.394.432 33.831 33.831 0 0 1-14.94-3.455c-8.242-4.042-14.611-11.334-17.42-20.2 2.809-8.866 9.178-16.158 17.42-20.2z" fill="#E4EEF2"/><ellipse fill="#234957" cx="152.215" cy="150.3" rx="62.716" ry="62.689"/><path fill="#D3C589" d="M194.946 92.655l-.01.07h.01z"/><path d="M162.276 270.077c-.127 0-.255-.012-.385-.036l-4.044-.764a2.056 2.056 0 0 1-1.639-2.404 2.05 2.05 0 0 1 2.405-1.638l4.044.764a2.056 2.056 0 0 1-.381 4.078zm-14.154-2.676c-.127 0-.255-.012-.385-.036l-4.044-.765a2.058 2.058 0 1 1 .765-4.042l4.045.765a2.057 2.057 0 0 1-.381 4.078zm-14.153-2.678c-.128 0-.256-.01-.385-.036l-4.044-.764a2.058 2.058 0 1 1 .765-4.042l4.044.764a2.058 2.058 0 0 1-.38 4.078zm-14.154-2.676c-.128 0-.256-.011-.385-.036l-4.044-.764a2.058 2.058 0 1 1 .765-4.042l4.043.764a2.058 2.058 0 0 1-.38 4.078zm-14.155-2.677c-.128 0-.257-.011-.385-.036l-4.044-.764a2.058 2.058 0 1 1 .765-4.042l4.043.764a2.058 2.058 0 0 1-.38 4.078zm-14.153-2.676c-.128 0-.257-.011-.385-.036l-4.044-.764a2.058 2.058 0 1 1 .765-4.042l4.043.764a2.058 2.058 0 0 1-.38 4.078zM228.422 241.53a2.055 2.055 0 0 1-1.694-3.222l2.333-3.39a2.058 2.058 0 0 1 2.86-.53 2.055 2.055 0 0 1 .53 2.86l-2.332 3.389a2.048 2.048 0 0 1-1.697.893zm8.162-11.865a2.057 2.057 0 0 1-1.695-3.222l2.332-3.391a2.057 2.057 0 1 1 3.392 2.33l-2.331 3.39c-.4.581-1.044.893-1.698.893zm8.16-11.866a2.057 2.057 0 0 1-1.695-3.222l2.332-3.39a2.057 2.057 0 1 1 3.392 2.33l-2.33 3.39a2.053 2.053 0 0 1-1.699.892zM255.176 137.652a2.06 2.06 0 0 1-1.977-1.486l-1.142-3.952a2.059 2.059 0 0 1 3.955-1.143l1.142 3.953a2.059 2.059 0 0 1-1.978 2.628zm-3.999-13.833a2.06 2.06 0 0 1-1.976-1.486l-1.142-3.953a2.059 2.059 0 0 1 3.955-1.142l1.142 3.952a2.059 2.059 0 0 1-1.979 2.63zm-3.997-13.833a2.06 2.06 0 0 1-1.977-1.487l-1.14-3.953a2.057 2.057 0 0 1 3.954-1.14l1.142 3.952a2.057 2.057 0 0 1-1.98 2.628zm-3.997-13.833a2.06 2.06 0 0 1-1.977-1.487l-1.142-3.952a2.059 2.059 0 0 1 3.955-1.143l1.142 3.953a2.059 2.059 0 0 1-1.978 2.629zM87.459 54.343a2.058 2.058 0 0 1-.093-4.112l4.112-.187a2.058 2.058 0 0 1 .187 4.11l-4.112.187c-.031.002-.063.002-.094.002zm14.39-.653a2.058 2.058 0 0 1-.093-4.112l4.112-.187a2.068 2.068 0 0 1 2.149 1.961 2.057 2.057 0 0 1-1.962 2.149l-4.112.187-.095.002zm14.39-.654a2.058 2.058 0 0 1-.092-4.112l4.111-.187a2.057 2.057 0 0 1 .187 4.11l-4.111.187a2.97 2.97 0 0 1-.095.002zm14.39-.654a2.058 2.058 0 0 1-.093-4.112l4.112-.187a2.072 2.072 0 0 1 2.15 1.961 2.057 2.057 0 0 1-1.963 2.149l-4.111.187c-.031.002-.063.002-.095.002zm14.39-.654a2.057 2.057 0 0 1-.093-4.112l4.113-.188a2.056 2.056 0 1 1 .187 4.11l-4.112.188c-.032.002-.062.002-.094.002zm14.39-.653a2.057 2.057 0 0 1-.091-4.112l4.111-.188a2.057 2.057 0 0 1 .187 4.11l-4.11.187-.097.003zm14.39-.655a2.058 2.058 0 0 1-.091-4.112l4.111-.187a2.068 2.068 0 0 1 2.15 1.962 2.057 2.057 0 0 1-1.963 2.148l-4.111.187a2.97 2.97 0 0 1-.096.002zM44.244 195.247a2.058 2.058 0 0 1-2.058-2.057v-2.057a2.058 2.058 0 0 1 4.116 0v2.057a2.058 2.058 0 0 1-2.058 2.057zm0-12.342a2.058 2.058 0 0 1-2.058-2.057v-4.114a2.058 2.058 0 0 1 4.116 0v4.114a2.058 2.058 0 0 1-2.058 2.057zm0-14.399a2.058 2.058 0 0 1-2.058-2.057v-4.114a2.058 2.058 0 0 1 4.116 0v4.114a2.058 2.058 0 0 1-2.058 2.057zm0-14.399a2.058 2.058 0 0 1-2.058-2.057v-4.114a2.058 2.058 0 0 1 4.116 0v4.114a2.058 2.058 0 0 1-2.058 2.057zm0-14.399a2.058 2.058 0 0 1-2.058-2.057v-4.114a2.058 2.058 0 0 1 4.116 0v4.114a2.058 2.058 0 0 1-2.058 2.057zm0-14.399a2.058 2.058 0 0 1-2.058-2.057v-4.114a2.058 2.058 0 0 1 4.116 0v4.114a2.058 2.058 0 0 1-2.058 2.057zm0-14.399a2.058 2.058 0 0 1-2.058-2.057v-4.114a2.058 2.058 0 0 1 4.116 0v4.114a2.058 2.058 0 0 1-2.058 2.057zm0-14.398a2.058 2.058 0 0 1-2.058-2.057V90.34a2.058 2.058 0 0 1 4.116 0v4.114a2.058 2.058 0 0 1-2.058 2.057z" fill="#234957"/><g fill="#234957"><path d="M110.441 105.596a2.05 2.05 0 0 1-1.337-.494L75.76 76.536a2.056 2.056 0 0 1-.224-2.9 2.059 2.059 0 0 1 2.902-.224l33.344 28.565a2.056 2.056 0 0 1-1.34 3.62z"/><path d="M71.48 79.737a9.201 9.201 0 0 1-7.24-3.493 2.056 2.056 0 1 1 3.223-2.559 5.107 5.107 0 0 0 4.017 1.938 5.093 5.093 0 0 0 4.008-1.929 5.008 5.008 0 0 0 1.137-3.214 5.127 5.127 0 0 0-2.504-4.42 2.056 2.056 0 0 1-.699-2.825 2.056 2.056 0 0 1 2.825-.698c2.814 1.696 4.494 4.665 4.494 7.943a9.19 9.19 0 0 1-2.048 5.795 9.174 9.174 0 0 1-7.213 3.462z"/></g><g fill="#234957"><path d="M232.405 165.37c-.247 0-.499-.045-.744-.14l-17.77-6.879a2.06 2.06 0 0 1-1.176-2.662 2.058 2.058 0 0 1 2.662-1.174l17.771 6.88a2.06 2.06 0 0 1 1.176 2.661 2.06 2.06 0 0 1-1.919 1.314z"/><path d="M238.224 175.141c-.085 0-.17-.005-.258-.016-4.624-.577-8.111-4.528-8.111-9.19 0-5.104 4.153-9.256 9.26-9.256 1.394 0 2.742.306 4.007.912a2.056 2.056 0 1 1-1.777 3.71 5.15 5.15 0 0 0-7.374 4.634 5.153 5.153 0 0 0 4.505 5.108 2.056 2.056 0 0 1-.252 4.098z"/></g><g fill="#234957"><path d="M186.238 235.789c-.825 0-1.605-.501-1.919-1.317l-9.875-25.558a2.057 2.057 0 1 1 3.839-1.482l9.875 25.558a2.056 2.056 0 0 1-1.92 2.799z"/><path d="M183.117 247.7c-.704 0-1.388-.36-1.773-1.007a9.224 9.224 0 0 1-1.28-4.697 9.276 9.276 0 0 1 6.325-8.804 9.176 9.176 0 0 1 2.972-.49c4.604 0 8.56 3.431 9.204 7.982a2.058 2.058 0 0 1-4.076.575c-.358-2.532-2.562-4.442-5.128-4.442-.57 0-1.124.092-1.649.272a5.168 5.168 0 0 0-2.827 7.507 2.057 2.057 0 0 1-1.768 3.105z"/></g><path d="M296.334 175.706c0-6.253-5.062-11.314-11.318-11.314-2.048 0-3.961.545-5.618 1.502h-.01a5.144 5.144 0 0 0-8.777 3.64c0 2.14 1.317 3.981 3.18 4.753-.062.462-.093.935-.093 1.419 0 6.253 5.062 11.313 11.318 11.313 6.256 0 11.318-5.06 11.318-11.313z" fill="#FAF9FC"/><path d="M285.016 199.361c5.36 0 10.434-1.244 14.94-3.455-6.184 8.34-16.103 13.74-27.287 13.74-18.758 0-33.955-15.19-33.955-33.94s15.197-33.94 33.955-33.94c11.184 0 21.103 5.399 27.287 13.73v.01a33.831 33.831 0 0 0-14.94-3.456c-15.166 0-28.008 9.936-32.36 23.656 4.352 13.72 17.194 23.655 32.36 23.655z" fill="#FBB735"/><path d="M273.698 175.706c0-.484.03-.957.092-1.42.607.258 1.266.391 1.966.391a5.145 5.145 0 0 0 5.144-5.142c0-1.42-.576-2.705-1.502-3.641a11.186 11.186 0 0 1 5.618-1.502c6.256 0 11.318 5.06 11.318 11.314 0 6.253-5.062 11.313-11.318 11.313-6.256 0-11.318-5.06-11.318-11.313z" fill="#1B9ED6"/><path d="M290.016 165.566a11.247 11.247 0 0 1 1.174 4.997c0 6.254-5.063 11.314-11.319 11.314a11.26 11.26 0 0 1-5-1.174c1.847 3.74 5.688 6.316 10.145 6.316 6.256 0 11.318-5.06 11.318-11.313 0-4.456-2.577-8.295-6.318-10.14z" fill="#2489BC"/><path d="M273.79 174.287a5.152 5.152 0 0 1-3.18-4.752 5.145 5.145 0 0 1 8.778-3.641h.01a5.164 5.164 0 0 1 1.502 3.64 5.145 5.145 0 0 1-7.11 4.753z" fill="#E4EEF2"/><path d="M285.016 201.418c-15.767 0-29.56-10.083-34.321-25.09l-.198-.622.198-.621c4.76-15.008 18.554-25.092 34.321-25.092 5.557 0 10.89 1.234 15.847 3.667 8.792 4.311 15.526 12.12 18.474 21.426l.197.62-.197.622c-2.948 9.305-9.682 17.114-18.475 21.426-4.957 2.431-10.289 3.664-15.846 3.664zm-30.195-25.712c4.395 12.947 16.447 21.598 30.195 21.598 4.924 0 9.644-1.092 14.033-3.245 7.594-3.724 13.453-10.388 16.162-18.353-2.709-7.965-8.568-14.63-16.161-18.353-4.39-2.154-9.11-3.246-14.034-3.246-13.747 0-25.799 8.652-30.195 21.599z" fill="#234957"/><path d="M275.756 176.734c-.97 0-1.902-.187-2.768-.553a7.178 7.178 0 0 1-4.435-6.646c0-3.97 3.232-7.2 7.203-7.2a7.18 7.18 0 0 1 4.94 1.963c.058.046.113.096.165.15a7.19 7.19 0 0 1 2.097 5.087c0 3.97-3.232 7.2-7.202 7.2zm0-10.285a3.09 3.09 0 0 0-3.087 3.086c0 1.252.75 2.372 1.908 2.85a3.09 3.09 0 0 0 3.447-4.951 1.975 1.975 0 0 1-.083-.077 3.097 3.097 0 0 0-2.185-.908z" fill="#234957"/><path d="M285.016 189.076c-7.375 0-13.376-5.998-13.376-13.37 0-.569.037-1.137.11-1.69a2.056 2.056 0 0 1 2.31-1.769 2.056 2.056 0 0 1 1.77 2.309c-.05.373-.074.76-.074 1.149 0 5.104 4.153 9.256 9.26 9.256s9.26-4.152 9.26-9.256c0-5.105-4.153-9.257-9.26-9.257a9.191 9.191 0 0 0-4.589 1.226l-.477.276h-.552a2.057 2.057 0 1 1-.901-3.911 13.314 13.314 0 0 1 6.52-1.705c7.375 0 13.375 5.999 13.375 13.37 0 7.373-6 13.372-13.376 13.372z" fill="#234957"/><path d="M272.669 211.703c-19.858 0-36.013-16.148-36.013-35.997 0-19.85 16.155-35.998 36.013-35.998 11.352 0 22.171 5.443 28.94 14.562a2.056 2.056 0 0 1-.427 2.878 2.056 2.056 0 0 1-2.88-.427c-5.994-8.077-15.577-12.899-25.633-12.899-17.589 0-31.897 14.303-31.897 31.884s14.308 31.883 31.897 31.883c10.209 0 19.552-4.704 25.634-12.908a2.055 2.055 0 0 1 2.878-.428 2.055 2.055 0 0 1 .428 2.876c-6.764 9.126-17.584 14.574-28.94 14.574z" fill="#234957"/><path d="M80.257 43.503l-3.066 1.419c-.093 1.234-.576 2.55-1.81 3.63-1.544 1.338-3.314 2.551-3.85 3.066-1.44-2.057-6.749-8.167-9.424-10.861-11.03-3.405-14.004-14.862-14.004-14.862l-5.433 1.09s-.36 10.1-2.963 11.694c-1.78 1.09-5.124 1.008-5.31-1.512-.267-1.666.144-8.804.247-12.64.031-1.05.144-2.54 1.091-3.857.36-.494.833-.967 1.471-1.388 2.316-1.523 4.682-3.076 6.74-4.186 1.965-1.06 3.9-2.644 8.334-1.327 1.492.452 5.001 1.47 7.975 2.407 2.716.853 4.496 2.365 5.587 3.62l4.229-2.047 5.772-2.808a5.52 5.52 0 0 1 7.347 2.654l7.326 15.036c1.296 2.757.103 6.048-2.655 7.344l-7.604 3.528z" fill="#EDB795"/><g fill="#E0A686"><path d="M88.862 29.238c-.225.15-.45.303-.703.421l-15.458 9.664-3.067 1.42c-.092 1.233-.576 2.55-1.81 3.63a36.42 36.42 0 0 1-1.363 1.115c2.146 2.437 4.245 4.95 5.07 6.13.536-.515 2.306-1.728 3.85-3.065 1.234-1.08 1.717-2.397 1.81-3.631l3.066-1.42 7.604-3.527c2.758-1.296 3.951-4.587 2.655-7.344l-1.654-3.393z"/><path d="M72.026 40.973s-5.188-4.457-9.26-6.171c-4.073-1.715-11.576-5.742-12.348-7.2l-2.058 1.029 5.145 7.2 8.231 5.142 6.174 5.142 4.116-5.142z"/></g><path d="M44.625 63.836c.36.607.525 1.275.525 1.934 0 .123-.01.247-.02.37a3.83 3.83 0 0 1-1.884 2.952l-3.766 2.211a3.846 3.846 0 0 1-5.268-1.368 3.858 3.858 0 0 1-.535-1.954 3.82 3.82 0 0 1 1.43-2.983l.31-.185c.164-.103.328-.206.472-.319l3.468-2.036a3.86 3.86 0 0 1 5.268 1.378z" fill="#EDB795"/><path d="M37.32 61.491a3.861 3.861 0 0 1-1.43 3.003l-.31.175c-.164.103-.329.206-.473.33l-3.457 2.025a3.856 3.856 0 0 1-5.268-1.378 3.821 3.821 0 0 1-.535-1.944c0-1.151.525-2.283 1.471-3.023.134-.103.278-.196.432-.288l3.777-2.212a3.846 3.846 0 0 1 5.268 1.368c.36.617.525 1.286.525 1.944zM27.092 60.781l-3.776 2.212a3.859 3.859 0 0 1-5.268-1.378 3.782 3.782 0 0 1-.525-1.944 3.85 3.85 0 0 1 1.903-3.322l3.766-2.201a3.846 3.846 0 0 1 5.268 1.368 3.852 3.852 0 0 1-1.163 5.132c-.061.051-.133.092-.205.133zM20.63 51.175c.36.617.525 1.286.525 1.944a3.797 3.797 0 0 1-1.739 3.21c-.051.05-.113.081-.165.112l-3.765 2.211c-1.842 1.07-4.199.463-5.269-1.378a3.821 3.821 0 0 1 1.369-5.255l1.152-.669 2.624-1.543a3.849 3.849 0 0 1 5.268 1.368z" fill="#EDB795"/><path d="M35.735 20.67s-11.102 1.286-14.004 1.656c-1.296.165-2.181.689-2.747 1.203l-6.709-4.793-.679-.257c7.162-8.269 17.75-13.504 29.562-13.504 11.452 0 21.762 4.927 28.913 12.774l-4.23 2.047c-1.09-1.255-2.87-2.767-5.586-3.62-2.974-.936-6.483-1.955-7.975-2.407-4.434-1.317-6.369.267-8.334 1.327-2.058 1.11-4.424 2.663-6.74 4.186a5.641 5.641 0 0 0-1.471 1.388z" fill="#FBB735"/><path d="M34.644 24.527c-.103 3.836-.514 10.974-.247 12.64.186 2.52 3.53 2.602 5.31 1.512 2.603-1.594 2.963-11.694 2.963-11.694l5.433-1.09s2.974 11.457 14.004 14.862c2.675 2.694 7.984 8.804 9.425 10.86l.185.01a3.692 3.692 0 0 1-.35 5.205 3.683 3.683 0 0 1-5.196-.35l-.03.02a3.683 3.683 0 0 1-5.814 4.505l-.288-.328-.01.01a3.679 3.679 0 0 1-.35 5.194 3.673 3.673 0 0 1-5.197-.35l-.03.02a3.705 3.705 0 0 1-.618 4.866 3.683 3.683 0 0 1-5.196-.35l-3.426-3.919-.083-.01a3.773 3.773 0 0 0-.504-2.304 3.86 3.86 0 0 0-5.268-1.378l-3.468 2.036a3.861 3.861 0 0 0 .906-4.947 3.846 3.846 0 0 0-5.268-1.368l-3.777 2.212a4.504 4.504 0 0 0-.432.288l-.02-.031a3.852 3.852 0 0 0 1.162-5.132 3.846 3.846 0 0 0-5.268-1.368l-3.766 2.2-.01-.02a3.797 3.797 0 0 0 1.739-3.209c0-.658-.165-1.327-.525-1.944a3.849 3.849 0 0 0-5.268-1.368l-2.624 1.543-.03-.051s-.71-.473-1.276-1.399l-.01-.01c-.289-.216-4.878-3.693-9.302-6.943h-.052a38.918 38.918 0 0 1 9.528-24.468l.68.257 6.708 4.793c.566-.514 1.45-1.038 2.747-1.203 2.902-.37 14.004-1.656 14.004-1.656-.947 1.317-1.06 2.808-1.09 3.857z" fill="#F4CCAD"/><path d="M43.874 56.63c.36.606.525 1.275.525 1.933 0 .123-.01.247-.02.37a3.83 3.83 0 0 1-1.884 2.952l-3.766 2.211a3.846 3.846 0 0 1-5.268-1.368 3.858 3.858 0 0 1-.535-1.954 3.82 3.82 0 0 1 1.43-2.982l.309-.185c.165-.103.33-.206.473-.32l3.468-2.036a3.86 3.86 0 0 1 5.268 1.378z" fill="#EDB795"/><path d="M37.7 55.218c.36.607.525 1.276.525 1.934 0 .123-.01.247-.02.37a3.83 3.83 0 0 1-1.883 2.952l-3.766 2.211a3.846 3.846 0 0 1-5.269-1.368 3.858 3.858 0 0 1-.535-1.954 3.82 3.82 0 0 1 1.43-2.982l.31-.186c.164-.102.329-.205.473-.318l3.467-2.037a3.86 3.86 0 0 1 5.268 1.378z" fill="#EDB795"/><path d="M31.527 52.133a3.773 3.773 0 0 1 .504 2.304 3.83 3.83 0 0 1-1.883 2.951L26.382 59.6a3.846 3.846 0 0 1-5.268-1.368 3.858 3.858 0 0 1-.535-1.954 3.82 3.82 0 0 1 1.43-2.983l.309-.185c.164-.103.329-.206.473-.319l3.468-2.036a3.86 3.86 0 0 1 5.268 1.378z" fill="#EDB795"/><path d="M24.17 49.047c.36.607.525 1.276.525 1.934 0 .123-.01.247-.021.37a3.83 3.83 0 0 1-1.883 2.952l-3.766 2.211a3.846 3.846 0 0 1-5.268-1.368 3.858 3.858 0 0 1-.535-1.954 3.82 3.82 0 0 1 1.43-2.982l.309-.186c.164-.102.329-.205.473-.318l3.468-2.037a3.86 3.86 0 0 1 5.268 1.378zM46.057 24.372l-5.432 1.09s-.108 2.992-.625 5.976c-.138 3.479-.277 7.236-.092 8.386.186 2.52 3.53 2.602 5.31 1.512 2.603-1.594 2.963-11.694 2.963-11.694l.18-.036c-1.69-2.885-2.304-5.234-2.304-5.234z" fill="#EDB795"/><path d="M77.191 44.922l3.066-1.42v.556c0 21.588-17.502 39.083-39.1 39.083-21.597 0-39.1-17.495-39.1-39.083 0-.37.011-.74.011-1.11h.052c4.424 3.25 9.013 6.726 9.301 6.942l.01.01c.566.926 1.276 1.399 1.276 1.399l.031.051-1.152.669a3.82 3.82 0 0 0-1.369 5.255c1.07 1.841 3.427 2.448 5.269 1.378l3.765-2.21c.052-.032.114-.062.165-.114l.01.02a3.85 3.85 0 0 0-1.903 3.323c0 .668.164 1.337.525 1.944a3.859 3.859 0 0 0 5.268 1.378l3.776-2.212c.072-.04.144-.082.206-.133l.02.03a3.848 3.848 0 0 0-1.471 3.024c0 .659.175 1.337.535 1.944a3.856 3.856 0 0 0 5.268 1.378l3.457-2.026a3.82 3.82 0 0 0-1.43 2.983c0 .668.175 1.337.535 1.954a3.846 3.846 0 0 0 5.268 1.368l3.766-2.211a3.83 3.83 0 0 0 1.883-2.952l.083.01 3.426 3.919a3.683 3.683 0 0 0 5.196.35 3.705 3.705 0 0 0 .617-4.865l.031-.02a3.673 3.673 0 0 0 5.196.349 3.679 3.679 0 0 0 .35-5.194l.01-.01.289.329a3.683 3.683 0 0 0 5.813-4.505l.031-.02a3.683 3.683 0 0 0 5.196.35 3.692 3.692 0 0 0 .35-5.205l-.185-.01c.535-.515 2.305-1.728 3.848-3.065 1.235-1.08 1.718-2.397 1.811-3.631z" fill="#FBB735"/><path d="M71.532 53.675a2.06 2.06 0 0 1-1.686-.877c-1.296-1.851-6.158-7.465-8.854-10.24-8.95-2.999-12.878-10.712-14.26-14.29l-2.088.42c-.258 3.839-1.102 10.056-3.862 11.746-1.848 1.131-4.37 1.29-6.134.387-1.325-.68-2.157-1.92-2.295-3.415-.192-1.362-.085-4.539.1-9.19.054-1.377.107-2.686.135-3.744.043-1.434.249-3.294 1.477-5.001a7.761 7.761 0 0 1 2.009-1.905c2.331-1.532 4.737-3.114 6.896-4.28.205-.11.41-.228.618-.345 1.898-1.081 4.5-2.56 9.28-1.143.464.141 1.1.33 1.853.554a406.14 406.14 0 0 1 6.153 1.863c2.56.804 4.816 2.27 6.523 4.234 1.189 1.357 1.709 2.509 1.763 2.637l1.707 3.55a2.056 2.056 0 0 1-.965 2.744 2.057 2.057 0 0 1-2.745-.964l-1.74-3.62c-.027-.06-.355-.768-1.122-1.644-1.231-1.417-2.796-2.429-4.657-3.013-2.058-.647-4.372-1.334-6.089-1.844-.761-.226-1.408-.418-1.865-.558-3.085-.916-4.397-.17-6.058.777-.235.135-.469.266-.701.392-2 1.08-4.331 2.612-6.586 4.094a3.613 3.613 0 0 0-.94.882c-.564.783-.668 1.765-.697 2.706a321.285 321.285 0 0 1-.137 3.79c-.117 2.971-.296 7.461-.134 8.463.009.059.016.117.02.176a.393.393 0 0 0 .02.114c.215.218 1.383.274 2.162-.206.862-.716 1.819-5.498 1.982-10.014a2.057 2.057 0 0 1 1.652-1.943l5.433-1.09a2.059 2.059 0 0 1 2.397 1.5c.026.098 2.86 10.4 12.619 13.413.323.1.616.278.854.516 2.255 2.272 6.1 6.64 8.325 9.403a45.318 45.318 0 0 0 2.14-1.712c.674-.59 1.038-1.322 1.106-2.23.125-1.581-.63-3.082-.639-3.096a2.062 2.062 0 0 1 .883-2.767 2.052 2.052 0 0 1 2.765.863c.135.256 1.31 2.58 1.094 5.314a7.262 7.262 0 0 1-2.508 5.018c-.908.787-1.861 1.511-2.626 2.094-.467.355-.997.758-1.151.906a2.058 2.058 0 0 1-1.427.575zM13.537 61.237a5.913 5.913 0 0 1-5.099-2.93 5.858 5.858 0 0 1-.814-2.977 5.901 5.901 0 0 1 2.929-5.09l3.766-2.207a5.884 5.884 0 0 1 2.987-.815 5.94 5.94 0 0 1 5.096 2.911c.532.912.81 1.942.81 2.99a5.84 5.84 0 0 1-2.565 4.86c-.142.112-.265.183-.329.22l-3.79 2.226a5.943 5.943 0 0 1-2.991.812zm3.769-9.904c-.32 0-.62.083-.899.247l-3.788 2.218a1.774 1.774 0 0 0-.879 1.532c0 .313.086.623.247.895.493.85 1.617 1.14 2.464.648l3.723-2.185c.042-.032.086-.062.13-.09.497-.32.793-.873.793-1.48 0-.324-.082-.63-.245-.907a1.807 1.807 0 0 0-1.546-.878z" fill="#234957"/><path d="M21.378 65.575a5.934 5.934 0 0 1-5.107-2.923 5.85 5.85 0 0 1-.806-2.98 5.935 5.935 0 0 1 2.918-5.095l3.771-2.205c.9-.53 1.934-.813 2.985-.813a5.924 5.924 0 0 1 5.1 2.92 5.93 5.93 0 0 1 .805 2.98 5.894 5.894 0 0 1-2.531 4.85 3.588 3.588 0 0 1-.405.262l-3.751 2.197a5.911 5.911 0 0 1-2.979.807zm3.761-9.902c-.315 0-.627.085-.9.247l-3.773 2.205a1.776 1.776 0 0 0-.884 1.546c0 .328.08.63.236.893.487.835 1.634 1.136 2.462.653l3.773-2.21c.004 0-.04.034-.083.07.057-.048.115-.092.175-.132.49-.332.782-.886.782-1.485a1.78 1.78 0 0 0-1.788-1.787z" fill="#234957"/><path d="M29.709 69.607a5.927 5.927 0 0 1-5.919-5.904c0-1.8.845-3.536 2.26-4.643.21-.16.417-.297.642-.431l3.795-2.223a5.886 5.886 0 0 1 2.986-.814 5.921 5.921 0 0 1 5.099 2.92 5.91 5.91 0 0 1 .805 2.98 5.896 5.896 0 0 1-2.191 4.6c-.223.177-.45.324-.68.467l-3.815 2.24a5.944 5.944 0 0 1-2.982.808zm3.764-9.902c-.315 0-.626.085-.9.246l-3.781 2.215c-.065.04-.146.088-.22.145a1.784 1.784 0 0 0-.665 1.392c0 .313.085.623.247.895a1.827 1.827 0 0 0 2.464.65l3.742-2.198c.068-.043.172-.102.259-.171.4-.325.645-.839.645-1.387 0-.324-.083-.63-.245-.907a1.796 1.796 0 0 0-1.546-.88z" fill="#234957"/><path d="M37.535 73.893a5.922 5.922 0 0 1-5.915-5.912c0-1.797.803-3.47 2.203-4.588.168-.145.416-.31.668-.467l3.825-2.241a5.907 5.907 0 0 1 2.977-.809A5.955 5.955 0 0 1 46.4 62.79a5.841 5.841 0 0 1 .782 3.524 5.917 5.917 0 0 1-2.896 4.553l-3.76 2.208a5.89 5.89 0 0 1-2.99.818zm3.757-9.903c-.318 0-.62.083-.897.244l-3.8 2.225c-.002.003-.082.047-.151.104-.463.372-.709.886-.709 1.418 0 .32.085.628.255.918.475.812 1.62 1.118 2.445.633l3.769-2.213c.504-.295.821-.793.878-1.374.003-.045.011-.11.011-.175 0-.322-.08-.62-.236-.884a1.827 1.827 0 0 0-1.565-.896zM51.417 73.386a5.696 5.696 0 0 1-4.33-1.964 2.058 2.058 0 0 1 3.101-2.705 1.626 1.626 0 0 0 2.292.152 1.649 1.649 0 0 0 .272-2.156l-.153-.187 3.18-2.612-1.595 1.3 1.607-1.286c.112.137.223.276.323.413 1.67 2.443 1.26 5.696-.918 7.618a5.712 5.712 0 0 1-3.779 1.427z" fill="#234957"/><path d="M57.266 68.854a5.701 5.701 0 0 1-4.333-1.969 2.056 2.056 0 0 1 .198-2.902 2.06 2.06 0 0 1 2.904.199c.287.329.684.525 1.117.555.428.03.845-.113 1.17-.398.332-.289.527-.684.556-1.116a1.618 1.618 0 0 0-.4-1.18 2.058 2.058 0 0 1 3.101-2.705 5.704 5.704 0 0 1 1.405 4.16 5.691 5.691 0 0 1-1.951 3.936 5.69 5.69 0 0 1-3.767 1.42z" fill="#234957"/><path d="M63.106 64.325a5.696 5.696 0 0 1-4.33-1.964 2.058 2.058 0 0 1 3.101-2.705c.285.325.68.522 1.113.55.434.031.853-.113 1.18-.399a1.633 1.633 0 0 0 .271-2.144c-.024-.033-.092-.113-.158-.193l3.183-2.608-1.592 1.303 1.595-1.3c.117.145.234.289.338.433 1.67 2.442 1.257 5.693-.927 7.607a5.714 5.714 0 0 1-3.774 1.42z" fill="#234957"/><path d="M68.95 59.8a5.696 5.696 0 0 1-4.33-1.964 2.057 2.057 0 1 1 3.101-2.705 1.623 1.623 0 0 0 2.292.152 1.64 1.64 0 0 0 .153-2.304 2.058 2.058 0 0 1 3.102-2.704c2.077 2.38 1.834 6.014-.542 8.1A5.706 5.706 0 0 1 68.95 59.8zM54.185 67.271a2.053 2.053 0 0 1-1.55-.703l-9.93-11.355a2.057 2.057 0 1 1 3.098-2.708l9.93 11.355a2.057 2.057 0 0 1-1.548 3.411zM60.328 63.065a2.052 2.052 0 0 1-1.55-.703L48.92 51.09a2.057 2.057 0 1 1 3.098-2.708l9.857 11.271a2.057 2.057 0 0 1-1.547 3.412z" fill="#234957"/><path d="M65.874 58.22a2.05 2.05 0 0 1-1.55-.703L55 46.852a2.057 2.057 0 1 1 3.1-2.707l9.321 10.665a2.057 2.057 0 0 1-1.548 3.41zM48.639 72.126a2.053 2.053 0 0 1-1.55-.704l-3.427-3.918a2.057 2.057 0 1 1 3.098-2.708l3.426 3.918a2.057 2.057 0 0 1-1.547 3.412zM18.057 26.852a2.057 2.057 0 0 1-1.925-2.783c.068-.18.459-1.128 1.455-2.05.73-.664 1.985-1.493 3.885-1.734 2.878-.367 13.914-1.645 14.025-1.659a2.059 2.059 0 0 1 2.282 1.808 2.059 2.059 0 0 1-1.808 2.28c-.11.012-11.124 1.287-13.98 1.652-.671.086-1.217.316-1.623.685-.238.22-.385.468-.386.47a2.056 2.056 0 0 1-1.925 1.331zM11.423 51.948a2.058 2.058 0 0 1-1.76-.988c-.753-1.239-1.469-3.277-.587-5.95a2.058 2.058 0 0 1 3.908 1.287c-.318.963-.254 1.789.195 2.524a2.058 2.058 0 0 1-1.756 3.127z" fill="#234957"/><path d="M12.705 53.356a2.04 2.04 0 0 1-1.139-.346c-.18-.121-1.125-.788-1.89-2.036a2.058 2.058 0 1 1 3.512-2.146c.289.472.658.757.663.76a2.057 2.057 0 0 1-1.146 3.768zM77.192 46.98a2.056 2.056 0 0 1-.865-3.924l10.669-4.946a3.445 3.445 0 0 0 1.779-1.958 3.428 3.428 0 0 0-.12-2.644L81.34 18.496a3.462 3.462 0 0 0-1.973-1.815 3.433 3.433 0 0 0-2.65.122l-9.979 4.844a2.056 2.056 0 1 1-1.793-3.703l9.997-4.853a7.551 7.551 0 0 1 5.823-.28 7.527 7.527 0 0 1 4.287 3.91l7.313 15.01a7.533 7.533 0 0 1 .278 5.819 7.535 7.535 0 0 1-3.907 4.286l-10.68 4.953c-.28.13-.574.191-.864.191z" fill="#234957"/><path d="M11.424 51.955c-.467 0-.934-.16-1.312-.476l-.22-.167a894.684 894.684 0 0 0-8.99-6.708A2.057 2.057 0 1 1 3.34 41.29a887.11 887.11 0 0 1 9.033 6.74l.284.214a2.063 2.063 0 0 1-1.233 3.712zM18.983 25.586a2.05 2.05 0 0 1-1.196-.383L11.08 20.41a2.057 2.057 0 1 1 2.393-3.347l6.709 4.793a2.057 2.057 0 0 1-1.198 3.73z" fill="#234957"/><path d="M41.158 85.198C18.463 85.198 0 66.743 0 44.058l.01-1.11C.282 33.42 3.845 24.272 10.042 17.13A41.137 41.137 0 0 1 41.158 2.918c11.554 0 22.648 4.901 30.435 13.446a2.057 2.057 0 1 1-3.043 2.77A37.146 37.146 0 0 0 41.158 7.031a37.026 37.026 0 0 0-28.006 12.794 37.073 37.073 0 0 0-9.027 23.18l-.01 1.052c0 20.417 16.617 37.026 37.043 37.026 20.425 0 37.041-16.61 37.041-37.026v-.555a2.058 2.058 0 0 1 4.116 0v.555c0 22.685-18.463 41.14-41.157 41.14z" fill="#234957"/><path d="M27.781 263.128v-30.855H15.434v26.741a4.127 4.127 0 0 0 4.116 4.114h8.231zM27.781 232.273h13.376v30.855H27.781zM41.158 232.273h13.376v30.855H41.158z" fill="#FAF9FC"/><path d="M41.158 217.874h21.607a4.127 4.127 0 0 1 4.116 4.114v38.559c10.907-4.752 18.52-15.623 18.52-28.274 0-17.042-13.818-30.855-30.867-30.855-11.843 0-22.133 6.665-27.308 16.456h13.932z" fill="#FBB735"/><path d="M66.881 260.547v-28.274H54.534v30.855c4.393 0 8.56-.915 12.347-2.581z" fill="#FAF9FC"/><path d="M55.563 217.874H19.55a4.127 4.127 0 0 0-4.116 4.114v10.285h51.447v-10.285a4.127 4.127 0 0 0-4.116-4.114h-7.202z" fill="#1B9ED6"/><path d="M55.563 217.874H19.55a4.127 4.127 0 0 0-4.116 4.114v10.285h51.447v-10.285a4.127 4.127 0 0 0-4.116-4.114h-7.202z" fill="#1B9ED6"/><path d="M62.765 217.874H52.001l-14.96 14.4H66.882v-10.286a4.127 4.127 0 0 0-4.116-4.114z" fill="#1387C1"/><path d="M54.534 265.185H19.55a6.179 6.179 0 0 1-6.174-6.17v-37.027a6.179 6.179 0 0 1 6.174-6.17h43.215a6.179 6.179 0 0 1 6.174 6.17v38.559a2.063 2.063 0 0 1-2.058 2.062 2.054 2.054 0 0 1-2.058-2.052v-38.569a2.06 2.06 0 0 0-2.058-2.057H19.55a2.06 2.06 0 0 0-2.058 2.057v37.026a2.06 2.06 0 0 0 2.058 2.057h34.984a2.058 2.058 0 0 1 0 4.114z" fill="#234957"/><path d="M41.158 225.074a2.058 2.058 0 0 1-2.058-2.057v-10.285a2.058 2.058 0 0 1 4.115 0v10.285a2.058 2.058 0 0 1-2.057 2.057zM55.563 225.074a2.058 2.058 0 0 1-2.058-2.057v-10.285a2.058 2.058 0 0 1 4.116 0v10.285a2.058 2.058 0 0 1-2.058 2.057zM26.752 225.074a2.058 2.058 0 0 1-2.057-2.057v-10.285a2.058 2.058 0 0 1 4.115 0v10.285a2.058 2.058 0 0 1-2.058 2.057zM41.158 265.185a2.058 2.058 0 0 1-2.058-2.057v-30.855a2.058 2.058 0 0 1 4.115 0v30.855a2.058 2.058 0 0 1-2.057 2.057zM54.534 265.185a2.058 2.058 0 0 1-2.058-2.057v-30.855a2.058 2.058 0 0 1 4.116 0v30.855a2.058 2.058 0 0 1-2.058 2.057zM27.781 265.185a2.058 2.058 0 0 1-2.058-2.057v-30.855a2.058 2.058 0 0 1 4.116 0v30.855a2.058 2.058 0 0 1-2.058 2.057z" fill="#234957"/><path d="M66.881 234.33H15.434a2.058 2.058 0 0 1 0-4.114h51.447a2.058 2.058 0 0 1 0 4.114z" fill="#234957"/><path d="M54.534 265.185a2.058 2.058 0 0 1 0-4.114c4.013 0 7.889-.81 11.518-2.407a28.779 28.779 0 0 0 17.292-26.39c0-15.88-12.924-28.799-28.81-28.799a28.767 28.767 0 0 0-25.49 15.36 2.06 2.06 0 0 1-2.78.859 2.056 2.056 0 0 1-.857-2.78 32.872 32.872 0 0 1 29.127-17.552c18.155 0 32.926 14.764 32.926 32.912a32.888 32.888 0 0 1-19.757 30.159 32.495 32.495 0 0 1-13.17 2.752z" fill="#234957"/><g transform="translate(46.302 241.834)"><ellipse fill="#3EB38A" cx="8.232" cy="8.952" rx="6.174" ry="6.171"/><path d="M8.232 17.18C3.692 17.18 0 13.489 0 8.952S3.693.724 8.232.724c4.538 0 8.231 3.691 8.231 8.228S12.77 17.18 8.232 17.18zm0-12.342a4.119 4.119 0 0 0-4.116 4.114 4.119 4.119 0 0 0 4.116 4.114 4.119 4.119 0 0 0 4.115-4.114 4.119 4.119 0 0 0-4.115-4.114z" fill="#234957"/></g><g transform="translate(170.804 240.806)"><path d="M42.186 34.664a8.227 8.227 0 0 0-8.231-8.227 8.227 8.227 0 0 0-8.232 8.227 8.227 8.227 0 0 0 8.232 8.228 8.227 8.227 0 0 0 8.231-8.228zm11.69 17.485H21.607a4.127 4.127 0 0 1-4.116-4.114V15.123a4.127 4.127 0 0 1 4.116-4.114h19.55v8.228h8.231v-8.228h19.55a4.127 4.127 0 0 1 4.116 4.114v32.912a4.127 4.127 0 0 1-4.116 4.114H53.875z" fill="#FAF9FC"/><path d="M0 31.579C0 14.537 13.819.724 30.868.724c3.612 0 7.069.617 10.29 1.759v8.526h-19.55a4.127 4.127 0 0 0-4.116 4.114v32.912a4.127 4.127 0 0 0 4.116 4.114h32.267c-5.649 6.315-13.87 10.285-23.007 10.285C13.818 62.434 0 48.62 0 31.579z" fill="#FBB735"/><ellipse fill="#FBB735" cx="33.955" cy="34.664" rx="8.232" ry="8.228"/><path d="M36.6 26.879c.282.83.442 1.717.442 2.644a8.227 8.227 0 0 1-8.232 8.228c-.927 0-1.814-.16-2.645-.441a8.226 8.226 0 0 0 7.79 5.584 8.227 8.227 0 0 0 8.231-8.228c0-3.62-2.338-6.686-5.586-7.787z" fill="#FFA53D"/><path d="M68.939 11.009h-9.385l-21.202 41.14h30.587a4.127 4.127 0 0 0 4.116-4.114V15.123a4.127 4.127 0 0 0-4.116-4.114z" fill="#E4EEF2"/></g><g fill="#234957"><path d="M201.672 305.297c-18.156 0-32.926-14.764-32.926-32.912s14.77-32.912 32.926-32.912c3.772 0 7.465.631 10.978 1.877a2.057 2.057 0 1 1-1.377 3.877 28.622 28.622 0 0 0-9.601-1.64c-15.886 0-28.81 12.919-28.81 28.798 0 15.879 12.924 28.798 28.81 28.798a28.84 28.84 0 0 0 21.473-9.6 2.058 2.058 0 0 1 3.068 2.743 32.96 32.96 0 0 1-24.541 10.97zM243.859 262.1h-14.406a2.058 2.058 0 0 1 0-4.114h14.406a2.058 2.058 0 0 1 0 4.114z"/><path d="M202.701 262.1h-14.405a2.058 2.058 0 0 1 0-4.114H202.7a2.058 2.058 0 0 1 0 4.114zM220.193 262.1h-8.232a2.058 2.058 0 0 1-2.057-2.057v-16.456c0-1.136.921-2.057 2.057-2.057h8.232c1.136 0 2.058.921 2.058 2.057v16.456a2.058 2.058 0 0 1-2.058 2.057zm-6.174-4.114h4.116v-12.342h-4.116v12.342zM204.759 285.755c-5.674 0-10.29-4.614-10.29-10.285s4.616-10.285 10.29-10.285c5.673 0 10.29 4.614 10.29 10.285s-4.617 10.285-10.29 10.285zm0-16.456a6.179 6.179 0 0 0-6.174 6.171 6.179 6.179 0 0 0 6.174 6.171 6.179 6.179 0 0 0 6.173-6.17 6.179 6.179 0 0 0-6.173-6.172zM235.627 270.328h-14.405a2.058 2.058 0 0 1 0-4.114h14.405a2.058 2.058 0 0 1 0 4.114zM235.627 284.727h-14.405a2.058 2.058 0 0 1 0-4.114h14.405a2.058 2.058 0 0 1 0 4.114zM235.627 277.527h-14.405a2.058 2.058 0 0 1 0-4.114h14.405a2.058 2.058 0 0 1 0 4.114z"/><path d="M239.743 295.012h-47.331a6.179 6.179 0 0 1-6.174-6.171v-32.912a6.179 6.179 0 0 1 6.174-6.171h19.55a2.058 2.058 0 0 1 0 4.114h-19.55a2.06 2.06 0 0 0-2.058 2.057v32.912a2.06 2.06 0 0 0 2.058 2.057h47.33a2.06 2.06 0 0 0 2.059-2.057v-32.912a2.06 2.06 0 0 0-2.058-2.057h-19.55a2.058 2.058 0 0 1 0-4.114h19.55a6.179 6.179 0 0 1 6.173 6.17v32.913a6.179 6.179 0 0 1-6.173 6.17z"/></g><path d="M117.476 202.965s17.803 8.261 18.456 8.424c.653.163 28.745 1.632 28.745 1.632l19.108-8.359 8.566-6.338c2.8-3.477 5.238-5.172 7.316-9.161-4.824-18.52-19.603-32.926-39.153-36.452v.677c0 4.973-4.04 9.042-9.014 9.042-2.488 0-4.98-1.024-6.622-2.652-1.628-1.643-2.883-3.904-2.883-6.39v-.677c-18.521 3.43-33.235 17.21-38.453 35.04l13.934 15.214z" fill="#BE5ADB"/><path d="M184.621 189.164c-2.113 9.94-8.122 16.232-13.817 21.51l12.981-6.01 8.627-5.303c2.8-3.476 5.178-6.208 7.256-10.197-4.825-18.52-19.604-32.927-39.154-36.453v.677c0 1.523-.353 2.957-1.025 4.22 12.255 6.466 21.57 17.88 25.132 31.556z" fill="#AD4BD0"/><path d="M113.334 200.908s15.283 8.117 20.428 9.775v-13.471c-8.231-.467-12.823-1.808-14.933-2.789-1.357-.618-1.53-1.1-1.53-1.1v-.754c0-14.918 6.447-28.354 16.946-37.49-14.529 5.505-25.96 19.713-30.355 34.734l9.444 11.095z" fill="#CA70E7"/><path d="M176.977 104.74v18.51c0 10.925-6.844 20.313-16.538 23.99a25.236 25.236 0 0 1-8.954 1.627c-3.167 0-6.174-.573-8.978-1.627-3.438-1.311-6.717-3.33-9.28-5.892-4.644-4.656-7.696-11.046-7.696-18.099v-19.71c3.086 1.039 5.21 1.2 7.908 1.2h43.538z" fill="#F4CEAE"/><path d="M127.588 104.74v7.961l40.285 3.014a25.637 25.637 0 0 1-16.509 23.99 25.157 25.157 0 0 1-8.94 1.627c-3.166 0-6.167-.572-8.97-1.627a25.83 25.83 0 0 1-2.35-1.048 26.181 26.181 0 0 0 2.311 2.69 26.014 26.014 0 0 0 9.11 5.893 25.497 25.497 0 0 0 9.003 1.627c3.166 0 6.106-.573 8.91-1.627 9.694-3.677 16.54-13.065 16.54-23.99v-18.51h-49.39z" fill="#EEB490"/><path d="M180.084 90.097l-3.107 1.25V104.74H133.44c-2.699 0-4.822-.161-7.908-1.2v-.016c-4.116-1.883-7.263-5.305-8.996-9.524-.89-2.125-1.28-4.46-1.28-6.917 0-9.99 8.143-18.083 18.138-18.083l1.53 9.042 36.15 3.013c4.989.001 9.01 4.055 9.01 9.043z" fill="#FBB735"/><path d="M171.129 81.055l-5.343-.445c3.145 1.848 5.144 5.818 5.144 9.487l-3.213 1.25V104.74h9.26V91.347l3.107-1.25c0-4.988-3.965-9.042-8.955-9.042z" fill="#F93"/><path d="M140.965 103.524c-4.116-1.884-7.442-5.304-9.175-9.524a17.868 17.868 0 0 1-1.369-6.917c0-4.363 1.546-8.361 4.117-11.485l-1.1-6.599c-9.995 0-18.09 8.092-18.09 18.083 0 2.456.297 4.792 1.187 6.917 1.733 4.22 4.88 7.64 8.996 9.524v.015c3.086 1.04 5.21 1.201 7.908 1.201h15.076c-2.699 0-5.492-.161-7.55-1.2v-.015z" fill="#FFD366"/><path d="M159.486 152.078v.678c0 4.973-3.875 9.041-8.85 9.041-2.488 0-4.547-1.024-6.19-2.652-1.628-1.643-2.452-3.903-2.452-6.39V146.729l-.06-.12a25.202 25.202 0 0 0 8.95 1.628c3.166 0 5.974-.573 8.779-1.627l-.177.119v5.35z" fill="#EEB490"/><path d="M141.994 151.77a25.21 25.21 0 0 0 8.89 1.608c3.1 0 5.856-.556 8.602-1.568v-5.081l.177-.12c-2.804 1.055-5.613 1.627-8.78 1.627-3.165 0-6.144-.573-8.948-1.627l.059.12v5.04z" fill="#E0A686"/><path d="M151.254 149.993a27.67 27.67 0 0 1-9.756-1.76 28.344 28.344 0 0 1-9.87-6.37c-5.26-5.262-8.155-12.214-8.155-19.578v-17.546a2.058 2.058 0 0 1 4.115 0v17.546c0 6.265 2.468 12.185 6.949 16.669a24.178 24.178 0 0 0 8.416 5.431c5.28 1.982 11.312 1.985 16.61-.003 9.184-3.474 15.357-12.355 15.357-22.096V90.34a2.058 2.058 0 0 1 4.115 0v31.944c0 11.44-7.241 21.868-18.02 25.946a27.676 27.676 0 0 1-9.761 1.762z" fill="#234957"/><path d="M151.165 138.12c-3.538 0-6.899-1.18-9.463-3.322a2.057 2.057 0 1 1 2.64-3.156c1.824 1.524 4.247 2.363 6.821 2.363 2.656 0 5.13-.882 6.968-2.485a2.059 2.059 0 0 1 2.903.197c.748.857.66 2.156-.197 2.902-2.586 2.258-6.022 3.5-9.672 3.5zM152.283 126.338h-2.058a2.058 2.058 0 0 1 0-4.114h2.058a2.058 2.058 0 0 1 0 4.114zM140.965 120.167a3.09 3.09 0 0 1-3.087-3.086 3.09 3.09 0 0 1 3.087-3.085 3.09 3.09 0 0 1 3.086 3.085 3.09 3.09 0 0 1-3.086 3.086zM161.543 120.167a3.09 3.09 0 0 1-3.086-3.086 3.09 3.09 0 0 1 3.086-3.085 3.09 3.09 0 0 1 3.087 3.085 3.09 3.09 0 0 1-3.087 3.086zM130.994 106.9c-1.835 0-3.492-.106-6.134-1.017a2.042 2.042 0 0 1-.427-.204c-4.464-2.161-7.991-5.96-9.948-10.725-.961-2.294-1.43-4.87-1.43-7.863 0-11.342 9.202-20.57 20.515-20.57a2.058 2.058 0 0 1 0 4.115c-9.043 0-16.4 7.382-16.4 16.455 0 2.437.366 4.493 1.117 6.288 1.603 3.9 4.483 6.98 8.117 8.681a.123.123 0 0 1 .017.008c2.216.739 3.355.727 5.361.713l1.008-.005a2.058 2.058 0 0 1 0 4.114l-.974.005c-.28.002-.553.005-.822.005z" fill="#234957"/><path d="M171.13 83.112a1.96 1.96 0 0 1-.173-.007l-36.182-3.014a2.057 2.057 0 1 1 .341-4.1l36.183 3.014a2.057 2.057 0 0 1-.169 4.107z" fill="#234957"/><path d="M134.943 80.099c-.988 0-1.859-.713-2.027-1.72l-1.507-9.041a2.056 2.056 0 0 1 1.691-2.367 2.056 2.056 0 0 1 2.368 1.69l1.507 9.042a2.056 2.056 0 0 1-2.032 2.396zM180.174 92.154a2.058 2.058 0 0 1-2.057-2.057c0-3.852-3.136-6.985-6.989-6.985a2.058 2.058 0 0 1 0-4.114c6.123 0 11.104 4.98 11.104 11.099 0 1.136-.92 2.057-2.058 2.057zM175.949 106.796h-43.216a2.058 2.058 0 0 1 0-4.114h43.216a2.058 2.058 0 0 1 0 4.114z" fill="#234957"/><path d="M177.16 93.405a2.058 2.058 0 0 1-.79-3.958l3.016-1.25a2.057 2.057 0 1 1 1.578 3.8l-3.016 1.251a2.051 2.051 0 0 1-.787.157zM151.254 164.907c-2.998 0-5.836-1.177-7.993-3.311-2.15-2.17-3.325-5.007-3.325-8.003v-5.657a2.058 2.058 0 0 1 4.115 0v5.657c0 1.905.754 3.714 2.122 5.094a7.197 7.197 0 0 0 5.081 2.106c3.97 0 7.203-3.23 7.203-7.2v-5.657a2.058 2.058 0 0 1 4.115 0v5.657c0 6.239-5.077 11.314-11.318 11.314z" fill="#234957"/><path d="M103.355 191.275a2.059 2.059 0 0 1-1.994-2.572c4.982-19.227 20.782-34.112 40.254-37.92a2.057 2.057 0 0 1 .79 4.038c-17.926 3.506-32.473 17.21-37.06 34.915a2.058 2.058 0 0 1-1.99 1.54zM199.756 191.477c-.989 0-1.86-.713-2.028-1.719a.813.813 0 0 1-.036-.132c-4.67-17.839-19.38-31.531-37.492-34.893a2.057 2.057 0 1 1 .751-4.045c19.693 3.655 35.683 18.554 40.737 37.956.016.06.028.12.039.18a2.058 2.058 0 0 1-1.97 2.652z" fill="#234957"/><path d="M152.696 173.395l-10.813 10.536c-1.908 1.848-.6 5.146 2.058 5.146h.02c1.886 0 3.29 1.676 2.891 3.518l-1.342 6.15c-.644 2.968 3.073 4.844 5.098 2.579l10.718-12.003c1.727-1.931.308-4.976-2.284-4.928-1.89.033-2.982-1.54-2.982-1.922 0-.43.489-2.38 1.543-6.153.81-2.906-2.74-5.022-4.907-2.923z" fill="#FBB735"/><path d="M152.215 215.046c-35.716 0-64.774-29.045-64.774-64.746 0-22.079 11.09-42.424 29.667-54.421a2.056 2.056 0 1 1 2.233 3.455c-17.397 11.236-27.784 30.289-27.784 50.965 0 33.432 27.211 60.632 60.658 60.632 33.448 0 60.66-27.2 60.66-60.632a60.608 60.608 0 0 0-36.707-55.723 2.057 2.057 0 1 1 1.625-3.78A64.717 64.717 0 0 1 216.99 150.3c0 35.702-29.058 64.747-64.775 64.747z" fill="#234957"/><path d="M83.56 207.926a2.057 2.057 0 0 1-1.365-3.597l19.209-17a2.058 2.058 0 1 1 2.728 3.08l-19.21 17c-.39.346-.876.517-1.362.517z" fill="#234957"/><path d="M81.427 219.17a2.057 2.057 0 0 1-.925-3.896 5.12 5.12 0 0 0 2.842-4.6 5.15 5.15 0 0 0-5.145-5.143c-1.792 0-3.427.91-4.374 2.435a2.058 2.058 0 1 1-3.496-2.171 9.211 9.211 0 0 1 7.871-4.378c5.106 0 9.26 4.152 9.26 9.257a9.212 9.212 0 0 1-5.11 8.276 2.04 2.04 0 0 1-.923.22z" fill="#234957"/><g fill="#234957"><path d="M191.253 103.291a2.056 2.056 0 0 1-1.722-3.18l10.188-15.634a2.06 2.06 0 0 1 2.848-.6 2.056 2.056 0 0 1 .601 2.846l-10.188 15.634a2.06 2.06 0 0 1-1.727.934z"/><path d="M204.963 88.573a9.235 9.235 0 0 1-4.53-1.181 9.271 9.271 0 0 1-4.73-8.076c0-1.845.536-3.618 1.554-5.128l.064-.09a2.058 2.058 0 0 1 3.317 2.435 5.052 5.052 0 0 0-.821 2.784c0 1.86 1.008 3.58 2.633 4.49a5.037 5.037 0 0 0 2.512.653 5.127 5.127 0 0 0 4.739-3.144 2.059 2.059 0 0 1 3.794 1.597 9.234 9.234 0 0 1-8.532 5.66z"/></g><path d="M266.979 65.379L217.302 82.77a32.112 32.112 0 0 1-4.878-1.1l17.297-17.29c3.447.926 7.274.041 9.97-2.653a10.256 10.256 0 0 0 2.655-9.966l7.182-7.18.093.083a9.362 9.362 0 0 0-.083-13.165l-4.105-4.104 12.244-4.525 14.786 40.585-5.484 1.923z" fill="#2A9E71"/><path d="M242.346 51.762a10.256 10.256 0 0 1-2.655 9.966c-2.696 2.694-6.523 3.579-9.97 2.653l12.625-12.62z" fill="#3EB38A"/><path d="M224.379 39.87c4.023 4.021 4.023 10.532 0 14.543-4.013 4.021-10.526 4.021-14.55 0-4.012-4.011-4.012-10.522 0-14.543 4.023-4.021 10.536-4.021 14.55 0z" fill="#FAF9FC"/><path d="M224.379 39.87a10.22 10.22 0 0 0-6.036-2.933c3.877 4.032 3.836 10.428-.138 14.39-2.323 2.33-5.483 3.3-8.514 2.932.048.05.09.105.138.154 4.024 4.021 10.537 4.021 14.55 0 4.022-4.011 4.022-10.522 0-14.543z" fill="#E4EEF2"/><path d="M217.302 82.77l49.677-17.391 1.368 13.288-47.146 4.597-.113-.113a31.268 31.268 0 0 1-3.786-.38z" fill="#3EB38A"/><path d="M245.433 27.396l4.105 4.104a9.38 9.38 0 0 0-13.263 0L218.896 14.12l-.35-.35-.257-.257-8.591-8.578a9.38 9.38 0 0 1 13.263 0l22.472 22.462z" fill="#2A9E71"/><path d="M187.76 45.23a34.783 34.783 0 0 1 10.115-21.742 34.854 34.854 0 0 1 20.414-9.976l.258.257.35.35-3.056 3.044-28.08 28.068z" fill="#FBB735"/><path d="M229.526 64.381l-17.296 17.29c-5.33-1.605-10.34-4.526-14.55-8.733-7.593-7.58-10.968-17.793-10.114-27.707l28.08-28.068 3.056-3.044L236.081 31.5a9.38 9.38 0 0 1 13.263 0 9.362 9.362 0 0 1 .082 13.165l-.092-.082-7.182 7.179-12.626 12.62zm-4.928-11.077c4.023-4.01 4.023-10.521 0-14.543-4.013-4.021-10.526-4.021-14.55 0-4.012 4.022-4.012 10.532 0 14.543 4.024 4.022 10.537 4.022 14.55 0z" fill="#3EB38A"/><path d="M254.662 62.582a2.055 2.055 0 0 1-.707-3.989l5.804-2.118a2.057 2.057 0 1 1 1.412 3.863l-5.803 2.119a2.045 2.045 0 0 1-.706.125zM222.96 6.991a2.05 2.05 0 0 1-1.454-.603c-2.853-2.852-7.5-2.852-10.353 0a2.058 2.058 0 0 1-2.91-2.91c4.46-4.456 11.714-4.456 16.174 0a2.057 2.057 0 0 1-1.456 3.513zM249.54 46.812a2.055 2.055 0 0 1-1.5-3.465c.034-.04.07-.08.107-.118 2.78-2.85 2.752-7.46-.064-10.274a7.274 7.274 0 0 0-5.175-2.143 7.275 7.275 0 0 0-5.177 2.143 2.057 2.057 0 1 1-2.91-2.91 11.367 11.367 0 0 1 8.087-3.347c3.054 0 5.926 1.189 8.085 3.349 4.374 4.371 4.445 11.514.18 15.975-.073.085-.137.149-.176.189-.403.4-.93.601-1.458.601z" fill="#234957"/><path d="M236.275 33.557c-.527 0-1.053-.2-1.456-.603L208.244 6.39a2.056 2.056 0 1 1 2.908-2.91l26.58 26.568a2.057 2.057 0 0 1-1.457 3.51zM249.538 33.557a2.05 2.05 0 0 1-1.455-.603L221.507 6.388a2.056 2.056 0 1 1 2.91-2.908l26.576 26.566a2.057 2.057 0 0 1-1.455 3.511z" fill="#234957"/><path d="M191.383 40.973s.686 29.312 30.868 30.855c0 0-9.02 10.257-9.827 9.842-.805-.414-21.041-7.614-25.157-29.384-.172-.514 1.029-8.228 1.029-8.228l3.087-3.085z" fill="#2A9E71"/><path d="M187.752 47.298a2.055 2.055 0 0 1-1.385-3.58l31.157-31.136a2.058 2.058 0 0 1 2.91 2.909l-31.218 31.194-.082.078c-.394.358-.89.535-1.382.535zM212.416 83.73a2.047 2.047 0 0 1-1.434-.582 2.05 2.05 0 0 1-.059-2.886l37.15-37.134a2.058 2.058 0 0 1 2.91 2.91l-37.104 37.088a2.064 2.064 0 0 1-1.463.604zM217.105 58.462c-3.298 0-6.4-1.285-8.734-3.62-4.807-4.804-4.808-12.632-.002-17.449a12.275 12.275 0 0 1 8.736-3.62c3.298 0 6.398 1.286 8.728 3.62a12.261 12.261 0 0 1 3.617 8.737 12.24 12.24 0 0 1-3.622 8.716 12.244 12.244 0 0 1-8.723 3.616zm0-20.575a8.183 8.183 0 0 0-5.824 2.414c-3.203 3.211-3.204 8.43 0 11.634a8.187 8.187 0 0 0 5.824 2.414 8.159 8.159 0 0 0 5.814-2.412 8.153 8.153 0 0 0 2.416-5.809 8.178 8.178 0 0 0-2.414-5.826 8.157 8.157 0 0 0-5.816-2.415zM210.243 74.275a2.057 2.057 0 0 1-1.457-3.51l4.363-4.371a2.057 2.057 0 0 1 2.914 2.907l-4.363 4.37c-.402.403-.93.604-1.457.604z" fill="#234957"/><path d="M217.299 84.83a2.06 2.06 0 0 1-1.865-1.17 2.047 2.047 0 0 1 .963-2.736c.067-.032.157-.07.227-.095l53.195-18.626-13.366-36.687-10.305 3.809c-.05.018-.1.035-.15.048-1.094.31-2.27-.312-2.58-1.405-.31-1.09.285-2.217 1.376-2.53l12.17-4.498a2.055 2.055 0 0 1 2.647 1.224l14.785 40.585a2.054 2.054 0 0 1-1.252 2.645l-55.139 19.308a2.026 2.026 0 0 1-.706.128z" fill="#234957"/><path d="M221.2 85.321a2.056 2.056 0 0 1-.198-4.105l45.087-4.396-1.157-11.231a2.057 2.057 0 1 1 4.093-.421l1.369 13.288a2.055 2.055 0 0 1-1.847 2.259l-47.145 4.597c-.069.007-.136.01-.202.01z" fill="#234957"/><path d="M221.09 85.208h-.085a33.383 33.383 0 0 1-4.036-.407 34.172 34.172 0 0 1-5.15-1.164c-5.753-1.732-11.082-4.93-15.4-9.243a36.888 36.888 0 0 1-10.708-29.34 36.996 36.996 0 0 1 10.708-23.02c5.89-5.886 13.364-9.54 21.617-10.564 1.11-.14 2.156.66 2.295 1.788a2.056 2.056 0 0 1-1.788 2.294c-7.335.91-13.979 4.157-19.214 9.39a32.875 32.875 0 0 0-9.518 20.46 32.788 32.788 0 0 0 9.517 26.08c3.838 3.835 8.572 6.677 13.69 8.218 1.53.47 3.065.816 4.576 1.034 1.18.193 2.37.312 3.577.361a2.057 2.057 0 0 1-.082 4.113zM232.395 66.791c-1.071 0-2.15-.139-3.208-.423a2.058 2.058 0 0 1 1.067-3.974 8.282 8.282 0 0 0 7.982-2.12 8.235 8.235 0 0 0 2.124-7.971 2.058 2.058 0 0 1 3.97-1.082 12.357 12.357 0 0 1-3.185 11.961 12.382 12.382 0 0 1-8.75 3.609z" fill="#234957"/></g></svg>