<?xml version="1.0" encoding="UTF-8" standalone="no"?><svg width="400" height="400" viewBox="0 0 400 400" xmlns="http://www.w3.org/2000/svg"><title>happy-customers</title><g fill="none" fill-rule="evenodd"><path d="M306.266 195.107v.053c13.692.802 24.639 12.498 24.639 26.69a26.928 26.928 0 0 1-7.684 18.88c-4.742 4.849-11.285 7.862-18.47 7.862h-10.697c14.387 0 26.154 12.034 26.154 26.742a26.928 26.928 0 0 1-7.684 18.88c-4.742 4.85-11.285 7.863-18.47 7.863h-5.937v.035c13.853.785 24.96 12.498 24.96 26.707a26.836 26.836 0 0 1-7.756 18.88c-4.796 4.85-11.392 7.863-18.666 7.863h-82.331c-58.299 0-105.063-46.853-105.063-105.134 0-43.073 20.574-77.82 57.55-94.223a40.7 40.7 0 0 0 8.736-3.886h.018c17.97-10.484 32.037-34.997 20.378-60.207-8.504-17.578-13.55-28.793-3.744-39.579 9.413-10.376 28.56-8.165 37.493 2.068 30.38 30.398 22.357 66.375 16.723 87.02h80.548c14.53 0 26.422 12.035 26.422 26.743a26.836 26.836 0 0 1-7.755 18.88c-4.796 4.85-11.393 7.863-18.667 7.863h-10.697z" fill="#F7D5BF"/><path d="M265.832 140.73s.77 53.555-16.902 104.009c-19.427 55.467-69.905 108.304-68.972 108.148 1.783-.297 121.232 1.313 121.232 1.313s13.074-13.495 13.074-18.843c0-5.349-3.566-24.366-3.566-24.366l-14.856-7.132 18.422-9.425 6.538-28.014-18.422-16.046 23.772-12.48 5.347-23.495-16.381-17.21 24.107-12.186 5.285-29.09-20.143-14.291-58.535-.892z" fill="#F7CFBA"/><path d="M286.928 302.077c-.187 0-.371.021-.556.025A6.282 6.282 0 0 1 284 306.66c7.135 4.796 11.844 12.915 11.844 22.16 0 11.638-7.449 21.513-17.829 25.187 2.792.988 5.784 1.555 8.915 1.555 14.769 0 26.742-11.974 26.742-26.743-.002-14.769-11.973-26.742-26.744-26.742zM294.06 248.592a25.81 25.81 0 0 0-3.3.235c.083.312.142.635.142.972a3.752 3.752 0 0 1-1.034 2.581c7.837 4.657 13.105 13.175 13.105 22.954 0 11.638-7.448 21.514-17.828 25.188 2.792.988 5.783 1.555 8.914 1.555 14.77 0 26.743-11.974 26.743-26.743 0-14.769-11.972-26.742-26.743-26.742zM304.756 195.107c-.13 0-.257.016-.387.017.002.052.015.098.015.15a4.724 4.724 0 0 1-2.748 4.284c7.242 4.778 12.033 12.963 12.033 22.291 0 11.638-7.45 21.514-17.829 25.188 2.792.988 5.784 1.555 8.914 1.555 14.77 0 26.743-11.974 26.743-26.743.002-14.769-11.97-26.742-26.74-26.742zM317.236 141.622c-3.13 0-6.122.565-8.914 1.554 10.38 3.675 17.828 13.55 17.828 25.188 0 11.638-7.449 21.514-17.828 25.188 2.792.988 5.783 1.555 8.914 1.555 14.769 0 26.743-11.974 26.743-26.743 0-14.769-11.972-26.742-26.743-26.742zM115.182 250.374c0-41.748 22.433-78.241 55.892-98.132-41.134 13.656-70.813 52.415-70.813 98.132 0 45.718 29.681 84.476 70.813 98.133-33.459-19.89-55.892-56.384-55.892-98.133zM221.191 135.752c-1.066 5.572 2.42 11.218 8.092 11.218h8.171c5.634-20.645 12.617-61.971-17.762-92.369-6.816-7.808-26.743-6.559-36.591-2.995 4.503 1.46 52.72 7.707 38.09 84.146z" fill="#EEB490"/><path d="M204.324 355.562H157.97c-56.124 0-101.621-45.498-101.621-101.622S101.846 152.32 157.97 152.32h7.577a40.7 40.7 0 0 1-8.736 3.886c-36.976 16.402-57.55 51.15-57.55 94.223 0 58.28 46.764 105.134 105.063 105.134z" fill="#FBB735"/><path d="M99.261 250.428c0-43.073 20.574-77.82 57.55-94.223a40.7 40.7 0 0 0 8.736-3.886h-7.577c-3.87 0-7.684.237-11.44.657-2.466 1.354-4.998 2.445-7.547 3.23-36.976 16.401-57.55 51.149-57.55 94.222 0 58.28 46.764 105.134 105.062 105.134h17.829c-58.299 0-105.063-46.853-105.063-105.134z" fill="#FFD366"/><path d="M316.963 200.455h-10.697a5.348 5.348 0 1 1 0-10.697h10.697c5.584 0 10.863-2.228 14.865-6.275a21.376 21.376 0 0 0 6.208-15.119c0-11.797-9.454-21.394-21.073-21.394h-80.548a5.348 5.348 0 1 1 0-10.697h80.548c17.518 0 31.77 14.396 31.77 32.091 0 8.536-3.303 16.575-9.3 22.64-6.028 6.096-14.007 9.451-22.47 9.451zM294.054 253.94h-.589a5.348 5.348 0 1 1 0-10.697h.589a5.348 5.348 0 1 1 0 10.697z" fill="#234957"/><path d="M304.75 253.94h-5.419a5.348 5.348 0 1 1 0-10.697h5.42c5.502 0 10.704-2.221 14.648-6.254 3.974-4.049 6.157-9.424 6.157-15.14 0-11.328-8.61-20.706-19.604-21.351-.44-.03-.814-.043-1.201-.043a5.348 5.348 0 1 1 0-10.697h1.194c.32 0 .631.029.933.08 16.462 1.088 29.375 15.106 29.375 32.011 0 8.536-3.273 16.57-9.213 22.626-5.967 6.1-13.885 9.465-22.29 9.465z" fill="#234957"/><path d="M294.054 307.425h-5.937a5.348 5.348 0 1 1 0-10.697h5.937c5.502 0 10.704-2.221 14.648-6.254 3.974-4.049 6.157-9.424 6.157-15.14 0-11.797-9.333-21.394-20.805-21.394a5.348 5.348 0 1 1 0-10.697h5.277c1.307 0 2.505.469 3.434 1.248 13.148 3.858 22.791 16.226 22.791 30.843 0 8.536-3.273 16.57-9.213 22.626-5.967 6.1-13.885 9.465-22.29 9.465zM165.57 157.667a5.35 5.35 0 0 1-2.7-9.97c16.375-9.55 28.325-31.492 18.22-53.34-8.208-16.966-15.334-31.688-2.85-45.423 5.062-5.579 12.507-8.606 21.031-8.526 9.488.091 18.565 4.026 24.327 10.535 33.833 33.98 22.724 74.69 17.978 92.087a5.353 5.353 0 0 1-6.57 3.751 5.347 5.347 0 0 1-3.75-6.568c7.047-25.82 10.734-55.735-15.346-81.83a4.896 4.896 0 0 1-.246-.264c-3.722-4.263-10.042-6.95-16.494-7.014h-.23c-5.306 0-9.838 1.78-12.78 5.023-6.969 7.666-4.273 15.318 4.598 33.656 12.8 27.668-2.05 55.229-22.497 67.156a5.337 5.337 0 0 1-2.69.727z" fill="#234957"/><path d="M286.655 360.91h-82.331c-29.618 0-57.384-11.463-78.178-32.28-20.786-20.807-32.233-48.582-32.233-78.202 0-45.867 22.134-81.99 60.727-99.111a5.6 5.6 0 0 1 .597-.223 35.351 35.351 0 0 0 7.588-3.379 5.346 5.346 0 0 1 7.324 1.883 5.346 5.346 0 0 1-1.883 7.326 46.098 46.098 0 0 1-9.567 4.296c-34.38 15.377-54.091 47.875-54.091 89.21.002 55.02 44.733 99.783 99.716 99.783h82.331c5.584 0 10.863-2.228 14.865-6.275a21.376 21.376 0 0 0 6.208-15.119c0-11.35-8.746-20.734-19.914-21.367-.314-.01-.73-.027-1.159-.027a5.348 5.348 0 1 1 0-10.697c.569 0 1.118.02 1.667.04 16.923.957 30.103 15.034 30.103 32.051 0 8.536-3.303 16.575-9.3 22.64-6.029 6.096-14.007 9.451-22.47 9.451z" fill="#234957"/><path d="M204.324 360.91H157.97C98.987 360.91 51 312.923 51 253.94s47.987-106.97 106.97-106.97h7.577a5.356 5.356 0 0 1 5.358 5.349 5.34 5.34 0 0 1-5.34 5.348h-7.595c-53.084 0-96.273 43.187-96.273 96.273s43.19 96.273 96.273 96.273h46.354a5.348 5.348 0 1 1 0 10.697z" fill="#234957"/></g></svg>