<?xml version="1.0" encoding="UTF-8" standalone="no"?>
<svg width="400px" height="400px" viewBox="0 0 400 400" version="1.1" xmlns="http://www.w3.org/2000/svg" xmlns:xlink="http://www.w3.org/1999/xlink">
    <!-- Generator: Sketch 3.8.3 (29802) - http://www.bohemiancoding.com/sketch -->
    <title>happy-customers</title>
    <desc>Created with Sketch.</desc>
    <defs></defs>
    <g id="Page-1" stroke="none" stroke-width="1" fill="none" fill-rule="evenodd">
        <g id="happy-customers">
            <g transform="translate(51.000000, 40.000000)" id="Layer_2">
                <g>
                    <g id="Group">
                        <path d="M255.26622,155.106587 L255.26622,155.160072 C268.958387,155.962347 279.90499,167.657741 279.90499,181.849102 C279.90499,189.194379 276.963313,195.897836 272.220974,200.729317 C267.478635,205.578627 260.935633,208.591617 253.75081,208.591617 L248.330994,208.591617 L243.053804,208.591617 C257.441277,208.591617 269.207984,220.625749 269.207984,235.334132 C269.207984,242.679409 266.266307,249.382866 261.523968,254.214347 C256.781629,259.063657 250.238627,262.076647 243.053804,262.076647 L237.116966,262.076647 L237.116966,262.112303 C250.969589,262.89675 262.076647,274.609972 262.076647,288.819162 C262.076647,296.164439 259.099313,302.867896 254.321317,307.699377 C249.525493,312.548687 242.929006,315.561677 235.655042,315.561677 L153.323752,315.561677 C95.0250699,315.561677 48.2613253,268.70879 48.2613253,210.427936 C48.2613253,167.354659 68.8352335,132.607218 105.811218,116.205142 C108.770723,115.295896 111.712399,113.994427 114.547106,112.318563 L114.564934,112.318563 C132.535904,101.835497 146.602467,77.321525 134.942731,52.1122475 C126.438611,34.533501 121.39319,23.3194731 131.198778,12.5333253 C140.612144,2.15722954 159.759784,4.36794411 168.691784,14.6014132 C199.071281,44.9987385 191.048527,80.9763353 185.41477,101.621557 L265.963226,101.621557 C280.493325,101.621557 292.38483,113.655689 292.38483,128.364072 C292.38483,135.709349 289.407497,142.412806 284.629501,147.244287 C279.833677,152.093597 273.23719,155.106587 265.963226,155.106587 L255.26622,155.106587 L255.26622,155.106587 Z" id="Shape" fill="#F7D5BF"></path>
                        <path d="M214.831537,100.73014 C214.831537,100.73014 215.601721,154.2847 197.930267,204.738912 C178.502722,260.206453 128.025333,313.042532 128.957756,312.887425 C130.74059,312.589692 250.19049,314.199591 250.19049,314.199591 C250.19049,314.199591 263.264014,300.705318 263.264014,295.356815 C263.264014,290.008312 259.698346,270.990818 259.698346,270.990818 L244.841987,263.859481 L263.264014,254.433636 L269.801668,226.41996 L251.379641,210.374451 L275.151954,197.894611 L280.498674,174.398637 L264.117992,157.188937 L288.225478,145.003265 L293.509799,115.912757 L273.367337,101.621557 L214.831537,100.73014 L214.831537,100.73014 Z" id="Shape" fill="#F7CFBA"></path>
                        <path d="M235.927816,262.076647 C235.740618,262.076647 235.556986,262.098041 235.371571,262.101606 C235.261036,263.952188 234.36427,265.574568 233.000402,266.660314 C240.135305,271.456138 244.84377,279.575166 244.84377,288.819162 C244.84377,300.457504 237.395088,310.332624 227.015427,314.007045 C229.807345,314.994735 232.798941,315.561677 235.929598,315.561677 C250.698598,315.561677 262.672113,303.588161 262.672113,288.819162 C262.670331,274.050162 250.698598,262.076647 235.927816,262.076647 L235.927816,262.076647 Z" id="Shape" fill="#EEB490"></path>
                        <path d="M243.059153,208.591617 C241.93775,208.591617 240.841307,208.68789 239.759127,208.826951 C239.84292,209.138947 239.901753,209.46164 239.901753,209.798596 C239.901753,210.800549 239.504181,211.704446 238.867709,212.38014 C246.705049,217.036903 251.973325,225.555285 251.973325,235.334132 C251.973325,246.972474 244.524643,256.847594 234.144981,260.522015 C236.9369,261.509705 239.928496,262.076647 243.059153,262.076647 C257.828152,262.076647 269.801668,250.103131 269.801668,235.334132 C269.801668,220.565132 257.829935,208.591617 243.059153,208.591617 L243.059153,208.591617 Z" id="Shape" fill="#EEB490"></path>
                        <path d="M253.756159,155.106587 C253.626012,155.106587 253.499431,155.122632 253.369284,155.124415 C253.371067,155.176117 253.383547,155.222471 253.383547,155.274173 C253.383547,157.176457 252.255012,158.805968 250.636199,159.558324 C257.878072,164.33632 262.668548,172.521313 262.668548,181.849102 C262.668548,193.487444 255.219866,203.362564 244.840204,207.036985 C247.632123,208.024675 250.623719,208.591617 253.754376,208.591617 C268.523376,208.591617 280.496891,196.618101 280.496891,181.849102 C280.498674,167.080102 268.526941,155.106587 253.756159,155.106587 L253.756159,155.106587 Z" id="Shape" fill="#EEB490"></path>
                        <path d="M266.235999,101.621557 C263.105342,101.621557 260.113746,102.186715 257.321828,103.176188 C267.701489,106.85061 275.150171,116.725729 275.150171,128.364072 C275.150171,140.002414 267.701489,149.877534 257.321828,153.551955 C260.113746,154.539646 263.105342,155.106587 266.235999,155.106587 C281.004999,155.106587 292.978514,143.133071 292.978514,128.364072 C292.978514,113.595072 281.006782,101.621557 266.235999,101.621557 L266.235999,101.621557 Z" id="Shape" fill="#EEB490"></path>
                        <path d="M64.1820359,210.374451 C64.1820359,168.62582 86.6154403,132.132984 120.073892,112.241901 C78.9403385,125.898412 49.2614954,164.65723 49.2614954,210.374451 C49.2614954,256.091672 78.9421214,294.85049 120.073892,308.507001 C86.6154403,288.617701 64.1820359,252.123083 64.1820359,210.374451 L64.1820359,210.374451 Z" id="Shape" fill="#EEB490"></path>
                        <path d="M170.191148,95.7524663 C169.125013,101.323824 172.610454,106.97006 178.283433,106.97006 L186.454163,106.97006 C192.087919,86.3248383 199.071281,44.9987385 168.691784,14.6014132 C161.876009,6.7925988 141.949269,8.04236567 132.100893,11.6062515 C136.604332,13.0663928 184.821087,19.3134443 170.191148,95.7524663 L170.191148,95.7524663 Z" id="Shape" fill="#EEB490"></path>
                        <path d="M153.323752,315.561677 L106.97006,315.561677 C50.8464351,315.561677 5.34850299,270.063745 5.34850299,213.94012 C5.34850299,157.816495 50.8464351,112.318563 106.97006,112.318563 L114.547106,112.318563 C111.712399,113.994427 108.770723,115.295896 105.811218,116.205142 C68.8352335,132.607218 48.2613253,167.354659 48.2613253,210.427936 C48.2613253,268.70879 95.0250699,315.561677 153.323752,315.561677 L153.323752,315.561677 Z" id="Shape" fill="#FBB735"></path>
                        <path d="M48.2613253,210.427936 C48.2613253,167.354659 68.8352335,132.607218 105.811218,116.205142 C108.770723,115.295896 111.712399,113.994427 114.547106,112.318563 L106.97006,112.318563 C103.099527,112.318563 99.2860439,112.55568 95.529612,112.976429 C93.0639521,114.3296 90.5323273,115.420695 87.9828743,116.205142 C51.0068902,132.607218 30.432982,167.354659 30.432982,210.427936 C30.432982,268.70879 77.1967265,315.561677 135.495409,315.561677 L153.323752,315.561677 C95.0250699,315.561677 48.2613253,268.70879 48.2613253,210.427936 L48.2613253,210.427936 Z" id="Shape" fill="#FFD366"></path>
                        <path d="M265.963226,160.45509 L255.26622,160.45509 C252.312063,160.45509 249.917717,158.060743 249.917717,155.106587 C249.917717,152.15243 252.312063,149.758084 255.26622,149.758084 L265.963226,149.758084 C271.547063,149.758084 276.826035,147.529541 280.828498,143.482507 C284.830961,139.43369 287.036327,134.063793 287.036327,128.364072 C287.036327,116.567057 277.581957,106.97006 265.963226,106.97006 L185.41477,106.97006 C182.460614,106.97006 180.066267,104.575713 180.066267,101.621557 C180.066267,98.6674004 182.460614,96.2730539 185.41477,96.2730539 L265.963226,96.2730539 C283.481356,96.2730539 297.733333,110.669441 297.733333,128.364072 C297.733333,136.900283 294.429741,144.939083 288.432287,151.004285 C282.404524,157.099796 274.42634,160.45509 265.963226,160.45509 L265.963226,160.45509 Z" id="Shape" fill="#234957"></path>
                        <path d="M243.053804,213.94012 L242.465469,213.94012 C239.511313,213.94012 237.116966,211.545773 237.116966,208.591617 C237.116966,205.63746 239.511313,203.243114 242.465469,203.243114 L243.053804,203.243114 C246.007961,203.243114 248.402307,205.63746 248.402307,208.591617 C248.402307,211.545773 246.007961,213.94012 243.053804,213.94012 L243.053804,213.94012 Z" id="Shape" fill="#234957"></path>
                        <path d="M253.75081,213.94012 L248.330994,213.94012 C245.376838,213.94012 242.982491,211.545773 242.982491,208.591617 C242.982491,205.63746 245.376838,203.243114 248.330994,203.243114 L253.75081,203.243114 C259.252637,203.243114 264.454948,201.021702 268.398577,196.988931 C272.372515,192.940114 274.556487,187.564869 274.556487,181.849102 C274.556487,170.520972 265.945397,161.143264 254.952441,160.497878 C254.512081,160.46757 254.137685,160.45509 253.75081,160.45509 C250.796654,160.45509 248.402307,158.060743 248.402307,155.106587 C248.402307,152.15243 250.796654,149.758084 253.75081,149.758084 L254.945309,149.758084 C255.264437,149.758084 255.576433,149.786609 255.877732,149.838311 C272.340424,150.92584 285.253493,164.944267 285.253493,181.849102 C285.253493,190.385313 281.980209,198.418764 276.039805,204.475052 C270.072659,210.575911 262.155091,213.94012 253.75081,213.94012 L253.75081,213.94012 Z" id="Shape" fill="#234957"></path>
                        <path d="M243.053804,267.42515 L237.116966,267.42515 C234.16281,267.42515 231.768463,265.030803 231.768463,262.076647 C231.768463,259.12249 234.16281,256.728144 237.116966,256.728144 L243.053804,256.728144 C248.555631,256.728144 253.757942,254.506732 257.701571,250.473961 C261.675509,246.425144 263.859481,241.049899 263.859481,235.334132 C263.859481,223.537117 254.526343,213.94012 243.053804,213.94012 C240.099648,213.94012 237.705301,211.545773 237.705301,208.591617 C237.705301,205.63746 240.099648,203.243114 243.053804,203.243114 L248.330994,203.243114 C249.637812,203.243114 250.835876,203.711999 251.764733,204.491098 C264.913136,208.349151 274.556487,220.716673 274.556487,235.334132 C274.556487,243.870343 271.283203,251.903794 265.342799,257.960082 C259.375653,264.060941 251.458085,267.42515 243.053804,267.42515 L243.053804,267.42515 Z" id="Shape" fill="#234957"></path>
                        <path d="M114.570283,117.667066 C112.730398,117.667066 110.938649,116.716815 109.943828,115.012426 C108.456944,112.46119 109.318053,109.186123 111.869289,107.697456 C128.244622,98.1468128 140.19496,76.2054707 130.089855,54.3568359 C121.881686,37.3913844 114.755697,22.6687385 127.240886,8.93378283 C132.302353,3.35529421 139.747469,0.328041517 148.2712,0.408269062 C157.759444,0.499193613 166.835854,4.43390898 172.597974,10.9430371 C206.430822,44.9220766 195.321981,85.6330986 190.576076,103.029996 C189.796977,105.880748 186.853518,107.556612 184.006331,106.781079 C181.155579,106.003764 179.477932,103.06387 180.255248,100.213118 C187.302792,74.3923281 190.989693,44.4781509 164.910393,18.3828048 C164.824817,18.2972287 164.742806,18.2098699 164.664362,18.1189453 C160.941804,13.8561884 154.621656,11.1694571 148.169578,11.105275 L147.939593,11.105275 C142.633878,11.105275 138.101913,12.8845437 135.160236,16.1275194 C128.191137,23.793707 130.886782,31.4456319 139.758166,49.7838659 C152.557134,77.4516719 137.707907,105.012508 117.26058,116.939669 C116.41195,117.433515 115.483094,117.667066 114.570283,117.667066 L114.570283,117.667066 Z" id="Shape" fill="#234957"></path>
                        <path d="M235.655042,320.91018 L153.323752,320.91018 C123.705526,320.91018 95.9396639,309.446555 75.1464671,288.630181 C54.3604016,267.822722 42.9128224,240.047946 42.9128224,210.427936 C42.9128224,164.560957 65.0467106,128.437168 103.639725,111.31661 C103.834054,111.231034 104.035515,111.156155 104.236975,111.093756 C106.823867,110.298612 109.376886,109.162946 111.824718,107.715285 C114.368822,106.212355 117.649238,107.055636 119.148601,109.597958 C120.653313,112.140279 119.810033,115.420695 117.265928,116.923624 C114.194105,118.740332 110.979654,120.184428 107.699239,121.220255 C73.3190619,136.597201 53.6080455,169.094705 53.6080455,210.429719 C53.6098283,265.449769 98.3411417,310.213174 153.323752,310.213174 L235.655042,310.213174 C241.238879,310.213174 246.517851,307.984631 250.520315,303.937597 C254.522778,299.88878 256.728144,294.518883 256.728144,288.819162 C256.728144,277.469638 247.981558,268.084798 236.813884,267.451892 C236.500105,267.441195 236.084705,267.42515 235.655042,267.42515 C232.700885,267.42515 230.306539,265.030803 230.306539,262.076647 C230.306539,259.12249 232.700885,256.728144 235.655042,256.728144 C236.223766,256.728144 236.772879,256.747755 237.321992,256.767366 C254.244655,257.724748 267.42515,271.802008 267.42515,288.819162 C267.42515,297.355372 264.121558,305.394172 258.124103,311.459375 C252.09634,317.554885 244.118156,320.91018 235.655042,320.91018 L235.655042,320.91018 Z" id="Shape" fill="#234957"></path>
                        <path d="M153.323752,320.91018 L106.97006,320.91018 C47.9867689,320.91018 0,272.923411 0,213.94012 C0,154.956829 47.9867689,106.97006 106.97006,106.97006 L114.547106,106.97006 C117.501262,106.97006 119.904523,109.364406 119.904523,112.318563 C119.904523,115.272719 117.519091,117.667066 114.564934,117.667066 L106.97006,117.667066 C53.8861677,117.667066 10.697006,160.854445 10.697006,213.94012 C10.697006,267.025795 53.8861677,310.213174 106.97006,310.213174 L153.323752,310.213174 C156.277909,310.213174 158.672255,312.60752 158.672255,315.561677 C158.672255,318.515833 156.277909,320.91018 153.323752,320.91018 L153.323752,320.91018 Z" id="Shape" fill="#234957"></path>
                    </g>
                </g>
            </g>
        </g>
    </g>
</svg>