<?xml version="1.0" encoding="UTF-8" standalone="no"?>
<svg width="400px" height="400px" viewBox="0 0 400 400" version="1.1" xmlns="http://www.w3.org/2000/svg" xmlns:xlink="http://www.w3.org/1999/xlink">
    <!-- Generator: Sketch 3.8.3 (29802) - http://www.bohemiancoding.com/sketch -->
    <title>individual-1</title>
    <desc>Created with Sketch.</desc>
    <defs></defs>
    <g id="Page-1" stroke="none" stroke-width="1" fill="none" fill-rule="evenodd">
        <g id="individual-1">
            <g transform="translate(80.000000, 30.000000)" id="Layer_1">
                <g>
                    <g id="Group">
                        <g transform="translate(16.523438, 113.666667)">
                            <ellipse id="Oval" fill="#F4CEAE" cx="23.8671875" cy="23.8333333" rx="18.359375" ry="18.3333333"></ellipse>
                            <path d="M23.8671875,47.6666667 C10.7071875,47.6666667 0,36.9746667 0,23.8333333 C0,10.692 10.7071875,0 23.8671875,0 C37.0271875,0 47.734375,10.692 47.734375,23.8333333 C47.734375,36.9746667 37.0271875,47.6666667 23.8671875,47.6666667 L23.8671875,47.6666667 Z M23.8671875,11 C16.7804688,11 11.015625,16.7585 11.015625,23.8333333 C11.015625,30.9081667 16.7804688,36.6666667 23.8671875,36.6666667 C30.9539063,36.6666667 36.71875,30.9081667 36.71875,23.8333333 C36.71875,16.7585 30.9539063,11 23.8671875,11 L23.8671875,11 Z" id="Shape" fill="#234957"></path>
                        </g>
                        <g transform="translate(178.085938, 113.666667)">
                            <ellipse id="Oval" fill="#EEB490" cx="23.8671875" cy="23.8333333" rx="18.359375" ry="18.3333333"></ellipse>
                            <path d="M23.8671875,47.6666667 C10.7071875,47.6666667 0,36.9746667 0,23.8333333 C0,10.692 10.7071875,0 23.8671875,0 C37.0271875,0 47.734375,10.692 47.734375,23.8333333 C47.734375,36.9746667 37.0271875,47.6666667 23.8671875,47.6666667 L23.8671875,47.6666667 Z M23.8671875,11 C16.7804687,11 11.015625,16.7585 11.015625,23.8333333 C11.015625,30.9081667 16.7804687,36.6666667 23.8671875,36.6666667 C30.9539063,36.6666667 36.71875,30.9081667 36.71875,23.8333333 C36.71875,16.7585 30.9539063,11 23.8671875,11 L23.8671875,11 Z" id="Shape" fill="#234957"></path>
                        </g>
                        <path d="M120.953398,275.975333 C136.514805,275.975333 149.239687,263.2685 149.239687,247.729167 L149.239687,245.6245 C179.674023,251.249167 207.08457,265.851667 228.612773,286.515167 C204.560156,305.5965 175.315508,318.5325 143.357344,322.864667 C135.556445,323.948167 127.566445,324.489 119.451602,324.489 C114.195312,324.489 108.979414,324.259833 103.827773,323.781333 C89.6433203,322.553 75.9160156,319.636167 62.8992187,315.157333 C45.501875,309.3035 29.3346094,300.763833 14.8582422,290.035167 C13.8778516,289.3055 12.9176562,288.577667 11.9592969,287.827833 C33.6747656,266.454833 61.5865234,251.373833 92.6671094,245.6245 L92.6671094,247.729167 C92.6671094,255.498833 95.88,262.560833 100.969219,267.685 C106.100664,272.768833 113.172695,275.975333 120.953398,275.975333 L120.953398,275.975333 Z" id="Shape" fill="#EA5F6E"></path>
                        <path d="M232.093711,285.2355 C224.164297,290.323 209.768711,299.960833 198.530938,305.748667 C182.905273,286.515167 167.299805,270.416667 144.10457,257.854667 C145.476016,253.801167 146.254453,249.483667 146.254453,244.9865 L146.254453,241.959667 C180.703984,248.3305 205.048516,264.9295 232.093711,285.2355 L232.093711,285.2355 Z" id="Shape" fill="#D34A5E"></path>
                        <path d="M8.24519531,286.669167 C16.1746094,291.756667 28.3138281,299.256833 39.5497656,305.044667 C58.1257812,287.068833 79.7696484,272.264667 103.607461,261.523167 C102.236016,257.469667 101.457578,253.152167 101.457578,248.655 L101.457578,245.628167 C67.0117187,251.997167 35.2903906,266.363167 8.24519531,286.669167 L8.24519531,286.669167 Z" id="Shape" fill="#FF667C"></path>
                        <path d="M149.239688,245.626333 L149.239688,247.731 C149.239688,263.270333 136.514805,275.977167 120.953398,275.977167 C113.172695,275.977167 106.100664,272.768833 100.969219,267.686833 C95.88,262.562667 92.6671094,255.500667 92.6671094,247.731 L92.6671094,245.626333 L92.6671094,233.086333 L92.8139844,232.690333 C101.595273,236.003167 111.066875,233.607 120.955234,233.607 C130.863789,233.607 140.333555,236.003167 149.096484,232.690333 L149.243359,233.086333 L149.243359,245.626333 L149.239688,245.626333 Z" id="Shape" fill="#EEB490"></path>
                        <path d="M149.026719,232.712333 C147.367031,246.700667 135.391211,257.642 120.953398,257.642 C113.172695,257.642 106.100664,254.433667 100.969219,249.351667 C96.6162109,244.968167 93.6530078,239.162 92.88375,232.712333 C92.8598828,232.703167 92.8360156,232.697667 92.8139844,232.6885 L92.6671094,233.0845 L92.6671094,245.6245 L92.6671094,247.729167 C92.6671094,255.498833 95.88,262.560833 100.969219,267.685 C106.100664,272.767 113.172695,275.975333 120.953398,275.975333 C136.514805,275.975333 149.239687,263.2685 149.239687,247.729167 L149.239687,245.6245 L149.239687,233.0845 L149.092812,232.6885 C149.070781,232.697667 149.04875,232.705 149.026719,232.712333 L149.026719,232.712333 Z" id="Shape" fill="#F4CEAE"></path>
                        <path d="M121.171875,282.333333 C112.363047,282.333333 104.040742,278.708833 97.7361328,272.132667 C91.5269922,265.543667 88.125,256.934333 88.125,247.8575 L88.125,232.833333 C88.125,229.7955 90.5906641,227.333333 93.6328125,227.333333 C96.6749609,227.333333 99.140625,229.7955 99.140625,232.833333 L99.140625,247.855667 C99.140625,254.120167 101.479609,260.051 105.726133,264.559167 C109.901055,268.917 115.397852,271.333333 121.171875,271.333333 C133.320273,271.333333 143.203125,260.802667 143.203125,247.855667 L143.203125,232.833333 C143.203125,229.7955 145.668789,227.333333 148.710938,227.333333 C151.753086,227.333333 154.21875,229.7955 154.21875,232.833333 L154.21875,247.855667 C154.21875,266.8655 139.393555,282.333333 121.171875,282.333333 L121.171875,282.333333 Z" id="Shape" fill="#234957"></path>
                        <path d="M119.451602,329.990833 C113.96582,329.990833 108.536953,329.743333 103.315547,329.259333 C88.8336719,328.0035 74.6198437,325.009667 61.1036719,320.3585 C43.4070703,314.405667 26.73125,305.686333 11.57375,294.455333 C10.545625,293.689 9.55238281,292.9355 8.56097656,292.16 C6.16507812,290.286333 5.74464844,286.8305 7.62097656,284.438 C9.49730469,282.043667 12.9580469,281.6275 15.3521094,283.4975 C16.2774219,284.2235 17.2045703,284.925667 18.1500781,285.629667 C32.3657422,296.164 48.0171094,304.349833 64.6562109,309.947 C77.3553906,314.317667 90.680625,317.1245 104.301445,318.303333 C116.714219,319.460167 130.142266,319.146667 142.597266,317.419667 C172.752539,313.333167 201.305039,301.158 225.185078,282.212333 C227.566289,280.322167 231.030703,280.721833 232.923555,283.096 C234.81457,285.473833 234.418008,288.935167 232.036797,290.8235 C206.605391,311.001167 176.194922,323.964667 144.095391,328.317 C136.096211,329.428 127.797773,329.990833 119.451602,329.990833 L119.451602,329.990833 Z" id="Shape" fill="#234957"></path>
                        <path d="M228.612773,292.015167 C227.239492,292.015167 225.864375,291.5055 224.795859,290.480667 C203.440234,269.984 176.967852,256.344 148.237266,251.032833 C145.246523,250.479167 143.269219,247.61 143.823672,244.6235 C144.378125,241.637 147.255039,239.668 150.242109,240.216167 C181.096875,245.919667 209.517188,260.558833 232.431523,282.549667 C234.623633,284.654333 234.693398,288.137667 232.585742,290.326667 C231.504375,291.4505 230.059492,292.015167 228.612773,292.015167 L228.612773,292.015167 Z" id="Shape" fill="#234957"></path>
                        <path d="M11.9592969,293.327833 C10.5364453,293.327833 9.11359375,292.779667 8.03589844,291.687 C5.90070312,289.523667 5.92640625,286.042167 8.0928125,283.91 C31.2054297,261.163833 60.1049219,246.055333 91.6646875,240.216167 C94.6535937,239.664333 97.5286719,241.635167 98.083125,244.6235 C98.6375781,247.61 96.6621094,250.479167 93.6713672,251.032833 C64.2835156,256.468667 37.365,270.546833 15.8257812,291.743833 C14.7517578,292.801667 13.3546094,293.327833 11.9592969,293.327833 L11.9592969,293.327833 Z" id="Shape" fill="#234957"></path>
                        <path d="M201.090234,91.0561667 L201.090234,161.4305 C201.090234,195.556167 179.407812,224.880333 149.09832,236.364333 C140.331719,239.658833 130.856445,241.448167 120.958906,241.448167 C111.061367,241.448167 101.586094,239.658833 92.8194922,236.364333 C82.0719141,232.268667 72.3616406,225.962 64.3496094,217.9595 C49.8310156,203.415667 40.8294141,183.458 40.8294141,161.428667 L40.8294141,99.8653333 C45.2889062,98.6956667 62.21625,93.7603333 70.6523828,93.7603333 L201.090234,91.0561667 L201.090234,91.0561667 Z" id="Shape" fill="#F4CEAE"></path>
                        <path d="M42.8379297,91.6666667 L42.8379297,115.201167 L172.807617,124.004833 C172.807617,158.1305 151.125195,201.345833 120.815703,212.831667 C112.049102,216.126167 102.573828,217.9155 92.6762891,217.9155 C82.7769141,217.9155 73.3034766,216.126167 64.536875,212.831667 C62.0087891,211.869167 59.5504688,210.76 57.1453906,209.559167 C59.3778906,212.5035 61.7389063,215.348833 64.3477734,217.961333 C72.3616406,225.962 82.0719141,232.2705 92.8176563,236.366167 C101.584258,239.660667 111.059531,241.45 120.95707,241.45 C130.854609,241.45 140.329883,239.660667 149.096484,236.366167 C179.405977,224.880333 201.088398,195.558 201.088398,161.432333 L201.088398,91.0561667 L42.8379297,91.6666667 L42.8379297,91.6666667 Z" id="Shape" fill="#EEB490"></path>
                        <path d="M121.171875,298.833333 C108.542461,298.833333 96.1976172,296.626 84.4806641,292.271833 C70.5991406,287.045 57.7585938,278.8445 47.3249609,268.5485 C27.4601172,248.876833 16.5234375,222.8545 16.5234375,195.264667 L16.5234375,138.937333 C16.5234375,135.8995 18.9891016,133.437333 22.03125,133.437333 C25.0733984,133.437333 27.5390625,135.8995 27.5390625,138.937333 L27.5390625,195.264667 C27.5390625,219.899167 37.3191016,243.147667 55.0762891,260.731167 C64.4138672,269.943667 75.9196875,277.291667 88.3471484,281.972167 C98.8064844,285.858833 109.858828,287.833333 121.171875,287.833333 C132.484922,287.833333 143.551953,285.853333 154.066367,281.9465 C190.390391,268.341333 214.804688,233.504333 214.804688,195.264667 L214.804688,137.897833 C214.804688,134.86 217.270352,132.397833 220.3125,132.397833 C223.354648,132.397833 225.820313,134.86 225.820313,137.897833 L225.820313,195.264667 C225.820313,238.063833 198.534609,277.038667 157.921836,292.249833 C146.16082,296.6205 133.799453,298.833333 121.171875,298.833333 L121.171875,298.833333 Z" id="Shape" fill="#234957"></path>
                        <path d="M120.890977,210.833333 C109.893711,210.833333 99.493125,206.559833 91.6041016,198.803 C89.4358594,196.670833 89.4101563,193.189333 91.5453516,191.024167 C93.6787109,188.860833 97.1669922,188.835167 99.3333984,190.9655 C105.147813,196.6855 112.803672,199.835167 120.890977,199.835167 C129.238984,199.835167 137.06375,196.518667 142.925898,190.499833 C145.046406,188.321833 148.532852,188.2705 150.713945,190.391667 C152.895039,192.509167 152.942773,195.990667 150.824102,198.168667 C142.868984,206.336167 132.238906,210.833333 120.890977,210.833333 L120.890977,210.833333 Z" id="Shape" fill="#234957"></path>
                        <path d="M123.007812,174.166667 L119.335938,174.166667 C116.293789,174.166667 113.828125,171.7045 113.828125,168.666667 C113.828125,165.628833 116.293789,163.166667 119.335938,163.166667 L123.007812,163.166667 C126.049961,163.166667 128.515625,165.628833 128.515625,168.666667 C128.515625,171.7045 126.049961,174.166667 123.007812,174.166667 L123.007812,174.166667 Z" id="Shape" fill="#234957"></path>
                        <path d="M87.9634375,152.812 C82.3271094,152.812 77.7427734,148.234167 77.7427734,142.605833 C77.7427734,136.9775 82.3289453,132.399667 87.9634375,132.399667 C93.5979297,132.399667 98.1841016,136.9775 98.1841016,142.605833 C98.1841016,148.234167 93.5979297,152.812 87.9634375,152.812 L87.9634375,152.812 Z M87.9634375,141.812 C87.5099609,141.812 87.1684766,142.153 87.1684766,142.605833 C87.1684766,143.058667 87.5099609,143.399667 87.9634375,143.399667 C88.4169141,143.399667 88.7583984,143.058667 88.7583984,142.605833 C88.7583984,142.153 88.4150781,141.812 87.9634375,141.812 L87.9634375,141.812 Z" id="Shape" fill="#234957"></path>
                        <path d="M153.952539,152.812 C148.316211,152.812 143.731875,148.234167 143.731875,142.605833 C143.731875,136.9775 148.318047,132.399667 153.952539,132.399667 C159.587031,132.399667 164.173203,136.9775 164.173203,142.605833 C164.173203,148.234167 159.588867,152.812 153.952539,152.812 L153.952539,152.812 Z M153.952539,141.812 C153.499062,141.812 153.157578,142.153 153.157578,142.605833 C153.157578,143.058667 153.499062,143.399667 153.952539,143.399667 C154.406016,143.399667 154.7475,143.058667 154.7475,142.605833 C154.7475,142.153 154.406016,141.812 153.952539,141.812 L153.952539,141.812 Z" id="Shape" fill="#234957"></path>
                        <path d="M145.106992,122.255833 C150.557891,121.955167 156.508164,122.276 161.758945,122.276 C176.147188,122.276 187.809062,133.921333 187.809062,148.289167 C187.809062,162.657 176.147187,174.302333 161.758945,174.302333 C149.114844,174.302333 132.402305,160.414833 128.533984,142.1255 C127.992383,139.5845 127.693125,136.962833 127.693125,134.280667 C127.694961,125.156167 135.629883,122.774667 145.106992,122.255833 L145.106992,122.255833 Z" id="Shape" fill="#4E676D"></path>
                        <polygon id="Shape" fill="#608287" points="149.935508 175.541667 141.776602 170.941833 158.501992 119.166667 168.294883 118.708333"></polygon>
                        <polygon id="Shape" fill="#608287" points="172.730508 176 161.053945 176.441833 177.779336 124.666667 186.678125 132.916667"></polygon>
                        <path d="M96.2526953,122.255833 C105.731641,122.7765 113.666563,125.158 113.666563,134.2825 C113.666563,137.364333 113.286523,140.3655 112.565,143.2475 C108.256055,160.975833 91.9657812,174.304167 79.6007422,174.304167 C65.2125,174.304167 53.550625,162.658833 53.550625,148.291 C53.550625,133.923167 65.2125,122.277833 79.6007422,122.277833 C84.8515234,122.274167 90.8017969,121.955167 96.2526953,122.255833 L96.2526953,122.255833 Z" id="Shape" fill="#4E676D"></path>
                        <polygon id="Shape" fill="#608287" points="76.8027734 176 60.9953516 170.941833 77.7207422 119.166667 95.1621484 119.166667"></polygon>
                        <path d="M80.5370703,179.666667 C63.4610156,179.666667 49.5703125,165.718667 49.5703125,148.573333 C49.5703125,131.428 63.4610156,117.48 80.5370703,117.48 C82.2169531,117.48 83.9721094,117.445167 85.7584766,117.410333 C87.6862109,117.371833 89.6488281,117.333333 91.5985937,117.333333 C93.6750391,117.333333 95.4797656,117.377333 97.1155859,117.469 C111.86,118.281167 119.335938,124.109333 119.335938,134.790333 C119.335938,138.213167 118.91918,141.626833 118.09668,144.936 C113.556406,163.746 96.3518359,179.666667 80.5370703,179.666667 L80.5370703,179.666667 Z M91.5985937,128.333333 C89.7222656,128.333333 87.83125,128.371833 85.9751172,128.4085 C84.1134766,128.445167 82.2867187,128.48 80.5370703,128.48 C69.5361328,128.48 60.5859375,137.4945 60.5859375,148.573333 C60.5859375,159.652167 69.5361328,168.666667 80.5370703,168.666667 C90.0178516,168.666667 103.816758,157.160667 107.396836,142.3235 C108.013711,139.844833 108.320312,137.322167 108.320312,134.790333 C108.320312,132.526167 108.320312,129.1015 96.5060547,128.450667 C95.0740234,128.371833 93.4694141,128.333333 91.5985937,128.333333 L91.5985937,128.333333 Z" id="Shape" fill="#234957"></path>
                        <path d="M161.80668,179.666667 C145.991914,179.666667 128.787344,163.746 124.237891,144.901167 C123.42457,141.628667 123.007812,138.215 123.007812,134.790333 C123.007812,124.109333 130.48375,118.279333 145.23,117.469 C146.863984,117.377333 148.668711,117.333333 150.74332,117.333333 C152.693086,117.333333 154.655703,117.371833 156.583438,117.410333 C158.371641,117.447 160.124961,117.48 161.804844,117.48 C178.879063,117.48 192.771602,131.428 192.771602,148.573333 C192.771602,165.718667 178.882734,179.666667 161.80668,179.666667 L161.80668,179.666667 Z M150.745156,128.333333 C148.874336,128.333333 147.269727,128.371833 145.839531,128.450667 C134.023438,129.103333 134.023438,132.526167 134.023438,134.790333 C134.023438,137.322167 134.330039,139.844833 134.937734,142.286833 C138.528828,157.160667 152.325898,168.666667 161.80668,168.666667 C172.807617,168.666667 181.757813,159.652167 181.757813,148.573333 C181.757813,137.4945 172.807617,128.48 161.80668,128.48 C160.057031,128.48 158.230273,128.443333 156.368633,128.4085 C154.5125,128.371833 152.621484,128.333333 150.745156,128.333333 L150.745156,128.333333 Z" id="Shape" fill="#234957"></path>
                        <path d="M154.21875,128.333333 L88.125,128.333333 C85.0828516,128.333333 82.6171875,125.871167 82.6171875,122.833333 C82.6171875,119.7955 85.0828516,117.333333 88.125,117.333333 L154.21875,117.333333 C157.260898,117.333333 159.726563,119.7955 159.726563,122.833333 C159.726563,125.871167 157.260898,128.333333 154.21875,128.333333 L154.21875,128.333333 Z" id="Shape" fill="#234957"></path>
                        <path d="M128.515625,146.666667 L113.828125,146.666667 C110.785977,146.666667 108.320312,144.2045 108.320312,141.166667 C108.320312,138.128833 110.785977,135.666667 113.828125,135.666667 L128.515625,135.666667 C131.557773,135.666667 134.023438,138.128833 134.023438,141.166667 C134.023438,144.2045 131.557773,146.666667 128.515625,146.666667 L128.515625,146.666667 Z" id="Shape" fill="#234957"></path>
                        <path d="M201.953125,78.8333333 L201.953125,99.8616667 C201.953125,86.4783333 179.628125,88.0916667 179.628125,88.0916667 L40.390625,95.3333333 C21.1316406,95.3333333 5.5078125,79.7316667 5.5078125,60.5 L5.5078125,40.3333333 L5.5078125,38.5 C5.5078125,20.2766667 20.3054688,5.5 38.5546875,5.5 L40.390625,5.5 L40.390625,38.5 C40.390625,26.345 50.2496094,20.1666667 62.421875,20.1666667 L62.421875,38.5 L168.90625,45.8333333 C187.155469,45.8333333 201.953125,60.61 201.953125,78.8333333 L201.953125,78.8333333 Z" id="Shape" fill="#FBB735"></path>
                        <g opacity="0.5" transform="translate(56.914062, 33.000000)" id="Shape" fill="#FFCC6F">
                            <path d="M18.359375,27.5 L18.359375,7.33333333 L18.359375,5.5 L18.359375,3.66666667 L16.5234375,3.66666667 C10.4978906,3.66666667 4.86523437,-0.196166667 -1.0658141e-14,2.618 L-1.0658141e-14,0 L-1.0658141e-14,1.83333333 L-1.0658141e-14,27.5 C-1.0658141e-14,43.4646667 10.780625,56.8956667 25.4571094,61.0096667 L11.9115625,61.7136667 C14.0045312,62.106 16.1544141,62.3333333 18.359375,62.3333333 L43.8164844,61.0096667 C29.14,56.8956667 18.359375,43.4646667 18.359375,27.5 L18.359375,27.5 Z"></path>
                        </g>
                        <path d="M168.90625,45.8333333 L148.595273,44.4345 C164.545898,48.9335 176.25,63.5433333 176.25,80.9105 L176.25,88.2676667 L179.628125,88.0916667 C179.628125,88.0916667 201.953125,86.4783333 201.953125,99.8616667 L201.953125,78.8333333 C201.953125,60.61 187.155469,45.8333333 168.90625,45.8333333 L168.90625,45.8333333 Z" id="Shape" fill="#FF9933"></path>
                        <path d="M34.8828125,60.5 L34.8828125,40.3333333 L34.8828125,38.5 L34.8828125,5.5 L33.046875,5.5 C14.7976563,5.5 0,20.2766667 0,38.5 L0,40.3333333 L0,60.5 C0,79.7316667 15.6238281,95.3333333 34.8828125,95.3333333 L60.3399219,94.0096667 C45.6634375,89.8956667 34.8828125,76.4646667 34.8828125,60.5 L34.8828125,60.5 Z" id="Shape" fill="#FFD366"></path>
                        <path d="M121.171875,247.5 C110.727227,247.5 100.535938,245.681333 90.8844141,242.095333 C79.4373438,237.774167 68.8494922,231.001833 60.2389453,222.500667 C43.88625,206.334333 34.8828125,184.944833 34.8828125,162.268333 L34.8828125,95.3333333 C34.8828125,92.2955 37.3484766,89.8333333 40.390625,89.8333333 C43.4327734,89.8333333 45.8984375,92.2955 45.8984375,95.3333333 L45.8984375,162.268333 C45.8984375,181.985833 53.7415625,200.599667 67.9866016,214.6815 C75.5066016,222.1065 84.7652344,228.0245 94.7545703,231.795667 C103.144805,234.914167 112.041758,236.5 121.171875,236.5 C130.301992,236.5 139.198945,234.914167 147.616719,231.7865 C176.817305,220.834167 196.445313,192.894167 196.445313,162.268333 L196.445313,78.8333333 C196.445313,75.7955 198.910977,73.3333333 201.953125,73.3333333 C204.995273,73.3333333 207.460938,75.7955 207.460938,78.8333333 L207.460938,162.268333 C207.460938,197.45 184.961523,229.529667 151.474023,242.089833 C141.807813,245.681333 131.616523,247.5 121.171875,247.5 L121.171875,247.5 Z" id="Shape" fill="#234957"></path>
                        <path d="M201.953125,105.361667 C198.910977,105.361667 196.445313,102.8995 196.445313,99.8616667 C196.445313,98.5471667 196.070781,97.6396667 195.191367,96.8238333 C191.914219,93.7786667 183.562539,93.3258333 180.024688,93.577 L40.6770313,100.826 C40.5815625,100.8315 40.4860938,100.833333 40.390625,100.833333 C18.1188672,100.833333 0,82.7401667 0,60.5 C0,57.4621667 2.46566406,55 5.5078125,55 C8.54996094,55 11.015625,57.4621667 11.015625,60.5 C11.015625,76.6296667 24.1187109,89.76 40.2529297,89.8333333 L179.339883,82.599 C180.830664,82.4945 195.064688,81.6823333 202.694844,88.77 C205.812266,91.6648333 207.460938,95.5001667 207.460938,99.8616667 C207.460938,102.8995 204.995273,105.361667 201.953125,105.361667 L201.953125,105.361667 Z" id="Shape" fill="#234957"></path>
                        <path d="M201.953125,84.3333333 C198.910977,84.3333333 196.445312,81.8711667 196.445312,78.8333333 C196.445312,63.6698333 184.091289,51.3333333 168.90625,51.3333333 C165.864102,51.3333333 163.398438,48.8711667 163.398438,45.8333333 C163.398438,42.7955 165.864102,40.3333333 168.90625,40.3333333 C190.166406,40.3333333 207.460938,57.6051667 207.460938,78.8333333 C207.460938,81.8711667 204.995273,84.3333333 201.953125,84.3333333 L201.953125,84.3333333 Z" id="Shape" fill="#234957"></path>
                        <path d="M5.5078125,66 C2.46566406,66 0,63.5378333 0,60.5 L0,40.3333333 C0,37.2955 2.46566406,34.8333333 5.5078125,34.8333333 C8.54996094,34.8333333 11.015625,37.2955 11.015625,40.3333333 L11.015625,60.5 C11.015625,63.5378333 8.54996094,66 5.5078125,66 L5.5078125,66 Z" id="Shape" fill="#234957"></path>
                        <path d="M168.911758,51.3333333 C168.785078,51.3333333 168.656563,51.3296667 168.528047,51.3205 L62.0436719,43.9871667 C59.0088672,43.7781667 56.7194531,41.151 56.92875,38.1223333 C57.1380469,35.0918333 59.7616016,32.7965 62.8019141,33.0128333 L169.286289,40.3461667 C172.321094,40.5551667 174.610508,43.1823333 174.401211,46.211 C174.201094,49.1131667 171.781328,51.3333333 168.911758,51.3333333 L168.911758,51.3333333 Z" id="Shape" fill="#234957"></path>
                        <path d="M40.390625,44 C37.3484766,44 34.8828125,41.5378333 34.8828125,38.5 C34.8828125,24.2458333 45.9498438,14.6666667 62.421875,14.6666667 C65.4640234,14.6666667 67.9296875,17.1288333 67.9296875,20.1666667 C67.9296875,23.2045 65.4640234,25.6666667 62.421875,25.6666667 C58.5462109,25.6666667 45.8984375,26.5925 45.8984375,38.5 C45.8984375,41.5378333 43.4327734,44 40.390625,44 L40.390625,44 Z" id="Shape" fill="#234957"></path>
                        <path d="M62.421875,44 C59.3797266,44 56.9140625,41.5378333 56.9140625,38.5 L56.9140625,20.1666667 C56.9140625,17.1288333 59.3797266,14.6666667 62.421875,14.6666667 C65.4640234,14.6666667 67.9296875,17.1288333 67.9296875,20.1666667 L67.9296875,38.5 C67.9296875,41.5378333 65.4640234,44 62.421875,44 L62.421875,44 Z" id="Shape" fill="#234957"></path>
                        <path d="M5.5078125,44 C2.46566406,44 0,41.5378333 0,38.5 C0,17.2718333 17.2945313,0 38.5546875,0 C41.5968359,0 44.0625,2.46216667 44.0625,5.5 C44.0625,8.53783333 41.5968359,11 38.5546875,11 C23.3696484,11 11.015625,23.3365 11.015625,38.5 C11.015625,41.5378333 8.54996094,44 5.5078125,44 L5.5078125,44 Z" id="Shape" fill="#234957"></path>
                        <path d="M40.390625,44 C37.3484766,44 34.8828125,41.5378333 34.8828125,38.5 L34.8828125,5.5 C34.8828125,2.46216667 37.3484766,0 40.390625,0 C43.4327734,0 45.8984375,2.46216667 45.8984375,5.5 L45.8984375,38.5 C45.8984375,41.5378333 43.4327734,44 40.390625,44 L40.390625,44 Z" id="Shape" fill="#234957"></path>
                        <path d="M180.542422,52.899 C180.087109,52.899 179.626289,52.8421667 179.165469,52.723 C176.242656,51.964 174.469141,49.0215 175.199844,46.0955 C175.326523,45.5895 178.442109,33.638 190.834688,28.8896667 C193.671211,27.8025 196.860234,29.2178333 197.948945,32.054 C199.039492,34.892 197.620313,38.071 194.780117,39.16 C187.840273,41.8183333 185.951094,48.5246667 185.873984,48.8106667 C185.211211,51.2636667 182.978711,52.899 180.542422,52.899 L180.542422,52.899 Z" id="Shape" fill="#234957"></path>
                        <path d="M192.341992,59.697 C190.838359,59.697 189.338398,59.0755 188.242344,57.8655 C186.202617,55.6123333 186.417422,52.0978333 188.673789,50.061 C189.121758,49.654 193.261797,46.0808333 200.467852,45.265 C203.482461,44.9093333 206.218008,47.0891667 206.561328,50.1086667 C206.904648,53.1281667 204.732734,55.8525 201.708945,56.1935 C198.04625,56.6096667 196.061602,58.223 195.978984,58.2926667 C194.936172,59.235 193.638164,59.697 192.341992,59.697 L192.341992,59.697 Z" id="Shape" fill="#234957"></path>
                        <path d="M121.171875,329.990833 C118.129727,329.990833 115.664063,327.528667 115.664063,324.490833 L115.664063,293.333333 C115.664063,290.2955 118.129727,287.833333 121.171875,287.833333 C124.214023,287.833333 126.679688,290.2955 126.679688,293.333333 L126.679688,324.490833 C126.679688,327.528667 124.214023,329.990833 121.171875,329.990833 L121.171875,329.990833 Z" id="Shape" fill="#234957"></path>
                    </g>
                </g>
            </g>
        </g>
    </g>
</svg>