<?xml version="1.0" encoding="UTF-8" standalone="no"?><svg width="400" height="400" viewBox="0 0 400 400" xmlns="http://www.w3.org/2000/svg"><title>individual-2</title><g fill="none" fill-rule="evenodd"><path d="M291.348 159.383a5.491 5.491 0 0 1-5.488-5.494c0-47.47-38.57-86.088-85.978-86.088-47.409 0-85.978 38.619-85.978 86.088a5.491 5.491 0 0 1-5.488 5.494 5.491 5.491 0 0 1-5.488-5.494c0-53.53 43.494-97.078 96.954-97.078 53.46 0 96.954 43.548 96.954 97.078a5.491 5.491 0 0 1-5.488 5.494z" fill="#234957"/><g transform="translate(95.61 146.562)"><ellipse fill="#F4CEAE" cx="23.781" cy="23.821" rx="18.293" ry="18.316"/><path d="M23.781 47.632C10.67 47.632 0 36.95 0 23.82 0 10.69 10.669.009 23.781.009c13.113 0 23.781 10.682 23.781 23.812 0 13.129-10.668 23.81-23.78 23.81zm0-36.633c-7.061 0-12.805 5.753-12.805 12.822 0 7.068 5.744 12.821 12.805 12.821s12.805-5.753 12.805-12.821c0-7.069-5.744-12.822-12.805-12.822z" fill="#234957"/></g><g transform="translate(256.59 146.562)"><ellipse fill="#EEB490" cx="23.781" cy="23.821" rx="18.293" ry="18.316"/><path d="M23.781 47.632C10.67 47.632 0 36.95 0 23.82 0 10.69 10.669.009 23.781.009c13.113 0 23.781 10.682 23.781 23.812 0 13.129-10.668 23.81-23.78 23.81zm0-36.633c-7.061 0-12.805 5.753-12.805 12.822 0 7.068 5.744 12.821 12.805 12.821s12.805-5.753 12.805-12.821c0-7.069-5.744-12.822-12.805-12.822z" fill="#234957"/></g><path d="M199.664 308.73c15.505 0 28.184-12.695 28.184-28.22v-2.103c30.325 5.62 57.637 20.209 79.087 40.853-23.965 19.064-53.105 31.988-84.948 36.316-7.773 1.085-15.734 1.625-23.82 1.625-5.237 0-10.434-.229-15.567-.707-14.133-1.227-27.811-4.141-40.78-8.616-17.336-5.849-33.445-14.38-47.869-25.1a150.072 150.072 0 0 1-2.888-2.204c21.637-21.354 49.448-36.42 80.417-42.165v2.103c0 7.762 3.201 14.818 8.272 19.937 5.113 5.078 12.16 8.281 19.912 8.281z" fill="#EA5F6E"/><path d="M310.404 317.982c-7.901 5.083-22.245 14.712-33.442 20.494-15.57-19.216-31.119-35.3-54.23-47.85 1.366-4.05 2.142-8.363 2.142-12.856v-3.024c34.325 6.365 58.582 22.949 85.53 43.236z" fill="#D34A5E"/><path d="M87.362 319.414c7.9 5.083 19.996 12.576 31.192 18.359 18.509-17.96 40.075-32.75 63.827-43.482-1.367-4.05-2.142-8.363-2.142-12.856v-3.024c-34.322 6.363-65.93 20.716-92.877 41.003z" fill="#FF667C"/><path d="M227.848 278.41v2.102c0 15.525-12.679 28.22-28.184 28.22-7.753 0-14.8-3.205-19.912-8.283-5.071-5.12-8.272-12.175-8.272-19.937V265.88l.146-.396c8.75 3.31 18.187.916 28.04.916 9.873 0 19.308 2.394 28.04-.916l.146.396v12.528h-.004z" fill="#EEB490"/><path d="M227.636 265.507c-1.653 13.976-13.586 24.907-27.972 24.907-7.753 0-14.8-3.206-19.912-8.283-4.337-4.38-7.29-10.18-8.056-16.624-.024-.01-.048-.015-.07-.024l-.146.396v14.631c0 7.763 3.201 14.818 8.272 19.938 5.113 5.077 12.16 8.282 19.912 8.282 15.505 0 28.184-12.695 28.184-28.22V265.88l-.146-.396c-.022.01-.044.017-.066.024z" fill="#F4CEAE"/><path d="M199.882 315.082c-8.777 0-17.07-3.62-23.352-10.19-6.186-6.584-9.576-15.187-9.576-24.256v-15.008a5.491 5.491 0 0 1 5.488-5.495 5.491 5.491 0 0 1 5.488 5.495v15.008c0 6.26 2.33 12.185 6.562 16.689 4.16 4.352 9.637 6.766 15.39 6.766 12.104 0 21.952-10.521 21.952-23.456v-15.009a5.491 5.491 0 0 1 5.488-5.495 5.491 5.491 0 0 1 5.488 5.495v15.009c0 18.994-14.772 34.447-32.928 34.447z" fill="#234957"/><path d="M198.168 362.696c-5.466 0-10.876-.247-16.078-.73-14.428-1.254-28.589-4.245-42.058-8.892-17.635-5.949-34.25-14.66-49.352-25.88a161.243 161.243 0 0 1-2.998-2.289 5.5 5.5 0 0 1-.946-7.713 5.478 5.478 0 0 1 7.704-.948c.922.723 1.846 1.425 2.788 2.128 14.17 10.528 29.764 18.705 46.342 24.3 12.655 4.365 25.934 7.17 39.502 8.347 12.368 1.156 25.748.843 38.158-.883 30.045-4.082 58.496-16.246 82.29-35.173a5.486 5.486 0 0 1 7.71.883 5.5 5.5 0 0 1-.883 7.72c-25.341 20.158-55.642 33.11-87.624 37.458-7.97 1.108-16.24 1.672-24.555 1.672z" fill="#234957"/><path d="M306.935 324.757a5.47 5.47 0 0 1-3.803-1.533c-21.277-20.48-47.655-34.107-76.282-39.413a5.495 5.495 0 0 1-4.398-6.404 5.49 5.49 0 0 1 6.395-4.403c30.746 5.698 59.064 20.324 81.893 42.296a5.5 5.5 0 0 1 .152 7.77 5.465 5.465 0 0 1-3.957 1.687zM91.063 326.069a5.47 5.47 0 0 1-3.91-1.64 5.499 5.499 0 0 1 .057-7.77c23.028-22.725 51.821-37.82 83.27-43.655a5.488 5.488 0 0 1 6.396 4.401 5.495 5.495 0 0 1-4.396 6.406c-29.283 5.432-56.105 19.498-77.565 40.675a5.465 5.465 0 0 1-3.852 1.583z" fill="#234957"/><path d="M279.512 123.981v70.31c0 34.094-21.604 63.391-51.804 74.865-8.735 3.291-18.177 5.079-28.038 5.079-9.862 0-19.303-1.788-28.038-5.08a80.955 80.955 0 0 1-28.368-18.387c-14.466-14.53-23.435-34.47-23.435-56.479v-61.507c4.443-1.168 21.31-6.099 29.715-6.099l129.968-2.702z" fill="#F4CEAE"/><path d="M121.83 124.591v23.513l129.501 8.796c0 34.094-21.604 77.27-51.804 88.745-8.735 3.291-18.176 5.079-28.038 5.079-9.864 0-19.303-1.788-28.038-5.08-2.52-.96-4.969-2.069-7.365-3.269 2.224 2.942 4.577 5.785 7.176 8.395a81.014 81.014 0 0 0 28.368 18.388c8.735 3.291 18.176 5.079 28.038 5.079 9.862 0 19.303-1.788 28.038-5.08 30.2-11.475 51.804-40.77 51.804-74.864V123.98l-157.68.61z" fill="#EEB490"/><path d="M199.882 331.567c-12.584 0-24.884-2.205-36.56-6.555-12.342-4.66-23.124-11.966-34.983-23.702-19.02-18.884-29.07-44.201-29.07-73.216v-56.276a5.491 5.491 0 0 1 5.488-5.494 5.491 5.491 0 0 1 5.488 5.494v56.276c0 26.02 8.927 48.637 25.815 65.406 10.85 10.735 20.158 17.084 31.114 21.222 10.423 3.883 21.435 5.855 32.708 5.855 11.272 0 22.3-1.978 32.776-5.881 34.535-12.97 56.86-46.967 56.86-86.602V170.78a5.491 5.491 0 0 1 5.488-5.495 5.491 5.491 0 0 1 5.488 5.495v57.314c0 44.263-25.118 82.298-63.995 96.896-11.718 4.366-24.035 6.577-36.617 6.577z" fill="#234957"/><path d="M199.602 243.648c-10.96 0-21.325-4.27-29.183-12.02a5.5 5.5 0 0 1-.059-7.77 5.48 5.48 0 0 1 7.762-.057c5.792 5.712 13.42 8.86 21.48 8.86 8.318 0 16.114-3.314 21.955-9.328a5.48 5.48 0 0 1 7.76-.108 5.5 5.5 0 0 1 .11 7.77c-7.926 8.16-18.518 12.653-29.825 12.653zM201.711 207.015h-3.659a5.491 5.491 0 0 1-5.488-5.495 5.491 5.491 0 0 1 5.488-5.495h3.66a5.491 5.491 0 0 1 5.487 5.495 5.491 5.491 0 0 1-5.488 5.495zM166.793 185.679c-5.616 0-10.184-4.574-10.184-10.197 0-5.623 4.57-10.197 10.184-10.197 5.614 0 10.184 4.574 10.184 10.197 0 5.623-4.57 10.197-10.184 10.197zm0-10.99a.775.775 0 0 0-.792.793c0 .452.34.793.792.793s.792-.34.792-.793a.776.776 0 0 0-.792-.793zM232.544 185.679c-5.616 0-10.184-4.574-10.184-10.197 0-5.623 4.57-10.197 10.184-10.197 5.614 0 10.184 4.574 10.184 10.197 0 5.623-4.568 10.197-10.184 10.197zm0-10.99a.775.775 0 0 0-.792.793c0 .452.34.793.792.793s.792-.34.792-.793a.775.775 0 0 0-.792-.793z" fill="#234957"/><path d="M223.73 155.152c5.432-.3 11.36.02 16.593.02 14.336 0 25.956 11.635 25.956 25.99 0 14.354-11.62 25.989-25.956 25.989-12.599 0-29.251-13.875-33.106-32.147a37.648 37.648 0 0 1-.837-7.838c.001-9.116 7.908-11.495 17.35-12.014z" fill="#4E676D"/><path fill="#608287" d="M228.542 208.39l-8.13-4.597 16.665-51.727 9.758-.458zM251.255 208.847l-11.635.441 16.665-51.727 8.867 8.242z"/><path d="M175.052 155.152c9.445.52 17.352 2.9 17.352 12.016a36.92 36.92 0 0 1-1.098 8.957c-4.294 17.712-20.525 31.028-32.846 31.028-14.336 0-25.956-11.635-25.956-25.99 0-14.354 11.62-25.989 25.956-25.989 5.232-.002 11.161-.322 16.592-.022z" fill="#4E676D"/><path fill="#608287" d="M155.673 208.847l-15.75-5.054 16.664-51.727h17.379z"/><path d="M159.393 212.51c-17.012 0-30.855-13.935-30.855-31.064 0-17.13 13.84-31.065 30.855-31.065 1.674 0 3.423-.035 5.203-.07 1.92-.038 3.876-.077 5.82-.077 2.068 0 3.866.044 5.496.136 14.691.813 22.14 6.638 22.14 17.307 0 3.42-.415 6.83-1.234 10.135-4.522 18.792-21.667 34.698-37.425 34.698zm11.022-51.286c-1.87 0-3.754.039-5.603.075-1.855.037-3.675.072-5.419.072-10.96 0-19.879 9.006-19.879 20.075 0 11.068 8.918 20.074 19.88 20.074 9.446 0 23.195-11.495 26.762-26.318.615-2.477.92-4.995.92-7.525 0-2.262 0-5.683-11.773-6.336a88.886 88.886 0 0 0-4.888-.117zM240.37 212.51c-15.76 0-32.902-15.906-37.433-34.733a42.086 42.086 0 0 1-1.226-10.1c0-10.67 7.45-16.494 22.142-17.307a98.097 98.097 0 0 1 5.495-.136c1.943 0 3.899.039 5.82.077 1.781.037 3.528.07 5.202.07 17.013 0 30.855 13.935 30.855 31.065 0 17.13-13.84 31.064-30.855 31.064zm-11.022-51.286c-1.864 0-3.462.039-4.887.117-11.774.654-11.774 4.074-11.774 6.336 0 2.53.306 5.048.911 7.488 3.578 14.858 17.326 26.355 26.772 26.355 10.961 0 19.88-9.006 19.88-20.074 0-11.069-8.919-20.075-19.88-20.075-1.743 0-3.563-.037-5.418-.072-1.85-.038-3.734-.075-5.604-.075z" fill="#234957"/><path d="M232.81 161.224h-65.856a5.491 5.491 0 0 1-5.488-5.495 5.491 5.491 0 0 1 5.488-5.495h65.856a5.491 5.491 0 0 1 5.488 5.495 5.491 5.491 0 0 1-5.488 5.495zM207.2 179.54h-14.636a5.491 5.491 0 0 1-5.487-5.494 5.491 5.491 0 0 1 5.487-5.495H207.2a5.491 5.491 0 0 1 5.488 5.495 5.491 5.491 0 0 1-5.488 5.495z" fill="#234957"/><path d="M280.372 111.77v21.009c0-13.371-22.245-11.76-22.245-11.76l-138.735 7.236c-19.19 0-34.757-15.588-34.757-34.802V71.474c0-18.207 14.744-32.97 32.927-32.97h1.83v32.97c0-12.144 9.823-18.317 21.952-18.317v18.317l106.1 7.326c18.184 0 32.928 14.763 32.928 32.97z" fill="#FBB735"/><path d="M154.149 93.453V69.642h-1.83c-6.003 0-11.616-3.86-16.463-1.048V65.98v27.474c0 15.95 10.741 29.369 25.365 33.48l-13.497.703c2.086.39 4.228.619 6.425.619l25.365-1.323c-14.623-4.108-25.365-17.529-25.365-33.479z" opacity=".5" fill="#FFCC6F"/><path d="M247.444 78.8l-20.238-1.397c15.893 4.495 27.555 19.09 27.555 36.442v7.35l3.366-.175s22.245-1.612 22.245 11.759v-21.01c0-18.206-14.744-32.969-32.928-32.969z" fill="#F93"/><path d="M113.904 93.453V38.504h-1.83c-18.183 0-32.927 14.763-32.927 32.97v21.979c0 19.214 15.567 34.802 34.757 34.802l25.365-1.323c-14.624-4.108-25.365-17.529-25.365-33.479z" fill="#FFD366"/><path d="M199.882 280.281c-10.407 0-20.562-1.817-30.179-5.4-11.405-4.317-21.955-11.083-30.535-19.576-16.293-16.152-25.264-37.521-25.264-60.177v-66.873a5.491 5.491 0 0 1 5.488-5.495 5.491 5.491 0 0 1 5.488 5.495v66.873c0 19.7 7.814 38.296 22.008 52.365 7.493 7.418 16.718 13.33 26.672 17.098 8.36 3.116 17.226 4.7 26.322 4.7 9.095 0 17.962-1.584 26.35-4.709 29.095-10.942 48.652-38.856 48.652-69.454V111.77a5.491 5.491 0 0 1 5.488-5.495 5.491 5.491 0 0 1 5.488 5.495v83.358c0 35.15-22.418 67.2-55.785 79.748-9.632 3.588-19.786 5.405-30.193 5.405z" fill="#234957"/><path d="M280.372 138.274a5.491 5.491 0 0 1-5.488-5.495c0-1.313-.373-2.22-1.25-3.035-3.263-3.043-11.59-3.491-15.112-3.244l-138.845 7.242c-.095.006-.19.008-.285.008-22.192 0-40.245-18.077-40.245-40.297a5.491 5.491 0 0 1 5.488-5.495 5.491 5.491 0 0 1 5.488 5.495c0 16.115 13.055 29.233 29.131 29.307l138.586-7.228c1.487-.104 15.668-.914 23.27 6.165 3.107 2.893 4.75 6.724 4.75 11.082a5.491 5.491 0 0 1-5.488 5.495zM280.372 117.265a5.491 5.491 0 0 1-5.488-5.495c0-15.15-12.31-27.475-27.44-27.475a5.491 5.491 0 0 1-5.488-5.495 5.491 5.491 0 0 1 5.488-5.495c21.184 0 38.416 17.256 38.416 38.465a5.491 5.491 0 0 1-5.488 5.495z" fill="#234957"/><path d="M84.635 98.948a5.491 5.491 0 0 1-5.488-5.495V73.305a5.491 5.491 0 0 1 5.488-5.495 5.491 5.491 0 0 1 5.488 5.495v20.148a5.491 5.491 0 0 1-5.488 5.495zM247.45 84.295c-.127 0-.255-.003-.383-.013l-106.1-7.326a5.492 5.492 0 0 1-5.097-5.86 5.497 5.497 0 0 1 5.852-5.104l106.1 7.326a5.492 5.492 0 0 1 5.097 5.86 5.491 5.491 0 0 1-5.47 5.117zM119.392 76.969a5.491 5.491 0 0 1-5.488-5.495c0-14.241 11.027-23.812 27.44-23.812a5.491 5.491 0 0 1 5.487 5.495 5.491 5.491 0 0 1-5.487 5.495c-3.862 0-16.464.925-16.464 12.822a5.491 5.491 0 0 1-5.488 5.495z" fill="#234957"/><path d="M141.344 76.969a5.491 5.491 0 0 1-5.488-5.495V53.157a5.491 5.491 0 0 1 5.488-5.495 5.491 5.491 0 0 1 5.487 5.495v18.317a5.491 5.491 0 0 1-5.487 5.495zM84.635 76.969a5.491 5.491 0 0 1-5.488-5.495c0-21.209 17.232-38.465 38.415-38.465a5.491 5.491 0 0 1 5.488 5.495A5.491 5.491 0 0 1 117.562 44c-15.13 0-27.44 12.325-27.44 27.475a5.491 5.491 0 0 1-5.487 5.495z" fill="#234957"/><path d="M119.392 76.969a5.491 5.491 0 0 1-5.488-5.495v-32.97a5.491 5.491 0 0 1 5.488-5.495 5.491 5.491 0 0 1 5.488 5.495v32.97a5.491 5.491 0 0 1-5.488 5.495zM259.046 85.89a5.497 5.497 0 0 1-5.329-6.828c.126-.505 3.23-12.446 15.58-17.188 2.825-1.09 6.002.33 7.089 3.163a5.497 5.497 0 0 1-3.16 7.098c-6.96 2.674-8.842 9.52-8.86 9.589a5.49 5.49 0 0 1-5.32 4.167zM270.795 92.65a5.496 5.496 0 0 1-4.084-1.832c-2.033-2.251-1.817-5.763.431-7.798.447-.404 4.572-3.972 11.748-4.79 3-.358 5.731 1.823 6.073 4.84a5.493 5.493 0 0 1-4.833 6.079c-3.65.418-5.63 2.028-5.713 2.1a5.376 5.376 0 0 1-3.622 1.4zM199.882 362.696a5.491 5.491 0 0 1-5.488-5.495v-31.129a5.491 5.491 0 0 1 5.488-5.495 5.491 5.491 0 0 1 5.488 5.495v31.129a5.491 5.491 0 0 1-5.488 5.495z" fill="#234957"/><path d="M295.006 142.899c16.166 0 29.27 13.12 29.27 29.306s-13.104 29.306-29.27 29.306" fill="#EA5F6E"/><path d="M295.006 207.006a5.491 5.491 0 0 1-5.488-5.495 5.491 5.491 0 0 1 5.488-5.495c13.113 0 23.782-10.682 23.782-23.811 0-13.13-10.669-23.811-23.782-23.811a5.491 5.491 0 0 1-5.488-5.495 5.491 5.491 0 0 1 5.488-5.495c19.166 0 34.758 15.61 34.758 34.8 0 19.191-15.592 34.802-34.758 34.802z" fill="#234957"/><path d="M287.69 135.572c4.024 0 7.316 3.297 7.316 7.327v58.612c0 4.03-3.292 7.327-7.317 7.327-4.024 0-7.317-3.297-7.317-7.327V142.9c0-4.03 3.293-7.327 7.317-7.327z" fill="#FFCC6F"/><path d="M287.69 214.333c-7.062 0-12.806-5.753-12.806-12.822V142.9c0-7.069 5.744-12.822 12.805-12.822s12.805 5.753 12.805 12.822v58.612c0 7.069-5.744 12.822-12.805 12.822zm0-73.266c-.992 0-1.83.839-1.83 1.832v58.612c0 .993.838 1.832 1.83 1.832.99 0 1.828-.839 1.828-1.832V142.9c0-.993-.837-1.832-1.829-1.832z" fill="#234957"/><g><path d="M104.757 142.899c-16.166 0-29.269 13.12-29.269 29.306s13.103 29.306 29.27 29.306" fill="#EA5F6E"/><path d="M104.757 207.006c-19.166 0-34.757-15.61-34.757-34.801 0-19.19 15.591-34.801 34.757-34.801a5.491 5.491 0 0 1 5.488 5.495 5.491 5.491 0 0 1-5.488 5.495c-13.112 0-23.781 10.682-23.781 23.81 0 13.13 10.669 23.812 23.781 23.812a5.491 5.491 0 0 1 5.488 5.495 5.491 5.491 0 0 1-5.488 5.495z" fill="#234957"/></g><g><path d="M112.074 135.572c-4.024 0-7.317 3.297-7.317 7.327v58.612c0 4.03 3.293 7.327 7.317 7.327 4.025 0 7.318-3.297 7.318-7.327V142.9c0-4.03-3.293-7.327-7.318-7.327z" fill="#FFCC6F"/><path d="M112.074 214.333c-7.06 0-12.805-5.753-12.805-12.822V142.9c0-7.069 5.744-12.822 12.805-12.822 7.062 0 12.806 5.753 12.806 12.822v58.612c0 7.069-5.744 12.822-12.806 12.822zm0-73.266c-.991 0-1.829.839-1.829 1.832v58.612c0 .993.838 1.832 1.83 1.832.99 0 1.829-.839 1.829-1.832V142.9c0-.993-.838-1.832-1.83-1.832z" fill="#234957"/></g></g></svg>