<?xml version="1.0" encoding="UTF-8" standalone="no"?><svg width="400" height="400" viewBox="0 0 400 400" xmlns="http://www.w3.org/2000/svg"><title>individual-1</title><g fill="none" fill-rule="evenodd"><g transform="translate(96.523 143.667)"><ellipse fill="#F4CEAE" cx="23.867" cy="23.833" rx="18.359" ry="18.333"/><path d="M23.867 47.667C10.707 47.667 0 36.975 0 23.833 0 10.692 10.707 0 23.867 0s23.867 10.692 23.867 23.833c0 13.142-10.707 23.834-23.867 23.834zm0-36.667c-7.087 0-12.851 5.759-12.851 12.833 0 7.075 5.764 12.834 12.851 12.834 7.087 0 12.852-5.759 12.852-12.834C36.719 16.76 30.954 11 23.867 11z" fill="#234957"/></g><g transform="translate(258.086 143.667)"><ellipse fill="#EEB490" cx="23.867" cy="23.833" rx="18.359" ry="18.333"/><path d="M23.867 47.667C10.707 47.667 0 36.975 0 23.833 0 10.692 10.707 0 23.867 0s23.867 10.692 23.867 23.833c0 13.142-10.707 23.834-23.867 23.834zm0-36.667c-7.087 0-12.851 5.759-12.851 12.833 0 7.075 5.764 12.834 12.851 12.834 7.087 0 12.852-5.759 12.852-12.834C36.719 16.76 30.954 11 23.867 11z" fill="#234957"/></g><path d="M200.953 305.975c15.562 0 28.287-12.707 28.287-28.246v-2.105c30.434 5.625 57.845 20.228 79.373 40.891-24.053 19.082-53.297 32.018-85.256 36.35-7.8 1.083-15.79 1.624-23.905 1.624-5.257 0-10.473-.23-15.624-.708-14.185-1.228-27.912-4.145-40.929-8.624-17.397-5.853-33.564-14.393-48.04-25.122-.981-.73-1.941-1.457-2.9-2.207 21.716-21.373 49.628-36.454 80.708-42.203v2.104c0 7.77 3.213 14.832 8.302 19.956 5.132 5.084 12.204 8.29 19.984 8.29z" fill="#EA5F6E"/><path d="M312.094 315.236c-7.93 5.087-22.325 14.725-33.563 20.513-15.626-19.234-31.231-35.332-54.426-47.894 1.371-4.054 2.15-8.371 2.15-12.869v-3.026c34.449 6.37 58.794 22.97 85.839 43.275z" fill="#D34A5E"/><path d="M88.245 316.67c7.93 5.087 20.069 12.587 31.305 18.375 18.576-17.976 40.22-32.78 64.057-43.522-1.371-4.053-2.15-8.37-2.15-12.868v-3.027c-34.445 6.37-66.167 20.735-93.212 41.041z" fill="#FF667C"/><path d="M229.24 275.626v2.105c0 15.54-12.725 28.246-28.287 28.246-7.78 0-14.852-3.208-19.984-8.29-5.089-5.124-8.302-12.186-8.302-19.956v-14.645l.147-.396c8.781 3.313 18.253.917 28.141.917 9.909 0 19.379 2.396 28.141-.917l.147.396v12.54h-.003z" fill="#EEB490"/><path d="M229.027 262.712c-1.66 13.989-13.636 24.93-28.074 24.93-7.78 0-14.852-3.208-19.984-8.29-4.353-4.384-7.316-10.19-8.085-16.64-.024-.009-.048-.014-.07-.023l-.147.396V277.729c0 7.77 3.213 14.832 8.302 19.956 5.132 5.082 12.204 8.29 19.984 8.29 15.562 0 28.287-12.706 28.287-28.246V263.085l-.147-.396a.954.954 0 0 1-.066.023z" fill="#F4CEAE"/><path d="M201.172 312.333c-8.809 0-17.131-3.624-23.436-10.2-6.209-6.59-9.611-15.199-9.611-24.275v-15.025c0-3.038 2.466-5.5 5.508-5.5a5.504 5.504 0 0 1 5.508 5.5v15.023c0 6.264 2.339 12.195 6.585 16.703 4.175 4.358 9.672 6.774 15.446 6.774 12.148 0 22.031-10.53 22.031-23.477v-15.023c0-3.037 2.466-5.5 5.508-5.5a5.504 5.504 0 0 1 5.508 5.5v15.023c0 19.01-14.825 34.477-33.047 34.477z" fill="#234957"/><path d="M199.452 359.99c-5.486 0-10.915-.247-16.136-.73-14.482-1.257-28.696-4.25-42.212-8.901-17.697-5.953-34.373-14.673-49.53-25.904a161.853 161.853 0 0 1-3.013-2.295 5.494 5.494 0 0 1-.94-7.722 5.512 5.512 0 0 1 7.731-.94 138.71 138.71 0 0 0 2.798 2.132c14.216 10.534 29.867 18.72 46.506 24.317 12.7 4.37 26.025 7.178 39.645 8.356 12.413 1.157 25.841.844 38.296-.883 30.156-4.087 58.708-16.262 82.588-35.208a5.516 5.516 0 0 1 7.739.884 5.496 5.496 0 0 1-.887 7.728c-25.432 20.177-55.842 33.14-87.942 37.493-7.999 1.111-16.297 1.674-24.643 1.674z" fill="#234957"/><path d="M308.613 322.015a5.497 5.497 0 0 1-3.817-1.534c-21.356-20.497-47.828-34.137-76.559-39.448a5.501 5.501 0 0 1-4.413-6.41c.554-2.986 3.431-4.955 6.418-4.407 30.855 5.704 59.275 20.343 82.19 42.334a5.496 5.496 0 0 1 .154 7.777 5.496 5.496 0 0 1-3.973 1.688zM91.96 323.328a5.495 5.495 0 0 1-3.924-1.641 5.493 5.493 0 0 1 .057-7.777c23.112-22.746 52.012-37.855 83.572-43.694a5.509 5.509 0 0 1 6.418 4.408 5.5 5.5 0 0 1-4.412 6.409c-29.387 5.436-56.306 19.514-77.845 40.71a5.492 5.492 0 0 1-3.867 1.585z" fill="#234957"/><path d="M281.09 121.056v70.374c0 34.126-21.682 63.45-51.992 74.934-8.766 3.295-18.242 5.084-28.14 5.084-9.897 0-19.372-1.79-28.139-5.084a81.271 81.271 0 0 1-28.47-18.404c-14.518-14.544-23.52-34.502-23.52-56.531v-61.564c4.46-1.17 21.387-6.105 29.823-6.105l130.438-2.704z" fill="#F4CEAE"/><path d="M122.838 121.667V145.2l129.97 8.804c0 34.126-21.683 77.34-51.992 88.827-8.767 3.294-18.242 5.084-28.14 5.084-9.9 0-19.373-1.79-28.14-5.084-2.527-.963-4.986-2.072-7.39-3.273 2.232 2.945 4.593 5.79 7.202 8.402a81.33 81.33 0 0 0 28.47 18.405c8.766 3.295 18.242 5.084 28.14 5.084 9.897 0 19.372-1.79 28.138-5.084 30.31-11.486 51.992-40.808 51.992-74.934v-70.376l-158.25.61z" fill="#EEB490"/><path d="M201.172 328.833c-12.63 0-24.974-2.207-36.691-6.561-13.882-5.227-26.722-13.428-37.156-23.724-19.865-19.671-30.802-45.694-30.802-73.283v-56.328c0-3.038 2.466-5.5 5.508-5.5a5.504 5.504 0 0 1 5.508 5.5v56.328c0 24.634 9.78 47.883 27.537 65.466 9.338 9.213 20.844 16.56 33.271 21.241 10.46 3.887 21.512 5.861 32.825 5.861 11.313 0 22.38-1.98 32.894-5.887 36.324-13.605 60.739-48.442 60.739-86.681v-57.367c0-3.038 2.465-5.5 5.507-5.5a5.504 5.504 0 0 1 5.508 5.5v57.367c0 42.799-27.285 81.774-67.898 96.985-11.761 4.37-24.123 6.583-36.75 6.583z" fill="#234957"/><path d="M200.891 240.833c-10.997 0-21.398-4.273-29.287-12.03a5.494 5.494 0 0 1-.059-7.779 5.514 5.514 0 0 1 7.788-.059c5.815 5.72 13.47 8.87 21.558 8.87 8.348 0 16.173-3.316 22.035-9.335a5.51 5.51 0 0 1 7.788-.108 5.496 5.496 0 0 1 .11 7.777c-7.955 8.167-18.585 12.664-29.933 12.664zM203.008 204.167h-3.672a5.504 5.504 0 0 1-5.508-5.5c0-3.038 2.466-5.5 5.508-5.5h3.672a5.504 5.504 0 0 1 5.508 5.5c0 3.037-2.466 5.5-5.508 5.5zM167.963 182.812c-5.636 0-10.22-4.578-10.22-10.206 0-5.629 4.586-10.206 10.22-10.206 5.635 0 10.221 4.577 10.221 10.206 0 5.628-4.586 10.206-10.22 10.206zm0-11a.777.777 0 0 0-.795.794c0 .453.342.794.795.794a.777.777 0 0 0 .795-.794.778.778 0 0 0-.795-.794zM233.953 182.812c-5.637 0-10.221-4.578-10.221-10.206 0-5.629 4.586-10.206 10.22-10.206 5.635 0 10.221 4.577 10.221 10.206 0 5.628-4.584 10.206-10.22 10.206zm0-11a.777.777 0 0 0-.795.794c0 .453.341.794.795.794a.777.777 0 0 0 .794-.794.777.777 0 0 0-.794-.794z" fill="#234957"/><path d="M225.107 152.256c5.45-.3 11.401.02 16.652.02 14.388 0 26.05 11.645 26.05 26.013 0 14.368-11.662 26.013-26.05 26.013-12.644 0-29.357-13.887-33.225-32.176a37.585 37.585 0 0 1-.84-7.845c.001-9.125 7.936-11.506 17.413-12.025z" fill="#4E676D"/><path fill="#608287" d="M229.936 205.542l-8.16-4.6 16.726-51.775 9.793-.459zM252.73 206l-11.676.442 16.725-51.775 8.9 8.25z"/><path d="M176.253 152.256c9.479.52 17.414 2.902 17.414 12.026 0 3.082-.38 6.083-1.102 8.965-4.309 17.729-20.6 31.057-32.964 31.057-14.388 0-26.05-11.645-26.05-26.013 0-14.368 11.662-26.013 26.05-26.013 5.25-.004 11.2-.323 16.652-.022z" fill="#4E676D"/><path fill="#608287" d="M156.803 206l-15.808-5.058 16.726-51.775h17.441z"/><path d="M160.537 209.667c-17.076 0-30.967-13.948-30.967-31.094 0-17.145 13.891-31.093 30.967-31.093 1.68 0 3.435-.035 5.221-.07 1.928-.038 3.89-.077 5.84-.077 2.077 0 3.882.044 5.518.136 14.744.812 22.22 6.64 22.22 17.321a42.1 42.1 0 0 1-1.24 10.146c-4.54 18.81-21.744 34.73-37.559 34.73zm11.062-51.334c-1.877 0-3.768.039-5.624.076-1.862.036-3.688.071-5.438.071-11 0-19.951 9.014-19.951 20.093 0 11.08 8.95 20.094 19.951 20.094 9.48 0 23.28-11.506 26.86-26.344.617-2.478.923-5 .923-7.533 0-2.264 0-5.689-11.814-6.34a89.564 89.564 0 0 0-4.907-.117zM241.807 209.667c-15.815 0-33.02-15.921-37.57-34.766a42.032 42.032 0 0 1-1.23-10.11c0-10.682 7.477-16.512 22.223-17.322a98.6 98.6 0 0 1 5.513-.136c1.95 0 3.913.039 5.84.077 1.789.037 3.542.07 5.222.07 17.074 0 30.967 13.948 30.967 31.093 0 17.146-13.89 31.094-30.965 31.094zm-11.062-51.334c-1.87 0-3.475.039-4.905.118-11.817.652-11.817 4.075-11.817 6.34 0 2.531.307 5.054.915 7.496 3.59 14.874 17.388 26.38 26.869 26.38 11 0 19.95-9.015 19.95-20.094s-8.95-20.093-19.95-20.093c-1.75 0-3.577-.037-5.438-.071-1.857-.037-3.748-.076-5.624-.076z" fill="#234957"/><path d="M234.219 158.333h-66.094a5.504 5.504 0 0 1-5.508-5.5c0-3.038 2.466-5.5 5.508-5.5h66.094a5.504 5.504 0 0 1 5.508 5.5c0 3.038-2.466 5.5-5.508 5.5zM208.516 176.667h-14.688a5.504 5.504 0 0 1-5.508-5.5c0-3.038 2.466-5.5 5.508-5.5h14.688a5.504 5.504 0 0 1 5.507 5.5c0 3.037-2.465 5.5-5.507 5.5z" fill="#234957"/><path d="M281.953 108.833v21.029c0-13.384-22.325-11.77-22.325-11.77l-139.237 7.241c-19.26 0-34.883-15.601-34.883-34.833v-22c0-18.223 14.797-33 33.047-33h1.836v33c0-12.155 9.859-18.333 22.03-18.333V68.5l106.485 7.333c18.25 0 33.047 14.777 33.047 33z" fill="#FBB735"/><path d="M155.273 90.5V66.667h-1.836c-6.025 0-11.658-3.863-16.523-1.049V63v27.5c0 15.965 10.78 29.396 25.457 33.51l-13.545.704a34.93 34.93 0 0 0 6.447.62l25.458-1.324c-14.677-4.114-25.458-17.545-25.458-33.51z" opacity=".5" fill="#FFCC6F"/><path d="M248.906 75.833l-20.31-1.399c15.95 4.5 27.654 19.11 27.654 36.476v7.358l3.378-.176s22.325-1.614 22.325 11.77v-21.029c0-18.223-14.798-33-33.047-33z" fill="#F93"/><path d="M114.883 90.5v-55h-1.836C94.797 35.5 80 50.277 80 68.5v22c0 19.232 15.624 34.833 34.883 34.833l25.457-1.323c-14.677-4.114-25.457-17.545-25.457-33.51z" fill="#FFD366"/><path d="M201.172 277.5c-10.445 0-20.636-1.819-30.288-5.405-11.447-4.32-22.035-11.093-30.645-19.594-16.353-16.167-25.356-37.556-25.356-60.233v-66.935c0-3.038 2.465-5.5 5.508-5.5a5.504 5.504 0 0 1 5.507 5.5v66.935c0 19.718 7.844 38.332 22.089 52.413 7.52 7.425 16.778 13.343 26.768 17.115 8.39 3.118 17.287 4.704 26.417 4.704 9.13 0 18.027-1.586 26.445-4.714 29.2-10.952 48.828-38.892 48.828-69.518v-83.435c0-3.037 2.466-5.5 5.508-5.5a5.504 5.504 0 0 1 5.508 5.5v83.435c0 35.182-22.5 67.262-55.987 79.822-9.666 3.591-19.857 5.41-30.302 5.41z" fill="#234957"/><path d="M281.953 135.362a5.504 5.504 0 0 1-5.508-5.5c0-1.315-.374-2.222-1.254-3.038-3.277-3.045-11.628-3.498-15.166-3.247l-139.348 7.249c-.095.006-.19.007-.286.007C98.119 130.833 80 112.74 80 90.5c0-3.038 2.466-5.5 5.508-5.5a5.504 5.504 0 0 1 5.508 5.5c0 16.13 13.103 29.26 29.237 29.333L259.34 112.6c1.49-.105 15.725-.917 23.355 6.171 3.117 2.895 4.766 6.73 4.766 11.092 0 3.038-2.466 5.5-5.508 5.5zM281.953 114.333a5.504 5.504 0 0 1-5.508-5.5c0-15.163-12.354-27.5-27.539-27.5a5.504 5.504 0 0 1-5.508-5.5c0-3.038 2.466-5.5 5.508-5.5 21.26 0 38.555 17.272 38.555 38.5 0 3.038-2.466 5.5-5.508 5.5z" fill="#234957"/><path d="M85.508 96A5.504 5.504 0 0 1 80 90.5V70.333c0-3.038 2.466-5.5 5.508-5.5a5.504 5.504 0 0 1 5.508 5.5V90.5c0 3.038-2.466 5.5-5.508 5.5zM248.912 81.333a5.4 5.4 0 0 1-.384-.013l-106.484-7.333a5.502 5.502 0 0 1-5.115-5.865 5.497 5.497 0 0 1 5.873-5.11l106.484 7.334a5.502 5.502 0 0 1 5.115 5.865 5.505 5.505 0 0 1-5.49 5.122zM120.39 74a5.504 5.504 0 0 1-5.507-5.5c0-14.254 11.067-23.833 27.539-23.833a5.504 5.504 0 0 1 5.508 5.5c0 3.037-2.466 5.5-5.508 5.5-3.876 0-16.524.925-16.524 12.833 0 3.038-2.465 5.5-5.507 5.5z" fill="#234957"/><path d="M142.422 74a5.504 5.504 0 0 1-5.508-5.5V50.167c0-3.038 2.466-5.5 5.508-5.5a5.504 5.504 0 0 1 5.508 5.5V68.5c0 3.038-2.466 5.5-5.508 5.5zM85.508 74A5.504 5.504 0 0 1 80 68.5C80 47.272 97.295 30 118.555 30a5.504 5.504 0 0 1 5.507 5.5c0 3.038-2.465 5.5-5.507 5.5-15.185 0-27.54 12.337-27.54 27.5 0 3.038-2.465 5.5-5.507 5.5z" fill="#234957"/><path d="M120.39 74a5.504 5.504 0 0 1-5.507-5.5v-33c0-3.038 2.465-5.5 5.508-5.5a5.504 5.504 0 0 1 5.507 5.5v33c0 3.038-2.465 5.5-5.507 5.5zM260.542 82.899c-.455 0-.916-.057-1.377-.176-2.922-.759-4.696-3.701-3.965-6.627.127-.507 3.242-12.458 15.635-17.206a5.51 5.51 0 0 1 7.114 3.164 5.497 5.497 0 0 1-3.169 7.106c-6.94 2.658-8.829 9.365-8.906 9.65a5.54 5.54 0 0 1-5.332 4.089zM272.342 89.697a5.524 5.524 0 0 1-4.1-1.832c-2.04-2.253-1.825-5.767.432-7.804.448-.407 4.588-3.98 11.794-4.796 3.014-.356 5.75 1.824 6.093 4.844a5.5 5.5 0 0 1-4.852 6.085c-3.663.416-5.647 2.029-5.73 2.099a5.402 5.402 0 0 1-3.637 1.404zM201.172 359.99a5.504 5.504 0 0 1-5.508-5.5v-31.157c0-3.038 2.466-5.5 5.508-5.5a5.504 5.504 0 0 1 5.508 5.5v31.158c0 3.038-2.466 5.5-5.508 5.5z" fill="#234957"/></g></svg>