<?xml version="1.0" encoding="UTF-8" standalone="no"?>
<svg width="400px" height="400px" viewBox="0 0 400 400" version="1.1" xmlns="http://www.w3.org/2000/svg" xmlns:xlink="http://www.w3.org/1999/xlink">
    <!-- Generator: Sketch 3.8.3 (29802) - http://www.bohemiancoding.com/sketch -->
    <title>individual-2</title>
    <desc>Created with Sketch.</desc>
    <defs></defs>
    <g id="Page-1" stroke="none" stroke-width="1" fill="none" fill-rule="evenodd">
        <g id="individual-2">
            <g transform="translate(70.000000, 33.000000)" id="Layer_3">
                <g>
                    <g id="Group">
                        <path d="M221.347805,126.383441 C218.316621,126.383441 215.859843,123.923543 215.859843,120.888509 C215.859843,73.4196209 177.290446,34.8012373 129.88177,34.8012373 C82.4730947,34.8012373 43.9036969,73.4196209 43.9036969,120.888509 C43.9036969,123.923543 41.4469192,126.383441 38.4157348,126.383441 C35.3845504,126.383441 32.9277727,123.923543 32.9277727,120.888509 C32.9277727,67.3587107 76.4217018,23.8113729 129.88177,23.8113729 C183.341838,23.8113729 226.835767,67.3587107 226.835767,120.888509 C226.835767,123.923543 224.37899,126.383441 221.347805,126.383441 L221.347805,126.383441 Z" id="Shape" fill="#234957"></path>
                        <g transform="translate(25.610490, 113.561932)">
                            <ellipse id="Oval" fill="#F4CEAE" cx="23.7811692" cy="23.8205311" rx="18.2932071" ry="18.3164407"></ellipse>
                            <path d="M23.7811692,47.631904 C10.6685984,47.631904 0,36.9497558 0,23.8205311 C0,10.6913064 10.6685984,0.00915822035 23.7811692,0.00915822035 C36.89374,0.00915822035 47.5623383,10.6913064 47.5623383,23.8205311 C47.5623383,36.9497558 36.89374,47.631904 23.7811692,47.631904 L23.7811692,47.631904 Z M23.7811692,10.9990226 C16.7199912,10.9990226 10.9759242,16.7522167 10.9759242,23.8205311 C10.9759242,30.8888456 16.7199912,36.6420396 23.7811692,36.6420396 C30.8423471,36.6420396 36.5864141,30.8888456 36.5864141,23.8205311 C36.5864141,16.7522167 30.8423471,10.9990226 23.7811692,10.9990226 L23.7811692,10.9990226 Z" id="Shape" fill="#234957"></path>
                        </g>
                        <g transform="translate(186.590712, 113.561932)">
                            <ellipse id="Oval" fill="#EEB490" cx="23.7811692" cy="23.8205311" rx="18.2932071" ry="18.3164407"></ellipse>
                            <path d="M23.7811692,47.631904 C10.6685984,47.631904 0,36.9497558 0,23.8205311 C0,10.6913064 10.6685984,0.00915822035 23.7811692,0.00915822035 C36.89374,0.00915822035 47.5623383,10.6913064 47.5623383,23.8205311 C47.5623383,36.9497558 36.89374,47.631904 23.7811692,47.631904 L23.7811692,47.631904 Z M23.7811692,10.9990226 C16.7199912,10.9990226 10.9759242,16.7522167 10.9759242,23.8205311 C10.9759242,30.8888456 16.7199912,36.6420396 23.7811692,36.6420396 C30.8423471,36.6420396 36.5864141,30.8888456 36.5864141,23.8205311 C36.5864141,16.7522167 30.8423471,10.9990226 23.7811692,10.9990226 L23.7811692,10.9990226 Z" id="Shape" fill="#234957"></path>
                        </g>
                        <path d="M129.664081,275.730203 C145.169403,275.730203 157.848425,263.035078 157.848425,247.510063 L157.848425,245.407336 C188.173074,251.02682 215.484833,265.615865 236.935447,286.260325 C212.969517,305.324077 183.830267,318.248157 151.987282,322.576332 C144.214498,323.660665 136.253294,324.201 128.167697,324.201 C122.930351,324.201 117.733251,323.972045 112.600177,323.493986 C98.4668456,322.266784 84.7890147,319.352639 71.8191309,314.877932 C54.4844879,309.029493 38.3754898,300.497694 23.951296,289.778913 C22.9744387,289.049919 22.017704,288.322756 21.0627986,287.573614 C42.7000039,266.220307 70.5111666,251.153203 101.479737,245.409167 L101.479737,247.511895 C101.479737,255.274402 104.681048,262.329895 109.751925,267.449341 C114.864876,272.526658 121.91142,275.730203 129.664081,275.730203 L129.664081,275.730203 Z" id="Shape" fill="#EA5F6E"></path>
                        <path d="M240.403839,284.981838 C232.503003,290.06465 218.159299,299.693603 206.962027,305.476103 C191.392679,286.260325 175.843453,270.176659 152.731815,257.626233 C154.098318,253.576468 154.87395,249.262947 154.87395,244.769924 L154.87395,241.745879 C189.199323,248.110842 213.456116,264.694548 240.403839,284.981838 L240.403839,284.981838 Z" id="Shape" fill="#D34A5E"></path>
                        <path d="M17.3620828,286.414183 C25.2629189,291.496996 37.3583874,298.990251 48.5538302,304.772752 C67.0628971,286.813482 88.6287589,272.022956 112.380659,261.291353 C111.014156,257.241588 110.238524,252.928066 110.238524,248.435043 L110.238524,245.410999 C75.9168093,251.774131 44.3098061,266.126894 17.3620828,286.414183 L17.3620828,286.414183 Z" id="Shape" fill="#FF667C"></path>
                        <path d="M157.848425,245.409167 L157.848425,247.511895 C157.848425,263.03691 145.169403,275.732035 129.664081,275.732035 C121.91142,275.732035 114.864876,272.526658 109.751925,267.449341 C104.681048,262.329895 101.479737,255.274402 101.479737,247.511895 L101.479737,245.409167 L101.479737,232.880722 L101.626082,232.485087 C110.375723,235.794868 119.813189,233.400909 129.66591,233.400909 C139.538754,233.400909 148.97439,235.794868 157.705738,232.485087 L157.852084,232.880722 L157.852084,245.409167 L157.848425,245.409167 Z" id="Shape" fill="#EEB490"></path>
                        <path d="M157.636224,232.507067 C155.982518,246.482511 144.049859,257.413763 129.664081,257.413763 C121.91142,257.413763 114.864876,254.208386 109.751925,249.131068 C105.414606,244.751607 102.462082,238.95079 101.695597,232.507067 C101.671815,232.497908 101.648034,232.492413 101.626082,232.483255 L101.479737,232.87889 L101.479737,245.407336 L101.479737,247.510063 C101.479737,255.272571 104.681048,262.328064 109.751925,267.447509 C114.864876,272.524826 121.91142,275.730203 129.664081,275.730203 C145.169403,275.730203 157.848425,263.035078 157.848425,247.510063 L157.848425,245.407336 L157.848425,232.87889 L157.702079,232.483255 C157.680128,232.492413 157.658176,232.49974 157.636224,232.507067 L157.636224,232.507067 Z" id="Shape" fill="#F4CEAE"></path>
                        <path d="M129.88177,282.082345 C121.104689,282.082345 112.812379,278.461185 106.530491,271.891077 C100.343729,265.308149 96.9539974,256.704916 96.9539974,247.636447 L96.9539974,232.627955 C96.9539974,229.592921 99.4107751,227.133023 102.44196,227.133023 C105.473144,227.133023 107.929922,229.592921 107.929922,232.627955 L107.929922,247.636447 C107.929922,253.895174 110.260476,259.820543 114.491695,264.324556 C118.65157,268.676542 124.128556,271.090649 129.88177,271.090649 C141.986385,271.090649 151.833619,260.569685 151.833619,247.634615 L151.833619,232.626123 C151.833619,229.591089 154.290396,227.131191 157.321581,227.131191 C160.352765,227.131191 162.809543,229.591089 162.809543,232.626123 L162.809543,247.634615 C162.809543,266.628764 148.037778,282.082345 129.88177,282.082345 L129.88177,282.082345 Z" id="Shape" fill="#234957"></path>
                        <path d="M128.167697,329.695933 C122.701686,329.695933 117.292385,329.448661 112.089797,328.965107 C97.6619445,327.712262 83.5011729,324.721187 70.0318846,320.074306 C52.397233,314.125126 35.781513,305.413827 20.6804706,294.193176 C19.6615389,293.434875 18.6718764,292.678406 17.6822139,291.905452 C15.2931211,290.035344 14.870548,286.584526 16.7364551,284.192399 C18.6005329,281.796609 22.0506318,281.373499 24.4397246,283.243607 C25.3617023,283.967107 26.2855092,284.668626 27.2276094,285.371978 C41.3975276,295.900268 56.9924866,304.076727 73.5697908,309.6724 C86.2250315,314.037207 99.5040705,316.841455 113.072142,318.019202 C125.440179,319.174969 138.819831,318.861758 151.229943,317.136349 C181.274706,313.053615 209.726131,300.889666 233.520105,281.963288 C235.894564,280.074863 239.346492,280.474162 241.230692,282.846141 C243.114892,285.223615 242.719759,288.679927 240.34713,290.56652 C215.00555,310.723763 184.704682,323.675319 152.722668,328.023642 C144.752318,329.131786 136.483789,329.695933 128.167697,329.695933 L128.167697,329.695933 Z" id="Shape" fill="#234957"></path>
                        <path d="M236.935447,291.757089 C235.567115,291.757089 234.196954,291.247892 233.132289,290.224003 C211.85546,269.744391 185.476656,256.116959 156.849616,250.810686 C153.869653,250.257529 151.899474,247.391006 152.451929,244.407258 C153.002554,241.42351 155.867271,239.454493 158.847234,240.003986 C189.592627,245.70223 217.910512,260.327908 240.740434,282.300311 C242.924643,284.403038 242.994157,287.883162 240.892268,290.070145 C239.814798,291.192943 238.376952,291.757089 236.935447,291.757089 L236.935447,291.757089 Z" id="Shape" fill="#234957"></path>
                        <path d="M21.0627986,293.068546 C19.6450751,293.068546 18.2291808,292.520885 17.1535403,291.429225 C15.0260403,289.267885 15.0516508,285.789593 17.2102492,283.659391 C40.2377382,260.934183 69.0312461,245.839604 100.480928,240.003986 C103.46272,239.452661 106.323778,241.421678 106.876233,244.405426 C107.428688,247.391006 105.460339,250.257529 102.480375,250.810686 C73.1966094,256.243342 46.3751092,270.308537 24.915348,291.486006 C23.8451954,292.542864 22.4530823,293.068546 21.0627986,293.068546 L21.0627986,293.068546 Z" id="Shape" fill="#234957"></path>
                        <path d="M209.5121,90.9814242 L209.5121,161.290914 C209.5121,195.385136 187.907823,224.682283 157.707567,236.155702 C148.972561,239.447166 139.531437,241.234851 129.669569,241.234851 C119.807701,241.234851 110.366577,239.447166 101.63157,236.155702 C90.922727,232.063809 81.2474498,225.762953 73.2642943,217.767827 C58.7980261,203.237394 49.8288667,183.298117 49.8288667,161.289082 L49.8288667,99.782474 C54.2722867,98.6138851 71.1386236,93.6830992 79.5443522,93.6830992 L209.5121,90.9814242 L209.5121,90.9814242 Z" id="Shape" fill="#F4CEAE"></path>
                        <path d="M51.8301436,91.5913617 L51.8301436,115.104177 L181.331415,123.899731 C181.331415,157.993954 159.727137,201.169468 129.526882,212.644718 C120.791876,215.936183 111.350751,217.723867 101.488883,217.723867 C91.6251862,217.723867 82.1858913,215.936183 73.450885,212.644718 C70.9319104,211.683105 68.4824499,210.574961 66.0860398,209.375234 C68.3104938,212.316854 70.6630002,215.159566 73.2624649,217.769658 C81.2474498,225.762953 90.922727,232.06564 101.629741,236.157533 C110.364747,239.448998 119.805872,241.236682 129.66774,241.236682 C139.529607,241.236682 148.970732,239.448998 157.705738,236.157533 C187.905994,224.682283 209.510271,195.386968 209.510271,161.292745 L209.510271,90.9814242 L51.8301436,91.5913617 L51.8301436,91.5913617 Z" id="Shape" fill="#EEB490"></path>
                        <path d="M129.88177,298.567142 C117.297873,298.567142 104.997521,296.361842 93.3227958,292.011688 C80.980369,287.351985 70.1983528,280.045557 58.3388666,268.310213 C39.3194192,249.425963 29.2691313,224.108979 29.2691313,195.093905 L29.2691313,138.818472 C29.2691313,135.783438 31.725909,133.32354 34.7570934,133.32354 C37.7882778,133.32354 40.2450555,135.783438 40.2450555,138.818472 L40.2450555,195.093905 C40.2450555,221.11424 49.1721406,243.731381 66.0604293,260.500083 C76.9101304,271.235349 86.2177142,277.583827 97.1735159,281.721511 C107.596985,285.604597 118.609496,287.577277 129.88177,287.577277 C141.154044,287.577277 152.181189,285.599102 162.657709,281.695868 C197.193455,268.725996 219.518485,234.728851 219.518485,195.093905 L219.518485,137.77993 C219.518485,134.744896 221.975262,132.284998 225.006447,132.284998 C228.037631,132.284998 230.494409,134.744896 230.494409,137.77993 L230.494409,195.093905 C230.494409,239.357415 205.376006,277.391505 166.499283,291.989708 C154.780654,296.356347 142.463838,298.567142 129.88177,298.567142 L129.88177,298.567142 Z" id="Shape" fill="#234957"></path>
                        <path d="M129.601884,210.648226 C118.642424,210.648226 108.277493,206.378664 100.418731,198.627146 C98.2601324,196.498776 98.2345219,193.018652 100.360193,190.857312 C102.489522,188.69414 105.961573,188.668497 108.122,190.800531 C113.91363,196.513429 121.541897,199.660193 129.601884,199.660193 C137.919805,199.660193 145.71637,196.346749 151.557391,190.333462 C153.670257,188.157469 157.144137,188.108014 159.31737,190.225395 C161.490603,192.340944 161.538165,195.819236 159.427129,197.995229 C151.500682,206.155203 140.908915,210.648226 129.601884,210.648226 L129.601884,210.648226 Z" id="Shape" fill="#234957"></path>
                        <path d="M131.711091,174.015345 L128.052449,174.015345 C125.021265,174.015345 122.564487,171.555447 122.564487,168.520413 C122.564487,165.485378 125.021265,163.02548 128.052449,163.02548 L131.711091,163.02548 C134.742275,163.02548 137.199053,165.485378 137.199053,168.520413 C137.199053,171.555447 134.742275,174.015345 131.711091,174.015345 L131.711091,174.015345 Z" id="Shape" fill="#234957"></path>
                        <path d="M96.7930172,152.678523 C91.1770026,152.678523 86.6091888,148.104908 86.6091888,142.481761 C86.6091888,136.858613 91.1788319,132.284998 96.7930172,132.284998 C102.407202,132.284998 106.976846,136.858613 106.976846,142.481761 C106.976846,148.104908 102.407202,152.678523 96.7930172,152.678523 L96.7930172,152.678523 Z M96.7930172,141.688659 C96.341175,141.688659 96.0009213,142.029344 96.0009213,142.481761 C96.0009213,142.934177 96.341175,143.274862 96.7930172,143.274862 C97.2448594,143.274862 97.585113,142.934177 97.585113,142.481761 C97.585113,142.029344 97.2430301,141.688659 96.7930172,141.688659 L96.7930172,141.688659 Z" id="Shape" fill="#234957"></path>
                        <path d="M162.544291,152.678523 C156.928277,152.678523 152.360463,148.104908 152.360463,142.481761 C152.360463,136.858613 156.930106,132.284998 162.544291,132.284998 C168.158477,132.284998 172.72812,136.858613 172.72812,142.481761 C172.72812,148.104908 168.160306,152.678523 162.544291,152.678523 L162.544291,152.678523 Z M162.544291,141.688659 C162.092449,141.688659 161.752195,142.029344 161.752195,142.481761 C161.752195,142.934177 162.092449,143.274862 162.544291,143.274862 C162.996134,143.274862 163.336387,142.934177 163.336387,142.481761 C163.336387,142.029344 162.996134,141.688659 162.544291,141.688659 L162.544291,141.688659 Z" id="Shape" fill="#234957"></path>
                        <path d="M153.730624,122.152343 C159.161877,121.851953 165.090706,122.172491 170.322563,122.172491 C184.658949,122.172491 196.278794,133.807094 196.278794,148.161689 C196.278794,162.516283 184.658949,174.150887 170.322563,174.150887 C157.724031,174.150887 141.071725,160.276183 137.217346,142.003701 C136.677697,139.465043 136.379517,136.845792 136.379517,134.166096 C136.381347,125.050004 144.287671,122.670698 153.730624,122.152343 L153.730624,122.152343 Z" id="Shape" fill="#4E676D"></path>
                        <polygon id="Shape" fill="#608287" points="158.541738 175.389078 150.412236 170.793483 167.077348 119.066023 176.834945 118.608112"></polygon>
                        <polygon id="Shape" fill="#608287" points="181.254583 175.846989 169.620104 176.288415 186.285215 124.560955 195.151933 132.803353"></polygon>
                        <path d="M105.0524,122.152343 C114.497183,122.67253 122.403507,125.051836 122.403507,134.167928 C122.403507,137.246922 122.024838,140.245323 121.305915,143.124668 C117.012499,160.836666 100.780936,174.152718 88.4604614,174.152718 C74.124075,174.152718 62.5042299,162.518115 62.5042299,148.16352 C62.5042299,133.808926 74.124075,122.174323 88.4604614,122.174323 C93.6923186,122.172491 99.621147,121.851953 105.0524,122.152343 L105.0524,122.152343 Z" id="Shape" fill="#4E676D"></path>
                        <polygon id="Shape" fill="#608287" points="85.6725766 175.846989 69.9221253 170.793483 86.587237 119.066023 103.965784 119.066023"></polygon>
                        <path d="M89.3934149,179.510277 C72.3807324,179.510277 58.5382626,165.575129 58.5382626,148.445594 C58.5382626,131.316058 72.378903,117.38091 89.3934149,117.38091 C91.0672434,117.38091 92.816074,117.346109 94.596003,117.311308 C96.5167897,117.272843 98.4723336,117.234379 100.415072,117.234379 C102.484034,117.234379 104.282256,117.278338 105.912181,117.36992 C120.603455,118.18317 128.052449,124.007798 128.052449,134.677125 C128.052449,138.096805 127.637194,141.507326 126.817658,144.811612 C122.295577,163.60428 105.151183,179.510277 89.3934149,179.510277 L89.3934149,179.510277 Z M100.415072,128.224243 C98.5455064,128.224243 96.6613061,128.262708 94.8118629,128.299341 C92.9569317,128.335973 91.1367576,128.370775 89.3934149,128.370775 C78.4321253,128.370775 69.5141868,137.376969 69.5141868,148.445594 C69.5141868,159.514219 78.4321253,168.520413 89.3934149,168.520413 C98.840027,168.520413 112.589201,157.025014 116.156377,142.201519 C116.771029,139.725136 117.076525,137.206626 117.076525,134.677125 C117.076525,132.415045 117.076525,128.993534 105.303017,128.341468 C103.877976,128.262708 102.27915,128.224243 100.415072,128.224243 L100.415072,128.224243 Z" id="Shape" fill="#234957"></path>
                        <path d="M170.370125,179.510277 C154.610527,179.510277 137.467963,163.60428 132.936736,144.776811 C132.126347,141.507326 131.711091,138.098636 131.711091,134.677125 C131.711091,124.007798 139.160085,118.18317 153.853189,117.36992 C155.483113,117.278338 157.281336,117.234379 159.348468,117.234379 C161.291207,117.234379 163.24675,117.272843 165.167537,117.311308 C166.949296,117.347941 168.696297,117.38091 170.370125,117.38091 C187.382808,117.38091 201.225278,131.316058 201.225278,148.445594 C201.225278,165.575129 187.384637,179.510277 170.370125,179.510277 L170.370125,179.510277 Z M159.348468,128.224243 C157.48439,128.224243 155.885564,128.262708 154.460523,128.341468 C142.687015,128.995365 142.687015,132.415045 142.687015,134.677125 C142.687015,137.206626 142.992512,139.725136 143.598017,142.164886 C147.176168,157.023183 160.923513,168.520413 170.370125,168.520413 C181.331415,168.520413 190.249353,159.514219 190.249353,148.445594 C190.249353,137.376969 181.331415,128.370775 170.370125,128.370775 C168.626783,128.370775 166.806609,128.334142 164.951677,128.299341 C163.102234,128.260876 161.218034,128.224243 159.348468,128.224243 L159.348468,128.224243 Z" id="Shape" fill="#234957"></path>
                        <path d="M162.809543,128.224243 L96.9539974,128.224243 C93.922813,128.224243 91.4660353,125.764345 91.4660353,122.729311 C91.4660353,119.694277 93.922813,117.234379 96.9539974,117.234379 L162.809543,117.234379 C165.840727,117.234379 168.297505,119.694277 168.297505,122.729311 C168.297505,125.764345 165.840727,128.224243 162.809543,128.224243 L162.809543,128.224243 Z" id="Shape" fill="#234957"></path>
                        <path d="M137.199053,146.540684 L122.564487,146.540684 C119.533303,146.540684 117.076525,144.080786 117.076525,141.045752 C117.076525,138.010717 119.533303,135.550819 122.564487,135.550819 L137.199053,135.550819 C140.230237,135.550819 142.687015,138.010717 142.687015,141.045752 C142.687015,144.080786 140.230237,146.540684 137.199053,146.540684 L137.199053,146.540684 Z" id="Shape" fill="#234957"></path>
                        <path d="M210.371881,78.7698532 L210.371881,99.7788107 C210.371881,86.407809 188.127341,88.0196558 188.127341,88.0196558 L49.3916591,95.2546499 C30.2020848,95.2546499 14.6345656,79.6673588 14.6345656,60.4534125 L14.6345656,40.3053278 L14.6345656,38.4736837 C14.6345656,20.2671416 29.3788905,5.50409043 47.5623383,5.50409043 L49.3916591,5.50409043 L49.3916591,38.4736837 C49.3916591,26.3298835 59.2151112,20.157243 71.3435075,20.157243 L71.3435075,38.4736837 L177.444108,45.80026 C195.627556,45.80026 210.371881,60.5633112 210.371881,78.7698532 L210.371881,78.7698532 Z" id="Shape" fill="#FBB735"></path>
                        <g opacity="0.5" transform="translate(65.855545, 32.969593)" id="Shape" fill="#FFCC6F">
                            <path d="M18.2932071,27.4838193 L18.2932071,7.3357345 L18.2932071,5.50409043 L18.2932071,3.67244636 L16.4638864,3.67244636 C10.4600558,3.67244636 4.84769987,-0.186827695 -1.0658141e-14,2.62474595 L-1.0658141e-14,0.00915822035 L-1.0658141e-14,1.84080229 L-1.0658141e-14,27.4838193 C-1.0658141e-14,43.4337758 10.7417712,56.8524003 25.3653609,60.9626096 L11.8686327,61.6659609 C13.9540583,62.0561011 16.0961929,62.2850566 18.2932071,62.2850566 L43.658568,60.9626096 C29.0349782,56.8542319 18.2932071,43.4337758 18.2932071,27.4838193 L18.2932071,27.4838193 Z"></path>
                        </g>
                        <path d="M177.444108,45.80026 L157.206333,44.4027155 C173.099472,48.8975701 184.761391,63.4939417 184.761391,80.845106 L184.761391,88.1954936 L188.127341,88.0196558 C188.127341,88.0196558 210.371881,86.407809 210.371881,99.7788107 L210.371881,78.7698532 C210.371881,60.5633112 195.627556,45.80026 177.444108,45.80026 L177.444108,45.80026 Z" id="Shape" fill="#FF9933"></path>
                        <path d="M43.9036969,60.4534125 L43.9036969,40.3053278 L43.9036969,38.4736837 L43.9036969,5.50409043 L42.0743762,5.50409043 C23.8909284,5.50409043 9.14660353,20.2671416 9.14660353,38.4736837 L9.14660353,40.3053278 L9.14660353,60.4534125 C9.14660353,79.6673588 24.7141227,95.2546499 43.9036969,95.2546499 L69.2690578,93.9322028 C54.6454681,89.8238252 43.9036969,76.4033691 43.9036969,60.4534125 L43.9036969,60.4534125 Z" id="Shape" fill="#FFD366"></path>
                        <path d="M129.88177,247.281108 C119.474765,247.281108 109.320205,245.464117 99.7034664,241.881421 C88.2976518,237.564236 77.7479593,230.798143 69.1684452,222.304809 C52.8746857,206.153372 43.9036969,184.78358 43.9036969,162.127975 L43.9036969,95.2546499 C43.9036969,92.2196156 46.3604746,89.7597177 49.3916591,89.7597177 C52.4228435,89.7597177 54.8796212,92.2196156 54.8796212,95.2546499 L54.8796212,162.127975 C54.8796212,181.827307 62.6944792,200.423989 76.8881786,214.492847 C84.3810762,221.911006 93.6063405,227.823553 103.559674,231.591245 C111.91967,234.706871 120.786388,236.291243 129.88177,236.291243 C138.977153,236.291243 147.84387,234.706871 156.231306,231.582086 C185.326651,220.639845 204.883919,192.725589 204.883919,162.127975 L204.883919,78.7698532 C204.883919,75.734819 207.340697,73.274921 210.371881,73.274921 C213.403066,73.274921 215.859843,75.734819 215.859843,78.7698532 L215.859843,162.127975 C215.859843,197.277225 193.441518,229.327332 160.074708,241.875926 C150.443335,245.464117 140.288776,247.281108 129.88177,247.281108 L129.88177,247.281108 Z" id="Shape" fill="#234957"></path>
                        <path d="M210.371881,105.273743 C207.340697,105.273743 204.883919,102.813845 204.883919,99.7788107 C204.883919,98.4655219 204.510738,97.5588581 203.634493,96.7437765 C200.370985,93.7014157 192.043917,93.2526629 188.522475,93.4999348 L49.6770331,100.742255 C49.5819084,100.74775 49.4867837,100.749582 49.3916591,100.749582 C27.2001696,100.749582 9.14660353,82.6730867 9.14660353,60.4534125 C9.14660353,57.4183783 11.6033812,54.9584803 14.6345656,54.9584803 C17.6657501,54.9584803 20.1225278,57.4183783 20.1225278,60.4534125 C20.1225278,76.5682171 33.1783896,89.6864519 49.25446,89.7597177 L187.840138,82.5320502 C189.327376,82.4276464 203.50827,81.6180598 211.110927,88.6973641 C214.217113,91.5895301 215.859843,95.4213295 215.859843,99.7788107 C215.859843,102.813845 213.403066,105.273743 210.371881,105.273743 L210.371881,105.273743 Z" id="Shape" fill="#234957"></path>
                        <path d="M210.371881,84.2647854 C207.340697,84.2647854 204.883919,81.8048875 204.883919,78.7698532 C204.883919,63.6203251 192.57442,51.2951922 177.444108,51.2951922 C174.412924,51.2951922 171.956146,48.8352942 171.956146,45.80026 C171.956146,42.7652257 174.412924,40.3053278 177.444108,40.3053278 C198.627642,40.3053278 215.859843,57.5612465 215.859843,78.7698532 C215.859843,81.8048875 213.403066,84.2647854 210.371881,84.2647854 L210.371881,84.2647854 Z" id="Shape" fill="#234957"></path>
                        <path d="M14.6345656,65.9483447 C11.6033812,65.9483447 9.14660353,63.4884468 9.14660353,60.4534125 L9.14660353,40.3053278 C9.14660353,37.2702935 11.6033812,34.8103956 14.6345656,34.8103956 C17.6657501,34.8103956 20.1225278,37.2702935 20.1225278,40.3053278 L20.1225278,60.4534125 C20.1225278,63.4884468 17.6657501,65.9483447 14.6345656,65.9483447 L14.6345656,65.9483447 Z" id="Shape" fill="#234957"></path>
                        <path d="M177.449596,51.2951922 C177.323373,51.2951922 177.195321,51.2915289 177.067268,51.2823707 L70.9666675,43.9557944 C67.9428003,43.746987 65.6616374,41.122241 65.87018,38.096365 C66.0787225,35.0686574 68.7037977,32.7882605 71.7221769,32.991573 L177.822778,40.3181493 C180.846645,40.5269567 183.127808,43.1517026 182.919265,46.1775786 C182.719869,49.0770712 180.308825,51.2951922 177.449596,51.2951922 L177.449596,51.2951922 Z" id="Shape" fill="#234957"></path>
                        <path d="M49.3916591,43.9686159 C46.3604746,43.9686159 43.9036969,41.5087179 43.9036969,38.4736837 C43.9036969,24.232651 54.9308421,14.6623108 71.3435075,14.6623108 C74.3746919,14.6623108 76.8314696,17.1222088 76.8314696,20.157243 C76.8314696,23.1922772 74.3746919,25.6521752 71.3435075,25.6521752 C67.4818115,25.6521752 54.8796212,26.5771555 54.8796212,38.4736837 C54.8796212,41.5087179 52.4228435,43.9686159 49.3916591,43.9686159 L49.3916591,43.9686159 Z" id="Shape" fill="#234957"></path>
                        <path d="M71.3435075,43.9686159 C68.3123231,43.9686159 65.8555454,41.5087179 65.8555454,38.4736837 L65.8555454,20.157243 C65.8555454,17.1222088 68.3123231,14.6623108 71.3435075,14.6623108 C74.3746919,14.6623108 76.8314696,17.1222088 76.8314696,20.157243 L76.8314696,38.4736837 C76.8314696,41.5087179 74.3746919,43.9686159 71.3435075,43.9686159 L71.3435075,43.9686159 Z" id="Shape" fill="#234957"></path>
                        <path d="M14.6345656,43.9686159 C11.6033812,43.9686159 9.14660353,41.5087179 9.14660353,38.4736837 C9.14660353,17.265077 26.3788046,0.00915822035 47.5623383,0.00915822035 C50.5935228,0.00915822035 53.0503005,2.46905621 53.0503005,5.50409043 C53.0503005,8.53912465 50.5935228,10.9990226 47.5623383,10.9990226 C32.4320268,10.9990226 20.1225278,23.3241556 20.1225278,38.4736837 C20.1225278,41.5087179 17.6657501,43.9686159 14.6345656,43.9686159 L14.6345656,43.9686159 Z" id="Shape" fill="#234957"></path>
                        <path d="M49.3916591,43.9686159 C46.3604746,43.9686159 43.9036969,41.5087179 43.9036969,38.4736837 L43.9036969,5.50409043 C43.9036969,2.46905621 46.3604746,0.00915822035 49.3916591,0.00915822035 C52.4228435,0.00915822035 54.8796212,2.46905621 54.8796212,5.50409043 L54.8796212,38.4736837 C54.8796212,41.5087179 52.4228435,43.9686159 49.3916591,43.9686159 L49.3916591,43.9686159 Z" id="Shape" fill="#234957"></path>
                        <path d="M189.04566,52.8905542 C188.604794,52.8905542 188.15844,52.8374365 187.712086,52.7257062 C184.772367,51.9912169 182.983292,49.0074687 183.716849,46.0621851 C183.843072,45.5566513 186.94743,33.6161636 199.297174,28.8740371 C202.121645,27.7842089 205.299175,29.2037331 206.385791,32.0372864 C207.470579,34.8708398 206.056514,38.0487423 203.226554,39.1349072 C196.265989,41.8091075 194.383618,48.6557931 194.365325,48.7235639 C193.743356,51.2219264 191.506097,52.8905542 189.04566,52.8905542 L189.04566,52.8905542 Z" id="Shape" fill="#234957"></path>
                        <path d="M200.795387,59.6493208 C199.297174,59.6493208 197.800789,59.0265618 196.710514,57.8176767 C194.678139,55.5665862 194.893999,52.0553245 197.142234,50.0203679 C197.588588,49.6155746 201.713706,46.0475319 208.890131,45.2306187 C211.890217,44.8716164 214.621393,47.0531045 214.963476,50.0698223 C215.305559,53.0847084 213.141473,55.8065315 210.130411,56.149049 C206.479087,56.5666638 204.499762,58.176679 204.417442,58.2481131 C203.378388,59.1877465 202.086888,59.6493208 200.795387,59.6493208 L200.795387,59.6493208 Z" id="Shape" fill="#234957"></path>
                        <path d="M129.88177,329.695933 C126.850586,329.695933 124.393808,327.236035 124.393808,324.201 L124.393808,293.072209 C124.393808,290.037175 126.850586,287.577277 129.88177,287.577277 C132.912955,287.577277 135.369732,290.037175 135.369732,293.072209 L135.369732,324.201 C135.369732,327.236035 132.912955,329.695933 129.88177,329.695933 L129.88177,329.695933 Z" id="Shape" fill="#234957"></path>
                        <g transform="translate(219.518485, 104.403712)" id="Shape">
                            <path d="M5.48796212,5.49493221 C21.6536692,5.49493221 34.7570934,18.6149987 34.7570934,34.8012373 C34.7570934,50.987476 21.6536692,64.1075425 5.48796212,64.1075425" fill="#EA5F6E"></path>
                            <path d="M5.48796212,69.6024747 C2.45677771,69.6024747 0,67.1425767 0,64.1075425 C0,61.0725082 2.45677771,58.6126102 5.48796212,58.6126102 C18.6005329,58.6126102 29.2691313,47.930462 29.2691313,34.8012373 C29.2691313,21.6720126 18.6005329,10.9898644 5.48796212,10.9898644 C2.45677771,10.9898644 0,8.52996643 0,5.49493221 C0,2.45989799 2.45677771,0 5.48796212,0 C24.6537551,0 40.2450555,15.6111024 40.2450555,34.8012373 C40.2450555,53.9913723 24.6537551,69.6024747 5.48796212,69.6024747 L5.48796212,69.6024747 Z" fill="#234957"></path>
                        </g>
                        <g transform="translate(204.883919, 97.077136)" id="Shape">
                            <path d="M12.8052449,5.49493221 L12.8052449,5.49493221 C16.8297505,5.49493221 20.1225278,8.79189154 20.1225278,12.8215085 L20.1225278,71.4341187 C20.1225278,75.4637357 16.8297505,78.760695 12.8052449,78.760695 L12.8052449,78.760695 C8.78073939,78.760695 5.48796212,75.4637357 5.48796212,71.4341187 L5.48796212,12.8215085 C5.48796212,8.79189154 8.78073939,5.49493221 12.8052449,5.49493221 L12.8052449,5.49493221 Z" fill="#FFCC6F"></path>
                            <path d="M12.8052449,84.2556272 C5.74406702,84.2556272 0,78.5024332 0,71.4341187 L0,12.8215085 C0,5.75319402 5.74406702,0 12.8052449,0 C19.8664229,0 25.6104899,5.75319402 25.6104899,12.8215085 L25.6104899,71.4341187 C25.6104899,78.5024332 19.8664229,84.2556272 12.8052449,84.2556272 L12.8052449,84.2556272 Z M12.8052449,10.9898644 C11.8137531,10.9898644 10.9759242,11.8287574 10.9759242,12.8215085 L10.9759242,71.4341187 C10.9759242,72.4268698 11.8137531,73.2657628 12.8052449,73.2657628 C13.7967368,73.2657628 14.6345656,72.4268698 14.6345656,71.4341187 L14.6345656,12.8215085 C14.6345656,11.8287574 13.7967368,10.9898644 12.8052449,10.9898644 L12.8052449,10.9898644 Z" fill="#234957"></path>
                        </g>
                        <g transform="translate(0.000000, 104.403712)" id="Shape">
                            <path d="M34.7570934,5.49493221 C18.5913863,5.49493221 5.48796212,18.6149987 5.48796212,34.8012373 C5.48796212,50.987476 18.5913863,64.1075425 34.7570934,64.1075425" fill="#EA5F6E"></path>
                            <path d="M34.7570934,69.6024747 C15.5913004,69.6024747 0,53.9913723 0,34.8012373 C0,15.6111024 15.5913004,0 34.7570934,0 C37.7882778,0 40.2450555,2.45989799 40.2450555,5.49493221 C40.2450555,8.52996643 37.7882778,10.9898644 34.7570934,10.9898644 C21.6445226,10.9898644 10.9759242,21.6720126 10.9759242,34.8012373 C10.9759242,47.930462 21.6445226,58.6126102 34.7570934,58.6126102 C37.7882778,58.6126102 40.2450555,61.0725082 40.2450555,64.1075425 C40.2450555,67.1425767 37.7882778,69.6024747 34.7570934,69.6024747 L34.7570934,69.6024747 Z" fill="#234957"></path>
                        </g>
                        <g transform="translate(29.269131, 97.077136)" id="Shape">
                            <path d="M12.8052449,5.49493221 L12.8052449,5.49493221 C8.78073939,5.49493221 5.48796212,8.79189154 5.48796212,12.8215085 L5.48796212,71.4341187 C5.48796212,75.4637357 8.78073939,78.760695 12.8052449,78.760695 L12.8052449,78.760695 C16.8297505,78.760695 20.1225278,75.4637357 20.1225278,71.4341187 L20.1225278,12.8215085 C20.1225278,8.79189154 16.8297505,5.49493221 12.8052449,5.49493221 L12.8052449,5.49493221 Z" fill="#FFCC6F"></path>
                            <path d="M12.8052449,84.2556272 C5.74406702,84.2556272 0,78.5024332 0,71.4341187 L0,12.8215085 C0,5.75319402 5.74406702,0 12.8052449,0 C19.8664229,0 25.6104899,5.75319402 25.6104899,12.8215085 L25.6104899,71.4341187 C25.6104899,78.5024332 19.8664229,84.2556272 12.8052449,84.2556272 L12.8052449,84.2556272 Z M12.8052449,10.9898644 C11.8137531,10.9898644 10.9759242,11.8287574 10.9759242,12.8215085 L10.9759242,71.4341187 C10.9759242,72.4268698 11.8137531,73.2657628 12.8052449,73.2657628 C13.7967368,73.2657628 14.6345656,72.4268698 14.6345656,71.4341187 L14.6345656,12.8215085 C14.6345656,11.8287574 13.7967368,10.9898644 12.8052449,10.9898644 L12.8052449,10.9898644 Z" fill="#234957"></path>
                        </g>
                    </g>
                </g>
            </g>
        </g>
    </g>
</svg>