<?xml version="1.0" encoding="UTF-8" standalone="no"?>
<svg width="400px" height="400px" viewBox="0 0 400 400" version="1.1" xmlns="http://www.w3.org/2000/svg" xmlns:xlink="http://www.w3.org/1999/xlink">
    <!-- Generator: Sketch 39.1 (31720) - http://www.bohemiancoding.com/sketch -->
    <title>invoice</title>
    <desc>Created with Sketch.</desc>
    <defs></defs>
    <g id="Page-1" stroke="none" stroke-width="1" fill="none" fill-rule="evenodd">
        <g id="invoice">
            <g id="Invoice" transform="translate(40.000000, 37.000000)">
                <g id="Layer_1">
                    <g id="Group">
                        <g transform="translate(85.192110, 0.000000)" id="Shape">
                            <polygon fill="#E6F0F4" points="215.699172 66.9881718 154.070837 66.9881718 154.070837 5.43147339"></polygon>
                            <polygon fill="#F6FAFC" points="215.699172 206.033891 215.699172 282.436616 5.43779425 282.436616 5.43779425 5.43147339 154.070837 5.43147339 154.070837 66.9881718 215.699172 66.9881718"></polygon>
                            <path d="M205.004843,289.678581 L4.71275501,289.678581 C1.81259808,289.678581 0,287.324942 0,284.247108 L0,5.43147339 C0,2.35363847 1.63133827,0 4.71275501,0 L154.433357,0 C155.883435,0 157.333514,0.543147339 158.239813,1.62944202 L219.505628,63.1861405 C220.593187,64.2724351 221.136966,65.5397789 221.136966,66.9881718 L221.136966,273.384161 C221.136966,282.436616 213.886574,289.678581 205.004843,289.678581 L205.004843,289.678581 Z M10.8755885,278.815634 L205.004843,278.815634 C207.905,278.815634 210.261378,276.461996 210.261378,273.384161 L210.261378,69.1607612 L152.258239,10.8629468 L10.8755885,10.8629468 L10.8755885,278.815634 L10.8755885,278.815634 Z" fill="#234957"></path>
                            <path d="M215.699172,72.4196452 L154.433357,72.4196452 C151.5332,72.4196452 148.633043,70.0660068 148.633043,66.9881718 L148.633043,5.43147339 C148.633043,2.35363847 151.17068,0 154.070837,0 C156.970994,0 159.508631,2.35363847 159.508631,5.43147339 L159.508631,61.5566984 L215.699172,61.5566984 C218.599329,61.5566984 221.136966,63.9103369 221.136966,66.9881718 C221.136966,70.0660068 218.780589,72.4196452 215.699172,72.4196452 L215.699172,72.4196452 Z" fill="#234957"></path>
                        </g>
                        <g transform="translate(0.000000, 28.967858)">
                            <path d="M236.36279,291.489072 L41.5084961,291.489072 C21.5699172,291.489072 5.43779425,275.194652 5.43779425,255.279249 L42.9585746,255.279249 L59.6344769,255.279249 L200.292088,255.279249 C200.292088,275.194652 216.605471,291.489072 236.36279,291.489072 L236.36279,291.489072 Z" id="Shape" fill="#D8E5EA"></path>
                            <polygon id="Shape" fill="#E6F0F4" points="272.070972 66.9881718 210.261378 66.9881718 210.261378 5.43147339"></polygon>
                            <path d="M271.889712,206.033891 L271.889712,255.279249 C271.889712,275.194652 256.301369,291.489072 236.18153,291.489072 C216.061691,291.489072 200.110828,275.194652 200.110828,255.279249 L59.4532171,255.279249 L43.3210942,255.279249 L43.3210942,5.43147339 L210.080118,5.43147339 L210.080118,66.9881718 L271.708453,66.9881718 L271.708453,206.033891 L271.889712,206.033891 Z" id="Shape" fill="#F6FAFC"></path>
                            <path d="M266.451918,233.553356 L266.451918,248.94253 C266.451918,261.434919 256.301369,271.57367 243.794442,271.57367 C231.287515,271.57367 221.136966,261.434919 221.136966,248.94253 L221.136966,233.553356 L43.502354,233.553356 L43.502354,255.279249 L59.6344769,255.279249 L200.292088,255.279249 C200.292088,275.194652 216.242951,291.489072 236.36279,291.489072 C256.301369,291.489072 272.070972,275.194652 272.070972,255.279249 L272.070972,233.553356 L266.451918,233.553356 L266.451918,233.553356 Z" id="Shape" fill="#E6F0F4"></path>
                            <path d="M236.36279,296.920545 C215.155392,296.920545 197.573191,280.626125 194.854294,260.710723 L11.2381081,260.710723 C13.7757454,275.194652 27.1889712,286.057599 41.6897559,286.057599 L41.6897559,296.920545 C18.1259808,296.920545 0,278.272487 0,255.279249 L0,249.847776 L204.823583,249.847776 L204.823583,255.279249 C204.823583,271.935768 219.324368,286.057599 236.18153,286.057599 C252.857432,286.057599 266.814438,271.57367 266.814438,255.279249 L277.690026,255.279249 C277.508766,278.815634 259.020266,296.920545 236.36279,296.920545 L236.36279,296.920545 Z" id="Shape" fill="#234957"></path>
                            <rect id="Rectangle-path" fill="#234957" x="41.6897559" y="286.057599" width="193.947995" height="10.8629468"></rect>
                            <path d="M271.889712,260.710723 C268.989555,260.710723 266.451918,258.357084 266.451918,255.279249 L266.451918,69.1607612 L208.448779,10.8629468 L48.9401482,10.8629468 L48.9401482,255.279249 C48.9401482,258.357084 46.4025109,260.710723 43.502354,260.710723 C40.602197,260.710723 38.0645597,258.357084 38.0645597,255.279249 L38.0645597,5.43147339 C38.0645597,2.35363847 39.8771578,0 42.9585746,0 L210.805157,0 C212.255235,0 213.705314,0.543147339 214.611613,1.62944202 L275.877428,63.1861405 C276.964987,64.2724351 277.327507,65.5397789 277.327507,66.9881718 L277.327507,255.279249 C277.327507,258.357084 274.789869,260.710723 271.889712,260.710723 L271.889712,260.710723 Z" id="Shape" fill="#234957"></path>
                            <path d="M216.605471,105.008486 L90.2673845,105.008486 C87.3672276,105.008486 84.8295903,102.654847 84.8295903,99.5770122 C84.8295903,96.4991773 87.1859678,94.1455388 90.2673845,94.1455388 L216.605471,94.1455388 C219.505628,94.1455388 222.043265,96.4991773 222.043265,99.5770122 C222.043265,102.654847 219.505628,105.008486 216.605471,105.008486 L216.605471,105.008486 Z" id="Shape" fill="#234957"></path>
                            <path d="M214.430353,141.218308 L90.2673845,141.218308 C87.3672276,141.218308 84.8295903,138.86467 84.8295903,135.786835 C84.8295903,132.709 87.1859678,130.355361 90.2673845,130.355361 L214.430353,130.355361 C217.33051,130.355361 219.868147,132.709 219.868147,135.786835 C219.686888,138.86467 217.33051,141.218308 214.430353,141.218308 L214.430353,141.218308 Z" id="Shape" fill="#234957"></path>
                            <path d="M172.921857,177.428131 L90.2673845,177.428131 C87.3672276,177.428131 84.8295903,175.074492 84.8295903,171.996657 C84.8295903,168.918823 87.1859678,166.565184 90.2673845,166.565184 L172.921857,166.565184 C175.822014,166.565184 178.359651,168.918823 178.359651,171.996657 C178.359651,175.074492 175.822014,177.428131 172.921857,177.428131 L172.921857,177.428131 Z" id="Shape" fill="#234957"></path>
                            <path d="M172.921857,213.637953 L90.2673845,213.637953 C87.3672276,213.637953 84.8295903,211.284315 84.8295903,208.20648 C84.8295903,205.128645 87.1859678,202.775007 90.2673845,202.775007 L172.921857,202.775007 C175.822014,202.775007 178.359651,205.128645 178.359651,208.20648 C178.359651,211.284315 175.822014,213.637953 172.921857,213.637953 L172.921857,213.637953 Z" id="Shape" fill="#234957"></path>
                            <path d="M272.070972,72.4196452 L210.805157,72.4196452 C207.905,72.4196452 204.823583,70.0660068 204.823583,66.9881718 L204.823583,5.43147339 C204.823583,2.35363847 207.361221,0 210.261378,0 C213.161534,0 215.699172,2.35363847 215.699172,5.43147339 L215.699172,61.5566984 L272.070972,61.5566984 C274.971129,61.5566984 277.508766,63.9103369 277.508766,66.9881718 C277.508766,70.0660068 275.152389,72.4196452 272.070972,72.4196452 L272.070972,72.4196452 Z" id="Shape" fill="#234957"></path>
                        </g>
                        <g transform="translate(166.759024, 114.060941)">
                            <g id="XMLID_304_" transform="translate(5.437794, 5.431473)" fill="#3EB38A">
                                <path d="M71.0538448,0 L69.2412467,0 C60.1782563,0.181049113 51.6590453,2.17258936 44.0461334,5.43147339 C18.6697602,16.1133711 0.725039233,41.2791978 0.725039233,70.6091541 C0.725039233,99.9391104 18.6697602,125.104937 44.0461334,135.786835 C51.8403052,139.045719 60.3595161,141.218308 69.2412467,141.218308 L71.0538448,141.218308 C109.843444,141.218308 141.38265,109.534713 141.38265,70.6091541 C141.38265,31.6835948 109.843444,0 71.0538448,0 L71.0538448,0 Z" id="Shape"></path>
                            </g>
                            <g id="XMLID_303_" transform="translate(17.294974, 16.294420)" fill="#2A9E71">
                                <path d="M97.9862637,0.905245565 C105.417916,12.1302906 109.768151,25.5279249 109.768151,39.8308049 C109.768151,78.7563642 78.2289446,110.439959 39.4393457,110.439959 L37.6267476,110.439959 C28.5637572,110.439959 20.0445462,108.26737 12.4316342,105.008486 C8.26265864,103.197994 4.27494286,101.206454 0.649746697,98.6717666 C8.44391845,110.25891 19.3195069,119.492415 32.1889533,124.923888 C39.9831251,128.182772 48.5023361,130.355361 57.3840667,130.355361 L59.1966648,130.355361 C97.9862637,130.355361 129.52547,98.6717666 129.52547,59.7462073 C129.52547,35.1235279 117.018544,13.5786835 97.9862637,0.905245565 L97.9862637,0.905245565 Z" id="Shape"></path>
                            </g>
                            <g id="XMLID_302_" fill="#234957">
                                <path d="M76.4916391,152.081255 L74.679041,152.081255 C65.4347908,152.081255 56.0092807,149.908666 47.30881,146.287683 C19.0322799,134.338442 0.725039233,106.818977 0.725039233,76.0406275 C0.725039233,45.2622783 19.0322799,17.7428131 47.30881,5.79357162 C56.0092807,2.17258936 65.4347908,0 74.4977812,0 L74.679041,0 L76.4916391,0 C118.362655,0 152.258239,34.0372333 152.258239,76.0406275 C152.258239,118.044022 118.181395,152.081255 76.4916391,152.081255 L76.4916391,152.081255 Z M74.679041,10.8629468 C66.8848692,11.0439959 58.9094377,12.6734379 51.4777855,15.932322 C27.1889712,26.0710723 11.4193679,49.7885061 11.4193679,76.0406275 C11.4193679,102.292749 27.1889712,126.010183 51.4777855,136.148933 C58.9094377,139.226768 66.8848692,141.218308 74.679041,141.218308 L76.3103793,141.218308 C112.199821,141.218308 141.201391,112.069401 141.201391,76.0406275 C141.201391,40.011854 112.018561,10.8629468 76.3103793,10.8629468 L74.679041,10.8629468 L74.679041,10.8629468 Z" id="Shape"></path>
                            </g>
                            <g id="XMLID_301_" transform="translate(43.502354, 68.798663)" fill="#234957">
                                <path d="M27.5514909,32.5888404 C26.1014124,32.5888404 24.8325937,32.045693 23.7450349,30.9593983 L2.1751177,9.23350477 C-1.50990331e-14,7.06091541 -1.50990331e-14,3.62098226 2.1751177,1.62944202 C4.3502354,-0.543147339 7.79417175,-0.543147339 9.78802964,1.62944202 L31.3579468,23.3553356 C33.5330645,25.5279249 33.5330645,28.9678581 31.3579468,30.9593983 C30.270388,32.045693 29.0015693,32.5888404 27.5514909,32.5888404 L27.5514909,32.5888404 Z" id="Shape"></path>
                            </g>
                            <g id="XMLID_300_" transform="translate(65.253531, 54.314734)" fill="#234957">
                                <path d="M5.80031386,47.0727694 C4.3502354,47.0727694 3.08141674,46.5296221 1.99385789,45.4433274 C-0.181259808,43.270738 -0.181259808,39.8308049 1.99385789,37.8392646 L38.0645597,1.62944202 C40.2396774,-0.543147339 43.6836138,-0.543147339 45.6774717,1.62944202 C47.8525894,3.80203137 47.8525894,7.24196452 45.6774717,9.23350477 L9.60676984,45.4433274 C8.51921099,46.5296221 7.25039233,47.0727694 5.80031386,47.0727694 L5.80031386,47.0727694 Z" id="Shape"></path>
                            </g>
                        </g>
                    </g>
                </g>
            </g>
        </g>
    </g>
</svg>