<?xml version="1.0" encoding="UTF-8" standalone="no"?><svg width="400" height="400" viewBox="0 0 400 400" xmlns="http://www.w3.org/2000/svg"><title>invoice</title><g fill="none" fill-rule="evenodd"><path fill="#E6F0F4" d="M340.891 103.988h-61.628V42.431z"/><path fill="#F6FAFC" d="M340.891 243.034v76.403H130.63V42.43h148.633v61.557h61.628z"/><path d="M330.197 326.679H129.905c-2.9 0-4.713-2.354-4.713-5.432V42.431c0-3.077 1.631-5.431 4.713-5.431h149.72c1.45 0 2.9.543 3.807 1.63l61.266 61.556c1.087 1.086 1.631 2.354 1.631 3.802v206.396c0 9.053-7.25 16.295-16.132 16.295zm-194.13-10.863h194.13c2.9 0 5.256-2.354 5.256-5.432V106.161L277.45 47.863H136.068v267.953z" fill="#234957"/><path d="M340.891 109.42h-61.266c-2.9 0-5.8-2.354-5.8-5.432V42.431c0-3.077 2.538-5.431 5.438-5.431s5.438 2.354 5.438 5.431v56.126h56.19c2.9 0 5.438 2.353 5.438 5.431s-2.356 5.432-5.438 5.432z" fill="#234957"/><g><path d="M276.363 357.457H81.508c-19.938 0-36.07-16.294-36.07-36.21H240.292c0 19.916 16.313 36.21 36.07 36.21z" fill="#D8E5EA"/><path fill="#E6F0F4" d="M312.071 132.956h-61.81V71.399z"/><path d="M311.89 272.002v49.245c0 19.916-15.589 36.21-35.708 36.21-20.12 0-36.071-16.294-36.071-36.21H83.32V71.4h166.76v61.557h61.627v139.046h.182z" fill="#F6FAFC"/><path d="M306.452 299.521v15.39c0 12.492-10.15 22.63-22.658 22.63-12.506 0-22.657-10.138-22.657-22.63v-15.39H83.502v21.726h156.79c0 19.916 15.951 36.21 36.07 36.21 19.94 0 35.709-16.294 35.709-36.21v-21.726h-5.62z" fill="#E6F0F4"/><path d="M276.363 362.888c-21.208 0-38.79-16.294-41.509-36.21H51.238c2.538 14.485 15.951 25.347 30.452 25.347v10.863c-23.564 0-41.69-18.648-41.69-41.64v-5.432h204.824v5.431c0 16.657 14.5 30.778 31.358 30.778 16.675 0 30.632-14.483 30.632-30.778h10.876c-.181 23.536-18.67 41.641-41.327 41.641z" fill="#234957"/><path fill="#234957" d="M81.69 352.026h193.948v10.863H81.69zM311.89 326.679c-2.9 0-5.438-2.354-5.438-5.432V135.13L248.449 76.83H88.94v244.416c0 3.078-2.537 5.432-5.438 5.432-2.9 0-5.437-2.354-5.437-5.432V71.4c0-3.078 1.812-5.431 4.894-5.431h167.846c1.45 0 2.9.543 3.807 1.63l61.265 61.556c1.088 1.086 1.45 2.354 1.45 3.802v188.291c0 3.078-2.537 5.432-5.437 5.432z"/><path d="M256.605 170.976H130.267c-2.9 0-5.437-2.353-5.437-5.431s2.356-5.432 5.437-5.432h126.338c2.9 0 5.438 2.354 5.438 5.432 0 3.078-2.537 5.431-5.438 5.431zM254.43 207.186H130.267c-2.9 0-5.437-2.353-5.437-5.431s2.356-5.432 5.437-5.432H254.43c2.9 0 5.438 2.354 5.438 5.432-.181 3.078-2.537 5.431-5.438 5.431zM212.922 243.396h-82.655c-2.9 0-5.437-2.354-5.437-5.431 0-3.078 2.356-5.432 5.437-5.432h82.655c2.9 0 5.438 2.354 5.438 5.432 0 3.077-2.538 5.431-5.438 5.431zM212.922 279.606h-82.655c-2.9 0-5.437-2.354-5.437-5.432 0-3.077 2.356-5.431 5.437-5.431h82.655c2.9 0 5.438 2.354 5.438 5.431 0 3.078-2.538 5.432-5.438 5.432zM312.071 138.388h-61.266c-2.9 0-5.981-2.354-5.981-5.432V71.399c0-3.078 2.537-5.431 5.437-5.431 2.9 0 5.438 2.353 5.438 5.431v56.126h56.372c2.9 0 5.438 2.353 5.438 5.431s-2.357 5.432-5.438 5.432z" fill="#234957"/></g><g><path d="M283.25 156.492h-1.812a67.4 67.4 0 0 0-25.195 5.432c-25.376 10.682-43.321 35.848-43.321 65.178s17.945 54.495 43.321 65.177c7.794 3.26 16.313 5.432 25.195 5.432h1.813c38.79 0 70.328-31.684 70.328-70.61 0-38.925-31.539-70.609-70.328-70.609z" fill="#3EB38A"/><path d="M322.04 168.26c7.432 11.226 11.782 24.623 11.782 38.926 0 38.926-31.54 70.61-70.329 70.61h-1.812c-9.063 0-17.582-2.173-25.195-5.432-4.17-1.81-8.157-3.802-11.782-6.337 7.794 11.587 18.67 20.82 31.539 26.252 7.794 3.26 16.313 5.432 25.195 5.432h1.813c38.79 0 70.328-31.684 70.328-70.61 0-24.622-12.506-46.167-31.539-58.84z" fill="#2A9E71"/><path d="M283.25 303.142h-1.812c-9.244 0-18.67-2.172-27.37-5.793-28.277-11.95-46.584-39.47-46.584-70.247 0-30.779 18.307-58.298 46.584-70.247 8.7-3.621 18.126-5.794 27.189-5.794h1.994c41.87 0 75.766 34.037 75.766 76.04 0 42.004-34.077 76.041-75.766 76.041zm-1.812-141.218c-7.794.18-15.77 1.81-23.201 5.07-24.289 10.138-40.059 33.855-40.059 60.108 0 26.252 15.77 49.97 40.059 60.108 7.431 3.078 15.407 5.07 23.201 5.07h1.631c35.89 0 64.891-29.15 64.891-65.178 0-36.03-29.182-65.178-64.89-65.178h-1.632z" fill="#234957"/><path d="M277.813 252.448c-1.45 0-2.719-.543-3.807-1.629l-21.57-21.726c-2.175-2.172-2.175-5.612 0-7.604 2.176-2.173 5.62-2.173 7.613 0l21.57 21.726c2.175 2.173 2.175 5.612 0 7.604-1.087 1.086-2.356 1.63-3.806 1.63z" fill="#234957"/><path d="M277.813 252.448c-1.45 0-2.719-.543-3.807-1.629-2.175-2.173-2.175-5.613 0-7.604l36.071-36.21c2.175-2.172 5.62-2.172 7.613 0 2.175 2.173 2.175 5.613 0 7.604l-36.07 36.21c-1.088 1.086-2.357 1.63-3.807 1.63z" fill="#234957"/></g></g></svg>