<svg xmlns="http://www.w3.org/2000/svg" width="400" height="400" viewBox="0 0 400 400">
  <g fill="none" fill-rule="evenodd" transform="translate(40 40)">
    <ellipse cx="160.191" cy="159.637" fill="#E25F68" stroke="#FFFFFF" stroke-width="3" rx="159.348" ry="159.637"/>
    <path fill="#FFFFFF" d="M136.144378,165.569976 L138.782986,165.569976 C143.340053,165.569976 147.176969,163.63694 150.774807,160.009946 L187.957324,121.340479 C191.555162,117.474407 195.631156,115.538455 200.430217,115.538455 C214.821568,115.538455 220.576942,133.425599 211.943881,142.125718 L173.805051,180.07212 L210.742658,218.741587 C217.221099,225.753581 217.702171,235.418761 211.22373,242.427839 C208.346043,245.570844 204.506211,247.261887 199.710066,247.261887 C194.671927,247.261887 190.595933,245.32885 187.476251,241.701857 L150.774807,201.82242 C147.418963,198.198341 143.579131,196.265305 139.261143,196.265305 L136.144378,196.265305 L136.144378,230.826707 C136.144378,240.252809 129.426859,247.50388 120.070731,247.50388 C111.43767,247.50388 104,239.768821 104,230.826707 L104,89.6800892 C104,80.2539874 111.195676,73 120.070731,73 C128.948702,73 136.144378,80.2539874 136.144378,89.6800892 L136.144378,165.569976"/>
  </g>
</svg>
