<?xml version="1.0" encoding="UTF-8" standalone="no"?><svg width="400" height="400" viewBox="0 0 400 400" xmlns="http://www.w3.org/2000/svg"><title>lysted</title><g transform="translate(40 40)" fill="none" fill-rule="evenodd"><ellipse stroke="#FFF" stroke-width="3" fill="#029dd8" cx="160.191" cy="159.637" rx="159.348" ry="159.637"/><path d="M94.763 118.673c-5.099 0-9.892 1.978-13.46 5.54l-1.938 1.978c-3.57 3.56-5.507 8.309-5.507 13.453 0 5.044 1.937 9.891 5.507 13.452l63.53 63.308c3.57 3.56 8.363 5.54 13.461 5.54 5.1 0 9.892-1.98 13.461-5.54l63.531-63.308c3.57-3.56 5.507-8.309 5.507-13.452 0-5.045-1.938-9.892-5.507-13.453l-1.937-1.979c-3.57-3.56-8.362-5.539-13.461-5.539s-9.892 1.978-13.461 5.54l-48.133 47.876-48.132-47.877c-3.57-3.66-8.362-5.539-13.461-5.539z" fill="#FFF"/></g></svg>