<?xml version="1.0" encoding="UTF-8" standalone="no"?>
<svg width="400px" height="400px" viewBox="0 0 400 400" version="1.1" xmlns="http://www.w3.org/2000/svg" xmlns:xlink="http://www.w3.org/1999/xlink">
    <!-- Generator: Sketch 3.8.3 (29802) - http://www.bohemiancoding.com/sketch -->
    <title>manage</title>
    <desc>Created with Sketch.</desc>
    <defs></defs>
    <g id="Page-1" stroke="none" stroke-width="1" fill="none" fill-rule="evenodd">
        <g id="manage">
            <g transform="translate(40.000000, 41.000000)" id="Layer_4">
                <g>
                    <g id="Group">
                        <g transform="translate(120.220994, 0.000000)" id="Shape">
                            <path d="M89.3348066,84.8618785 C93.1889503,79.5049724 99.4651934,76.0220994 106.572376,76.0220994 C112.883978,76.0220994 118.559116,78.7801105 122.430939,83.1469613 C125.772376,86.8773481 127.787845,91.8276243 127.787845,97.2375691 C127.787845,108.959116 118.293923,118.453039 106.572376,118.453039 C102.506077,118.453039 98.7226519,117.339227 95.5049724,115.323757 C89.4232044,111.628729 85.3569061,104.910497 85.3569061,97.2375691 C85.3569061,92.6055249 86.8243094,88.3447514 89.3348066,84.8618785 L89.3348066,84.8618785 Z" fill="#EA5F6E"></path>
                            <path d="M95.9646409,107.845304 C95.9646409,103.21326 97.4320442,98.9524862 99.9425414,95.4696133 C103.796685,90.1127072 110.072928,86.6298343 117.18011,86.6298343 C120.286409,86.6298343 123.237127,87.3034254 125.896133,88.5038674 C125.008619,86.5414365 123.84884,84.7292818 122.430939,83.1469613 C118.559116,78.7801105 112.883978,76.0220994 106.572376,76.0220994 C99.4651934,76.0220994 93.1889503,79.5049724 89.3348066,84.8618785 C86.8243094,88.3447514 85.3569061,92.6055249 85.3569061,97.2375691 C85.3569061,104.910497 89.4232044,111.628729 95.5049724,115.323757 C96.2651934,115.801105 97.0607735,116.221878 97.881105,116.594917 C96.6682873,113.925304 95.9646409,110.972818 95.9646409,107.845304 L95.9646409,107.845304 Z" fill="#FF667C"></path>
                            <path d="M48.2298343,61.878453 C48.2298343,65.6618785 47.239779,69.1977901 45.5071823,72.2740331 C41.8828729,78.7270718 34.9701657,83.0939227 27.0143646,83.0939227 C22.9480663,83.0939227 19.1646409,81.9801105 15.9469613,79.9646409 C14.5325967,79.0983425 13.2066298,78.0729282 12.039779,76.9060773 C8.18563536,73.0696133 5.79889503,67.7657459 5.79889503,61.878453 C5.79889503,50.1569061 15.2928177,40.6629834 27.0143646,40.6629834 C38.7359116,40.6629834 48.2298343,50.1569061 48.2298343,61.878453 L48.2298343,61.878453 Z" fill="#FBB735"></path>
                            <path d="M16.4066298,72.4861878 C16.4066298,60.7646409 25.9005525,51.2707182 37.6220994,51.2707182 C40.7337017,51.2707182 43.679116,51.9566851 46.3416575,53.158895 C43.0161326,45.7935912 35.6243094,40.6629834 27.0143646,40.6629834 C15.2928177,40.6629834 5.79889503,50.1569061 5.79889503,61.878453 C5.79889503,67.7657459 8.18563536,73.0696133 12.039779,76.9060773 C13.2066298,78.0729282 14.5325967,79.0983425 15.9469613,79.9646409 C16.7018785,80.4366851 17.4903867,80.8556906 18.3036464,81.2269613 C17.0961326,78.5626519 16.4066298,75.6119337 16.4066298,72.4861878 L16.4066298,72.4861878 Z" fill="#FFD366"></path>
                            <path d="M171.98674,5.3038674 C183.708287,5.3038674 193.20221,14.7977901 193.20221,26.519337 C193.20221,38.240884 183.708287,47.7348066 171.98674,47.7348066 C167.920442,47.7348066 164.137017,46.6209945 160.919337,44.6055249 C159.239779,43.5801105 157.719337,42.3248619 156.39337,40.8928177 C152.910497,37.1270718 150.771271,32.0707182 150.771271,26.519337 C150.771271,14.7977901 160.265193,5.3038674 171.98674,5.3038674 L171.98674,5.3038674 Z" fill="#FBB735"></path>
                            <path d="M161.379006,37.1270718 C161.379006,25.4055249 170.872928,15.9116022 182.594475,15.9116022 C185.706077,15.9116022 188.651492,16.5975691 191.314033,17.799779 C187.988508,10.4344751 180.596685,5.3038674 171.98674,5.3038674 C160.265193,5.3038674 150.771271,14.7977901 150.771271,26.519337 C150.771271,32.0707182 152.910497,37.1270718 156.39337,40.8928177 C157.719337,42.3248619 159.239779,43.5801105 160.919337,44.6055249 C161.67779,45.081105 162.469834,45.5018785 163.288398,45.8731492 C162.07558,43.2053039 161.379006,40.2492818 161.379006,37.1270718 L161.379006,37.1270718 Z" fill="#FFD366"></path>
                            <path d="M171.98674,53.038674 C167.015249,53.038674 162.217017,51.6755801 158.102983,49.0996685 C156.075138,47.8620994 154.17105,46.3009945 152.498564,44.4941436 C147.963757,39.5916022 145.465635,33.2075138 145.465635,26.519337 C145.465635,11.8965746 157.36221,-3.14052038e-15 171.984972,-3.14052038e-15 C186.607735,-3.14052038e-15 198.504309,11.8965746 198.504309,26.519337 C198.504309,41.1420994 186.611271,53.038674 171.98674,53.038674 L171.98674,53.038674 Z M171.98674,10.6077348 C163.212376,10.6077348 156.075138,17.7449724 156.075138,26.519337 C156.075138,30.5290608 157.570829,34.3549171 160.286409,37.2914917 C161.294144,38.3805525 162.438011,39.3175691 163.68442,40.079558 C166.15779,41.6282873 169.011271,42.4309392 171.98674,42.4309392 C180.761105,42.4309392 187.898343,35.2937017 187.898343,26.519337 C187.898343,17.7449724 180.761105,10.6077348 171.98674,10.6077348 L171.98674,10.6077348 Z" fill="#234957"></path>
                            <path d="M106.572376,123.756906 C101.600884,123.756906 96.8026519,122.393812 92.6886188,119.817901 C84.798232,115.024972 80.0530387,106.56884 80.0530387,97.2375691 C80.0530387,91.6313812 81.7750276,86.279779 85.0316022,81.760884 C90.0030939,74.8481768 98.0579006,70.718232 106.572376,70.718232 C114.151602,70.718232 121.379006,73.9659669 126.4,79.6287293 C130.710276,84.439337 133.091713,90.6996685 133.091713,97.2375691 C133.091713,111.860331 121.196906,123.756906 106.572376,123.756906 L106.572376,123.756906 Z M106.572376,81.3259669 C101.461215,81.3259669 96.6276243,83.8046409 93.641547,87.959337 C91.6897238,90.6643094 90.6607735,93.8713812 90.6607735,97.2375691 C90.6607735,102.833149 93.5001105,107.90011 98.2594475,110.792486 C100.743425,112.346519 103.596906,113.149171 106.572376,113.149171 C115.34674,113.149171 122.483978,106.011934 122.483978,97.2375691 C122.483978,93.3162431 121.060773,89.5681768 118.479558,86.6864088 C115.454586,83.2724862 111.121326,81.3259669 106.572376,81.3259669 L106.572376,81.3259669 Z" fill="#234957"></path>
                            <path d="M27.0143646,88.3977901 C22.0446409,88.3977901 17.2446409,87.0346961 13.1306077,84.4605525 C11.3661878,83.3785635 9.72198895,82.0897238 8.2881768,80.6559116 C3.26718232,75.6579006 0.495027624,68.9856354 0.495027624,61.878453 C0.495027624,47.2556906 12.3916022,35.359116 27.0143646,35.359116 C41.6371271,35.359116 53.5337017,47.2556906 53.5337017,61.878453 C53.5337017,66.4238674 52.3562431,70.918011 50.1286188,74.8764641 C45.4470718,83.2141436 36.5896133,88.3977901 27.0143646,88.3977901 L27.0143646,88.3977901 Z M27.0143646,45.9668508 C18.241768,45.9668508 11.1027624,53.1040884 11.1027624,61.878453 C11.1027624,66.1427624 12.7646409,70.1454144 15.7807735,73.1474033 C16.6346961,73.999558 17.6194475,74.7703867 18.719116,75.4439779 C21.1854144,76.9874033 24.038895,77.7900552 27.0143646,77.7900552 C32.758453,77.7900552 38.0729282,74.680221 40.8822099,69.6769061 C42.24,67.2671823 42.9259669,64.6435359 42.9259669,61.878453 C42.9259669,53.1040884 35.7887293,45.9668508 27.0143646,45.9668508 L27.0143646,45.9668508 Z" fill="#234957"></path>
                            <path d="M86.3504972,96.0848619 C85.5779006,96.0848619 84.7946961,95.9151381 84.0521547,95.558011 L43.7003315,76.1228729 C41.0607735,74.8499448 39.9522652,71.681768 41.2234254,69.0422099 C42.4963536,66.4026519 45.6645304,65.2941436 48.3040884,66.5653039 L88.6559116,86.000442 C91.2954696,87.2733702 92.4039779,90.441547 91.1328177,93.081105 C90.2170166,94.9781215 88.3235359,96.0848619 86.3504972,96.0848619 L86.3504972,96.0848619 Z" fill="#234957"></path>
                            <path d="M122.429171,88.4508287 C121.180994,88.4508287 119.929282,88.0141436 118.919779,87.1230939 C116.725746,85.1836464 116.517127,81.8316022 118.454807,79.6358011 L154.23116,39.1248619 C156.174144,36.9290608 159.520884,36.7222099 161.718453,38.6598895 C163.912486,40.599337 164.121105,43.9513812 162.183425,46.1471823 L126.407072,86.6581215 C125.356906,87.8461878 123.896575,88.4508287 122.429171,88.4508287 L122.429171,88.4508287 Z" fill="#234957"></path>
                        </g>
                        <g transform="translate(56.574586, 155.580110)">
                            <ellipse id="Oval" fill="#FBB735" cx="35.359116" cy="35.359116" rx="8.83977901" ry="8.83977901"></ellipse>
                            <path d="M199.779006,70.718232 L5.3038674,70.718232 C2.37436464,70.718232 0,68.3438674 0,65.4143646 L0,5.3038674 C0,2.37436464 2.37436464,0 5.3038674,0 L199.779006,0 C202.708508,0 205.082873,2.37436464 205.082873,5.3038674 L205.082873,65.4143646 C205.082873,68.3438674 202.708508,70.718232 199.779006,70.718232 L199.779006,70.718232 Z M10.6077348,60.1104972 L194.475138,60.1104972 L194.475138,10.6077348 L10.6077348,10.6077348 L10.6077348,60.1104972 L10.6077348,60.1104972 Z" id="Shape" fill="#9DB8BF"></path>
                            <path d="M35.359116,51.2707182 C26.5865193,51.2707182 19.4475138,44.1334807 19.4475138,35.359116 C19.4475138,26.5847514 26.5865193,19.4475138 35.359116,19.4475138 C44.1317127,19.4475138 51.2707182,26.5847514 51.2707182,35.359116 C51.2707182,44.1334807 44.1317127,51.2707182 35.359116,51.2707182 L35.359116,51.2707182 Z M35.359116,30.0552486 C32.4349171,30.0552486 30.0552486,32.4349171 30.0552486,35.359116 C30.0552486,38.2833149 32.4349171,40.6629834 35.359116,40.6629834 C38.2833149,40.6629834 40.6629834,38.2833149 40.6629834,35.359116 C40.6629834,32.4349171 38.2833149,30.0552486 35.359116,30.0552486 L35.359116,30.0552486 Z" id="Shape" fill="#234957"></path>
                            <path d="M180.331492,40.6629834 L65.4143646,40.6629834 C62.4848619,40.6629834 60.1104972,38.2886188 60.1104972,35.359116 C60.1104972,32.4296133 62.4848619,30.0552486 65.4143646,30.0552486 L180.331492,30.0552486 C183.260994,30.0552486 185.635359,32.4296133 185.635359,35.359116 C185.635359,38.2886188 183.260994,40.6629834 180.331492,40.6629834 L180.331492,40.6629834 Z" id="Shape" fill="#234957"></path>
                        </g>
                        <path d="M287.881547,107.845304 L287.881547,125.524862 L26.519337,125.524862 L26.519337,118.453039 C26.519337,112.618785 31.2928177,107.845304 37.1270718,107.845304 L287.881547,107.845304 L287.881547,107.845304 Z" id="Shape" fill="#D8E5EA"></path>
                        <path d="M312.928177,284.640884 L312.928177,302.320442 C312.928177,308.154696 308.154696,312.928177 302.320442,312.928177 L15.9116022,312.928177 C10.0773481,312.928177 5.3038674,308.154696 5.3038674,302.320442 L5.3038674,284.640884 L26.519337,284.640884 L102.541436,284.640884 C102.541436,290.475138 107.314917,295.248619 113.149171,295.248619 L205.082873,295.248619 C210.917127,295.248619 215.690608,290.475138 215.690608,284.640884 L291.712707,284.640884 L312.928177,284.640884 L312.928177,284.640884 Z" id="Shape" fill="#D8E5EA"></path>
                        <path d="M291.712707,284.640884 L277.569061,284.640884 L277.569061,302.320442 C277.569061,308.154696 272.79558,312.928177 266.961326,312.928177 L302.320442,312.928177 C308.154696,312.928177 312.928177,308.154696 312.928177,302.320442 L312.928177,284.640884 L291.712707,284.640884 L291.712707,284.640884 Z" id="Shape" fill="#C8D7DB"></path>
                        <path d="M40.6629834,302.320442 L40.6629834,284.640884 L26.519337,284.640884 L5.3038674,284.640884 L5.3038674,302.320442 C5.3038674,308.154696 10.0773481,312.928177 15.9116022,312.928177 L51.2707182,312.928177 C45.4364641,312.928177 40.6629834,308.154696 40.6629834,302.320442 L40.6629834,302.320442 Z" id="Shape" fill="#F6FAFC"></path>
                        <path d="M256.353591,289.944751 C253.424088,289.944751 251.049724,287.570387 251.049724,284.640884 L251.049724,247.513812 L67.1823204,247.513812 L67.1823204,284.640884 C67.1823204,287.570387 64.8079558,289.944751 61.878453,289.944751 C58.9489503,289.944751 56.5745856,287.570387 56.5745856,284.640884 L56.5745856,242.209945 C56.5745856,239.280442 58.9489503,236.906077 61.878453,236.906077 L256.353591,236.906077 C259.283094,236.906077 261.657459,239.280442 261.657459,242.209945 L261.657459,284.640884 C261.657459,287.570387 259.283094,289.944751 256.353591,289.944751 L256.353591,289.944751 Z" id="Shape" fill="#9DB8BF"></path>
                        <path d="M26.519337,289.944751 C23.5898343,289.944751 21.2154696,287.570387 21.2154696,284.640884 L21.2154696,118.453039 C21.2154696,109.678674 28.3544751,102.541436 37.1270718,102.541436 L206.850829,102.541436 C209.780331,102.541436 212.154696,104.915801 212.154696,107.845304 C212.154696,110.774807 209.780331,113.149171 206.850829,113.149171 L37.1270718,113.149171 C34.2028729,113.149171 31.8232044,115.52884 31.8232044,118.453039 L31.8232044,284.640884 C31.8232044,287.570387 29.4488398,289.944751 26.519337,289.944751 L26.519337,289.944751 Z" id="Shape" fill="#234957"></path>
                        <path d="M291.712707,289.944751 C288.783204,289.944751 286.40884,287.570387 286.40884,284.640884 L286.40884,118.453039 C286.40884,115.52884 284.029171,113.149171 281.104972,113.149171 L206.850829,113.149171 C203.921326,113.149171 201.546961,110.774807 201.546961,107.845304 C201.546961,104.915801 203.921326,102.541436 206.850829,102.541436 L281.104972,102.541436 C289.879337,102.541436 297.016575,109.678674 297.016575,118.453039 L297.016575,284.640884 C297.016575,287.570387 294.64221,289.944751 291.712707,289.944751 L291.712707,289.944751 Z" id="Shape" fill="#234957"></path>
                        <path d="M302.320442,318.232044 L15.9116022,318.232044 C7.13900552,318.232044 0,311.094807 0,302.320442 L0,284.640884 C0,281.711381 2.37436464,279.337017 5.3038674,279.337017 L312.928177,279.337017 C315.85768,279.337017 318.232044,281.711381 318.232044,284.640884 L318.232044,302.320442 C318.232044,311.094807 311.094807,318.232044 302.320442,318.232044 L302.320442,318.232044 Z M10.6077348,289.944751 L10.6077348,302.320442 C10.6077348,305.244641 12.9874033,307.624309 15.9116022,307.624309 L302.320442,307.624309 C305.244641,307.624309 307.624309,305.244641 307.624309,302.320442 L307.624309,289.944751 L10.6077348,289.944751 L10.6077348,289.944751 Z" id="Shape" fill="#234957"></path>
                        <path d="M205.082873,300.552486 L113.149171,300.552486 C104.376575,300.552486 97.2375691,293.415249 97.2375691,284.640884 C97.2375691,281.711381 99.6119337,279.337017 102.541436,279.337017 C105.470939,279.337017 107.845304,281.711381 107.845304,284.640884 C107.845304,287.565083 110.224972,289.944751 113.149171,289.944751 L205.082873,289.944751 C208.007072,289.944751 210.38674,287.565083 210.38674,284.640884 C210.38674,281.711381 212.761105,279.337017 215.690608,279.337017 C218.62011,279.337017 220.994475,281.711381 220.994475,284.640884 C220.994475,293.415249 213.857238,300.552486 205.082873,300.552486 L205.082873,300.552486 Z" id="Shape" fill="#234957"></path>
                        <path d="M291.712707,130.828729 L26.519337,130.828729 C23.5898343,130.828729 21.2154696,128.454365 21.2154696,125.524862 C21.2154696,122.595359 23.5898343,120.220994 26.519337,120.220994 L291.712707,120.220994 C294.64221,120.220994 297.016575,122.595359 297.016575,125.524862 C297.016575,128.454365 294.64221,130.828729 291.712707,130.828729 L291.712707,130.828729 Z" id="Shape" fill="#234957"></path>
                        <g id="XMLID_5_">
                            <g id="Group" transform="translate(5.303867, 22.983425)">
                                <path d="M109.20663,11.3856354 C128.618785,24.0088398 141.436464,45.8607735 141.436464,70.718232 C141.436464,109.772376 109.772376,141.436464 70.718232,141.436464 C31.6640884,141.436464 0,109.772376 0,70.718232 C0,31.6640884 31.6640884,0 70.718232,0 C84.9149171,0 98.1392265,4.19005525 109.20663,11.3856354 L109.20663,11.3856354 Z" id="Shape" fill="#F6FAFC"></path>
                                <path d="M109.576133,11.641989 C115.231823,21.8059669 118.453039,33.5080663 118.453039,45.9668508 C118.453039,85.0209945 86.7889503,116.685083 47.7348066,116.685083 C33.3878453,116.685083 20.0468508,112.399558 8.89812155,105.057238 C20.9767956,126.751823 44.1281768,141.436464 70.718232,141.436464 C109.772376,141.436464 141.436464,109.772376 141.436464,70.718232 C141.436464,46.0216575 128.776133,24.3023204 109.576133,11.641989 L109.576133,11.641989 Z" id="Shape" fill="#E6F0F4"></path>
                            </g>
                            <g id="Group" fill="#234957">
                                <path d="M76.0220994,169.723757 C34.1038674,169.723757 0,135.61989 0,93.7016575 C0,51.7834254 34.1038674,17.679558 76.0220994,17.679558 C90.7739227,17.679558 105.081989,21.9138122 117.401105,29.9244199 C139.093923,44.0274033 152.044199,67.8718232 152.044199,93.7016575 C152.044199,135.61989 117.940331,169.723757 76.0220994,169.723757 L76.0220994,169.723757 Z M76.0220994,28.2872928 C39.9522652,28.2872928 10.6077348,57.6318232 10.6077348,93.7016575 C10.6077348,129.771492 39.9522652,159.116022 76.0220994,159.116022 C112.091934,159.116022 141.436464,129.771492 141.436464,93.7016575 C141.436464,71.4749171 130.289503,50.9560221 111.61989,38.8154696 C101.026298,31.9292818 88.7160221,28.2872928 76.0220994,28.2872928 L76.0220994,28.2872928 Z" id="Shape"></path>
                                <path d="M76.0220994,28.2872928 C73.0925967,28.2872928 70.718232,25.9129282 70.718232,22.9834254 L70.718232,5.3038674 C70.718232,2.37436464 73.0925967,0 76.0220994,0 C78.9516022,0 81.3259669,2.37436464 81.3259669,5.3038674 L81.3259669,22.9834254 C81.3259669,25.9129282 78.9516022,28.2872928 76.0220994,28.2872928 L76.0220994,28.2872928 Z" id="Shape"></path>
                                <path d="M84.8618785,10.6077348 L67.1823204,10.6077348 C64.2528177,10.6077348 61.878453,8.23337017 61.878453,5.3038674 C61.878453,2.37436464 64.2528177,0 67.1823204,0 L84.8618785,0 C87.7913812,0 90.1657459,2.37436464 90.1657459,5.3038674 C90.1657459,8.23337017 87.7913812,10.6077348 84.8618785,10.6077348 L84.8618785,10.6077348 Z" id="Shape"></path>
                                <path d="M37.3074033,39.8143646 C35.7887293,39.8143646 34.278895,39.1655249 33.2304972,37.9067403 L25.0979006,28.1476243 C23.2220994,25.8970166 23.5261878,22.5520442 25.7767956,20.6762431 C28.0256354,18.8022099 31.3706077,19.1027624 33.2481768,21.3551381 L41.3807735,31.1142541 C43.2565746,33.3648619 42.9524862,36.7098343 40.7018785,38.5856354 C39.7082873,39.4095028 38.5043094,39.8143646 37.3074033,39.8143646 L37.3074033,39.8143646 Z" id="Shape"></path>
                                <path d="M114.384972,39.8143646 C113.136796,39.8143646 111.885083,39.3776796 110.877348,38.4866298 C108.681547,36.5471823 108.472928,33.1969061 110.410608,31.001105 L110.534365,30.8614365 L118.442431,21.358674 C120.318232,19.1098343 123.661436,18.8039779 125.912044,20.6762431 C128.162652,22.5520442 128.468508,25.8952486 126.594475,28.1476243 L118.362873,38.0216575 C117.314475,39.2079558 115.854144,39.8143646 114.384972,39.8143646 L114.384972,39.8143646 Z" id="Shape"></path>
                                <path d="M76.0220994,100.773481 C73.0925967,100.773481 70.718232,98.399116 70.718232,95.4696133 L70.718232,56.5745856 C70.718232,53.6450829 73.0925967,51.2707182 76.0220994,51.2707182 C78.9516022,51.2707182 81.3259669,53.6450829 81.3259669,56.5745856 L81.3259669,95.4696133 C81.3259669,98.399116 78.9516022,100.773481 76.0220994,100.773481 L76.0220994,100.773481 Z" id="Shape"></path>
                                <path d="M104.309392,100.773481 L76.0220994,100.773481 C73.0925967,100.773481 70.718232,98.399116 70.718232,95.4696133 C70.718232,92.5401105 73.0925967,90.1657459 76.0220994,90.1657459 L104.309392,90.1657459 C107.238895,90.1657459 109.61326,92.5401105 109.61326,95.4696133 C109.61326,98.399116 107.238895,100.773481 104.309392,100.773481 L104.309392,100.773481 Z" id="Shape"></path>
                            </g>
                        </g>
                    </g>
                </g>
            </g>
        </g>
    </g>
</svg>