<?xml version="1.0" encoding="UTF-8" standalone="no"?><svg width="400" height="400" viewBox="0 0 400 400" xmlns="http://www.w3.org/2000/svg"><title>manage-freelancers</title><g fill="none" fill-rule="evenodd"><path fill="#D3C589" d="M248.634 138.91l-.01.07h.01z"/><path d="M211.306 317.077a2.05 2.05 0 0 1-.263-.017l-4.11-.52a2.071 2.071 0 0 1-1.794-2.314 2.077 2.077 0 0 1 2.314-1.795l4.11.52a2.071 2.071 0 0 1-.257 4.126zm-14.385-1.82c-.087 0-.174-.006-.263-.017l-4.11-.521a2.07 2.07 0 1 1 .522-4.11l4.109.521a2.07 2.07 0 0 1-.258 4.126zm-14.383-1.822c-.086 0-.174-.005-.262-.017l-4.11-.52a2.071 2.071 0 0 1 .52-4.109l4.11.52a2.071 2.071 0 0 1-.258 4.126zm-14.384-1.82c-.086 0-.174-.005-.262-.016l-4.109-.52a2.071 2.071 0 0 1 .52-4.11l4.11.52a2.071 2.071 0 0 1-.259 4.126zm-14.383-1.82c-.087 0-.174-.006-.263-.017l-4.11-.52a2.07 2.07 0 1 1 .521-4.11l4.11.52a2.07 2.07 0 0 1-.258 4.127zm-14.384-1.822c-.086 0-.174-.005-.262-.017l-4.109-.52a2.071 2.071 0 0 1 .52-4.109l4.11.52a2.071 2.071 0 0 1-.259 4.126zM282.328 288.812a2.07 2.07 0 0 1-1.705-3.245l2.348-3.413a2.07 2.07 0 1 1 3.412 2.346l-2.347 3.413c-.401.586-1.048.9-1.708.9zm8.214-11.946a2.072 2.072 0 0 1-1.706-3.245l2.347-3.414a2.072 2.072 0 0 1 3.414 2.346l-2.346 3.414a2.068 2.068 0 0 1-1.709.899zm8.214-11.948a2.072 2.072 0 0 1-1.706-3.245l2.347-3.413a2.072 2.072 0 0 1 3.414 2.346l-2.347 3.413c-.4.585-1.049.899-1.708.899zM309.255 184.217c-.9 0-1.727-.59-1.99-1.497l-1.15-3.98a2.073 2.073 0 0 1 1.415-2.565 2.07 2.07 0 0 1 2.567 1.415l1.15 3.98a2.073 2.073 0 0 1-1.992 2.647zm-4.025-13.929c-.899 0-1.726-.59-1.99-1.496l-1.149-3.98a2.073 2.073 0 0 1 3.981-1.15l1.15 3.979a2.073 2.073 0 0 1-1.992 2.647zm-4.023-13.928c-.899 0-1.727-.59-1.99-1.497l-1.148-3.98a2.071 2.071 0 0 1 3.981-1.149l1.148 3.98a2.071 2.071 0 0 1-1.991 2.646zm-4.023-13.93c-.9 0-1.727-.589-1.99-1.496l-1.15-3.98a2.07 2.07 0 1 1 3.98-1.15l1.151 3.98a2.073 2.073 0 0 1-1.991 2.646zM140.452 100.333a2.071 2.071 0 0 1-.093-4.14l4.138-.188a2.072 2.072 0 0 1 .188 4.138l-4.138.188c-.032.002-.064.002-.095.002zm14.483-.658a2.071 2.071 0 0 1-.093-4.14l4.138-.19a2.071 2.071 0 1 1 .188 4.138l-4.138.19c-.032.002-.063.002-.095.002zm14.484-.658a2.071 2.071 0 0 1-.093-4.14l4.138-.189a2.071 2.071 0 1 1 .188 4.138l-4.138.189a2.989 2.989 0 0 1-.095.002zm14.483-.659a2.071 2.071 0 0 1-.094-4.14l4.139-.188a2.079 2.079 0 0 1 2.163 1.975 2.071 2.071 0 0 1-1.975 2.163l-4.138.188a2.862 2.862 0 0 1-.095.002zm14.484-.658a2.072 2.072 0 0 1-.094-4.14l4.139-.189a2.082 2.082 0 0 1 2.163 1.975 2.072 2.072 0 0 1-1.975 2.163l-4.138.189c-.032.002-.063.002-.095.002zm14.482-.659a2.071 2.071 0 0 1-.092-4.14l4.138-.189a2.071 2.071 0 1 1 .188 4.138l-4.137.19-.097.001zm14.483-.657a2.072 2.072 0 0 1-.092-4.14l4.138-.19a2.07 2.07 0 1 1 .189 4.139l-4.138.188a2.988 2.988 0 0 1-.097.003zM92.86 244.202c-.027 0-.055 0-.082-.002a2.07 2.07 0 0 1-1.99-2.15l.161-4.138c.045-1.144 1.03-2.063 2.15-1.99a2.07 2.07 0 0 1 1.99 2.15l-.16 4.138a2.07 2.07 0 0 1-2.069 1.992zm.562-14.487c-.027 0-.054 0-.081-.002a2.07 2.07 0 0 1-1.99-2.15l.16-4.14c.045-1.143 1.035-2.066 2.15-1.988a2.07 2.07 0 0 1 1.99 2.15l-.16 4.138a2.07 2.07 0 0 1-2.069 1.992zm.564-14.488c-.027 0-.055 0-.082-.002a2.07 2.07 0 0 1-1.99-2.15l.161-4.14a2.07 2.07 0 1 1 4.14.162l-.161 4.14a2.07 2.07 0 0 1-2.068 1.99zm.562-14.487l-.082-.001a2.072 2.072 0 0 1-1.99-2.15l.161-4.14c.045-1.143 1.002-2.015 2.15-1.989a2.072 2.072 0 0 1 1.99 2.15l-.16 4.14a2.072 2.072 0 0 1-2.069 1.99zm.562-14.488l-.081-.001a2.071 2.071 0 0 1-1.99-2.15l.16-4.14c.045-1.143 1.028-2.02 2.15-1.989a2.071 2.071 0 0 1 1.99 2.15l-.16 4.14a2.07 2.07 0 0 1-2.069 1.99zm.564-14.487l-.082-.001a2.071 2.071 0 0 1-1.99-2.15l.161-4.14c.045-1.142 1.032-2.025 2.15-1.989a2.071 2.071 0 0 1 1.99 2.15l-.161 4.14a2.072 2.072 0 0 1-2.068 1.99zm.562-14.488l-.082-.001a2.071 2.071 0 0 1-1.99-2.15l.161-4.14a2.078 2.078 0 0 1 2.15-1.989 2.071 2.071 0 0 1 1.99 2.15l-.16 4.14a2.07 2.07 0 0 1-2.069 1.99zm.562-14.487l-.081-.001a2.071 2.071 0 0 1-1.99-2.15l.16-4.14a2.079 2.079 0 0 1 2.15-1.989 2.071 2.071 0 0 1 1.99 2.15l-.16 4.14a2.07 2.07 0 0 1-2.069 1.99z" fill="#234957"/><path d="M108.559 265.99v9.56c0 5.775-3.664 10.738-8.787 12.681-1.482.557-3.083.86-4.756.86-1.672 0-3.274-.301-4.755-.86a13.73 13.73 0 0 1-4.812-3.115c-2.453-2.461-3.974-5.838-3.974-9.567v-10.42a9.6 9.6 0 0 0 3.983.86h23.1z" fill="#F4CEAE"/><path d="M82.619 265.99v3.983l21.16 1.593c0 5.776-3.664 10.739-8.787 12.682-1.482.558-3.083.861-4.755.861-1.673 0-3.275-.302-4.756-.86-.427-.163-.843-.35-1.249-.555.377.498.777.98 1.217 1.422a13.744 13.744 0 0 0 4.812 3.115c1.482.557 3.083.86 4.755.86 1.673 0 3.275-.301 4.756-.86 5.122-1.943 8.787-6.906 8.787-12.682v-9.56h-25.94z" fill="#EEB490"/><path d="M56.779 278.735a5.573 5.573 0 0 1 5.576 5.577 5.573 5.573 0 0 1-5.576 5.576 5.573 5.573 0 0 1-5.577-5.576 5.574 5.574 0 0 1 5.577-5.577z" fill="#4AF2FF"/><path d="M120.81 278.034a35.648 35.648 0 0 1 3.681 15.836 35.787 35.787 0 0 1-4.023 16.522c-2.55-9.79-10.634-17.406-20.673-19.27v-2.828l-.023-.064c5.122-1.944 8.787-6.906 8.787-12.682v-11.487a36.423 36.423 0 0 1 5.887 4.932 35.703 35.703 0 0 1 6.365 9.04z" fill="#FBB735"/><path d="M71.119 276.346v17.525c0 .876-.717 1.593-1.593 1.593H44.034a1.597 1.597 0 0 1-1.593-1.593v-17.525c0-.876.717-1.593 1.593-1.593h4.779l3.186-4.78h9.56l.16.232 3.027 4.548h4.779a1.597 1.597 0 0 1 1.594 1.593z" fill="#386A75"/><path d="M69.525 274.752h-4.78l-3.026-4.548-.16-.231H52l-1.062 1.592h5.045l.16.231 3.027 7.735 2.39 1.593c.876 0 1.593.717 1.593 1.593v12.746h6.373c.876 0 1.593-.717 1.593-1.593v-17.525a1.597 1.597 0 0 0-1.593-1.593z" fill="#2C5B63"/><path d="M120.468 310.392c-5.974 11.48-17.987 19.326-31.824 19.326-3.832 0-7.52-.597-10.977-1.712l.024-.08v-8.5c-4.58-.247-6.907-.956-8.022-1.474-.717-.326-.94-.582-.94-.582v-.399c0-12.826 9.312-23.588 21.508-25.85v.358c0 1.314.542 2.51 1.402 3.378a4.795 4.795 0 0 0 3.378 1.402c2.629 0 4.78-2.15 4.78-4.779v-.358c10.037 1.865 18.122 9.48 20.671 19.27z" fill="#BE5ADB"/><path d="M77.667 328.006c2.55.822 5.224 1.36 7.99 1.587v-14.948c-4.581-.246-6.907-.956-8.022-1.473-.717-.327-.94-.582-.94-.582v-.4c0-7.885 3.524-14.987 9.071-19.817-9.93 3.763-17.037 13.392-17.037 24.597v.399s.222.255.94.582c1.115.518 3.441 1.227 8.022 1.474v8.5l-.024.08z" fill="#CA70E7"/><path d="M99.797 291.123v.358c0 .805-.203 1.563-.559 2.23 6.476 3.417 11.383 9.453 13.264 16.681-5.392 10.361-15.705 17.76-27.838 19.104 1.307.144 2.634.221 3.98.221 13.837 0 25.85-7.846 31.824-19.326-2.549-9.788-10.634-17.404-20.671-19.268z" fill="#AD4BD0"/><path d="M110.152 258.023l-1.592.66v7.306H85.458a9.6 9.6 0 0 1-3.983-.86v-.01a9.547 9.547 0 0 1-4.852-5.034 9.445 9.445 0 0 1-.725-3.657 9.557 9.557 0 0 1 9.56-9.56l.796 4.78 19.12 1.593a4.788 4.788 0 0 1 4.778 4.782z" fill="#FBB735"/><path d="M105.373 253.244l-2.823-.235c1.662.976 2.823 3.075 2.823 5.015l-1.593.66v7.306h4.78V258.685l1.592-.661a4.783 4.783 0 0 0-4.779-4.78z" fill="#F93"/><path d="M89.44 265.12a9.547 9.547 0 0 1-4.851-5.034 9.445 9.445 0 0 1-.725-3.657c0-2.306.816-4.42 2.175-6.072l-.581-3.486a9.557 9.557 0 0 0-9.56 9.56c0 1.298.255 2.532.725 3.656a9.547 9.547 0 0 0 4.852 5.035v.008a9.6 9.6 0 0 0 3.983.86h7.965a9.6 9.6 0 0 1-3.982-.86v-.01z" fill="#FFD366"/><path d="M99.428 290.788v.359c0 2.628-2.151 4.779-4.78 4.779a4.798 4.798 0 0 1-3.378-1.402 4.795 4.795 0 0 1-1.402-3.378v-3.187l.024-.064c1.482.557 3.083.86 4.756.86 1.672 0 3.274-.302 4.755-.86l.024.064v2.83z" fill="#E2D9A8"/><path d="M90.26 288.23l-.023.064v2.829c-12.196 2.263-21.508 13.024-21.508 25.85v.399s.222.255.94.582v6.309l-.008.015c-9.703-6.062-16.299-16.657-16.833-28.813h16.697c.876 0 1.593-.717 1.593-1.593v-17.525c0-.876-.717-1.593-1.593-1.593h-4.78l-3.026-4.548a35.832 35.832 0 0 1 14.904-10.117 9.547 9.547 0 0 0 4.852 5.035V275.552c0 3.729 1.521 7.107 3.974 9.567a13.777 13.777 0 0 0 4.812 3.111z" fill="#FBB735"/><path d="M77.69 319.427v8.5l-.023.08a35.266 35.266 0 0 1-8.006-3.729l.008-.015v-6.309c1.115.516 3.441 1.225 8.022 1.473z" fill="#E2D9A8"/><path d="M62.355 284.312a5.573 5.573 0 0 0-5.576-5.577 5.573 5.573 0 0 0-5.577 5.577 5.573 5.573 0 0 0 5.577 5.576 5.573 5.573 0 0 0 5.576-5.576z" fill="#FBB735"/><path d="M123.731 270.265a2.073 2.073 0 0 1-1.462-3.539l16.204-16.145a2.074 2.074 0 0 1 2.93.005c.806.811.804 2.122-.005 2.93l-16.204 16.145a2.064 2.064 0 0 1-1.463.604zM94.648 290.764a15.45 15.45 0 0 1-5.464-.989 15.86 15.86 0 0 1-5.525-3.574c-2.944-2.954-4.564-6.856-4.564-10.99v-10.373a2.072 2.072 0 0 1 4.142 0v10.374c0 3.03 1.191 5.892 3.354 8.062a11.66 11.66 0 0 0 4.061 2.627 11.5 11.5 0 0 0 8.002-.003c4.427-1.68 7.406-5.975 7.406-10.686v-16.79a2.072 2.072 0 0 1 4.142 0v16.79c0 6.422-4.052 12.274-10.083 14.562a15.52 15.52 0 0 1-5.471.99z" fill="#234957"/><path d="M94.97 284.789c-2.111 0-4.121-.708-5.662-1.995a2.07 2.07 0 1 1 2.655-3.179c.798.666 1.864 1.032 3.007 1.032 1.16 0 2.279-.395 3.067-1.083a2.07 2.07 0 1 1 2.723 3.12c-1.556 1.358-3.612 2.105-5.79 2.105zM95.016 278.417h-.796a2.072 2.072 0 0 1 0-4.142h.796a2.072 2.072 0 0 1 0 4.142zM89.44 275.23a2.87 2.87 0 0 1-2.867-2.868 2.87 2.87 0 0 1 2.868-2.869 2.872 2.872 0 0 1 2.868 2.869 2.872 2.872 0 0 1-2.868 2.868zM100.593 275.23a2.872 2.872 0 0 1-2.869-2.868 2.871 2.871 0 0 1 2.869-2.869 2.87 2.87 0 0 1 2.867 2.869 2.87 2.87 0 0 1-2.867 2.868zM84.128 267.667c-1.119 0-2.212-.064-3.509-.652a1.988 1.988 0 0 1-.175-.09 11.536 11.536 0 0 1-5.737-6.052 11.477 11.477 0 0 1-.88-4.444c0-6.412 5.217-11.63 11.63-11.63a2.072 2.072 0 0 1 0 4.143c-4.13 0-7.488 3.358-7.488 7.487 0 1.002.19 1.963.565 2.858a7.523 7.523 0 0 0 3.8 3.95c.042.018.082.037.121.06.563.228 1.052.23 2.106.226l.528-.003a2.072 2.072 0 0 1 0 4.142l-.496.003-.465.002z" fill="#234957"/><path d="M105.375 255.315c-.058 0-.116-.002-.174-.007l-19.118-1.594a2.071 2.071 0 0 1-1.892-2.236 2.082 2.082 0 0 1 2.236-1.892l19.118 1.594a2.071 2.071 0 0 1-.17 4.135z" fill="#234957"/><path d="M86.252 253.721a2.07 2.07 0 0 1-2.04-1.73l-.798-4.78a2.07 2.07 0 1 1 4.087-.681l.797 4.78a2.07 2.07 0 0 1-2.046 2.411zM110.152 260.095a2.072 2.072 0 0 1-2.07-2.071 2.711 2.711 0 0 0-2.709-2.708 2.072 2.072 0 0 1 0-4.143 6.859 6.859 0 0 1 6.85 6.85 2.072 2.072 0 0 1-2.07 2.072zM108.589 267.662H85.487a2.072 2.072 0 0 1 0-4.142h23.102a2.072 2.072 0 0 1 0 4.142z" fill="#234957"/><path d="M108.56 260.756a2.071 2.071 0 0 1-.794-3.985l1.593-.66a2.072 2.072 0 0 1 1.587 3.826l-1.593.66c-.26.107-.53.159-.792.159zM94.648 298.73a6.83 6.83 0 0 1-4.836-2.004c-1.304-1.314-2.015-3.03-2.015-4.847v-3.187a2.072 2.072 0 0 1 4.142 0v3.187a2.717 2.717 0 0 0 2.709 2.709 2.712 2.712 0 0 0 2.709-2.708v-3.187a2.072 2.072 0 0 1 4.142 0v3.187c0 3.777-3.074 6.85-6.851 6.85zM77.918 329.798a2.072 2.072 0 0 1-2.07-2.071v-6.06c-2.706-.3-5.071-.917-7.052-1.835-.914-.417-1.389-.827-1.625-1.096l3.115-2.731s-.037-.064-.152-.152c0 .002.115.087.394.215 1.978.918 4.498 1.462 7.503 1.624 1.1.06 1.96.968 1.96 2.068v7.966a2.074 2.074 0 0 1-2.073 2.072z" fill="#234957"/><path d="M120.498 312.599a2.073 2.073 0 0 1-2.02-1.62 2.205 2.205 0 0 1-.027-.113c-2.378-9.052-9.844-15.999-19.034-17.706a2.071 2.071 0 0 1 .757-4.074c10.78 2.004 19.533 10.161 22.299 20.785l.019.079c.02.076.037.151.05.23a2.072 2.072 0 0 1-2.044 2.419zM69.953 326.612a2.072 2.072 0 0 1-2.072-2.072v-6.373a2.072 2.072 0 0 1 4.143 0v6.373a2.072 2.072 0 0 1-2.071 2.072zM69.156 297.136H43.665A3.668 3.668 0 0 1 40 293.472v-17.525a3.669 3.669 0 0 1 3.665-3.665h3.671l2.572-3.858a2.07 2.07 0 0 1 1.723-.922h9.558c.683 0 1.32.335 1.707.897l.16.232 2.43 3.65h3.67a3.67 3.67 0 0 1 3.665 3.665v17.526a3.67 3.67 0 0 1-3.665 3.664zm-25.014-4.142h24.536v-16.57h-4.302c-.693 0-1.34-.346-1.724-.923l-2.568-3.857h-7.346l-2.572 3.858a2.07 2.07 0 0 1-1.723.922h-4.3v16.57z" fill="#234957"/><path d="M56.41 292.357c-4.217 0-7.648-3.43-7.648-7.648 0-4.216 3.431-7.647 7.648-7.647s7.648 3.43 7.648 7.647c0 4.217-3.43 7.648-7.648 7.648zm0-11.152a3.51 3.51 0 0 0-3.505 3.504 3.51 3.51 0 0 0 3.505 3.506 3.51 3.51 0 0 0 3.506-3.506 3.51 3.51 0 0 0-3.506-3.504zM61.718 272.275a2.07 2.07 0 0 1-1.554-3.438 37.96 37.96 0 0 1 15.766-10.702 2.072 2.072 0 0 1 1.387 3.904 33.815 33.815 0 0 0-14.042 9.533c-.41.466-.983.703-1.557.703z" fill="#234957"/><path d="M88.644 331.79c-3.977 0-7.884-.61-11.613-1.814a37.318 37.318 0 0 1-8.471-3.945 37.9 37.9 0 0 1-17.8-30.477 2.072 2.072 0 0 1 1.978-2.16c1.178-.04 2.11.837 2.16 1.978a33.76 33.76 0 0 0 15.86 27.148 33.268 33.268 0 0 0 7.54 3.513 33.661 33.661 0 0 0 10.346 1.614c12.65 0 24.141-6.978 29.988-18.21a33.497 33.497 0 0 0 3.788-15.566c0-5.245-1.166-10.265-3.466-14.919a33.631 33.631 0 0 0-5.997-8.52 34.343 34.343 0 0 0-5.553-4.651 2.07 2.07 0 1 1 2.31-3.439 38.616 38.616 0 0 1 6.221 5.212 37.726 37.726 0 0 1 6.733 9.565c2.584 5.228 3.894 10.864 3.894 16.752a38.133 38.133 0 0 1-4.256 17.476c-6.562 12.61-19.462 20.443-33.662 20.443z" fill="#234957"/><path d="M121.392 281.378a2.071 2.071 0 0 1-.89-3.944c.04-.025.114-.07.148-.089a5.165 5.165 0 0 0 2.677-4.523c0-1.23-.41-2.372-1.186-3.302a5.179 5.179 0 0 0-3.992-1.876c-1.165 0-2.257.37-3.16 1.074a2.072 2.072 0 0 1-2.547-3.267 9.318 9.318 0 0 1 5.707-1.95 9.31 9.31 0 0 1 7.174 3.366 9.305 9.305 0 0 1 2.147 5.954 9.308 9.308 0 0 1-4.767 8.122c-.15.093-.302.179-.47.254-.273.123-.56.18-.841.18z" fill="#234957"/><path d="M95.632 304.775l-5.713 5.535c-1.009.978-.317 2.686 1.087 2.686h.01c.997 0 1.74.92 1.528 1.894l-.708 3.268c-.34 1.569 1.624 2.57 2.693 1.372l5.664-6.34c.913-1.022.163-2.63-1.206-2.604-.999.017-1.577-.813-1.577-1.015 0-.227.258-1.258.816-3.253.427-1.535-1.448-2.653-2.594-1.543z" fill="#FBB735"/><path d="M90.442 289.072a2.044 2.044 0 0 0-.583.014c-13.444 2.493-23.203 14.222-23.203 27.887v.399a2.072 2.072 0 0 0 4.143 0v-.399c0-11.609 8.251-21.574 19.643-23.773v-4.128z" fill="#234957"/><g><path d="M150.808 139.686a2.06 2.06 0 0 1-1.286-.45l-20.785-16.507a2.071 2.071 0 1 1 2.577-3.243l20.784 16.507a2.071 2.071 0 0 1-1.29 3.693z" fill="#234957"/><path d="M124.37 125.901a9.26 9.26 0 0 1-7.286-3.517 2.071 2.071 0 1 1 3.243-2.576 5.14 5.14 0 0 0 4.043 1.95 5.125 5.125 0 0 0 4.034-1.94 5.044 5.044 0 0 0 1.144-3.237 5.163 5.163 0 0 0-2.52-4.451 2.07 2.07 0 1 1 2.14-3.547 9.271 9.271 0 0 1 4.523 7.998 9.256 9.256 0 0 1-2.061 5.834 9.229 9.229 0 0 1-7.26 3.486z" fill="#234957"/><path d="M127.84 91.352c.424 2.021.645 4.121.645 6.268 0 6.52-2.03 12.57-5.506 17.54V91.352h4.86z" fill="#FBB735"/><path d="M122.98 91.352v23.808c-5.546 7.936-14.749 13.134-25.17 13.134-10.421 0-19.623-5.198-25.169-13.135V75.597h31.462a9.436 9.436 0 0 1 9.438-9.438 9.436 9.436 0 0 1 9.438 9.438v15.755z" fill="#FFF"/><path d="M97.81 122.79c-10.421 0-19.623-6.773-25.169-14.71v7.079c5.545 7.937 14.747 13.135 25.17 13.135 10.421 0 19.623-5.198 25.168-13.135v-7.078c-5.545 7.935-14.748 14.708-25.169 14.708z" fill="#E4EEF2"/><path d="M113.541 66.159c-.675 0-1.332.073-1.967.208 4.27.904 7.472 4.69 7.472 9.23v43.495a31.007 31.007 0 0 1-1.607 2.082 30.865 30.865 0 0 0 5.54-6.015V75.597a9.436 9.436 0 0 0-9.438-9.438z" fill="#E4EEF2"/><path d="M113.713 66.16a9.436 9.436 0 0 0-9.61 9.436H72.64v5.505h34.672c.809 0 1.5-.612 1.565-1.419.29-3.622 1.804-7.232 6.236-7.232 5.958 0 7.865 5.796 7.865 11.011v-7.553c0-5.198-4.068-9.655-9.266-9.748z" fill="#E4EEF2"/><path d="M72.641 80.08v35.079a30.495 30.495 0 0 1-5.505-17.54c0-6.52 2.037-12.568 5.505-17.539z" fill="#FBB735"/><path d="M69.495 66.159h44.046a9.436 9.436 0 0 0-9.438 9.438H60.056a9.436 9.436 0 0 1 9.439-9.438z" fill="#FFF"/><path d="M105.676 66.159a9.436 9.436 0 0 0-9.439 9.438h7.866a9.436 9.436 0 0 1 9.438-9.438h-7.865z" fill="#FAF9FC"/><path d="M60.056 77.668a2.072 2.072 0 0 1-2.07-2.071c0-6.346 5.163-11.51 11.509-11.51a2.072 2.072 0 0 1 0 4.143c-4.062 0-7.367 3.304-7.367 7.367a2.071 2.071 0 0 1-2.072 2.071zM122.978 77.668a2.072 2.072 0 0 1-2.07-2.071c0-4.062-3.305-7.367-7.368-7.367-4.063 0-7.367 3.304-7.367 7.367a2.072 2.072 0 0 1-4.143 0c0-6.346 5.164-11.51 11.51-11.51s11.51 5.164 11.51 11.51a2.071 2.071 0 0 1-2.072 2.071z" fill="#234957"/><path d="M104.103 77.668H60.056a2.072 2.072 0 0 1 0-4.142h44.047a2.072 2.072 0 0 1 0 4.142zM113.541 68.23H69.495a2.072 2.072 0 0 1 0-4.143h44.046a2.072 2.072 0 0 1 0 4.143z" fill="#234957"/><path d="M73.14 116.892a2.062 2.062 0 0 1-2.072-2.06V75.479a2.072 2.072 0 0 1 4.142 0v39.33a2.082 2.082 0 0 1-2.07 2.083zM89.709 95.155h-6.214a2.072 2.072 0 0 1 0-4.142h6.214a2.072 2.072 0 0 1 0 4.142zM97.994 105.511H83.495a2.072 2.072 0 0 1 0-4.142h14.499a2.072 2.072 0 0 1 0 4.142zM122.978 117.23a2.072 2.072 0 0 1-2.07-2.071V75.597a2.072 2.072 0 0 1 4.142 0v39.563a2.07 2.07 0 0 1-2.072 2.07zM106.278 115.867H83.495a2.072 2.072 0 0 1 0-4.142h22.783a2.072 2.072 0 0 1 0 4.142z" fill="#234957"/><path d="M97.81 130.366c-10.69 0-20.732-5.241-26.866-14.02-3.845-5.5-5.88-11.975-5.88-18.726a32.57 32.57 0 0 1 5.879-18.726 2.071 2.071 0 1 1 3.398 2.37 28.437 28.437 0 0 0-5.134 16.355c0 5.898 1.774 11.552 5.132 16.352a28.66 28.66 0 0 0 23.472 12.251 28.66 28.66 0 0 0 23.471-12.25c3.359-4.8 5.132-10.455 5.132-16.353 0-1.981-.201-3.947-.6-5.843a2.07 2.07 0 0 1 1.6-2.452 2.068 2.068 0 0 1 2.453 1.6c.458 2.177.69 4.428.69 6.695 0 6.751-2.033 13.227-5.88 18.727-6.134 8.779-16.177 14.02-26.867 14.02z" fill="#234957"/><path d="M127.84 93.423h-4.862a2.072 2.072 0 0 1 0-4.143h4.861a2.072 2.072 0 0 1 0 4.143z" fill="#234957"/><path d="M133.203 73.394c.008.74-.055 1.518-.173 2.328l-.74 4.483-.527 3.178-.03-.009-15.913-7.543 1.951-2.218 3.178-3.619c2.194-2.555 4.656-3.964 7.425-2.65l2.013.96c2.085.992 2.793 2.841 2.816 5.09z" fill="#1B9ED6"/><path d="M130.387 68.305l-2.013-.96c-.856-.406-1.68-.55-2.478-.483 1.898 1.016 2.565 2.798 2.588 4.958.008.74-.055 1.518-.173 2.328l-.74 4.483-.425 2.569 4.586 2.174.031.009.527-3.178.74-4.483c.118-.81.181-1.588.173-2.328-.023-2.249-.731-4.098-2.816-5.089z" fill="#1487C1"/><path d="M131.763 83.384l-.055.346-10.028 21.141a5.588 5.588 0 0 1-5.875 3.115 5.544 5.544 0 0 1-1.542-.472l-6.04-2.863a5.505 5.505 0 0 1-1.346-.897c-1.777-1.604-2.383-4.255-1.306-6.52l10.02-21.142.228-.26 15.912 7.543.032.009z" fill="#E4EEF2"/><path d="M131.732 83.375l-4.64-2.24-10.918 21.377c-1.065 2.24-3.453 3.444-5.795 3.12l3.885 1.882a5.523 5.523 0 0 0 1.542.472 5.586 5.586 0 0 0 5.875-3.115L131.71 83.73l.054-.346-.032-.009z" fill="#D8E5EA"/><path d="M115.805 107.986l-.031.244-1.912 4.034-2.516-1.195-4.028-1.911-2.516-1.195 1.911-4.028.165-.181c.393.354.842.66 1.345.897l6.04 2.863a5.527 5.527 0 0 0 1.542.472z" fill="#E4EEF2"/><path d="M114.264 107.514l-1.667-.79-1.88 3.968.63.378 2.516 1.196 1.912-4.035.03-.244a5.56 5.56 0 0 1-1.541-.473z" fill="#E4EEF2"/><path d="M113.862 114.336a2.08 2.08 0 0 1-.889-.2l-9.06-4.302a2.071 2.071 0 0 1-.983-2.759l1.91-4.027a2.072 2.072 0 0 1 3.745 1.776l-1.024 2.157 5.318 2.525 1.023-2.162a2.07 2.07 0 1 1 3.744 1.774l-1.912 4.035a2.074 2.074 0 0 1-1.872 1.183z" fill="#234957"/><path d="M107.42 116.203a2.07 2.07 0 0 1-2.071-2.066l-.101-4.937a2.072 2.072 0 0 1 2.028-2.114c1.095-.008 2.09.885 2.113 2.028l.018.841.665-.519a2.071 2.071 0 0 1 2.55 3.264l-3.905 3.05a2.079 2.079 0 0 1-1.296.453zM131.731 85.448c-.297 0-.6-.065-.885-.2l-15.912-7.544a2.071 2.071 0 0 1 1.775-3.742l15.912 7.543a2.071 2.071 0 0 1-.89 3.943z" fill="#234957"/><path d="M116.638 110.12a7.543 7.543 0 0 1-3.265-.736l-6.036-2.86a7.532 7.532 0 0 1-1.844-1.23c-2.492-2.248-3.228-5.929-1.79-8.949l10.02-21.14c.082-.173.188-.335.315-.48l5.355-6.094c2.223-2.59 4.476-3.856 6.875-3.856 1.008 0 2.015.236 2.994.7l2.017.961c2.616 1.244 3.96 3.578 3.996 6.938.008.826-.056 1.692-.195 2.649l-1.325 8.033c-.031.194-.09.384-.174.561l-10.029 21.142a7.69 7.69 0 0 1-6.914 4.362zm.702-32.878l-9.897 20.88a3.517 3.517 0 0 0 .823 4.095c.255.23.538.418.834.558l6.05 2.868a3.506 3.506 0 0 0 4.66-1.661l9.908-20.925 1.269-7.671c.1-.694.15-1.37.146-1.97-.023-2.175-.799-2.843-1.634-3.24l-2.016-.96c-.423-.2-.821-.299-1.215-.299-1.102 0-2.363.817-3.746 2.43l-5.182 5.895z" fill="#234957"/></g><g><path d="M286.471 212.179c-.286 0-.578-.061-.855-.187l-11.392-5.178a2.07 2.07 0 0 1 1.713-3.771l11.392 5.178a2.07 2.07 0 0 1 1.028 2.741 2.071 2.071 0 0 1-1.886 1.217z" fill="#234957"/><path d="M292.193 221.964c-.086 0-.172-.005-.26-.016-4.654-.581-8.163-4.559-8.163-9.253 0-5.14 4.18-9.32 9.32-9.32a9.28 9.28 0 0 1 4.033.917 2.07 2.07 0 1 1-1.789 3.736 5.16 5.16 0 0 0-2.244-.511 5.184 5.184 0 0 0-5.178 5.178c0 2.61 1.95 4.82 4.535 5.143a2.07 2.07 0 0 1-.254 4.126z" fill="#234957"/><path d="M357.929 184.925V220.9c0 2.82-.36 5.567-1.03 8.176h-8.781v-14.717h-16.352v14.717h-9.81v-44.149h35.973z" fill="#3EB38A"/><path d="M348.118 229.075h8.78a32.76 32.76 0 0 1-2.46 6.54H296.013a32.428 32.428 0 0 1-2.452-6.515l.099-.025h54.458z" fill="#E4EEF2"/><path d="M296.022 235.616h58.408c-5.38 10.67-16.433 17.986-29.204 17.986s-23.824-7.318-29.204-17.986z" fill="#234957"/><path fill="#3EB38A" d="M353.023 178.384v6.541h-26.162v-6.54h22.075zM348.936 178.384h-17.987c3.164 0 5.723-3.377 5.723-6.54h6.54c0 3.164 2.56 6.54 5.724 6.54z"/><path fill="#FFF" d="M331.766 214.358h16.351v14.717h-16.35z"/><path fill="#FAF9FC" d="M321.955 204.645v24.43h-15.534V209.82z"/><path d="M306.421 209.821v19.254H293.66l-.099.025a32.677 32.677 0 0 1-1.039-8.2c0-16.932 12.869-30.864 29.36-32.531h.073v16.277l-15.533 5.175z" fill="#FBB735"/><path d="M353.023 184.925v44.15h3.875a32.863 32.863 0 0 0 1.03-8.176v-35.974h-4.905zM349.345 178.384h-3.27v6.541h7.357v-6.54z" fill="#2A9E71"/><path fill="#30C68D" d="M326.86 184.925h-4.905V229.075h4.906zM330.948 178.384h-4.087v6.541h6.54v-6.54z"/><path fill="#E4EEF2" d="M315.414 206.824v22.25h6.541v-24.429z"/><path d="M325.226 247.674c-10.947 0-20.801-4.641-27.716-12.06h-1.488c5.38 10.67 16.433 17.987 29.204 17.987 12.77 0 23.824-7.318 29.204-17.986h-1.489c-6.914 7.418-16.77 12.06-27.715 12.06z" fill="#234957"/><g fill="#234957"><path d="M357.929 222.806a2.072 2.072 0 0 1-2.071-2.07v-33.902h-2.835a2.072 2.072 0 0 1 0-4.143h4.906c1.143 0 2.071.928 2.071 2.072v35.972a2.072 2.072 0 0 1-2.071 2.071zM321.955 230.982a2.072 2.072 0 0 1-2.071-2.07v-44.15c0-1.144.928-2.072 2.071-2.072h4.906a2.072 2.072 0 0 1 0 4.143h-2.835v42.078a2.071 2.071 0 0 1-2.07 2.071zM348.935 180.292c-3.82 0-6.678-3.14-7.531-6.54h-2.924c-.853 3.4-3.71 6.54-7.53 6.54a2.072 2.072 0 0 1 0-4.142c1.966 0 3.65-2.458 3.65-4.47 0-1.143.929-2.071 2.072-2.071h6.54c1.143 0 2.071.928 2.071 2.07 0 2.013 1.685 4.47 3.652 4.47a2.072 2.072 0 0 1 0 4.143z"/><path d="M353.023 186.833h-26.162a2.072 2.072 0 0 1-2.071-2.071v-6.541c0-1.144.928-2.071 2.07-2.071h26.163c1.143 0 2.071.927 2.071 2.07v6.542a2.071 2.071 0 0 1-2.07 2.07zm-24.091-4.143h22.02v-2.398h-22.02v2.398zM339.943 173.752a2.072 2.072 0 0 1-2.072-2.071v-11.446a2.072 2.072 0 0 1 4.143 0v11.446a2.072 2.072 0 0 1-2.071 2.071zM356.898 230.819H293.66a2.072 2.072 0 0 1 0-4.143h63.238a2.072 2.072 0 0 1 0 4.143zM354.43 238.068h-58.408a2.072 2.072 0 0 1 0-4.142h58.408a2.072 2.072 0 0 1 0 4.142z"/><path d="M348.118 230.982a2.072 2.072 0 0 1-2.072-2.07v-12.646h-12.208v12.645a2.072 2.072 0 0 1-4.143 0v-14.717c0-1.143.928-2.07 2.071-2.07h16.352c1.143 0 2.07.927 2.07 2.07v14.717a2.07 2.07 0 0 1-2.07 2.071zM348.118 209.726h-16.352a2.072 2.072 0 0 1 0-4.143h16.352a2.072 2.072 0 0 1 0 4.143zM336.672 203.185h-4.904a2.072 2.072 0 0 1 0-4.143h4.904a2.072 2.072 0 0 1 0 4.143zM348.118 203.185h-4.906a2.072 2.072 0 0 1 0-4.143h4.906a2.072 2.072 0 0 1 0 4.143zM336.672 196.644h-4.904a2.072 2.072 0 0 1 0-4.142h4.904a2.072 2.072 0 0 1 0 4.142zM348.118 196.644h-4.906a2.072 2.072 0 0 1 0-4.142h4.906a2.072 2.072 0 0 1 0 4.142z"/><path d="M325.226 255.673c-13.147 0-25.002-7.266-30.975-18.97a1.912 1.912 0 0 1-.087-.155 34.733 34.733 0 0 1-2.609-6.93 34.776 34.776 0 0 1-1.104-8.718c0-17.92 13.423-32.791 31.223-34.592a2.061 2.061 0 0 1 2.269 1.852 2.072 2.072 0 0 1-1.853 2.27c-15.676 1.585-27.497 14.685-27.497 30.47 0 2.61.326 5.193.971 7.68a30.647 30.647 0 0 0 2.224 5.96c.028.046.056.095.081.145 5.24 10.392 15.723 16.848 27.355 16.848s22.115-6.455 27.354-16.848c.025-.05.052-.098.08-.144a30.701 30.701 0 0 0 2.231-5.98c.641-2.491.967-5.07.967-7.66a2.072 2.072 0 0 1 4.142 0c0 2.94-.369 5.863-1.097 8.692a34.934 34.934 0 0 1-2.615 6.955 1.945 1.945 0 0 1-.088.158c-5.972 11.703-17.823 18.967-30.972 18.967z"/><path d="M302.333 213.094a2.072 2.072 0 0 1-.656-4.037l19.624-6.54a2.07 2.07 0 1 1 1.308 3.931l-19.62 6.54c-.217.071-.439.106-.656.106z"/><path d="M306.421 230.982a2.072 2.072 0 0 1-2.071-2.07v-19.256c0-1.143.928-2.08 2.071-2.08 1.144 0 2.071.92 2.071 2.064v19.27a2.072 2.072 0 0 1-2.07 2.072z"/></g></g><g><path d="M239.872 283.032c-.82 0-1.597-.492-1.922-1.3l-5.178-12.858a2.073 2.073 0 0 1 3.843-1.548l5.178 12.859a2.074 2.074 0 0 1-1.921 2.847z" fill="#234957"/><path d="M236.73 295.026a2.07 2.07 0 0 1-1.785-1.015 9.29 9.29 0 0 1-1.288-4.73 9.34 9.34 0 0 1 6.366-8.864 9.232 9.232 0 0 1 2.99-.493c4.635 0 8.617 3.455 9.264 8.037a2.072 2.072 0 0 1-4.102.579c-.36-2.55-2.579-4.473-5.161-4.473a5.1 5.1 0 0 0-1.66.274 5.203 5.203 0 0 0-2.845 7.558 2.071 2.071 0 0 1-1.78 3.127z" fill="#234957"/><path d="M286.472 332.059v5.426c0 6.835-5.602 12.428-12.427 12.428-2.754 0-5.302-.901-7.363-2.434.083-.031.156-.062.228-.104a12.31 12.31 0 0 0 6.348 1.76c6.835 0 12.427-5.591 12.427-12.426v-13.981c0-.518-.03-1.025-.093-1.522a26.71 26.71 0 0 0 .083-2.05c.518 1.356.797 2.816.797 4.349v8.554z" fill="#ECDCEA"/><path d="M285.685 318.845c0 .103 0 .207-.01.31a12.474 12.474 0 0 0-2.858-4.422 5.653 5.653 0 0 0-.363-.341.242.242 0 0 0-.072-.073 3.734 3.734 0 0 0-.342-.362c-2.257-2.258-5.364-3.656-8.782-3.656v-3.884s.539-6.98-6.586-6.98h-15.928s-7 .052-7-5.447v-4.256a31.056 31.056 0 0 1 10.873-1.957c17.16 0 31.068 13.908 31.068 31.068z" fill="#FBB735"/><path d="M282.817 314.733a12.474 12.474 0 0 1 2.858 4.422c0 .694-.031 1.378-.083 2.05a12.3 12.3 0 0 0-3.138-6.813c.125.103.249.227.363.341z" fill="#ECDCEA"/><path d="M280.259 325.845v5.427c0 3.417-1.398 6.524-3.656 8.782a12.385 12.385 0 0 1-8.771 3.645c-1.833 0-3.552-.414-5.116-1.129a12.277 12.277 0 0 1-1.098-5.085v-13.98c0-6.835 5.592-12.427 12.427-12.427 1.813 0 3.542.393 5.095 1.108a12.387 12.387 0 0 1 1.119 5.105v8.554z" fill="#FAF9FC"/><path d="M285.592 321.206a12.3 12.3 0 0 0-3.138-6.814.242.242 0 0 0-.072-.073c-.166-.145-.321-.29-.497-.425a6.655 6.655 0 0 0-.425-.33c-.114-.094-.238-.177-.362-.26-.135-.103-.28-.197-.425-.29-.487-.31-1.004-.58-1.533-.828a12.387 12.387 0 0 1 1.119 5.105v13.981c0 3.417-1.398 6.524-3.656 8.782a12.385 12.385 0 0 1-8.771 3.645c-1.833 0-3.552-.414-5.116-1.129.03.073.062.145.103.218.083.196.176.373.28.559.062.124.124.238.207.362a11.1 11.1 0 0 0 1.036 1.522c.145.177.29.353.445.529.02.03.041.052.073.072.62.59 1.315 1.108 2.05 1.543a12.31 12.31 0 0 0 6.348 1.76c6.835 0 12.427-5.591 12.427-12.426v-13.981c0-.518-.03-1.025-.093-1.522z" fill="#E4EEF2"/><path d="M266.672 299.438c7.125 0 6.586 6.98 6.586 6.98v3.883c-6.824 0-12.427 5.592-12.427 12.427v13.98c0 2.921 1.036 5.614 2.734 7.747.373.466.777.901 1.222 1.305.02.03.041.052.073.072a11.49 11.49 0 0 0 1.822 1.647 30.987 30.987 0 0 1-12.065 2.434c-17.149 0-31.067-13.908-31.067-31.068 0-13.328 8.398-24.7 20.194-29.1v4.245c0 5.5 7 5.448 7 5.448h15.928z" fill="#FBB735"/><path d="M266.91 347.375a1.525 1.525 0 0 1-.228.104 11.49 11.49 0 0 1-1.822-1.647c.62.59 1.315 1.108 2.05 1.543z" fill="#ECDCEA"/><g fill="#234957"><path d="M254.617 351.984c-18.273 0-33.139-14.866-33.139-33.14 0-13.758 8.657-26.232 21.542-31.04a2.071 2.071 0 1 1 1.448 3.881c-11.274 4.207-18.847 15.12-18.847 27.16 0 15.988 13.008 28.996 28.996 28.996a28.81 28.81 0 0 0 11.26-2.27 2.07 2.07 0 1 1 1.61 3.816 32.947 32.947 0 0 1-12.87 2.597z"/><path d="M285.677 321.227a2.07 2.07 0 0 1-2.063-2.274v-.108c0-15.989-13.008-28.997-28.997-28.997-3.486 0-6.9.615-10.15 1.827a2.072 2.072 0 0 1-1.447-3.882 33.064 33.064 0 0 1 11.597-2.087c18.274 0 33.14 14.866 33.14 33.139 0 .17-.003.341-.021.512a2.07 2.07 0 0 1-2.059 1.87zM273.258 325.576a2.072 2.072 0 0 1-2.07-2.071v-3.107a2.072 2.072 0 0 1 4.141 0v3.107a2.071 2.071 0 0 1-2.07 2.071z"/><path d="M273.258 351.207c-2.61 0-5.173-.711-7.414-2.056a13.462 13.462 0 0 1-2.41-1.817v-.001a13.296 13.296 0 0 1-1.485-1.581c-2.057-2.586-3.188-5.797-3.188-9.042v-13.98c0-7.996 6.503-14.5 14.498-14.5 3.86 0 7.498 1.515 10.247 4.263.11.098.26.257.405.426.024.025.05.05.07.076l.003-.001a14.32 14.32 0 0 1 3.666 7.96c.071.58.108 1.178.108 1.775v13.98c-.001 7.995-6.505 14.498-14.5 14.498zm-6.98-6.885a9.389 9.389 0 0 0 1.688 1.27 10.274 10.274 0 0 0 5.292 1.474c5.71 0 10.356-4.646 10.356-10.356v-13.98a10.197 10.197 0 0 0-2.665-6.914 1.836 1.836 0 0 1-.16-.174 1.407 1.407 0 0 0-.144-.153c-2.036-2.033-4.634-3.116-7.387-3.116-5.71 0-10.356 4.646-10.356 10.356v13.98c0 2.348.79 4.581 2.284 6.458.313.39.639.74.994 1.061.034.03.066.061.097.094zM241.052 329.46a2.072 2.072 0 0 1-2.005-2.598l3.884-14.757a2.07 2.07 0 1 1 4.006 1.053l-3.883 14.757a2.074 2.074 0 0 1-2.002 1.546zM235.615 327.13a2.07 2.07 0 0 1-1.528-.673l-4.297-4.69a2.07 2.07 0 0 1 .01-2.808l4.296-4.63a2.07 2.07 0 1 1 3.035 2.818l-2.998 3.23 3.007 3.283a2.07 2.07 0 0 1-1.525 3.47zM249.956 327.13a2.07 2.07 0 0 1-1.526-3.47l3.006-3.284-2.998-3.229a2.072 2.072 0 0 1 3.035-2.818l4.297 4.63a2.07 2.07 0 0 1 .01 2.807l-4.297 4.691a2.062 2.062 0 0 1-1.527.672z"/><path d="M273.258 312.372a2.072 2.072 0 0 1-2.07-2.071v-3.884c0-.053.001-.106.005-.158 0-.008.125-2.23-1.148-3.585-.737-.784-1.84-1.165-3.373-1.165h-15.928c-.468.01-4.53-.042-7.103-2.595-1.287-1.278-1.967-2.98-1.967-4.924v-4.246c0-1.143.927-2.076 2.07-2.076 1.144 0 2.072.922 2.072 2.065v4.256c0 3.277 4.419 3.376 4.922 3.376h15.935c2.724 0 4.886.844 6.428 2.51 2.326 2.513 2.269 5.906 2.23 6.608v3.818a2.073 2.073 0 0 1-2.073 2.071z"/></g></g><g transform="translate(233.657 47)"><ellipse fill="#FBB735" cx="46.166" cy="45.239" rx="39.244" ry="39.244"/><path d="M16.568 96.828a2.072 2.072 0 0 1-1.853-2.994l4.948-9.95a2.07 2.07 0 1 1 3.71 1.845l-4.949 9.951a2.074 2.074 0 0 1-1.856 1.148z" fill="#234957"/><path d="M43.954 19.8c.803 10.666 11.502 10.396 11.502 10.396-3.34 13.534-14.816 9.567-17.737 7.482.67-.471 1.3-1.002 1.883-1.587 2.687-2.695 4.352-6.393 4.352-10.474V19.8z" fill="#FBB735"/><path d="M53.408 30.016c-3.238 5.136-8.452 5.126-12.125 4.052a15.124 15.124 0 0 1-1.682 2.024 14.235 14.235 0 0 1-1.883 1.587c2.921 2.085 14.397 6.052 17.737-7.482.001-.001-.83.02-2.047-.181z" fill="#F93"/><path d="M23.172 77.184c-8.084-6.008-13.78-15.07-15.384-25.473 4.16-4.605 9.776-7.867 16.107-9.044v.392c0 2.878 2.355 5.233 5.233 5.233a5.255 5.255 0 0 0 3.698-1.535 5.253 5.253 0 0 0 1.535-3.698v-.392c8.826 1.639 14.084 5.817 16.623 12.523 1.317 3.436 1.91 7.535 1.91 12.288v.436s-.245.278-1.03.636c-1.221.567-3.768 1.344-8.782 1.614v14.538l-.008.06a38.447 38.447 0 0 1-9.157-1.935 38.963 38.963 0 0 1-10.745-5.643z" fill="#EA5F6E"/><path d="M50.983 55.19c-1.819-4.806-5.045-8.305-9.97-10.511 1.248 1.54 2.242 3.296 2.993 5.278 1.317 3.436 1.91 7.535 1.91 12.288v.436s-.245.278-1.03.637c-1.221.566-3.768 1.343-8.782 1.613v18.026l-.008.06a39.165 39.165 0 0 1-2.484-.3c.102.035.202.074.304.11a38.447 38.447 0 0 0 9.157 1.935l.008-.061V70.164c5.014-.27 7.56-1.046 8.782-1.614.785-.357 1.03-.636 1.03-.636v-.436c0-4.754-.593-8.852-1.91-12.288z" fill="#D34A5E"/><path d="M51.864 84.178l.053.374a38.546 38.546 0 0 1-5.346.367c-1.178 0-2.346-.053-3.497-.157l.008-.061V70.164c5.014-.27 7.56-1.047 8.782-1.614v15.628z" fill="#F4CCAD"/><path d="M51.864 68.55c-1.221.567-3.768 1.344-8.782 1.614v6.977c5.014-.27 7.56-1.046 8.782-1.614V68.55z" fill="#EEB490"/><path d="M37.719 37.678a14.716 14.716 0 0 1-3.384 1.823c-1.621.61-3.375.941-5.206.941-1.83 0-3.584-.331-5.206-.941a14.96 14.96 0 0 1-3.41-1.84c-3.75-2.695-6.21-7.1-6.21-12.043v-8.721c0-.855.07-1.692.22-2.503 3.634 1.063 12.826.104 12.826.104v3.419c8.066.654 16.073-4.945 16.073-4.945.349 1.247.532 2.564.532 3.924v8.721c0 4.08-1.665 7.779-4.352 10.474a14.223 14.223 0 0 1-1.883 1.587z" fill="#F4CCAD"/><path d="M43.422 12.972s-8.007 5.598-16.073 4.945v-3.419s-9.192.96-12.828-.104c-.148.81-.218 1.648-.218 2.503V21.258c0-.855.069-1.692.218-2.503 3.637 1.063 12.828.104 12.828.104v3.419c8.066.654 16.073-4.945 16.073-4.945.349 1.247.532 2.564.532 3.924v-4.073.584-.872c0-1.36-.183-2.676-.532-3.924z" fill="#EDB795"/><path d="M40.116 6.963a14.836 14.836 0 0 1 3.306 6.009s-8.007 5.598-16.073 4.945v-3.419s-9.192.96-12.828-.104a14.777 14.777 0 0 1 4.134-7.971C21.35 3.736 25.047 2.07 29.128 2.07c4.344 0 8.267 1.892 10.98 4.892h.008z" fill="#FBB735"/><path d="M40.116 6.963h-.008c-2.713-3-6.636-4.892-10.98-4.892-1.202 0-2.364.16-3.483.433a14.845 14.845 0 0 1 7.486 4.46h.008a14.836 14.836 0 0 1 3.306 6.008s-3.952 2.755-9.096 4.172v.773c8.066.654 16.073-4.945 16.073-4.945a14.823 14.823 0 0 0-3.306-6.009z" fill="#F93"/><path d="M34.361 42.667v.392a5.255 5.255 0 0 1-1.535 3.698 5.253 5.253 0 0 1-3.698 1.535c-2.878 0-5.233-2.355-5.233-5.233v-3.488l.026-.07c1.622.61 3.375.942 5.206.942 1.831 0 3.584-.331 5.206-.941l.026.07v3.095h.002z" fill="#E2D9A8"/><path d="M34.334 39.5c-1.622.61-3.375.942-5.206.942-1.83 0-3.584-.331-5.206-.941l-.026.07v3.488c0 .279.028.55.07.817 1.61.6 3.348.927 5.162.927 1.815 0 3.552-.327 5.162-.927.042-.267.071-.538.071-.817v-3.488l-.027-.07z" fill="#D3C589"/><path d="M14.303 25.618c0 4.945 2.46 9.348 6.21 12.043-1.946 1.395-7.867 3.714-12.533.836-2.223-1.369-4.15-3.915-5.233-8.302 0 0 11.556.288 11.556-11.703v7.126z" fill="#FBB735"/><path d="M17.482 34.757c-2.681.9-6.372 1.31-9.503-.62-1.375-.847-2.636-2.147-3.655-4.053-.953.125-1.578.112-1.578.112 1.082 4.387 3.009 6.933 5.233 8.302 4.666 2.878 10.587.559 12.532-.836-1.14-.82-2.16-1.801-3.03-2.905z" fill="#F93"/><path d="M13.068 41.931c-2.055 0-4.203-.453-6.175-1.67-2.97-1.829-5.042-5.049-6.156-9.57a2.069 2.069 0 0 1 .397-1.793 2.11 2.11 0 0 1 1.665-.773c.03.006 4.221.043 6.958-2.648 1.643-1.617 2.475-3.967 2.475-6.985a2.072 2.072 0 0 1 4.143 0c0 4.19-1.261 7.546-3.748 9.971-2.275 2.22-5.096 3.147-7.15 3.532.86 2.209 2.062 3.797 3.59 4.739 3.767 2.326 8.825.259 10.239-.756a2.07 2.07 0 1 1 2.415 3.365c-1.58 1.133-4.971 2.588-8.653 2.588zM45.125 41.934c-3.502 0-6.786-1.31-8.507-2.497a2.07 2.07 0 0 1-.441-3.198 2.073 2.073 0 0 1 2.475-.41c.093.047.183.102.269.163 1.348.961 5.483 2.633 8.996 1.333 2.113-.782 3.72-2.559 4.796-5.294-4.476-.82-10.212-3.943-10.824-12.075a17.707 17.707 0 0 1-.058-1.464 2.072 2.072 0 0 1 4.142 0c0 .394.016.774.045 1.139.648 8.615 9.038 8.506 9.385 8.494a2.027 2.027 0 0 1 1.667.773c.404.504.55 1.166.396 1.794-1.686 6.836-5.341 9.493-8.111 10.519-1.387.513-2.826.723-4.23.723z" fill="#234957"/><path d="M29.128 42.514c-2.043 0-4.04-.361-5.935-1.075a17.122 17.122 0 0 1-3.897-2.102c-4.42-3.176-7.064-8.307-7.064-13.72v-8.721c0-.992.084-1.96.251-2.874.583-3.428 2.213-6.57 4.708-9.065C20.398 1.761 24.637 0 29.128 0c4.699 0 9.212 1.986 12.408 5.457.04.038.08.077.117.119a16.98 16.98 0 0 1 3.765 6.85 16.57 16.57 0 0 1 .606 4.47v8.722c0 4.49-1.76 8.73-4.956 11.936a16.305 16.305 0 0 1-2.16 1.82 16.686 16.686 0 0 1-3.836 2.062 16.795 16.795 0 0 1-5.944 1.078zm0-38.372c-3.387 0-6.586 1.331-9.01 3.748a12.647 12.647 0 0 0-3.556 6.852 12.007 12.007 0 0 0-.188 2.156v8.72c0 4.083 1.999 7.957 5.346 10.362a12.89 12.89 0 0 0 2.947 1.59c2.824 1.06 6.082 1.067 8.938-.007a12.63 12.63 0 0 0 2.9-1.562 12.225 12.225 0 0 0 1.63-1.373c2.416-2.422 3.747-5.623 3.747-9.01v-8.72c0-1.154-.153-2.287-.455-3.366a12.812 12.812 0 0 0-2.755-5.074 2.388 2.388 0 0 1-.1-.104 12.759 12.759 0 0 0-9.444-4.212z" fill="#234957"/><path d="M29.181 35.538c-2.338 0-4.544-.8-6.21-2.256a2.07 2.07 0 1 1 2.722-3.121c.9.784 2.17 1.233 3.488 1.233 1.296 0 2.51-.417 3.417-1.175a2.072 2.072 0 0 1 2.655 3.18c-1.652 1.38-3.808 2.139-6.072 2.139zM30 28.56h-.872a2.072 2.072 0 0 1 0-4.142H30a2.072 2.072 0 0 1 0 4.143zM29.128 50.362c-4.027 0-7.304-3.276-7.304-7.303V39.57a2.072 2.072 0 0 1 4.143 0v3.49a3.164 3.164 0 0 0 3.161 3.16c.837 0 1.631-.332 2.24-.934.589-.596.922-1.391.922-2.227V39.57a2.072 2.072 0 0 1 4.142 0v3.49a7.286 7.286 0 0 1-2.135 5.154c-1.402 1.39-3.233 2.148-5.169 2.148zM42.678 86.411a2.072 2.072 0 0 1-2.071-2.07V70.528c0-1.1.86-2.009 1.96-2.068 4.497-.242 7.21-1.226 8.426-1.79.348-.159.48-.262.482-.263a.634.634 0 0 0-.142.143l3.12 2.724c-.2.23-.692.687-1.73 1.16-1.552.72-4.138 1.605-7.973 2.007V84.34a2.074 2.074 0 0 1-2.072 2.072z" fill="#234957"/><path d="M52.892 69.985a2.072 2.072 0 0 1-2.071-2.071v-.436c0-4.659-.58-8.435-1.772-11.546-2.342-6.188-7.129-9.754-15.067-11.228a2.07 2.07 0 1 1 .756-4.073c9.371 1.74 15.319 6.263 18.181 13.826 1.374 3.585 2.044 7.848 2.044 13.02v.437a2.07 2.07 0 0 1-2.07 2.07zM7.788 53.782a2.072 2.072 0 0 1-1.537-3.46c4.538-5.023 10.67-8.464 17.266-9.691a2.07 2.07 0 1 1 .756 4.073c-5.708 1.061-11.016 4.043-14.948 8.395a2.07 2.07 0 0 1-1.537.683z" fill="#234957"/><path d="M51.78 85.955a2.072 2.072 0 0 1-2.071-2.072V68.35a2.072 2.072 0 0 1 4.142 0v15.533a2.072 2.072 0 0 1-2.071 2.072zM28.68 20.042c-.497 0-.996-.02-1.498-.06a2.072 2.072 0 0 1-1.904-2.065v-1.16c-3.09.225-8.427.453-11.284-.36a2.075 2.075 0 0 1-1.548-2.004 2.068 2.068 0 0 1 2.656-1.988c2.663.778 9.589.287 12.032.033a2.07 2.07 0 0 1 2.286 2.06v1.383c6.554-.307 12.749-4.56 12.816-4.609a2.072 2.072 0 1 1 2.373 3.397c-.332.232-7.781 5.373-15.928 5.373zM20.676 25.657a2.07 2.07 0 0 1-1.854-2.99 4.661 4.661 0 0 1 4.202-2.61 4.67 4.67 0 0 1 4.156 2.52 2.07 2.07 0 1 1-3.673 1.913.547.547 0 0 0-.973.015 2.072 2.072 0 0 1-1.858 1.152zM33.757 25.657a2.072 2.072 0 0 1-1.855-2.99 4.66 4.66 0 0 1 4.203-2.61c1.754 0 3.347.966 4.157 2.52a2.07 2.07 0 1 1-3.673 1.913.548.548 0 0 0-.973.013 2.073 2.073 0 0 1-1.859 1.154zM25.06 87.798a9.292 9.292 0 0 1-4.56-1.189 9.336 9.336 0 0 1-4.761-8.131c0-1.858.54-3.644 1.565-5.164l.064-.091a2.071 2.071 0 0 1 3.339 2.452 5.089 5.089 0 0 0-.827 2.804A5.189 5.189 0 0 0 22.53 83a5.068 5.068 0 0 0 2.528.657 5.16 5.16 0 0 0 4.77-3.165 2.072 2.072 0 0 1 3.819 1.607 9.292 9.292 0 0 1-8.588 5.7z" fill="#234957"/><path d="M80.885 15.997v6.105H62.026v-6.105c0-3.837 3.14-6.977 6.977-6.977h4.906c3.838.001 6.976 3.14 6.976 6.977z" fill="#EA5F6E"/><path d="M73.909 9.021h-6.977c-.296 0-.586.025-.872.061 3.429.433 6.105 3.374 6.105 6.916v6.105h8.72v-6.105c0-3.838-3.138-6.977-6.976-6.977z" fill="#D34A5E"/><path d="M63.781 50.008l-2.79-3.488v-2.616a3.487 3.487 0 0 1 3.487-3.488 3.487 3.487 0 0 1 3.488 3.488 3.487 3.487 0 0 1 3.488-3.488 3.487 3.487 0 0 1 3.488 3.488 3.487 3.487 0 0 1 3.488-3.488 3.487 3.487 0 0 1 3.488 3.488v2.616L71.456 59.602l-7.675-9.594z" fill="#F4CCAD"/><path fill="#234957" d="M62.953 51.317h14.826l-7.14 9.047z"/><path d="M80.885 43.032v.872a3.487 3.487 0 0 0-3.487-3.488 3.487 3.487 0 0 0-3.488 3.488V22.102h6.976v20.93z" fill="#FF8626"/><path d="M73.909 22.102v21.802a3.487 3.487 0 0 0-3.488-3.488 3.487 3.487 0 0 0-3.488 3.488V22.102h6.976z" fill="#FFA53D"/><path d="M66.933 22.102v21.802a3.487 3.487 0 0 0-3.488-3.488 3.487 3.487 0 0 0-3.488 3.488V22.102h6.976z" fill="#FFCC6F"/><path d="M74.563 45.593a2.072 2.072 0 0 1-2.071-2.07V22.755a2.072 2.072 0 0 1 4.142 0v20.767c0 1.143-.928 2.07-2.07 2.07zM68.35 45.593a2.072 2.072 0 0 1-2.072-2.07V22.755a2.072 2.072 0 0 1 4.143 0v20.767c0 1.143-.928 2.07-2.071 2.07z" fill="#234957"/><path d="M71.456 61.673a2.07 2.07 0 0 1-1.68-.86L60.348 47.73a2.067 2.067 0 0 1-.391-1.21V22.1a2.072 2.072 0 0 1 4.142 0v23.75l7.358 10.208 7.358-10.208v-23.75a2.072 2.072 0 0 1 4.143 0v24.42c0 .434-.137.858-.392 1.21l-9.429 13.081a2.07 2.07 0 0 1-1.68.861z" fill="#234957"/><path d="M83.883 24.337H59.03a2.072 2.072 0 0 1 0-4.143h24.854a2.072 2.072 0 0 1 0 4.143zM68.35 45.566a2.072 2.072 0 0 1-2.072-2.07 1.037 1.037 0 0 0-2.07 0 2.072 2.072 0 0 1-4.143 0 5.184 5.184 0 0 1 5.178-5.179 5.184 5.184 0 0 1 5.178 5.178 2.072 2.072 0 0 1-2.071 2.071z" fill="#234957"/><path d="M74.563 45.566a2.072 2.072 0 0 1-2.071-2.07 1.037 1.037 0 0 0-2.071 0 2.072 2.072 0 0 1-4.143 0 5.184 5.184 0 0 1 5.178-5.179 5.184 5.184 0 0 1 5.178 5.178 2.072 2.072 0 0 1-2.07 2.071z" fill="#234957"/><path d="M80.777 45.566a2.072 2.072 0 0 1-2.071-2.07 1.037 1.037 0 0 0-2.072 0 2.072 2.072 0 0 1-4.142 0 5.184 5.184 0 0 1 5.178-5.179 5.184 5.184 0 0 1 5.178 5.178 2.072 2.072 0 0 1-2.071 2.071zM80.885 24.173a2.072 2.072 0 0 1-2.07-2.071v-6.105c0-2.705-2.201-4.906-4.906-4.906h-4.905a4.911 4.911 0 0 0-4.906 4.906v6.105a2.072 2.072 0 0 1-4.142 0v-6.105c0-4.989 4.06-9.048 9.048-9.048h4.905c4.988 0 9.048 4.058 9.048 9.048v6.105a2.07 2.07 0 0 1-2.072 2.07z" fill="#234957"/><path d="M65.032 12.342c-.327 0-.66-.077-.97-.242a37.348 37.348 0 0 0-17.46-4.333c-2.26 0-4.524.203-6.726.605a2.067 2.067 0 0 1-2.41-1.666 2.07 2.07 0 0 1 1.667-2.41 41.831 41.831 0 0 1 7.469-.67c6.76 0 13.471 1.665 19.404 4.816a2.07 2.07 0 0 1-.974 3.9zM46.602 86.472C23.76 86.472 5.178 67.89 5.178 45.05c0-2.351.199-4.708.59-7.007a2.072 2.072 0 0 1 4.084.697 37.614 37.614 0 0 0-.532 6.31c0 20.557 16.724 37.281 37.282 37.281 20.558 0 37.281-16.724 37.281-37.281A37.291 37.291 0 0 0 79.08 26.73a2.071 2.071 0 1 1 3.607-2.04 41.441 41.441 0 0 1 5.339 20.358c0 22.84-18.583 41.423-41.424 41.423z" fill="#234957"/></g><g><path d="M268.867 230.228v.016a77.568 77.568 0 0 1-14.524 22.322H140.479a77.568 77.568 0 0 1-14.524-22.322v-8.746h142.912v8.73zm-67.06 11.2a6.225 6.225 0 0 0 0-8.792 6.225 6.225 0 0 0-8.792 0 6.225 6.225 0 0 0 0 8.792 6.225 6.225 0 0 0 8.792 0z" fill="#FFF"/><path d="M268.867 169.258v52.24H125.955v-68.35c0-6.834 5.592-12.426 12.427-12.426H256.44c6.835 0 12.427 5.592 12.427 12.427v16.109z" fill="#E4EEF2"/><path d="M220.712 252.566h33.631a77.608 77.608 0 0 1-24.466 17.756c-5.53-3.961-9.165-10.424-9.165-17.756zM247.524 140.411v.31H146.926c13.576-11.619 31.207-18.64 50.485-18.64 19.091 0 36.583 6.897 50.113 18.33z" fill="#234957"/><path d="M220.712 252.566c0 7.332 3.635 13.795 9.165 17.756a77.399 77.399 0 0 1-32.466 7.099 77.399 77.399 0 0 1-32.466-7.1c5.53-3.96 9.165-10.423 9.165-17.755h46.602z" fill="#FFF"/><path d="M201.807 232.636a6.225 6.225 0 0 1 0 8.792 6.225 6.225 0 0 1-8.792 0 6.225 6.225 0 0 1 0-8.792 6.225 6.225 0 0 1 8.792 0z" fill="#E4EEF2"/><path d="M140.479 252.566h33.631c0 7.332-3.635 13.795-9.165 17.756a77.608 77.608 0 0 1-24.466-17.756z" fill="#234957"/><g fill="#E4EEF2"><path d="M256.698 221.498c-3.936 12.533-11.735 23.354-22.004 31.068h19.649a77.568 77.568 0 0 0 14.524-22.322v-8.746h-12.169zM138.124 221.498h-12.17v8.746a77.568 77.568 0 0 0 14.525 22.322h19.65c-10.27-7.714-18.069-18.535-22.005-31.068z"/></g><path d="M222.015 259.922a61.915 61.915 0 0 1-24.604 5.072 61.915 61.915 0 0 1-24.604-5.072 21.97 21.97 0 0 1-7.862 10.4 77.399 77.399 0 0 0 32.466 7.099 77.399 77.399 0 0 0 32.466-7.1 21.956 21.956 0 0 1-7.862-10.399z" fill="#E4EEF2"/><path d="M256.44 140.722h-30.466l-32.551 80.776h75.444v-68.35c0-6.834-5.592-12.426-12.427-12.426z" fill="#F6FAFC"/><g fill="#234957"><path d="M197.411 245.317a8.23 8.23 0 0 1-5.86-2.424c-3.233-3.231-3.233-8.49 0-11.721a8.232 8.232 0 0 1 5.86-2.424c2.215 0 4.297.86 5.86 2.424 3.233 3.231 3.233 8.49 0 11.72a8.23 8.23 0 0 1-5.86 2.425zm0-12.427c-1.11 0-2.15.43-2.932 1.21a4.15 4.15 0 0 0 0 5.864c.781.781 1.823 1.21 2.932 1.21 1.11 0 2.15-.429 2.932-1.21a4.15 4.15 0 0 0 0-5.863 4.118 4.118 0 0 0-2.932-1.211zM268.867 223.57H125.955a2.072 2.072 0 0 1 0-4.143h142.912a2.072 2.072 0 0 1 0 4.143zM229.893 272.393h-.017c-.433 0-.854-.136-1.205-.387-6.281-4.498-10.031-11.765-10.031-19.44a2.072 2.072 0 0 1 4.142 0c0 6.316 3.078 12.301 8.236 16.026a2.07 2.07 0 0 1 .936 1.73 2.063 2.063 0 0 1-2.061 2.07zM164.945 272.393a2.073 2.073 0 1 1-1.072-3.852c5.116-3.73 8.166-9.688 8.166-15.975a2.072 2.072 0 0 1 4.142 0c0 7.674-3.75 14.942-10.03 19.44a2.071 2.071 0 0 1-1.206.387z"/><path d="M268.867 232.3a2.072 2.072 0 0 1-2.07-2.072v-77.08c0-5.71-4.647-10.355-10.357-10.355H138.382c-5.71 0-10.356 4.646-10.356 10.356v77.08a2.072 2.072 0 0 1-4.143 0v-77.08c0-7.995 6.504-14.499 14.499-14.499H256.44c7.995 0 14.499 6.504 14.499 14.499v77.08a2.072 2.072 0 0 1-2.072 2.07zM254.359 254.638h-113.88a2.079 2.079 0 0 1-2.08-2.072c0-1.143.92-2.07 2.064-2.07h113.88c1.143 0 2.08.927 2.08 2.07 0 1.144-.92 2.072-2.064 2.072z"/><path d="M197.411 279.492c-11.62 0-22.835-2.452-33.333-7.29-9.514-4.375-17.965-10.508-25.118-18.228a79.35 79.35 0 0 1-14.909-22.916 2.147 2.147 0 0 1-.059-.154c-4.196-9.893-6.322-20.373-6.322-31.153 0-10.84 2.147-21.373 6.38-31.305a2.071 2.071 0 1 1 3.81 1.624c-4.013 9.415-6.048 19.401-6.048 29.68 0 10.27 2.035 20.25 6.048 29.667.02.048.04.098.056.148a75.25 75.25 0 0 0 14.08 21.592c6.784 7.322 14.796 13.136 23.815 17.283 9.952 4.586 20.583 6.91 31.601 6.91 11.017 0 21.648-2.324 31.6-6.909 9.018-4.148 17.03-9.961 23.813-17.282a75.275 75.275 0 0 0 14.085-21.6c.017-.048.033-.096.054-.142 4.013-9.415 6.048-19.396 6.048-29.666 0-10.28-2.035-20.267-6.048-29.681a2.072 2.072 0 0 1 3.811-1.624c4.233 9.93 6.38 20.463 6.38 31.305 0 10.783-2.129 21.266-6.324 31.159-.018.05-.035.1-.057.149a79.347 79.347 0 0 1-14.913 22.919c-7.15 7.717-15.601 13.851-25.116 18.226-10.5 4.836-21.715 7.288-33.334 7.288zM146.927 142.793a2.072 2.072 0 0 1-1.348-3.645 79.767 79.767 0 0 1 51.832-19.138 79.816 79.816 0 0 1 51.45 18.819 2.071 2.071 0 0 1-2.674 3.164 75.658 75.658 0 0 0-48.776-17.84 75.619 75.619 0 0 0-49.14 18.143c-.39.333-.868.497-1.344.497z"/></g></g><g><g transform="translate(140.453 167.13)"><path d="M113.916.518V39.87H82.848V.518h31.068zM103.56 12.945a5.18 5.18 0 0 0-5.178-5.178 5.18 5.18 0 0 0-5.178 5.178 5.18 5.18 0 0 0 5.178 5.178 5.18 5.18 0 0 0 5.178-5.178z" fill="#FFF"/><ellipse fill="#FBB735" cx="98.382" cy="12.945" rx="5.178" ry="5.178"/><path d="M72.492.518V39.87H41.424V.518h31.068zM62.136 12.945a5.18 5.18 0 0 0-5.178-5.178 5.18 5.18 0 0 0-5.178 5.178 5.18 5.18 0 0 0 5.178 5.178 5.18 5.18 0 0 0 5.178-5.178z" fill="#FFF"/><ellipse fill="#FBB735" cx="56.958" cy="12.945" rx="5.178" ry="5.178"/><path d="M31.068.518V39.87H0V.518h31.068zM20.712 12.945a5.18 5.18 0 0 0-5.178-5.178 5.18 5.18 0 0 0-5.178 5.178 5.18 5.18 0 0 0 5.178 5.178 5.18 5.18 0 0 0 5.178-5.178z" fill="#FFF"/><ellipse fill="#FBB735" cx="15.534" cy="12.945" rx="5.178" ry="5.178"/></g><g stroke="#234957" stroke-width="4" transform="translate(140.453 156.773)"><path d="M0 10.874h31.068v39.353H0z"/><ellipse cx="15.534" cy="23.301" rx="5.178" ry="5.178"/><path d="M7.25 36.764h16.569M11.392 42.977h8.284M0 .518h14.498M109.773.518h4.143M96.31.518h4.143M82.848.518h4.142M41.424 10.874h31.068v39.353H41.424z"/><ellipse cx="56.958" cy="23.301" rx="5.178" ry="5.178"/><path d="M48.673 36.764h16.57M52.816 42.977H61.1M82.848 10.874h31.068v39.353H82.848z"/><ellipse cx="98.382" cy="23.301" rx="5.178" ry="5.178"/><path d="M90.097 36.764h16.57M94.24 42.977h8.284"/></g></g><path d="M124.491 220.463s-7.512-16.225-.263-41.769l.263 41.769zM270.073 177.14s8.07 17.432.282 44.876l-.282-44.875z" fill="#234957"/></g></svg>