<?xml version="1.0" encoding="UTF-8" standalone="no"?><svg width="400" height="400" viewBox="0 0 400 400" xmlns="http://www.w3.org/2000/svg"><title>manage</title><g fill="none" fill-rule="evenodd"><path d="M249.556 125.862c3.854-5.357 10.13-8.84 17.237-8.84a21.146 21.146 0 0 1 15.859 7.125c3.341 3.73 5.357 8.68 5.357 14.09 0 11.722-9.494 21.216-21.216 21.216-4.066 0-7.85-1.114-11.067-3.13a21.127 21.127 0 0 1-10.148-18.085c0-4.632 1.467-8.893 3.978-12.376z" fill="#EA5F6E"/><path d="M256.186 148.845c0-4.632 1.467-8.893 3.978-12.375 3.854-5.357 10.13-8.84 17.237-8.84 3.106 0 6.057.673 8.716 1.874a20.939 20.939 0 0 0-3.465-5.357 21.146 21.146 0 0 0-15.859-7.125c-7.107 0-13.383 3.483-17.237 8.84a21.052 21.052 0 0 0-3.978 12.376 21.127 21.127 0 0 0 10.148 18.086c.76.477 1.556.898 2.376 1.27a21.084 21.084 0 0 1-1.916-8.749z" fill="#FF667C"/><path d="M208.45 102.878c0 3.784-.99 7.32-2.722 10.396-3.624 6.453-10.537 10.82-18.493 10.82-4.066 0-7.85-1.114-11.067-3.13a21.116 21.116 0 0 1-10.148-18.086c0-11.721 9.494-21.215 21.215-21.215 11.722 0 21.216 9.494 21.216 21.215z" fill="#FBB735"/><path d="M176.628 113.486c0-11.721 9.494-21.215 21.215-21.215 3.112 0 6.057.686 8.72 1.888-3.326-7.365-10.718-12.496-19.328-12.496-11.721 0-21.215 9.494-21.215 21.215a21.116 21.116 0 0 0 10.148 18.087c.755.472 1.543.89 2.357 1.262a21.102 21.102 0 0 1-1.897-8.74z" fill="#FFD366"/><path d="M332.208 46.304c11.721 0 21.215 9.494 21.215 21.215 0 11.722-9.494 21.216-21.215 21.216-4.067 0-7.85-1.114-11.068-3.13a21.308 21.308 0 0 1-4.526-3.712 21.114 21.114 0 0 1-5.622-14.374c0-11.721 9.494-21.215 21.216-21.215z" fill="#FBB735"/><path d="M321.6 78.127c0-11.721 9.494-21.215 21.215-21.215 3.112 0 6.057.686 8.72 1.888-3.325-7.366-10.717-12.496-19.327-12.496-11.722 0-21.216 9.494-21.216 21.215 0 5.552 2.14 10.608 5.622 14.374a21.308 21.308 0 0 0 4.526 3.713c.759.475 1.55.896 2.37 1.267a21.075 21.075 0 0 1-1.91-8.746z" fill="#FFD366"/><path d="M332.208 94.039c-4.972 0-9.77-1.363-13.884-3.94a26.481 26.481 0 0 1-5.604-4.605 26.395 26.395 0 0 1-7.033-17.975c0-14.622 11.896-26.519 26.519-26.519 14.623 0 26.52 11.897 26.52 26.52 0 14.622-11.894 26.519-26.518 26.519zm0-42.431c-8.775 0-15.912 7.137-15.912 15.911 0 4.01 1.496 7.836 4.211 10.772a16.006 16.006 0 0 0 3.398 2.789c2.474 1.548 5.327 2.35 8.303 2.35 8.774 0 15.911-7.136 15.911-15.91 0-8.775-7.137-15.912-15.911-15.912zM266.793 164.757c-4.971 0-9.77-1.363-13.883-3.94-7.89-4.792-12.636-13.248-12.636-22.58 0-5.606 1.722-10.957 4.979-15.476a26.6 26.6 0 0 1 21.54-11.043c7.58 0 14.807 3.248 19.828 8.91 4.31 4.811 6.692 11.072 6.692 17.61 0 14.622-11.895 26.519-26.52 26.519zm0-42.431a15.961 15.961 0 0 0-12.93 6.633c-1.952 2.705-2.981 5.912-2.981 9.279 0 5.595 2.84 10.662 7.598 13.554 2.484 1.555 5.338 2.357 8.313 2.357 8.775 0 15.912-7.137 15.912-15.911 0-3.922-1.423-7.67-4.004-10.552a15.904 15.904 0 0 0-11.908-5.36zM187.235 129.398c-4.97 0-9.77-1.363-13.883-3.937a26.377 26.377 0 0 1-4.843-3.805c-5.02-4.998-7.793-11.67-7.793-18.778 0-14.622 11.897-26.519 26.52-26.519 14.622 0 26.519 11.897 26.519 26.52 0 4.545-1.178 9.039-3.405 12.997a26.537 26.537 0 0 1-23.115 13.522zm0-42.431c-8.772 0-15.911 7.137-15.911 15.911a15.79 15.79 0 0 0 4.678 11.27 15.926 15.926 0 0 0 2.938 2.296c2.466 1.543 5.32 2.346 8.295 2.346 5.744 0 11.059-3.11 13.868-8.113a15.699 15.699 0 0 0 2.044-7.799c0-8.774-7.137-15.911-15.912-15.911z" fill="#234957"/><path d="M246.571 137.085c-.772 0-1.555-.17-2.298-.527l-40.352-19.435a5.305 5.305 0 0 1 4.604-9.558L248.877 127a5.305 5.305 0 0 1-2.306 10.085zM282.65 129.45c-1.248 0-2.5-.436-3.51-1.327a5.308 5.308 0 0 1-.464-7.487l35.776-40.511a5.306 5.306 0 0 1 7.487-.465 5.308 5.308 0 0 1 .465 7.487l-35.776 40.511a5.292 5.292 0 0 1-3.978 1.793z" fill="#234957"/><g transform="translate(96.575 196.58)"><ellipse fill="#FBB735" cx="35.359" cy="35.359" rx="8.84" ry="8.84"/><path d="M199.779 70.718H5.304A5.304 5.304 0 0 1 0 65.414V5.304A5.304 5.304 0 0 1 5.304 0h194.475a5.304 5.304 0 0 1 5.304 5.304v60.11a5.304 5.304 0 0 1-5.304 5.304zM10.608 60.11h183.867V10.608H10.608V60.11z" fill="#9DB8BF"/><path d="M35.36 51.27c-8.773 0-15.912-7.137-15.912-15.91 0-8.775 7.139-15.912 15.911-15.912 8.773 0 15.912 7.137 15.912 15.911 0 8.774-7.14 15.912-15.912 15.912zm0-21.215a5.31 5.31 0 0 0-5.305 5.304 5.31 5.31 0 0 0 5.304 5.304 5.31 5.31 0 0 0 5.304-5.304 5.31 5.31 0 0 0-5.304-5.304zM180.331 40.663H65.414a5.304 5.304 0 1 1 0-10.608h114.917a5.304 5.304 0 1 1 0 10.608z" fill="#234957"/></g><path d="M327.882 148.845v17.68H66.519v-7.072c0-5.834 4.774-10.608 10.608-10.608h250.755zM352.928 325.64v17.68c0 5.835-4.773 10.608-10.608 10.608H55.912c-5.835 0-10.608-4.773-10.608-10.608v-17.68H142.54c0 5.835 4.774 10.609 10.608 10.609h91.934c5.834 0 10.608-4.774 10.608-10.608H352.928z" fill="#D8E5EA"/><path d="M331.713 325.64h-14.144v17.68c0 5.835-4.773 10.608-10.608 10.608h35.36c5.834 0 10.607-4.773 10.607-10.608v-17.68h-21.215z" fill="#C8D7DB"/><path d="M80.663 343.32v-17.68H45.304v17.68c0 5.835 4.773 10.608 10.608 10.608H91.27c-5.835 0-10.608-4.773-10.608-10.608z" fill="#F6FAFC"/><path d="M296.354 330.945a5.304 5.304 0 0 1-5.304-5.304v-37.127H107.182v37.127a5.304 5.304 0 1 1-10.607 0V283.21a5.304 5.304 0 0 1 5.303-5.304h194.476a5.304 5.304 0 0 1 5.303 5.304v42.43a5.304 5.304 0 0 1-5.303 5.305z" fill="#9DB8BF"/><path d="M66.52 330.945a5.304 5.304 0 0 1-5.305-5.304V159.453c0-8.774 7.14-15.912 15.912-15.912h169.724a5.304 5.304 0 1 1 0 10.608H77.127a5.31 5.31 0 0 0-5.304 5.304v166.188a5.304 5.304 0 0 1-5.304 5.304z" fill="#234957"/><path d="M331.713 330.945a5.304 5.304 0 0 1-5.304-5.304V159.453a5.31 5.31 0 0 0-5.304-5.304h-74.254a5.304 5.304 0 1 1 0-10.608h74.254c8.774 0 15.912 7.138 15.912 15.912v166.188a5.304 5.304 0 0 1-5.304 5.304z" fill="#234957"/><path d="M342.32 359.232H55.912c-8.773 0-15.912-7.137-15.912-15.912v-17.68a5.304 5.304 0 0 1 5.304-5.303h307.624a5.304 5.304 0 0 1 5.304 5.304v17.68c0 8.774-7.137 15.911-15.912 15.911zM50.608 330.945v12.375a5.31 5.31 0 0 0 5.304 5.304H342.32a5.31 5.31 0 0 0 5.304-5.304v-12.375H50.608z" fill="#234957"/><path d="M245.083 341.552h-91.934c-8.772 0-15.911-7.137-15.911-15.911a5.304 5.304 0 1 1 10.607 0 5.31 5.31 0 0 0 5.304 5.304h91.934a5.31 5.31 0 0 0 5.304-5.304 5.304 5.304 0 1 1 10.607 0c0 8.774-7.137 15.911-15.911 15.911zM331.713 171.829H66.519a5.304 5.304 0 1 1 0-10.608h265.194a5.304 5.304 0 1 1 0 10.608z" fill="#234957"/><g><path d="M154.51 75.37c19.413 12.622 32.23 34.474 32.23 59.332 0 39.054-31.664 70.718-70.718 70.718s-70.718-31.664-70.718-70.718 31.664-70.719 70.718-70.719c14.197 0 27.421 4.19 38.488 11.386z" fill="#F6FAFC"/><path d="M154.88 75.625c5.656 10.164 8.877 21.866 8.877 34.325 0 39.054-31.664 70.719-70.718 70.719a70.37 70.37 0 0 1-38.837-11.628c12.079 21.694 35.23 36.379 61.82 36.379 39.054 0 70.718-31.664 70.718-70.718 0-24.697-12.66-46.416-31.86-59.077z" fill="#E6F0F4"/><g fill="#234957"><path d="M116.022 210.724C74.104 210.724 40 176.62 40 134.702c0-41.919 34.104-76.022 76.022-76.022 14.752 0 29.06 4.234 41.38 12.244 21.692 14.103 34.642 37.948 34.642 63.778 0 41.918-34.104 76.022-76.022 76.022zm0-141.437c-36.07 0-65.414 29.345-65.414 65.415 0 36.07 29.344 65.414 65.414 65.414s65.414-29.345 65.414-65.414c0-22.227-11.146-42.746-29.816-54.887-10.594-6.886-22.904-10.528-35.598-10.528z"/><path d="M116.022 69.287a5.304 5.304 0 0 1-5.304-5.304v-17.68a5.304 5.304 0 1 1 10.608 0v17.68a5.304 5.304 0 0 1-5.304 5.304z"/><path d="M124.862 51.608h-17.68a5.304 5.304 0 1 1 0-10.608h17.68a5.304 5.304 0 1 1 0 10.608zM77.307 80.814a5.292 5.292 0 0 1-4.077-1.907l-8.132-9.76a5.305 5.305 0 1 1 8.15-6.792l8.133 9.76a5.305 5.305 0 0 1-4.074 8.7zM154.385 80.814a5.304 5.304 0 0 1-3.974-8.813l.123-.14 7.908-9.502a5.308 5.308 0 0 1 7.47-.683 5.307 5.307 0 0 1 .682 7.472l-8.231 9.874a5.292 5.292 0 0 1-3.978 1.792zM116.022 141.773a5.304 5.304 0 0 1-5.304-5.303V97.575a5.304 5.304 0 1 1 10.608 0v38.895a5.304 5.304 0 0 1-5.304 5.303z"/><path d="M144.31 141.773h-28.288a5.304 5.304 0 1 1 0-10.607h28.287a5.304 5.304 0 1 1 0 10.607z"/></g></g></g></svg>