<?xml version="1.0" encoding="UTF-8" standalone="no"?><svg width="400" height="400" viewBox="0 0 400 400" xmlns="http://www.w3.org/2000/svg"><title>message</title><g fill="none" fill-rule="evenodd"><path d="M276.444 282.324c0 21.423-17.368 39.343-38.79 39.343H123.555l-39.112 32.729v-32.73c-21.422 0-39.11-17.92-39.11-39.342v-111.52c0-21.422 17.368-39.36 38.79-39.36h153.529c21.423 0 38.791 17.938 38.791 39.36V282.324z" fill="#F6FAFC"/><path d="M354.667 83.693v111.52c0 21.423-17.334 38.791-38.756 38.791l-.355.09v33.19l-39.112-33.19v-63.29c0-21.422-17.368-39.36-38.79-39.36H123.555v-47.75c0-21.423 17.368-39.36 38.79-39.36h153.53c21.422 0 38.79 17.937 38.79 39.36z" fill="#E6F0F4"/><path fill="#D8E5EA" d="M123.556 111.889h119.111v19.556H123.556zM274.667 238.191V108.253H296V231l19.556 16v16z"/><path d="M84.444 359.729a5.332 5.332 0 0 1-5.332-5.333V326.68c-22-2.656-39.11-21.534-39.11-44.356v-111.52C40 146.16 59.794 126.111 84.124 126.111h153.53c24.33 0 44.124 20.048 44.124 44.693v63.291c0 .078-.002.155-.006.231.004.077.006.153.006.231v47.77c0 24.632-19.794 44.675-44.125 44.675h-112.16l-37.626 31.486a5.334 5.334 0 0 1-3.423 1.24zm-.32-222.951c-18.45 0-33.457 15.264-33.457 34.026v111.52c0 18.434 15.468 34.01 33.777 34.01a5.333 5.333 0 0 1 5.334 5.333v21.312l30.355-25.403a5.33 5.33 0 0 1 3.423-1.243h114.097c18.448 0 33.458-15.257 33.458-34.009v-47.768c0-.079.002-.155.005-.232a4.955 4.955 0 0 1-.005-.23v-63.29c0-18.762-15.008-34.026-33.458-34.026H84.124z" fill="#234957"/><path d="M173.333 195.444H98.667a5.333 5.333 0 1 1 0-10.666h74.666a5.333 5.333 0 1 1 0 10.666zM223.111 234.556H98.667a5.333 5.333 0 1 1 0-10.667H223.11a5.333 5.333 0 1 1 0 10.667zM143.111 273.667H98.667a5.333 5.333 0 1 1 0-10.667h44.444a5.333 5.333 0 1 1 0 10.667zM315.556 272.618c-1.241 0-2.47-.432-3.451-1.268l-37.428-31.762a5.334 5.334 0 0 1-3.566-5.032v-.463a5.336 5.336 0 0 1 3.093-4.84 5.323 5.323 0 0 1 5.691.775l30.327 25.736v-21.67a5.332 5.332 0 0 1 4.046-5.176l.356-.089a5.327 5.327 0 0 1 1.287-.158c18.429 0 33.422-15.008 33.422-33.458V83.693c0-18.762-15.008-34.026-33.457-34.026h-153.53c-18.45 0-33.457 15.264-33.457 34.026v47.751a5.333 5.333 0 1 1-10.667 0v-47.75c0-24.646 19.794-44.694 44.125-44.694h153.529C340.206 39 360 59.048 360 83.693v111.52c0 22.646-17.136 41.364-39.111 43.846v28.225a5.336 5.336 0 0 1-5.333 5.334z" fill="#234957"/><g transform="translate(180.444 71)"><path d="M90.667 65.778H.044C.032 66.372 0 66.96 0 67.556c0 44.18 35.819 80 80 80 3.62 0 7.175-.264 10.667-.73V65.779z" fill="#E6F0F4"/><circle fill="#FBB735" cx="79.408" cy="66.964" r="61.63"/><path d="M56.297 104.297c0-34.036 27.593-61.63 61.63-61.63a61.49 61.49 0 0 1 19.378 3.127c-8.637-23.61-31.3-40.46-57.897-40.46-34.037 0-61.63 27.592-61.63 61.63 0 27.264 17.712 50.376 42.25 58.503a61.527 61.527 0 0 1-3.731-21.17z" fill="#FFD366"/><path d="M108.444 56.889a5.333 5.333 0 0 1-5.333-5.333 5.34 5.34 0 0 0-5.333-5.334 5.34 5.34 0 0 0-5.334 5.334 5.333 5.333 0 1 1-10.666 0c0-8.824 7.178-16 16-16 8.821 0 16 7.176 16 16a5.333 5.333 0 0 1-5.334 5.333zM72.889 56.889a5.333 5.333 0 0 1-5.333-5.333 5.34 5.34 0 0 0-5.334-5.334 5.34 5.34 0 0 0-5.333 5.334 5.333 5.333 0 1 1-10.667 0c0-8.824 7.179-16 16-16 8.822 0 16 7.176 16 16a5.333 5.333 0 0 1-5.333 5.333z" fill="#234957"/><path d="M80 135.111c-37.25 0-67.556-30.306-67.556-67.555C12.444 30.306 42.75 0 80 0s67.556 30.306 67.556 67.556S117.25 135.11 80 135.11zm0-124.444c-31.369 0-56.889 25.52-56.889 56.889 0 31.368 25.52 56.888 56.889 56.888 31.369 0 56.889-25.52 56.889-56.888 0-31.37-25.52-56.89-56.889-56.89z" fill="#234957"/><path d="M80 112c-24.507 0-44.444-19.938-44.444-44.444a5.333 5.333 0 1 1 10.666 0c0 18.625 15.152 33.777 33.778 33.777 18.626 0 33.778-15.152 33.778-33.777a5.333 5.333 0 1 1 10.666 0C124.444 92.062 104.507 112 80 112z" fill="#234957"/></g><path d="M212.444 78.111a5.333 5.333 0 0 1-5.333-5.333V62.11a5.333 5.333 0 1 1 10.667 0v10.667a5.333 5.333 0 0 1-5.334 5.333zM194.667 84.618c-1.366 0-2.731-.521-3.771-1.563l-10.062-10.062a5.33 5.33 0 0 1 0-7.541 5.33 5.33 0 0 1 7.541 0l10.062 10.062a5.33 5.33 0 0 1 0 7.541 5.311 5.311 0 0 1-3.77 1.563zM187.556 103h-10.667a5.333 5.333 0 1 1 0-10.667h10.667a5.333 5.333 0 1 1 0 10.667z" fill="#234957"/></g></svg>