<?xml version="1.0" encoding="UTF-8" standalone="no"?>
<svg width="400px" height="400px" viewBox="0 0 400 400" version="1.1" xmlns="http://www.w3.org/2000/svg" xmlns:xlink="http://www.w3.org/1999/xlink">
    <!-- Generator: Sketch 3.8.3 (29802) - http://www.bohemiancoding.com/sketch -->
    <title>message</title>
    <desc>Created with Sketch.</desc>
    <defs></defs>
    <g id="Page-1" stroke="none" stroke-width="1" fill="none" fill-rule="evenodd">
        <g id="message">
            <g transform="translate(40.000000, 39.000000)" id="Layer_4">
                <g>
                    <g id="Group">
                        <path d="M236.444444,243.324444 C236.444444,264.746667 219.075556,282.666667 197.653333,282.666667 L83.5555556,282.666667 L44.4444444,315.395556 L44.4444444,282.666667 C23.0222222,282.666667 5.33333333,264.746667 5.33333333,243.324444 L5.33333333,131.804444 C5.33333333,110.382222 22.7022222,92.4444444 44.1244444,92.4444444 L83.5555556,92.4444444 L197.653333,92.4444444 C219.075556,92.4444444 236.444444,110.382222 236.444444,131.804444 L236.444444,195.093333 L236.444444,195.555556 L236.444444,243.324444 L236.444444,243.324444 Z" id="Shape" fill="#F6FAFC"></path>
                        <path d="M314.666667,44.6933333 L314.666667,156.213333 C314.666667,177.635556 297.333333,195.004444 275.911111,195.004444 L275.555556,195.093333 L275.555556,228.284444 L236.444444,195.093333 L236.444444,131.804444 C236.444444,110.382222 219.075556,92.4444444 197.653333,92.4444444 L83.5555556,92.4444444 L83.5555556,44.6933333 C83.5555556,23.2711111 100.924444,5.33333333 122.346667,5.33333333 L275.875556,5.33333333 C297.297778,5.33333333 314.666667,23.2711111 314.666667,44.6933333 L314.666667,44.6933333 Z" id="Shape" fill="#E6F0F4"></path>
                        <rect id="Rectangle-path" fill="#D8E5EA" x="83.5555556" y="72.8888889" width="119.111111" height="19.5555556"></rect>
                        <polygon id="Shape" fill="#D8E5EA" points="234.666667 199.191111 234.666667 69.2533333 256 69.2533333 256 192 275.555556 208 275.555556 224"></polygon>
                        <path d="M44.4444444,320.728889 C43.6782222,320.728889 42.9084444,320.563556 42.1884444,320.227556 C40.3111111,319.351111 39.1128889,317.466667 39.1128889,315.395556 L39.1128889,287.68 C17.1111111,285.024 0.00177777778,266.145778 0.00177777778,243.324444 L0.00177777778,131.804444 C0,107.159111 19.7937778,87.1111111 44.1244444,87.1111111 L197.653333,87.1111111 C221.984,87.1111111 241.777778,107.159111 241.777778,131.804444 L241.777778,195.095111 C241.777778,195.173333 241.776,195.249778 241.772444,195.326222 C241.776,195.402667 241.777778,195.479111 241.777778,195.557333 L241.777778,243.326222 C241.777778,267.959111 221.984,288.001778 197.653333,288.001778 L85.4933333,288.001778 L47.8666667,319.488 C46.8888889,320.305778 45.6711111,320.728889 44.4444444,320.728889 L44.4444444,320.728889 Z M44.1244444,97.7777778 C25.6746667,97.7777778 10.6666667,113.041778 10.6666667,131.804444 L10.6666667,243.324444 C10.6666667,261.758222 26.1351111,277.333333 44.4444444,277.333333 C47.3902222,277.333333 49.7777778,279.720889 49.7777778,282.666667 L49.7777778,303.978667 L80.1333333,278.576 C81.0933333,277.772444 82.304,277.333333 83.5555556,277.333333 L197.653333,277.333333 C216.101333,277.333333 231.111111,262.076444 231.111111,243.324444 L231.111111,195.555556 C231.111111,195.477333 231.112889,195.400889 231.116444,195.324444 C231.112889,195.248 231.111111,195.171556 231.111111,195.093333 L231.111111,131.804444 C231.111111,113.041778 216.103111,97.7777778 197.653333,97.7777778 L44.1244444,97.7777778 L44.1244444,97.7777778 Z" id="Shape" fill="#234957"></path>
                        <path d="M133.333333,156.444444 L58.6666667,156.444444 C55.7208889,156.444444 53.3333333,154.056889 53.3333333,151.111111 C53.3333333,148.165333 55.7208889,145.777778 58.6666667,145.777778 L133.333333,145.777778 C136.279111,145.777778 138.666667,148.165333 138.666667,151.111111 C138.666667,154.056889 136.279111,156.444444 133.333333,156.444444 L133.333333,156.444444 Z" id="Shape" fill="#234957"></path>
                        <path d="M183.111111,195.555556 L58.6666667,195.555556 C55.7208889,195.555556 53.3333333,193.168 53.3333333,190.222222 C53.3333333,187.276444 55.7208889,184.888889 58.6666667,184.888889 L183.111111,184.888889 C186.056889,184.888889 188.444444,187.276444 188.444444,190.222222 C188.444444,193.168 186.056889,195.555556 183.111111,195.555556 L183.111111,195.555556 Z" id="Shape" fill="#234957"></path>
                        <path d="M103.111111,234.666667 L58.6666667,234.666667 C55.7208889,234.666667 53.3333333,232.279111 53.3333333,229.333333 C53.3333333,226.387556 55.7208889,224 58.6666667,224 L103.111111,224 C106.056889,224 108.444444,226.387556 108.444444,229.333333 C108.444444,232.279111 106.056889,234.666667 103.111111,234.666667 L103.111111,234.666667 Z" id="Shape" fill="#234957"></path>
                        <path d="M275.555556,233.617778 C274.314667,233.617778 273.086222,233.185778 272.104889,232.350222 L234.677333,200.588444 C232.600889,199.859556 231.111111,197.882667 231.111111,195.555556 L231.111111,195.093333 C231.111111,193.015111 232.318222,191.127111 234.204444,190.252444 C236.090667,189.377778 238.311111,189.68 239.895111,191.027556 L270.222222,216.764444 L270.222222,195.093333 C270.222222,192.643556 271.889778,190.510222 274.268444,189.918222 L274.624,189.829333 C275.045333,189.724444 275.477333,189.671111 275.911111,189.671111 C294.339556,189.671111 309.333333,174.663111 309.333333,156.213333 L309.333333,44.6933333 C309.333333,25.9306667 294.325333,10.6666667 275.875556,10.6666667 L122.346667,10.6666667 C103.896889,10.6666667 88.8888889,25.9306667 88.8888889,44.6933333 L88.8888889,92.4444444 C88.8888889,95.3902222 86.5013333,97.7777778 83.5555556,97.7777778 C80.6097778,97.7777778 78.2222222,95.3902222 78.2222222,92.4444444 L78.2222222,44.6933333 C78.2222222,20.048 98.016,0 122.346667,0 L275.875556,0 C300.206222,0 320,20.048 320,44.6933333 L320,156.213333 C320,178.858667 302.864,197.576889 280.888889,200.058667 L280.888889,228.284444 C280.888889,230.362667 279.681778,232.250667 277.795556,233.125333 C277.079111,233.456 276.316444,233.617778 275.555556,233.617778 L275.555556,233.617778 Z" id="Shape" fill="#234957"></path>
                        <g transform="translate(140.444444, 32.000000)">
                            <path d="M90.6666667,65.7777778 L0.0444444444,65.7777778 C0.032,66.3715556 0,66.96 0,67.5555556 C0,111.736889 35.8186667,147.555556 80,147.555556 C83.6195556,147.555556 87.1751111,147.292444 90.6666667,146.826667 L90.6666667,65.7777778 L90.6666667,65.7777778 Z" id="Shape" fill="#E6F0F4"></path>
                            <circle id="Oval" fill="#FBB735" cx="79.408" cy="66.9635556" r="61.6302222"></circle>
                            <path d="M56.2968889,104.296889 C56.2968889,70.2613333 83.8897778,42.6666667 117.927111,42.6666667 C124.700444,42.6666667 131.208889,43.7742222 137.304889,45.7937778 C128.668444,22.1848889 106.005333,5.33333333 79.408,5.33333333 C45.3706667,5.33333333 17.7777778,32.9262222 17.7777778,66.9635556 C17.7777778,94.2275556 35.4897778,117.340444 60.0284444,125.466667 C57.6142222,118.864 56.2968889,111.733333 56.2968889,104.296889 L56.2968889,104.296889 Z" id="Shape" fill="#FFD366"></path>
                            <path d="M108.444444,56.8888889 C105.498667,56.8888889 103.111111,54.5013333 103.111111,51.5555556 C103.111111,48.6151111 100.718222,46.2222222 97.7777778,46.2222222 C94.8373333,46.2222222 92.4444444,48.6151111 92.4444444,51.5555556 C92.4444444,54.5013333 90.0568889,56.8888889 87.1111111,56.8888889 C84.1653333,56.8888889 81.7777778,54.5013333 81.7777778,51.5555556 C81.7777778,42.7324444 88.9564444,35.5555556 97.7777778,35.5555556 C106.599111,35.5555556 113.777778,42.7324444 113.777778,51.5555556 C113.777778,54.5013333 111.390222,56.8888889 108.444444,56.8888889 L108.444444,56.8888889 Z" id="Shape" fill="#234957"></path>
                            <path d="M72.8888889,56.8888889 C69.9431111,56.8888889 67.5555556,54.5013333 67.5555556,51.5555556 C67.5555556,48.6151111 65.1626667,46.2222222 62.2222222,46.2222222 C59.2817778,46.2222222 56.8888889,48.6151111 56.8888889,51.5555556 C56.8888889,54.5013333 54.5013333,56.8888889 51.5555556,56.8888889 C48.6097778,56.8888889 46.2222222,54.5013333 46.2222222,51.5555556 C46.2222222,42.7324444 53.4008889,35.5555556 62.2222222,35.5555556 C71.0435556,35.5555556 78.2222222,42.7324444 78.2222222,51.5555556 C78.2222222,54.5013333 75.8346667,56.8888889 72.8888889,56.8888889 L72.8888889,56.8888889 Z" id="Shape" fill="#234957"></path>
                            <path d="M80,135.111111 C42.7502222,135.111111 12.4444444,104.805333 12.4444444,67.5555556 C12.4444444,30.3057778 42.7502222,0 80,0 C117.249778,0 147.555556,30.3057778 147.555556,67.5555556 C147.555556,104.805333 117.249778,135.111111 80,135.111111 L80,135.111111 Z M80,10.6666667 C48.6311111,10.6666667 23.1111111,36.1866667 23.1111111,67.5555556 C23.1111111,98.9244444 48.6311111,124.444444 80,124.444444 C111.368889,124.444444 136.888889,98.9244444 136.888889,67.5555556 C136.888889,36.1866667 111.368889,10.6666667 80,10.6666667 L80,10.6666667 Z" id="Shape" fill="#234957"></path>
                            <path d="M80,112 C55.4933333,112 35.5555556,92.0622222 35.5555556,67.5555556 C35.5555556,64.6097778 37.9431111,62.2222222 40.8888889,62.2222222 C43.8346667,62.2222222 46.2222222,64.6097778 46.2222222,67.5555556 C46.2222222,86.1813333 61.3742222,101.333333 80,101.333333 C98.6257778,101.333333 113.777778,86.1813333 113.777778,67.5555556 C113.777778,64.6097778 116.165333,62.2222222 119.111111,62.2222222 C122.056889,62.2222222 124.444444,64.6097778 124.444444,67.5555556 C124.444444,92.0622222 104.506667,112 80,112 L80,112 Z" id="Shape" fill="#234957"></path>
                        </g>
                        <path d="M172.444444,39.1111111 C169.498667,39.1111111 167.111111,36.7235556 167.111111,33.7777778 L167.111111,23.1111111 C167.111111,20.1653333 169.498667,17.7777778 172.444444,17.7777778 C175.390222,17.7777778 177.777778,20.1653333 177.777778,23.1111111 L177.777778,33.7777778 C177.777778,36.7235556 175.390222,39.1111111 172.444444,39.1111111 L172.444444,39.1111111 Z" id="Shape" fill="#234957"></path>
                        <path d="M154.666667,45.6177778 C153.301333,45.6177778 151.936,45.0968889 150.896,44.0551111 L140.833778,33.9928889 C138.750222,31.9111111 138.750222,28.5333333 140.833778,26.4515556 C142.915556,24.368 146.293333,24.368 148.375111,26.4515556 L158.437333,36.5137778 C160.520889,38.5955556 160.520889,41.9733333 158.437333,44.0551111 C157.397333,45.0968889 156.032,45.6177778 154.666667,45.6177778 L154.666667,45.6177778 Z" id="Shape" fill="#234957"></path>
                        <path d="M147.555556,64 L136.888889,64 C133.943111,64 131.555556,61.6124444 131.555556,58.6666667 C131.555556,55.7208889 133.943111,53.3333333 136.888889,53.3333333 L147.555556,53.3333333 C150.501333,53.3333333 152.888889,55.7208889 152.888889,58.6666667 C152.888889,61.6124444 150.501333,64 147.555556,64 L147.555556,64 Z" id="Shape" fill="#234957"></path>
                    </g>
                </g>
            </g>
        </g>
    </g>
</svg>