<?xml version="1.0" encoding="UTF-8" standalone="no"?><svg width="400" height="400" viewBox="0 0 400 400" xmlns="http://www.w3.org/2000/svg"><title>onboard-complete</title><g fill="none" fill-rule="evenodd"><path d="M266.037 95.135c35.28 22.87 58.681 62.759 58.681 107.966 0 71.091-57.617 128.708-128.708 128.708-71.091 0-128.708-57.617-128.708-128.708 0-71.09 57.617-128.708 128.708-128.708 25.883 0 49.817 7.623 70.027 20.742z" fill="#F6FAFC"/><path d="M196.01 285.893c13.828 0 24.82-11.346 24.82-24.997v-1.95c26.592 4.964 51.412 17.905 70.381 36.166-21.274 16.842-47.157 28.365-75.345 32.265-6.914.887-14.006 1.419-21.097 1.419-4.61 0-9.219-.178-13.828-.71-12.587-1.063-24.643-3.723-36.166-7.623-15.424-5.141-29.784-12.764-42.548-22.338-.887-.709-1.596-1.24-2.482-1.95 19.146-18.615 43.08-32.088 71.445-37.052v1.95c0 6.914 2.66 13.12 7.269 17.728 4.432 4.255 10.637 7.092 17.55 7.092z" fill="#EA5F6E"/><path d="M201.506 330.923s-6.914-22.338-1.773-44.498h7.623l11.524 38.648-17.374 5.85zM294.757 294.225c-7.091 4.432-19.856 13.12-29.784 18.26-13.828-17.019-27.479-31.379-47.866-42.37 1.24-3.546 2.127-7.446 2.127-11.347v-2.659c29.961 5.319 51.59 20.033 75.523 38.116z" fill="#D34A5E"/><path d="M96.022 295.466c7.091 4.432 17.905 11.17 27.833 16.31 16.488-15.955 35.457-29.074 56.554-38.648-1.241-3.545-2.128-7.446-2.128-11.346v-2.659c-30.138 5.673-58.326 18.26-82.26 36.343z" fill="#FF667C"/><path d="M291.389 300.607c-1.241 0-2.66-.531-3.723-1.418-18.792-18.083-42.194-30.138-67.546-34.748-2.836-.531-4.786-3.368-4.254-6.204.532-2.837 3.368-4.787 6.205-4.255 27.479 5.141 52.653 18.083 72.863 37.584 2.128 1.95 2.128 5.318.178 7.446-.887 1.064-2.305 1.595-3.723 1.595zM99.567 301.848c-1.418 0-2.659-.531-3.723-1.595-2.127-2.128-2.127-5.496 0-7.446 20.388-20.21 45.917-33.507 74.282-38.825 2.837-.532 5.674 1.418 6.205 4.255.532 2.836-1.418 5.673-4.254 6.204-26.061 4.964-49.817 17.374-68.61 35.99-1.24.886-2.481 1.417-3.9 1.417z" fill="#234957"/><path d="M278.092 76.698C254.514 61.274 226.325 52.41 196.01 52.41c-83.146 0-150.691 67.545-150.691 150.691s67.545 150.692 150.69 150.692c83.147 0 150.692-67.546 150.692-150.692 0-53.008-27.301-99.456-68.609-126.403zM196.01 331.809c-71.091 0-128.708-57.617-128.708-128.708 0-71.09 57.617-128.708 128.708-128.708 25.883 0 49.817 7.623 70.027 20.742 35.28 22.87 58.681 62.759 58.681 107.966 0 71.091-57.617 128.708-128.708 128.708z" fill="#E6F0F4"/><ellipse cx="7.978" cy="7.978" rx="7.978" ry="7.978" transform="translate(298.835 110.914)" fill="#3EB38A"/><path d="M307.699 135.733c-4.432 0-8.864-1.95-11.878-5.318-1.95-2.128-1.773-5.496.354-7.446 2.128-1.95 5.496-1.773 7.446.354 1.064 1.241 2.482 1.773 4.078 1.773 3.014 0 5.318-2.304 5.318-5.318 0-2.66-.354-3.546-.886-4.255-1.773-2.305-1.241-5.673 1.064-7.446 2.304-1.773 5.673-1.241 7.445 1.064 2.66 3.545 3.014 7.446 3.014 10.637a15.89 15.89 0 0 1-15.955 15.955z" fill="#234957"/><path d="M300.962 277.383c-23.224 32.975-61.695 54.426-104.952 54.426-71.091 0-128.708-57.617-128.708-128.708 0-71.09 57.617-128.708 128.708-128.708 25.883 0 49.817 7.623 70.027 20.742 7.8 5.142 26.238 25.175 32.798 31.734l17.728-14.183c-7.446-7.446-29.606-30.138-38.47-35.988-23.58-15.424-51.768-24.288-82.083-24.288-83.146 0-150.691 67.545-150.691 150.691s67.545 150.692 150.69 150.692c54.604 0 102.471-29.075 128.886-72.51l-23.933-3.9z" fill="#3EB38A"/><path d="M205.229 330.746s7.091 16.842 14.714 21.096l23.402-8.686-16.31-15.247-21.806 2.837z" fill="#2A9E71"/><path d="M196.01 337.128c-73.928 0-134.027-60.1-134.027-134.027 0-73.927 60.1-134.026 134.027-134.026 25.883 0 51.235 7.445 72.864 21.628 38.293 24.82 61.163 66.836 61.163 112.398 0 73.928-60.1 134.027-134.027 134.027zm0-257.416c-68.077 0-123.39 55.312-123.39 123.39 0 68.076 55.313 123.389 123.39 123.389S319.4 271.178 319.4 203.1c0-42.016-21.097-80.664-56.2-103.534-20.033-12.941-43.257-19.855-67.19-19.855z" fill="#234957"/><path d="M196.01 359.111c-85.983 0-156.01-70.027-156.01-156.01 0-85.982 70.027-156.01 156.01-156.01 30.493 0 59.922 8.687 84.919 25.175 44.498 29.074 71.09 78.005 71.09 130.835 0 85.983-70.026 156.01-156.01 156.01zm0-301.383c-80.132 0-145.373 65.24-145.373 145.373s65.24 145.373 145.373 145.373c80.132 0 145.373-65.24 145.373-145.373 0-49.285-24.82-94.847-66.127-121.971-23.579-15.247-50.88-23.402-79.246-23.402z" fill="#234957"/><g transform="translate(102.938 141.052)"><ellipse fill="#F4CEAE" cx="21.803" cy="21.629" rx="16.31" ry="16.31"/><path d="M21.803 43.257C9.925 43.257.175 33.507.175 21.63S9.925 0 21.803 0s21.63 9.75 21.63 21.629c0 11.878-9.752 21.628-21.63 21.628zm0-32.62c-6.027 0-10.991 4.964-10.991 10.992 0 6.027 4.964 10.991 10.991 10.991 6.028 0 10.992-4.964 10.992-10.991 0-6.028-4.964-10.992-10.992-10.992z" fill="#234957"/></g><g transform="translate(245.65 141.052)"><ellipse fill="#EEB490" cx="22.16" cy="21.629" rx="16.31" ry="16.31"/><path d="M22.16 43.257C10.282 43.257.532 33.507.532 21.63S10.282 0 22.16 0C34.04 0 43.79 9.75 43.79 21.629c0 11.878-9.751 21.628-21.63 21.628zm0-32.62c-6.027 0-10.991 4.964-10.991 10.992 0 6.027 4.964 10.991 10.991 10.991 6.028 0 10.992-4.964 10.992-10.991 0-6.028-4.964-10.992-10.992-10.992z" fill="#234957"/></g><path d="M220.83 258.414v1.95c0 13.828-11.17 24.997-24.82 24.997-6.914 0-12.942-2.837-17.551-7.269-4.432-4.609-7.269-10.814-7.269-17.728V246.89c7.8 3.014 16.133.887 24.82.887 8.687 0 17.02 2.127 24.82-.887V258.414z" fill="#EEB490"/><path d="M221.007 247.068c-1.418 12.41-12.055 22.16-24.82 22.16-6.914 0-13.119-2.836-17.728-7.268-3.9-3.9-6.56-9.042-7.092-14.715V260.718c0 6.915 2.837 13.12 7.269 17.729 4.61 4.432 10.637 7.269 17.551 7.269 13.828 0 24.82-11.347 24.82-24.997v-13.651c-.177 0 0 0 0 0z" fill="#F4CEAE"/><path d="M196.364 291.566c-8.155 0-15.955-3.368-21.45-9.396-5.851-6.028-9.042-13.828-9.042-21.629v-13.119c0-3.014 2.304-5.318 5.318-5.318s5.319 2.304 5.319 5.318v13.12c0 6.913 3.9 12.055 6.205 14.36a18.41 18.41 0 0 0 13.65 6.027c10.637 0 19.147-9.219 19.147-20.388v-13.119c0-3.014 2.305-5.318 5.319-5.318 3.013 0 5.318 2.304 5.318 5.318v13.12c0 17.018-13.296 31.024-29.784 31.024z" fill="#234957"/><path d="M266.923 121.55v62.405c0 30.315-19.146 56.199-45.916 66.481-7.8 2.837-16.133 4.432-24.82 4.432-8.687 0-17.196-1.595-24.82-4.432-9.573-3.546-18.083-9.219-25.174-16.31-12.764-12.942-20.92-30.493-20.92-50.171V129.35c3.546-1.064 18.97-5.496 26.416-5.496l115.234-2.304z" fill="#F4CEAE"/><path d="M126.87 122.082v20.743l115.056 7.8c0 30.316-19.146 68.61-45.916 78.714-7.8 2.837-16.133 4.432-24.82 4.432-8.687 0-17.196-1.595-24.82-4.432-2.304-.886-4.432-1.773-6.56-2.836a64.215 64.215 0 0 0 6.383 7.446c7.091 7.091 15.601 12.764 25.174 16.31 7.8 2.836 16.133 4.432 24.82 4.432 8.687 0 17.02-1.596 24.82-4.432 26.77-10.105 45.916-36.166 45.916-66.482v-62.226l-140.054.531z" fill="#EEB490"/><path d="M196.01 228.098c-9.75 0-19.147-3.723-26.238-10.637-2.128-2.127-2.128-5.496-.177-7.446 2.127-2.127 5.495-2.127 7.445-.177 5.142 4.964 11.879 7.8 18.793 7.8 7.268 0 14.182-2.836 19.146-8.155 2.128-2.127 5.496-2.127 7.446-.177 2.128 2.128 2.128 5.496.177 7.446-6.914 7.269-16.31 11.346-26.592 11.346zM197.783 196.01h-3.546c-3.014 0-5.318-2.305-5.318-5.319 0-3.013 2.304-5.318 5.318-5.318h3.546c3.014 0 5.318 2.305 5.318 5.318 0 3.014-2.304 5.319-5.318 5.319zM166.758 176.686a9.534 9.534 0 0 1-9.573-9.573 9.534 9.534 0 0 1 9.573-9.574 9.534 9.534 0 0 1 9.573 9.574 9.534 9.534 0 0 1-9.573 9.573zm0-10.637c-.71 0-1.064.354-1.064 1.064 0 .709.355 1.063 1.064 1.063.71 0 1.064-.354 1.064-1.063 0-.71-.355-1.064-1.064-1.064zM225.262 176.686a9.534 9.534 0 0 1-9.574-9.573 9.534 9.534 0 0 1 9.574-9.574 9.534 9.534 0 0 1 9.573 9.574 9.534 9.534 0 0 1-9.573 9.573zm0-10.637c-.71 0-1.064.354-1.064 1.064 0 .709.355 1.063 1.064 1.063.709 0 1.063-.354 1.063-1.063 0-.71-.354-1.064-1.063-1.064z" fill="#234957"/><path d="M217.461 149.03c4.787-.355 10.105 0 14.715 0a23.001 23.001 0 0 1 23.047 23.047 23.001 23.001 0 0 1-23.047 23.046c-11.17 0-26.06-12.232-29.43-28.542-.531-2.305-.708-4.61-.708-6.914 0-7.978 7.09-10.106 15.423-10.637z" fill="#4E676D"/><path d="M221.716 196.364l-7.269-4.077 14.892-45.917 8.687-.354zM241.926 196.719l-10.282.355 14.715-45.74 7.8 7.269z" fill="#608287"/><path d="M174.204 149.03c8.332.531 15.424 2.659 15.424 10.637 0 2.659-.355 5.318-1.064 7.977-3.9 15.779-18.26 27.48-29.252 27.48a23.001 23.001 0 0 1-23.047-23.047 23.001 23.001 0 0 1 23.047-23.047c4.787.177 10.105-.178 14.892 0z" fill="#4E676D"/><path d="M157.007 196.719l-14.005-4.432 14.892-45.917h15.424z" fill="#608287"/><path d="M160.376 200.442c-15.424 0-27.834-12.587-27.834-28.01 0-15.425 12.41-28.012 27.834-28.012h14.714c13.297.887 20.033 6.205 20.033 15.779 0 3.722-.354 6.559-1.063 9.218-4.078 16.488-19.679 31.025-33.684 31.025zm9.573-45.385H160.375c-9.395 0-17.196 7.8-17.196 17.374 0 9.573 7.8 17.374 17.197 17.374 8.155 0 20.21-10.105 23.401-23.047v-.177c.532-1.596.71-3.546.71-6.382 0-1.95 0-4.433-10.106-5.142h-4.432zM232.176 200.442c-14.006 0-29.607-14.537-33.684-31.025-.887-3.368-1.064-6.914-1.064-9.218 0-9.574 6.737-14.892 20.033-15.779h.178c3.368-.177 6.736 0 10.105 0h4.432c15.424 0 27.833 12.587 27.833 28.011s-12.41 28.011-27.833 28.011zm-14.006-45.385c-10.105.71-10.105 3.191-10.105 5.142 0 2.659.177 4.786.71 6.382v.177c3.19 12.942 15.068 23.047 23.4 23.047 9.397 0 17.197-7.8 17.197-17.374 0-9.573-7.8-17.374-17.196-17.374h-4.61c-3.19 0-6.382-.177-9.396 0z" fill="#234957"/><path d="M226.148 155.235h-58.504c-3.013 0-5.318-2.305-5.318-5.319s2.305-5.318 5.318-5.318h58.504c3.014 0 5.319 2.304 5.319 5.318s-2.305 5.319-5.319 5.319zM203.101 171.19H188.92c-3.014 0-5.319-2.305-5.319-5.318 0-3.014 2.305-5.319 5.319-5.319H203.1c3.014 0 5.319 2.305 5.319 5.319 0 3.013-2.305 5.318-5.319 5.318z" fill="#234957"/><path d="M266.923 110.559v18.615c0-11.878-19.323-10.46-19.323-10.46l-123.39 6.382c-17.02.178-31.025-13.65-31.025-30.67V74.925c0-16.133 13.828-27.834 29.961-27.834h1.95v27.834c0-10.814 8.864-17.197 19.502-17.197v17.197l93.605 6.56c16.133-.178 28.72 12.941 28.72 29.074z" fill="#FBB735"/><path d="M155.235 94.426V73.684h-1.241c-5.319 0-9.396-3.9-14.715-1.418V69.96v24.288c0 14.183 9.573 26.06 22.515 29.784l-11.878.709c1.773.354 3.723.532 5.673.532l22.338-1.241c-12.942-3.546-22.692-15.424-22.692-29.607z" opacity=".5" fill="#FFCC6F"/><path d="M238.026 81.307l-17.374-1.24c14.183 3.9 24.997 17.018 24.997 32.265v6.56l2.305-.178s18.97-1.418 18.97 10.46v-18.615c0-16.133-12.765-29.252-28.898-29.252z" fill="#F93"/><path d="M119.778 94.426V47.091h-1.418c-16.133 0-28.72 11.701-28.72 27.834V94.426c0 17.02 13.473 30.848 30.492 30.848l22.338-1.241c-12.942-3.546-22.692-15.424-22.692-29.607z" fill="#FFD366"/><path d="M196.187 260.541c-9.041 0-18.083-1.595-26.77-4.786-10.105-3.723-19.146-9.574-27.124-17.552-14.36-14.182-22.338-33.329-22.338-53.717v-59.39c0-3.014 2.305-5.318 5.319-5.318 3.013 0 5.318 2.304 5.318 5.318v59.39c0 17.552 6.737 34.039 19.147 46.272 6.914 6.914 14.714 11.878 23.224 15.069 14.892 5.318 31.025 5.495 46.094 0 25.351-9.574 42.37-34.039 42.37-61.163v-73.75c0-3.014 2.305-5.319 5.32-5.319 3.013 0 5.318 2.305 5.318 5.319v73.75c0 31.379-19.856 60.099-49.285 71.09-8.687 3.192-17.551 4.787-26.593 4.787z" fill="#234957"/><path d="M266.923 135.733c-3.013 0-5.318-2.304-5.318-5.318 0-1.241-.355-1.95-1.064-2.837-2.659-2.482-8.864-3.545-12.41-3.368l-123.035 6.382h-.354c-20.388 0-36.875-15.955-36.875-35.634 0-3.014 2.304-5.318 5.318-5.318s5.319 2.304 5.319 5.318c0 13.828 11.7 24.997 26.06 24.997l123.036-6.382c1.595 0 13.65 0 20.21 6.382 2.836 2.837 4.255 6.382 4.255 10.46.177 3.014-2.128 5.318-5.142 5.318zM266.923 116.232c-3.013 0-5.318-2.305-5.318-5.318 0-13.651-10.105-24.288-23.047-24.288-3.014 0-5.318-2.305-5.318-5.319s2.304-5.318 5.318-5.318c18.97 0 33.684 15.423 33.684 34.925 0 3.013-2.305 5.318-5.319 5.318z" fill="#234957"/><path d="M93.185 100.277c-3.014 0-5.318-2.305-5.318-5.319V77.23c0-3.014 2.304-5.319 5.318-5.319s5.319 2.305 5.319 5.319v17.728c0 3.014-2.305 5.319-5.319 5.319zM238.558 86.626h-.355l-93.96-5.85c-3.014-.178-5.141-2.66-4.964-5.674.177-3.014 2.66-5.141 5.673-4.964l93.96 5.85c3.014.178 5.142 2.66 4.965 5.674-.178 2.836-2.482 4.964-5.319 4.964zM125.096 80.775c-3.014 0-5.318-2.304-5.318-5.318 0-13.297 10.46-23.047 24.82-23.047 3.013 0 5.318 2.305 5.318 5.318 0 3.014-2.305 5.319-5.318 5.319-6.915 0-14.183 3.9-14.183 12.41 0 3.014-2.305 5.318-5.319 5.318z" fill="#234957"/><path d="M144.598 80.775c-3.014 0-5.319-2.304-5.319-5.318V59.5c0-3.014 2.305-5.318 5.319-5.318 3.013 0 5.318 2.304 5.318 5.318v15.956c0 3.014-2.305 5.318-5.318 5.318zM93.185 80.775c-3.014 0-5.318-2.304-5.318-5.318 0-18.615 17.728-35.457 37.23-35.457 3.013 0 5.318 2.305 5.318 5.319 0 3.013-2.305 5.318-5.319 5.318-13.65 0-26.592 12.055-26.592 24.82 0 3.014-2.305 5.318-5.319 5.318z" fill="#234957"/><path d="M125.096 80.775c-3.014 0-5.318-2.304-5.318-5.318V45.319c0-3.014 2.304-5.319 5.318-5.319s5.319 2.305 5.319 5.319v30.138c0 3.014-2.305 5.318-5.319 5.318z" fill="#234957"/><g fill="#3EB38A"><path d="M284.652 215.511h-1.773c-8.864.177-17.197 2.128-24.82 5.319-24.997 10.46-42.548 35.102-42.548 63.822 0 28.72 17.551 53.362 42.548 63.822 7.623 3.191 15.956 4.964 24.82 5.319h1.773c38.116 0 69.14-31.025 69.14-69.141 0-38.116-31.024-69.14-69.14-69.14z"/></g><g fill="#2A9E71"><path d="M322.768 227.035c7.269 10.814 11.523 23.933 11.523 38.116 0 38.116-31.024 69.14-69.14 69.14h-1.773c-8.864-.177-17.197-2.127-24.82-5.318-4.078-1.773-7.978-3.723-11.523-6.205 7.623 11.346 18.26 20.388 31.024 25.706 7.623 3.191 15.956 4.964 24.82 5.319h1.773c38.116 0 69.14-31.025 69.14-69.141 0-24.11-12.232-45.208-31.024-57.617z"/></g><g fill="#234957"><path d="M284.652 359.111h-1.773c-9.041-.177-18.438-2.127-26.947-5.673-27.834-11.7-45.74-38.648-45.74-68.786 0-30.138 17.906-57.086 45.74-68.786 8.51-3.546 17.728-5.496 26.77-5.673h1.95c41.13 0 74.46 33.329 74.46 74.459s-33.33 74.46-74.46 74.46zm-1.773-138.281c-7.623.177-15.601 1.772-22.87 4.964-23.933 9.927-39.357 33.152-39.357 58.858 0 25.706 15.424 48.93 39.357 58.858 7.269 3.014 15.247 4.787 22.87 4.964h1.596c35.28 0 63.822-28.543 63.822-63.822 0-35.28-28.543-63.822-63.822-63.822h-1.596z"/></g><g fill="#234957"><path d="M279.333 309.472c-1.418 0-2.659-.532-3.723-1.596l-21.274-21.274c-2.127-2.127-2.127-5.496 0-7.446 2.128-2.127 5.496-2.127 7.446 0l21.274 21.274c2.128 2.128 2.128 5.496 0 7.446-1.063 1.064-2.304 1.596-3.723 1.596z"/></g><g fill="#234957"><path d="M279.333 309.472c-1.418 0-2.659-.532-3.723-1.596-2.127-2.127-2.127-5.496 0-7.446l35.457-35.457c2.128-2.127 5.496-2.127 7.446 0 2.127 2.128 2.127 5.496 0 7.446l-35.457 35.457c-1.063 1.064-2.304 1.596-3.723 1.596z"/></g></g></svg>