<?xml version="1.0" encoding="UTF-8" standalone="no"?><svg width="400" height="400" viewBox="0 0 400 400" xmlns="http://www.w3.org/2000/svg"><title>onboarding</title><g fill="none" fill-rule="evenodd"><path d="M297.406 297.182v43.885c0 9.047-7.403 16.45-16.45 16.45H68.933c-9.047 0-16.45-7.403-16.45-16.45V85.177c0-9.047 7.403-16.45 16.45-16.45h34.728v27.417H78.072v232.128h193.745v-36.537c7.914 3.308 16.541 5.21 25.589 5.447zM297.406 85.178v69.474c-9.048.237-17.675 2.138-25.59 5.446V96.144h-25.588V68.728h34.728c9.047 0 16.45 7.402 16.45 16.45z" fill="#E6F0F4"/><path d="M271.817 291.735v36.537H78.072V96.144h25.59v10.967h142.566V96.144h25.589v63.954c-25.754 10.748-43.867 36.172-43.867 65.819 0 29.646 18.113 55.07 43.867 65.818zm-124.29-144.413c0-6.05-4.916-10.966-10.966-10.966-6.05 0-10.967 4.916-10.967 10.966 0 6.05 4.917 10.967 10.967 10.967 6.05 0 10.967-4.917 10.967-10.967z" fill="#F6FAFC"/><path d="M266.333 140.654c-.75.291-1.508.57-2.25.881-33.017 13.778-56.239 46.373-56.239 84.382 0 38.008 23.222 70.603 56.24 84.383.741.31 1.498.59 2.25.88V140.655z" fill="#E6F0F4"/><path d="M291.922 134.818a92.145 92.145 0 0 0-14.622 2.38v177.437a92.145 92.145 0 0 0 14.622 2.38V134.818z" fill="#D8E5EA"/><path d="M299.233 154.633c-.603 0-1.224 0-1.827.019-9.048.237-17.675 2.138-25.59 5.446-25.753 10.748-43.866 36.172-43.866 65.819 0 29.646 18.113 55.07 43.867 65.818 7.914 3.308 16.541 5.21 25.589 5.447.603.018 1.224.018 1.827.018 39.37 0 71.284-31.913 71.284-71.283 0-39.37-31.913-71.284-71.284-71.284z" fill="#3EB38A"/><path d="M338.57 166.474c7.476 11.275 11.841 24.793 11.841 39.337 0 39.37-31.913 71.283-71.283 71.283-.603 0-1.225 0-1.828-.018-9.047-.237-17.675-2.138-25.589-5.447a71.176 71.176 0 0 1-11.913-6.371c7.77 11.712 18.899 21.003 32.019 26.477 7.914 3.308 16.541 5.21 25.589 5.447.603.018 1.224.018 1.827.018 39.37 0 71.284-31.913 71.284-71.283 0-24.827-12.698-46.68-31.946-59.443z" fill="#2A9E71"/><path d="M246.228 96.144v10.967H103.66V68.728h21.933V55.933c0-9.047 7.403-16.45 16.45-16.45h65.8c9.048 0 16.45 7.403 16.45 16.45v12.795h21.934v27.416z" fill="#FBB735"/><path fill="#FFD366" d="M103.661 90.661h142.567v16.45H103.661z"/><path d="M136.561 136.356c6.05 0 10.967 4.916 10.967 10.966 0 6.05-4.917 10.967-10.967 10.967-6.05 0-10.967-4.917-10.967-10.967 0-6.05 4.917-10.966 10.967-10.966z" fill="#F6FAFC"/><path d="M246.228 112.594H103.66a5.483 5.483 0 0 1-5.483-5.483V70.556a5.483 5.483 0 1 1 10.966 0v31.072h131.6V70.556a5.483 5.483 0 1 1 10.967 0v36.555a5.483 5.483 0 0 1-5.483 5.483z" fill="#234957"/><path d="M271.817 333.756H78.072a5.483 5.483 0 0 1-5.483-5.484V96.144a5.483 5.483 0 0 1 5.483-5.483h25.59a5.483 5.483 0 1 1 0 10.967H83.555v221.16h182.777v-31.053a5.483 5.483 0 1 1 10.967 0v36.537a5.483 5.483 0 0 1-5.483 5.484zM271.817 165.582a5.483 5.483 0 0 1-5.484-5.484v-58.47h-20.105a5.483 5.483 0 1 1 0-10.967h25.589a5.483 5.483 0 0 1 5.483 5.483v63.954a5.483 5.483 0 0 1-5.483 5.484zM187.739 72.383H162.15a5.483 5.483 0 1 1 0-10.966h25.589a5.483 5.483 0 1 1 0 10.966z" fill="#234957"/><path d="M206.017 227.744h-91.39a5.483 5.483 0 1 1 0-10.966h91.39a5.483 5.483 0 1 1 0 10.966zM211.5 262.472h-96.872a5.483 5.483 0 1 1 0-10.966H211.5a5.483 5.483 0 1 1 0 10.966zM231.606 297.2H114.628a5.483 5.483 0 1 1 0-10.967h116.978a5.483 5.483 0 1 1 0 10.967z" fill="#234957"/><path d="M280.956 363H68.933C56.84 363 47 353.161 47 341.067V85.177c0-12.094 9.839-21.933 21.933-21.933h56.661a5.483 5.483 0 1 1 0 10.967h-56.66c-6.049 0-10.967 4.919-10.967 10.967v255.889c0 6.048 4.918 10.966 10.966 10.966h212.023c6.048 0 10.966-4.918 10.966-10.966v-43.885a5.483 5.483 0 1 1 10.967 0v43.885c0 12.094-9.839 21.933-21.933 21.933zM297.406 160.135a5.483 5.483 0 0 1-5.484-5.483V85.178c0-6.048-4.918-10.967-10.966-10.967h-56.662a5.483 5.483 0 1 1 0-10.967h56.662c12.094 0 21.933 9.84 21.933 21.934v69.474a5.483 5.483 0 0 1-5.483 5.483z" fill="#234957"/><path d="M224.294 74.211a5.483 5.483 0 0 1-5.483-5.483V55.933c0-6.048-4.918-10.966-10.967-10.966h-65.8c-6.048 0-10.966 4.918-10.966 10.966v12.795a5.483 5.483 0 1 1-10.967 0V55.933C120.111 43.84 129.95 34 142.044 34h65.8c12.095 0 21.934 9.839 21.934 21.933v12.795a5.483 5.483 0 0 1-5.484 5.483zM299.233 302.683c-.656 0-1.332 0-1.99-.02-9.556-.252-18.828-2.226-27.541-5.87-28.693-11.973-47.235-39.795-47.235-70.876 0-31.082 18.542-58.904 47.239-70.878 8.71-3.643 17.983-5.617 27.555-5.869.64-.02 1.316-.02 1.972-.02 42.33 0 76.767 34.437 76.767 76.767s-34.437 76.766-76.767 76.766zm-.151-142.566c-.501 0-1.015 0-1.514.016-8.23.216-16.177 1.906-23.637 5.025-24.603 10.266-40.498 34.115-40.498 60.759 0 26.643 15.895 50.492 40.495 60.757 7.463 3.12 15.41 4.81 23.622 5.026.568.018 1.13.017 1.683.017 36.284 0 65.8-29.517 65.8-65.8 0-36.284-29.516-65.8-65.8-65.8h-.151z" fill="#234957"/><path d="M293.75 251.506a5.464 5.464 0 0 1-3.877-1.607l-21.933-21.933a5.48 5.48 0 0 1 0-7.754 5.48 5.48 0 0 1 7.753 0l21.934 21.934a5.48 5.48 0 0 1 0 7.753 5.464 5.464 0 0 1-3.877 1.607z" fill="#234957"/><path d="M293.75 251.506a5.464 5.464 0 0 1-3.877-1.607 5.48 5.48 0 0 1 0-7.753l36.556-36.556a5.48 5.48 0 0 1 7.753 0 5.48 5.48 0 0 1 0 7.753L297.627 249.9a5.464 5.464 0 0 1-3.877 1.607zM156.667 200.328a5.483 5.483 0 0 1-5.484-5.484v-3.4c0-7.195-6.148-13.05-13.708-13.05h-1.828c-7.56 0-13.708 5.855-13.708 13.05v3.4a5.483 5.483 0 1 1-10.967 0v-3.4c0-13.241 11.07-24.016 24.675-24.016h1.828c13.606 0 24.675 10.775 24.675 24.017v3.4a5.483 5.483 0 0 1-5.483 5.483zM136.561 163.772c-9.071 0-16.45-7.379-16.45-16.45s7.379-16.45 16.45-16.45 16.45 7.379 16.45 16.45-7.379 16.45-16.45 16.45zm0-21.933a5.49 5.49 0 0 0-5.483 5.483 5.49 5.49 0 0 0 5.483 5.484 5.49 5.49 0 0 0 5.483-5.484 5.49 5.49 0 0 0-5.483-5.483z" fill="#234957"/></g></svg>