<?xml version="1.0" encoding="UTF-8" standalone="no"?>
<svg width="400px" height="400px" viewBox="0 0 400 400" version="1.1" xmlns="http://www.w3.org/2000/svg" xmlns:xlink="http://www.w3.org/1999/xlink">
    <!-- Generator: Sketch 3.8.3 (29802) - http://www.bohemiancoding.com/sketch -->
    <title>onboard-add</title>
    <desc>Created with Sketch.</desc>
    <defs></defs>
    <g id="Page-1" stroke="none" stroke-width="1" fill="none" fill-rule="evenodd">
        <g id="onboard-add">
            <g transform="translate(50.000000, 33.000000)" id="Group">
                <g>
                    <path d="M223.538003,127.891541 C220.397386,127.891541 217.995738,125.481991 217.995738,122.33104 C217.995738,74.3253741 179.015145,35.2165114 131.166927,35.2165114 C83.3187102,35.2165114 44.3381163,74.3253741 44.3381163,122.33104 C44.3381163,125.481991 41.9364683,127.891541 38.7958518,127.891541 C35.6552352,127.891541 33.2535872,125.481991 33.2535872,122.33104 C33.2535872,68.2088221 77.2222192,24.0955078 131.166927,24.0955078 C185.111635,24.0955078 229.080267,68.2088221 229.080267,122.33104 C229.080267,125.481991 226.67862,127.891541 223.538003,127.891541 L223.538003,127.891541 Z" id="Shape" fill="#234957"></path>
                    <g transform="translate(25.863901, 114.917037)">
                        <ellipse id="Oval" fill="#F4CEAE" cx="24.0164797" cy="24.0955078" rx="18.4742151" ry="18.535006"></ellipse>
                        <path d="M24.0164797,48.1910156 C10.7150448,48.1910156 0,37.4407121 0,24.0955078 C0,10.7503035 10.7150448,1.42108547e-14 24.0164797,1.42108547e-14 C37.3179145,1.42108547e-14 48.0329593,10.7503035 48.0329593,24.0955078 C48.0329593,37.4407121 37.3179145,48.1910156 24.0164797,48.1910156 L24.0164797,48.1910156 Z M24.0164797,11.1210036 C16.8115358,11.1210036 11.0845291,16.8668555 11.0845291,24.0955078 C11.0845291,31.3241601 16.8115358,37.070012 24.0164797,37.070012 C31.2214236,37.070012 36.9484302,31.3241601 36.9484302,24.0955078 C36.9484302,16.8668555 31.2214236,11.1210036 24.0164797,11.1210036 L24.0164797,11.1210036 Z" id="Shape" fill="#234957"></path>
                    </g>
                    <g transform="translate(188.436994, 114.917037)">
                        <ellipse id="Oval" fill="#EEB490" cx="24.0164797" cy="24.0955078" rx="18.4742151" ry="18.535006"></ellipse>
                        <path d="M24.0164797,48.1910156 C10.7150448,48.1910156 0,37.4407121 0,24.0955078 C0,10.7503035 10.7150448,1.42108547e-14 24.0164797,1.42108547e-14 C37.3179145,1.42108547e-14 48.0329593,10.7503035 48.0329593,24.0955078 C48.0329593,37.4407121 37.3179145,48.1910156 24.0164797,48.1910156 L24.0164797,48.1910156 Z M24.0164797,11.1210036 C16.8115358,11.1210036 11.0845291,16.8668555 11.0845291,24.0955078 C11.0845291,31.3241601 16.8115358,37.070012 24.0164797,37.070012 C31.2214236,37.070012 36.9484302,31.3241601 36.9484302,24.0955078 C36.9484302,16.8668555 31.2214236,11.1210036 24.0164797,11.1210036 L24.0164797,11.1210036 Z" id="Shape" fill="#234957"></path>
                    </g>
                    <path d="M130.982185,278.95184 C146.685268,278.95184 159.432476,266.162686 159.432476,250.407931 L159.432476,248.36908 C190.099674,254.114932 217.626254,268.757587 239.241086,289.702144 C215.039864,308.97855 185.665862,322.138404 153.520728,326.401456 C145.761557,327.513556 137.632903,328.069606 129.504248,328.069606 C124.146726,328.069606 118.973945,327.884256 113.801165,327.328206 C99.5760195,326.030756 85.7203582,323.065155 72.6036654,318.616753 C55.0531611,312.685551 38.7958518,303.974098 24.2012218,293.223795 C23.2775111,292.482395 22.1690581,291.740994 21.2453474,290.999594 C43.0449212,269.313637 71.1257282,254.114932 102.531894,248.36908 L102.531894,250.407931 C102.531894,258.192634 105.67251,265.421286 110.845291,270.611088 C116.018071,275.800889 123.038273,278.95184 130.982185,278.95184 L130.982185,278.95184 Z" id="Shape" fill="#EA5F6E"></path>
                    <path d="M242.751187,288.404693 C234.807274,293.594495 220.212644,303.232698 208.943373,309.1639 C193.24029,289.702144 177.537207,273.391339 154.259696,260.787534 C155.552891,256.709833 156.476602,252.261432 156.476602,247.81303 L156.476602,244.662079 C191.023384,251.149331 215.59409,267.830837 242.751187,288.404693 L242.751187,288.404693 Z" id="Shape" fill="#D34A5E"></path>
                    <path d="M17.5505044,289.887494 C25.4944169,295.077296 37.6873988,302.676648 49.1414122,308.4225 C67.8003695,290.258194 89.5999433,275.244839 113.616423,264.494536 C112.323228,260.416834 111.399517,255.968433 111.399517,251.520031 L111.399517,248.36908 C76.6679927,254.856333 44.7076006,269.313637 17.5505044,289.887494 L17.5505044,289.887494 Z" id="Shape" fill="#FF667C"></path>
                    <path d="M159.432476,248.36908 L159.432476,250.407931 C159.432476,266.162686 146.685268,278.95184 130.982185,278.95184 C123.223015,278.95184 116.018071,275.800889 110.845291,270.611088 C105.67251,265.421286 102.531894,258.377984 102.531894,250.407931 L102.531894,248.36908 L102.531894,235.765276 L102.716636,235.394576 C111.584259,238.730877 121.006109,236.321327 130.982185,236.321327 C140.958261,236.321327 150.564853,238.730877 159.247734,235.394576 L159.432476,235.765276 L159.432476,248.36908 L159.432476,248.36908 L159.432476,248.36908 Z" id="Shape" fill="#EEB490"></path>
                    <path d="M159.247734,235.209226 C157.585055,249.295831 145.576815,260.416834 130.982185,260.416834 C123.223015,260.416834 116.018071,257.265883 110.845291,252.076082 C106.411479,247.62768 103.455605,241.696478 102.716636,235.209226 L102.716636,235.209226 L102.531894,235.579926 L102.531894,248.36908 L102.531894,250.407931 C102.531894,258.192634 105.67251,265.421286 110.845291,270.611088 C116.018071,275.800889 123.038273,278.95184 130.982185,278.95184 C146.685268,278.95184 159.432476,266.162686 159.432476,250.407931 L159.432476,248.36908 L159.432476,235.765276 L159.247734,235.209226 L159.247734,235.209226 L159.247734,235.209226 Z" id="Shape" fill="#F4CEAE"></path>
                    <path d="M131.166927,285.439092 C122.299304,285.439092 113.985907,281.732091 107.519932,275.059489 C101.238699,268.386887 97.9133401,259.675434 97.9133401,250.593281 L97.9133401,235.394576 C97.9133401,232.243625 100.314988,229.834074 103.455605,229.834074 C106.596221,229.834074 108.997869,232.243625 108.997869,235.394576 L108.997869,250.593281 C108.997869,256.895183 111.399517,263.011735 115.648587,267.460137 C119.897656,271.908538 125.439921,274.318089 131.166927,274.318089 C143.359909,274.318089 153.335985,263.753135 153.335985,250.593281 L153.335985,235.394576 C153.335985,232.243625 155.737633,229.834074 158.87825,229.834074 C162.018867,229.834074 164.420515,232.243625 164.420515,235.394576 L164.420515,250.593281 C164.420515,269.869687 149.4564,285.439092 131.166927,285.439092 L131.166927,285.439092 Z" id="Shape" fill="#234957"></path>
                    <path d="M129.504248,333.630108 C123.961983,333.630108 118.604461,333.444758 113.246939,332.888708 C98.6523087,331.591257 84.4271631,328.625656 70.7562439,323.806555 C53.0209974,317.875353 36.2094616,308.97855 20.8758631,297.672196 C19.7674102,296.930796 18.8436994,296.189396 17.9199887,295.262646 C15.5183407,293.409145 15.1488564,289.887494 16.9962779,287.477943 C18.8436994,285.068392 22.3538003,284.697692 24.7554483,286.551193 C25.679159,287.292593 26.6028698,288.033993 27.5265805,288.775394 C41.7517262,299.525697 57.6395512,307.6811 74.2663448,313.426952 C87.0135532,317.875353 100.49973,320.655604 114.170649,321.953054 C126.733116,323.065155 140.219293,322.879805 152.781759,321.026304 C183.079472,316.948603 211.899247,304.530149 235.915727,285.439092 C238.317375,283.585592 241.827476,283.956292 243.674897,286.365843 C245.522319,288.775394 245.152835,292.297045 242.751187,294.150545 C217.072028,314.539052 186.589573,327.698906 154.259696,332.147308 C146.131042,333.074058 137.817645,333.630108 129.504248,333.630108 L129.504248,333.630108 Z" id="Shape" fill="#234957"></path>
                    <path d="M239.241086,295.262646 C237.947891,295.262646 236.469954,294.706595 235.361501,293.779845 C213.931411,273.020638 187.143799,259.304734 158.324024,253.929582 C155.368149,253.373532 153.335985,250.407931 153.890212,247.44233 C154.444438,244.476729 157.400313,242.437879 160.356187,242.993929 C191.392869,248.739781 220.027902,263.567785 243.120671,285.809793 C245.337577,287.848643 245.337577,291.370294 243.305413,293.594495 C242.19696,294.706595 240.719023,295.262646 239.241086,295.262646 L239.241086,295.262646 Z" id="Shape" fill="#234957"></path>
                    <path d="M21.2453474,296.560096 C19.7674102,296.560096 18.4742151,296.004046 17.3657622,294.891945 C15.1488564,292.667745 15.3335985,289.146094 17.3657622,287.107243 C40.6432733,264.123836 69.647791,248.739781 101.423441,242.808579 C104.379315,242.252528 107.33519,244.291379 107.889416,247.25698 C108.443643,250.222581 106.411479,253.188182 103.455605,253.744232 C73.8968605,259.304734 46.7397643,273.391339 25.1249326,294.891945 C24.0164797,296.004046 22.7232846,296.560096 21.2453474,296.560096 L21.2453474,296.560096 Z" id="Shape" fill="#234957"></path>
                    <path d="M211.529763,92.1189798 L211.529763,163.293403 C211.529763,197.768514 189.730189,227.424524 159.247734,239.101577 C150.380111,242.437879 140.958261,244.291379 130.982185,244.291379 C121.006109,244.291379 111.399517,242.437879 102.716636,239.101577 C91.8168491,235.023876 82.2102573,228.536624 74.0816026,220.566571 C59.4869727,205.923917 50.4346073,185.72076 50.4346073,163.478753 L50.4346073,101.201133 C54.8684189,100.089032 71.8646968,95.0845808 80.3628358,95.0845808 L211.529763,92.1189798 L211.529763,92.1189798 Z" id="Shape" fill="#F4CEAE"></path>
                    <path d="M52.2820288,92.67503 L52.2820288,116.399838 L183.079472,125.296641 C183.079472,159.771752 161.279898,203.514366 130.797443,215.19142 C121.92982,218.527721 112.50797,220.381221 102.531894,220.381221 C92.5558177,220.381221 82.9492259,218.527721 74.2663448,215.19142 C71.6799547,214.264669 69.2783067,213.152569 66.8766587,211.855119 C69.0935645,214.82072 71.4952125,217.786321 74.0816026,220.381221 C82.2102573,228.536624 92.0015913,234.838526 102.716636,238.916227 C111.584259,242.252528 121.006109,244.106029 130.982185,244.106029 C140.958261,244.106029 150.564853,242.252528 159.247734,238.916227 C189.730189,227.239174 211.529763,197.583164 211.529763,163.108053 L211.529763,91.9336298 L52.2820288,92.67503 L52.2820288,92.67503 Z" id="Shape" fill="#EEB490"></path>
                    <path d="M131.166927,302.120598 C118.419719,302.120598 106.041995,299.896397 94.2184971,295.447996 C81.840773,290.814244 70.9409861,283.400242 58.9327462,271.537838 C39.7195625,252.446782 29.5587442,226.868473 29.5587442,197.397814 L29.5587442,140.495345 C29.5587442,137.344394 31.9603922,134.934844 35.1010087,134.934844 C38.2416253,134.934844 40.6432733,137.344394 40.6432733,140.495345 L40.6432733,197.397814 C40.6432733,223.717522 49.6956387,246.70093 66.6919166,263.567785 C77.5917035,274.503439 87.0135532,280.805341 98.0980823,285.068392 C108.628385,288.960744 119.712914,290.999594 131.166927,290.999594 C142.620941,290.999594 153.70547,288.960744 164.235772,285.068392 C199.152039,271.908538 221.690581,237.618777 221.690581,197.397814 L221.690581,139.383245 C221.690581,136.232294 224.092229,133.822743 227.232846,133.822743 C230.373463,133.822743 232.775111,136.232294 232.775111,139.383245 L232.775111,197.397814 C232.775111,242.252528 207.465436,280.619991 168.115358,295.447996 C156.29186,299.896397 143.914136,302.120598 131.166927,302.120598 L131.166927,302.120598 Z" id="Shape" fill="#234957"></path>
                    <path d="M130.797443,213.152569 C119.712914,213.152569 109.182611,208.889518 101.238699,200.919465 C99.021793,198.695264 99.021793,195.173613 101.238699,193.134763 C103.455605,190.910562 106.965706,190.910562 108.997869,193.134763 C114.909618,198.880614 122.484046,202.031565 130.612701,202.031565 C138.926098,202.031565 146.87001,198.695264 152.781759,192.578712 C154.998665,190.354512 158.508766,190.354512 160.540929,192.393362 C162.757835,194.617563 162.757835,198.139214 160.725672,200.178065 C152.966501,208.518818 142.251456,213.152569 130.797443,213.152569 L130.797443,213.152569 Z" id="Shape" fill="#234957"></path>
                    <path d="M133.014349,176.082557 L129.319506,176.082557 C126.178889,176.082557 123.777241,173.673006 123.777241,170.522055 C123.777241,167.371104 126.178889,164.961553 129.319506,164.961553 L133.014349,164.961553 C136.154965,164.961553 138.556613,167.371104 138.556613,170.522055 C138.556613,173.673006 136.154965,176.082557 133.014349,176.082557 L133.014349,176.082557 Z" id="Shape" fill="#234957"></path>
                    <path d="M97.728598,154.58195 C92.0015913,154.58195 87.3830375,149.948199 87.3830375,144.202347 C87.3830375,138.456495 92.0015913,133.822743 97.728598,133.822743 C103.455605,133.822743 108.074158,138.456495 108.074158,144.202347 C108.074158,149.948199 103.455605,154.58195 97.728598,154.58195 L97.728598,154.58195 Z M97.728598,143.460946 C97.3591137,143.460946 96.9896294,143.831647 96.9896294,144.202347 C96.9896294,144.573047 97.3591137,144.943747 97.728598,144.943747 C98.0980823,144.943747 98.4675666,144.573047 98.4675666,144.202347 C98.4675666,143.831647 98.2828244,143.460946 97.728598,143.460946 L97.728598,143.460946 Z" id="Shape" fill="#234957"></path>
                    <path d="M164.235772,154.58195 C158.508766,154.58195 153.890212,149.948199 153.890212,144.202347 C153.890212,138.456495 158.508766,133.822743 164.235772,133.822743 C169.962779,133.822743 174.581333,138.456495 174.581333,144.202347 C174.581333,149.948199 169.778037,154.58195 164.235772,154.58195 L164.235772,154.58195 Z M164.235772,143.460946 C163.866288,143.460946 163.496804,143.831647 163.496804,144.202347 C163.496804,144.573047 163.866288,144.943747 164.235772,144.943747 C164.605257,144.943747 164.974741,144.573047 164.974741,144.202347 C164.974741,143.831647 164.605257,143.460946 164.235772,143.460946 L164.235772,143.460946 Z" id="Shape" fill="#234957"></path>
                    <path d="M155.183407,123.62849 C160.725672,123.25779 166.63742,123.62849 171.994943,123.62849 C186.404831,123.62849 198.228328,135.490894 198.228328,149.948199 C198.228328,164.405503 186.404831,176.267907 171.994943,176.267907 C159.247734,176.267907 142.436199,162.181303 138.556613,143.646297 C138.002387,141.051396 137.632903,138.456495 137.632903,135.676244 C137.817645,126.594091 145.761557,124.18454 155.183407,123.62849 L155.183407,123.62849 Z" id="Shape" fill="#4E676D"></path>
                    <polygon id="Shape" fill="#608287" points="160.171445 177.565358 151.858048 172.746256 168.669584 120.477539 178.64566 120.106839"></polygon>
                    <polygon id="Shape" fill="#608287" points="183.079472 177.936058 171.255974 178.306758 188.06751 126.038041 197.119875 134.378794"></polygon>
                    <path d="M106.041995,123.62849 C115.648587,124.18454 123.592499,126.594091 123.592499,135.861594 C123.592499,139.012545 123.223015,141.978146 122.484046,144.943747 C118.234977,162.922703 101.792925,176.267907 89.230459,176.267907 C74.8205712,176.267907 62.9970736,164.405503 62.9970736,149.948199 C62.9970736,135.490894 74.8205712,123.62849 89.230459,123.62849 C94.5879814,123.62849 100.684472,123.25779 106.041995,123.62849 L106.041995,123.62849 Z" id="Shape" fill="#4E676D"></path>
                    <polygon id="Shape" fill="#608287" points="86.4593268 177.936058 70.5715018 172.746256 87.3830375 120.477539 104.933542 120.477539"></polygon>
                    <path d="M90.3389119,181.643059 C73.1578919,181.643059 59.1174884,167.556454 59.1174884,150.133549 C59.1174884,132.710643 73.1578919,118.624038 90.3389119,118.624038 L95.5116922,118.624038 C99.2065352,118.624038 103.08612,118.438688 106.965706,118.624038 L106.965706,118.624038 C121.745078,119.365439 129.319506,125.296641 129.319506,136.046944 C129.319506,139.568595 128.950022,142.904896 128.026311,146.241197 C123.592499,165.517604 106.226737,181.643059 90.3389119,181.643059 L90.3389119,181.643059 Z M101.423441,129.745042 L95.6964343,129.745042 L90.1541698,129.745042 C79.0696407,129.745042 70.0172753,138.827195 70.0172753,150.133549 C70.0172753,161.439902 79.0696407,170.522055 90.1541698,170.522055 C99.7607616,170.522055 113.616423,158.845001 117.126524,143.831647 C117.68075,141.236746 118.050235,138.827195 118.050235,136.232294 C118.050235,134.008093 118.050235,130.486442 106.226737,129.745042 L106.226737,129.745042 L101.423441,129.745042 L101.423441,129.745042 Z" id="Shape" fill="#234957"></path>
                    <path d="M171.994943,181.643059 C156.107118,181.643059 138.741356,165.517604 134.122802,146.426547 C133.383833,143.090246 132.829607,139.753945 132.829607,136.232294 C132.829607,125.481991 140.404035,119.550789 155.183407,118.809388 C158.87825,118.624038 162.757835,118.624038 166.63742,118.809388 L171.810201,118.809388 C188.991221,118.809388 203.031624,132.895993 203.031624,150.318899 C203.031624,167.741804 189.175963,181.643059 171.994943,181.643059 L171.994943,181.643059 Z M160.910414,129.745042 C159.247734,129.745042 157.585055,129.745042 155.922376,129.930392 L155.922376,129.930392 C144.098878,130.486442 144.098878,134.008093 144.098878,136.232294 C144.098878,138.827195 144.468362,141.422096 145.022589,143.831647 C148.717432,158.845001 162.573093,170.522055 171.994943,170.522055 C183.079472,170.522055 192.131837,161.439902 192.131837,150.133549 C192.131837,138.827195 183.079472,129.745042 171.994943,129.745042 L166.452678,129.745042 L160.910414,129.745042 L160.910414,129.745042 Z" id="Shape" fill="#234957"></path>
                    <path d="M164.420515,129.745042 L97.9133401,129.745042 C94.7727236,129.745042 92.3710756,127.335491 92.3710756,124.18454 C92.3710756,121.033589 94.7727236,118.624038 97.9133401,118.624038 L164.420515,118.624038 C167.561131,118.624038 169.962779,121.033589 169.962779,124.18454 C169.962779,127.335491 167.561131,129.745042 164.420515,129.745042 L164.420515,129.745042 Z" id="Shape" fill="#234957"></path>
                    <path d="M138.556613,148.280048 L123.777241,148.280048 C120.636625,148.280048 118.234977,145.870497 118.234977,142.719546 C118.234977,139.568595 120.636625,137.159044 123.777241,137.159044 L138.556613,137.159044 C141.69723,137.159044 144.098878,139.568595 144.098878,142.719546 C144.098878,145.870497 141.69723,148.280048 138.556613,148.280048 L138.556613,148.280048 Z" id="Shape" fill="#234957"></path>
                    <path d="M212.453474,79.7005258 L212.453474,101.015783 C212.453474,87.4852283 189.914931,89.1533789 189.914931,89.1533789 L49.8803808,96.3820312 C30.4824549,96.3820312 14.7793721,80.6272761 14.7793721,61.1655198 L14.7793721,40.7770132 L14.7793721,38.9235126 C14.7793721,20.5738567 29.7434863,5.5605018 48.0329593,5.5605018 L49.8803808,5.5605018 L49.8803808,38.9235126 C49.8803808,26.6904086 59.856457,20.3885066 72.049439,20.3885066 L72.049439,38.9235126 L179.199887,46.337515 C197.48936,46.337515 212.453474,61.3508699 212.453474,79.7005258 L212.453474,79.7005258 Z" id="Shape" fill="#FBB735"></path>
                    <g opacity="0.5" transform="translate(66.507174, 33.363011)" id="Shape" fill="#FFCC6F">
                        <path d="M18.4742151,27.802509 L18.4742151,7.4140024 L18.4742151,5.5605018 L18.4742151,3.7070012 L16.6267936,3.7070012 C10.5303026,3.7070012 4.80329593,-0.18535006 0,2.59490084 L0,-3.55271368e-14 L0,1.8535006 L0,27.802509 C0,43.9279642 10.8997869,57.4585186 25.679159,61.72157 L12.0082398,62.4629702 C14.0404035,62.8336703 16.2573093,63.0190204 18.4742151,63.0190204 L44.1533741,61.72157 C29.374002,57.4585186 18.4742151,43.9279642 18.4742151,27.802509 L18.4742151,27.802509 Z"></path>
                    </g>
                    <path d="M179.199887,46.337515 L158.693508,44.8547145 C174.766075,49.488466 186.589573,64.1311208 186.589573,81.7393765 L186.589573,89.1533789 L189.914931,88.9680288 C189.914931,88.9680288 212.453474,87.2998783 212.453474,100.830433 L212.453474,79.7005258 C212.453474,61.3508699 197.48936,46.337515 179.199887,46.337515 L179.199887,46.337515 Z" id="Shape" fill="#FF9933"></path>
                    <path d="M44.3381163,61.1655198 L44.3381163,40.7770132 L44.3381163,38.9235126 L44.3381163,5.5605018 L42.4906948,5.5605018 C24.2012218,5.5605018 9.23710756,20.5738567 9.23710756,38.9235126 L9.23710756,40.7770132 L9.23710756,61.1655198 C9.23710756,80.6272761 24.9401904,96.3820312 44.3381163,96.3820312 L70.0172753,95.0845808 C55.2379032,90.8215294 44.3381163,77.290975 44.3381163,61.1655198 L44.3381163,61.1655198 Z" id="Shape" fill="#FFD366"></path>
                    <path d="M131.166927,250.222581 C120.636625,250.222581 110.475806,248.36908 100.684472,244.847429 C89.230459,240.399028 78.5154143,233.726426 69.8325332,225.014973 C53.3904817,208.704168 44.3381163,187.018211 44.3381163,164.034803 L44.3381163,96.3820312 C44.3381163,93.2310802 46.7397643,90.8215294 49.8803808,90.8215294 C53.0209974,90.8215294 55.4226454,93.2310802 55.4226454,96.3820312 L55.4226454,164.034803 C55.4226454,184.05261 63.3665579,202.772966 77.5917035,217.04492 C85.1661317,224.644273 94.4032393,230.575475 104.564058,234.282476 C113.062197,237.433427 121.92982,239.101577 131.166927,239.101577 C140.404035,239.101577 149.271658,237.433427 157.769797,234.282476 C187.143799,223.161472 206.911209,194.988263 206.911209,164.034803 L206.911209,79.7005258 C206.911209,76.5495748 209.312857,74.140024 212.453474,74.140024 C215.59409,74.140024 217.995738,76.5495748 217.995738,79.7005258 L217.995738,164.034803 C217.995738,199.622015 195.272454,232.058275 161.649382,244.662079 C151.858048,248.36908 141.69723,250.222581 131.166927,250.222581 L131.166927,250.222581 Z" id="Shape" fill="#234957"></path>
                    <path d="M212.453474,106.576285 C209.312857,106.576285 206.911209,104.166734 206.911209,101.015783 C206.911209,99.7183323 206.541725,98.791582 205.618014,97.8648317 C202.292656,94.7138807 193.979259,94.3431806 190.284416,94.5285306 L50.065123,101.942533 L49.6956387,101.942533 C27.3418384,101.942533 9.05236541,83.5928771 9.05236541,61.1655198 C9.05236541,58.0145688 11.4540134,55.605018 14.5946299,55.605018 C17.7352465,55.605018 20.1368945,58.0145688 20.1368945,61.1655198 C20.1368945,77.4763251 33.2535872,90.8215294 49.5108965,90.8215294 L189.545447,83.5928771 C191.023384,83.407527 205.433272,82.6661268 213.0077,89.8947791 C216.148317,92.8603801 217.810996,96.7527313 217.810996,101.201133 C217.995738,103.981384 215.59409,106.576285 212.453474,106.576285 L212.453474,106.576285 Z" id="Shape" fill="#234957"></path>
                    <path d="M212.453474,85.2610276 C209.312857,85.2610276 206.911209,82.8514768 206.911209,79.7005258 C206.911209,64.3164708 194.533485,51.8980168 179.199887,51.8980168 C176.05927,51.8980168 173.657622,49.488466 173.657622,46.337515 C173.657622,43.186564 176.05927,40.7770132 179.199887,40.7770132 C200.629976,40.7770132 217.995738,58.1999188 217.995738,79.7005258 C217.995738,82.8514768 215.59409,85.2610276 212.453474,85.2610276 L212.453474,85.2610276 Z" id="Shape" fill="#234957"></path>
                    <path d="M14.7793721,66.7260216 C11.6387555,66.7260216 9.23710756,64.3164708 9.23710756,61.1655198 L9.23710756,40.7770132 C9.23710756,37.6260622 11.6387555,35.2165114 14.7793721,35.2165114 C17.9199887,35.2165114 20.3216366,37.6260622 20.3216366,40.7770132 L20.3216366,61.1655198 C20.3216366,64.3164708 17.9199887,66.7260216 14.7793721,66.7260216 L14.7793721,66.7260216 Z" id="Shape" fill="#234957"></path>
                    <path d="M179.199887,51.8980168 L178.830402,51.8980168 L71.6799547,44.4840144 C68.5393381,44.2986643 66.3224323,41.7037635 66.5071744,38.5528125 C66.6919166,35.4018615 69.2783067,33.1776607 72.4189233,33.3630108 L179.569371,40.7770132 C182.709988,40.9623633 184.926893,43.5572641 184.742151,46.7082151 C184.557409,49.6738161 182.155761,51.8980168 179.199887,51.8980168 L179.199887,51.8980168 Z" id="Shape" fill="#234957"></path>
                    <path d="M49.8803808,44.4840144 C46.7397643,44.4840144 44.3381163,42.0744636 44.3381163,38.9235126 C44.3381163,24.4662079 55.4226454,14.8280048 72.049439,14.8280048 C75.1900555,14.8280048 77.5917035,17.2375556 77.5917035,20.3885066 C77.5917035,23.5394576 75.1900555,25.9490084 72.049439,25.9490084 C68.1698538,25.9490084 55.4226454,26.8757587 55.4226454,38.9235126 C55.4226454,42.0744636 53.0209974,44.4840144 49.8803808,44.4840144 L49.8803808,44.4840144 Z" id="Shape" fill="#234957"></path>
                    <path d="M72.049439,44.4840144 C68.9088224,44.4840144 66.5071744,42.0744636 66.5071744,38.9235126 L66.5071744,20.3885066 C66.5071744,17.2375556 68.9088224,14.8280048 72.049439,14.8280048 C75.1900555,14.8280048 77.5917035,17.2375556 77.5917035,20.3885066 L77.5917035,38.9235126 C77.5917035,42.0744636 75.1900555,44.4840144 72.049439,44.4840144 L72.049439,44.4840144 Z" id="Shape" fill="#234957"></path>
                    <path d="M14.7793721,44.4840144 C11.6387555,44.4840144 9.23710756,42.0744636 9.23710756,38.9235126 C9.23710756,17.4229056 26.6028698,0 48.0329593,0 C51.1735759,0 53.5752238,2.40955078 53.5752238,5.5605018 C53.5752238,8.71145282 51.1735759,11.1210036 48.0329593,11.1210036 C32.6993608,11.1210036 20.3216366,23.5394576 20.3216366,38.9235126 C20.3216366,42.0744636 17.9199887,44.4840144 14.7793721,44.4840144 L14.7793721,44.4840144 Z" id="Shape" fill="#234957"></path>
                    <path d="M49.8803808,44.4840144 C46.7397643,44.4840144 44.3381163,42.0744636 44.3381163,38.9235126 L44.3381163,5.5605018 C44.3381163,2.40955078 46.7397643,0 49.8803808,0 C53.0209974,0 55.4226454,2.40955078 55.4226454,5.5605018 L55.4226454,38.9235126 C55.4226454,42.0744636 53.0209974,44.4840144 49.8803808,44.4840144 L49.8803808,44.4840144 Z" id="Shape" fill="#234957"></path>
                    <path d="M190.838642,53.5661673 C190.469158,53.5661673 189.914931,53.5661673 189.545447,53.3808173 C186.589573,52.639417 184.742151,49.6738161 185.48112,46.7082151 C185.665862,46.1521649 188.806479,34.104411 201.184203,29.2853095 C203.955335,28.1732091 207.280694,29.6560096 208.389147,32.4362605 C209.497599,35.2165114 208.019662,38.5528125 205.24853,39.6649128 C198.228328,42.4451637 196.380907,49.303116 196.380907,49.303116 C195.641938,51.8980168 193.425032,53.5661673 190.838642,53.5661673 L190.838642,53.5661673 Z" id="Shape" fill="#234957"></path>
                    <path d="M202.846882,60.4241196 C201.368945,60.4241196 199.891008,59.8680694 198.782555,58.570619 C196.750391,56.3464182 196.935133,52.8247671 199.152039,50.6005664 C199.521523,50.2298663 203.770593,46.5228651 210.975537,45.7814648 C213.931411,45.4107647 216.702543,47.6349654 217.072028,50.6005664 C217.441512,53.5661673 215.224606,56.3464182 212.268732,56.7171184 C208.573889,57.0878185 206.541725,58.755969 206.541725,58.755969 C205.433272,59.8680694 204.140077,60.4241196 202.846882,60.4241196 L202.846882,60.4241196 Z" id="Shape" fill="#234957"></path>
                    <path d="M131.166927,333.630108 C128.026311,333.630108 125.624663,331.220557 125.624663,328.069606 L125.624663,296.560096 C125.624663,293.409145 128.026311,290.999594 131.166927,290.999594 C134.307544,290.999594 136.709192,293.409145 136.709192,296.560096 L136.709192,328.069606 C136.709192,331.220557 134.307544,333.630108 131.166927,333.630108 L131.166927,333.630108 Z" id="Shape" fill="#234957"></path>
                    <g transform="translate(221.690581, 105.649534)" id="Shape">
                        <path d="M5.54226454,5.5605018 C21.7995738,5.5605018 35.1010087,18.9057061 35.1010087,35.2165114 C35.1010087,51.5273167 21.7995738,64.872521 5.54226454,64.872521" fill="#EA5F6E"></path>
                        <path d="M5.54226454,70.4330228 C2.40164797,70.4330228 0,68.023472 0,64.872521 C0,61.72157 2.40164797,59.3120192 5.54226454,59.3120192 C18.8436994,59.3120192 29.5587442,48.5617157 29.5587442,35.2165114 C29.5587442,21.8713071 18.8436994,11.1210036 5.54226454,11.1210036 C2.40164797,11.1210036 0,8.71145282 0,5.5605018 C0,2.40955078 2.40164797,1.42108547e-14 5.54226454,1.42108547e-14 C24.9401904,1.42108547e-14 40.6432733,15.7547551 40.6432733,35.2165114 C40.6432733,54.6782677 24.9401904,70.4330228 5.54226454,70.4330228 L5.54226454,70.4330228 Z" fill="#234957"></path>
                    </g>
                    <g transform="translate(206.911209, 98.235532)" id="Shape">
                        <path d="M12.9319506,5.5605018 L12.9319506,5.5605018 C16.9962779,5.5605018 20.3216366,8.89680288 20.3216366,12.9745042 L20.3216366,72.2865234 C20.3216366,76.3642247 16.9962779,79.7005258 12.9319506,79.7005258 L12.9319506,79.7005258 C8.86762326,79.7005258 5.54226454,76.3642247 5.54226454,72.2865234 L5.54226454,12.9745042 C5.54226454,8.89680288 8.86762326,5.5605018 12.9319506,5.5605018 L12.9319506,5.5605018 Z" fill="#FFCC6F"></path>
                        <path d="M12.9319506,85.2610276 C5.72700669,85.2610276 0,79.5151758 0,72.2865234 L0,12.9745042 C0,5.74585186 5.72700669,-2.84217094e-14 12.9319506,-2.84217094e-14 C20.1368945,-2.84217094e-14 25.8639012,5.74585186 25.8639012,12.9745042 L25.8639012,72.2865234 C25.8639012,79.5151758 20.1368945,85.2610276 12.9319506,85.2610276 L12.9319506,85.2610276 Z M12.9319506,11.1210036 C12.0082398,11.1210036 11.0845291,12.0477539 11.0845291,12.9745042 L11.0845291,72.2865234 C11.0845291,73.2132737 12.0082398,74.140024 12.9319506,74.140024 C13.8556613,74.140024 14.7793721,73.2132737 14.7793721,72.2865234 L14.7793721,12.9745042 C14.7793721,12.0477539 13.8556613,11.1210036 12.9319506,11.1210036 L12.9319506,11.1210036 Z" fill="#234957"></path>
                    </g>
                    <g transform="translate(0.000000, 105.649534)" id="Shape">
                        <path d="M35.1010087,5.5605018 C18.8436994,5.5605018 5.54226454,18.9057061 5.54226454,35.2165114 C5.54226454,51.5273167 18.8436994,64.872521 35.1010087,64.872521" fill="#EA5F6E"></path>
                        <path d="M35.1010087,70.4330228 C15.7030829,70.4330228 0,54.6782677 0,35.2165114 C0,15.7547551 15.7030829,1.42108547e-14 35.1010087,1.42108547e-14 C38.2416253,1.42108547e-14 40.6432733,2.40955078 40.6432733,5.5605018 C40.6432733,8.71145282 38.2416253,11.1210036 35.1010087,11.1210036 C21.7995738,11.1210036 11.0845291,21.8713071 11.0845291,35.2165114 C11.0845291,48.5617157 21.7995738,59.3120192 35.1010087,59.3120192 C38.2416253,59.3120192 40.6432733,61.72157 40.6432733,64.872521 C40.6432733,68.023472 38.2416253,70.4330228 35.1010087,70.4330228 L35.1010087,70.4330228 Z" fill="#234957"></path>
                    </g>
                    <g transform="translate(29.558744, 98.235532)" id="Shape">
                        <path d="M12.9319506,5.5605018 L12.9319506,5.5605018 C8.86762326,5.5605018 5.54226454,8.89680288 5.54226454,12.9745042 L5.54226454,72.2865234 C5.54226454,76.3642247 8.86762326,79.7005258 12.9319506,79.7005258 L12.9319506,79.7005258 C16.9962779,79.7005258 20.3216366,76.3642247 20.3216366,72.2865234 L20.3216366,12.9745042 C20.3216366,8.89680288 16.9962779,5.5605018 12.9319506,5.5605018 L12.9319506,5.5605018 Z" fill="#FFCC6F"></path>
                        <path d="M12.9319506,85.2610276 C5.72700669,85.2610276 0,79.5151758 0,72.2865234 L0,12.9745042 C0,5.74585186 5.72700669,-2.84217094e-14 12.9319506,-2.84217094e-14 C20.1368945,-2.84217094e-14 25.8639012,5.74585186 25.8639012,12.9745042 L25.8639012,72.2865234 C25.8639012,79.5151758 20.1368945,85.2610276 12.9319506,85.2610276 L12.9319506,85.2610276 Z M12.9319506,11.1210036 C12.0082398,11.1210036 11.0845291,12.0477539 11.0845291,12.9745042 L11.0845291,72.2865234 C11.0845291,73.2132737 12.0082398,74.140024 12.9319506,74.140024 C13.8556613,74.140024 14.7793721,73.2132737 14.7793721,72.2865234 L14.7793721,12.9745042 C14.7793721,12.0477539 13.8556613,11.1210036 12.9319506,11.1210036 L12.9319506,11.1210036 Z" fill="#234957"></path>
                    </g>
                </g>
                <g transform="translate(164.420515, 177.936058)">
                    <g id="XMLID_540_" transform="translate(5.542265, 5.560502)" fill="#3EB38A">
                        <path d="M72.049439,-2.84217094e-14 L70.2020175,-2.84217094e-14 C60.9649099,0.18535006 52.2820288,2.22420072 44.3381163,5.5605018 C18.289473,16.4961553 0,42.2598137 0,72.2865234 C0,102.313233 18.289473,128.076891 44.3381163,139.012545 C52.2820288,142.348846 60.9649099,144.202347 70.2020175,144.573047 L72.049439,144.573047 C111.769001,144.573047 144.098878,112.136786 144.098878,72.2865234 C144.098878,32.4362605 111.769001,-2.84217094e-14 72.049439,-2.84217094e-14 L72.049439,-2.84217094e-14 Z" id="Shape"></path>
                    </g>
                    <g id="XMLID_539_" transform="translate(17.478096, 18.535006)" fill="#2A9E71">
                        <path d="M99.8331695,-2.84217094e-14 C107.407598,11.4917037 111.841409,25.2076082 111.841409,39.8502629 C111.841409,79.7005258 79.5115329,112.136786 39.7919704,112.136786 L37.9445489,112.136786 C28.7074413,111.951436 20.0245602,109.912586 12.0806477,106.576285 C7.83157825,104.722784 3.76725092,102.683933 0.0724079006,100.089032 C8.0163204,111.951436 19.1008495,121.404289 32.4022844,126.964791 C40.3461969,130.301092 49.029078,132.154593 58.2661855,132.525293 L60.113607,132.525293 C99.8331695,132.525293 132.163046,100.089032 132.163046,60.2387695 C132.163046,35.0311613 119.415838,12.9745042 99.8331695,-2.84217094e-14 L99.8331695,-2.84217094e-14 Z" id="Shape"></path>
                    </g>
                    <g id="XMLID_538_" transform="translate(0.000000, -0.000000)" fill="#234957">
                        <path d="M77.5917035,155.69405 L75.5595398,155.69405 C65.952948,155.5087 56.5310983,153.46985 47.663475,149.762848 C18.6589573,137.529745 0,109.356535 0,77.8470252 C0,46.337515 18.6589573,18.1643059 47.663475,5.93120192 C56.5310983,2.22420072 65.7682058,0.18535006 75.5595398,-2.84217094e-14 L77.5917035,-2.84217094e-14 C120.451883,-2.84217094e-14 155.183407,34.8458113 155.183407,77.8470252 C155.183407,120.848239 120.451883,155.69405 77.5917035,155.69405 L77.5917035,155.69405 Z M77.4069614,11.1210036 L75.9290241,11.1210036 L75.9290241,11.1210036 C67.6156273,11.1210036 59.6717148,12.9745042 52.0972866,16.3108053 C27.1570962,26.6904086 11.0845291,50.7859164 11.0845291,77.8470252 C11.0845291,104.908134 27.1570962,129.003642 52.0972866,139.383245 C59.6717148,142.534196 67.6156273,144.202347 75.9290241,144.573047 L77.5917035,144.573047 C114.355392,144.573047 144.098878,114.731687 144.098878,77.8470252 C144.098878,40.9623633 114.355392,11.1210036 77.4069614,11.1210036 L77.4069614,11.1210036 L77.4069614,11.1210036 Z" id="Shape"></path>
                    </g>
                    <g transform="translate(40.643273, 40.777013)" id="Shape">
                        <path d="M60.9649099,27.802509 L49.8803808,27.802509 L49.8803808,16.6815054 C49.8803808,10.5649534 44.8923427,5.5605018 38.7958518,5.5605018 L38.7958518,5.5605018 C32.6993608,5.5605018 27.7113227,10.5649534 27.7113227,16.6815054 L27.7113227,27.802509 L16.6267936,27.802509 C10.5303026,27.802509 5.54226454,32.8069606 5.54226454,38.9235126 L5.54226454,38.9235126 C5.54226454,45.0400646 10.5303026,50.0445162 16.6267936,50.0445162 L27.7113227,50.0445162 L27.7113227,61.1655198 C27.7113227,67.2820718 32.6993608,72.2865234 38.7958518,72.2865234 L38.7958518,72.2865234 C44.8923427,72.2865234 49.8803808,67.2820718 49.8803808,61.1655198 L49.8803808,50.0445162 L60.9649099,50.0445162 C67.0614009,50.0445162 72.049439,45.0400646 72.049439,38.9235126 L72.049439,38.9235126 C72.049439,32.8069606 67.0614009,27.802509 60.9649099,27.802509 L60.9649099,27.802509 Z" fill="#FFFFFF"></path>
                        <path d="M38.7958518,77.8470252 C29.5587442,77.8470252 22.1690581,70.4330228 22.1690581,61.1655198 L22.1690581,55.605018 L16.6267936,55.605018 C7.38968605,55.605018 0,48.1910156 0,38.9235126 C0,29.6560096 7.38968605,22.2420072 16.6267936,22.2420072 L22.1690581,22.2420072 L22.1690581,16.6815054 C22.1690581,7.4140024 29.5587442,-2.84217094e-14 38.7958518,-2.84217094e-14 C48.0329593,-2.84217094e-14 55.4226454,7.4140024 55.4226454,16.6815054 L55.4226454,22.2420072 L60.9649099,22.2420072 C70.2020175,22.2420072 77.5917035,29.6560096 77.5917035,38.9235126 C77.5917035,48.1910156 70.2020175,55.605018 60.9649099,55.605018 L55.4226454,55.605018 L55.4226454,61.1655198 C55.4226454,70.4330228 48.0329593,77.8470252 38.7958518,77.8470252 L38.7958518,77.8470252 Z M16.6267936,33.3630108 C13.486177,33.3630108 11.0845291,35.7725616 11.0845291,38.9235126 C11.0845291,42.0744636 13.486177,44.4840144 16.6267936,44.4840144 L27.7113227,44.4840144 C30.8519392,44.4840144 33.2535872,46.8935652 33.2535872,50.0445162 L33.2535872,61.1655198 C33.2535872,64.3164708 35.6552352,66.7260216 38.7958518,66.7260216 C41.9364683,66.7260216 44.3381163,64.3164708 44.3381163,61.1655198 L44.3381163,50.0445162 C44.3381163,46.8935652 46.7397643,44.4840144 49.8803808,44.4840144 L60.9649099,44.4840144 C64.1055265,44.4840144 66.5071744,42.0744636 66.5071744,38.9235126 C66.5071744,35.7725616 64.1055265,33.3630108 60.9649099,33.3630108 L49.8803808,33.3630108 C46.7397643,33.3630108 44.3381163,30.95346 44.3381163,27.802509 L44.3381163,16.6815054 C44.3381163,13.5305544 41.9364683,11.1210036 38.7958518,11.1210036 C35.6552352,11.1210036 33.2535872,13.5305544 33.2535872,16.6815054 L33.2535872,27.802509 C33.2535872,30.95346 30.8519392,33.3630108 27.7113227,33.3630108 L16.6267936,33.3630108 L16.6267936,33.3630108 Z" fill="#234957"></path>
                    </g>
                </g>
            </g>
        </g>
    </g>
</svg>