<?xml version="1.0" encoding="UTF-8" standalone="no"?><svg width="400" height="400" viewBox="0 0 400 400" xmlns="http://www.w3.org/2000/svg"><title>onboard-add</title><g fill="none" fill-rule="evenodd"><path d="M273.538 160.892c-3.14 0-5.542-2.41-5.542-5.561 0-48.006-38.98-87.114-86.83-87.114-47.847 0-86.828 39.108-86.828 87.114 0 3.151-2.402 5.56-5.542 5.56-3.14 0-5.542-2.409-5.542-5.56 0-54.122 43.968-98.235 97.913-98.235 53.945 0 97.913 44.113 97.913 98.235 0 3.151-2.401 5.56-5.542 5.56z" fill="#234957"/><g transform="translate(75.864 147.917)"><ellipse fill="#F4CEAE" cx="24.016" cy="24.096" rx="18.474" ry="18.535"/><path d="M24.016 48.191C10.715 48.191 0 37.441 0 24.096 0 10.75 10.715 0 24.016 0c13.302 0 24.017 10.75 24.017 24.096 0 13.345-10.715 24.095-24.017 24.095zm0-37.07c-7.204 0-12.931 5.746-12.931 12.975 0 7.228 5.727 12.974 12.931 12.974 7.205 0 12.932-5.746 12.932-12.974 0-7.23-5.727-12.975-12.932-12.975z" fill="#234957"/></g><g transform="translate(238.437 147.917)"><ellipse fill="#EEB490" cx="24.016" cy="24.096" rx="18.474" ry="18.535"/><path d="M24.016 48.191C10.715 48.191 0 37.441 0 24.096 0 10.75 10.715 0 24.016 0c13.302 0 24.017 10.75 24.017 24.096 0 13.345-10.715 24.095-24.017 24.095zm0-37.07c-7.204 0-12.931 5.746-12.931 12.975 0 7.228 5.727 12.974 12.931 12.974 7.205 0 12.932-5.746 12.932-12.974 0-7.23-5.727-12.975-12.932-12.975z" fill="#234957"/></g><path d="M180.982 311.952c15.703 0 28.45-12.79 28.45-28.544v-2.039c30.668 5.746 58.194 20.389 79.81 41.333-24.202 19.277-53.576 32.436-85.721 36.7-7.76 1.112-15.888 1.668-24.017 1.668-5.357 0-10.53-.186-15.703-.742-14.225-1.297-28.08-4.263-41.197-8.711-17.55-5.931-33.808-14.643-48.403-25.393-.923-.742-2.032-1.483-2.956-2.224 21.8-21.686 49.88-36.885 81.287-42.63v2.038c0 7.785 3.14 15.013 8.313 20.203 5.173 5.19 12.193 8.34 20.137 8.34z" fill="#EA5F6E"/><path d="M292.751 321.405c-7.944 5.19-22.538 14.828-33.808 20.759-15.703-19.462-31.406-35.773-54.683-48.376 1.293-4.078 2.217-8.527 2.217-12.975v-3.15c34.546 6.486 59.117 23.168 86.274 43.742z" fill="#D34A5E"/><path d="M67.55 322.887c7.944 5.19 20.137 12.79 31.591 18.536 18.66-18.165 40.459-33.178 64.475-43.928-1.293-4.078-2.216-8.527-2.216-12.975v-3.15a223.11 223.11 0 0 0-93.85 41.517z" fill="#FF667C"/><path d="M209.432 281.37v2.038c0 15.755-12.747 28.544-28.45 28.544a28.455 28.455 0 0 1-20.137-8.34c-5.172-5.19-8.313-12.234-8.313-20.204V268.765l.185-.37c8.867 3.336 18.29.926 28.265.926 9.976 0 19.583 2.41 28.266-.926l.184.37v12.604z" fill="#EEB490"/><path d="M209.248 268.21c-1.663 14.086-13.671 25.207-28.266 25.207a28.455 28.455 0 0 1-20.137-8.34 28.52 28.52 0 0 1-8.128-16.868l-.185.37V283.409c0 7.785 3.14 15.013 8.313 20.203 5.173 5.19 12.193 8.34 20.137 8.34 15.703 0 28.45-12.788 28.45-28.543V268.765l-.184-.556z" fill="#F4CEAE"/><path d="M181.167 318.44c-8.868 0-17.181-3.708-23.647-10.38-6.281-6.673-9.607-15.385-9.607-24.467v-15.198c0-3.151 2.402-5.56 5.543-5.56 3.14 0 5.542 2.409 5.542 5.56v15.198c0 6.302 2.402 12.419 6.65 16.867 4.25 4.449 9.792 6.858 15.519 6.858 12.193 0 22.169-10.565 22.169-23.725v-15.198c0-3.151 2.402-5.56 5.542-5.56 3.14 0 5.543 2.409 5.543 5.56v15.198c0 19.277-14.965 34.846-33.254 34.846z" fill="#234957"/><path d="M179.504 366.63c-5.542 0-10.9-.185-16.257-.741-14.595-1.298-28.82-4.263-42.49-9.082-17.736-5.932-34.548-14.828-49.881-26.135a18.665 18.665 0 0 1-2.956-2.41c-2.402-1.853-2.771-5.375-.924-7.784 1.848-2.41 5.358-2.78 7.76-.927l2.77 2.224c14.226 10.75 30.114 18.906 46.74 24.652 12.748 4.448 26.234 7.229 39.905 8.526 12.562 1.112 26.048.927 38.61-.927 30.298-4.077 59.118-16.496 83.135-35.587 2.401-1.853 5.911-1.483 7.759.927 1.847 2.41 1.478 5.931-.924 7.785-25.679 20.388-56.161 33.548-88.491 37.996-8.129.927-16.442 1.483-24.756 1.483z" fill="#234957"/><path d="M289.241 328.263c-1.293 0-2.771-.556-3.88-1.483-21.43-20.76-48.217-34.475-77.037-39.85-2.956-.556-4.988-3.522-4.434-6.488.554-2.965 3.51-5.004 6.466-4.448 31.037 5.746 59.672 20.574 82.765 42.816 2.217 2.039 2.217 5.56.184 7.784a5.721 5.721 0 0 1-4.064 1.669zM71.245 329.56c-1.478 0-2.77-.556-3.88-1.668-2.216-2.224-2.031-5.746 0-7.785 23.278-22.983 52.283-38.367 84.058-44.298 2.956-.556 5.912 1.482 6.466 4.448.555 2.966-1.478 5.931-4.433 6.487-29.56 5.56-56.716 19.647-78.331 41.148-1.109 1.112-2.402 1.668-3.88 1.668z" fill="#234957"/><path d="M261.53 125.119v71.174c0 34.476-21.8 64.132-52.282 75.809-8.868 3.336-18.29 5.19-28.266 5.19-9.976 0-19.582-1.854-28.265-5.19-10.9-4.078-20.507-10.565-28.635-18.535-14.595-14.643-23.647-34.846-23.647-57.088V134.2c4.433-1.112 21.43-6.116 29.928-6.116l131.167-2.966z" fill="#F4CEAE"/><path d="M102.282 125.675V149.4l130.797 8.897c0 34.475-21.8 78.217-52.282 89.894-8.867 3.337-18.289 5.19-28.265 5.19-9.976 0-19.583-1.853-28.266-5.19-2.586-.926-4.988-2.038-7.39-3.336 2.218 2.966 4.62 5.931 7.206 8.526 8.128 8.156 17.92 14.458 28.635 18.535 8.867 3.337 18.29 5.19 28.265 5.19 9.976 0 19.583-1.853 28.266-5.19 30.482-11.677 52.282-41.333 52.282-75.808v-71.174l-159.248.741z" fill="#EEB490"/><path d="M181.167 335.12c-12.747 0-25.125-2.224-36.949-6.672-12.377-4.634-23.277-12.048-35.285-23.91-19.213-19.091-29.374-44.67-29.374-74.14v-56.903c0-3.15 2.401-5.56 5.542-5.56 3.14 0 5.542 2.41 5.542 5.56v56.903c0 26.32 9.053 49.303 26.049 66.17 10.9 10.935 20.322 17.237 31.406 21.5 10.53 3.893 21.615 5.932 33.069 5.932 11.454 0 22.538-2.04 33.069-5.932 34.916-13.16 57.455-47.45 57.455-87.67v-58.015c0-3.15 2.401-5.56 5.542-5.56 3.14 0 5.542 2.41 5.542 5.56v58.015c0 44.855-25.31 83.222-64.66 98.05-11.823 4.448-24.2 6.673-36.948 6.673z" fill="#234957"/><path d="M180.797 246.153c-11.084 0-21.614-4.263-29.558-12.234-2.217-2.224-2.217-5.745 0-7.784 2.217-2.224 5.727-2.224 7.759 0 5.912 5.746 13.486 8.897 21.615 8.897 8.313 0 16.257-3.337 22.169-9.453 2.217-2.224 5.727-2.224 7.759-.186 2.217 2.225 2.217 5.746.185 7.785-7.76 8.34-18.475 12.975-29.929 12.975zM183.014 209.083h-3.694c-3.141 0-5.543-2.41-5.543-5.56 0-3.152 2.402-5.561 5.543-5.561h3.694c3.141 0 5.543 2.41 5.543 5.56 0 3.151-2.402 5.56-5.543 5.56zM147.729 187.582c-5.727 0-10.346-4.634-10.346-10.38s4.619-10.38 10.346-10.38 10.345 4.634 10.345 10.38-4.618 10.38-10.345 10.38zm0-11.121c-.37 0-.74.37-.74.741s.37.742.74.742.739-.371.739-.742c0-.37-.185-.741-.74-.741zM214.236 187.582c-5.727 0-10.346-4.634-10.346-10.38s4.619-10.38 10.346-10.38 10.345 4.634 10.345 10.38-4.803 10.38-10.345 10.38zm0-11.121c-.37 0-.74.37-.74.741s.37.742.74.742.739-.371.739-.742c0-.37-.37-.741-.74-.741z" fill="#234957"/><path d="M205.183 156.628c5.543-.37 11.454 0 16.812 0 14.41 0 26.233 11.863 26.233 26.32 0 14.458-11.823 26.32-26.233 26.32-12.747 0-29.559-14.087-33.438-32.622-.555-2.595-.924-5.19-.924-7.97.185-9.082 8.129-11.491 17.55-12.048z" fill="#4E676D"/><path fill="#608287" d="M210.171 210.565l-8.313-4.819 16.812-52.268 9.976-.371zM233.08 210.936l-11.824.37 16.812-52.268 9.052 8.34z"/><path d="M156.042 156.628c9.607.557 17.55 2.966 17.55 12.234 0 3.15-.369 6.116-1.108 9.082-4.249 17.979-20.691 31.324-33.254 31.324-14.41 0-26.233-11.862-26.233-26.32 0-14.457 11.824-26.32 26.233-26.32 5.358 0 11.454-.37 16.812 0z" fill="#4E676D"/><path fill="#608287" d="M136.46 210.936l-15.888-5.19 16.811-52.268h17.55z"/><path d="M140.339 214.643c-17.181 0-31.222-14.087-31.222-31.51 0-17.422 14.04-31.509 31.222-31.509h5.173c3.695 0 7.574-.185 11.454 0 14.78.741 22.354 6.673 22.354 17.423 0 3.522-.37 6.858-1.294 10.194-4.434 19.277-21.8 35.402-37.687 35.402zm11.084-51.898h-11.269c-11.084 0-20.137 9.082-20.137 20.389 0 11.306 9.053 20.388 20.137 20.388 9.607 0 23.462-11.677 26.973-26.69.554-2.595.923-5.005.923-7.6 0-2.224 0-5.746-11.823-6.487h-4.804zM221.995 214.643c-15.888 0-33.254-16.125-37.872-35.216-.74-3.337-1.293-6.673-1.293-10.195 0-10.75 7.574-16.681 22.353-17.423 3.695-.185 7.575-.185 11.454 0h5.173c17.181 0 31.222 14.087 31.222 31.51 0 17.423-13.856 31.324-31.037 31.324zm-11.085-51.898c-1.662 0-3.325 0-4.988.185-11.823.556-11.823 4.078-11.823 6.302 0 2.595.37 5.19.924 7.6 3.694 15.013 17.55 26.69 26.972 26.69 11.084 0 20.137-9.082 20.137-20.388 0-11.307-9.053-20.389-20.137-20.389H210.91z" fill="#234957"/><path d="M214.42 162.745h-66.507c-3.14 0-5.542-2.41-5.542-5.56 0-3.151 2.402-5.561 5.542-5.561h66.508c3.14 0 5.542 2.41 5.542 5.56 0 3.151-2.402 5.561-5.542 5.561zM188.557 181.28h-14.78c-3.14 0-5.542-2.41-5.542-5.56 0-3.151 2.402-5.561 5.542-5.561h14.78c3.14 0 5.542 2.41 5.542 5.56 0 3.151-2.402 5.561-5.542 5.561z" fill="#234957"/><path d="M262.453 112.7v21.316c0-13.53-22.538-11.863-22.538-11.863L99.88 129.382c-19.398 0-35.1-15.755-35.1-35.216V71.924c0-18.35 14.963-33.363 33.253-33.363h1.847v33.363c0-12.234 9.976-18.535 22.17-18.535v18.535l107.15 7.414c18.29 0 33.253 15.013 33.253 33.363z" fill="#FBB735"/><path d="M134.981 94.166V70.07h-1.847c-6.097 0-11.824-3.892-16.627-1.112v-2.595 27.803c0 16.125 10.9 29.656 25.68 33.919l-13.672.741c2.033.37 4.25.556 6.466.556l25.68-1.297c-14.78-4.263-25.68-17.794-25.68-33.92z" opacity=".5" fill="#FFCC6F"/><path d="M229.2 79.338l-20.506-1.483c16.072 4.633 27.896 19.276 27.896 36.884v7.414l3.325-.185s22.538-1.668 22.538 11.862V112.7c0-18.35-14.964-33.362-33.253-33.362z" fill="#F93"/><path d="M94.338 94.166V38.56h-1.847c-18.29 0-33.254 15.013-33.254 33.363v22.242c0 19.461 15.703 35.216 35.101 35.216l25.68-1.297c-14.78-4.263-25.68-17.794-25.68-33.92z" fill="#FFD366"/><path d="M181.167 283.223c-10.53 0-20.691-1.854-30.483-5.376-11.454-4.448-22.169-11.12-30.851-19.832-16.443-16.31-25.495-37.997-25.495-60.98v-67.653c0-3.15 2.402-5.56 5.542-5.56 3.141 0 5.543 2.41 5.543 5.56v67.653c0 20.018 7.944 38.738 22.169 53.01a73.972 73.972 0 0 0 26.972 17.237c8.498 3.151 17.366 4.82 26.603 4.82 9.237 0 18.105-1.669 26.603-4.82 29.374-11.12 49.141-39.294 49.141-70.247V112.7c0-3.151 2.402-5.561 5.542-5.561 3.141 0 5.543 2.41 5.543 5.56v84.335c0 35.587-22.724 68.023-56.347 80.627-9.791 3.707-19.952 5.56-30.482 5.56z" fill="#234957"/><path d="M262.453 139.576c-3.14 0-5.542-2.41-5.542-5.56 0-1.298-.37-2.224-1.293-3.151-3.325-3.151-11.639-3.522-15.334-3.336l-140.219 7.414h-.37c-22.353 0-40.643-18.35-40.643-40.777 0-3.151 2.402-5.561 5.543-5.561 3.14 0 5.542 2.41 5.542 5.56 0 16.311 13.117 29.657 29.374 29.657l140.034-7.23c1.478-.184 15.888-.926 23.463 6.303 3.14 2.965 4.803 6.858 4.803 11.306.185 2.78-2.217 5.375-5.358 5.375zM262.453 118.261c-3.14 0-5.542-2.41-5.542-5.56 0-15.385-12.378-27.803-27.711-27.803-3.14 0-5.542-2.41-5.542-5.56 0-3.151 2.401-5.561 5.542-5.561 21.43 0 38.796 17.423 38.796 38.924 0 3.15-2.402 5.56-5.543 5.56z" fill="#234957"/><path d="M64.78 99.726c-3.141 0-5.543-2.41-5.543-5.56V73.777c0-3.15 2.402-5.56 5.542-5.56 3.141 0 5.543 2.41 5.543 5.56v20.389c0 3.15-2.402 5.56-5.543 5.56zM229.2 84.898h-.37l-107.15-7.414c-3.14-.185-5.358-2.78-5.173-5.931.185-3.151 2.771-5.375 5.912-5.19l107.15 7.414c3.141.185 5.358 2.78 5.173 5.931-.185 2.966-2.586 5.19-5.542 5.19zM99.88 77.484c-3.14 0-5.542-2.41-5.542-5.56 0-14.458 11.085-24.096 27.711-24.096 3.141 0 5.543 2.41 5.543 5.56 0 3.151-2.402 5.561-5.543 5.561-3.88 0-16.626.927-16.626 12.975 0 3.15-2.402 5.56-5.543 5.56z" fill="#234957"/><path d="M122.05 77.484c-3.141 0-5.543-2.41-5.543-5.56V53.389c0-3.151 2.402-5.561 5.542-5.561 3.141 0 5.543 2.41 5.543 5.56v18.536c0 3.15-2.402 5.56-5.543 5.56zM64.78 77.484c-3.141 0-5.543-2.41-5.543-5.56C59.237 50.423 76.603 33 98.033 33c3.14 0 5.542 2.41 5.542 5.56 0 3.151-2.401 5.561-5.542 5.561-15.334 0-27.711 12.418-27.711 27.803 0 3.15-2.402 5.56-5.543 5.56z" fill="#234957"/><path d="M99.88 77.484c-3.14 0-5.542-2.41-5.542-5.56V38.56C94.338 35.41 96.74 33 99.88 33c3.141 0 5.543 2.41 5.543 5.56v33.364c0 3.15-2.402 5.56-5.543 5.56zM240.839 86.566c-.37 0-.924 0-1.294-.185-2.955-.742-4.803-3.707-4.064-6.673.185-.556 3.325-12.604 15.703-17.423 2.771-1.112 6.097.371 7.205 3.151 1.109 2.78-.37 6.117-3.14 7.229-7.02 2.78-8.868 9.638-8.868 9.638-.74 2.595-2.956 4.263-5.542 4.263zM252.847 93.424c-1.478 0-2.956-.556-4.064-1.853-2.033-2.225-1.848-5.746.369-7.97.37-.371 4.619-4.078 11.824-4.82 2.955-.37 5.727 1.854 6.096 4.82.37 2.965-1.847 5.745-4.803 6.116-3.695.37-5.727 2.039-5.727 2.039-1.109 1.112-2.402 1.668-3.695 1.668zM181.167 366.63c-3.14 0-5.542-2.41-5.542-5.56v-31.51c0-3.15 2.401-5.56 5.542-5.56 3.14 0 5.542 2.41 5.542 5.56v31.51c0 3.15-2.401 5.56-5.542 5.56z" fill="#234957"/><path d="M277.233 144.21c16.257 0 29.559 13.345 29.559 29.656 0 16.31-13.302 29.656-29.56 29.656" fill="#EA5F6E"/><path d="M277.233 209.083c-3.14 0-5.542-2.41-5.542-5.56 0-3.152 2.401-5.561 5.542-5.561 13.301 0 24.016-10.75 24.016-24.096 0-13.345-10.715-24.095-24.016-24.095-3.14 0-5.542-2.41-5.542-5.561 0-3.15 2.401-5.56 5.542-5.56 19.398 0 35.1 15.754 35.1 35.216 0 19.462-15.702 35.217-35.1 35.217z" fill="#234957"/><path d="M269.843 136.796c4.064 0 7.39 3.336 7.39 7.414v59.312c0 4.078-3.326 7.414-7.39 7.414s-7.39-3.336-7.39-7.414V144.21c0-4.078 3.326-7.414 7.39-7.414z" fill="#FFCC6F"/><path d="M269.843 216.497c-7.205 0-12.932-5.746-12.932-12.975V144.21c0-7.229 5.727-12.974 12.932-12.974s12.932 5.745 12.932 12.974v59.312c0 7.229-5.727 12.975-12.932 12.975zm0-74.14c-.924 0-1.847.926-1.847 1.853v59.312c0 .927.923 1.854 1.847 1.854.924 0 1.848-.927 1.848-1.854V144.21c0-.927-.924-1.853-1.848-1.853z" fill="#234957"/><g><path d="M85.101 144.21c-16.257 0-29.559 13.345-29.559 29.656 0 16.31 13.302 29.656 29.559 29.656" fill="#EA5F6E"/><path d="M85.101 209.083C65.703 209.083 50 193.328 50 173.866c0-19.462 15.703-35.216 35.101-35.216 3.14 0 5.542 2.41 5.542 5.56 0 3.151-2.401 5.56-5.542 5.56-13.301 0-24.016 10.75-24.016 24.096 0 13.345 10.715 24.096 24.016 24.096 3.14 0 5.542 2.41 5.542 5.56 0 3.151-2.401 5.56-5.542 5.56z" fill="#234957"/></g><g><path d="M92.49 136.796c-4.064 0-7.389 3.336-7.389 7.414v59.312c0 4.078 3.325 7.414 7.39 7.414 4.064 0 7.39-3.336 7.39-7.414V144.21c0-4.078-3.326-7.414-7.39-7.414z" fill="#FFCC6F"/><path d="M92.49 216.497c-7.204 0-12.931-5.746-12.931-12.975V144.21c0-7.229 5.727-12.974 12.932-12.974s12.932 5.745 12.932 12.974v59.312c0 7.229-5.727 12.975-12.932 12.975zm0-74.14c-.923 0-1.847.926-1.847 1.853v59.312c0 .927.924 1.854 1.848 1.854.923 0 1.847-.927 1.847-1.854V144.21c0-.927-.924-1.853-1.847-1.853z" fill="#234957"/></g><g><path d="M292.012 216.497h-1.847c-9.237.185-17.92 2.224-25.864 5.56-26.049 10.936-44.338 36.7-44.338 66.726 0 30.027 18.29 55.79 44.338 66.726 7.944 3.336 16.627 5.19 25.864 5.56h1.847c39.72 0 72.05-32.436 72.05-72.286s-32.33-72.286-72.05-72.286z" fill="#3EB38A"/><path d="M331.732 229.471c7.574 11.492 12.008 25.208 12.008 39.85 0 39.85-32.33 72.287-72.05 72.287h-1.847c-9.237-.185-17.92-2.224-25.864-5.56-4.249-1.854-8.313-3.893-12.008-6.488 7.944 11.863 19.028 21.315 32.33 26.876 7.944 3.336 16.627 5.19 25.864 5.56h1.847c39.72 0 72.05-32.436 72.05-72.286 0-25.208-12.748-47.264-32.33-60.239z" fill="#2A9E71"/><path d="M292.012 366.63h-2.032c-9.607-.185-19.028-2.224-27.896-5.931-29.005-12.233-47.663-40.406-47.663-71.916 0-31.51 18.658-59.683 47.663-71.916 8.868-3.707 18.105-5.746 27.896-5.93h2.032c42.86 0 77.592 34.845 77.592 77.846 0 43.001-34.732 77.847-77.592 77.847zm-.185-144.573h-1.477c-8.314 0-16.258 1.854-23.832 5.19-24.94 10.38-41.013 34.475-41.013 61.536s16.073 51.157 41.013 61.536c7.574 3.151 15.518 4.82 23.832 5.19h1.662c36.764 0 66.507-29.841 66.507-66.726s-29.743-66.726-66.692-66.726z" fill="#234957"/><path d="M316.029 279.516h-11.085v-11.121c0-6.117-4.988-11.121-11.084-11.121-6.097 0-11.085 5.004-11.085 11.12v11.122h-11.084c-6.097 0-11.085 5.004-11.085 11.12 0 6.117 4.988 11.122 11.085 11.122h11.084v11.12c0 6.117 4.988 11.122 11.085 11.122 6.096 0 11.084-5.005 11.084-11.121v-11.121h11.085c6.096 0 11.084-5.005 11.084-11.121 0-6.117-4.988-11.121-11.084-11.121z" fill="#FFF"/><path d="M293.86 329.56c-9.237 0-16.627-7.414-16.627-16.681v-5.56h-5.542c-9.238 0-16.627-7.415-16.627-16.682 0-9.268 7.39-16.682 16.627-16.682h5.542v-5.56c0-9.268 7.39-16.682 16.627-16.682 9.237 0 16.626 7.414 16.626 16.682v5.56h5.543c9.237 0 16.626 7.414 16.626 16.682 0 9.267-7.39 16.681-16.626 16.681h-5.543v5.56c0 9.268-7.39 16.682-16.626 16.682zm-22.17-44.484c-3.14 0-5.542 2.41-5.542 5.56 0 3.152 2.402 5.561 5.543 5.561h11.084c3.14 0 5.542 2.41 5.542 5.56v11.122c0 3.15 2.402 5.56 5.543 5.56 3.14 0 5.542-2.41 5.542-5.56v-11.121c0-3.151 2.402-5.56 5.542-5.56h11.085c3.14 0 5.542-2.41 5.542-5.561s-2.402-5.56-5.542-5.56h-11.085c-3.14 0-5.542-2.41-5.542-5.561v-11.121c0-3.151-2.402-5.56-5.542-5.56-3.141 0-5.543 2.409-5.543 5.56v11.12c0 3.152-2.401 5.561-5.542 5.561h-11.084z" fill="#234957"/></g></g></svg>