<?xml version="1.0" encoding="UTF-8" standalone="no"?><svg width="400" height="400" viewBox="0 0 400 400" xmlns="http://www.w3.org/2000/svg"><title>onboard-linktolyst</title><g fill="none" fill-rule="evenodd"><path d="M55.067 132.364v-15.688c0-11.47 8.276-21.085 19.086-23.11a20.99 20.99 0 0 1 4.56-.506h234.772c1.52 0 3.04.17 4.56.507 10.81 2.192 19.086 11.639 19.086 23.11V135.23H55.067v-2.867z" fill="#1B9ED6"/><path fill="#1C7CD3" d="M55.067 114.99v20.241H337.131V114.99z"/><path d="M295.75 253.31v10.12h-51.514v23.616H101.515c-3.716 0-6.756-3.036-6.756-6.747v-26.99c0-3.71 3.04-6.747 6.756-6.747h187.48c3.715 0 6.755 3.036 6.755 6.747zM295.75 180.776v26.989c0 3.711-3.04 6.747-6.756 6.747h-187.48c-3.715 0-6.755-3.036-6.755-6.747v-26.99c0-3.71 3.04-6.747 6.756-6.747h187.48c3.715 0 6.755 3.037 6.755 6.748z" fill="#D8E5EA"/><path d="M337.13 199.33v64.1h-41.38v-10.12c0-3.712-3.04-6.748-6.756-6.748h-187.48c-3.715 0-6.755 3.036-6.755 6.747v26.99c0 3.71 3.04 6.747 6.756 6.747h142.72v40.484H78.714c-13.005 0-23.646-10.627-23.646-23.616V135.231H337.131v64.1zm-41.38 8.435v-26.99c0-3.71-3.04-6.747-6.756-6.747h-187.48c-3.715 0-6.755 3.037-6.755 6.748v26.989c0 3.711 3.04 6.747 6.756 6.747h187.48c3.715 0 6.755-3.036 6.755-6.747z" fill="#FFF"/><path d="M337.13 263.43v40.484c0 12.989-10.64 23.616-23.645 23.616h-69.25v-40.484h44.76c3.715 0 6.755-3.036 6.755-6.747V263.43h41.38z" fill="#F6FAFC"/><path d="M295.75 263.43V280.3c0 3.71-3.04 6.747-6.756 6.747h-44.758V263.43h51.514z" fill="#F6FAFC"/><path d="M337.13 140.292H55.068c-2.871 0-5.067-2.193-5.067-5.06 0-2.868 2.196-5.061 5.067-5.061h282.064c2.871 0 5.067 2.193 5.067 5.06 0 2.868-2.196 5.06-5.067 5.06zM77.024 121.737c-3.716 0-6.756-3.037-6.756-6.748 0-3.71 3.04-6.747 6.756-6.747s6.756 3.036 6.756 6.747-3.04 6.748-6.756 6.748zM97.292 121.737c-3.716 0-6.756-3.037-6.756-6.748 0-3.71 3.04-6.747 6.756-6.747s6.756 3.036 6.756 6.747-3.04 6.748-6.756 6.748zM117.56 121.737c-3.716 0-6.756-3.037-6.756-6.748 0-3.71 3.04-6.747 6.756-6.747s6.756 3.036 6.756 6.747-3.04 6.748-6.756 6.748z" fill="#234957"/><path d="M313.485 332.59H78.713C62.836 332.59 50 319.77 50 303.914V116.676c0-13.663 9.796-25.471 23.14-28.17A31.138 31.138 0 0 1 78.712 88h234.772c1.858 0 3.716.169 5.574.506 13.512 2.699 23.139 14.507 23.139 28.17v187.238c0 15.857-12.837 28.676-28.713 28.676zM78.713 98.121c-1.182 0-2.365.169-3.547.337-8.614 1.687-15.032 9.447-15.032 18.218v187.238a18.514 18.514 0 0 0 18.58 18.556h234.77a18.514 18.514 0 0 0 18.58-18.556V116.676c0-8.771-6.25-16.53-15.032-18.218-1.183-.168-2.365-.337-3.547-.337H78.713z" fill="#234957"/><path d="M288.994 219.573h-187.48c-6.586 0-11.822-5.23-11.822-11.808v-26.99c0-6.578 5.236-11.807 11.823-11.807h187.48c6.586 0 11.822 5.23 11.822 11.808v26.989c0 6.579-5.236 11.808-11.823 11.808zm-187.48-40.484c-1.013 0-1.688.675-1.688 1.687v26.989c0 1.012.675 1.687 1.689 1.687h187.48c1.013 0 1.688-.675 1.688-1.687v-26.99c0-1.011-.675-1.686-1.689-1.686h-187.48z" fill="#234957"/><path d="M225.657 199.33H114.182c-2.871 0-5.067-2.192-5.067-5.06 0-2.867 2.196-5.06 5.067-5.06h111.475c2.87 0 5.067 2.193 5.067 5.06 0 2.868-2.196 5.06-5.067 5.06zM288.994 292.107h-187.48c-6.586 0-11.822-5.23-11.822-11.808v-26.99c0-6.578 5.236-11.807 11.823-11.807h187.48c6.586 0 11.822 5.229 11.822 11.807v26.99c0 6.578-5.236 11.808-11.823 11.808zm-187.48-40.484c-1.013 0-1.688.674-1.688 1.686v26.99c0 1.012.675 1.687 1.689 1.687h187.48c1.013 0 1.688-.675 1.688-1.687v-26.99c0-1.012-.675-1.686-1.689-1.686h-187.48z" fill="#234957"/><path d="M178.364 271.865h-64.182c-2.871 0-5.067-2.193-5.067-5.06 0-2.869 2.196-5.061 5.067-5.061h64.182c2.872 0 5.067 2.192 5.067 5.06 0 2.868-2.195 5.06-5.067 5.06z" fill="#234957"/><path d="M298.284 216.2h-1.69c-8.444.168-16.383 2.023-23.645 5.06-23.815 9.952-40.536 33.399-40.536 60.726 0 27.326 16.72 50.773 40.536 60.725 7.262 3.037 15.2 4.724 23.646 5.061h1.689c36.313 0 65.871-29.52 65.871-65.786 0-36.267-29.558-65.787-65.871-65.787z" fill="#1B9ED6"/><path d="M334.597 228.007c6.925 10.458 10.979 22.94 10.979 36.267 0 36.267-29.558 65.786-65.871 65.786h-1.69c-8.444-.168-16.383-2.024-23.645-5.06-3.885-1.687-7.6-3.543-10.979-5.904 7.263 10.796 17.397 19.398 29.558 24.459 7.262 3.036 15.2 4.723 23.646 5.06h1.689c36.313 0 65.871-29.52 65.871-65.786 0-22.94-11.654-43.014-29.558-54.822z" opacity=".7" fill="#1C7CD3"/><path d="M298.284 352.832h-1.858c-8.783-.168-17.397-2.024-25.504-5.397-26.518-11.133-43.576-36.773-43.576-65.45 0-28.676 17.058-54.315 43.576-65.448 8.107-3.374 16.552-5.23 25.504-5.398h1.858c39.185 0 70.938 31.712 70.938 70.847 0 39.134-31.753 70.846-70.938 70.846zm-.17-131.572h-1.35c-7.6 0-14.864 1.686-21.789 4.723-22.801 9.446-37.495 31.375-37.495 56.003 0 24.627 14.694 46.556 37.495 56.002 6.925 2.868 14.188 4.386 21.789 4.723h1.52c33.611 0 60.804-27.158 60.804-60.725 0-33.568-27.193-60.726-60.973-60.726z" fill="#234957"/><path d="M307.573 299.697c-5.911 0-11.316-2.361-15.539-6.41-2.026-2.024-2.026-5.229 0-7.084 2.027-2.025 5.236-2.025 7.094 0 4.56 4.554 12.161 4.554 16.721 0l9.628-9.615c4.56-4.555 4.56-12.145 0-16.7-4.56-4.554-12.161-4.554-16.721 0l-3.547 3.542c-2.027 2.025-5.236 2.025-7.094 0-2.027-2.024-2.027-5.229 0-7.084l3.547-3.543c4.222-4.217 9.627-6.41 15.539-6.41 5.911 0 11.316 2.362 15.538 6.41 4.223 4.217 6.419 9.615 6.419 15.52 0 5.903-2.365 11.301-6.419 15.518l-9.627 9.615c-4.053 3.88-9.627 6.241-15.539 6.241z" fill="#FFF"/><path d="M286.123 321.12c-5.912 0-11.316-2.362-15.539-6.41-4.222-4.217-6.418-9.615-6.418-15.519s2.364-11.302 6.418-15.519l9.627-9.615c4.223-4.217 9.628-6.41 15.54-6.41 5.91 0 11.316 2.362 15.538 6.41 2.027 2.025 2.027 5.23 0 7.085-2.027 2.024-5.236 2.024-7.094 0-4.56-4.554-12.16-4.554-16.72 0l-9.628 9.615c-4.56 4.555-4.56 12.145 0 16.7 4.56 4.554 12.16 4.554 16.721 0l3.547-3.543c2.027-2.024 5.236-2.024 7.094 0 2.026 2.025 2.026 5.23 0 7.085l-3.547 3.542c-4.223 4.217-9.628 6.579-15.54 6.579z" fill="#FFF"/></g></svg>