<?xml version="1.0" encoding="UTF-8" standalone="no"?>
<svg width="400px" height="400px" viewBox="0 0 400 400" version="1.1" xmlns="http://www.w3.org/2000/svg" xmlns:xlink="http://www.w3.org/1999/xlink">
    <!-- Generator: Sketch 3.8.3 (29802) - http://www.bohemiancoding.com/sketch -->
    <title>onboard-linktolyst</title>
    <desc>Created with Sketch.</desc>
    <defs></defs>
    <g id="Page-1" stroke="none" stroke-width="1" fill="none" fill-rule="evenodd">
        <g id="onboard-linktolyst">
            <g transform="translate(50.000000, 88.000000)" id="Layer_1">
                <g>
                    <path d="M5.06701553,44.3636539 L5.06701553,28.6761261 C5.06701553,17.2056757 13.3431409,7.59073926 24.152774,5.56654213 C25.6728787,5.22917594 27.1929834,5.06049284 28.713088,5.06049284 L263.484808,5.06049284 C265.004912,5.06049284 266.525017,5.22917594 268.045122,5.56654213 C278.854755,7.75942236 287.13088,17.2056757 287.13088,28.6761261 L287.13088,44.1949708 L287.13088,47.2312665 L194.235595,47.2312665 L99.6513055,47.2312665 L5.06701553,47.2312665 L5.06701553,44.3636539 L5.06701553,44.3636539 Z" id="Shape" fill="#1B9ED6"></path>
                    <polygon id="Shape" fill="#1C7CD3" points="5.06701553 26.9892952 5.06701553 26.9892952 5.06701553 44.3636539 5.06701553 47.2312665 99.6513055 47.2312665 194.235595 47.2312665 287.13088 47.2312665 287.13088 44.3636539 287.13088 26.9892952 287.13088 26.9892952"></polygon>
                    <path d="M245.750253,165.309433 L245.750253,175.430419 L194.235595,175.430419 L194.235595,199.046052 L51.5146579,199.046052 C47.7988465,199.046052 44.7586372,196.009756 44.7586372,192.298728 L44.7586372,165.309433 C44.7586372,161.598405 47.7988465,158.562109 51.5146579,158.562109 L238.994233,158.562109 C242.710044,158.562109 245.750253,161.598405 245.750253,165.309433 L245.750253,165.309433 Z" id="Shape" fill="#D8E5EA"></path>
                    <path d="M245.750253,92.7757021 L245.750253,119.764997 C245.750253,123.476025 242.710044,126.512321 238.994233,126.512321 L51.5146579,126.512321 C47.7988465,126.512321 44.7586372,123.476025 44.7586372,119.764997 L44.7586372,92.7757021 C44.7586372,89.064674 47.7988465,86.0283783 51.5146579,86.0283783 L238.994233,86.0283783 C242.710044,86.0283783 245.750253,89.064674 245.750253,92.7757021 L245.750253,92.7757021 Z" id="Shape" fill="#D8E5EA"></path>
                    <path d="M287.13088,111.330843 L287.13088,175.430419 L245.750253,175.430419 L245.750253,165.309433 C245.750253,161.598405 242.710044,158.562109 238.994233,158.562109 L51.5146579,158.562109 C47.7988465,158.562109 44.7586372,161.598405 44.7586372,165.309433 L44.7586372,192.298728 C44.7586372,196.009756 47.7988465,199.046052 51.5146579,199.046052 L194.235595,199.046052 L194.235595,239.529995 L99.6513055,239.529995 L41.8873284,239.529995 L28.713088,239.529995 C15.7077482,239.529995 5.06701553,228.90296 5.06701553,215.914361 L5.06701553,175.430419 L5.06701553,111.330843 L5.06701553,47.2312665 L99.6513055,47.2312665 L194.235595,47.2312665 L287.13088,47.2312665 L287.13088,111.330843 L287.13088,111.330843 Z M245.750253,119.764997 L245.750253,92.7757021 C245.750253,89.064674 242.710044,86.0283783 238.994233,86.0283783 L51.5146579,86.0283783 C47.7988465,86.0283783 44.7586372,89.064674 44.7586372,92.7757021 L44.7586372,119.764997 C44.7586372,123.476025 47.7988465,126.512321 51.5146579,126.512321 L238.994233,126.512321 C242.710044,126.512321 245.750253,123.476025 245.750253,119.764997 L245.750253,119.764997 Z" id="Shape" fill="#FFFFFF"></path>
                    <path d="M287.13088,175.430419 L287.13088,215.914361 C287.13088,228.90296 276.490148,239.529995 263.484808,239.529995 L249.634965,239.529995 L194.235595,239.529995 L194.235595,199.046052 L238.994233,199.046052 C242.710044,199.046052 245.750253,196.009756 245.750253,192.298728 L245.750253,175.430419 L287.13088,175.430419 L287.13088,175.430419 Z" id="Shape" fill="#F6FAFC"></path>
                    <path d="M245.750253,175.430419 L245.750253,192.298728 C245.750253,196.009756 242.710044,199.046052 238.994233,199.046052 L194.235595,199.046052 L194.235595,175.430419 L245.750253,175.430419 L245.750253,175.430419 Z" id="Shape" fill="#F6FAFC"></path>
                    <path d="M287.13088,52.2917594 L5.06701553,52.2917594 C2.19570673,52.2917594 0,50.0988791 0,47.2312665 C0,44.3636539 2.19570673,42.1707737 5.06701553,42.1707737 L287.13088,42.1707737 C290.002189,42.1707737 292.197896,44.3636539 292.197896,47.2312665 C292.197896,50.0988791 290.002189,52.2917594 287.13088,52.2917594 L287.13088,52.2917594 Z" id="Shape" fill="#234957"></path>
                    <path d="M27.0240828,33.736619 C23.3082714,33.736619 20.2680621,30.7003232 20.2680621,26.9892952 C20.2680621,23.2782671 23.3082714,20.2419714 27.0240828,20.2419714 C30.7398942,20.2419714 33.7801035,23.2782671 33.7801035,26.9892952 C33.7801035,30.7003232 30.7398942,33.736619 27.0240828,33.736619 L27.0240828,33.736619 Z" id="Shape" fill="#234957"></path>
                    <path d="M47.292145,33.736619 C43.5763336,33.736619 40.5361243,30.7003232 40.5361243,26.9892952 C40.5361243,23.2782671 43.5763336,20.2419714 47.292145,20.2419714 C51.0079564,20.2419714 54.0481657,23.2782671 54.0481657,26.9892952 C54.0481657,30.7003232 51.0079564,33.736619 47.292145,33.736619 L47.292145,33.736619 Z" id="Shape" fill="#234957"></path>
                    <path d="M67.5602071,33.736619 C63.8443957,33.736619 60.8041864,30.7003232 60.8041864,26.9892952 C60.8041864,23.2782671 63.8443957,20.2419714 67.5602071,20.2419714 C71.2760185,20.2419714 74.3162278,23.2782671 74.3162278,26.9892952 C74.3162278,30.7003232 71.2760185,33.736619 67.5602071,33.736619 L67.5602071,33.736619 Z" id="Shape" fill="#234957"></path>
                    <path d="M263.484808,244.590487 L28.713088,244.590487 C12.8364393,244.590487 0,231.770572 0,215.914361 L0,28.6761261 C0,15.0127954 9.79623003,3.2049788 23.1393709,0.506049284 C24.9972766,0.168683095 26.8551823,0 28.713088,0 L263.484808,0 C265.342713,0 267.200619,0.168683095 269.058525,0.506049284 C282.570566,3.2049788 292.197896,15.0127954 292.197896,28.6761261 L292.197896,215.914361 C292.197896,231.770572 279.361456,244.590487 263.484808,244.590487 L263.484808,244.590487 Z M28.713088,10.1209857 C27.5307844,10.1209857 26.3484808,10.2896688 25.1661771,10.4583519 C16.5522507,12.1451828 10.1340311,19.9046052 10.1340311,28.6761261 L10.1340311,215.914361 C10.1340311,226.20403 18.4101564,234.469502 28.713088,234.469502 L263.484808,234.469502 C273.787739,234.469502 282.063865,226.20403 282.063865,215.914361 L282.063865,28.6761261 C282.063865,19.9046052 275.814545,12.1451828 267.031719,10.4583519 C265.849415,10.2896688 264.667111,10.1209857 263.484808,10.1209857 L28.713088,10.1209857 L28.713088,10.1209857 Z" id="Shape" fill="#234957"></path>
                    <path d="M238.994233,131.572814 L51.5146579,131.572814 C44.9275377,131.572814 39.6916217,126.343638 39.6916217,119.764997 L39.6916217,92.7757021 C39.6916217,86.1970614 44.9275377,80.9678855 51.5146579,80.9678855 L238.994233,80.9678855 C245.581353,80.9678855 250.817269,86.1970614 250.817269,92.7757021 L250.817269,119.764997 C250.817269,126.343638 245.581353,131.572814 238.994233,131.572814 L238.994233,131.572814 Z M51.5146579,91.0888712 C50.5012548,91.0888712 49.8256527,91.7636036 49.8256527,92.7757021 L49.8256527,119.764997 C49.8256527,120.777096 50.5012548,121.451828 51.5146579,121.451828 L238.994233,121.451828 C240.007636,121.451828 240.683238,120.777096 240.683238,119.764997 L240.683238,92.7757021 C240.683238,91.7636036 240.007636,91.0888712 238.994233,91.0888712 L51.5146579,91.0888712 L51.5146579,91.0888712 Z" id="Shape" fill="#234957"></path>
                    <path d="M175.656538,111.330843 L64.1821967,111.330843 C61.3108879,111.330843 59.1151812,109.137962 59.1151812,106.27035 C59.1151812,103.402737 61.3108879,101.209857 64.1821967,101.209857 L175.656538,101.209857 C178.527847,101.209857 180.723554,103.402737 180.723554,106.27035 C180.723554,109.137962 178.527847,111.330843 175.656538,111.330843 L175.656538,111.330843 Z" id="Shape" fill="#234957"></path>
                    <path d="M238.994233,204.106545 L51.5146579,204.106545 C44.9275377,204.106545 39.6916217,198.877369 39.6916217,192.298728 L39.6916217,165.309433 C39.6916217,158.730792 44.9275377,153.501616 51.5146579,153.501616 L238.994233,153.501616 C245.581353,153.501616 250.817269,158.730792 250.817269,165.309433 L250.817269,192.298728 C250.817269,198.877369 245.581353,204.106545 238.994233,204.106545 L238.994233,204.106545 Z M51.5146579,163.622602 C50.5012548,163.622602 49.8256527,164.297334 49.8256527,165.309433 L49.8256527,192.298728 C49.8256527,193.310827 50.5012548,193.985559 51.5146579,193.985559 L238.994233,193.985559 C240.007636,193.985559 240.683238,193.310827 240.683238,192.298728 L240.683238,165.309433 C240.683238,164.297334 240.007636,163.622602 238.994233,163.622602 L51.5146579,163.622602 L51.5146579,163.622602 Z" id="Shape" fill="#234957"></path>
                    <path d="M128.364393,183.864573 L64.1821967,183.864573 C61.3108879,183.864573 59.1151812,181.671693 59.1151812,178.80408 C59.1151812,175.936468 61.3108879,173.743588 64.1821967,173.743588 L128.364393,173.743588 C131.235702,173.743588 133.431409,175.936468 133.431409,178.80408 C133.431409,181.671693 131.235702,183.864573 128.364393,183.864573 L128.364393,183.864573 Z" id="Shape" fill="#234957"></path>
                    <g id="Group" transform="translate(177.345544, 123.138659)">
                        <g id="XMLID_510_" transform="translate(5.067016, 5.060493)" fill="#1B9ED6">
                            <path d="M65.8712019,0 L64.1821967,0 C55.7371709,0.168683095 47.7988465,2.02419714 40.5361243,5.06049284 C16.7211513,15.0127954 0,38.4597456 0,65.786407 C0,93.1130683 16.7211513,116.560018 40.5361243,126.512321 C47.7988465,129.548617 55.7371709,131.235448 64.1821967,131.572814 L65.8712019,131.572814 C102.184813,131.572814 131.742404,102.053272 131.742404,65.786407 C131.742404,29.5195416 102.184813,0 65.8712019,0 L65.8712019,0 Z" id="Shape"></path>
                        </g>
                        <g id="XMLID_509_" opacity="0.7" transform="translate(15.999102, 16.868309)" fill="#1C7CD3">
                            <path d="M91.2527272,0 C98.1776485,10.4583519 102.231261,22.9409009 102.231261,36.2668654 C102.231261,72.5337307 72.6736703,102.053272 36.360059,102.053272 L34.6710538,102.053272 C26.2260279,101.884589 18.2877036,100.029075 11.0249813,96.9927795 C7.14026939,95.3059485 3.424458,93.4504345 0.0464476424,91.0888712 C7.30916991,101.884589 17.443201,110.487427 29.6040382,115.54792 C36.8667605,118.584216 44.8050848,120.271047 53.2501107,120.608413 L54.9391159,120.608413 C91.2527272,120.608413 120.810318,91.0888712 120.810318,54.8220058 C120.810318,31.8811049 109.156182,11.8078166 91.2527272,0 L91.2527272,0 Z" id="Shape"></path>
                        </g>
                        <g id="XMLID_508_" transform="translate(0.000000, 0.000000)" fill="#234957">
                            <path d="M70.9382175,141.6938 L69.0803118,141.6938 C60.2974848,141.525117 51.6835584,139.669602 43.5763336,136.295941 C17.0589523,125.162856 0,99.5230259 0,70.8468998 C0,42.1707737 17.0589523,16.5309433 43.5763336,5.39785903 C51.6835584,2.02419714 60.1285843,0.168683095 69.0803118,0 L70.9382175,0 C110.123138,0 141.876435,31.7124218 141.876435,70.8468998 C141.876435,109.981378 110.123138,141.6938 70.9382175,141.6938 L70.9382175,141.6938 Z M70.7693169,10.1209857 L69.4181128,10.1209857 L69.4181128,10.1209857 C61.8175895,10.1209857 54.5548672,11.8078166 47.629946,14.8441123 C24.8283761,24.2903656 10.1340311,46.219168 10.1340311,70.8468998 C10.1340311,95.4746316 24.8283761,117.403434 47.629946,126.849687 C54.5548672,129.7173 61.8175895,131.235448 69.4181128,131.572814 L70.9382175,131.572814 C104.54942,131.572814 131.742404,104.414836 131.742404,70.8468998 C131.742404,37.2789639 104.54942,10.1209857 70.7693169,10.1209857 L70.7693169,10.1209857 L70.7693169,10.1209857 Z" id="Shape"></path>
                        </g>
                    </g>
                    <path d="M257.57329,211.697284 C251.661771,211.697284 246.256955,209.335721 242.034442,205.287326 C240.007636,203.263129 240.007636,200.05815 242.034442,198.202636 C244.061248,196.178439 247.270358,196.178439 249.128264,198.202636 C253.688578,202.75708 261.289101,202.75708 265.849415,198.202636 L275.476744,188.5877 C280.037058,184.033256 280.037058,176.442517 275.476744,171.888074 C270.91643,167.33363 263.315907,167.33363 258.755593,171.888074 L255.208682,175.430419 C253.181876,177.454616 249.972766,177.454616 248.114861,175.430419 C246.088054,173.406221 246.088054,170.201243 248.114861,168.345729 L251.661771,164.803384 C255.884284,160.586306 261.289101,158.393426 267.200619,158.393426 C273.112137,158.393426 278.516954,160.754989 282.739467,164.803384 C286.96198,169.020461 289.157686,174.41832 289.157686,180.322228 C289.157686,186.226137 286.793079,191.623996 282.739467,195.841073 L273.112137,205.456009 C269.058525,209.335721 263.484808,211.697284 257.57329,211.697284 L257.57329,211.697284 Z" id="Shape" fill="#FFFFFF"></path>
                    <path d="M236.122924,233.120037 C230.211406,233.120037 224.806589,230.758474 220.584076,226.710079 C216.361563,222.493002 214.165857,217.095143 214.165857,211.191235 C214.165857,205.287326 216.530464,199.889467 220.584076,195.67239 L230.211406,186.057454 C234.433919,181.840376 239.838735,179.647496 245.750253,179.647496 C251.661771,179.647496 257.066588,182.009059 261.289101,186.057454 C263.315907,188.081651 263.315907,191.286629 261.289101,193.142144 C259.262295,195.166341 256.053185,195.166341 254.195279,193.142144 C249.634965,188.5877 242.034442,188.5877 237.474128,193.142144 L227.846798,202.75708 C223.286484,207.311523 223.286484,214.902263 227.846798,219.456706 C232.407112,224.01115 240.007636,224.01115 244.56795,219.456706 L248.114861,215.914361 C250.141667,213.890164 253.350777,213.890164 255.208682,215.914361 C257.235489,217.938558 257.235489,221.143537 255.208682,222.999051 L251.661771,226.541396 C247.439259,230.758474 242.034442,233.120037 236.122924,233.120037 L236.122924,233.120037 Z" id="Shape" fill="#FFFFFF"></path>
                </g>
            </g>
        </g>
    </g>
</svg>