<?xml version="1.0" encoding="UTF-8" standalone="no"?>
<svg width="400px" height="400px" viewBox="0 0 400 400" version="1.1" xmlns="http://www.w3.org/2000/svg" xmlns:xlink="http://www.w3.org/1999/xlink">
    <!-- Generator: Sketch 3.8.3 (29802) - http://www.bohemiancoding.com/sketch -->
    <title>onboarding</title>
    <desc>Created with Sketch.</desc>
    <defs></defs>
    <g id="Page-1" stroke="none" stroke-width="1" fill="none" fill-rule="evenodd">
        <g id="onboarding">
            <g transform="translate(47.000000, 34.000000)" id="Layer_4">
                <g>
                    <g id="Group">
                        <path d="M250.405556,263.181722 L250.405556,307.066667 C250.405556,316.114167 243.003056,323.516667 233.955556,323.516667 L21.9333333,323.516667 C12.8858333,323.516667 5.48333333,316.114167 5.48333333,307.066667 L5.48333333,51.1777778 C5.48333333,42.1302778 12.8858333,34.7277778 21.9333333,34.7277778 L56.6611111,34.7277778 L56.6611111,36.5555556 L56.6611111,62.1444444 L31.0722222,62.1444444 L31.0722222,294.272222 L47.9791667,294.272222 L224.816667,294.272222 L224.816667,257.734944 C232.730944,261.043222 241.358056,262.944111 250.405556,263.181722 L250.405556,263.181722 Z" id="Shape" fill="#E6F0F4"></path>
                        <path d="M250.405556,51.1777778 L250.405556,120.651611 C241.358056,120.889222 232.730944,122.790111 224.816667,126.098389 L224.816667,62.1444444 L199.227778,62.1444444 L199.227778,36.5555556 L199.227778,34.7277778 L233.955556,34.7277778 C243.003056,34.7277778 250.405556,42.1302778 250.405556,51.1777778 L250.405556,51.1777778 Z" id="Shape" fill="#E6F0F4"></path>
                        <path d="M224.816667,257.734944 L224.816667,294.272222 L47.9791667,294.272222 L31.0722222,294.272222 L31.0722222,62.1444444 L56.6611111,62.1444444 L56.6611111,73.1111111 L199.227778,73.1111111 L199.227778,62.1444444 L224.816667,62.1444444 L224.816667,126.098389 C199.063278,136.845722 180.95,162.270111 180.95,191.916667 C180.95,221.563222 199.063278,246.987611 224.816667,257.734944 L224.816667,257.734944 Z M100.527778,113.322222 C100.527778,107.272278 95.6110556,102.355556 89.5611111,102.355556 C83.5111667,102.355556 78.5944444,107.272278 78.5944444,113.322222 C78.5944444,119.372167 83.5111667,124.288889 89.5611111,124.288889 C95.6110556,124.288889 100.527778,119.372167 100.527778,113.322222 L100.527778,113.322222 Z" id="Shape" fill="#F6FAFC"></path>
                        <path d="M219.333333,106.654489 C218.582117,106.945106 217.825417,107.224756 217.083339,107.535478 C184.066361,121.313267 160.844444,153.908028 160.844444,191.916667 C160.844444,229.925306 184.066361,262.520067 217.083339,276.299683 C217.825417,276.610406 218.582117,276.890056 219.333333,277.180672 L219.333333,106.654489 L219.333333,106.654489 Z" id="Shape" fill="#E6F0F4"></path>
                        <path d="M244.922222,100.818394 C239.925078,101.222333 235.041256,102.030211 230.3,103.198161 L230.3,280.635172 C235.041256,281.803122 239.925078,282.611 244.922222,283.014939 L244.922222,100.818394 L244.922222,100.818394 Z" id="Shape" fill="#D8E5EA"></path>
                        <path d="M252.233333,120.633333 C251.630167,120.633333 251.008722,120.633333 250.405556,120.651611 C241.358056,120.889222 232.730944,122.790111 224.816667,126.098389 C199.063278,136.845722 180.95,162.270111 180.95,191.916667 C180.95,221.563222 199.063278,246.987611 224.816667,257.734944 C232.730944,261.043222 241.358056,262.944111 250.405556,263.181722 C251.008722,263.2 251.630167,263.2 252.233333,263.2 C291.603667,263.2 323.516667,231.287 323.516667,191.916667 C323.516667,152.546333 291.603667,120.633333 252.233333,120.633333 L252.233333,120.633333 Z" id="Shape" fill="#3EB38A"></path>
                        <path d="M291.570767,132.473678 C299.046378,143.749239 303.411111,157.267483 303.411111,171.811111 C303.411111,211.181444 271.498111,243.094444 232.127778,243.094444 C231.524611,243.094444 230.903167,243.094444 230.3,243.076167 C221.2525,242.838556 212.625389,240.937667 204.711111,237.629389 C200.521844,235.880206 196.537289,233.73805 192.797656,231.257756 C200.567539,242.970156 211.696878,252.26075 224.816667,257.734944 C232.730944,261.043222 241.358056,262.944111 250.405556,263.181722 C251.008722,263.2 251.630167,263.2 252.233333,263.2 C291.603667,263.2 323.516667,231.287 323.516667,191.916667 C323.516667,167.089961 310.819094,145.23705 291.570767,132.473678 L291.570767,132.473678 Z" id="Shape" fill="#2A9E71"></path>
                        <path d="M199.227778,62.1444444 L199.227778,73.1111111 L56.6611111,73.1111111 L56.6611111,62.1444444 L56.6611111,36.5555556 L56.6611111,34.7277778 L78.5944444,34.7277778 L78.5944444,21.9333333 C78.5944444,12.8858333 85.9969444,5.48333333 95.0444444,5.48333333 L160.844444,5.48333333 C169.891944,5.48333333 177.294444,12.8858333 177.294444,21.9333333 L177.294444,34.7277778 L199.227778,34.7277778 L199.227778,36.5555556 L199.227778,62.1444444 L199.227778,62.1444444 Z" id="Shape" fill="#FBB735"></path>
                        <rect id="Rectangle-path" fill="#FFD366" x="56.6611111" y="56.6611111" width="142.566667" height="16.45"></rect>
                        <path d="M89.5611111,102.355556 C95.6110556,102.355556 100.527778,107.272278 100.527778,113.322222 C100.527778,119.372167 95.6110556,124.288889 89.5611111,124.288889 C83.5111667,124.288889 78.5944444,119.372167 78.5944444,113.322222 C78.5944444,107.272278 83.5111667,102.355556 89.5611111,102.355556 L89.5611111,102.355556 Z" id="Shape" fill="#F6FAFC"></path>
                        <path d="M199.227778,78.5944444 L56.6611111,78.5944444 C53.6324833,78.5944444 51.1777778,76.1397389 51.1777778,73.1111111 L51.1777778,36.5555556 C51.1777778,33.5269278 53.6324833,31.0722222 56.6611111,31.0722222 C59.6897389,31.0722222 62.1444444,33.5269278 62.1444444,36.5555556 L62.1444444,67.6277778 L193.744444,67.6277778 L193.744444,36.5555556 C193.744444,33.5269278 196.19915,31.0722222 199.227778,31.0722222 C202.256406,31.0722222 204.711111,33.5269278 204.711111,36.5555556 L204.711111,73.1111111 C204.711111,76.1397389 202.256406,78.5944444 199.227778,78.5944444 L199.227778,78.5944444 Z" id="Shape" fill="#234957"></path>
                        <path d="M224.816667,299.755556 L31.0722222,299.755556 C28.0435944,299.755556 25.5888889,297.30085 25.5888889,294.272222 L25.5888889,62.1444444 C25.5888889,59.1158167 28.0435944,56.6611111 31.0722222,56.6611111 L56.6611111,56.6611111 C59.6897389,56.6611111 62.1444444,59.1158167 62.1444444,62.1444444 C62.1444444,65.1730722 59.6897389,67.6277778 56.6611111,67.6277778 L36.5555556,67.6277778 L36.5555556,288.788889 L219.333333,288.788889 L219.333333,257.734944 C219.333333,254.706317 221.788039,252.251611 224.816667,252.251611 C227.845294,252.251611 230.3,254.706317 230.3,257.734944 L230.3,294.272222 C230.3,297.30085 227.845294,299.755556 224.816667,299.755556 L224.816667,299.755556 Z" id="Shape" fill="#234957"></path>
                        <path d="M224.816667,131.581722 C221.788039,131.581722 219.333333,129.127017 219.333333,126.098389 L219.333333,67.6277778 L199.227778,67.6277778 C196.19915,67.6277778 193.744444,65.1730722 193.744444,62.1444444 C193.744444,59.1158167 196.19915,56.6611111 199.227778,56.6611111 L224.816667,56.6611111 C227.845294,56.6611111 230.3,59.1158167 230.3,62.1444444 L230.3,126.098389 C230.3,129.127017 227.845294,131.581722 224.816667,131.581722 L224.816667,131.581722 Z" id="Shape" fill="#234957"></path>
                        <path d="M140.738889,38.3833333 L115.15,38.3833333 C112.121372,38.3833333 109.666667,35.9286278 109.666667,32.9 C109.666667,29.8713722 112.121372,27.4166667 115.15,27.4166667 L140.738889,27.4166667 C143.767517,27.4166667 146.222222,29.8713722 146.222222,32.9 C146.222222,35.9286278 143.767517,38.3833333 140.738889,38.3833333 L140.738889,38.3833333 Z" id="Shape" fill="#234957"></path>
                        <path d="M159.016667,193.744444 L67.6277778,193.744444 C64.59915,193.744444 62.1444444,191.289739 62.1444444,188.261111 C62.1444444,185.232483 64.59915,182.777778 67.6277778,182.777778 L159.016667,182.777778 C162.045294,182.777778 164.5,185.232483 164.5,188.261111 C164.5,191.289739 162.045294,193.744444 159.016667,193.744444 L159.016667,193.744444 Z" id="Shape" fill="#234957"></path>
                        <path d="M164.5,228.472222 L67.6277778,228.472222 C64.59915,228.472222 62.1444444,226.017517 62.1444444,222.988889 C62.1444444,219.960261 64.59915,217.505556 67.6277778,217.505556 L164.5,217.505556 C167.528628,217.505556 169.983333,219.960261 169.983333,222.988889 C169.983333,226.017517 167.528628,228.472222 164.5,228.472222 L164.5,228.472222 Z" id="Shape" fill="#234957"></path>
                        <path d="M184.605556,263.2 L67.6277778,263.2 C64.59915,263.2 62.1444444,260.745294 62.1444444,257.716667 C62.1444444,254.688039 64.59915,252.233333 67.6277778,252.233333 L184.605556,252.233333 C187.634183,252.233333 190.088889,254.688039 190.088889,257.716667 C190.088889,260.745294 187.634183,263.2 184.605556,263.2 L184.605556,263.2 Z" id="Shape" fill="#234957"></path>
                        <path d="M233.955556,329 L21.9333333,329 C9.83892778,329 0,319.161072 0,307.066667 L0,51.1777778 C0,39.0833722 9.83892778,29.2444444 21.9333333,29.2444444 L78.5944444,29.2444444 C81.6230722,29.2444444 84.0777778,31.69915 84.0777778,34.7277778 C84.0777778,37.7564056 81.6230722,40.2111111 78.5944444,40.2111111 L21.9333333,40.2111111 C15.8852167,40.2111111 10.9666667,45.1296611 10.9666667,51.1777778 L10.9666667,307.066667 C10.9666667,313.114783 15.8852167,318.033333 21.9333333,318.033333 L233.955556,318.033333 C240.003672,318.033333 244.922222,313.114783 244.922222,307.066667 L244.922222,263.181722 C244.922222,260.153094 247.376928,257.698389 250.405556,257.698389 C253.434183,257.698389 255.888889,260.153094 255.888889,263.181722 L255.888889,307.066667 C255.888889,319.161072 246.049961,329 233.955556,329 L233.955556,329 Z" id="Shape" fill="#234957"></path>
                        <path d="M250.405556,126.134944 C247.376928,126.134944 244.922222,123.680239 244.922222,120.651611 L244.922222,51.1777778 C244.922222,45.1296611 240.003672,40.2111111 233.955556,40.2111111 L177.294444,40.2111111 C174.265817,40.2111111 171.811111,37.7564056 171.811111,34.7277778 C171.811111,31.69915 174.265817,29.2444444 177.294444,29.2444444 L233.955556,29.2444444 C246.049961,29.2444444 255.888889,39.0833722 255.888889,51.1777778 L255.888889,120.651611 C255.888889,123.680239 253.434183,126.134944 250.405556,126.134944 L250.405556,126.134944 Z" id="Shape" fill="#234957"></path>
                        <path d="M177.294444,40.2111111 C174.265817,40.2111111 171.811111,37.7564056 171.811111,34.7277778 L171.811111,21.9333333 C171.811111,15.8852167 166.892561,10.9666667 160.844444,10.9666667 L95.0444444,10.9666667 C88.9963278,10.9666667 84.0777778,15.8852167 84.0777778,21.9333333 L84.0777778,34.7277778 C84.0777778,37.7564056 81.6230722,40.2111111 78.5944444,40.2111111 C75.5658167,40.2111111 73.1111111,37.7564056 73.1111111,34.7277778 L73.1111111,21.9333333 C73.1111111,9.83892778 82.9500389,0 95.0444444,0 L160.844444,0 C172.93885,0 182.777778,9.83892778 182.777778,21.9333333 L182.777778,34.7277778 C182.777778,37.7564056 180.323072,40.2111111 177.294444,40.2111111 L177.294444,40.2111111 Z" id="Shape" fill="#234957"></path>
                        <path d="M252.233333,268.683333 C251.577161,268.683333 250.900883,268.683333 250.242883,268.663228 C240.687261,268.410994 231.414944,266.436994 222.701928,262.792406 C194.009472,250.820461 175.466667,222.998028 175.466667,191.916667 C175.466667,160.835306 194.009472,133.012872 222.705583,121.0391 C231.416772,117.396339 240.689089,115.422339 250.261161,115.170106 C250.900883,115.15 251.577161,115.15 252.233333,115.15 C294.562839,115.15 329,149.587161 329,191.916667 C329,234.246172 294.562839,268.683333 252.233333,268.683333 L252.233333,268.683333 Z M252.081628,126.116667 C251.580817,126.116667 251.067211,126.116667 250.568228,126.133117 C242.337744,126.348794 234.390567,128.039489 226.931406,131.157678 C202.327689,141.424306 186.433333,165.27315 186.433333,191.916667 C186.433333,218.560183 202.327689,242.409028 226.92775,252.673828 C234.390567,255.793844 242.337744,257.484539 250.54995,257.700217 C251.118389,257.718494 251.679517,257.716667 252.233333,257.716667 C288.51655,257.716667 318.033333,228.199883 318.033333,191.916667 C318.033333,155.63345 288.51655,126.116667 252.233333,126.116667 C252.183983,126.116667 252.130978,126.116667 252.081628,126.116667 L252.081628,126.116667 Z" id="Shape" fill="#234957"></path>
                        <path d="M246.75,217.505556 C245.346267,217.505556 243.944361,216.970017 242.873283,215.898939 L220.93995,193.965606 C218.797794,191.825278 218.797794,188.3525 220.93995,186.212172 C223.082106,184.070017 226.551228,184.070017 228.693383,186.212172 L250.626717,208.145506 C252.768872,210.285833 252.768872,213.758611 250.626717,215.898939 C249.555639,216.970017 248.153733,217.505556 246.75,217.505556 L246.75,217.505556 Z" id="Shape" fill="#234957"></path>
                        <path d="M246.75,217.505556 C245.346267,217.505556 243.944361,216.970017 242.873283,215.898939 C240.731128,213.758611 240.731128,210.285833 242.873283,208.145506 L279.428839,171.58995 C281.570994,169.447794 285.040117,169.447794 287.182272,171.58995 C289.324428,173.730278 289.324428,177.203056 287.182272,179.343383 L250.626717,215.898939 C249.555639,216.970017 248.153733,217.505556 246.75,217.505556 L246.75,217.505556 Z" id="Shape" fill="#234957"></path>
                        <path d="M109.666667,166.327778 C106.638039,166.327778 104.183333,163.873072 104.183333,160.844444 L104.183333,157.444778 C104.183333,150.248817 98.0346889,144.394444 90.475,144.394444 L88.6472222,144.394444 C81.0875333,144.394444 74.9388889,150.248817 74.9388889,157.444778 L74.9388889,160.844444 C74.9388889,163.873072 72.4841833,166.327778 69.4555556,166.327778 C66.4269278,166.327778 63.9722222,163.873072 63.9722222,160.844444 L63.9722222,157.444778 C63.9722222,144.202528 75.0412444,133.427778 88.6472222,133.427778 L90.475,133.427778 C104.080978,133.427778 115.15,144.202528 115.15,157.444778 L115.15,160.844444 C115.15,163.873072 112.695294,166.327778 109.666667,166.327778 L109.666667,166.327778 Z" id="Shape" fill="#234957"></path>
                        <path d="M89.5611111,129.772222 C80.48985,129.772222 73.1111111,122.393483 73.1111111,113.322222 C73.1111111,104.250961 80.48985,96.8722222 89.5611111,96.8722222 C98.6323722,96.8722222 106.011111,104.250961 106.011111,113.322222 C106.011111,122.393483 98.6323722,129.772222 89.5611111,129.772222 L89.5611111,129.772222 Z M89.5611111,107.838889 C86.5379667,107.838889 84.0777778,110.299078 84.0777778,113.322222 C84.0777778,116.345367 86.5379667,118.805556 89.5611111,118.805556 C92.5842556,118.805556 95.0444444,116.345367 95.0444444,113.322222 C95.0444444,110.299078 92.5842556,107.838889 89.5611111,107.838889 L89.5611111,107.838889 Z" id="Shape" fill="#234957"></path>
                    </g>
                </g>
            </g>
        </g>
    </g>
</svg>