<?xml version="1.0" encoding="UTF-8" standalone="no"?>
<svg width="400px" height="400px" viewBox="0 0 400 400" version="1.1" xmlns="http://www.w3.org/2000/svg" xmlns:xlink="http://www.w3.org/1999/xlink">
    <!-- Generator: Sketch 3.8.3 (29802) - http://www.bohemiancoding.com/sketch -->
    <title>onboard-invite</title>
    <desc>Created with Sketch.</desc>
    <defs></defs>
    <g id="Page-1" stroke="none" stroke-width="1" fill="none" fill-rule="evenodd">
        <g id="onboard-invite">
            <g transform="translate(50.000000, 88.000000)" id="Layer_1">
                <g>
                    <polygon id="Shape" fill="#F6FAFC" points="243.712875 67.8893351 243.712875 227.914196 40.3498137 227.914196 40.3498137 67.4044113 142.354143 142.244321"></polygon>
                    <polygon id="Shape" fill="#E6F0F4" points="245.811065 225.974501 243.390076 67.8893351 142.031344 142.244321 118.789851 131.091073"></polygon>
                    <path d="M260.982595,5.33416204 L142.031344,92.1355262 L23.0800934,5.33416204 C24.5326867,5.01087949 25.98528,4.84923822 27.4378733,4.84923822 L256.624815,4.84923822 C258.077408,4.84923822 259.530002,5.01087949 260.982595,5.33416204 L260.982595,5.33416204 Z" id="Shape" fill="#F6FAFC"></path>
                    <path d="M40.3498137,67.4044113 L40.3498137,227.914196 L27.4378733,227.914196 C15.0101307,227.914196 4.84197764,217.730796 4.84197764,205.284418 L4.84197764,42.3500138 L40.3498137,67.4044113 L40.3498137,67.4044113 Z" id="Shape" fill="#E85049"></path>
                    <polygon id="Shape" fill="#D63C34" points="40.3498137 94.398504 40.3498137 67.4044113 4.84197764 42.3500138 4.84197764 52.6950553"></polygon>
                    <path d="M279.220711,42.3500138 L279.220711,205.284418 C279.220711,217.730796 269.052558,227.914196 256.624815,227.914196 L243.712875,227.914196 L243.712875,67.8893351 L279.220711,42.3500138 L279.220711,42.3500138 Z" id="Shape" fill="#D63C34"></path>
                    <polygon id="Shape" fill="#CC1F1B" points="243.712875 94.398504 243.712875 67.4044113 279.220711 42.3500138 279.220711 52.6950553"></polygon>
                    <path d="M279.220711,27.4790166 L279.220711,42.3500138 L243.390076,67.8893351 L142.031344,142.244321 L40.0270152,67.4044113 L4.84197764,42.3500138 L4.84197764,27.4790166 C4.84197764,16.48741 12.7505411,7.27385733 23.0800934,5.33416204 L142.031344,92.1355262 L260.982595,5.33416204 C271.312147,7.27385733 279.220711,16.48741 279.220711,27.4790166 L279.220711,27.4790166 Z" id="Shape" fill="#E85049"></path>
                    <polygon id="Shape" fill="#FFFFFF" points="42.448004 225.327936 41.6410077 67.8893351 142.99974 142.244321 154.943284 138.849854"></polygon>
                    <path d="M256.624815,232.763435 L27.4378733,232.763435 C12.2663434,232.763435 0,220.478698 0,205.284418 L0,27.4790166 C0,14.3860734 9.36115677,3.07118421 22.1116979,0.484923822 C23.8870897,0.161641274 25.6624815,0 27.4378733,0 L256.624815,0 C258.400207,0 260.175599,0.161641274 261.95099,0.484923822 C274.862931,3.07118421 284.062688,14.3860734 284.062688,27.4790166 L284.062688,205.284418 C284.062688,220.478698 271.796345,232.763435 256.624815,232.763435 L256.624815,232.763435 Z M27.4378733,9.69847644 C26.3080785,9.69847644 25.1782837,9.86011772 24.0484889,10.021759 C15.817127,11.6381717 9.68395528,19.0736703 9.68395528,27.4790166 L9.68395528,205.284418 C9.68395528,215.144536 17.5925188,223.064958 27.4378733,223.064958 L256.624815,223.064958 C266.470169,223.064958 274.378733,215.144536 274.378733,205.284418 L274.378733,27.4790166 C274.378733,19.0736703 268.406961,11.6381717 260.014199,10.021759 C258.884405,9.86011772 257.75461,9.69847644 256.624815,9.69847644 L27.4378733,9.69847644 L27.4378733,9.69847644 Z" id="Shape" fill="#234957"></path>
                    <path d="M142.031344,147.093559 C141.062949,147.093559 140.094553,146.770277 139.126158,146.123712 L37.1218286,71.2838018 L2.09819031,46.3910456 C-0.161399255,44.7746329 -0.645597019,41.86509 0.968395528,39.6021121 C2.58238807,37.3391343 5.48757466,36.8542105 7.74716422,38.4706232 L42.9322017,63.5250207 L144.936531,138.364931 C147.034721,139.981343 147.518919,143.052528 145.904926,145.153864 C144.936531,146.446994 143.483937,147.093559 142.031344,147.093559 L142.031344,147.093559 Z" id="Shape" fill="#234957"></path>
                    <path d="M142.031344,147.093559 C140.578751,147.093559 139.126158,146.446994 138.157762,145.153864 C136.543769,143.052528 137.027967,139.981343 139.126158,138.364931 L240.484889,64.0099445 L276.315524,38.4706232 C278.413714,36.8542105 281.4803,37.5007756 283.094293,39.6021121 C284.708285,41.86509 284.062688,44.7746329 281.964498,46.3910456 L246.133863,71.7687257 L144.775131,146.123712 C143.968135,146.770277 142.99974,147.093559 142.031344,147.093559 L142.031344,147.093559 Z" id="Shape" fill="#234957"></path>
                    <path d="M142.031344,96.9847644 C141.062949,96.9847644 140.094553,96.6614819 139.126158,96.0149168 L20.1749068,9.21355262 C18.0767165,7.59713988 17.5925188,4.52595567 19.0451121,2.42461911 C20.6591046,0.323282548 23.7256904,-0.161641274 25.8238807,1.29313019 L144.775131,88.0944943 C146.873322,89.7109071 147.35752,92.7820913 145.904926,94.8834279 C144.936531,96.3381993 143.483937,96.9847644 142.031344,96.9847644 L142.031344,96.9847644 Z" id="Shape" fill="#234957"></path>
                    <path d="M142.031344,96.9847644 C140.578751,96.9847644 139.126158,96.3381993 138.157762,95.0450691 C136.543769,92.9437326 137.027967,89.8725484 139.287557,88.2561356 L258.238807,1.45477147 C260.336998,-0.161641274 263.403584,0.323282548 265.017576,2.58626038 C266.631569,4.68759695 266.147371,7.75878115 263.887781,9.37519389 L144.936531,96.0149168 C143.968135,96.6614819 142.99974,96.9847644 142.031344,96.9847644 L142.031344,96.9847644 Z" id="Shape" fill="#234957"></path>
                    <path d="M40.3498137,232.763435 C37.6060263,232.763435 35.507836,230.662098 35.507836,227.914196 L35.507836,67.8893351 C35.507836,65.1414334 37.6060263,63.0400969 40.3498137,63.0400969 C43.093601,63.0400969 45.1917913,65.1414334 45.1917913,67.8893351 L45.1917913,227.914196 C45.1917913,230.662098 43.093601,232.763435 40.3498137,232.763435 L40.3498137,232.763435 Z" id="Shape" fill="#234957"></path>
                    <path d="M243.712875,232.763435 C240.969087,232.763435 238.870897,230.662098 238.870897,227.914196 L238.870897,67.8893351 C238.870897,65.1414334 240.969087,63.0400969 243.712875,63.0400969 C246.456662,63.0400969 248.554852,65.1414334 248.554852,67.8893351 L248.554852,227.914196 C248.554852,230.662098 246.456662,232.763435 243.712875,232.763435 L243.712875,232.763435 Z" id="Shape" fill="#234957"></path>
                    <g id="Group" transform="translate(183.995150, 113.951362)">
                        <g id="XMLID_543_" transform="translate(4.841978, 4.849238)" fill="#3EB38A">
                            <path d="M62.9457093,0.00573613256 L61.3317168,0.00573613256 C53.261754,0.167377407 45.6759891,1.94543142 38.7358211,4.85497435 C15.9785262,14.3918095 0,36.8599466 0,63.045833 C0,89.2317194 15.9785262,111.699856 38.7358211,121.236692 C45.6759891,124.146235 53.261754,125.762647 61.3317168,126.08593 L62.9457093,126.08593 C97.6465491,126.08593 125.891419,97.7987069 125.891419,63.045833 C125.891419,28.2929591 97.6465491,0.00573613256 62.9457093,0.00573613256 L62.9457093,0.00573613256 Z" id="Shape"></path>
                        </g>
                        <g id="XMLID_542_" transform="translate(15.328055, 15.361657)" fill="#2A9E71">
                            <path d="M87.1604718,0 C93.7778412,10.021759 97.6514233,21.9832133 97.6514233,34.7528739 C97.6514233,69.5057478 69.4065538,97.7929708 34.705714,97.7929708 L33.0917215,97.7929708 C25.0217587,97.6313295 17.4359938,95.8532755 10.4958258,92.9437326 C6.78364295,91.3273198 3.23285935,89.5492658 0.00487425749,87.286288 C6.94504221,97.6313295 16.6289975,105.875034 28.2497438,110.724273 C35.1899118,113.633816 42.7756767,115.250228 50.8456395,115.573511 L52.459632,115.573511 C87.1604718,115.573511 115.405341,87.286288 115.405341,52.5334141 C115.405341,30.5502008 104.268793,11.3148892 87.1604718,0 L87.1604718,0 Z" id="Shape"></path>
                        </g>
                        <g id="XMLID_541_" transform="translate(0.000000, -0.000000)" fill="#234957">
                            <path d="M67.787687,135.784406 L66.0122952,135.784406 C57.6195339,135.622765 49.3881719,133.844711 41.6410077,130.611886 C16.3013247,119.943561 0,95.3740878 0,67.8950712 C0,40.4160546 16.3013247,15.846581 41.6410077,5.1782569 C49.3881719,1.94543142 57.4581347,0.167377407 66.0122952,0.00573613256 L67.787687,0.00573613256 C105.232314,0.00573613256 135.575374,30.3942956 135.575374,67.8950712 C135.575374,105.395847 105.232314,135.784406 67.787687,135.784406 L67.787687,135.784406 Z M67.6262877,10.5124189 L66.3350937,10.5124189 L66.3350937,10.5124189 C59.0721272,10.5124189 52.1319593,11.8055491 45.5145898,14.5534508 C23.7256904,23.6053621 9.68395528,44.6187278 9.68395528,68.0567125 C9.68395528,91.6563385 23.7256904,112.669704 45.5145898,121.721615 C52.1319593,124.469517 59.0721272,125.924289 66.3350937,126.08593 L67.787687,126.08593 C99.9061386,126.08593 125.891419,100.384967 125.891419,68.2183538 C125.891419,36.0517402 99.9061386,10.5124189 67.6262877,10.5124189 L67.6262877,10.5124189 L67.6262877,10.5124189 Z" id="Shape"></path>
                        </g>
                        <g transform="translate(35.507836, 36.375023)" id="Shape">
                            <path d="M53.261754,24.2461911 L43.5777988,24.2461911 L43.5777988,14.5477147 C43.5777988,9.21355262 39.2200189,4.84923822 33.8938435,4.84923822 L33.8938435,4.84923822 C28.5676681,4.84923822 24.2098882,9.21355262 24.2098882,14.5477147 L24.2098882,24.2461911 L14.5259329,24.2461911 C9.19975752,24.2461911 4.84197764,28.6105055 4.84197764,33.9446675 L4.84197764,33.9446675 C4.84197764,39.2788296 9.19975752,43.643144 14.5259329,43.643144 L24.2098882,43.643144 L24.2098882,53.3416204 C24.2098882,58.6757825 28.5676681,63.0400969 33.8938435,63.0400969 L33.8938435,63.0400969 C39.2200189,63.0400969 43.5777988,58.6757825 43.5777988,53.3416204 L43.5777988,43.643144 L53.261754,43.643144 C58.5879294,43.643144 62.9457093,39.2788296 62.9457093,33.9446675 L62.9457093,33.9446675 C62.9457093,28.6105055 58.5879294,24.2461911 53.261754,24.2461911 L53.261754,24.2461911 Z" fill="#FFFFFF"></path>
                            <path d="M33.8938435,67.8893351 C25.8238807,67.8893351 19.3679106,61.4236841 19.3679106,53.3416204 L19.3679106,48.4923822 L14.5259329,48.4923822 C6.45597019,48.4923822 0,42.0267312 0,33.9446675 C0,25.8626038 6.45597019,19.3969529 14.5259329,19.3969529 L19.3679106,19.3969529 L19.3679106,14.5477147 C19.3679106,6.46565096 25.8238807,0 33.8938435,0 C41.9638062,0 48.4197764,6.46565096 48.4197764,14.5477147 L48.4197764,19.3969529 L53.261754,19.3969529 C61.3317168,19.3969529 67.787687,25.8626038 67.787687,33.9446675 C67.787687,42.0267312 61.3317168,48.4923822 53.261754,48.4923822 L48.4197764,48.4923822 L48.4197764,53.3416204 C48.4197764,61.4236841 41.9638062,67.8893351 33.8938435,67.8893351 L33.8938435,67.8893351 Z M14.5259329,29.0954293 C11.7821456,29.0954293 9.68395528,31.1967659 9.68395528,33.9446675 C9.68395528,36.6925692 11.7821456,38.7939058 14.5259329,38.7939058 L24.2098882,38.7939058 C26.9536755,38.7939058 29.0518658,40.8952423 29.0518658,43.643144 L29.0518658,53.3416204 C29.0518658,56.0895221 31.1500562,58.1908586 33.8938435,58.1908586 C36.6376308,58.1908586 38.7358211,56.0895221 38.7358211,53.3416204 L38.7358211,43.643144 C38.7358211,40.8952423 40.8340114,38.7939058 43.5777988,38.7939058 L53.261754,38.7939058 C56.0055414,38.7939058 58.1037317,36.6925692 58.1037317,33.9446675 C58.1037317,31.1967659 56.0055414,29.0954293 53.261754,29.0954293 L43.5777988,29.0954293 C40.8340114,29.0954293 38.7358211,26.9940928 38.7358211,24.2461911 L38.7358211,14.5477147 C38.7358211,11.799813 36.6376308,9.69847644 33.8938435,9.69847644 C31.1500562,9.69847644 29.0518658,11.799813 29.0518658,14.5477147 L29.0518658,24.2461911 C29.0518658,26.9940928 26.9536755,29.0954293 24.2098882,29.0954293 L14.5259329,29.0954293 L14.5259329,29.0954293 Z" fill="#234957"></path>
                        </g>
                    </g>
                </g>
            </g>
        </g>
    </g>
</svg>