<?xml version="1.0" encoding="UTF-8" standalone="no"?><svg width="400" height="400" viewBox="0 0 400 400" xmlns="http://www.w3.org/2000/svg"><title>onboard-invite</title><g fill="none" fill-rule="evenodd"><path fill="#F6FAFC" d="M293.713 155.89v160.024H90.35v-160.51l102.004 74.84z"/><path fill="#E6F0F4" d="M295.811 313.975l-2.42-158.086-101.36 74.355-23.241-11.153z"/><path d="M310.983 93.334L192.03 180.136 73.081 93.334a20.005 20.005 0 0 1 4.357-.485h229.187c1.452 0 2.905.162 4.358.485z" fill="#F6FAFC"/><path d="M90.35 155.404v160.51H77.438c-12.428 0-22.596-10.183-22.596-22.63V130.35l35.508 25.054z" fill="#E85049"/><path fill="#D63C34" d="M90.35 182.399v-26.995L54.842 130.35v10.345zM329.22 130.35v162.934c0 12.447-10.167 22.63-22.595 22.63h-12.912V155.89l35.508-25.539z"/><path fill="#CC1F1B" d="M293.713 182.399v-26.995l35.508-25.054v10.345z"/><path d="M329.22 115.479v14.871l-35.83 25.54-101.359 74.354-102.004-74.84-35.185-25.054v-14.871c0-10.992 7.909-20.205 18.238-22.145l118.951 86.802 118.952-86.802c10.33 1.94 18.238 11.153 18.238 22.145z" fill="#E85049"/><path fill="#FFF" d="M92.448 313.328l-.807-157.439L193 230.244l11.943-3.394z"/><path d="M306.625 320.763H77.438C62.266 320.763 50 308.48 50 293.284V115.48c0-13.093 9.361-24.408 22.112-26.994A29.674 29.674 0 0 1 77.438 88h229.187c1.775 0 3.55.162 5.326.485 12.912 2.586 22.112 13.901 22.112 26.994v177.805c0 15.195-12.267 27.48-27.438 27.48zM77.438 97.698c-1.13 0-2.26.162-3.39.324-8.23 1.616-14.364 9.052-14.364 17.457v177.805c0 9.86 7.909 17.781 17.754 17.781h229.187c9.845 0 17.754-7.92 17.754-17.78V115.478c0-8.405-5.972-15.84-14.365-17.457-1.13-.162-2.26-.324-3.39-.324H77.439z" fill="#234957"/><path d="M192.031 235.094c-.968 0-1.936-.324-2.905-.97l-102.004-74.84-35.024-24.893c-2.26-1.616-2.744-4.526-1.13-6.789 1.614-2.263 4.52-2.748 6.78-1.131l35.184 25.054 102.005 74.84c2.098 1.616 2.582 4.688.968 6.789a4.81 4.81 0 0 1-3.874 1.94z" fill="#234957"/><path d="M192.031 235.094a4.81 4.81 0 0 1-3.873-1.94c-1.614-2.101-1.13-5.173.968-6.79l101.359-74.354 35.83-25.54c2.099-1.616 5.165-.97 6.78 1.132 1.613 2.263.968 5.173-1.13 6.789l-35.831 25.378-101.359 74.355a4.379 4.379 0 0 1-2.744.97zM192.031 184.985c-.968 0-1.936-.324-2.905-.97L70.175 97.214c-2.098-1.617-2.582-4.688-1.13-6.79 1.614-2.1 4.68-2.586 6.779-1.13l118.951 86.8c2.098 1.617 2.583 4.688 1.13 6.79-.968 1.454-2.421 2.1-3.874 2.1z" fill="#234957"/><path d="M192.031 184.985a4.81 4.81 0 0 1-3.873-1.94c-1.614-2.101-1.13-5.172 1.13-6.789l118.95-86.801c2.099-1.617 5.166-1.132 6.78 1.131 1.614 2.102 1.13 5.173-1.13 6.79l-118.951 86.639c-.969.646-1.937.97-2.906.97zM90.35 320.763c-2.744 0-4.842-2.1-4.842-4.849V155.89c0-2.748 2.098-4.849 4.842-4.849 2.744 0 4.842 2.101 4.842 4.85v160.024c0 2.748-2.098 4.85-4.842 4.85zM293.713 320.763c-2.744 0-4.842-2.1-4.842-4.849V155.89c0-2.748 2.098-4.849 4.842-4.849 2.744 0 4.842 2.101 4.842 4.85v160.024c0 2.748-2.098 4.85-4.842 4.85z" fill="#234957"/><path d="M301.783 206.806h-1.614c-8.07.162-15.656 1.94-22.596 4.85-22.757 9.536-38.736 32.005-38.736 58.19 0 26.186 15.979 48.654 38.736 58.191 6.94 2.91 14.526 4.526 22.596 4.85h1.614c34.7 0 62.946-28.288 62.946-63.04 0-34.753-28.245-63.04-62.946-63.04z" fill="#3EB38A"/><path d="M336.484 217.313c6.617 10.022 10.49 21.983 10.49 34.753 0 34.753-28.244 63.04-62.945 63.04h-1.614c-8.07-.162-15.656-1.94-22.596-4.85-3.712-1.616-7.263-3.394-10.49-5.657 6.94 10.345 16.623 18.59 28.244 23.438 6.94 2.91 14.526 4.526 22.596 4.85h1.614c34.7 0 62.946-28.288 62.946-63.04 0-21.984-11.137-41.22-28.245-52.534z" fill="#2A9E71"/><path d="M301.783 337.736h-1.776c-8.392-.162-16.624-1.94-24.37-5.173-25.34-10.668-41.642-35.238-41.642-62.717s16.301-52.048 41.641-62.716c7.747-3.233 15.817-5.011 24.371-5.173h1.776c37.444 0 67.788 30.389 67.788 67.89 0 37.5-30.344 67.889-67.788 67.889zm-.162-125.272h-1.29c-7.264 0-14.204 1.293-20.821 4.04-21.79 9.053-35.83 30.066-35.83 53.504 0 23.6 14.04 44.613 35.83 53.665 6.617 2.748 13.557 4.203 20.82 4.364h1.453c32.118 0 58.104-25.7 58.104-57.867s-25.986-57.706-58.266-57.706z" fill="#234957"/><path d="M322.765 262.573h-9.684v-9.699c0-5.334-4.358-9.698-9.684-9.698s-9.684 4.364-9.684 9.698v9.699h-9.684c-5.326 0-9.684 4.364-9.684 9.698 0 5.334 4.358 9.699 9.684 9.699h9.684v9.698c0 5.334 4.358 9.698 9.684 9.698s9.684-4.364 9.684-9.698v-9.698h9.684c5.326 0 9.684-4.365 9.684-9.699s-4.358-9.698-9.684-9.698z" fill="#FFF"/><path d="M303.397 306.216c-8.07 0-14.526-6.466-14.526-14.548v-4.85h-4.842c-8.07 0-14.526-6.465-14.526-14.547s6.456-14.548 14.526-14.548h4.842v-4.849c0-8.082 6.456-14.548 14.526-14.548s14.526 6.466 14.526 14.548v4.85h4.842c8.07 0 14.526 6.465 14.526 14.547s-6.456 14.548-14.526 14.548h-4.842v4.849c0 8.082-6.456 14.548-14.526 14.548zm-19.368-38.794c-2.744 0-4.842 2.101-4.842 4.85 0 2.747 2.098 4.848 4.842 4.848h9.684c2.744 0 4.842 2.102 4.842 4.85v9.698c0 2.748 2.098 4.85 4.842 4.85 2.744 0 4.842-2.102 4.842-4.85v-9.698c0-2.748 2.098-4.85 4.842-4.85h9.684c2.744 0 4.842-2.101 4.842-4.849s-2.098-4.85-4.842-4.85h-9.684c-2.744 0-4.842-2.1-4.842-4.848v-9.699c0-2.748-2.098-4.85-4.842-4.85-2.744 0-4.842 2.102-4.842 4.85v9.699c0 2.747-2.098 4.849-4.842 4.849h-9.684z" fill="#234957"/></g></svg>