<?xml version="1.0" encoding="UTF-8" standalone="no"?>
<svg width="400px" height="400px" viewBox="0 0 400 400" version="1.1" xmlns="http://www.w3.org/2000/svg" xmlns:xlink="http://www.w3.org/1999/xlink">
    <!-- Generator: Sketch 3.8.3 (29802) - http://www.bohemiancoding.com/sketch -->
    <title>onboard-complete</title>
    <desc>Created with Sketch.</desc>
    <defs></defs>
    <g id="Page-1" stroke="none" stroke-width="1" fill="none" fill-rule="evenodd">
        <g id="onboard-complete">
            <g transform="translate(40.000000, 40.000000)" id="Layer_1">
                <g>
                    <g id="Group">
                        <g id="XMLID_249_" transform="translate(26.592593, 33.683951)" fill="#F6FAFC">
                            <path d="M199.444444,21.451358 C234.723951,44.3209877 258.125432,84.2098765 258.125432,129.417284 C258.125432,200.508148 200.508148,258.125432 129.417284,258.125432 C58.3264198,258.125432 0.709135802,200.508148 0.709135802,129.417284 C0.709135802,58.3264198 58.3264198,0.709135802 129.417284,0.709135802 C155.300741,0.709135802 179.234074,8.33234568 199.444444,21.451358 L199.444444,21.451358 Z" id="Shape"></path>
                        </g>
                        <g id="XMLID_248_" transform="translate(59.392593, 218.943237)" fill="#EA5F6E">
                            <path d="M96.617284,26.9496023 C110.445432,26.9496023 121.437037,15.6034295 121.437037,1.95256531 L121.437037,0.00244185253 C148.02963,4.96639247 172.849383,17.9081209 191.818765,36.1683678 C170.544691,53.0103431 144.661235,64.5337999 116.473086,68.4340468 C109.559012,69.3204665 102.467654,69.8523184 95.3762963,69.8523184 C90.7669136,69.8523184 86.1575309,69.6750344 81.5481481,69.1431826 C68.9609877,68.0794789 56.905679,65.4202196 45.3822222,61.5199727 C29.9585185,56.3787381 15.5985185,48.7555283 2.83407407,39.1821949 C1.94765432,38.4730591 1.23851852,37.9412073 0.352098765,37.2320715 C19.4987654,18.6172567 43.4320988,5.14367642 71.7975309,0.179725803 L71.7975309,2.12984926 C71.7975309,9.04392333 74.4567901,15.2488616 79.0661728,19.8582443 C83.4982716,24.1130591 89.7032099,26.9496023 96.617284,26.9496023 L96.617284,26.9496023 Z" id="Shape"></path>
                        </g>
                        <g id="XMLID_247_" transform="translate(157.782716, 246.424691)" fill="#D34A5E">
                            <path d="M3.72296296,44.4982716 C3.72296296,44.4982716 -3.19111111,22.1604938 1.95012346,0 L9.57333333,0 L21.0967901,38.6479012 L3.72296296,44.4982716 L3.72296296,44.4982716 Z" id="Shape"></path>
                        </g>
                        <g id="XMLID_246_" transform="translate(176.400000, 215.402469)" fill="#D34A5E">
                            <path d="M78.357037,38.822716 C71.265679,43.2548148 58.5012346,51.9417284 48.5733333,57.082963 C34.7451852,40.0637037 21.094321,25.7037037 0.706666667,14.7120988 C1.94765432,11.1664198 2.83407407,7.26617284 2.83407407,3.36592593 L2.83407407,0.706666667 C32.7950617,6.02518519 54.4237037,20.7397531 78.357037,38.822716 L78.357037,38.822716 Z" id="Shape"></path>
                        </g>
                        <g id="XMLID_245_" transform="translate(55.846914, 218.948148)" fill="#FF667C">
                            <path d="M0.174814815,36.5180247 C7.26617284,40.9501235 18.0804938,47.6869136 28.0083951,52.8281481 C44.4958025,36.8725926 63.4651852,23.7535802 84.5619753,14.1802469 C83.3209877,10.6345679 82.4345679,6.73432099 82.4345679,2.83407407 L82.4345679,0.174814815 C52.2962963,5.84790123 24.1081481,18.4350617 0.174814815,36.5180247 L0.174814815,36.5180247 Z" id="Shape"></path>
                        </g>
                        <g id="XMLID_244_" transform="translate(175.511111, 213.629630)" fill="#234957">
                            <path d="M75.8775309,46.9777778 C74.6365432,46.9777778 73.2182716,46.4459259 72.1545679,45.5595062 C53.3624691,27.4765432 29.9609877,15.4212346 4.60938272,10.8118519 C1.77283951,10.28 -0.177283951,7.44345679 0.354567901,4.60691358 C0.886419753,1.77037037 3.72296296,-0.179753086 6.55950617,0.352098765 C34.0385185,5.49333333 59.2128395,18.4350617 79.4232099,37.9362963 C81.5506173,39.8864198 81.5506173,43.2548148 79.6004938,45.3822222 C78.7140741,46.4459259 77.2958025,46.9777778 75.8775309,46.9777778 L75.8775309,46.9777778 Z" id="Shape"></path>
                        </g>
                        <g id="XMLID_243_" transform="translate(54.074074, 213.629630)" fill="#234957">
                            <path d="M5.49333333,48.2187654 C4.07506173,48.2187654 2.83407407,47.6869136 1.77037037,46.6232099 C-0.357037037,44.4958025 -0.357037037,41.1274074 1.77037037,39.177284 C22.1580247,18.9669136 47.6869136,5.67061728 76.0523457,0.352098765 C78.8888889,-0.179753086 81.7254321,1.77037037 82.257284,4.60691358 C82.7891358,7.44345679 80.8390123,10.28 78.0024691,10.8118519 C51.9417284,15.7758025 28.185679,28.185679 9.39358025,46.8004938 C8.15259259,47.6869136 6.91160494,48.2187654 5.49333333,48.2187654 L5.49333333,48.2187654 Z" id="Shape"></path>
                        </g>
                        <g id="XMLID_240_" transform="translate(5.318519, 12.409877)" fill="#E6F0F4">
                            <path d="M232.773827,24.2879012 C209.195062,8.86419753 181.006914,0 150.691358,0 C67.5451852,0 0,67.5451852 0,150.691358 C0,233.837531 67.5451852,301.382716 150.691358,301.382716 C233.837531,301.382716 301.382716,233.837531 301.382716,150.691358 C301.382716,97.6834568 274.080988,51.2350617 232.773827,24.2879012 L232.773827,24.2879012 Z M150.691358,279.399506 C79.6004938,279.399506 21.9832099,221.782222 21.9832099,150.691358 C21.9832099,79.6004938 79.6004938,21.9832099 150.691358,21.9832099 C176.574815,21.9832099 200.508148,29.6064198 220.718519,42.7254321 C255.998025,65.5950617 279.399506,105.483951 279.399506,150.691358 C279.399506,221.782222 221.782222,279.399506 150.691358,279.399506 L150.691358,279.399506 Z" id="Shape"></path>
                        </g>
                        <g id="XMLID_239_" transform="translate(258.834568, 70.913580)" fill="#3EB38A">
                            <ellipse id="Oval" cx="7.97777778" cy="7.97777778" rx="7.97777778" ry="7.97777778"></ellipse>
                        </g>
                        <g id="XMLID_238_" transform="translate(254.404938, 66.483951)" fill="#234957">
                            <path d="M13.2938272,29.2493827 C8.8617284,29.2493827 4.42962963,27.2992593 1.41580247,23.9308642 C-0.534320988,21.8034568 -0.357037037,18.4350617 1.77037037,16.4849383 C3.89777778,14.5348148 7.26617284,14.7120988 9.2162963,16.8395062 C10.28,18.0804938 11.6982716,18.6123457 13.2938272,18.6123457 C16.3076543,18.6123457 18.6123457,16.3076543 18.6123457,13.2938272 C18.6123457,10.6345679 18.2577778,9.74814815 17.7259259,9.03901235 C15.9530864,6.73432099 16.4849383,3.36592593 18.7896296,1.59308642 C21.094321,-0.179753086 24.462716,0.352098765 26.2355556,2.65679012 C28.8948148,6.20246914 29.2493827,10.102716 29.2493827,13.2938272 C29.2493827,22.1580247 22.1580247,29.2493827 13.2938272,29.2493827 L13.2938272,29.2493827 Z" id="Shape"></path>
                        </g>
                        <g id="XMLID_237_" transform="translate(5.318519, 12.409877)" fill="#3EB38A">
                            <path d="M255.643457,224.973333 C232.419259,257.948148 193.948642,279.399506 150.691358,279.399506 C79.6004938,279.399506 21.9832099,221.782222 21.9832099,150.691358 C21.9832099,79.6004938 79.6004938,21.9832099 150.691358,21.9832099 C176.574815,21.9832099 200.508148,29.6064198 220.718519,42.7254321 C228.519012,47.8666667 246.956543,67.8997531 253.516049,74.4592593 L271.244444,60.2765432 C263.798519,52.8306173 241.638025,30.1382716 232.773827,24.2879012 C209.195062,8.86419753 181.006914,0 150.691358,0 C67.5451852,0 0,67.5451852 0,150.691358 C0,233.837531 67.5451852,301.382716 150.691358,301.382716 C205.294815,301.382716 253.161481,272.308148 279.57679,228.87358 L255.643457,224.973333 L255.643457,224.973333 Z" id="Shape"></path>
                        </g>
                        <g id="XMLID_236_" transform="translate(164.874074, 287.200000)" fill="#2A9E71">
                            <path d="M0.354567901,3.54567901 C0.354567901,3.54567901 7.44592593,20.3876543 15.0691358,24.6424691 L38.4706173,15.9555556 L22.1604938,0.709135802 L0.354567901,3.54567901 L0.354567901,3.54567901 Z" id="Shape"></path>
                        </g>
                        <g id="XMLID_235_" transform="translate(21.274074, 28.365432)" fill="#234957">
                            <path d="M134.735802,268.762469 C60.8083951,268.762469 0.709135802,208.66321 0.709135802,134.735802 C0.709135802,60.8083951 60.8083951,0.709135802 134.735802,0.709135802 C160.619259,0.709135802 185.970864,8.15506173 207.599506,22.3377778 L207.599506,22.3377778 C245.89284,47.1575309 268.762469,89.1738272 268.762469,134.735802 C268.762469,208.66321 208.66321,268.762469 134.735802,268.762469 L134.735802,268.762469 Z M134.735802,11.3461728 C66.6587654,11.3461728 11.3461728,66.6587654 11.3461728,134.735802 C11.3461728,202.81284 66.6587654,258.125432 134.735802,258.125432 C202.81284,258.125432 258.125432,202.81284 258.125432,134.735802 C258.125432,92.7195062 237.028642,54.0716049 201.92642,31.2019753 L201.92642,31.2019753 C181.893333,18.2602469 158.669136,11.3461728 134.735802,11.3461728 L134.735802,11.3461728 Z" id="Shape"></path>
                        </g>
                        <g id="XMLID_234_" transform="translate(0.000000, 7.091358)" fill="#234957">
                            <path d="M156.009877,312.019753 C70.0271605,312.019753 0,241.992593 0,156.009877 C0,70.0271605 70.0271605,0 156.009877,0 C186.502716,0 215.931852,8.68691358 240.928889,25.174321 C285.42716,54.2488889 312.019753,103.179259 312.019753,156.009877 C312.019753,241.992593 241.992593,312.019753 156.009877,312.019753 L156.009877,312.019753 Z M156.009877,10.637037 C75.8775309,10.637037 10.637037,75.8775309 10.637037,156.009877 C10.637037,236.142222 75.8775309,301.382716 156.009877,301.382716 C236.142222,301.382716 301.382716,236.142222 301.382716,156.009877 C301.382716,106.724938 276.562963,61.162963 235.255802,34.0385185 L235.255802,34.0385185 C211.677037,18.7920988 184.375309,10.637037 156.009877,10.637037 L156.009877,10.637037 Z" id="Shape"></path>
                        </g>
                        <g id="XMLID_137_" transform="translate(47.866667, 0.000000)">
                            <g id="XMLID_233_" transform="translate(15.071605, 101.051852)">
                                <ellipse id="Oval" fill="#F4CEAE" cx="21.8034568" cy="21.628642" rx="16.3101235" ry="16.3101235"></ellipse>
                                <path d="M21.8034568,43.257284 C9.9254321,43.257284 0.174814815,33.5066667 0.174814815,21.628642 C0.174814815,9.75061728 9.9254321,0 21.8034568,0 C33.6814815,0 43.4320988,9.75061728 43.4320988,21.628642 C43.4320988,33.5066667 33.6814815,43.257284 21.8034568,43.257284 L21.8034568,43.257284 Z M21.8034568,10.637037 C15.7758025,10.637037 10.8118519,15.6009877 10.8118519,21.628642 C10.8118519,27.6562963 15.7758025,32.6202469 21.8034568,32.6202469 C27.8311111,32.6202469 32.7950617,27.6562963 32.7950617,21.628642 C32.7950617,15.6009877 27.8311111,10.637037 21.8034568,10.637037 L21.8034568,10.637037 Z" id="Shape" fill="#234957"></path>
                            </g>
                            <g id="XMLID_232_" transform="translate(157.782716, 101.051852)">
                                <ellipse id="Oval" fill="#EEB490" cx="22.1604938" cy="21.628642" rx="16.3101235" ry="16.3101235"></ellipse>
                                <path d="M22.1604938,43.257284 C10.2824691,43.257284 0.531851852,33.5066667 0.531851852,21.628642 C0.531851852,9.75061728 10.2824691,0 22.1604938,0 C34.0385185,0 43.7891358,9.75061728 43.7891358,21.628642 C43.7891358,33.5066667 34.0385185,43.257284 22.1604938,43.257284 L22.1604938,43.257284 Z M22.1604938,10.637037 C16.1328395,10.637037 11.1688889,15.6009877 11.1688889,21.628642 C11.1688889,27.6562963 16.1328395,32.6202469 22.1604938,32.6202469 C28.1881481,32.6202469 33.1520988,27.6562963 33.1520988,21.628642 C33.1520988,15.6009877 28.1881481,10.637037 22.1604938,10.637037 L22.1604938,10.637037 Z" id="Shape" fill="#234957"></path>
                            </g>
                            <g id="XMLID_231_" transform="translate(83.323457, 206.538272)" fill="#EEB490">
                                <path d="M49.6395062,11.8755556 L49.6395062,13.825679 C49.6395062,27.6538272 38.4706173,38.822716 24.8197531,38.822716 C17.905679,38.822716 11.8780247,35.9861728 7.26864198,31.5540741 C2.83654321,26.9446914 0,20.7397531 0,13.825679 L0,11.8755556 L0,0.706666667 L0,0.352098765 C7.80049383,3.36592593 16.1328395,1.23851852 24.8197531,1.23851852 C33.5066667,1.23851852 41.8390123,3.36592593 49.6395062,0.352098765 L49.6395062,0.706666667 L49.6395062,11.8755556 L49.6395062,11.8755556 Z" id="Shape"></path>
                            </g>
                            <g id="XMLID_230_" transform="translate(83.323457, 206.538272)" fill="#F4CEAE">
                                <path d="M49.8167901,0.529382716 C48.3985185,12.9392593 37.7614815,22.6898765 24.997037,22.6898765 C18.082963,22.6898765 11.8780247,19.8533333 7.26864198,15.4212346 C3.36839506,11.5209877 0.709135802,6.37975309 0.177283951,0.706666667 L0.177283951,0.706666667 L0.177283951,1.06123457 L0.177283951,12.2301235 L0.177283951,14.1802469 C0.177283951,21.094321 3.01382716,27.2992593 7.44592593,31.908642 C12.0553086,36.3407407 18.082963,39.177284 24.997037,39.177284 C38.8251852,39.177284 49.8167901,27.8311111 49.8167901,14.1802469 L49.8167901,12.2301235 L49.8167901,1.06123457 L49.8167901,0.529382716 C49.6395062,0.529382716 49.8167901,0.529382716 49.8167901,0.529382716 L49.8167901,0.529382716 Z" id="Shape"></path>
                            </g>
                            <g id="XMLID_229_" transform="translate(78.004938, 202.103704)" fill="#234957">
                                <path d="M30.4928395,49.4622222 C22.3377778,49.4622222 14.537284,46.0938272 9.04148148,40.0661728 C3.19111111,34.0385185 0,26.2380247 0,18.4375309 L0,5.31851852 C0,2.30469136 2.30469136,0 5.31851852,0 C8.33234568,0 10.637037,2.30469136 10.637037,5.31851852 L10.637037,18.4375309 C10.637037,25.3516049 14.537284,30.4928395 16.8419753,32.7975309 C20.3876543,36.6977778 25.3516049,38.8251852 30.4928395,38.8251852 C41.1298765,38.8251852 49.6395062,29.6064198 49.6395062,18.4375309 L49.6395062,5.31851852 C49.6395062,2.30469136 51.9441975,0 54.9580247,0 C57.9718519,0 60.2765432,2.30469136 60.2765432,5.31851852 L60.2765432,18.4375309 C60.2765432,35.4567901 46.9802469,49.4622222 30.4928395,49.4622222 L30.4928395,49.4622222 Z" id="Shape"></path>
                            </g>
                            <g id="XMLID_227_" transform="translate(37.229630, 81.550617)" fill="#F4CEAE">
                                <path d="M141.82716,0 L141.82716,62.4039506 C141.82716,92.7195062 122.680494,118.602963 95.9106173,128.885432 C88.1101235,131.721975 79.7777778,133.317531 71.0908642,133.317531 C62.4039506,133.317531 53.894321,131.721975 46.2711111,128.885432 C36.6977778,125.339753 28.1881481,119.666667 21.0967901,112.575309 C8.33234568,99.6335802 0.177283951,82.0824691 0.177283951,62.4039506 L0.177283951,7.80049383 C3.72296296,6.73679012 19.1466667,2.30469136 26.5925926,2.30469136 L141.82716,0 L141.82716,0 Z" id="Shape"></path>
                            </g>
                            <g id="XMLID_226_" transform="translate(39.002469, 81.550617)" fill="#EEB490">
                                <path d="M0,0.531851852 L0,21.2740741 L115.057284,29.0745679 C115.057284,59.3901235 95.9106173,97.6834568 69.1407407,107.788642 C61.3402469,110.625185 53.0079012,112.220741 44.3209877,112.220741 C35.6340741,112.220741 27.1244444,110.625185 19.5012346,107.788642 C17.1965432,106.902222 15.0691358,106.015802 12.9417284,104.952099 C14.8918519,107.611358 17.0192593,110.093333 19.3239506,112.398025 C26.4153086,119.489383 34.9249383,125.162469 44.4982716,128.708148 C52.2987654,131.544691 60.6311111,133.140247 69.3180247,133.140247 C78.0049383,133.140247 86.337284,131.544691 94.1377778,128.708148 C120.907654,118.602963 140.054321,92.5422222 140.054321,62.2266667 L140.054321,0 L0,0.531851852 L0,0.531851852 Z" id="Shape"></path>
                            </g>
                            <g id="XMLID_225_" transform="translate(79.777778, 167.535802)" fill="#234957">
                                <path d="M28.3654321,20.5624691 C18.6148148,20.5624691 9.21876543,16.8395062 2.12740741,9.9254321 C-4.99600361e-14,7.79802469 -4.99600361e-14,4.42962963 1.95012346,2.47950617 C4.07753086,0.352098765 7.44592593,0.352098765 9.39604938,2.30222222 C14.537284,7.26617284 21.2740741,10.102716 28.1881481,10.102716 C35.4567901,10.102716 42.3708642,7.26617284 47.3348148,1.94765432 C49.4622222,-0.179753086 52.8306173,-0.179753086 54.7807407,1.77037037 C56.9081481,3.89777778 56.9081481,7.26617284 54.9580247,9.2162963 C48.0439506,16.4849383 38.6479012,20.5624691 28.3654321,20.5624691 L28.3654321,20.5624691 Z" id="Shape"></path>
                            </g>
                            <g id="XMLID_224_" transform="translate(101.051852, 145.372840)" fill="#234957">
                                <path d="M8.86419753,10.637037 L5.31851852,10.637037 C2.30469136,10.637037 0,8.33234568 0,5.31851852 C0,2.30469136 2.30469136,0 5.31851852,0 L8.86419753,0 C11.8780247,0 14.182716,2.30469136 14.182716,5.31851852 C14.182716,8.33234568 11.8780247,10.637037 8.86419753,10.637037 L8.86419753,10.637037 Z" id="Shape"></path>
                            </g>
                            <g id="XMLID_223_" transform="translate(69.140741, 117.007407)" fill="#234957">
                                <path d="M9.75061728,19.6785185 C4.43209877,19.6785185 0.177283951,15.4237037 0.177283951,10.1051852 C0.177283951,4.78666667 4.43209877,0.531851852 9.75061728,0.531851852 C15.0691358,0.531851852 19.3239506,4.78666667 19.3239506,10.1051852 C19.3239506,15.4237037 15.0691358,19.6785185 9.75061728,19.6785185 L9.75061728,19.6785185 Z M9.75061728,9.04148148 C9.04148148,9.04148148 8.68691358,9.39604938 8.68691358,10.1051852 C8.68691358,10.814321 9.04148148,11.1688889 9.75061728,11.1688889 C10.4597531,11.1688889 10.814321,10.814321 10.814321,10.1051852 C10.814321,9.39604938 10.4597531,9.04148148 9.75061728,9.04148148 L9.75061728,9.04148148 Z" id="Shape"></path>
                            </g>
                            <g id="XMLID_222_" transform="translate(127.644444, 117.007407)" fill="#234957">
                                <path d="M9.75061728,19.6785185 C4.43209877,19.6785185 0.177283951,15.4237037 0.177283951,10.1051852 C0.177283951,4.78666667 4.43209877,0.531851852 9.75061728,0.531851852 C15.0691358,0.531851852 19.3239506,4.78666667 19.3239506,10.1051852 C19.3239506,15.4237037 15.0691358,19.6785185 9.75061728,19.6785185 L9.75061728,19.6785185 Z M9.75061728,9.04148148 C9.04148148,9.04148148 8.68691358,9.39604938 8.68691358,10.1051852 C8.68691358,10.814321 9.04148148,11.1688889 9.75061728,11.1688889 C10.4597531,11.1688889 10.814321,10.814321 10.814321,10.1051852 C10.814321,9.39604938 10.4597531,9.04148148 9.75061728,9.04148148 L9.75061728,9.04148148 Z" id="Shape"></path>
                            </g>
                            <g id="XMLID_221_" transform="translate(113.461728, 108.143210)" fill="#4E676D">
                                <path d="M16.1328395,0.886419753 C20.9195062,0.531851852 26.2380247,0.886419753 30.8474074,0.886419753 C43.6118519,0.886419753 53.894321,11.1688889 53.894321,23.9333333 C53.894321,36.6977778 43.6118519,46.9802469 30.8474074,46.9802469 C19.6785185,46.9802469 4.78666667,34.7476543 1.4182716,18.4375309 C0.886419753,16.1328395 0.709135802,13.8281481 0.709135802,11.5234568 C0.709135802,3.54567901 7.80049383,1.4182716 16.1328395,0.886419753 L16.1328395,0.886419753 Z" id="Shape"></path>
                            </g>
                            <g id="XMLID_220_" transform="translate(125.871605, 105.486420)" fill="#608287">
                                <polygon id="Shape" points="7.97777778 50.8780247 0.709135802 46.8004938 15.6009877 0.883950617 24.2879012 0.529382716"></polygon>
                            </g>
                            <g id="XMLID_219_" transform="translate(143.600000, 110.804938)" fill="#608287">
                                <polygon id="Shape" points="10.4597531 45.9140741 0.177283951 46.268642 14.8918519 0.529382716 22.6923457 7.79802469"></polygon>
                            </g>
                            <g id="XMLID_218_" transform="translate(47.866667, 108.143210)" fill="#4E676D">
                                <path d="M38.4706173,0.886419753 C46.802963,1.4182716 53.894321,3.54567901 53.894321,11.5234568 C53.894321,14.182716 53.5397531,16.8419753 52.8306173,19.5012346 C48.9303704,35.2795062 34.5703704,46.9802469 23.5787654,46.9802469 C10.814321,46.9802469 0.531851852,36.6977778 0.531851852,23.9333333 C0.531851852,11.1688889 10.814321,0.886419753 23.5787654,0.886419753 C28.3654321,1.0637037 33.6839506,0.709135802 38.4706173,0.886419753 L38.4706173,0.886419753 Z" id="Shape"></path>
                            </g>
                            <g id="XMLID_217_" transform="translate(54.958025, 106.370370)" fill="#608287">
                                <polygon id="Shape" points="14.182716 50.348642 0.177283951 45.9165432 15.0691358 0 30.4928395 0"></polygon>
                            </g>
                            <g id="XMLID_216_" transform="translate(44.320988, 103.713580)" fill="#234957">
                                <path d="M28.1881481,56.7283951 C12.7644444,56.7283951 0.354567901,44.1412346 0.354567901,28.7175309 C0.354567901,13.2938272 12.7644444,0.706666667 28.1881481,0.706666667 L32.6202469,0.706666667 L42.7254321,0.706666667 L42.902716,0.706666667 C56.1990123,1.59308642 62.9358025,6.91160494 62.9358025,16.4849383 C62.9358025,20.2079012 62.5812346,23.0444444 61.8720988,25.7037037 C57.7945679,42.1911111 42.1935802,56.7283951 28.1881481,56.7283951 L28.1881481,56.7283951 Z M37.7614815,11.3437037 L32.7975309,11.3437037 L28.1881481,11.3437037 C18.7920988,11.3437037 10.9916049,19.1441975 10.9916049,28.7175309 C10.9916049,38.2908642 18.7920988,46.091358 28.1881481,46.091358 C36.3432099,46.091358 48.3985185,35.9861728 51.5896296,23.0444444 L51.5896296,22.8671605 C52.1214815,21.2716049 52.2987654,19.3214815 52.2987654,16.4849383 C52.2987654,14.5348148 52.2987654,12.0528395 42.1935802,11.3437037 L37.7614815,11.3437037 L37.7614815,11.3437037 Z" id="Shape"></path>
                            </g>
                            <g id="XMLID_215_" transform="translate(109.032099, 103.713580)" fill="#234957">
                                <path d="M35.277037,56.7283951 C21.2716049,56.7283951 5.67061728,42.1911111 1.59308642,25.7037037 C0.706666667,22.3353086 0.529382716,18.7896296 0.529382716,16.4849383 C0.529382716,6.91160494 7.26617284,1.59308642 20.5624691,0.706666667 L20.7397531,0.706666667 C24.1081481,0.529382716 27.4765432,0.706666667 30.8449383,0.706666667 L35.277037,0.706666667 C50.7007407,0.706666667 63.1106173,13.2938272 63.1106173,28.7175309 C63.1106173,44.1412346 50.7007407,56.7283951 35.277037,56.7283951 L35.277037,56.7283951 Z M21.2716049,11.3437037 C11.1664198,12.0528395 11.1664198,14.5348148 11.1664198,16.4849383 C11.1664198,19.1441975 11.3437037,21.2716049 11.8755556,22.8671605 L11.8755556,23.0444444 C15.0666667,35.9861728 26.9446914,46.091358 35.277037,46.091358 C44.6730864,46.091358 52.4735802,38.2908642 52.4735802,28.7175309 C52.4735802,19.1441975 44.6730864,11.3437037 35.277037,11.3437037 L30.6676543,11.3437037 C27.4765432,11.3437037 24.2854321,11.1664198 21.2716049,11.3437037 L21.2716049,11.3437037 Z" id="Shape"></path>
                            </g>
                            <g id="XMLID_158_" transform="translate(74.459259, 104.597531)" fill="#234957">
                                <path d="M63.8222222,10.637037 L5.31851852,10.637037 C2.30469136,10.637037 0,8.33234568 0,5.31851852 C0,2.30469136 2.30469136,0 5.31851852,0 L63.8222222,0 C66.8360494,0 69.1407407,2.30469136 69.1407407,5.31851852 C69.1407407,8.33234568 66.8360494,10.637037 63.8222222,10.637037 L63.8222222,10.637037 Z" id="Shape"></path>
                            </g>
                            <g id="XMLID_157_" transform="translate(95.733333, 120.553086)" fill="#234957">
                                <path d="M19.5012346,10.637037 L5.31851852,10.637037 C2.30469136,10.637037 0,8.33234568 0,5.31851852 C0,2.30469136 2.30469136,0 5.31851852,0 L19.5012346,0 C22.5150617,0 24.8197531,2.30469136 24.8197531,5.31851852 C24.8197531,8.33234568 22.5150617,10.637037 19.5012346,10.637037 L19.5012346,10.637037 Z" id="Shape"></path>
                            </g>
                            <g id="XMLID_156_" transform="translate(5.318519, 7.091358)" fill="#FBB735">
                                <path d="M173.738272,63.4676543 L173.738272,82.0824691 C173.738272,70.2044444 154.414321,71.622716 154.414321,71.622716 L31.0246914,78.0049383 C14.0054321,78.1822222 0,64.3540741 0,47.3348148 L0,29.4291358 L0,27.8335802 C0,11.7007407 13.8281481,0 29.9609877,0 L31.9111111,0 L31.9111111,27.8335802 C31.9111111,17.0192593 40.7753086,10.637037 51.4123457,10.637037 L51.4123457,27.8335802 L145.018272,34.3930864 C161.151111,34.2158025 173.738272,47.3348148 173.738272,63.4676543 L173.738272,63.4676543 Z" id="Shape"></path>
                            </g>
                            <g id="XMLID_155_" opacity="0.5" transform="translate(51.412346, 29.254321)" fill="#FFCC6F">
                                <path d="M15.9555556,25.1718519 L15.9555556,7.26617284 L15.9555556,5.67061728 L15.9555556,4.42962963 L14.7145679,4.42962963 C9.39604938,4.42962963 5.31851852,0.529382716 0,3.01135802 L0,0.706666667 L0,2.30222222 L0,24.9945679 C0,39.177284 9.57333333,51.0553086 22.5150617,54.7782716 L10.637037,55.4874074 C12.4098765,55.8419753 14.36,56.0192593 16.3101235,56.0192593 L38.6479012,54.7782716 C25.7061728,51.2325926 15.9555556,39.3545679 15.9555556,25.1718519 L15.9555556,25.1718519 Z" id="Shape"></path>
                            </g>
                            <g id="XMLID_153_" transform="translate(132.079012, 39.891358)" fill="#FF9933">
                                <path d="M18.0804938,1.41580247 L0.706666667,0.174814815 C14.8893827,4.07506173 25.7037037,17.1940741 25.7037037,32.4404938 L25.7037037,39 L28.0083951,38.822716 C28.0083951,38.822716 46.9777778,37.4044444 46.9777778,49.2824691 L46.9777778,30.6676543 C46.9777778,14.5348148 34.2133333,1.41580247 18.0804938,1.41580247 L18.0804938,1.41580247 Z" id="Shape"></path>
                            </g>
                            <g id="XMLID_152_" transform="translate(1.772840, 7.091358)" fill="#FFD366">
                                <path d="M30.1382716,47.3348148 L30.1382716,29.4291358 L30.1382716,27.8335802 L30.1382716,0 L28.72,0 C12.5871605,0 0,11.7007407 0,27.8335802 L0,29.4291358 L0,47.3348148 C0,64.3540741 13.4735802,78.1822222 30.4928395,78.1822222 L52.8306173,76.9412346 C39.8888889,73.3955556 30.1382716,61.5175309 30.1382716,47.3348148 L30.1382716,47.3348148 Z" id="Shape"></path>
                            </g>
                            <g id="XMLID_149_" transform="translate(31.911111, 65.595062)" fill="#234957">
                                <path d="M76.4093827,154.946173 C67.3679012,154.946173 58.3264198,153.350617 49.6395062,150.159506 C39.534321,146.436543 30.4928395,140.586173 22.5150617,132.608395 C8.15506173,118.425679 0.177283951,99.2790123 0.177283951,78.891358 L0.177283951,19.5012346 C0.177283951,16.4874074 2.48197531,14.182716 5.49580247,14.182716 C8.50962963,14.182716 10.814321,16.4874074 10.814321,19.5012346 L10.814321,78.891358 C10.814321,96.4424691 17.5511111,112.929877 29.9609877,125.162469 C36.8750617,132.076543 44.6755556,137.040494 53.1851852,140.231605 C68.077037,145.550123 84.2098765,145.727407 99.2790123,140.231605 C124.630617,130.658272 141.649877,106.193086 141.649877,79.068642 L141.649877,5.31851852 C141.649877,2.30469136 143.954568,0 146.968395,0 C149.982222,0 152.286914,2.30469136 152.286914,5.31851852 L152.286914,79.068642 C152.286914,110.447901 132.431111,139.167901 103.001975,150.159506 C94.3150617,153.350617 85.4508642,154.946173 76.4093827,154.946173 L76.4093827,154.946173 Z" id="Shape"></path>
                            </g>
                            <g id="XMLID_148_" transform="translate(0.000000, 49.639506)" fill="#234957">
                                <path d="M179.05679,46.0938272 C176.042963,46.0938272 173.738272,43.7891358 173.738272,40.7753086 C173.738272,39.534321 173.383704,38.8251852 172.674568,37.9387654 C170.015309,35.4567901 163.81037,34.3930864 160.264691,34.5703704 L37.2296296,40.9525926 L36.8750617,40.9525926 C16.4874074,40.9525926 0,24.997037 0,5.31851852 C0,2.30469136 2.30469136,-4.97379915e-14 5.31851852,-4.97379915e-14 C8.33234568,-4.97379915e-14 10.637037,2.30469136 10.637037,5.31851852 C10.637037,19.1466667 22.3377778,30.3155556 36.6977778,30.3155556 L159.73284,23.9333333 C161.328395,23.9333333 173.383704,23.9333333 179.94321,30.3155556 C182.779753,33.1520988 184.198025,36.6977778 184.198025,40.7753086 C184.375309,43.7891358 182.070617,46.0938272 179.05679,46.0938272 L179.05679,46.0938272 Z" id="Shape"></path>
                            </g>
                            <g id="XMLID_146_" transform="translate(145.372840, 35.456790)" fill="#234957">
                                <path d="M33.6839506,40.7753086 C30.6701235,40.7753086 28.3654321,38.4706173 28.3654321,35.4567901 C28.3654321,21.8059259 18.2602469,11.1688889 5.31851852,11.1688889 C2.30469136,11.1688889 0,8.86419753 0,5.85037037 C0,2.83654321 2.30469136,0.531851852 5.31851852,0.531851852 C24.2879012,0.531851852 39.0024691,15.9555556 39.0024691,35.4567901 C39.0024691,38.4706173 36.6977778,40.7753086 33.6839506,40.7753086 L33.6839506,40.7753086 Z" id="Shape"></path>
                            </g>
                            <g id="XMLID_144_" transform="translate(0.000000, 31.911111)" fill="#234957">
                                <path d="M5.31851852,28.3654321 C2.30469136,28.3654321 0,26.0607407 0,23.0469136 L0,5.31851852 C0,2.30469136 2.30469136,0 5.31851852,0 C8.33234568,0 10.637037,2.30469136 10.637037,5.31851852 L10.637037,23.0469136 C10.637037,26.0607407 8.33234568,28.3654321 5.31851852,28.3654321 L5.31851852,28.3654321 Z" id="Shape"></path>
                            </g>
                            <g id="XMLID_143_" transform="translate(50.528395, 29.254321)" fill="#234957">
                                <path d="M100.162963,17.371358 L99.8083951,17.371358 L5.84790123,11.5209877 C2.83407407,11.3437037 0.706666667,8.8617284 0.883950617,5.84790123 C1.06123457,2.83407407 3.54320988,0.706666667 6.55703704,0.883950617 L100.517531,6.73432099 C103.531358,6.91160494 105.658765,9.39358025 105.481481,12.4074074 C105.304198,15.2439506 102.999506,17.371358 100.162963,17.371358 L100.162963,17.371358 Z" id="Shape"></path>
                            </g>
                            <g id="XMLID_142_" transform="translate(31.911111, 12.409877)" fill="#234957">
                                <path d="M5.31851852,28.3654321 C2.30469136,28.3654321 0,26.0607407 0,23.0469136 C0,9.75061728 10.4597531,0 24.8197531,0 C27.8335802,0 30.1382716,2.30469136 30.1382716,5.31851852 C30.1382716,8.33234568 27.8335802,10.637037 24.8197531,10.637037 C17.905679,10.637037 10.637037,14.537284 10.637037,23.0469136 C10.637037,26.0607407 8.33234568,28.3654321 5.31851852,28.3654321 L5.31851852,28.3654321 Z" id="Shape"></path>
                            </g>
                            <g id="XMLID_141_" transform="translate(51.412346, 14.182716)" fill="#234957">
                                <path d="M5.31851852,26.5925926 C2.30469136,26.5925926 0,24.2879012 0,21.2740741 L0,5.31851852 C0,2.30469136 2.30469136,0 5.31851852,0 C8.33234568,0 10.637037,2.30469136 10.637037,5.31851852 L10.637037,21.2740741 C10.637037,24.2879012 8.33234568,26.5925926 5.31851852,26.5925926 L5.31851852,26.5925926 Z" id="Shape"></path>
                            </g>
                            <g id="XMLID_140_" fill="#234957">
                                <path d="M5.31851852,40.7753086 C2.30469136,40.7753086 0,38.4706173 0,35.4567901 C0,16.8419753 17.7283951,0 37.2296296,0 C40.2434568,0 42.5481481,2.30469136 42.5481481,5.31851852 C42.5481481,8.33234568 40.2434568,10.637037 37.2296296,10.637037 C23.5787654,10.637037 10.637037,22.6923457 10.637037,35.4567901 C10.637037,38.4706173 8.33234568,40.7753086 5.31851852,40.7753086 L5.31851852,40.7753086 Z" id="Shape"></path>
                            </g>
                            <g id="XMLID_138_" transform="translate(31.911111, 0.000000)" fill="#234957">
                                <path d="M5.31851852,40.7753086 C2.30469136,40.7753086 0,38.4706173 0,35.4567901 L0,5.31851852 C0,2.30469136 2.30469136,0 5.31851852,0 C8.33234568,0 10.637037,2.30469136 10.637037,5.31851852 L10.637037,35.4567901 C10.637037,38.4706173 8.33234568,40.7753086 5.31851852,40.7753086 L5.31851852,40.7753086 Z" id="Shape"></path>
                            </g>
                        </g>
                        <g id="XMLID_136_" transform="translate(175.511111, 175.511111)" fill="#3EB38A">
                            <path d="M69.1407407,0 L67.3679012,0 C58.5037037,0.177283951 50.171358,2.12740741 42.5481481,5.31851852 C17.5511111,15.7782716 0,40.4207407 0,69.1407407 C0,97.8607407 17.5511111,122.50321 42.5481481,132.962963 C50.171358,136.154074 58.5037037,137.926914 67.3679012,138.281481 L69.1407407,138.281481 C107.25679,138.281481 138.281481,107.25679 138.281481,69.1407407 C138.281481,31.0246914 107.25679,0 69.1407407,0 L69.1407407,0 Z" id="Shape"></path>
                        </g>
                        <g id="XMLID_133_" transform="translate(187.032126, 187.032126)" fill="#2A9E71">
                            <path d="M95.7357752,0.00244185253 C103.004417,10.8167628 107.259232,23.9357752 107.259232,38.1184912 C107.259232,76.2345406 76.2345406,107.259232 38.1184912,107.259232 L36.3456517,107.259232 C27.4814542,107.081948 19.1491085,105.131825 11.5258986,101.940713 C7.44836778,100.167874 3.54812086,98.2177505 0.00244185253,95.7357752 C7.62565173,107.081948 18.2626888,116.12343 31.0271332,121.441948 C38.6503431,124.633059 46.9826888,126.405899 55.8468863,126.760467 L57.6197258,126.760467 C95.7357752,126.760467 126.760467,95.7357752 126.760467,57.6197258 C126.760467,33.5091085 114.527874,12.4123184 95.7357752,0.00244185253 L95.7357752,0.00244185253 Z" id="Shape"></path>
                        </g>
                        <g id="XMLID_132_" transform="translate(170.192593, 170.192593)" fill="#234957">
                            <path d="M74.4592593,148.918519 L72.6864198,148.918519 C63.6449383,148.741235 54.2488889,146.791111 45.7392593,143.245432 C17.905679,131.544691 0,104.597531 0,74.4592593 C0,44.3209877 17.905679,17.3738272 45.7392593,5.67308642 C54.2488889,2.12740741 63.4676543,0.177283951 72.5091358,0 L72.6864198,0 L74.4592593,0 C115.589136,0 148.918519,33.3293827 148.918519,74.4592593 C148.918519,115.589136 115.589136,148.918519 74.4592593,148.918519 L74.4592593,148.918519 Z M72.6864198,10.637037 C65.0632099,10.814321 57.0854321,12.4098765 49.8167901,15.6009877 C25.8834568,25.5288889 10.4597531,48.7530864 10.4597531,74.4592593 C10.4597531,100.165432 25.8834568,123.38963 49.8167901,133.317531 C57.0854321,136.331358 65.0632099,138.104198 72.6864198,138.281481 L74.2819753,138.281481 C109.561481,138.281481 138.104198,109.738765 138.104198,74.4592593 C138.104198,39.1797531 109.561481,10.637037 74.2819753,10.637037 L72.6864198,10.637037 L72.6864198,10.637037 Z" id="Shape"></path>
                        </g>
                        <g id="XMLID_131_" transform="translate(212.740741, 237.560494)" fill="#234957">
                            <path d="M26.5925926,31.9111111 C25.174321,31.9111111 23.9333333,31.3792593 22.8696296,30.3155556 L1.59555556,9.04148148 C-0.531851852,6.91407407 -0.531851852,3.54567901 1.59555556,1.59555556 C3.72296296,-0.531851852 7.09135802,-0.531851852 9.04148148,1.59555556 L30.3155556,22.8696296 C32.442963,24.997037 32.442963,28.3654321 30.3155556,30.3155556 C29.2518519,31.3792593 28.0108642,31.9111111 26.5925926,31.9111111 L26.5925926,31.9111111 Z" id="Shape"></path>
                        </g>
                        <g id="XMLID_129_" transform="translate(234.014815, 223.377778)" fill="#234957">
                            <path d="M5.31851852,46.0938272 C3.90024691,46.0938272 2.65925926,45.5619753 1.59555556,44.4982716 C-0.531851852,42.3708642 -0.531851852,39.0024691 1.59555556,37.0523457 L37.0523457,1.59555556 C39.1797531,-0.531851852 42.5481481,-0.531851852 44.4982716,1.59555556 C46.625679,3.72296296 46.625679,7.09135802 44.4982716,9.04148148 L9.04148148,44.4982716 C7.97777778,45.5619753 6.73679012,46.0938272 5.31851852,46.0938272 L5.31851852,46.0938272 Z" id="Shape"></path>
                        </g>
                    </g>
                </g>
            </g>
        </g>
    </g>
</svg>