<?xml version="1.0" encoding="UTF-8" standalone="no"?><svg width="400" height="400" viewBox="0 0 400 400" xmlns="http://www.w3.org/2000/svg"><title>onboard-import</title><g fill="none" fill-rule="evenodd"><path d="M55.066 132.458v-15.72c0-11.496 8.276-21.131 19.084-23.16 1.52-.338 3.04-.507 4.56-.507h234.745c1.52 0 3.04.17 4.56.507 10.808 2.198 19.083 11.664 19.083 23.16v18.594H55.066v-2.874z" fill="#3EB38A"/><path fill="#2A9E71" d="M55.066 115.047v20.285h282.032v-20.285z"/><path fill="#F6FAFC" d="M244.213 135.332h92.885v64.236h-92.885zM244.214 263.804h92.884v40.57c0 13.017-10.64 23.666-23.643 23.666h-69.241v-64.236z"/><path fill="#F6FAFC" d="M244.213 199.568h92.885v64.236h-92.885zM149.64 135.332h94.574v64.236H149.64z"/><path fill="#F6FAFC" d="M149.64 263.804h94.574v64.236H149.64z"/><path fill="#F6FAFC" d="M149.64 199.568h94.574v64.236H149.64z"/><path d="M55.066 304.374v-40.57h94.574v64.236H78.71c-13.004 0-23.644-10.65-23.644-23.666zM55.066 199.568h94.574v64.236H55.066zM55.066 135.332h94.574v64.236H55.066z" fill="#D8E5EA"/><g fill="#234957"><path d="M337.098 140.403H55.066c-2.87 0-5.066-2.197-5.066-5.071 0-2.874 2.195-5.071 5.066-5.071h282.032c2.871 0 5.067 2.197 5.067 5.07 0 2.875-2.196 5.072-5.067 5.072zM77.021 121.809c-3.715 0-6.755-3.043-6.755-6.762 0-3.72 3.04-6.762 6.755-6.762s6.755 3.043 6.755 6.762c0 3.719-3.04 6.762-6.755 6.762zM97.287 121.809c-3.716 0-6.755-3.043-6.755-6.762 0-3.72 3.04-6.762 6.755-6.762s6.755 3.043 6.755 6.762c0 3.719-3.04 6.762-6.755 6.762zM117.553 121.809c-3.716 0-6.756-3.043-6.756-6.762 0-3.72 3.04-6.762 6.756-6.762 3.715 0 6.755 3.043 6.755 6.762 0 3.719-3.04 6.762-6.755 6.762zM337.098 268.875H55.066c-2.87 0-5.066-2.197-5.066-5.07 0-2.875 2.195-5.072 5.066-5.072h282.032c2.871 0 5.067 2.197 5.067 5.071 0 2.874-2.196 5.071-5.067 5.071zM337.098 204.64H55.066c-2.87 0-5.066-2.198-5.066-5.072s2.195-5.071 5.066-5.071h282.032c2.871 0 5.067 2.197 5.067 5.071 0 2.874-2.196 5.071-5.067 5.071z"/><path d="M244.214 333.112c-2.871 0-5.067-2.198-5.067-5.072V135.332c0-2.874 2.196-5.071 5.067-5.071 2.87 0 5.066 2.197 5.066 5.07v192.71c0 2.873-2.195 5.07-5.066 5.07zM149.64 333.112c-2.871 0-5.066-2.198-5.066-5.072V135.332c0-2.874 2.195-5.071 5.066-5.071s5.066 2.197 5.066 5.07v192.71c0 2.873-2.195 5.07-5.066 5.07z"/><path d="M313.455 333.112H78.71c-15.875 0-28.71-12.848-28.71-28.738V116.737c0-13.692 9.795-25.525 23.137-28.23A31.066 31.066 0 0 1 78.71 88h234.745c1.858 0 3.715.169 5.573.507 13.51 2.705 23.137 14.538 23.137 28.23v187.637c0 15.89-12.835 28.738-28.71 28.738zM78.71 98.142c-1.182 0-2.365.17-3.547.339-8.613 1.69-15.03 9.466-15.03 18.256v187.637A18.532 18.532 0 0 0 78.71 322.97h234.745a18.532 18.532 0 0 0 18.577-18.595V116.737c0-8.79-6.249-16.566-15.03-18.256-1.183-.17-2.365-.338-3.547-.338H78.71z"/></g><g><path d="M298.256 216.472h-1.69c-8.443.17-16.38 2.029-23.643 5.072-23.812 9.973-40.531 33.47-40.531 60.855 0 27.385 16.72 50.882 40.531 60.855 7.262 3.043 15.2 4.733 23.644 5.071h1.689c36.31 0 65.863-29.582 65.863-65.926s-29.554-65.927-65.863-65.927z" fill="#3EB38A"/><path d="M334.565 228.305c6.924 10.48 10.977 22.99 10.977 36.344 0 36.345-29.554 65.927-65.863 65.927h-1.69c-8.443-.17-16.38-2.029-23.643-5.071-3.884-1.69-7.6-3.55-10.977-5.917 7.262 10.819 17.395 19.44 29.554 24.511 7.262 3.043 15.2 4.734 23.644 5.072h1.689c36.31 0 65.863-29.583 65.863-65.927 0-22.99-11.653-43.106-29.554-54.939z" fill="#2A9E71"/><path d="M298.256 353.397h-1.858c-8.782-.17-17.395-2.029-25.501-5.41-26.515-11.156-43.572-36.85-43.572-65.588 0-28.737 17.057-54.432 43.572-65.589 8.106-3.38 16.55-5.24 25.5-5.409h1.859c39.18 0 70.93 31.78 70.93 70.998s-31.75 70.998-70.93 70.998zm-.17-131.853h-1.35c-7.6 0-14.862 1.69-21.786 4.733-22.799 9.466-37.492 31.442-37.492 56.122s14.693 46.656 37.492 56.122c6.924 2.874 14.186 4.395 21.786 4.733h1.52c33.607 0 60.797-27.216 60.797-60.855 0-33.64-27.19-60.855-60.966-60.855z" fill="#234957"/><path d="M320.21 273.947h-10.133v-10.143c0-5.578-4.56-10.142-10.133-10.142-5.573 0-10.132 4.564-10.132 10.142v10.143h-10.133c-5.573 0-10.133 4.564-10.133 10.142 0 5.579 4.56 10.143 10.133 10.143h10.133v10.142c0 5.579 4.56 10.143 10.132 10.143 5.573 0 10.133-4.564 10.133-10.143v-10.142h10.133c5.573 0 10.133-4.564 10.133-10.143 0-5.578-4.56-10.142-10.133-10.142z" fill="#FFF"/><path d="M299.944 319.588c-8.444 0-15.199-6.761-15.199-15.214v-5.07h-5.066c-8.444 0-15.2-6.763-15.2-15.215a15.143 15.143 0 0 1 15.2-15.214h5.066v-5.07a15.143 15.143 0 0 1 15.2-15.215c8.443 0 15.199 6.762 15.199 15.214v5.071h5.066c8.444 0 15.2 6.762 15.2 15.214a15.143 15.143 0 0 1-15.2 15.214h-5.066v5.071a15.143 15.143 0 0 1-15.2 15.214zm-20.265-40.57c-2.871 0-5.067 2.198-5.067 5.071 0 2.874 2.196 5.072 5.067 5.072h10.133c2.87 0 5.066 2.197 5.066 5.07v10.143c0 2.874 2.195 5.072 5.066 5.072s5.067-2.198 5.067-5.072v-10.142c0-2.874 2.195-5.071 5.066-5.071h10.133c2.871 0 5.067-2.198 5.067-5.072 0-2.873-2.196-5.071-5.067-5.071h-10.133c-2.87 0-5.066-2.198-5.066-5.071v-10.143c0-2.874-2.196-5.071-5.067-5.071-2.87 0-5.066 2.197-5.066 5.071v10.143c0 2.873-2.196 5.071-5.066 5.071h-10.133z" fill="#234957"/></g></g></svg>