<?xml version="1.0" encoding="UTF-8" standalone="no"?>
<svg width="400px" height="400px" viewBox="0 0 400 400" version="1.1" xmlns="http://www.w3.org/2000/svg" xmlns:xlink="http://www.w3.org/1999/xlink">
    <!-- Generator: Sketch 3.8.3 (29802) - http://www.bohemiancoding.com/sketch -->
    <title>onboard-import</title>
    <desc>Created with Sketch.</desc>
    <defs></defs>
    <g id="Page-1" stroke="none" stroke-width="1" fill="none" fill-rule="evenodd">
        <g id="onboard-import">
            <g transform="translate(50.000000, 88.000000)" id="Layer_1">
                <g>
                    <path d="M5.06644049,44.4581776 L5.06644049,28.7372251 C5.06644049,17.2423351 13.3416266,7.60691252 24.150033,5.57840252 C25.6699651,5.24031752 27.1898973,5.07127502 28.7098294,5.07127502 L263.454905,5.07127502 C264.974837,5.07127502 266.49477,5.24031752 268.014702,5.57840252 C278.823108,7.77595502 287.098294,17.2423351 287.098294,28.7372251 L287.098294,44.2891351 L287.098294,47.3319001 L194.213552,47.3319001 L99.6399962,47.3319001 L5.06644049,47.3319001 L5.06644049,44.4581776 L5.06644049,44.4581776 Z" id="Shape" fill="#3EB38A"></path>
                    <polygon id="Shape" fill="#2A9E71" points="5.06644049 27.0468001 5.06644049 27.0468001 5.06644049 44.4581776 5.06644049 47.3319001 99.6399962 47.3319001 194.213552 47.3319001 287.098294 47.3319001 287.098294 44.4581776 287.098294 27.0468001 287.098294 27.0468001"></polygon>
                    <g id="XMLID_537_">
                        <g id="Group" transform="translate(5.066440, 47.331900)">
                            <rect id="Rectangle-path" fill="#F6FAFC" x="189.147111" y="0" width="92.8847422" height="64.2361502"></rect>
                            <path d="M189.147111,128.4723 L282.031854,128.4723 L282.031854,169.042501 C282.031854,182.058773 271.392329,192.708451 258.388465,192.708451 L244.540194,192.708451 L189.147111,192.708451 L189.147111,128.4723 L189.147111,128.4723 Z" id="Shape" fill="#F6FAFC"></path>
                            <rect id="Rectangle-path" fill="#F6FAFC" x="189.147111" y="64.2361502" width="92.8847422" height="64.2361502"></rect>
                            <rect id="Rectangle-path" fill="#F6FAFC" x="94.5735557" y="0" width="94.5735557" height="64.2361502"></rect>
                            <rect id="Rectangle-path" fill="#F6FAFC" x="94.5735557" y="128.4723" width="94.5735557" height="64.2361502"></rect>
                            <rect id="Rectangle-path" fill="#F6FAFC" x="94.5735557" y="64.2361502" width="94.5735557" height="64.2361502"></rect>
                            <path d="M0,169.042501 L0,128.4723 L94.5735557,128.4723 L94.5735557,192.708451 L36.8161342,192.708451 L23.6433889,192.708451 C10.639525,192.708451 0,182.058773 0,169.042501 L0,169.042501 Z" id="Shape" fill="#D8E5EA"></path>
                            <rect id="Rectangle-path" fill="#D8E5EA" x="0" y="64.2361502" width="94.5735557" height="64.2361502"></rect>
                            <rect id="Rectangle-path" fill="#D8E5EA" x="0" y="0" width="94.5735557" height="64.2361502"></rect>
                        </g>
                        <g id="Group" fill="#234957">
                            <path d="M287.098294,52.4031752 L5.06644049,52.4031752 C2.19545754,52.4031752 0,50.2056227 0,47.3319001 C0,44.4581776 2.19545754,42.2606251 5.06644049,42.2606251 L287.098294,42.2606251 C289.969277,42.2606251 292.164735,44.4581776 292.164735,47.3319001 C292.164735,50.2056227 289.969277,52.4031752 287.098294,52.4031752 L287.098294,52.4031752 Z" id="Shape"></path>
                            <path d="M27.0210159,33.8085001 C23.3056262,33.8085001 20.2657619,30.7657351 20.2657619,27.0468001 C20.2657619,23.3278651 23.3056262,20.2851001 27.0210159,20.2851001 C30.7364056,20.2851001 33.7762699,23.3278651 33.7762699,27.0468001 C33.7762699,30.7657351 30.7364056,33.8085001 27.0210159,33.8085001 L27.0210159,33.8085001 Z" id="Shape"></path>
                            <path d="M47.2867779,33.8085001 C43.5713882,33.8085001 40.5315239,30.7657351 40.5315239,27.0468001 C40.5315239,23.3278651 43.5713882,20.2851001 47.2867779,20.2851001 C51.0021676,20.2851001 54.0420319,23.3278651 54.0420319,27.0468001 C54.0420319,30.7657351 51.0021676,33.8085001 47.2867779,33.8085001 L47.2867779,33.8085001 Z" id="Shape"></path>
                            <path d="M67.5525398,33.8085001 C63.8371501,33.8085001 60.7972858,30.7657351 60.7972858,27.0468001 C60.7972858,23.3278651 63.8371501,20.2851001 67.5525398,20.2851001 C71.2679295,20.2851001 74.3077938,23.3278651 74.3077938,27.0468001 C74.3077938,30.7657351 71.2679295,33.8085001 67.5525398,33.8085001 L67.5525398,33.8085001 Z" id="Shape"></path>
                            <path d="M287.098294,180.875476 L5.06644049,180.875476 C2.19545754,180.875476 0,178.677923 0,175.804201 C0,172.930478 2.19545754,170.732926 5.06644049,170.732926 L287.098294,170.732926 C289.969277,170.732926 292.164735,172.930478 292.164735,175.804201 C292.164735,178.677923 289.969277,180.875476 287.098294,180.875476 L287.098294,180.875476 Z" id="Shape"></path>
                            <path d="M287.098294,116.639325 L5.06644049,116.639325 C2.19545754,116.639325 0,114.441773 0,111.56805 C0,108.694328 2.19545754,106.496775 5.06644049,106.496775 L287.098294,106.496775 C289.969277,106.496775 292.164735,108.694328 292.164735,111.56805 C292.164735,114.441773 289.969277,116.639325 287.098294,116.639325 L287.098294,116.639325 Z" id="Shape"></path>
                            <path d="M194.213552,245.111626 C191.342569,245.111626 189.147111,242.914073 189.147111,240.040351 L189.147111,47.3319001 C189.147111,44.4581776 191.342569,42.2606251 194.213552,42.2606251 C197.084535,42.2606251 199.279992,44.4581776 199.279992,47.3319001 L199.279992,240.040351 C199.279992,242.914073 197.084535,245.111626 194.213552,245.111626 L194.213552,245.111626 Z" id="Shape"></path>
                            <path d="M99.6399962,245.111626 C96.7690133,245.111626 94.5735557,242.914073 94.5735557,240.040351 L94.5735557,47.3319001 C94.5735557,44.4581776 96.7690133,42.2606251 99.6399962,42.2606251 C102.510979,42.2606251 104.706437,44.4581776 104.706437,47.3319001 L104.706437,240.040351 C104.706437,242.914073 102.510979,245.111626 99.6399962,245.111626 L99.6399962,245.111626 Z" id="Shape"></path>
                            <path d="M263.454905,245.111626 L28.7098294,245.111626 C12.8349826,245.111626 0,232.264396 0,216.374401 L0,28.7372251 C0,15.0447825 9.79511827,3.21180751 23.1367449,0.507127502 C24.9944397,0.169042501 26.8521346,0 28.7098294,0 L263.454905,0 C265.3126,0 267.170295,0.169042501 269.02799,0.507127502 C282.538498,3.21180751 292.164735,15.0447825 292.164735,28.7372251 L292.164735,216.374401 C292.164735,232.264396 279.329752,245.111626 263.454905,245.111626 L263.454905,245.111626 Z M28.7098294,10.14255 C27.52766,10.14255 26.3454905,10.3115925 25.1633211,10.480635 C16.5503723,12.17106 10.132881,19.9470151 10.132881,28.7372251 L10.132881,216.374401 C10.132881,226.685993 18.4080671,234.969076 28.7098294,234.969076 L263.454905,234.969076 C273.756668,234.969076 282.031854,226.685993 282.031854,216.374401 L282.031854,28.7372251 C282.031854,19.9470151 275.783244,12.17106 267.001414,10.480635 C265.819244,10.3115925 264.637075,10.14255 263.454905,10.14255 L28.7098294,10.14255 L28.7098294,10.14255 Z" id="Shape"></path>
                        </g>
                    </g>
                    <g id="Group" transform="translate(177.325417, 123.401025)">
                        <g id="XMLID_540_" transform="translate(5.066440, 5.071275)" fill="#3EB38A">
                            <path d="M65.8637263,0 L64.1749128,0 C55.7308453,0.169042501 47.7934219,2.02851001 40.5315239,5.07127502 C16.7192536,15.0447825 0,38.5416901 0,65.9265752 C0,93.3114603 16.7192536,116.808368 40.5315239,126.781875 C47.7934219,129.82464 55.7308453,131.515065 64.1749128,131.85315 L65.8637263,131.85315 C102.173216,131.85315 131.727453,102.270713 131.727453,65.9265752 C131.727453,29.5824376 102.173216,0 65.8637263,0 L65.8637263,0 Z" id="Shape"></path>
                        </g>
                        <g id="XMLID_539_" transform="translate(16.013571, 16.904250)" fill="#2A9E71">
                            <path d="M91.2260861,0 C98.1502215,10.480635 102.203374,22.9897801 102.203374,36.3441376 C102.203374,72.6882752 72.6491377,102.270713 36.3396475,102.270713 L34.650834,102.270713 C26.2067666,102.10167 18.2693431,100.242203 11.0074451,97.1994378 C7.12317406,95.5090128 3.40778437,93.6495453 0.0301573838,91.2829503 C7.29205541,102.10167 17.4249364,110.722838 29.5843936,115.794113 C36.8462916,118.836878 44.783715,120.527303 53.2277825,120.865388 L54.916596,120.865388 C91.2260861,120.865388 120.780322,91.2829503 120.780322,54.9388127 C120.780322,31.9490326 109.127509,11.832975 91.2260861,0 L91.2260861,0 Z" id="Shape"></path>
                        </g>
                        <g id="XMLID_538_" fill="#234957">
                            <path d="M70.9301668,141.9957 L69.072472,141.9957 C60.2906418,141.826658 51.677693,139.96719 43.5713882,136.58634 C17.0570163,125.429535 0,99.7350753 0,70.9978502 C0,42.2606251 17.0570163,16.5661651 43.5713882,5.40936002 C51.677693,2.02851001 60.1217604,0.169042501 69.072472,0 L70.9301668,0 C110.11064,0 141.860334,31.7799901 141.860334,70.9978502 C141.860334,110.21571 110.11064,141.9957 70.9301668,141.9957 L70.9301668,141.9957 Z M70.7612855,10.14255 L69.4102347,10.14255 L69.4102347,10.14255 C61.8105739,10.14255 54.5486759,11.832975 47.6245406,14.87574 C24.8255584,24.3421201 10.132881,46.3176451 10.132881,70.9978502 C10.132881,95.6780553 24.8255584,117.65358 47.6245406,127.11996 C54.5486759,129.993683 61.8105739,131.515065 69.4102347,131.85315 L70.9301668,131.85315 C104.537555,131.85315 131.727453,104.637308 131.727453,70.9978502 C131.727453,37.3583926 104.537555,10.14255 70.7612855,10.14255 L70.7612855,10.14255 L70.7612855,10.14255 Z" id="Shape"></path>
                        </g>
                        <g transform="translate(37.153897, 37.189350)" id="Shape">
                            <path d="M55.7308453,25.3563751 L45.5979644,25.3563751 L45.5979644,15.213825 C45.5979644,9.63542253 41.0381679,5.07127502 35.4650834,5.07127502 L35.4650834,5.07127502 C29.8919989,5.07127502 25.3322024,9.63542253 25.3322024,15.213825 L25.3322024,25.3563751 L15.1993215,25.3563751 C9.62623692,25.3563751 5.06644049,29.9205226 5.06644049,35.4989251 L5.06644049,35.4989251 C5.06644049,41.0773276 9.62623692,45.6414751 15.1993215,45.6414751 L25.3322024,45.6414751 L25.3322024,55.7840252 C25.3322024,61.3624277 29.8919989,65.9265752 35.4650834,65.9265752 L35.4650834,65.9265752 C41.0381679,65.9265752 45.5979644,61.3624277 45.5979644,55.7840252 L45.5979644,45.6414751 L55.7308453,45.6414751 C61.3039299,45.6414751 65.8637263,41.0773276 65.8637263,35.4989251 L65.8637263,35.4989251 C65.8637263,29.9205226 61.3039299,25.3563751 55.7308453,25.3563751 L55.7308453,25.3563751 Z" fill="#FFFFFF"></path>
                            <path d="M35.4650834,70.9978502 C27.0210159,70.9978502 20.2657619,64.2361502 20.2657619,55.7840252 L20.2657619,50.7127502 L15.1993215,50.7127502 C6.75525398,50.7127502 0,43.9510501 0,35.4989251 C0,27.0468001 6.75525398,20.2851001 15.1993215,20.2851001 L20.2657619,20.2851001 L20.2657619,15.213825 C20.2657619,6.76170002 27.0210159,0 35.4650834,0 C43.9091509,0 50.6644049,6.76170002 50.6644049,15.213825 L50.6644049,20.2851001 L55.7308453,20.2851001 C64.1749128,20.2851001 70.9301668,27.0468001 70.9301668,35.4989251 C70.9301668,43.9510501 64.1749128,50.7127502 55.7308453,50.7127502 L50.6644049,50.7127502 L50.6644049,55.7840252 C50.6644049,64.2361502 43.9091509,70.9978502 35.4650834,70.9978502 L35.4650834,70.9978502 Z M15.1993215,30.4276501 C12.3283385,30.4276501 10.132881,32.6252026 10.132881,35.4989251 C10.132881,38.3726476 12.3283385,40.5702001 15.1993215,40.5702001 L25.3322024,40.5702001 C28.2031854,40.5702001 30.3986429,42.7677526 30.3986429,45.6414751 L30.3986429,55.7840252 C30.3986429,58.6577477 32.5941005,60.8553002 35.4650834,60.8553002 C38.3360663,60.8553002 40.5315239,58.6577477 40.5315239,55.7840252 L40.5315239,45.6414751 C40.5315239,42.7677526 42.7269814,40.5702001 45.5979644,40.5702001 L55.7308453,40.5702001 C58.6018283,40.5702001 60.7972858,38.3726476 60.7972858,35.4989251 C60.7972858,32.6252026 58.6018283,30.4276501 55.7308453,30.4276501 L45.5979644,30.4276501 C42.7269814,30.4276501 40.5315239,28.2300976 40.5315239,25.3563751 L40.5315239,15.213825 C40.5315239,12.3401025 38.3360663,10.14255 35.4650834,10.14255 C32.5941005,10.14255 30.3986429,12.3401025 30.3986429,15.213825 L30.3986429,25.3563751 C30.3986429,28.2300976 28.2031854,30.4276501 25.3322024,30.4276501 L15.1993215,30.4276501 L15.1993215,30.4276501 Z" fill="#234957"></path>
                        </g>
                    </g>
                </g>
            </g>
        </g>
    </g>
</svg>