<?xml version="1.0" encoding="UTF-8" standalone="no"?>
<svg width="400px" height="400px" viewBox="0 0 400 400" version="1.1" xmlns="http://www.w3.org/2000/svg" xmlns:xlink="http://www.w3.org/1999/xlink">
    <!-- Generator: Sketch 3.8.3 (29802) - http://www.bohemiancoding.com/sketch -->
    <title>payment</title>
    <desc>Created with Sketch.</desc>
    <defs></defs>
    <g id="Page-1" stroke="none" stroke-width="1" fill="none" fill-rule="evenodd">
        <g id="payment">
            <g transform="translate(40.000000, 45.000000)" id="Layer_4">
                <g>
                    <g id="Group">
                        <g id="XMLID_4_" transform="translate(0.000000, 46.222222)">
                            <g id="Group" transform="translate(5.333333, 5.333333)">
                                <path d="M0,119.111111 L0,19.5555556 C0,30.3644444 8.74666667,39.1111111 19.5555556,39.1111111 L19.5555556,106.666667 L19.5555556,138.666667 C8.74666667,138.666667 0,129.92 0,119.111111 L0,119.111111 Z" id="Shape" fill="#2A9E71"></path>
                                <path d="M19.5555556,39.1111111 C8.74666667,39.1111111 0,30.3644444 0,19.5555556 C0,8.74666667 8.74666667,0 19.5555556,0 L174.222222,0 L174.222222,106.666667 L19.5555556,106.666667 L19.5555556,39.1111111 L19.5555556,39.1111111 Z M53.3333333,51.5555556 C53.3333333,66.2755556 65.28,78.2222222 80,78.2222222 C94.72,78.2222222 106.666667,66.2755556 106.666667,51.5555556 C106.666667,36.8355556 94.72,24.8888889 80,24.8888889 C65.28,24.8888889 53.3333333,36.8355556 53.3333333,51.5555556 L53.3333333,51.5555556 Z" id="Shape" fill="#3EB38A"></path>
                                <path d="M80,78.2222222 C65.28,78.2222222 53.3333333,66.2755556 53.3333333,51.5555556 C53.3333333,36.8355556 65.28,24.8888889 80,24.8888889 C94.72,24.8888889 106.666667,36.8355556 106.666667,51.5555556 C106.666667,66.2755556 94.72,78.2222222 80,78.2222222 L80,78.2222222 Z" id="Shape" fill="#FAF9FC"></path>
                            </g>
                            <g id="Group" fill="#234957">
                                <path d="M24.8888889,149.333333 C11.1644444,149.333333 0,138.168889 0,124.444444 L0,24.8888889 C0,11.1644444 11.1644444,0 24.8888889,0 L179.555556,0 C182.501333,0 184.888889,2.38755556 184.888889,5.33333333 L184.888889,112 C184.888889,114.945778 182.501333,117.333333 179.555556,117.333333 L30.2222222,117.333333 L30.2222222,144 C30.2222222,146.945778 27.8346667,149.333333 24.8888889,149.333333 L24.8888889,149.333333 Z M10.6666667,45.3031111 L10.6666667,124.444444 C10.6666667,130.401778 14.3484444,135.516444 19.5555556,137.628444 L19.5555556,49.2035556 C16.3128889,48.4906667 13.3031111,47.1466667 10.6666667,45.3031111 L10.6666667,45.3031111 Z M30.2222222,106.666667 L174.222222,106.666667 L174.222222,10.6666667 L24.8888889,10.6666667 C17.0471111,10.6666667 10.6666667,17.0471111 10.6666667,24.8888889 C10.6666667,32.7306667 17.0471111,39.1111111 24.8888889,39.1111111 C27.8346667,39.1111111 30.2222222,41.4986667 30.2222222,44.4444444 L30.2222222,106.666667 L30.2222222,106.666667 Z" id="Shape"></path>
                                <path d="M85.3333333,88.8888889 C67.6888889,88.8888889 53.3333333,74.5333333 53.3333333,56.8888889 C53.3333333,39.2444444 67.6888889,24.8888889 85.3333333,24.8888889 C102.977778,24.8888889 117.333333,39.2444444 117.333333,56.8888889 C117.333333,74.5333333 102.977778,88.8888889 85.3333333,88.8888889 L85.3333333,88.8888889 Z M85.3333333,35.5555556 C73.5697778,35.5555556 64,45.1253333 64,56.8888889 C64,68.6524444 73.5697778,78.2222222 85.3333333,78.2222222 C97.0968889,78.2222222 106.666667,68.6524444 106.666667,56.8888889 C106.666667,45.1253333 97.0968889,35.5555556 85.3333333,35.5555556 L85.3333333,35.5555556 Z" id="Shape"></path>
                                <path d="M161.777778,39.1111111 C152.956444,39.1111111 145.777778,31.9342222 145.777778,23.1111111 C145.777778,20.1653333 148.165333,17.7777778 151.111111,17.7777778 C154.056889,17.7777778 156.444444,20.1653333 156.444444,23.1111111 C156.444444,26.0515556 158.837333,28.4444444 161.777778,28.4444444 C164.723556,28.4444444 167.111111,30.832 167.111111,33.7777778 C167.111111,36.7235556 164.723556,39.1111111 161.777778,39.1111111 L161.777778,39.1111111 Z" id="Shape"></path>
                                <path d="M161.777778,88.8888889 C158.832,88.8888889 156.444444,86.5013333 156.444444,83.5555556 L156.444444,33.7777778 C156.444444,30.832 158.832,28.4444444 161.777778,28.4444444 C164.723556,28.4444444 167.111111,30.832 167.111111,33.7777778 L167.111111,83.5555556 C167.111111,86.5013333 164.723556,88.8888889 161.777778,88.8888889 L161.777778,88.8888889 Z" id="Shape"></path>
                                <path d="M151.111111,99.5555556 L136.888889,99.5555556 C133.943111,99.5555556 131.555556,97.168 131.555556,94.2222222 C131.555556,91.2764444 133.943111,88.8888889 136.888889,88.8888889 L151.111111,88.8888889 C154.056889,88.8888889 156.444444,91.2764444 156.444444,94.2222222 C156.444444,97.168 154.056889,99.5555556 151.111111,99.5555556 L151.111111,99.5555556 Z" id="Shape"></path>
                                <path d="M151.111111,28.4444444 L136.888889,28.4444444 C133.943111,28.4444444 131.555556,26.0568889 131.555556,23.1111111 C131.555556,20.1653333 133.943111,17.7777778 136.888889,17.7777778 L151.111111,17.7777778 C154.056889,17.7777778 156.444444,20.1653333 156.444444,23.1111111 C156.444444,26.0568889 154.056889,28.4444444 151.111111,28.4444444 L151.111111,28.4444444 Z" id="Shape"></path>
                                <path d="M151.111111,99.5555556 C148.165333,99.5555556 145.777778,97.168 145.777778,94.2222222 C145.777778,85.3991111 152.956444,78.2222222 161.777778,78.2222222 C164.723556,78.2222222 167.111111,80.6097778 167.111111,83.5555556 C167.111111,86.5013333 164.723556,88.8888889 161.777778,88.8888889 C158.837333,88.8888889 156.444444,91.2817778 156.444444,94.2222222 C156.444444,97.168 154.056889,99.5555556 151.111111,99.5555556 L151.111111,99.5555556 Z" id="Shape"></path>
                            </g>
                        </g>
                        <g>
                            <path d="M233.262222,304 L41.2622222,304 C21.6177778,304 5.70666667,288.088889 5.70666667,268.444444 L42.6666667,268.444444 L59.04,268.444444 L197.706667,268.444444 C197.706667,288.088889 213.617778,304 233.262222,304 L233.262222,304 Z" id="Shape" fill="#D8E5EA"></path>
                            <polygon id="Shape" fill="#E6F0F4" points="268.444444 76.4444444 197.333333 76.4444444 197.333333 5.33333333"></polygon>
                            <path d="M268.444444,220.088889 L268.444444,268.444444 C268.444444,288.088889 252.906667,304 233.262222,304 C213.617778,304 197.706667,288.088889 197.706667,268.444444 L59.04,268.444444 L42.6666667,268.444444 L42.6666667,5.33333333 L197.333333,5.33333333 L197.333333,76.4444444 L268.444444,76.4444444 L268.444444,220.088889 L268.444444,220.088889 Z" id="Shape" fill="#F6FAFC"></path>
                            <path d="M263.111111,247.111111 L263.111111,262.222222 C263.111111,274.444444 253.111111,284.444444 240.888889,284.444444 C228.666667,284.444444 218.666667,274.444444 218.666667,262.222222 L218.666667,247.111111 L42.6666667,247.111111 L42.6666667,268.444444 L59.04,268.444444 L197.706667,268.444444 C197.706667,288.088889 213.617778,304 233.262222,304 C252.906667,304 268.444444,288.088889 268.444444,268.444444 L268.444444,247.111111 L263.111111,247.111111 L263.111111,247.111111 Z" id="Shape" fill="#E6F0F4"></path>
                            <path d="M233.262222,309.333333 C212.334222,309.333333 194.993778,293.815111 192.350222,273.777778 L11.5111111,273.777778 C14.0373333,287.907556 26.4177778,298.666667 41.2622222,298.666667 L41.2622222,309.333333 C18.7164444,309.333333 0.373333333,290.992 0.373333333,268.444444 L0.373333333,263.111111 L202.666667,263.111111 L202.666667,268.444444 C202.666667,285.109333 216.391111,298.666667 233.262222,298.666667 C249.720889,298.666667 263.111111,285.109333 263.111111,268.444444 L273.777778,268.444444 C273.777778,290.992 255.601778,309.333333 233.262222,309.333333 L233.262222,309.333333 Z" id="Shape" fill="#234957"></path>
                            <rect id="Rectangle-path" fill="#234957" x="41.2622222" y="298.666667" width="192" height="10.6666667"></rect>
                            <path d="M268.444444,273.777778 C265.498667,273.777778 263.111111,271.390222 263.111111,268.444444 L263.111111,78.6524444 L195.123556,10.6666667 L48,10.6666667 L48,268.444444 C48,271.390222 45.6124444,273.777778 42.6666667,273.777778 C39.7208889,273.777778 37.3333333,271.390222 37.3333333,268.444444 L37.3333333,5.33333333 C37.3333333,2.38755556 39.7208889,0 42.6666667,0 L197.333333,0 C198.748444,0 200.104889,0.561777778 201.104,1.56266667 L272.215111,72.6737778 C273.216,73.6728889 273.777778,75.0293333 273.777778,76.4444444 L273.777778,268.444444 C273.777778,271.390222 271.390222,273.777778 268.444444,273.777778 L268.444444,273.777778 Z" id="Shape" fill="#234957"></path>
                            <path d="M213.706667,120.888889 L89.2622222,120.888889 C86.3164444,120.888889 83.9288889,118.501333 83.9288889,115.555556 C83.9288889,112.609778 86.3164444,110.222222 89.2622222,110.222222 L213.706667,110.222222 C216.652444,110.222222 219.04,112.609778 219.04,115.555556 C219.04,118.501333 216.652444,120.888889 213.706667,120.888889 L213.706667,120.888889 Z" id="Shape" fill="#234957"></path>
                            <path d="M117.333333,156.444444 L89.2622222,156.444444 C86.3164444,156.444444 83.9288889,154.056889 83.9288889,151.111111 C83.9288889,148.165333 86.3164444,145.777778 89.2622222,145.777778 L117.333333,145.777778 C120.279111,145.777778 122.666667,148.165333 122.666667,151.111111 C122.666667,154.056889 120.279111,156.444444 117.333333,156.444444 L117.333333,156.444444 Z" id="Shape" fill="#234957"></path>
                            <path d="M117.333333,192 L89.2622222,192 C86.3164444,192 83.9288889,189.612444 83.9288889,186.666667 C83.9288889,183.720889 86.3164444,181.333333 89.2622222,181.333333 L117.333333,181.333333 C120.279111,181.333333 122.666667,183.720889 122.666667,186.666667 C122.666667,189.612444 120.279111,192 117.333333,192 L117.333333,192 Z" id="Shape" fill="#234957"></path>
                            <path d="M117.333333,227.555556 L89.2622222,227.555556 C86.3164444,227.555556 83.9288889,225.168 83.9288889,222.222222 C83.9288889,219.276444 86.3164444,216.888889 89.2622222,216.888889 L117.333333,216.888889 C120.279111,216.888889 122.666667,219.276444 122.666667,222.222222 C122.666667,225.168 120.279111,227.555556 117.333333,227.555556 L117.333333,227.555556 Z" id="Shape" fill="#234957"></path>
                            <path d="M268.444444,81.7777778 L197.333333,81.7777778 C194.387556,81.7777778 192,79.3902222 192,76.4444444 L192,5.33333333 C192,2.38755556 194.387556,0 197.333333,0 C200.279111,0 202.666667,2.38755556 202.666667,5.33333333 L202.666667,71.1111111 L268.444444,71.1111111 C271.390222,71.1111111 273.777778,73.4986667 273.777778,76.4444444 C273.777778,79.3902222 271.390222,81.7777778 268.444444,81.7777778 L268.444444,81.7777778 Z" id="Shape" fill="#234957"></path>
                        </g>
                        <g id="XMLID_1_" transform="translate(135.111111, 103.111111)">
                            <g id="Group" transform="translate(5.333333, 5.333333)">
                                <path d="M174.222222,19.5555556 L174.222222,119.111111 C174.222222,108.302222 165.475556,99.5555556 154.666667,99.5555556 L154.666667,32 L154.666667,0 C165.475556,0 174.222222,8.74666667 174.222222,19.5555556 L174.222222,19.5555556 Z" id="Shape" fill="#2A9E71"></path>
                                <path d="M154.666667,99.5555556 C165.475556,99.5555556 174.222222,108.302222 174.222222,119.111111 C174.222222,129.92 165.475556,138.666667 154.666667,138.666667 L0,138.666667 L0,32 L154.666667,32 L154.666667,99.5555556 L154.666667,99.5555556 Z M120.888889,87.1111111 C120.888889,72.3911111 108.942222,60.4444444 94.2222222,60.4444444 C79.5022222,60.4444444 67.5555556,72.3911111 67.5555556,87.1111111 C67.5555556,101.831111 79.5022222,113.777778 94.2222222,113.777778 C108.942222,113.777778 120.888889,101.831111 120.888889,87.1111111 L120.888889,87.1111111 Z" id="Shape" fill="#3EB38A"></path>
                                <path d="M94.2222222,60.4444444 C108.942222,60.4444444 120.888889,72.3911111 120.888889,87.1111111 C120.888889,101.831111 108.942222,113.777778 94.2222222,113.777778 C79.5022222,113.777778 67.5555556,101.831111 67.5555556,87.1111111 C67.5555556,72.3911111 79.5022222,60.4444444 94.2222222,60.4444444 L94.2222222,60.4444444 Z" id="Shape" fill="#FAF9FC"></path>
                            </g>
                            <g id="Group" fill="#234957">
                                <path d="M160,149.333333 L5.33333333,149.333333 C2.38755556,149.333333 0,146.945778 0,144 L0,37.3333333 C0,34.3875556 2.38755556,32 5.33333333,32 L154.666667,32 L154.666667,5.33333333 C154.666667,2.38755556 157.054222,0 160,0 C173.724444,0 184.888889,11.1644444 184.888889,24.8888889 L184.888889,124.444444 C184.888889,138.168889 173.724444,149.333333 160,149.333333 L160,149.333333 Z M10.6666667,138.666667 L160,138.666667 C167.841778,138.666667 174.222222,132.286222 174.222222,124.444444 C174.222222,116.602667 167.841778,110.222222 160,110.222222 C157.054222,110.222222 154.666667,107.834667 154.666667,104.888889 L154.666667,42.6666667 L10.6666667,42.6666667 L10.6666667,138.666667 L10.6666667,138.666667 Z M165.333333,100.129778 C168.576,100.840889 171.585778,102.186667 174.222222,104.028444 L174.222222,24.8888889 C174.222222,18.9315556 170.540444,13.8168889 165.333333,11.7048889 L165.333333,100.129778 L165.333333,100.129778 Z" id="Shape"></path>
                                <path d="M99.5555556,124.444444 C81.9111111,124.444444 67.5555556,110.088889 67.5555556,92.4444444 C67.5555556,74.8 81.9111111,60.4444444 99.5555556,60.4444444 C117.2,60.4444444 131.555556,74.8 131.555556,92.4444444 C131.555556,110.088889 117.2,124.444444 99.5555556,124.444444 L99.5555556,124.444444 Z M99.5555556,71.1111111 C87.792,71.1111111 78.2222222,80.6808889 78.2222222,92.4444444 C78.2222222,104.208 87.792,113.777778 99.5555556,113.777778 C111.319111,113.777778 120.888889,104.208 120.888889,92.4444444 C120.888889,80.6808889 111.319111,71.1111111 99.5555556,71.1111111 L99.5555556,71.1111111 Z" id="Shape"></path>
                                <path d="M33.7777778,131.555556 C30.832,131.555556 28.4444444,129.168 28.4444444,126.222222 C28.4444444,123.281778 26.0515556,120.888889 23.1111111,120.888889 C20.1653333,120.888889 17.7777778,118.501333 17.7777778,115.555556 C17.7777778,112.609778 20.1653333,110.222222 23.1111111,110.222222 C31.9324444,110.222222 39.1111111,117.399111 39.1111111,126.222222 C39.1111111,129.168 36.7235556,131.555556 33.7777778,131.555556 L33.7777778,131.555556 Z" id="Shape"></path>
                                <path d="M23.1111111,120.888889 C20.1653333,120.888889 17.7777778,118.501333 17.7777778,115.555556 L17.7777778,65.7777778 C17.7777778,62.832 20.1653333,60.4444444 23.1111111,60.4444444 C26.0568889,60.4444444 28.4444444,62.832 28.4444444,65.7777778 L28.4444444,115.555556 C28.4444444,118.501333 26.0568889,120.888889 23.1111111,120.888889 L23.1111111,120.888889 Z" id="Shape"></path>
                                <path d="M48,60.4444444 L33.7777778,60.4444444 C30.832,60.4444444 28.4444444,58.0568889 28.4444444,55.1111111 C28.4444444,52.1653333 30.832,49.7777778 33.7777778,49.7777778 L48,49.7777778 C50.9457778,49.7777778 53.3333333,52.1653333 53.3333333,55.1111111 C53.3333333,58.0568889 50.9457778,60.4444444 48,60.4444444 L48,60.4444444 Z" id="Shape"></path>
                                <path d="M48,131.555556 L33.7777778,131.555556 C30.832,131.555556 28.4444444,129.168 28.4444444,126.222222 C28.4444444,123.276444 30.832,120.888889 33.7777778,120.888889 L48,120.888889 C50.9457778,120.888889 53.3333333,123.276444 53.3333333,126.222222 C53.3333333,129.168 50.9457778,131.555556 48,131.555556 L48,131.555556 Z" id="Shape"></path>
                                <path d="M23.1111111,71.1111111 C20.1653333,71.1111111 17.7777778,68.7235556 17.7777778,65.7777778 C17.7777778,62.832 20.1653333,60.4444444 23.1111111,60.4444444 C26.0515556,60.4444444 28.4444444,58.0515556 28.4444444,55.1111111 C28.4444444,52.1653333 30.832,49.7777778 33.7777778,49.7777778 C36.7235556,49.7777778 39.1111111,52.1653333 39.1111111,55.1111111 C39.1111111,63.9342222 31.9324444,71.1111111 23.1111111,71.1111111 L23.1111111,71.1111111 Z" id="Shape"></path>
                            </g>
                        </g>
                    </g>
                </g>
            </g>
        </g>
    </g>
</svg>