<?xml version="1.0" encoding="UTF-8" standalone="no"?><svg width="400" height="400" viewBox="0 0 400 400" xmlns="http://www.w3.org/2000/svg"><title>payment</title><g fill="none" fill-rule="evenodd"><path d="M45.333 215.667V116.11c0 10.809 8.747 19.556 19.556 19.556v99.555c-10.809 0-19.556-8.746-19.556-19.555z" fill="#2A9E71"/><path d="M64.889 135.667c-10.809 0-19.556-8.747-19.556-19.556 0-10.809 8.747-19.555 19.556-19.555h154.667v106.666H64.889v-67.555zm33.778 12.444c0 14.72 11.946 26.667 26.666 26.667S152 162.83 152 148.11c0-14.72-11.947-26.667-26.667-26.667-14.72 0-26.666 11.947-26.666 26.667z" fill="#3EB38A"/><path d="M125.333 174.778c-14.72 0-26.666-11.947-26.666-26.667 0-14.72 11.946-26.667 26.666-26.667S152 133.391 152 148.111c0 14.72-11.947 26.667-26.667 26.667z" fill="#FAF9FC"/><g fill="#234957"><path d="M64.889 240.556C51.164 240.556 40 229.39 40 215.666v-99.555c0-13.724 11.164-24.889 24.889-24.889h154.667a5.333 5.333 0 0 1 5.333 5.334v106.666a5.333 5.333 0 0 1-5.333 5.334H70.222v26.666a5.333 5.333 0 0 1-5.333 5.334zm-14.222-104.03v79.14c0 5.958 3.681 11.073 8.889 13.185v-88.425a24.796 24.796 0 0 1-8.89-3.9zm19.555 61.363h144v-96H64.89c-7.842 0-14.222 6.38-14.222 14.222s6.38 14.222 14.222 14.222a5.333 5.333 0 0 1 5.333 5.334v62.222z"/><path d="M125.333 180.111c-17.644 0-32-14.355-32-32 0-17.644 14.356-32 32-32 17.645 0 32 14.356 32 32 0 17.645-14.355 32-32 32zm0-53.333c-11.763 0-21.333 9.57-21.333 21.333 0 11.764 9.57 21.333 21.333 21.333 11.764 0 21.334-9.57 21.334-21.333 0-11.763-9.57-21.333-21.334-21.333zM201.778 130.333c-8.822 0-16-7.177-16-16a5.333 5.333 0 1 1 10.666 0 5.34 5.34 0 0 0 5.334 5.334 5.333 5.333 0 1 1 0 10.666z"/><path d="M201.778 180.111a5.333 5.333 0 0 1-5.334-5.333V125a5.333 5.333 0 1 1 10.667 0v49.778a5.333 5.333 0 0 1-5.333 5.333zM191.111 190.778H176.89a5.333 5.333 0 1 1 0-10.667h14.222a5.333 5.333 0 1 1 0 10.667zM191.111 119.667H176.89a5.333 5.333 0 1 1 0-10.667h14.222a5.333 5.333 0 1 1 0 10.667z"/><path d="M191.111 190.778a5.333 5.333 0 0 1-5.333-5.334c0-8.823 7.178-16 16-16a5.333 5.333 0 1 1 0 10.667 5.34 5.34 0 0 0-5.334 5.333 5.333 5.333 0 0 1-5.333 5.334z"/></g><g><path d="M273.262 349h-192c-19.644 0-35.555-15.911-35.555-35.556h192c0 19.645 15.91 35.556 35.555 35.556z" fill="#D8E5EA"/><path fill="#E6F0F4" d="M308.444 121.444h-71.11v-71.11z"/><path d="M308.444 265.089v48.355c0 19.645-15.537 35.556-35.182 35.556-19.644 0-35.555-15.911-35.555-35.556H82.667V50.334h154.666v71.11h71.111V265.09z" fill="#F6FAFC"/><path d="M303.111 292.111v15.111c0 12.222-10 22.222-22.222 22.222-12.222 0-22.222-10-22.222-22.222v-15.11h-176v21.332h155.04c0 19.645 15.91 35.556 35.555 35.556s35.182-15.911 35.182-35.556v-21.333h-5.333z" fill="#E6F0F4"/><path d="M273.262 354.333c-20.928 0-38.268-15.518-40.912-35.555H51.511c2.526 14.13 14.907 24.889 29.751 24.889v10.666c-22.546 0-40.889-18.341-40.889-40.889v-5.333h202.294v5.333c0 16.665 13.724 30.223 30.595 30.223 16.459 0 29.85-13.558 29.85-30.223h10.666c0 22.548-18.176 40.89-40.516 40.89z" fill="#234957"/><path fill="#234957" d="M81.262 343.667h192v10.667h-192zM308.444 318.778a5.333 5.333 0 0 1-5.333-5.334V123.652l-67.987-67.985H88v257.777a5.333 5.333 0 1 1-10.667 0V50.334A5.333 5.333 0 0 1 82.667 45h154.666c1.415 0 2.772.562 3.771 1.563l71.111 71.11c1.001 1 1.563 2.356 1.563 3.771v192a5.333 5.333 0 0 1-5.334 5.334z"/><path d="M253.707 165.889H129.262a5.333 5.333 0 1 1 0-10.667h124.445a5.333 5.333 0 1 1 0 10.667zM157.333 201.444h-28.07a5.333 5.333 0 1 1 0-10.666h28.07a5.333 5.333 0 1 1 0 10.666zM157.333 237h-28.07a5.333 5.333 0 1 1 0-10.667h28.07a5.333 5.333 0 1 1 0 10.667zM157.333 272.556h-28.07a5.333 5.333 0 1 1 0-10.667h28.07a5.333 5.333 0 1 1 0 10.667zM308.444 126.778h-71.11a5.333 5.333 0 0 1-5.334-5.334v-71.11a5.333 5.333 0 1 1 10.667 0v65.777h65.777a5.333 5.333 0 1 1 0 10.667z" fill="#234957"/></g><g><path d="M354.667 173v99.556c0-10.81-8.747-19.556-19.556-19.556v-99.556c10.809 0 19.556 8.747 19.556 19.556z" fill="#2A9E71"/><path d="M335.111 253c10.809 0 19.556 8.747 19.556 19.556 0 10.808-8.747 19.555-19.556 19.555H180.444V185.444h154.667V253zm-33.778-12.444c0-14.72-11.946-26.667-26.666-26.667S248 225.836 248 240.556c0 14.72 11.947 26.666 26.667 26.666 14.72 0 26.666-11.946 26.666-26.666z" fill="#3EB38A"/><path d="M274.667 213.889c14.72 0 26.666 11.947 26.666 26.667 0 14.72-11.946 26.666-26.666 26.666S248 255.276 248 240.556s11.947-26.667 26.667-26.667z" fill="#FAF9FC"/><g fill="#234957"><path d="M335.111 297.444H180.444a5.333 5.333 0 0 1-5.333-5.333V185.444a5.333 5.333 0 0 1 5.333-5.333h149.334v-26.667a5.333 5.333 0 0 1 5.333-5.333C348.836 148.111 360 159.276 360 173v99.556c0 13.724-11.164 24.888-24.889 24.888zm-149.333-10.666H335.11c7.842 0 14.222-6.38 14.222-14.222s-6.38-14.223-14.222-14.223a5.333 5.333 0 0 1-5.333-5.333v-62.222h-144v96zm154.666-38.537a24.793 24.793 0 0 1 8.89 3.899V173c0-5.957-3.682-11.072-8.89-13.184v88.425z"/><path d="M274.667 272.556c-17.645 0-32-14.356-32-32 0-17.645 14.355-32 32-32 17.644 0 32 14.355 32 32 0 17.644-14.356 32-32 32zm0-53.334c-11.764 0-21.334 9.57-21.334 21.334 0 11.763 9.57 21.333 21.334 21.333 11.763 0 21.333-9.57 21.333-21.333 0-11.764-9.57-21.334-21.333-21.334zM208.889 279.667a5.333 5.333 0 0 1-5.333-5.334 5.34 5.34 0 0 0-5.334-5.333 5.333 5.333 0 1 1 0-10.667c8.822 0 16 7.177 16 16a5.333 5.333 0 0 1-5.333 5.334z"/><path d="M198.222 269a5.333 5.333 0 0 1-5.333-5.333v-49.778a5.333 5.333 0 1 1 10.667 0v49.778a5.333 5.333 0 0 1-5.334 5.333zM223.111 208.556H208.89a5.333 5.333 0 1 1 0-10.667h14.222a5.333 5.333 0 1 1 0 10.667zM223.111 279.667H208.89a5.333 5.333 0 1 1 0-10.667h14.222a5.333 5.333 0 1 1 0 10.667z"/><path d="M198.222 219.222a5.333 5.333 0 1 1 0-10.666 5.34 5.34 0 0 0 5.334-5.334 5.333 5.333 0 1 1 10.666 0c0 8.823-7.178 16-16 16z"/></g></g></g></svg>