<?xml version="1.0" encoding="UTF-8" standalone="no"?><svg width="400" height="400" viewBox="0 0 400 400" xmlns="http://www.w3.org/2000/svg"><title>philosophy</title><g fill="none" fill-rule="evenodd"><path d="M244.836 203.142c6.488-9.244 10.293-20.498 10.293-32.64 0-31.43-25.476-56.889-56.889-56.889-31.431 0-56.889 25.458-56.889 56.89 0 31.413 25.458 56.888 56.889 56.888 19.271 0 36.302-9.582 46.596-24.249zM141.493 60.44a.135.135 0 0 1 .071-.036c.09-.07.196-.124.303-.177 11.306-5.76 31.769-17.031 63.609-13.6 20.213 2.169 44.764 12.302 59.288 27.004 2.88-.409 5.796-.818 8.765-.675 39.307 1.884 78.88 50.097 75.2 92 .907 2.31 1.742 4.657 2.453 7.057l.054.16a81.477 81.477 0 0 1 3.43 23.396c0 32.498-18.773 60.675-46.293 74.915v.054c-33.653 17.866-48.96 67.27-48.96 67.27s-4.8 17.76-19.235 17.76c-14.027 0-19.342-8.657-19.342-19.341v-.09c-.09-24.87-20.232-50.346-45.103-50.346-1.813 0-3.52.267-5.209.516a3.09 3.09 0 0 0-.266.035 64.436 64.436 0 0 1-9.44 2.187c-.391.124-.73.195-1.067.302-.409 0-.711.018-1.12.018-2.631.32-5.28.569-7.982.569-.622 0-1.245-.09-1.867-.09-.106 0-.409.019-.409.019l.018-.054c-20.995-.71-39.289-11.52-50.151-27.52 0 0 0-.017-.018-.035-3.04-4.676-52.889-17.21-52.889-73.796a65.77 65.77 0 0 1 4.427-23.733s.018-.036.036-.089c.017-.053.053-.142.106-.267a67.02 67.02 0 0 1 4.854-9.884c-.694-4.107-1.156-8.267-1.156-12.587 0-43.04 35.804-77.938 79.982-77.938 1.76 0 4.374-1.226 7.911-3.004z" fill="#F6FAFC"/><path d="M269.333 174.111c0 15.177-4.755 29.245-12.867 40.8-12.866 18.333-34.155 30.311-58.244 30.311-39.289 0-71.11-31.843-71.11-71.11 0-39.29 31.821-71.112 71.11-71.112 39.268 0 71.111 31.822 71.111 71.111z" fill="#E6F0F4"/><path d="M255.129 170.502c0 12.142-3.805 23.396-10.293 32.64-10.294 14.667-27.325 24.25-46.596 24.25-31.431 0-56.889-25.476-56.889-56.89 0-31.43 25.458-56.889 56.889-56.889 31.413 0 56.889 25.458 56.889 56.89z" fill="#FBB735"/><path d="M83.852 251.037s-21.63-41.69-11.185-76.704c9.795-32.839 23.925-33.703 23.925-33.703l9.266 8.306 15.92-12.75-13.63-16.297-26.37 2.37-27.508 32.75-10.418 39.547 10.493 30.32 29.507 26.161z" fill="#E6F0F4"/><path d="M85.925 122.556s1.481-25.778 40-39.112l4.148-19.258s-77.925 5.63-74.964 81.778l30.816-23.408zM267.876 98.556s38.494.592 50.938 47.408l28.445 11.852s-.295-69.047-72-84.745c0 0-35.26 3.856-33.483 26.672 1.778 22.816 30.272 11.849 26.1-1.187z" fill="#E6F0F4"/><path d="M217.778 315.444s16.444 17.112 25.333 0c8.889-17.11 15.556-37.777 40.222-54.666 24.667-16.89 42.223-28.445 44.445-52.89C330 183.445 319.11 173.223 315.333 171l2-22.667s30.445-6.444 35.111 35.111c4.667 41.556-10.444 60-44.222 84.89-33.778 24.888-47.11 80-62.444 84-15.334 4-25.556 8.222-28-36.89z" fill="#E6F0F4"/><path d="M49.762 169.283a5.03 5.03 0 0 1-1.895-.367c-2.733-1.098-4.118-4.053-3.02-6.785l4.949 1.989-4.898-2.114a73.854 73.854 0 0 1 4.293-9.07c-.627-4.174-.923-7.888-.923-11.556 0-45.916 38.272-83.27 85.316-83.27.892-.113 4.132-1.741 5.516-2.438a5.335 5.335 0 0 1 4.791 9.53c-4.293 2.159-7.331 3.572-10.305 3.572-41.161 0-74.65 32.57-74.65 72.605 0 3.609.344 7.328 1.082 11.7a5.33 5.33 0 0 1-.683 3.626 61.69 61.69 0 0 0-4.471 9.104c-.85 2.114-2.937 3.474-5.102 3.474z" fill="#234957"/><path d="M98.228 267.073a5.335 5.335 0 0 1-4.079-1.89c-.725-.51-2.807-1.587-4.503-2.464C74.79 255.034 40 237.037 40 187.942a71.024 71.024 0 0 1 4.784-25.651 5.333 5.333 0 0 1 9.952 3.836 60.422 60.422 0 0 0-4.07 21.815c0 42.605 29.638 57.934 43.882 65.302 4.528 2.34 6.801 3.518 8.147 5.587a5.333 5.333 0 0 1-4.467 8.242z" fill="#234957"/><path d="M150.649 294.751c-.437 0-.875-.027-1.312-.057-.185-.014-.37-.032-.555-.032l-.103.01a5.318 5.318 0 0 1-1.294-.08c-21.55-.991-41.522-12.095-53.557-29.823a5.332 5.332 0 0 1 1.416-7.408 5.33 5.33 0 0 1 7.408 1.417c10.283 15.145 27.45 24.56 45.92 25.186.153.005.306.016.457.035.356.007.71.03 1.065.055.185.014.37.032.555.032 2.649 0 5.312-.282 7.337-.53a5.19 5.19 0 0 1 .643-.039l.56-.067c.267-.086.539-.15.815-.192a58.652 58.652 0 0 0 8.66-2.006 5.332 5.332 0 0 1 6.682 3.503 5.333 5.333 0 0 1-3.502 6.68 70.449 70.449 0 0 1-9.853 2.31c-.137.039-.268.075-.398.11l-.25.068a5.344 5.344 0 0 1-1.597.245l-.423.007c-.114.004-.23.005-.35.007-2.281.27-5.238.57-8.324.57z" fill="#234957"/><path d="M240.178 360.902c-15.45 0-24.676-9.225-24.676-24.675-.092-25.844-21.074-45.103-39.769-45.103-1.322 0-2.697.203-4.15.418l-.283.041c-2.895.42-5.624-1.586-6.052-4.501a5.333 5.333 0 0 1 4.501-6.052l.278-.04c1.689-.25 3.603-.532 5.706-.532 28.752 0 50.342 29.386 50.436 55.662 0 9.534 4.583 14.116 14.009 14.116 10.124 0 14.053-13.698 14.092-13.837.697-2.26 16.23-51.31 50.989-70.242.21-.15.432-.29.665-.41 26.775-13.855 43.41-40.745 43.41-70.178 0-7.392-1.08-14.749-3.208-21.867a5.33 5.33 0 0 1 3.582-6.636 5.331 5.331 0 0 1 6.637 3.582 86.917 86.917 0 0 1 3.655 24.92c0 33.212-18.587 63.544-48.558 79.332-.182.128-.37.246-.567.35-30.77 16.335-45.734 62.154-46.349 64.082-.562 1.974-6.583 21.57-24.348 21.57z" fill="#234957"/><path d="M351.18 177.348c-2.3 0-4.423-1.5-5.11-3.818-.61-2.062-1.366-4.228-2.305-6.626a5.321 5.321 0 0 1-.346-2.412c1.697-19.337-6.65-41.606-22.327-59.567-14.098-16.149-31.526-25.86-47.817-26.64-2.491-.124-5.17.262-7.759.63a5.333 5.333 0 0 1-4.544-1.533c-12.645-12.8-35.7-23.264-56.064-25.449-29.034-3.129-47.953 6.564-59.26 12.354l-1.24.633a5.335 5.335 0 0 1-6.164-8.686c.512-.406.974-.64 1.196-.754l1.346-.688c11.557-5.918 33.072-16.926 65.262-13.467 21.95 2.356 45.89 12.959 60.57 26.672 2.25-.28 4.667-.483 7.167-.368 19.175.92 39.346 11.958 55.342 30.281 17.218 19.725 26.509 44.391 25.015 66.254a88.77 88.77 0 0 1 2.155 6.335 5.334 5.334 0 0 1-5.117 6.85zM198.24 236.28c-34.31 0-62.222-27.913-62.222-62.222 0-34.31 27.913-62.222 62.222-62.222 34.31 0 62.222 27.912 62.222 62.222 0 12.862-3.893 25.209-11.26 35.703-11.654 16.606-30.706 26.519-50.962 26.519zm0-113.778c-28.428 0-51.556 23.127-51.556 51.556 0 28.428 23.128 51.555 51.556 51.555 16.784 0 32.572-8.217 42.231-21.978 6.1-8.692 9.325-18.92 9.325-29.577 0-28.429-23.13-51.556-51.556-51.556z" fill="#234957"/><path d="M192.284 198.787c-1.365 0-2.73-.521-3.77-1.563l-18.97-18.969a5.33 5.33 0 0 1 0-7.541 5.33 5.33 0 0 1 7.542 0l15.198 15.196 28.976-28.974a5.33 5.33 0 0 1 7.542 0 5.33 5.33 0 0 1 0 7.541l-32.747 32.747a5.311 5.311 0 0 1-3.77 1.563zM49.756 169.544a5.338 5.338 0 0 1-4.939-7.342c.05-.134.107-.274.179-.443 2.272-5.424 14.876-33.155 38.552-43.223.776-.348 21.224-9.243 36.08 4.555 3.887 3.669 9.542 13.23 3.36 23.361-2.98 4.896-7.509 7.817-12.748 8.226-5.463.422-10.976-1.99-14.756-6.455a5.333 5.333 0 0 1 8.143-6.89c1.548 1.829 3.765 2.86 5.785 2.71 1.78-.138 3.283-1.196 4.467-3.143 3.085-5.054-.777-9.267-1.58-10.062-9.577-8.892-24.36-2.581-24.509-2.517-20.368 8.665-31.738 34.658-32.969 37.593-.07.206-.172.439-.266.633a5.335 5.335 0 0 1-4.799 2.997zM256.492 117.844c-6.442 0-14.268-3.616-18.003-13.895-2.388-6.574-2.087-13.013.87-18.622 6.426-12.192 23.356-16.677 24.074-16.862a5.333 5.333 0 1 1 2.674 10.327c-3.638.955-13.839 4.887-17.325 11.532-1.548 2.952-1.635 6.217-.266 9.984 1.637 4.509 4.762 7.048 8.352 6.86 2.199-.132 5.041-1.457 5.815-4.762a5.33 5.33 0 0 1 6.407-3.977 5.331 5.331 0 0 1 3.977 6.407c-1.71 7.312-7.968 12.527-15.568 12.978-.331.022-.667.03-1.007.03zM98.24 267.107a5.333 5.333 0 0 1-4.821-3.051c-1.535-3.044-12.459-26.002-2.473-43.424 3.287-5.753 8.462-10.192 15.376-13.191a5.332 5.332 0 0 1 7.015 2.77 5.332 5.332 0 0 1-2.77 7.015c-4.754 2.064-8.242 4.992-10.364 8.706-7.446 12.988 2.668 33.185 2.773 33.386a5.333 5.333 0 0 1-4.736 7.788zM142.158 105.404c-6.661 0-13.863-3.355-18.387-12.856-4.32-9.07-3.328-18.158 2.865-26.286 4.532-5.945 10.543-9.53 12.278-10.489.346-.211.533-.298.533-.298l.016.032a5.418 5.418 0 0 1 2.098-.434v4.56l2.718 5.35.029-.015a5.239 5.239 0 0 0 .026-.014l.102-.055c-.057.035-.116.069-.176.101a6.633 6.633 0 0 1-.19.11c-2.85 1.574-16.756 10.07-10.67 22.852 3.393 7.123 8.196 7.38 11.633 6.341 4.089-1.235 7.019-4.755 6.718-6.844a5.33 5.33 0 0 1 4.52-6.038 5.325 5.325 0 0 1 6.037 4.52c1.104 7.676-5.13 15.834-14.189 18.574a20.774 20.774 0 0 1-5.96.889zm2.054-40.377c-.792.423-1.768.71-2.642.71.946 0 1.85-.248 2.642-.71z" fill="#234957"/><path d="M114.983 238.047c-.5 0-.999-.014-1.504-.044-12.533-.742-21.525-10.76-21.902-11.186a5.332 5.332 0 0 1 .464-7.527 5.336 5.336 0 0 1 7.516.45c1.364 1.518 13.602 14.378 26.527 2.839a5.333 5.333 0 0 1 7.53.426 5.333 5.333 0 0 1-.426 7.531c-5.59 4.987-11.707 7.511-18.205 7.511zM351.234 177.508a5.335 5.335 0 0 1-5.074-3.694c-.914-2.462-9.79-24.466-32.04-20.668-5.62.93-11.772 3.43-18.303 7.433a5.333 5.333 0 1 1-5.572-9.095c7.71-4.724 15.149-7.704 22.11-8.856 24.92-4.247 39.279 15.304 43.826 27.526.022.057.041.114.063.172l.069.21a5.332 5.332 0 0 1-3.438 6.713 5.332 5.332 0 0 1-1.641.26z" fill="#234957"/><path d="M306.974 184.477a5.333 5.333 0 0 1-3.019-9.733c11.812-8.089 5.98-21.513 4.568-24.336-1.083-2.021-.779-4.594.924-6.297a5.317 5.317 0 0 1 7.533-.009l.017.018c.406.405.743.873 1 1.385.78 1.547 3.342 7.075 3.786 13.895.656 10.059-3.426 18.407-11.8 24.144-.922.63-1.97.932-3.009.933zM283.895 232.995c-12.329 0-21.923-4.25-28.578-8.685-9.808-6.519-14.805-14.464-15.011-14.798a5.333 5.333 0 0 1 9.052-5.64c.048.074 4.09 6.388 11.87 11.56 11.67 7.778 25.152 9.004 40.084 3.653a5.328 5.328 0 0 1 6.82 3.22 5.33 5.33 0 0 1-3.22 6.82c-7.701 2.76-14.716 3.87-21.017 3.87z" fill="#234957"/><path d="M282.633 232.712a5.305 5.305 0 0 1-4.912-3.284c-.329-.792-7.847-19.596 7.742-34.83a5.333 5.333 0 1 1 7.454 7.628c-10.348 10.113-5.536 22.632-5.328 23.16 1.083 2.725-.227 5.83-2.945 6.93a5.316 5.316 0 0 1-2.011.396zM171.068 291.612c.144-.016.217-.038.217-.038l-2.051-10.467s.16-.038.483-.077c2.731-.531 20.082-4.31 25.495-15.347 1.268-2.585 2.148-6.091-.858-8.123-2.539-1.714-6.902-1.72-9.357 1.006a5.334 5.334 0 1 1-7.929-7.136c5.784-6.426 16-7.616 23.26-2.707 5.224 3.532 9.53 11.324 4.461 21.657-7.67 15.646-29.07 20.378-33.281 21.168-.146.028-.292.05-.44.064z" fill="#234957"/></g></svg>