<?xml version="1.0" encoding="UTF-8" standalone="no"?>
<svg width="400px" height="400px" viewBox="0 0 400 400" version="1.1" xmlns="http://www.w3.org/2000/svg" xmlns:xlink="http://www.w3.org/1999/xlink">
    <!-- Generator: Sketch 3.8.3 (29802) - http://www.bohemiancoding.com/sketch -->
    <title>philosophy</title>
    <desc>Created with Sketch.</desc>
    <defs></defs>
    <g id="Page-1" stroke="none" stroke-width="1" fill="none" fill-rule="evenodd">
        <g id="philosophy">
            <g transform="translate(40.000000, 39.000000)" id="Layer_2">
                <g>
                    <path d="M204.835556,164.142222 C211.324444,154.897778 215.128889,143.644444 215.128889,131.502222 C215.128889,100.071111 189.653333,74.6133333 158.24,74.6133333 C126.808889,74.6133333 101.351111,100.071111 101.351111,131.502222 C101.351111,162.915556 126.808889,188.391111 158.24,188.391111 C177.511111,188.391111 194.542222,178.808889 204.835556,164.142222 L204.835556,164.142222 Z M101.493333,21.44 C101.511111,21.4222222 101.546667,21.4044444 101.564444,21.4044444 C101.653333,21.3333333 101.76,21.28 101.866667,21.2266667 C113.173333,15.4666667 133.635556,4.19555556 165.475556,7.62666667 C185.688889,9.79555556 210.24,19.9288889 224.764444,34.6311111 C227.644444,34.2222222 230.56,33.8133333 233.528889,33.9555556 C272.835556,35.84 312.408889,84.0533333 308.728889,125.955556 C309.635556,128.266667 310.471111,130.613333 311.182222,133.013333 C311.217778,133.12 311.235556,133.173333 311.235556,133.173333 C313.457778,140.604444 314.666667,148.444444 314.666667,156.568889 C314.666667,189.066667 295.893333,217.244444 268.373333,231.484444 L268.373333,231.537778 C234.72,249.404444 219.413333,298.808889 219.413333,298.808889 C219.413333,298.808889 214.613333,316.568889 200.177778,316.568889 C186.151111,316.568889 180.835556,307.911111 180.835556,297.226667 L180.835556,297.137778 C180.746667,272.266667 160.604444,246.791111 135.733333,246.791111 C133.92,246.791111 132.213333,247.057778 130.524444,247.306667 C130.346667,247.324444 130.257778,247.342222 130.257778,247.342222 C127.182222,248.302222 124.053333,249.031111 120.817778,249.528889 C120.426667,249.653333 120.088889,249.724444 119.751111,249.831111 C119.342222,249.831111 119.04,249.848889 118.631111,249.848889 C116,250.168889 113.351111,250.417778 110.648889,250.417778 C110.026667,250.417778 109.404444,250.328889 108.782222,250.328889 C108.675556,250.328889 108.373333,250.346667 108.373333,250.346667 L108.391111,250.293333 C87.3955556,249.582222 69.1022222,238.773333 58.24,222.773333 C58.24,222.773333 58.24,222.755556 58.2222222,222.737778 C55.1822222,218.062222 5.33333333,205.528889 5.33333333,148.942222 C5.33333333,140.568889 6.91555556,132.586667 9.76,125.208889 C9.76,125.208889 9.77777778,125.173333 9.79555556,125.12 C9.81333333,125.066667 9.84888889,124.977778 9.90222222,124.853333 C11.2533333,121.422222 12.8711111,118.115556 14.7555556,114.968889 C14.0622222,110.862222 13.6,106.702222 13.6,102.382222 C13.6,59.3422222 49.4044444,24.4444444 93.5822222,24.4444444 C95.3422222,24.4444444 97.9555556,23.2177778 101.493333,21.44 L101.493333,21.44 Z" id="Shape" fill="#F6FAFC"></path>
                    <path d="M229.333333,135.111111 C229.333333,150.288 224.577778,164.355556 216.465778,175.911111 C203.6,194.243556 182.311111,206.222222 158.222222,206.222222 C118.933333,206.222222 87.1111111,174.378667 87.1111111,135.111111 C87.1111111,95.8222222 118.933333,64 158.222222,64 C197.489778,64 229.333333,95.8222222 229.333333,135.111111 L229.333333,135.111111 Z" id="Shape" fill="#E6F0F4"></path>
                    <path d="M215.128889,131.502222 C215.128889,143.644444 211.324444,154.897778 204.835556,164.142222 C194.542222,178.808889 177.511111,188.391111 158.24,188.391111 C126.808889,188.391111 101.351111,162.915556 101.351111,131.502222 C101.351111,100.071111 126.808889,74.6133333 158.24,74.6133333 C189.653333,74.6133333 215.128889,100.071111 215.128889,131.502222 L215.128889,131.502222 Z" id="Shape" fill="#FBB735"></path>
                    <path d="M43.8524444,212.037333 C43.8524444,212.037333 22.2222222,170.346667 32.6666667,135.333333 C42.4622222,102.494222 56.592,101.630222 56.592,101.630222 L65.8577778,109.936 L81.7777778,97.1857778 L68.1475556,80.8888889 L41.7777778,83.2586667 L14.2702222,116.008889 L3.85244444,155.555556 L14.3448889,185.875556 L43.8524444,212.037333 L43.8524444,212.037333 Z" id="Shape" fill="#E6F0F4"></path>
                    <path d="M45.9253333,83.5555556 C45.9253333,83.5555556 47.4062222,57.7777778 85.9253333,44.4444444 L90.0728889,25.1857778 C90.0728889,25.1857778 12.1475556,30.816 15.1093333,106.963556 L45.9253333,83.5555556 L45.9253333,83.5555556 Z" id="Shape" fill="#E6F0F4"></path>
                    <path d="M227.875556,59.5555556 C227.875556,59.5555556 266.369778,60.1475556 278.814222,106.963556 L307.258667,118.816 C307.258667,118.816 306.963556,49.7688889 235.258667,34.0711111 C235.258667,34.0711111 199.998222,37.9271111 201.776,60.7431111 C203.553778,83.5591111 232.048,72.592 227.875556,59.5555556 L227.875556,59.5555556 Z" id="Shape" fill="#E6F0F4"></path>
                    <path d="M177.777778,276.444444 C177.777778,276.444444 194.222222,293.555556 203.111111,276.444444 C212,259.333333 218.666667,238.666667 243.333333,221.777778 C268,204.888889 285.555556,193.333333 287.777778,168.888889 C290,144.444444 279.111111,134.222222 275.333333,132 L277.333333,109.333333 C277.333333,109.333333 307.777778,102.888889 312.444444,144.444444 C317.111111,186 302,204.444444 268.222222,229.333333 C234.444444,254.222222 221.111111,309.333333 205.777778,313.333333 C190.444444,317.333333 180.222222,321.555556 177.777778,276.444444 L177.777778,276.444444 Z" id="Shape" fill="#E6F0F4"></path>
                    <path d="M9.76177778,130.282667 C9.12711111,130.282667 8.48533333,130.167111 7.86666667,129.916444 C5.13422222,128.817778 3.74933333,125.863111 4.84622222,123.130667 L9.79555556,125.12 L4.89777778,123.006222 C6.15288889,119.820444 7.58577778,116.798222 9.19111111,113.936 C8.56355556,109.761778 8.26844444,106.048 8.26844444,102.380444 C8.26844444,56.464 46.5404444,19.1093333 93.584,19.1093333 C94.4764444,18.9973333 97.7155556,17.3688889 99.1004444,16.672 C101.729778,15.3457778 104.938667,16.4106667 106.261333,19.0417778 C107.584,21.6728889 106.522667,24.88 103.891556,26.2026667 C99.5982222,28.3608889 96.56,29.7742222 93.5857778,29.7742222 C52.4248889,29.7742222 18.9368889,62.3448889 18.9368889,102.378667 C18.9368889,105.987556 19.28,109.706667 20.0177778,114.078222 C20.2293333,115.329778 19.9875556,116.615111 19.3351111,117.704889 C17.6177778,120.568889 16.1155556,123.630222 14.864,126.808889 C14.0142222,128.922667 11.9271111,130.282667 9.76177778,130.282667 L9.76177778,130.282667 Z" id="Shape" fill="#234957"></path>
                    <path d="M58.2275556,228.072889 C56.6933333,228.072889 55.1857778,227.411556 54.1493333,226.183111 C53.424,225.672889 51.3422222,224.595556 49.6462222,223.719111 C34.7893333,216.033778 0,198.037333 0,148.942222 C0,140.154667 1.60888889,131.523556 4.784,123.290667 C5.84533333,120.542222 8.93511111,119.175111 11.6782222,120.232889 C14.4266667,121.292444 15.7955556,124.380444 14.736,127.127111 C12.0355556,134.131556 10.6666667,141.472 10.6666667,148.942222 C10.6666667,191.546667 40.304,206.876444 54.5475556,214.243556 C59.0755556,216.584889 61.3493333,217.761778 62.6951111,219.831111 C64.3004444,222.300444 63.6,225.603556 61.1306667,227.208889 C60.2311111,227.792 59.2231111,228.072889 58.2275556,228.072889 L58.2275556,228.072889 Z" id="Shape" fill="#234957"></path>
                    <path d="M110.648889,255.751111 C110.211556,255.751111 109.774222,255.724444 109.336889,255.694222 C109.152,255.68 108.967111,255.662222 108.782222,255.662222 L108.679111,255.671111 C108.24,255.697778 107.806222,255.669333 107.384889,255.591111 C85.8346667,254.600889 65.8631111,243.496889 53.8275556,225.768889 C52.1724444,223.331556 52.8071111,220.016 55.2444444,218.360889 C57.6817778,216.704 60.9991111,217.340444 62.6524444,219.777778 C72.9351111,234.922667 90.1013333,244.337778 108.572444,244.963556 C108.725333,244.968889 108.878222,244.979556 109.029333,244.999111 C109.384889,245.006222 109.738667,245.029333 110.094222,245.054222 C110.279111,245.068444 110.464,245.086222 110.648889,245.086222 C113.297778,245.086222 115.960889,244.803556 117.985778,244.556444 C118.199111,244.529778 118.414222,244.517333 118.629333,244.517333 L119.189333,244.449778 C119.456,244.364444 119.728,244.300444 120.003556,244.257778 C122.967111,243.802667 125.799111,243.146667 128.664889,242.252444 C131.477333,241.372444 134.467556,242.942222 135.345778,245.754667 C136.224,248.567111 134.656,251.557333 131.843556,252.435556 C128.627556,253.438222 125.315556,254.215111 121.991111,254.744889 C121.854222,254.784 121.722667,254.819556 121.592889,254.855111 L121.342222,254.922667 C120.824889,255.084444 120.288,255.168 119.745778,255.168 L119.322667,255.175111 C119.208889,255.178667 119.093333,255.180444 118.972444,255.182222 C116.691556,255.452444 113.735111,255.751111 110.648889,255.751111 L110.648889,255.751111 Z" id="Shape" fill="#234957"></path>
                    <path d="M200.177778,321.902222 C184.727111,321.902222 175.502222,312.677333 175.502222,297.226667 C175.409778,271.383111 154.428444,252.124444 135.733333,252.124444 C134.410667,252.124444 133.036444,252.327111 131.582222,252.542222 L131.299556,252.583111 C128.405333,253.002667 125.676444,250.997333 125.248,248.081778 C124.819556,245.168 126.835556,242.458667 129.749333,242.030222 L130.026667,241.989333 C131.715556,241.740444 133.630222,241.457778 135.733333,241.457778 C164.485333,241.457778 186.074667,270.844444 186.168889,297.12 C186.168889,306.654222 190.752,311.235556 200.177778,311.235556 C210.302222,311.235556 214.231111,297.537778 214.270222,297.399111 C214.967111,295.139556 230.499556,246.088889 265.258667,227.157333 C265.468444,227.006222 265.690667,226.867556 265.923556,226.746667 C292.698667,212.892444 309.333333,186.001778 309.333333,156.568889 C309.333333,149.176889 308.254222,141.820444 306.126222,134.702222 C305.281778,131.880889 306.885333,128.908444 309.708444,128.065778 C312.531556,127.221333 315.502222,128.826667 316.344889,131.648 C318.769778,139.754667 320,148.140444 320,156.568889 C320,189.779556 301.413333,220.112 271.441778,235.900444 C271.260444,236.028444 271.072,236.145778 270.874667,236.250667 C240.104889,252.584889 225.141333,298.403556 224.526222,300.332444 C223.964444,302.305778 217.943111,321.902222 200.177778,321.902222 L200.177778,321.902222 Z" id="Shape" fill="#234957"></path>
                    <path d="M311.180444,138.348444 C308.88,138.348444 306.757333,136.848 306.069333,134.529778 C305.459556,132.467556 304.704,130.302222 303.765333,127.904 C303.464889,127.137778 303.345778,126.311111 303.418667,125.491556 C305.116444,106.154667 296.769778,83.8862222 281.091556,65.9253333 C266.993778,49.776 249.566222,40.0657778 233.274667,39.2853333 C230.784,39.1608889 228.104889,39.5466667 225.516444,39.9146667 C223.838222,40.1493333 222.158222,39.584 220.972444,38.3822222 C208.327111,25.5822222 185.272889,15.1182222 164.908444,12.9333333 C135.873778,9.80444444 116.954667,19.4968889 105.648,25.2871111 L104.408889,25.92 C102.138667,27.3528889 99.104,26.8782222 97.3937778,24.7288889 C95.5591111,22.4248889 95.9413333,19.0684444 98.2453333,17.2337778 C98.7555556,16.8284444 99.2177778,16.5937778 99.44,16.48 L100.785778,15.792 C112.343111,9.87377778 133.857778,-1.13422222 166.048,2.32533333 C187.998222,4.68088889 211.937778,15.2835556 226.618667,28.9973333 C228.867556,28.7164444 231.285333,28.5137778 233.784889,28.6293333 C252.96,29.5484444 273.130667,40.5866667 289.127111,58.9102222 C306.344889,78.6346667 315.635556,103.301333 314.142222,125.164444 C314.992,127.402667 315.701333,129.486222 316.296889,131.498667 C317.134222,134.323556 315.521778,137.290667 312.698667,138.128 C312.192,138.275556 311.681778,138.348444 311.180444,138.348444 L311.180444,138.348444 Z" id="Shape" fill="#234957"></path>
                    <path d="M158.24,197.28 C123.930667,197.28 96.0177778,169.367111 96.0177778,135.057778 C96.0177778,100.748444 123.930667,72.8355556 158.24,72.8355556 C192.549333,72.8355556 220.462222,100.748444 220.462222,135.057778 C220.462222,147.92 216.568889,160.266667 209.201778,170.760889 C197.548444,187.367111 178.496,197.28 158.24,197.28 L158.24,197.28 Z M158.24,83.5022222 C129.811556,83.5022222 106.684444,106.629333 106.684444,135.057778 C106.684444,163.486222 129.811556,186.613333 158.24,186.613333 C175.024,186.613333 190.812444,178.396444 200.471111,164.634667 C206.570667,155.943111 209.795556,145.715556 209.795556,135.057778 C209.795556,106.629333 186.666667,83.5022222 158.24,83.5022222 L158.24,83.5022222 Z" id="Shape" fill="#234957"></path>
                    <path d="M152.284444,159.786667 C150.919111,159.786667 149.553778,159.265778 148.513778,158.224 L129.544889,139.255111 C127.461333,137.173333 127.461333,133.795556 129.544889,131.713778 C131.626667,129.630222 135.004444,129.630222 137.086222,131.713778 L152.284444,146.910222 L181.260444,117.936 C183.342222,115.852444 186.72,115.852444 188.801778,117.936 C190.885333,120.017778 190.885333,123.395556 188.801778,125.477333 L156.055111,158.224 C155.015111,159.265778 153.649778,159.786667 152.284444,159.786667 L152.284444,159.786667 Z" id="Shape" fill="#234957"></path>
                    <path d="M9.75644444,130.544 C8.97244444,130.544 8.176,130.369778 7.42222222,130.003556 C4.88533333,128.764444 3.76888889,125.779556 4.81777778,123.201778 C4.86755556,123.068444 4.92444444,122.928 4.99555556,122.759111 C7.26755556,117.335111 19.872,89.6035556 43.5484444,79.536 C44.3235556,79.1875556 64.7715556,70.2933333 79.6284444,84.0906667 C83.5146667,87.76 89.1697778,97.3208889 82.9884444,107.452444 C80.0071111,112.348444 75.4791111,115.269333 70.24,115.678222 C64.7768889,116.099556 59.264,113.688889 55.4844444,109.223111 C53.5822222,106.974222 53.8613333,103.608889 56.1102222,101.706667 C58.3591111,99.8044444 61.7244444,100.083556 63.6266667,102.332444 C65.1751111,104.161778 67.392,105.192889 69.4115556,105.043556 C71.1911111,104.904889 72.6951111,103.847111 73.8791111,101.900444 C76.9635556,96.8462222 73.1022222,92.6328889 72.2986667,91.8382222 C62.7217778,82.9457778 47.9395556,89.2568889 47.7902222,89.3208889 C27.4222222,97.9857778 16.0515556,123.978667 14.8213333,126.913778 C14.7502222,127.12 14.6488889,127.352889 14.5546667,127.546667 C13.6302222,129.441778 11.7315556,130.544 9.75644444,130.544 L9.75644444,130.544 Z" id="Shape" fill="#234957"></path>
                    <path d="M216.492444,78.8444444 C210.049778,78.8444444 202.224,75.2284444 198.488889,64.9493333 C196.101333,58.3751111 196.401778,51.936 199.358222,46.3271111 C205.784889,34.1351111 222.714667,29.6497778 223.432889,29.4648889 C226.284444,28.7324444 229.192889,30.448 229.928889,33.2995556 C230.663111,36.1493333 228.951111,39.0524444 226.106667,39.792 L226.106667,39.792 C222.469333,40.7466667 212.268444,44.6791111 208.782222,51.3244444 C207.233778,54.2755556 207.146667,57.5413333 208.515556,61.3084444 C210.152889,65.8168889 213.278222,68.3555556 216.867556,68.1671111 C219.066667,68.0355556 221.909333,66.7111111 222.682667,63.4062222 C223.354667,60.5386667 226.222222,58.7555556 229.089778,59.4293333 C231.957333,60.0995556 233.738667,62.9688889 233.066667,65.8364444 C231.356444,73.1484444 225.098667,78.3626667 217.498667,78.8142222 C217.168,78.8355556 216.832,78.8444444 216.492444,78.8444444 L216.492444,78.8444444 Z" id="Shape" fill="#234957"></path>
                    <path d="M58.24,228.106667 C56.112,228.106667 54.2737778,226.860444 53.4186667,225.056 C51.8844444,222.012444 40.96,199.054222 50.9457778,181.632 C54.2328889,175.879111 59.408,171.44 66.3217778,168.440889 C69.0222222,167.267556 72.1653333,168.508444 73.3368889,171.210667 C74.5102222,173.912889 73.2693333,177.054222 70.5671111,178.225778 C65.8133333,180.289778 62.3253333,183.217778 60.2026667,186.931556 C52.7573333,199.92 62.8711111,220.117333 62.976,220.318222 L62.976,220.318222 C63.3617778,221.073778 63.5733333,221.918222 63.5733333,222.771556 C63.5733333,225.719111 61.1857778,228.106667 58.24,228.106667 L58.24,228.106667 Z" id="Shape" fill="#234957"></path>
                    <path d="M102.158222,66.4035556 C95.4968889,66.4035556 88.2951111,63.0488889 83.7706667,53.5484444 C79.4506667,44.4782222 80.4426667,35.3902222 86.6364444,27.2622222 C91.168,21.3173333 97.1786667,17.7315556 98.9137778,16.7733333 L98.9137778,16.7733333 C99.2604444,16.5617778 99.4471111,16.4746667 99.4471111,16.4746667 L99.4631111,16.5066667 C100.128,16.2257778 100.846222,16.0728889 101.560889,16.0728889 L101.560889,20.6328889 L104.279111,25.9822222 L104.307556,25.968 C104.634667,25.7671111 104.940444,25.5271111 105.221333,25.2533333 C104.951111,25.5164444 104.654222,25.7528889 104.334222,25.9537778 L104.435556,25.8986667 C104.378667,25.9342222 104.32,25.968 104.259556,26 C104.197333,26.0373333 104.133333,26.0746667 104.069333,26.1102222 C101.219556,27.6835556 87.3137778,36.1795556 93.4008889,48.9617778 C96.7928889,56.0853333 101.596444,56.3413333 105.032889,55.3031111 C109.121778,54.0675556 112.051556,50.5475556 111.751111,48.4586667 C111.331556,45.5431111 113.354667,42.8391111 116.270222,42.4213333 C119.196444,42.0017778 121.889778,44.0248889 122.307556,46.9404444 C123.411556,54.6168889 117.178667,62.7751111 108.119111,65.5146667 C106.250667,66.0764444 104.231111,66.4035556 102.158222,66.4035556 L102.158222,66.4035556 Z M104.211556,26.0266667 C103.420444,26.4497778 102.444444,26.7377778 101.569778,26.7377778 C102.515556,26.7377778 103.420444,26.4888889 104.211556,26.0266667 L104.211556,26.0266667 Z" id="Shape" fill="#234957"></path>
                    <path d="M74.9831111,199.047111 C74.4835556,199.047111 73.984,199.032889 73.4791111,199.002667 C60.9457778,198.261333 51.9537778,188.243556 51.5768889,187.816889 C49.6248889,185.610667 49.8346667,182.24 52.0408889,180.289778 C54.2453333,178.344889 57.6035556,178.545778 59.5573333,180.739556 C60.9208889,182.257778 73.1591111,195.118222 86.0835556,183.578667 C88.2808889,181.616 91.6515556,181.808 93.6142222,184.005333 C95.5768889,186.202667 95.3848889,189.573333 93.1875556,191.536 C87.5982222,196.522667 81.4808889,199.047111 74.9831111,199.047111 L74.9831111,199.047111 Z" id="Shape" fill="#234957"></path>
                    <path d="M311.233778,138.508444 C308.981333,138.508444 306.890667,137.072 306.16,134.814222 L306.16,134.814222 C305.246222,132.352 296.369778,110.348444 274.120889,114.145778 C268.499556,115.075556 262.348444,117.576889 255.816889,121.578667 C253.303111,123.116444 250.021333,122.328889 248.483556,119.816889 C246.944,117.304889 247.733333,114.021333 250.245333,112.483556 C257.955556,107.76 265.393778,104.780444 272.355556,103.628444 C297.274667,99.3813333 311.633778,118.931556 316.181333,131.153778 C316.202667,131.210667 316.222222,131.267556 316.243556,131.326222 C316.248889,131.342222 316.307556,131.52 316.312889,131.536 C317.217778,134.339556 315.678222,137.345778 312.874667,138.248889 C312.328889,138.424889 311.777778,138.508444 311.233778,138.508444 L311.233778,138.508444 Z" id="Shape" fill="#234957"></path>
                    <path d="M266.974222,145.477333 C265.272889,145.477333 263.601778,144.664889 262.568889,143.157333 C260.904889,140.727111 261.525333,137.408 263.955556,135.744 C275.767111,127.655111 269.934222,114.231111 268.522667,111.408 C267.44,109.386667 267.744,106.814222 269.447111,105.111111 C271.528889,103.025778 274.896,103.016889 276.979556,105.102222 L276.997333,105.12 C277.402667,105.525333 277.740444,105.992889 277.996444,106.504889 C278.776889,108.051556 281.338667,113.580444 281.783111,120.4 C282.439111,130.458667 278.357333,138.807111 269.982222,144.544 C269.061333,145.173333 268.012444,145.475556 266.974222,145.477333 L266.974222,145.477333 Z" id="Shape" fill="#234957"></path>
                    <path d="M243.895111,193.994667 C231.566222,193.994667 221.971556,189.745778 215.317333,185.310222 C205.509333,178.791111 200.512,170.846222 200.305778,170.512 C198.752,168.008889 199.521778,164.721778 202.024889,163.168 C204.520889,161.617778 207.799111,162.380444 209.358222,164.871111 C209.406222,164.945778 213.448889,171.260444 221.228444,176.432 C232.897778,184.209778 246.380444,185.436444 261.312,180.085333 C264.083556,179.088 267.139556,180.531556 268.131556,183.304889 C269.127111,186.078222 267.685333,189.130667 264.912,190.124444 C257.210667,192.885333 250.195556,193.994667 243.895111,193.994667 L243.895111,193.994667 Z" id="Shape" fill="#234957"></path>
                    <path d="M242.632889,193.712 C240.544,193.712 238.567111,192.48 237.720889,190.428444 C237.392,189.635556 229.873778,170.832 245.463111,155.598222 C247.569778,153.539556 250.945778,153.576889 253.004444,155.685333 C255.063111,157.792 255.024,161.168 252.917333,163.226667 C242.568889,173.338667 247.381333,185.857778 247.589333,186.385778 C248.672,189.111111 247.361778,192.215111 244.643556,193.315556 C243.985778,193.584 243.303111,193.712 242.632889,193.712 L242.632889,193.712 Z" id="Shape" fill="#234957"></path>
                    <path d="M131.068444,252.611556 C131.212444,252.595556 131.285333,252.574222 131.285333,252.574222 L129.233778,242.106667 C129.233778,242.106667 129.393778,242.069333 129.717333,242.030222 C132.448,241.498667 149.799111,237.720889 155.212444,226.682667 C156.48,224.097778 157.36,220.592 154.353778,218.56 C151.815111,216.846222 147.452444,216.840889 144.997333,219.566222 C143.027556,221.754667 139.655111,221.934222 137.464889,219.962667 C135.276444,217.992889 135.096889,214.620444 137.068444,212.430222 C142.851556,206.003556 153.068444,204.814222 160.327111,209.722667 C165.552,213.255111 169.857778,221.047111 164.789333,231.379556 C157.118222,247.025778 135.719111,251.758222 131.507556,252.547556 C131.361778,252.576 131.216,252.597333 131.068444,252.611556 L131.068444,252.611556 Z" id="Shape" fill="#234957"></path>
                </g>
            </g>
        </g>
    </g>
</svg>