<?xml version="1.0" encoding="UTF-8" standalone="no"?><svg width="400" height="400" viewBox="0 0 400 400" xmlns="http://www.w3.org/2000/svg"><title>pricing</title><g fill="none" fill-rule="evenodd"><path d="M278.745 156.642c2.21-3.854 3.465-8.327 3.465-13.1 0-14.64-11.88-26.52-26.52-26.52-14.638 0-26.519 11.88-26.519 26.52 0 14.638 11.88 26.519 26.52 26.519 9.865 0 18.492-5.41 23.054-13.419zm33.91.424l-7.957 71.55a10.492 10.492 0 0 1-3.04 6.329L186.775 349.827c-4.137 4.137-10.856 4.137-14.993 0L49.264 227.307c-4.137-4.137-4.137-10.855 0-14.992L164.146 97.433a10.687 10.687 0 0 1 6.33-3.04l71.743-7.974 32-3.554c3.217-.353 6.4.76 8.68 3.041l30.286 30.285a10.643 10.643 0 0 1 3.058 8.68l-3.589 32.195z" fill="#4BC999"/><path d="M66.254 244.297l105.53 105.53c4.136 4.137 10.855 4.137 14.992 0l114.881-114.882a10.492 10.492 0 0 0 3.041-6.33l3.81-34.257-242.254 49.94zM313.177 160.116c-.684.239-1.354.502-2.052.71-9.94 2.997-20.92 2.863-30.736-.386-2.03-.662-3.996-1.493-5.92-2.403l-6.359 8.73a60.83 60.83 0 0 0 8.968 3.752c6.168 2.042 12.655 3.078 19.276 3.078 5.227 0 10.383-.69 15.384-1.973l1.44-11.508z" fill="#3BBC8B"/><path d="M179.28 358.233c-4.25 0-8.244-1.653-11.246-4.657L45.514 231.057a15.793 15.793 0 0 1-4.657-11.246 15.8 15.8 0 0 1 4.657-11.246L160.396 93.683c2.58-2.554 5.944-4.167 9.494-4.561l103.744-11.527c4.911-.548 9.601 1.146 13.015 4.561l30.285 30.285c3.444 3.444 5.115 8.188 4.581 13.014L309.97 229.202a15.861 15.861 0 0 1-4.582 9.514l-114.862 114.86a15.793 15.793 0 0 1-11.246 4.657zm96.114-270.128c-.198 0-.397.011-.595.034L171.06 99.666a5.411 5.411 0 0 0-3.184 1.538L53.014 216.064a5.263 5.263 0 0 0-1.549 3.747c0 1.416.552 2.746 1.549 3.745l122.52 122.52c1.997 1.997 5.49 1.997 7.492 0l114.882-114.881a5.182 5.182 0 0 0 1.518-3.163l11.545-103.749a5.364 5.364 0 0 0-1.538-4.342l-30.285-30.285a5.265 5.265 0 0 0-3.754-1.55z" fill="#234957"/><path d="M296.354 164.757c-6.621 0-13.106-1.036-19.276-3.08-12.823-4.18-24.124-12.655-31.792-23.855a5.304 5.304 0 0 1 8.753-5.992c6.354 9.282 15.714 16.305 26.35 19.772 9.82 3.25 20.796 3.385 30.736.387 21.491-6.459 36.5-26.652 36.5-49.11 0-28.272-23-51.271-51.271-51.271-22.754 0-42.468 14.608-49.06 36.349a5.305 5.305 0 0 1-10.152-3.076C245.1 58.634 268.895 41 296.355 41c34.12 0 61.878 27.759 61.878 61.878 0 27.103-18.114 51.474-44.052 59.268a61.729 61.729 0 0 1-17.826 2.61z" fill="#234957"/><path d="M255.69 175.365c-17.546 0-31.823-14.277-31.823-31.824 0-17.547 14.277-31.823 31.824-31.823 17.547 0 31.823 14.276 31.823 31.823 0 5.541-1.441 10.983-4.167 15.739-5.649 9.916-16.248 16.085-27.656 16.085zm0-53.039c-11.698 0-21.215 9.517-21.215 21.215 0 11.699 9.517 21.216 21.216 21.216 7.604 0 14.672-4.116 18.445-10.74a21.073 21.073 0 0 0 2.77-10.476c0-11.698-9.517-21.215-21.215-21.215zM183.204 279.674c-1.349 0-2.7-.513-3.734-1.536l-56.238-55.726a5.303 5.303 0 1 1 7.468-7.535l56.238 55.726a5.303 5.303 0 0 1-3.734 9.071zM215.028 247.85c-1.35 0-2.7-.512-3.734-1.536l-56.239-55.725a5.303 5.303 0 0 1-.034-7.502 5.307 5.307 0 0 1 7.502-.034l56.239 55.726a5.303 5.303 0 0 1-3.734 9.072z" fill="#234957"/></g></svg>