<?xml version="1.0" encoding="UTF-8" standalone="no"?>
<svg width="400px" height="400px" viewBox="0 0 400 400" version="1.1" xmlns="http://www.w3.org/2000/svg" xmlns:xlink="http://www.w3.org/1999/xlink">
    <!-- Generator: Sketch 3.8.3 (29802) - http://www.bohemiancoding.com/sketch -->
    <title>pricing</title>
    <desc>Created with Sketch.</desc>
    <defs></defs>
    <g id="Page-1" stroke="none" stroke-width="1" fill="none" fill-rule="evenodd">
        <g id="pricing">
            <g transform="translate(40.000000, 41.000000)" id="Layer_1">
                <g>
                    <path d="M238.744751,115.641989 C240.954696,111.787845 242.209945,107.314917 242.209945,102.541436 C242.209945,87.9027624 230.329282,76.0220994 215.690608,76.0220994 C201.051934,76.0220994 189.171271,87.9027624 189.171271,102.541436 C189.171271,117.18011 201.051934,129.060773 215.690608,129.060773 C225.555801,129.060773 234.183425,123.650829 238.744751,115.641989 L238.744751,115.641989 Z M272.654144,116.066298 L264.698343,187.61547 C264.433149,190.01989 263.372376,192.247514 261.657459,193.944751 L146.775691,308.826519 C142.638674,312.963536 135.920442,312.963536 131.783425,308.826519 L9.2640884,186.307182 C5.12707182,182.170166 5.12707182,175.451934 9.2640884,171.314917 L124.145856,56.4331492 C125.860773,54.7359116 128.088398,53.6574586 130.475138,53.3922652 L202.218785,45.4187845 L234.218785,41.8651934 C237.436464,41.5116022 240.618785,42.6254144 242.899448,44.9060773 L273.18453,75.1911602 C275.465193,77.4718232 276.596685,80.6718232 276.243094,83.8718232 L272.654144,116.066298 L272.654144,116.066298 Z" id="Shape" fill="#4BC999"></path>
                    <path d="M26.2541436,203.297238 L131.783425,308.826519 C135.920442,312.963536 142.638674,312.963536 146.775691,308.826519 L261.657459,193.944751 C263.372376,192.247514 264.433149,190.01989 264.698343,187.61547 L268.508287,153.35779 L26.2541436,203.297238 L26.2541436,203.297238 Z" id="Shape" fill="#3BBC8B"></path>
                    <path d="M273.177459,119.116022 C272.49326,119.354696 271.823204,119.618122 271.124862,119.82674 C261.185414,122.823425 250.204641,122.689061 240.38895,119.439558 C238.359337,118.778343 236.39337,117.947403 234.468066,117.036906 L228.110497,125.767072 C230.992265,127.250387 233.98895,128.510939 237.077569,129.518674 C243.245967,131.560663 249.732597,132.596685 256.353591,132.596685 C261.581436,132.596685 266.736796,131.907182 271.738343,130.623646 L273.177459,119.116022 L273.177459,119.116022 Z" id="Shape" fill="#3BBC8B"></path>
                    <path d="M139.279558,317.233149 C135.029392,317.233149 131.03558,315.58011 128.033591,312.576354 L5.51425414,190.057017 C2.51049724,187.055028 0.857458564,183.061215 0.857458564,178.81105 C0.857458564,174.560884 2.51226519,170.567072 5.51425414,167.565083 L120.396022,52.6833149 C122.97547,50.1286188 126.33989,48.5162431 129.889945,48.121989 L233.633591,36.5949171 C238.544972,36.0468508 243.235359,37.7405525 246.649282,41.1562431 L276.934365,71.441326 C280.378343,74.8853039 282.049061,79.6287293 281.515138,84.4552486 L269.970387,188.202431 C269.572597,191.807293 267.944309,195.187624 265.387845,197.715801 L150.525525,312.576354 C147.523536,315.58011 143.529724,317.233149 139.279558,317.233149 L139.279558,317.233149 Z M235.394475,47.1054144 C235.196464,47.1054144 234.996685,47.1160221 234.798674,47.1390055 L131.060331,58.6660773 C129.877569,58.798674 128.746077,59.3432044 127.876243,60.2041989 L13.0139227,175.064751 C12.0150276,176.063646 11.4651934,177.394917 11.4651934,178.81105 C11.4651934,180.227182 12.0167956,181.556685 13.0139227,182.55558 L135.53326,305.076685 C137.53105,307.072707 141.02453,307.072707 143.025856,305.076685 L257.907624,190.194917 C258.773923,189.337459 259.291934,188.250166 259.426298,187.032044 L270.97105,83.2830939 C271.146077,81.7025414 270.571492,80.079558 269.432928,78.9409945 L239.147845,48.6559116 C238.14895,47.6552486 236.815912,47.1054144 235.394475,47.1054144 L235.394475,47.1054144 Z" id="Shape" fill="#234957"></path>
                    <path d="M256.353591,123.756906 C249.732597,123.756906 243.247735,122.720884 237.077569,120.677127 C224.254586,116.49768 212.953812,108.022099 205.286188,96.8220994 C203.631381,94.4053039 204.250166,91.1045304 206.666961,89.4497238 C209.085525,87.7931492 212.386298,88.4137017 214.039337,90.8304972 C220.39337,100.112265 229.752928,107.134586 240.38895,110.601547 C250.208177,113.85105 261.185414,113.987182 271.124862,110.988729 C292.616133,104.530387 307.624309,84.3367956 307.624309,61.878453 C307.624309,33.6070718 284.624972,10.6077348 256.353591,10.6077348 C233.6,10.6077348 213.885525,25.2163536 207.294586,46.9569061 C206.445967,49.759116 203.484641,51.3414365 200.680663,50.4945856 C197.876685,49.6441989 196.294365,46.6828729 197.142983,43.880663 C205.098785,17.6335912 228.893702,0 256.353591,0 C290.47337,0 318.232044,27.758674 318.232044,61.878453 C318.232044,88.9812155 300.117569,113.352486 274.17989,121.145635 C268.432265,122.878232 262.431823,123.756906 256.353591,123.756906 L256.353591,123.756906 Z" id="Shape" fill="#234957"></path>
                    <path d="M215.690608,134.364641 C198.143646,134.364641 183.867403,120.088398 183.867403,102.541436 C183.867403,84.9944751 198.143646,70.718232 215.690608,70.718232 C233.237569,70.718232 247.513812,84.9944751 247.513812,102.541436 C247.513812,108.08221 246.072928,113.523978 243.34674,118.279779 C237.698122,128.196243 227.099227,134.364641 215.690608,134.364641 L215.690608,134.364641 Z M215.690608,81.3259669 C203.992044,81.3259669 194.475138,90.8428729 194.475138,102.541436 C194.475138,114.24 203.992044,123.756906 215.690608,123.756906 C223.294586,123.756906 230.362873,119.641105 234.135691,113.016575 C235.949613,109.851934 236.906077,106.234696 236.906077,102.541436 C236.906077,90.8428729 227.389171,81.3259669 215.690608,81.3259669 L215.690608,81.3259669 Z" id="Shape" fill="#234957"></path>
                    <path d="M143.20442,238.674033 C141.85547,238.674033 140.504751,238.161326 139.470497,237.13768 L83.2318232,181.411713 C81.1509392,179.350276 81.1350276,175.992928 83.198232,173.910276 C85.2596685,171.83116 88.6187845,171.815249 90.6996685,173.876685 L146.938343,229.602652 C149.019227,231.664088 149.035138,235.021436 146.971934,237.104088 C145.934144,238.150718 144.569282,238.674033 143.20442,238.674033 L143.20442,238.674033 Z" id="Shape" fill="#234957"></path>
                    <path d="M175.027624,206.850829 C173.678674,206.850829 172.327956,206.338122 171.293702,205.314475 L115.055028,149.588508 C112.974144,147.527072 112.958232,144.169724 115.021436,142.087072 C117.084641,140.007956 120.441989,139.992044 122.522873,142.053481 L178.761547,197.779448 C180.842431,199.840884 180.858343,203.198232 178.795138,205.280884 C177.757348,206.327514 176.392486,206.850829 175.027624,206.850829 L175.027624,206.850829 Z" id="Shape" fill="#234957"></path>
                </g>
            </g>
        </g>
    </g>
</svg>