<?xml version="1.0" encoding="UTF-8" standalone="no"?>
<svg width="400px" height="400px" viewBox="0 0 400 400" version="1.1" xmlns="http://www.w3.org/2000/svg" xmlns:xlink="http://www.w3.org/1999/xlink">
    <!-- Generator: Sketch 3.8.3 (29802) - http://www.bohemiancoding.com/sketch -->
    <title>problem</title>
    <desc>Created with Sketch.</desc>
    <defs></defs>
    <g id="Page-1" stroke="none" stroke-width="1" fill="none" fill-rule="evenodd">
        <g id="problem">
            <g transform="translate(40.000000, 40.000000)" id="Layer_2">
                <g>
                    <g id="Group">
                        <path d="M256,26.6666667 L232.888889,49.7777778 C225.777778,57.1022222 218.56,56.9955556 211.555556,49.7777778 L188.444444,26.6666667 L256,26.6666667 L256,26.6666667 Z" id="Shape" fill="#1B9ED6"></path>
                        <path d="M222.4,167.093333 C225.137778,169.813333 225.12,174.293333 222.364444,177.031111 L177.031111,222.364444 C174.293333,225.12 169.813333,225.137778 167.093333,222.4 L94.0444444,149.351111 C91.3066667,146.631111 91.3244444,142.151111 94.08,139.413333 L139.413333,94.08 C142.151111,91.3244444 146.631111,91.3066667 149.351111,94.0444444 L222.4,167.093333 L222.4,167.093333 Z" id="Shape" fill="#1B9ED6"></path>
                        <path d="M160,264.32 L118.275556,306.044444 C106.791111,317.511111 88.0177778,317.511111 76.5511111,306.044444 L13.9555556,243.448889 C2.48888889,231.982222 2.48888889,213.208889 13.9555556,201.724444 L55.68,160 L160,264.32 L160,264.32 Z" id="Shape" fill="#E6F0F4"></path>
                        <path d="M306.044444,76.5511111 C317.511111,88.0177778 317.511111,106.791111 306.044444,118.275556 L264.32,160 L253.262222,148.96 L160,55.68 L188.444444,26.6666667 L211.555556,49.7777778 C218.56,56.9955556 225.777778,57.1022222 232.888889,49.7777778 L256,26.6666667 L306.044444,76.5511111 L306.044444,76.5511111 Z" id="Shape" fill="#E6F0F4"></path>
                        <path d="M306.08,201.76 C317.528889,213.208889 317.528889,231.964444 306.08,243.413333 L243.413333,306.08 C231.964444,317.528889 213.208889,317.528889 201.76,306.08 L160,264.32 L55.68,160 L13.92,118.24 C2.47111111,106.791111 2.47111111,88.0355556 13.92,76.5866667 L76.5866667,13.92 C88.0355556,2.47111111 106.791111,2.47111111 118.24,13.92 L160,55.68 L253.262222,148.96 L264.32,160 L306.08,201.76 L306.08,201.76 Z M222.364444,177.031111 C225.12,174.293333 225.137778,169.813333 222.4,167.093333 L149.351111,94.0444444 C146.631111,91.3066667 142.151111,91.3244444 139.413333,94.08 L94.08,139.413333 C91.3244444,142.151111 91.3066667,146.631111 94.0444444,149.351111 L167.093333,222.4 C169.813333,225.137778 174.293333,225.12 177.031111,222.364444 L222.364444,177.031111 L222.364444,177.031111 Z" id="Shape" fill="#F6FAFC"></path>
                        <rect id="Rectangle-path" fill="#D8E5EA" transform="translate(101.605689, 218.397259) rotate(135.000000) translate(-101.605689, -218.397259) " x="92.7862179" y="144.632633" width="17.638942" height="147.529252"></rect>
                        <rect id="Rectangle-path" fill="#D8E5EA" transform="translate(218.050133, 101.951393) rotate(135.000000) translate(-218.050133, -101.951393) " x="210.487539" y="28.1867668" width="15.1251883" height="147.529252"></rect>
                        <path d="M222.222222,60.5635556 C222.220444,60.5635556 222.220444,60.5635556 222.222222,60.5635556 C217.157333,60.5635556 212.282667,58.1848889 207.729778,53.4915556 L184.675556,30.4373333 C182.592,28.3555556 182.592,24.9777778 184.675556,22.896 C186.757333,20.8124444 190.135111,20.8124444 192.216889,22.896 L215.328,46.0071111 C217.852444,48.608 220.154667,49.8968889 222.222222,49.8968889 L222.222222,49.8968889 C224.291556,49.8968889 226.592,48.6062222 229.063111,46.0622222 L252.229333,22.896 C254.311111,20.8124444 257.688889,20.8124444 259.770667,22.896 C261.854222,24.9777778 261.854222,28.3555556 259.770667,30.4373333 L236.659556,53.5484444 C232.16,58.1848889 227.283556,60.5635556 222.222222,60.5635556 L222.222222,60.5635556 Z" id="Shape" fill="#234957"></path>
                        <path d="M264.32,165.333333 C262.954667,165.333333 261.589333,164.812444 260.549333,163.772444 C258.465778,161.688889 258.465778,158.312889 260.549333,156.229333 L302.273778,114.504889 C311.688889,105.073778 311.690667,89.7386667 302.273778,80.3235556 L253.795556,32 L190.684444,32 L163.808,59.4133333 C161.745778,61.5164444 158.369778,61.5502222 156.266667,59.488 C154.163556,57.4257778 154.129778,54.0497778 156.192,51.9466667 L184.636444,22.9333333 C185.639111,21.9093333 187.011556,21.3333333 188.444444,21.3333333 L256,21.3333333 C257.411556,21.3333333 258.766222,21.8933333 259.765333,22.8888889 L309.809778,72.7733333 C323.388444,86.3502222 323.390222,108.449778 309.818667,122.042667 L268.092444,163.770667 C267.050667,164.812444 265.685333,165.333333 264.32,165.333333 L264.32,165.333333 Z" id="Shape" fill="#234957"></path>
                        <path d="M97.4062222,319.996444 C88.4835556,319.996444 79.568,316.602667 72.7804444,309.815111 L10.1866667,247.219556 C-3.38666667,233.648 -3.38844444,211.548444 10.1831111,197.957333 L51.9093333,156.229333 C53.9928889,154.145778 57.3706667,154.147556 59.4524444,156.229333 C61.536,158.312889 61.536,161.688889 59.4524444,163.772444 L17.728,205.496889 C8.31288889,214.928 8.31111111,230.263111 17.728,239.678222 L80.3235556,302.273778 C89.7422222,311.690667 105.077333,311.690667 114.508444,302.270222 L156.231111,260.549333 C158.312889,258.465778 161.690667,258.467556 163.774222,260.549333 C165.857778,262.631111 165.856,266.008889 163.774222,268.092444 L122.049778,309.816889 C115.249778,316.600889 106.325333,319.996444 97.4062222,319.996444 L97.4062222,319.996444 Z" id="Shape" fill="#234957"></path>
                        <path d="M222.586667,320 C213.269333,320 204.533333,316.396444 197.989333,309.850667 L10.1475556,122.010667 C3.60355556,115.466667 0,106.730667 0,97.4133333 C0,88.096 3.60355556,79.36 10.1493333,72.816 L72.816,10.1493333 C79.36,3.60355556 88.096,0 97.4133333,0 C106.730667,0 115.466667,3.60355556 122.010667,10.1493333 L309.852444,197.989333 C316.396444,204.533333 320,213.269333 320,222.586667 C320,231.904 316.396444,240.64 309.850667,247.184 L247.184,309.850667 C240.64,316.396444 231.904,320 222.586667,320 L222.586667,320 Z M97.4133333,10.6666667 C90.944,10.6666667 84.8888889,13.1608889 80.3573333,17.6906667 L17.6906667,80.3573333 C13.1608889,84.8888889 10.6666667,90.944 10.6666667,97.4133333 C10.6666667,103.882667 13.1608889,109.937778 17.6906667,114.469333 L205.530667,302.309333 C210.060444,306.839111 216.117333,309.335111 222.586667,309.335111 C229.056,309.335111 235.111111,306.840889 239.642667,302.311111 L302.309333,239.644444 C306.839111,235.114667 309.333333,229.057778 309.333333,222.588444 C309.333333,216.119111 306.839111,210.064 302.309333,205.532444 L114.469333,17.6924444 C109.937778,13.1608889 103.882667,10.6666667 97.4133333,10.6666667 L97.4133333,10.6666667 Z" id="Shape" fill="#234957"></path>
                        <path d="M172.030222,229.776 C168.723556,229.776 165.626667,228.490667 163.310222,226.158222 L90.2737778,153.121778 C87.9537778,150.817778 86.6702222,147.722667 86.6684444,144.417778 C86.6684444,141.091556 87.9644444,137.971556 90.32,135.632 L135.642667,90.3111111 C137.971556,87.968 141.089778,86.6702222 144.416,86.6702222 C147.722667,86.6702222 150.819556,87.9555556 153.136,90.288 L226.172444,163.324444 C228.492444,165.628444 229.776,168.723556 229.777778,172.028444 C229.777778,175.354667 228.481778,178.474667 226.126222,180.814222 L180.803556,226.135111 C178.474667,228.48 175.354667,229.776 172.030222,229.776 L172.030222,229.776 Z M144.414222,97.3351111 C144.145778,97.3351111 143.632,97.4008889 143.194667,97.84 L97.8506667,143.184 C97.4008889,143.632 97.3351111,144.147556 97.3351111,144.416 C97.3351111,144.672 97.3955556,145.162667 97.8026667,145.566222 L170.864,218.629333 C171.28,219.048889 171.772444,219.109333 172.028444,219.109333 C172.296889,219.109333 172.810667,219.043556 173.248,218.604444 L218.593778,173.260444 C219.043556,172.812444 219.109333,172.296889 219.109333,172.028444 C219.109333,171.772444 219.048889,171.281778 218.641778,170.878222 L145.580444,97.8151111 C145.162667,97.3955556 144.672,97.3351111 144.414222,97.3351111 L144.414222,97.3351111 Z" id="Shape" fill="#234957"></path>
                        <path d="M167.022222,195.546667 C165.118222,195.546667 163.331556,194.807111 161.989333,193.466667 C159.217778,190.695111 159.217778,186.186667 161.989333,183.416889 C163.328,182.074667 165.118222,181.335111 167.022222,181.335111 L167.022222,181.335111 C168.924444,181.335111 170.712889,182.074667 172.055111,183.416889 C174.823111,186.188444 174.823111,190.693333 172.056889,193.463111 C170.711111,194.808889 168.924444,195.546667 167.022222,195.546667 L167.022222,195.546667 Z" id="Shape" fill="#234957"></path>
                        <path d="M187.137778,174.222222 C185.242667,174.222222 183.457778,173.482667 182.115556,172.142222 C180.771556,170.798222 180.032,169.009778 180.032,167.105778 C180.032,165.201778 180.773333,163.413333 182.115556,162.069333 C183.456,160.728889 185.240889,159.989333 187.137778,159.989333 L187.137778,159.989333 C189.034667,159.989333 190.819556,160.728889 192.161778,162.071111 C194.936889,164.844444 194.936889,169.36 192.163556,172.135111 C190.817778,173.482667 189.034667,174.222222 187.137778,174.222222 L187.137778,174.222222 Z" id="Shape" fill="#234957"></path>
                        <path d="M148.161778,175.381333 C146.261333,175.381333 144.414222,174.604444 143.093333,173.248 C141.831111,172.021333 141.073778,170.238222 141.061333,168.325333 C141.048889,166.433778 141.808,164.583111 143.144889,163.248 C144.412444,161.944889 146.259556,161.168 148.16,161.168 C150.062222,161.168 151.850667,161.909333 153.192889,163.251556 C154.526222,164.583111 155.285333,166.433778 155.272889,168.325333 C155.260444,170.236444 154.503111,172.021333 153.139556,173.347556 C151.852444,174.641778 150.065778,175.381333 148.161778,175.381333 L148.161778,175.381333 Z" id="Shape" fill="#234957"></path>
                        <path d="M168.282667,156.435556 C166.380444,156.435556 164.592,155.694222 163.249778,154.352 C161.916444,153.020444 161.157333,151.169778 161.169778,149.278222 C161.182222,147.367111 161.939556,145.582222 163.303111,144.256 C164.592,142.963556 166.378667,142.222222 168.282667,142.222222 L168.282667,142.222222 C170.183111,142.222222 172.030222,142.999111 173.351111,144.355556 C174.613333,145.582222 175.370667,147.365333 175.383111,149.278222 C175.395556,151.169778 174.636444,153.020444 173.299556,154.355556 C172.030222,155.658667 170.183111,156.435556 168.282667,156.435556 L168.282667,156.435556 Z" id="Shape" fill="#234957"></path>
                        <path d="M129.306667,158.163556 C127.409778,158.163556 125.624889,157.424 124.282667,156.081778 C121.507556,153.308444 121.507556,148.792889 124.280889,146.017778 C126.976,143.326222 131.644444,143.331556 134.330667,146.014222 C135.674667,147.358222 136.414222,149.146667 136.414222,151.050667 C136.414222,152.954667 135.672889,154.743111 134.330667,156.087111 C132.988444,157.424 131.203556,158.163556 129.306667,158.163556 L129.306667,158.163556 Z" id="Shape" fill="#234957"></path>
                        <path d="M149.422222,136.812444 C147.52,136.812444 145.731556,136.072889 144.389333,134.730667 C141.621333,131.959111 141.621333,127.454222 144.387556,124.684444 C147.082667,121.991111 151.772444,122 154.456889,124.682667 C157.228444,127.454222 157.228444,131.962667 154.456889,134.732444 C153.114667,136.072889 151.326222,136.812444 149.422222,136.812444 L149.422222,136.812444 Z" id="Shape" fill="#234957"></path>
                    </g>
                </g>
            </g>
        </g>
    </g>
</svg>