<?xml version="1.0" encoding="UTF-8" standalone="no"?><svg width="400" height="400" viewBox="0 0 400 400" xmlns="http://www.w3.org/2000/svg"><title>problem</title><g fill="none" fill-rule="evenodd"><path d="M296 66.667l-23.111 23.11c-7.111 7.325-14.329 7.219-21.333 0l-23.112-23.11H296zM262.4 207.093c2.738 2.72 2.72 7.2-.036 9.938l-45.333 45.333c-2.738 2.756-7.218 2.774-9.938.036l-73.049-73.049c-2.737-2.72-2.72-7.2.036-9.938l45.333-45.333c2.738-2.756 7.218-2.773 9.938-.036l73.049 73.05z" fill="#1B9ED6"/><path d="M200 304.32l-41.724 41.724c-11.485 11.467-30.258 11.467-41.725 0L53.956 283.45c-11.467-11.467-11.467-30.24 0-41.725L95.68 200 200 304.32zM346.044 116.551c11.467 11.467 11.467 30.24 0 41.725L304.32 200l-11.058-11.04L200 95.68l28.444-29.013 23.112 23.11c7.004 7.219 14.222 7.325 21.333 0L296 66.668l50.044 49.884z" fill="#E6F0F4"/><path d="M346.08 241.76c11.449 11.449 11.449 30.204 0 41.653l-62.667 62.667c-11.449 11.449-30.204 11.449-41.653 0L200 304.32 95.68 200l-41.76-41.76c-11.449-11.449-11.449-30.204 0-41.653l62.667-62.667c11.449-11.449 30.204-11.449 41.653 0L200 95.68l93.262 93.28L304.32 200l41.76 41.76zm-83.716-24.729c2.756-2.738 2.774-7.218.036-9.938l-73.049-73.049c-2.72-2.737-7.2-2.72-9.938.036l-45.333 45.333c-2.756 2.738-2.773 7.218-.036 9.938l73.05 73.049c2.72 2.738 7.2 2.72 9.937-.036l45.333-45.333z" fill="#F6FAFC"/><path fill="#D8E5EA" d="M200.001 304.32l-12.472 12.473-104.32-104.32 12.474-12.472zM315.557 188.763l-10.695 10.695L200.542 95.14l10.696-10.695z"/><path d="M262.222 100.564c-.002 0-.002 0 0 0-5.065 0-9.94-2.38-14.492-7.072l-23.054-23.055a5.33 5.33 0 0 1 0-7.541 5.33 5.33 0 0 1 7.54 0l23.112 23.111c2.524 2.601 4.827 3.89 6.894 3.89 2.07 0 4.37-1.29 6.841-3.835l23.166-23.166a5.33 5.33 0 0 1 7.542 0 5.33 5.33 0 0 1 0 7.541L276.66 93.548c-4.5 4.637-9.376 7.016-14.438 7.016z" fill="#234957"/><path d="M304.32 205.333a5.333 5.333 0 0 1-3.77-9.104l41.724-41.724c9.415-9.431 9.417-24.766 0-34.181L293.796 72h-63.112l-26.876 27.413a5.332 5.332 0 1 1-7.616-7.466l28.444-29.014a5.328 5.328 0 0 1 3.808-1.6H296c1.412 0 2.766.56 3.765 1.556l50.045 49.884c13.578 13.577 13.58 35.677.009 49.27l-41.727 41.728a5.318 5.318 0 0 1-3.772 1.562zM137.406 359.996c-8.922 0-17.838-3.393-24.626-10.18L50.187 287.22c-13.574-13.572-13.575-35.672-.004-49.263L91.91 196.23a5.334 5.334 0 0 1 7.543 7.543l-41.724 41.725c-9.415 9.431-9.417 24.766 0 34.181l62.596 62.596c9.418 9.417 24.753 9.417 34.184-.004l41.723-41.72a5.334 5.334 0 0 1 7.543 7.542l-41.724 41.725c-6.8 6.784-15.725 10.18-24.644 10.18z" fill="#234957"/><path d="M262.587 360c-9.318 0-18.054-3.604-24.598-10.15L50.148 162.01C43.604 155.468 40 146.73 40 137.414c0-9.317 3.604-18.053 10.15-24.597l62.666-62.667C119.36 43.604 128.096 40 137.413 40c9.318 0 18.054 3.604 24.598 10.15l187.841 187.84c6.544 6.543 10.148 15.28 10.148 24.597 0 9.317-3.604 18.053-10.15 24.597l-62.666 62.667C280.64 356.396 271.904 360 262.587 360zM137.413 50.667c-6.469 0-12.524 2.494-17.056 7.024l-62.666 62.666c-4.53 4.532-7.024 10.587-7.024 17.056 0 6.47 2.494 12.525 7.024 17.056l187.84 187.84c4.53 4.53 10.586 7.026 17.056 7.026 6.469 0 12.524-2.494 17.056-7.024l62.666-62.667c4.53-4.53 7.024-10.586 7.024-17.056 0-6.469-2.494-12.524-7.024-17.056L154.47 57.692c-4.531-4.531-10.586-7.025-17.056-7.025z" fill="#234957"/><path d="M212.03 269.776a12.2 12.2 0 0 1-8.72-3.618l-73.036-73.036c-2.32-2.304-3.604-5.4-3.606-8.704 0-3.326 1.296-6.446 3.652-8.786l45.323-45.32a12.288 12.288 0 0 1 8.773-3.642 12.2 12.2 0 0 1 8.72 3.618l73.036 73.036c2.32 2.304 3.604 5.4 3.606 8.704 0 3.327-1.296 6.447-3.652 8.786l-45.322 45.321a12.284 12.284 0 0 1-8.774 3.641zm-27.616-132.44c-.268 0-.782.065-1.22.504l-45.343 45.344c-.45.448-.516.964-.516 1.232 0 .256.06.747.468 1.15l73.061 73.063c.416.42.908.48 1.164.48.269 0 .783-.065 1.22-.505l45.346-45.344c.45-.448.515-.963.515-1.232 0-.256-.06-.746-.467-1.15l-73.062-73.063a1.632 1.632 0 0 0-1.166-.48z" fill="#234957"/><path d="M207.022 235.547c-1.904 0-3.69-.74-5.033-2.08-2.771-2.772-2.771-7.28 0-10.05a7.062 7.062 0 0 1 5.033-2.082c1.902 0 3.69.74 5.033 2.082 2.768 2.771 2.768 7.276.002 10.046a7.069 7.069 0 0 1-5.035 2.084zM227.138 214.222c-1.895 0-3.68-.74-5.022-2.08a7.074 7.074 0 0 1-2.084-5.036c0-1.904.741-3.693 2.084-5.037a7.059 7.059 0 0 1 5.022-2.08 7.06 7.06 0 0 1 5.024 2.082c2.775 2.773 2.775 7.289.002 10.064a7.053 7.053 0 0 1-5.026 2.087zM188.162 215.381a7.11 7.11 0 0 1-5.069-2.133c-1.262-1.227-2.02-3.01-2.032-4.923a7.153 7.153 0 0 1 2.084-5.077c1.267-1.303 3.115-2.08 5.015-2.08 1.902 0 3.69.741 5.033 2.084a7.15 7.15 0 0 1 2.08 5.073 7.017 7.017 0 0 1-2.133 5.023c-1.288 1.294-3.074 2.033-4.978 2.033zM208.283 196.436a7.073 7.073 0 0 1-5.033-2.084 7.15 7.15 0 0 1-2.08-5.074 7.017 7.017 0 0 1 2.133-5.022c1.289-1.292 3.076-2.034 4.98-2.034 1.9 0 3.747.777 5.068 2.134 1.262 1.226 2.02 3.01 2.032 4.922a7.153 7.153 0 0 1-2.083 5.078c-1.27 1.303-3.117 2.08-5.017 2.08zM169.307 198.164a7.06 7.06 0 0 1-5.024-2.082c-2.775-2.774-2.775-7.29-.002-10.064 2.695-2.692 7.363-2.686 10.05-.004a7.074 7.074 0 0 1 2.083 5.037 7.081 7.081 0 0 1-2.083 5.036 7.077 7.077 0 0 1-5.024 2.077zM189.422 176.812c-1.902 0-3.69-.74-5.033-2.081-2.768-2.772-2.768-7.277-.001-10.047 2.695-2.693 7.384-2.684 10.069-.001 2.771 2.771 2.771 7.28 0 10.05a7.078 7.078 0 0 1-5.035 2.08z" fill="#234957"/></g></svg>