<?xml version="1.0" encoding="UTF-8" standalone="no"?><svg width="400" height="400" viewBox="0 0 400 400" xmlns="http://www.w3.org/2000/svg"><title>product</title><g fill="none" fill-rule="evenodd"><path d="M343.352 261.538a155.887 155.887 0 0 1-29.15 44.826H85.798a156.453 156.453 0 0 1-29.15-44.76v-17.49h286.64v17.424h.064zM208.81 284.016c4.858-4.858 4.858-12.76 0-17.62-4.859-4.858-12.761-4.858-17.62 0-4.858 4.86-4.858 12.762 0 17.62 4.859 4.858 12.761 4.858 17.62 0z" fill="#FFF"/><path d="M343.352 139.239v104.81H56.648V106.915c0-13.733 11.206-24.94 24.939-24.94h236.826c13.733 0 24.94 11.207 24.94 24.94v32.324z" fill="#E4EEF2"/><path d="M246.77 306.364h67.432c-13.797 14.834-30.445 27.077-49.1 35.628-11.078-7.968-18.333-20.923-18.333-35.628zM300.534 81.393v.647H98.753C125.96 58.72 161.328 44.664 200 44.664c38.283-.065 73.393 13.798 100.534 36.729z" fill="#244A57"/><path d="M246.77 306.364c0 14.705 7.32 27.66 18.396 35.628-19.822 9.134-41.91 14.25-65.101 14.25-23.19 0-45.28-5.116-65.101-14.25 11.076-7.968 18.396-20.923 18.396-35.628h93.41z" fill="#FFF"/><path d="M208.81 266.397c4.858 4.858 4.858 12.76 0 17.62-4.859 4.857-12.761 4.857-17.62 0-4.858-4.86-4.858-12.762 0-17.62 4.859-4.859 12.761-4.859 17.62 0z" fill="#E4EEF2"/><path d="M85.798 306.364h67.433c0 14.705-7.32 27.66-18.397 35.628-18.591-8.615-35.239-20.794-49.036-35.628z" fill="#244A57"/><g fill="#E4EEF2"><path d="M318.931 244.049c-7.903 25.133-23.514 46.834-44.113 62.315h39.384a156.453 156.453 0 0 0 29.15-44.76v-17.49h-24.42v-.065zM81.069 244.049H56.648v17.49a156.453 156.453 0 0 0 29.15 44.76h39.384a124.44 124.44 0 0 1-44.113-62.25z"/></g><path d="M249.36 321.134c-15.158 6.542-31.805 10.17-49.36 10.17s-34.202-3.628-49.36-10.17a44.045 44.045 0 0 1-15.741 20.858c19.822 9.134 41.91 14.25 65.101 14.25 23.19 0 45.28-5.116 65.101-14.25a44.257 44.257 0 0 1-15.74-20.858z" fill="#E4EEF2"/><path d="M318.413 81.976H257.328l-65.36 162.073h151.32V106.915c.064-13.668-11.142-24.94-24.875-24.94z" fill="#F7FBFD"/><g fill="#244A57"><path d="M200 291.79c-4.47 0-8.615-1.75-11.725-4.859-6.477-6.478-6.477-17.036 0-23.514A16.571 16.571 0 0 1 200 258.559c4.405 0 8.615 1.749 11.725 4.858 6.477 6.478 6.477 17.036 0 23.514-3.11 3.174-7.255 4.858-11.725 4.858zm0-24.94c-2.202 0-4.34.842-5.895 2.397-3.239 3.239-3.239 8.55 0 11.79 1.555 1.554 3.628 2.396 5.895 2.396 2.267 0 4.34-.842 5.895-2.397 3.239-3.238 3.239-8.55 0-11.789-1.555-1.49-3.693-2.397-5.895-2.397zM343.352 248.194H56.648c-2.267 0-4.146-1.878-4.146-4.145 0-2.268 1.879-4.146 4.146-4.146h286.64c2.267 0 4.145 1.878 4.145 4.146 0 2.267-1.814 4.145-4.08 4.145zM265.166 346.138c-.907 0-1.749-.26-2.462-.778-12.566-9.004-20.145-23.579-20.145-38.996 0-2.267 1.878-4.145 4.145-4.145 2.268 0 4.146 1.878 4.146 4.145 0 12.697 6.154 24.68 16.518 32.13a4.175 4.175 0 0 1 1.879 3.498c.065 2.267-1.814 4.146-4.081 4.146zM134.899 346.138c-2.267 0-4.146-1.879-4.146-4.146 0-1.49.842-2.85 2.008-3.563 10.235-7.45 16.389-19.433 16.389-32.065 0-2.267 1.878-4.145 4.146-4.145 2.267 0 4.145 1.878 4.145 4.145 0 15.417-7.514 29.992-20.145 38.996-.713.454-1.555.778-2.397.778z"/><path d="M343.352 265.684c-2.267 0-4.146-1.878-4.146-4.146V106.915c0-11.466-9.327-20.794-20.793-20.794H81.587c-11.466 0-20.793 9.328-20.793 20.794v154.623c0 2.268-1.879 4.146-4.146 4.146s-4.146-1.878-4.146-4.146V106.915c0-16.065 13.02-29.085 29.085-29.085h236.826c16.065 0 29.085 13.02 29.085 29.085v154.623c0 2.268-1.879 4.146-4.146 4.146zM314.202 310.51H85.798c-2.268 0-4.146-1.878-4.146-4.146a4.133 4.133 0 0 1 4.146-4.145h228.404c2.268 0 4.146 1.878 4.146 4.145a4.133 4.133 0 0 1-4.146 4.146z"/><path d="M200 360.389c-23.32 0-45.798-4.923-66.85-14.64-19.11-8.745-36.016-21.053-50.397-36.534-12.567-13.539-22.672-28.956-29.927-45.992-.065-.13-.065-.195-.13-.324C44.276 243.077 40 222.024 40 200.389c0-21.766 4.275-42.883 12.826-62.77.907-2.137 3.368-3.109 5.441-2.202 2.138.907 3.11 3.368 2.203 5.441-8.033 18.915-12.114 38.931-12.114 59.53 0 20.6 4.081 40.616 12.114 59.531.064.13.064.194.13.324 6.866 16 16.388 30.575 28.242 43.336 13.603 14.704 29.668 26.364 47.741 34.656 19.951 9.198 41.263 13.862 63.417 13.862 22.09 0 43.4-4.664 63.417-13.862 18.073-8.292 34.138-19.952 47.74-34.656 11.855-12.761 21.377-27.336 28.244-43.336.065-.13.065-.194.13-.26 8.032-18.914 12.113-38.93 12.113-59.53 0-20.599-4.081-40.68-12.114-59.53a4.113 4.113 0 0 1 2.203-5.441 4.113 4.113 0 0 1 5.441 2.202C355.66 157.636 360 178.753 360 200.454c0 21.635-4.275 42.688-12.696 62.51-.065.13-.065.194-.13.323-7.255 16.972-17.36 32.454-29.927 45.992-14.316 15.482-31.287 27.79-50.397 36.535-21.052 9.652-43.53 14.575-66.85 14.575zM98.753 86.121c-1.166 0-2.332-.518-3.174-1.425a4.117 4.117 0 0 1 .453-5.83C124.923 54.056 161.846 40.453 200 40.453A159.994 159.994 0 0 1 303.19 78.22c1.75 1.49 1.944 4.08.519 5.83-1.49 1.749-4.081 1.943-5.83.518-27.336-23.06-62.057-35.757-97.814-35.757-36.146 0-71.126 12.955-98.591 36.405-.842.583-1.814.906-2.721.906z"/></g><g><g transform="translate(85.344 135.87)"><path d="M228.923.13v78.963h-62.316V.13h62.316zM208.13 25.069c0-5.765-4.664-10.365-10.365-10.365-5.765 0-10.364 4.664-10.364 10.365 0 5.765 4.664 10.364 10.364 10.364 5.7 0 10.365-4.664 10.365-10.364z" fill="#FFF"/><circle fill="#FAB738" cx="197.765" cy="25.069" r="10.364"/><path d="M145.814.13v78.963H83.498V.13h62.316zM125.02 25.069c0-5.765-4.664-10.365-10.364-10.365-5.7 0-10.365 4.664-10.365 10.365 0 5.765 4.664 10.364 10.365 10.364 5.7 0 10.364-4.664 10.364-10.364z" fill="#FFF"/><circle fill="#FAB738" cx="114.656" cy="25.069" r="10.364"/><path d="M62.704.13v78.963H.39V.13h62.315zM41.976 25.069c0-5.765-4.664-10.365-10.365-10.365-5.765 0-10.364 4.664-10.364 10.365 0 5.765 4.664 10.364 10.364 10.364 5.7 0 10.365-4.664 10.365-10.364z" fill="#FFF"/><circle fill="#FAB738" cx="31.547" cy="25.069" r="10.364"/></g><g transform="translate(81.457 111.255)"><path d="M66.591 107.725H4.275c-2.202 0-4.016-1.814-4.016-4.016V24.745c0-2.202 1.814-4.016 4.016-4.016h62.316c2.203 0 4.016 1.814 4.016 4.016v78.964c.065 2.202-1.749 4.016-4.016 4.016zm-58.3-8.097h54.22V28.76H8.29v70.867z" fill="#244A57"/><circle stroke="#244A57" stroke-width="12" cx="35.433" cy="49.684" r="10.364"/><path d="M18.85 76.696h33.231M27.142 89.134h16.583" stroke="#244A57" stroke-width="12"/><path d="M33.36 8.032H4.275C2.073 8.032.26 6.22.26 4.016.26 1.814 2.073 0 4.275 0H33.36c2.203 0 4.017 1.814 4.017 4.016a3.995 3.995 0 0 1-4.017 4.016zM232.81 8.032h-8.292c-2.202 0-4.016-1.813-4.016-4.016 0-2.202 1.814-4.016 4.016-4.016h8.292c2.202 0 4.016 1.814 4.016 4.016 0 2.203-1.814 4.016-4.016 4.016zM205.798 8.032h-8.292c-2.202 0-4.016-1.813-4.016-4.016 0-2.202 1.814-4.016 4.016-4.016h8.292c2.202 0 4.016 1.814 4.016 4.016 0 2.203-1.814 4.016-4.016 4.016zM178.785 8.032h-8.291c-2.203 0-4.016-1.813-4.016-4.016 0-2.202 1.813-4.016 4.016-4.016h8.291c2.203 0 4.017 1.814 4.017 4.016 0 2.203-1.814 4.016-4.017 4.016zM149.7 107.725H87.385c-2.203 0-4.017-1.814-4.017-4.016V24.745c0-2.202 1.814-4.016 4.017-4.016H149.7c2.203 0 4.017 1.814 4.017 4.016v78.964c0 2.202-1.814 4.016-4.017 4.016zm-58.3-8.097h54.22V28.76H91.4v70.867z" fill="#244A57"/><circle stroke="#244A57" stroke-width="12" cx="118.543" cy="49.684" r="10.364"/><path d="M101.895 76.696h33.295M110.251 89.134h16.583" stroke="#244A57" stroke-width="12"/><path d="M232.81 107.725h-62.316c-2.203 0-4.016-1.814-4.016-4.016V24.745c0-2.202 1.813-4.016 4.016-4.016h62.316c2.202 0 4.016 1.814 4.016 4.016v78.964c0 2.202-1.814 4.016-4.016 4.016zm-58.3-8.097h54.219V28.76H174.51v70.867z" fill="#244A57"/><circle stroke="#244A57" stroke-width="12" cx="201.652" cy="49.684" r="10.364"/><path d="M185.004 76.696h33.23M193.296 89.134h16.647" stroke="#244A57" stroke-width="12"/></g></g><path d="M53.733 241.976s-15.093-32.519-.518-83.757l.518 83.757zM345.749 155.045s16.194 34.98.583 90.04l-.583-90.04z" fill="#244A57"/></g></svg>