<?xml version="1.0" encoding="UTF-8" standalone="no"?>
<svg width="400px" height="400px" viewBox="0 0 400 400" version="1.1" xmlns="http://www.w3.org/2000/svg" xmlns:xlink="http://www.w3.org/1999/xlink">
    <!-- Generator: Sketch 3.8.3 (29802) - http://www.bohemiancoding.com/sketch -->
    <title>product</title>
    <desc>Created with Sketch.</desc>
    <defs></defs>
    <g id="Page-1" stroke="none" stroke-width="1" fill="none" fill-rule="evenodd">
        <g id="product">
            <g transform="translate(40.000000, 40.000000)" id="Layer_1">
                <g>
                    <g id="XMLID_2_">
                        <g id="Group" transform="translate(16.194332, 4.534413)">
                            <path d="M287.157895,217.004049 L287.157895,217.004049 C280.032389,233.651822 270.121457,248.809717 258.008097,261.82996 L190.574899,261.82996 L97.0364372,261.82996 L29.6032389,261.82996 C17.4898785,248.809717 7.57894737,233.651822 0.453441296,217.068826 L0.453441296,217.068826 L0.453441296,199.578947 L287.093117,199.578947 L287.093117,217.004049 L287.157895,217.004049 Z M152.615385,239.481781 C157.473684,234.623482 157.473684,226.720648 152.615385,221.862348 C147.757085,217.004049 139.854251,217.004049 134.995951,221.862348 C130.137652,226.720648 130.137652,234.623482 134.995951,239.481781 C139.854251,244.340081 147.757085,244.340081 152.615385,239.481781 L152.615385,239.481781 Z" id="Shape" fill="#FFFFFF"></path>
                            <path d="M287.157895,94.7044534 L287.157895,199.51417 L0.453441296,199.51417 L0.453441296,94.7044534 L0.453441296,62.3805668 C0.453441296,48.6477733 11.659919,37.4412955 25.3927126,37.4412955 L42.5587045,37.4412955 L244.340081,37.4412955 L262.218623,37.4412955 C275.951417,37.4412955 287.157895,48.6477733 287.157895,62.3805668 L287.157895,94.7044534 L287.157895,94.7044534 Z" id="Shape" fill="#E4EEF2"></path>
                            <path d="M190.574899,261.82996 L258.008097,261.82996 C244.210526,276.663968 227.562753,288.906883 208.906883,297.45749 C197.82996,289.489879 190.574899,276.534413 190.574899,261.82996 L190.574899,261.82996 Z" id="Shape" fill="#244A57"></path>
                            <path d="M244.340081,36.8582996 L244.340081,37.5060729 L42.5587045,37.5060729 C69.7651822,14.1862348 105.133603,0.129554656 143.805668,0.129554656 C182.089069,0.0647773279 217.198381,13.9271255 244.340081,36.8582996 L244.340081,36.8582996 Z" id="Shape" fill="#244A57"></path>
                            <path d="M190.574899,261.82996 C190.574899,276.534413 197.894737,289.489879 208.97166,297.45749 C189.149798,306.591093 167.060729,311.708502 143.870445,311.708502 C120.680162,311.708502 98.5910931,306.591093 78.7692308,297.45749 C89.8461538,289.489879 97.1659919,276.534413 97.1659919,261.82996 L190.574899,261.82996 L190.574899,261.82996 Z" id="Shape" fill="#FFFFFF"></path>
                            <path d="M152.615385,221.862348 C157.473684,226.720648 157.473684,234.623482 152.615385,239.481781 C147.757085,244.340081 139.854251,244.340081 134.995951,239.481781 C130.137652,234.623482 130.137652,226.720648 134.995951,221.862348 C139.854251,217.004049 147.757085,217.004049 152.615385,221.862348 L152.615385,221.862348 Z" id="Shape" fill="#E4EEF2"></path>
                            <path d="M29.6032389,261.82996 L97.0364372,261.82996 C97.0364372,276.534413 89.7165992,289.489879 78.6396761,297.45749 C60.048583,288.842105 43.4008097,276.663968 29.6032389,261.82996 L29.6032389,261.82996 Z" id="Shape" fill="#244A57"></path>
                            <g transform="translate(0.000000, 199.514170)" id="Shape" fill="#E4EEF2">
                                <path d="M262.736842,0 C254.834008,25.1336032 239.222672,46.8340081 218.623482,62.3157895 L258.008097,62.3157895 C270.121457,49.2955466 280.032389,34.1376518 287.157895,17.5546559 L287.157895,17.5546559 L287.157895,0.0647773279 L262.736842,0.0647773279 L262.736842,0 Z"></path>
                                <path d="M24.8744939,0 L0.453441296,0 L0.453441296,17.4898785 L0.453441296,17.4898785 C7.57894737,34.0728745 17.4898785,49.2307692 29.6032389,62.2510121 L68.9878543,62.2510121 C48.388664,46.8340081 32.7773279,25.1336032 24.8744939,0 L24.8744939,0 Z"></path>
                            </g>
                            <path d="M193.165992,276.59919 C178.008097,283.1417 161.360324,286.769231 143.805668,286.769231 C126.251012,286.769231 109.603239,283.1417 94.4453441,276.59919 C91.4008097,285.08502 85.8299595,292.340081 78.7044534,297.45749 C98.5263158,306.591093 120.615385,311.708502 143.805668,311.708502 C166.995951,311.708502 189.08502,306.591093 208.906883,297.45749 C201.716599,292.275304 196.210526,285.020243 193.165992,276.59919 L193.165992,276.59919 Z" id="Shape" fill="#E4EEF2"></path>
                            <path d="M262.218623,37.4412955 L244.340081,37.4412955 L201.133603,37.4412955 L135.773279,199.51417 L287.093117,199.51417 L287.093117,94.7044534 L287.093117,62.3805668 C287.157895,48.7125506 275.951417,37.4412955 262.218623,37.4412955 L262.218623,37.4412955 Z" id="Shape" fill="#F7FBFD"></path>
                        </g>
                        <g id="Group" fill="#244A57">
                            <path d="M160,251.789474 C155.530364,251.789474 151.384615,250.040486 148.275304,246.931174 C141.797571,240.453441 141.797571,229.894737 148.275304,223.417004 C151.384615,220.307692 155.595142,218.558704 160,218.558704 C164.404858,218.558704 168.615385,220.307692 171.724696,223.417004 C178.202429,229.894737 178.202429,240.453441 171.724696,246.931174 C168.615385,250.105263 164.469636,251.789474 160,251.789474 L160,251.789474 Z M160,226.850202 C157.797571,226.850202 155.659919,227.692308 154.105263,229.246964 C150.866397,232.48583 150.866397,237.797571 154.105263,241.036437 C155.659919,242.591093 157.732794,243.433198 160,243.433198 C162.267206,243.433198 164.340081,242.591093 165.894737,241.036437 C169.133603,237.797571 169.133603,232.48583 165.894737,229.246964 C164.340081,227.757085 162.202429,226.850202 160,226.850202 L160,226.850202 Z" id="Shape"></path>
                            <path d="M303.352227,208.194332 L16.6477733,208.194332 C14.3805668,208.194332 12.5020243,206.315789 12.5020243,204.048583 C12.5020243,201.781377 14.3805668,199.902834 16.6477733,199.902834 L303.287449,199.902834 C305.554656,199.902834 307.433198,201.781377 307.433198,204.048583 C307.433198,206.315789 305.619433,208.194332 303.352227,208.194332 L303.352227,208.194332 Z" id="Shape"></path>
                            <path d="M225.165992,306.137652 L225.165992,306.137652 C224.259109,306.137652 223.417004,305.878543 222.704453,305.360324 C210.137652,296.356275 202.558704,281.781377 202.558704,266.364372 C202.558704,264.097166 204.437247,262.218623 206.704453,262.218623 C208.97166,262.218623 210.850202,264.097166 210.850202,266.364372 C210.850202,279.060729 217.004049,291.044534 227.368421,298.493927 C228.469636,299.206478 229.246964,300.502024 229.246964,301.991903 C229.311741,304.259109 227.433198,306.137652 225.165992,306.137652 L225.165992,306.137652 Z" id="Shape"></path>
                            <path d="M94.8987854,306.137652 C92.6315789,306.137652 90.7530364,304.259109 90.7530364,301.991903 C90.7530364,300.502024 91.5951417,299.1417 92.7611336,298.42915 C102.995951,290.979757 109.149798,278.995951 109.149798,266.364372 C109.149798,264.097166 111.02834,262.218623 113.295547,262.218623 C115.562753,262.218623 117.441296,264.097166 117.441296,266.364372 C117.441296,281.781377 109.927126,296.356275 97.2955466,305.360324 C96.582996,305.813765 95.7408907,306.137652 94.8987854,306.137652 L94.8987854,306.137652 Z" id="Shape"></path>
                            <path d="M303.352227,225.684211 C301.08502,225.684211 299.206478,223.805668 299.206478,221.538462 L299.206478,66.9149798 C299.206478,55.4493927 289.878543,46.1214575 278.412955,46.1214575 L41.5870445,46.1214575 C30.1214575,46.1214575 20.7935223,55.4493927 20.7935223,66.9149798 L20.7935223,221.538462 C20.7935223,223.805668 18.9149798,225.684211 16.6477733,225.684211 C14.3805668,225.684211 12.5020243,223.805668 12.5020243,221.538462 L12.5020243,66.9149798 C12.5020243,50.8502024 25.5222672,37.8299595 41.5870445,37.8299595 L278.412955,37.8299595 C294.477733,37.8299595 307.497976,50.8502024 307.497976,66.9149798 L307.497976,221.538462 C307.497976,223.805668 305.619433,225.684211 303.352227,225.684211 L303.352227,225.684211 Z" id="Shape"></path>
                            <path d="M274.202429,270.510121 L45.7975709,270.510121 C43.5303644,270.510121 41.6518219,268.631579 41.6518219,266.364372 C41.6518219,264.097166 43.465587,262.218623 45.7975709,262.218623 L274.202429,262.218623 C276.469636,262.218623 278.348178,264.097166 278.348178,266.364372 C278.348178,268.631579 276.534413,270.510121 274.202429,270.510121 L274.202429,270.510121 Z" id="Shape"></path>
                            <path d="M160,320.388664 C136.680162,320.388664 114.202429,315.465587 93.1497976,305.748988 C74.0404858,297.004049 57.1336032,284.696356 42.7530364,269.214575 C30.1862348,255.676113 20.0809717,240.259109 12.8259109,223.222672 C12.7611336,223.093117 12.7611336,223.02834 12.6963563,222.898785 C4.27530364,203.076923 4.60270598e-15,182.024291 4.60270598e-15,160.388664 C4.60270598e-15,138.623482 4.27530364,117.506073 12.8259109,97.6194332 C13.7327935,95.4817814 16.194332,94.5101215 18.2672065,95.417004 C20.4048583,96.3238866 21.3765182,98.7854251 20.4696356,100.8583 C12.437247,119.773279 8.3562753,139.789474 8.3562753,160.388664 C8.3562753,180.987854 12.437247,201.004049 20.4696356,219.919028 C20.534413,220.048583 20.534413,220.11336 20.5991903,220.242915 C27.465587,236.242915 36.9878543,250.817814 48.8421053,263.578947 C62.4453441,278.283401 78.5101215,289.94332 96.582996,298.234818 C116.534413,307.433198 137.846154,312.097166 160,312.097166 C182.089069,312.097166 203.40081,307.433198 223.417004,298.234818 C241.489879,289.94332 257.554656,278.283401 271.157895,263.578947 C283.012146,250.817814 292.534413,236.242915 299.40081,220.242915 C299.465587,220.11336 299.465587,220.048583 299.530364,219.983806 C307.562753,201.068826 311.643725,181.052632 311.643725,160.453441 C311.643725,139.854251 307.562753,119.773279 299.530364,100.923077 C298.623482,98.7854251 299.595142,96.388664 301.732794,95.4817814 C303.870445,94.5748988 306.267206,95.5465587 307.174089,97.6842105 C315.659919,117.635628 320,138.753036 320,160.453441 C320,182.089069 315.724696,203.1417 307.303644,222.963563 C307.238866,223.093117 307.238866,223.157895 307.174089,223.287449 C299.919028,240.259109 289.813765,255.740891 277.246964,269.279352 C262.931174,284.761134 245.959514,297.068826 226.850202,305.813765 C205.797571,315.465587 183.319838,320.388664 160,320.388664 L160,320.388664 Z" id="Shape"></path>
                            <path d="M58.7530364,46.1214575 C57.5870445,46.1214575 56.4210526,45.6032389 55.5789474,44.6963563 C54.0890688,42.9473684 54.2834008,40.3562753 56.0323887,38.8663968 C84.9230769,14.0566802 121.846154,0.453441296 160,0.453441296 C197.765182,0.453441296 234.364372,13.8623482 263.190283,38.2186235 C264.939271,39.708502 265.133603,42.2995951 263.708502,44.048583 C262.218623,45.7975709 259.62753,45.9919028 257.878543,44.5668016 C230.54251,21.5060729 195.821862,8.8097166 160.064777,8.8097166 C123.919028,8.8097166 88.9392713,21.7651822 61.4736842,45.2145749 C60.6315789,45.7975709 59.659919,46.1214575 58.7530364,46.1214575 L58.7530364,46.1214575 Z" id="Shape"></path>
                        </g>
                    </g>
                    <g id="XMLID_10_" transform="translate(41.457490, 71.255061)">
                        <g id="Group" transform="translate(3.886640, 24.615385)">
                            <path d="M228.923077,0.129554656 L228.923077,79.0931174 L166.607287,79.0931174 L166.607287,0.129554656 L228.923077,0.129554656 L228.923077,0.129554656 Z M208.129555,25.0688259 C208.129555,19.3036437 203.465587,14.7044534 197.765182,14.7044534 C192,14.7044534 187.40081,19.3684211 187.40081,25.0688259 C187.40081,30.8340081 192.064777,35.4331984 197.765182,35.4331984 C203.465587,35.4331984 208.129555,30.7692308 208.129555,25.0688259 L208.129555,25.0688259 Z" id="Shape" fill="#FFFFFF"></path>
                            <circle id="Oval" fill="#FAB738" cx="197.765182" cy="25.0688259" r="10.3643725"></circle>
                            <path d="M145.813765,0.129554656 L145.813765,79.0931174 L83.4979757,79.0931174 L83.4979757,0.129554656 L145.813765,0.129554656 L145.813765,0.129554656 Z M125.020243,25.0688259 C125.020243,19.3036437 120.356275,14.7044534 114.65587,14.7044534 C108.955466,14.7044534 104.291498,19.3684211 104.291498,25.0688259 C104.291498,30.8340081 108.955466,35.4331984 114.65587,35.4331984 C120.356275,35.4331984 125.020243,30.7692308 125.020243,25.0688259 L125.020243,25.0688259 Z" id="Shape" fill="#FFFFFF"></path>
                            <circle id="Oval" fill="#FAB738" cx="114.65587" cy="25.0688259" r="10.3643725"></circle>
                            <path d="M62.7044534,0.129554656 L62.7044534,79.0931174 L0.388663968,79.0931174 L0.388663968,0.129554656 L62.7044534,0.129554656 L62.7044534,0.129554656 Z M41.9757085,25.0688259 C41.9757085,19.3036437 37.3117409,14.7044534 31.611336,14.7044534 C25.8461538,14.7044534 21.2469636,19.3684211 21.2469636,25.0688259 C21.2469636,30.8340081 25.9109312,35.4331984 31.611336,35.4331984 C37.3117409,35.4331984 41.9757085,30.7692308 41.9757085,25.0688259 L41.9757085,25.0688259 Z" id="Shape" fill="#FFFFFF"></path>
                            <circle id="Oval" fill="#FAB738" cx="31.5465587" cy="25.0688259" r="10.3643725"></circle>
                        </g>
                        <g id="Group">
                            <path d="M66.5910931,107.724696 L4.27530364,107.724696 C2.07287449,107.724696 0.259109312,105.910931 0.259109312,103.708502 L0.259109312,24.7449393 C0.259109312,22.5425101 2.07287449,20.7287449 4.27530364,20.7287449 L66.5910931,20.7287449 C68.7935223,20.7287449 70.6072874,22.5425101 70.6072874,24.7449393 L70.6072874,103.708502 C70.6720648,105.910931 68.8582996,107.724696 66.5910931,107.724696 L66.5910931,107.724696 Z M8.29149798,99.6275304 L62.5101215,99.6275304 L62.5101215,28.7611336 L8.29149798,28.7611336 L8.29149798,99.6275304 L8.29149798,99.6275304 Z" id="Shape" fill="#244A57"></path>
                            <circle id="Oval" stroke="#244A57" stroke-width="12" cx="35.4331984" cy="49.6842105" r="10.3643725"></circle>
                            <path d="M18.8502024,76.6963563 L52.0809717,76.6963563" id="Shape" stroke="#244A57" stroke-width="12"></path>
                            <path d="M27.1417004,89.1336032 L43.7246964,89.1336032" id="Shape" stroke="#244A57" stroke-width="12"></path>
                            <path d="M33.3603239,8.03238866 L4.27530364,8.03238866 C2.07287449,8.03238866 0.259109312,6.21862348 0.259109312,4.01619433 C0.259109312,1.81376518 2.07287449,1.84108239e-14 4.27530364,1.84108239e-14 L33.3603239,1.84108239e-14 C35.562753,1.84108239e-14 37.3765182,1.81376518 37.3765182,4.01619433 C37.3765182,6.21862348 35.6275304,8.03238866 33.3603239,8.03238866 L33.3603239,8.03238866 Z" id="Shape" fill="#244A57"></path>
                            <path d="M232.809717,8.03238866 L224.518219,8.03238866 C222.315789,8.03238866 220.502024,6.21862348 220.502024,4.01619433 C220.502024,1.81376518 222.315789,1.84108239e-14 224.518219,1.84108239e-14 L232.809717,1.84108239e-14 C235.012146,1.84108239e-14 236.825911,1.81376518 236.825911,4.01619433 C236.825911,6.21862348 235.012146,8.03238866 232.809717,8.03238866 L232.809717,8.03238866 Z" id="Shape" fill="#244A57"></path>
                            <path d="M205.797571,8.03238866 L197.506073,8.03238866 C195.303644,8.03238866 193.489879,6.21862348 193.489879,4.01619433 C193.489879,1.81376518 195.303644,1.84108239e-14 197.506073,1.84108239e-14 L205.797571,1.84108239e-14 C208,1.84108239e-14 209.813765,1.81376518 209.813765,4.01619433 C209.813765,6.21862348 208,8.03238866 205.797571,8.03238866 L205.797571,8.03238866 Z" id="Shape" fill="#244A57"></path>
                            <path d="M178.785425,8.03238866 L170.493927,8.03238866 C168.291498,8.03238866 166.477733,6.21862348 166.477733,4.01619433 C166.477733,1.81376518 168.291498,1.84108239e-14 170.493927,1.84108239e-14 L178.785425,1.84108239e-14 C180.987854,1.84108239e-14 182.801619,1.81376518 182.801619,4.01619433 C182.801619,6.21862348 180.987854,8.03238866 178.785425,8.03238866 L178.785425,8.03238866 Z" id="Shape" fill="#244A57"></path>
                            <path d="M149.700405,107.724696 L87.3846154,107.724696 C85.1821862,107.724696 83.3684211,105.910931 83.3684211,103.708502 L83.3684211,24.7449393 C83.3684211,22.5425101 85.1821862,20.7287449 87.3846154,20.7287449 L149.700405,20.7287449 C151.902834,20.7287449 153.716599,22.5425101 153.716599,24.7449393 L153.716599,103.708502 C153.716599,105.910931 151.902834,107.724696 149.700405,107.724696 L149.700405,107.724696 Z M91.4008097,99.6275304 L145.619433,99.6275304 L145.619433,28.7611336 L91.4008097,28.7611336 L91.4008097,99.6275304 L91.4008097,99.6275304 Z" id="Shape" fill="#244A57"></path>
                            <circle id="Oval" stroke="#244A57" stroke-width="12" cx="118.54251" cy="49.6842105" r="10.3643725"></circle>
                            <path d="M101.894737,76.6963563 L135.190283,76.6963563" id="Shape" stroke="#244A57" stroke-width="12"></path>
                            <path d="M110.251012,89.1336032 L126.834008,89.1336032" id="Shape" stroke="#244A57" stroke-width="12"></path>
                            <path d="M232.809717,107.724696 L170.493927,107.724696 C168.291498,107.724696 166.477733,105.910931 166.477733,103.708502 L166.477733,24.7449393 C166.477733,22.5425101 168.291498,20.7287449 170.493927,20.7287449 L232.809717,20.7287449 C235.012146,20.7287449 236.825911,22.5425101 236.825911,24.7449393 L236.825911,103.708502 C236.825911,105.910931 235.012146,107.724696 232.809717,107.724696 L232.809717,107.724696 Z M174.510121,99.6275304 L228.728745,99.6275304 L228.728745,28.7611336 L174.510121,28.7611336 L174.510121,99.6275304 L174.510121,99.6275304 Z" id="Shape" fill="#244A57"></path>
                            <circle id="Oval" stroke="#244A57" stroke-width="12" cx="201.651822" cy="49.6842105" r="10.3643725"></circle>
                            <path d="M185.004049,76.6963563 L218.234818,76.6963563" id="Shape" stroke="#244A57" stroke-width="12"></path>
                            <path d="M193.295547,89.1336032 L209.94332,89.1336032" id="Shape" stroke="#244A57" stroke-width="12"></path>
                        </g>
                    </g>
                    <path d="M13.7327935,201.975709 C13.7327935,201.975709 -1.36032389,169.45749 13.2145749,118.218623 L13.7327935,201.975709 L13.7327935,201.975709 Z" id="Shape" fill="#244A57"></path>
                    <path d="M305.748988,115.044534 C305.748988,115.044534 321.94332,150.024291 306.331984,205.08502 L305.748988,115.044534 L305.748988,115.044534 Z" id="Shape" fill="#244A57"></path>
                </g>
            </g>
        </g>
    </g>
</svg>