<?xml version="1.0" encoding="UTF-8" standalone="no"?><svg width="400" height="400" viewBox="0 0 400 400" xmlns="http://www.w3.org/2000/svg"><title>team</title><g fill="none" fill-rule="evenodd"><path d="M355.306 243.847c-13.756-19.298-34.698-33.182-58.843-37.652v1.265c0 4.638-1.914 8.854-4.955 11.918-3.07 3.036-7.293 4.947-11.94 4.947-9.29 0-16.892-7.589-16.892-16.863v-1.266c-35.476 6.578-64.055 33.447-73.065 67.991 18.3 35.099 2.875 75.619 43.538 81.79 73.37-15.446 101.354-50.371 122.157-112.13z" fill="#BE5ADB"/><path d="M136.057 337.436c-30.498-22.63-51.982-56.752-58.035-95.935 15.692-17.342 36.881-29.623 60.766-34.057v1.477c0 10.839 8.882 19.705 19.74 19.705 5.427 0 10.363-2.232 13.948-5.78 3.554-3.579 5.79-8.506 5.79-13.925l5.232 32.924c18.201 3.375 43.905-23.533 43.905-23.533s10.688 15.906 15.028 27.356c4.19 10.914 7.35 31.749 7.35 48.173 0 12.294-5.138 5.73-5.138 15.879v42.137l-27.549 2.432-6.043.2c-11.976-1.05-21.505.409-32.493-3.368-14.674-4.96-30.295-4.62-42.501-13.685z" fill="#AD4BD0"/><path d="M313.356 117.516c5.04 0 9.798-1.096 14.078-3.036v36.765c0 13.153-5.378 25.072-14.05 33.757a48.572 48.572 0 0 1-17.006 10.99 47.662 47.662 0 0 1-16.81 3.035 47.67 47.67 0 0 1-16.81-3.035c-18.103-6.859-31.055-24.368-31.055-44.747v-33.73h81.653z" fill="#F4CEAE"/><path d="M235.24 117.516v14.054l74.789 5.62c0 20.378-12.952 37.89-31.056 44.748a47.662 47.662 0 0 1-16.81 3.035 47.677 47.677 0 0 1-16.81-3.035 48.839 48.839 0 0 1-4.414-1.954c1.333 1.758 2.744 3.458 4.301 5.018a48.572 48.572 0 0 0 17.006 10.99 47.662 47.662 0 0 0 16.81 3.035 47.67 47.67 0 0 0 16.81-3.035c18.104-6.859 31.056-24.368 31.056-44.747v-33.73H235.24z" fill="#EEB490"/><path d="M226.074 89.41l5.63 2.333v18.973l-.765 6.41h81.326c5.04 0 10.889-.706 15.17-2.646v-.028c7.715-3.514 13.908-9.894 17.147-17.764 1.662-3.964 2.561-8.32 2.561-12.901 0-18.634-15.12-33.727-33.787-33.727l-2.816 16.863-67.573 5.621c-9.32 0-16.893 7.561-16.893 16.866z" fill="#FBB735"/><path d="M242.967 72.544l9.978-.83c-5.875 3.448-9.978 7.323-9.978 14.166l5.63 5.863v25.774h-16.892V91.743l-5.631-2.333c0-9.305 7.574-16.866 16.893-16.866z" fill="#FFD366"/><path d="M299.28 114.452c7.715-3.514 13.908-9.894 17.147-17.764 1.662-3.962 2.562-8.32 2.562-12.901a33.553 33.553 0 0 0-7.686-21.42l2.053-12.307c18.668 0 33.787 15.093 33.787 33.728 0 4.582-.901 8.938-2.561 12.902-3.237 7.87-9.432 14.25-17.148 17.764v.028c-4.28 1.938-8.36 2.644-13.4 2.644l-28.833.39c5.04 0 9.798-1.096 14.079-3.036v-.028z" fill="#F93"/><path d="M262.676 206.195v1.265c0 9.275 7.602 16.864 16.893 16.864 4.646 0 8.87-1.912 11.937-4.947 3.04-3.064 4.955-7.28 4.955-11.917V196.215l-.084-.223a47.662 47.662 0 0 1-16.81 3.035 47.67 47.67 0 0 1-16.81-3.035l-.085.224v9.979h.004z" fill="#F4CCAD"/><path d="M278.674 204.156a52.77 52.77 0 0 1-18.63-3.367c-20.587-7.8-34.409-27.722-34.409-49.58V91.866a5.299 5.299 0 0 1 5.304-5.294c2.93 0 5.304 2.37 5.304 5.294v59.341c0 17.489 11.073 33.433 27.55 39.675 9.468 3.558 20.28 3.564 29.776-.005a43.393 43.393 0 0 0 15.077-9.747c8.032-8.045 12.459-18.673 12.459-29.923v-36.663a5.299 5.299 0 0 1 5.304-5.295c2.93 0 5.304 2.37 5.304 5.295v36.663c0 14.072-5.527 27.356-15.56 37.404-5.297 5.288-11.805 9.493-18.825 12.169a52.8 52.8 0 0 1-18.654 3.376z" fill="#234957"/><path d="M279.74 181.835c-7.215 0-14.014-2.46-19.142-6.927a5.288 5.288 0 0 1-.509-7.469 5.309 5.309 0 0 1 7.484-.508c3.149 2.743 7.583 4.315 12.167 4.315 4.508 0 8.74-1.46 11.914-4.109a5.31 5.31 0 0 1 7.472.668 5.289 5.289 0 0 1-.669 7.458c-5.08 4.238-11.726 6.572-18.717 6.572zM282.387 159.35h-2.817a5.299 5.299 0 0 1-5.303-5.294 5.299 5.299 0 0 1 5.303-5.295h2.817c2.93 0 5.304 2.37 5.304 5.295a5.299 5.299 0 0 1-5.304 5.295zM299.278 148.107c-4.477 0-8.119-3.636-8.119-8.105s3.642-8.106 8.119-8.106c4.476 0 8.12 3.637 8.12 8.106 0 4.469-3.642 8.105-8.12 8.105zM259.86 148.107c-4.477 0-8.119-3.636-8.119-8.105s3.642-8.106 8.118-8.106c4.477 0 8.12 3.637 8.12 8.106 0 4.469-3.641 8.105-8.12 8.105zM313.356 122.81a5.299 5.299 0 0 1-5.304-5.294 5.299 5.299 0 0 1 5.304-5.295c3.978 0 7.83-.798 11.456-2.372a5.85 5.85 0 0 1 .42-.215c6.48-2.951 11.746-8.405 14.442-14.96 1.44-3.438 2.166-7.091 2.166-10.887 0-15.68-12.78-28.434-28.484-28.434a5.299 5.299 0 0 1-5.304-5.295 5.299 5.299 0 0 1 5.304-5.295c21.555 0 39.091 17.506 39.091 39.024 0 5.208-.999 10.236-2.973 14.943-3.683 8.95-10.546 16.154-19.345 20.309-.163.095-.331.183-.502.261a39.144 39.144 0 0 1-16.271 3.51z" fill="#234957"/><path d="M242.963 77.839a5.299 5.299 0 0 1-5.279-4.855 5.297 5.297 0 0 1 4.844-5.717l67.573-5.62a5.28 5.28 0 0 1 5.725 4.837 5.297 5.297 0 0 1-4.844 5.716l-67.573 5.621c-.15.013-.3.018-.446.018z" fill="#234957"/><path d="M226.074 94.704a5.299 5.299 0 0 1-5.304-5.294c0-12.219 9.959-22.16 22.198-22.16 2.93 0 5.304 2.37 5.304 5.294a5.299 5.299 0 0 1-5.304 5.295c-6.39 0-11.59 5.19-11.59 11.57a5.299 5.299 0 0 1-5.304 5.295zM312.265 122.42H230.94a5.299 5.299 0 0 1-5.304-5.294 5.299 5.299 0 0 1 5.304-5.295h81.326c2.93 0 5.304 2.37 5.304 5.295a5.299 5.299 0 0 1-5.304 5.294z" fill="#234957"/><path d="M231.705 97.04c-.68 0-1.365-.131-2.03-.407l-5.633-2.333a5.291 5.291 0 0 1-2.865-6.92c1.122-2.7 4.229-3.978 6.93-2.86l5.633 2.332a5.291 5.291 0 0 1 2.866 6.92 5.307 5.307 0 0 1-4.901 3.267zM279.57 229.618c-12.24 0-22.198-9.94-22.198-22.16v-11.242a5.299 5.299 0 0 1 5.304-5.295c2.93 0 5.304 2.37 5.304 5.295v11.242c0 6.38 5.197 11.57 11.59 11.57 3.066 0 5.98-1.212 8.204-3.412 2.173-2.189 3.387-5.097 3.387-8.158v-11.242a5.299 5.299 0 0 1 5.304-5.295c2.93 0 5.304 2.37 5.304 5.295v11.242c0 5.872-2.307 11.428-6.494 15.644-4.259 4.215-9.823 6.516-15.705 6.516z" fill="#234957"/><path d="M189.505 279.958a5.296 5.296 0 0 1-5.237-6.177c.041-.243.096-.471.156-.697.016-.078.036-.155.055-.231 9.58-36.733 39.896-64.941 77.228-71.863a5.295 5.295 0 1 1 1.938 10.413c-33.26 6.166-60.279 31.274-68.866 63.986-.028.129-.06.252-.092.376a5.304 5.304 0 0 1-5.182 4.193z" fill="#234957"/><path d="M281.747 254.364l-20.194 19.528c-3.566 3.449-1.12 9.476 3.844 9.476h.037c3.523 0 6.145 3.248 5.4 6.684l-2.506 11.53c-1.202 5.536 5.739 9.068 9.519 4.843l20.016-22.372c3.225-3.604.575-9.273-4.266-9.185-3.528.064-5.569-2.868-5.569-3.579 0-.801.913-4.439 2.88-11.475 1.515-5.42-5.114-9.365-9.161-5.45z" fill="#FFD766"/><path d="M313.812 316.78l-1.16-1.766c21.516-21.178 19.22-87.36-.387-104.402 35.094 13.277 40.442 28.291 43.807 36.454.001 0-13.31 50.961-42.26 69.713z" fill="#AD4BD0"/><path d="M202.08 115.444c3.028 40.167 43.395 39.149 43.395 39.149-12.6 50.972-55.897 36.028-66.919 28.178a53.484 53.484 0 0 0 7.108-5.978c10.134-10.148 16.417-24.073 16.417-39.443v-21.906z" fill="#FBB735"/><path d="M237.748 153.915c-12.217 19.343-31.885 19.306-45.74 15.26-1.9 2.715-4.005 5.278-6.344 7.62a53.484 53.484 0 0 1-7.108 5.978c11.022 7.85 54.317 22.793 66.92-28.179 0-.001-3.139.076-7.728-.68z" fill="#F93"/><path d="M123.68 329.785c-30.496-22.63-51.98-56.752-58.034-95.935 15.692-17.341 36.881-29.623 60.766-34.057v1.478c0 10.838 8.883 19.705 19.74 19.705 5.427 0 10.363-2.233 13.949-5.78 3.553-3.58 5.79-8.507 5.79-13.925v-1.478c33.294 6.174 53.132 21.906 62.707 47.162 4.968 12.94 7.205 28.376 7.205 46.275v1.642s-.921 1.05-3.883 2.396c-4.605 2.136-14.212 5.059-33.13 6.077v54.749l-.033.23c-11.976-1.05-23.556-3.515-34.544-7.292a146.864 146.864 0 0 1-40.532-21.247z" fill="#EA5F6E"/><path d="M228.598 246.955c-6.861-18.1-19.03-31.281-37.61-39.585 4.707 5.801 8.46 12.413 11.29 19.878 4.969 12.94 7.205 28.376 7.205 46.276v1.64s-.92 1.053-3.882 2.398c-4.606 2.135-14.213 5.058-33.13 6.076v67.887l-.033.23a150.022 150.022 0 0 1-9.37-1.136c.383.135.76.283 1.145.413 10.988 3.777 22.57 6.241 34.544 7.291l.034-.23v-54.748c18.917-1.018 28.524-3.941 33.13-6.077 2.96-1.346 3.882-2.396 3.882-2.396v-1.642c0-17.9-2.237-33.335-7.205-46.275z" fill="#D34A5E"/><path d="M126.412 200.111v-.318c-2.165.403-4.282.941-6.4 1.469a19.564 19.564 0 0 0 6.4-1.151z" fill="#FF6C81"/><path d="M231.92 356.124l.198 1.412c-6.58.92-13.325 1.38-20.167 1.38-4.44 0-8.85-.197-13.192-.591l.033-.23v-54.748c18.918-1.019 28.525-3.941 33.13-6.077v58.854h-.002z" fill="#F4CCAD"/><path d="M231.92 297.27c-4.605 2.136-14.212 5.058-33.13 6.077v26.274c18.918-1.019 28.525-3.941 33.13-6.077V297.27z" fill="#EEB490"/><path d="M178.558 182.77a55.546 55.546 0 0 1-12.764 6.865 55.692 55.692 0 0 1-19.642 3.547 55.7 55.7 0 0 1-19.642-3.547c-4.606-1.774-8.916-4.074-12.864-6.93-14.147-10.148-23.425-26.734-23.425-45.355v-32.843c0-3.22.263-6.372.822-9.427 13.719 4.007 48.396.394 48.396.394v12.875c30.431 2.464 60.633-18.622 60.633-18.622a54.735 54.735 0 0 1 2.007 14.78V137.35c0 15.37-6.283 29.295-16.417 39.443a53.097 53.097 0 0 1-7.104 5.978z" fill="#F4CCAD"/><path d="M200.074 89.727s-30.202 21.086-60.634 18.622V95.474s-34.676 3.613-48.396-.394c-.558 3.055-.822 6.207-.822 9.427v16.418c0-3.219.264-6.37.822-9.426 13.72 4.006 48.396.394 48.396.394v12.875c30.432 2.463 60.634-18.622 60.634-18.622a54.735 54.735 0 0 1 2.007 14.78v-15.338 2.201-3.282c0-5.124-.691-10.083-2.007-14.78z" fill="#EDB795"/><path d="M187.605 67.1c5.79 6.404 10.134 14.122 12.47 22.63 0 0-30.203 21.084-60.635 18.62V95.477s-34.676 3.612-48.396-.394c1.975-11.594 7.567-22.005 15.596-30.019 10.165-10.116 24.114-16.389 39.512-16.389 16.383 0 31.188 7.127 41.421 18.426h.032z" fill="#FBB735"/><path d="M187.605 67.1h-.034c-10.23-11.297-25.036-18.426-41.421-18.426-4.535 0-8.92.604-13.143 1.63a56.017 56.017 0 0 1 28.245 16.794h.033c5.79 6.405 10.134 14.123 12.47 22.63 0 0-14.91 10.372-34.315 15.712v2.909c30.432 2.464 60.634-18.622 60.634-18.622-2.335-8.505-6.68-16.223-12.47-22.627z" fill="#F93"/><path d="M165.89 199.793v1.478c0 5.418-2.236 10.345-5.79 13.925-3.585 3.547-8.52 5.78-13.948 5.78-10.857 0-19.74-8.867-19.74-19.705v-13.137l.1-.263a55.692 55.692 0 0 0 19.641 3.548 55.7 55.7 0 0 0 19.642-3.548l.1.263v11.66h-.004z" fill="#F4CCAD"/><path d="M165.792 187.871a55.69 55.69 0 0 1-19.64 3.548 55.69 55.69 0 0 1-19.64-3.548l-.1.263v13.137c0 1.048.108 2.07.267 3.076a55.71 55.71 0 0 0 19.473 3.492 55.71 55.71 0 0 0 19.472-3.49c.16-1.006.269-2.028.269-3.077V188.134l-.101-.263z" fill="#EDB795"/><path d="M90.222 137.35c0 18.62 9.279 35.207 23.426 45.356-7.337 5.254-29.675 13.99-47.277 3.152-8.39-5.156-15.66-14.746-19.741-31.265 0 0 43.592 1.083 43.592-44.075v26.832z" fill="#FBB735"/><path d="M102.218 171.77c-10.113 3.389-24.037 4.938-35.847-2.333-5.19-3.19-9.947-8.09-13.79-15.266-3.594.471-5.95.42-5.95.42 4.08 16.52 11.35 26.11 19.74 31.267 17.602 10.838 39.94 2.102 47.277-3.152a56.524 56.524 0 0 1-11.43-10.936z" fill="#F93"/><path d="M85.558 196.297c-7.317 0-14.953-1.611-21.972-5.932-10.625-6.53-18.065-18.141-22.104-34.505a5.288 5.288 0 0 1 .993-4.557c1.02-1.285 2.573-2.005 4.217-2.005.122.03 16.553-.039 27.477-10.884 6.743-6.693 10.164-16.276 10.164-28.48a5.299 5.299 0 0 1 5.304-5.295c2.93 0 5.304 2.37 5.304 5.295 0 15.18-4.501 27.317-13.38 36.076-9.158 9.038-20.775 12.194-28.056 13.293 3.482 10.395 8.73 17.797 15.645 22.047 14.91 9.181 34.417 1.882 41.029-2.855a5.311 5.311 0 0 1 7.402 1.214 5.29 5.29 0 0 1-1.216 7.39c-5.622 4.027-17.699 9.198-30.807 9.198zM206.122 196.53c-12.754 0-24.643-4.82-30.644-9.093a5.29 5.29 0 0 1-1.237-7.386 5.307 5.307 0 0 1 7.399-1.235c5.36 3.817 21.885 10.418 36.086 5.167 9.52-3.519 16.503-11.749 20.815-24.505-16.141-2.123-38.85-12.865-41.177-43.72-.108-1.297-.074-2.7-.04-4.056.01-.56.024-1.114.024-1.636a5.299 5.299 0 0 1 5.304-5.295c2.93 0 5.304 2.37 5.304 5.295 0 .604-.016 1.243-.03 1.888-.027 1.079-.053 2.194.01 2.969 2.62 34.79 35.982 34.401 37.416 34.378a5.32 5.32 0 0 1 4.26 1.98 5.286 5.286 0 0 1 1.013 4.582c-4.922 19.903-14.751 32.706-29.219 38.053-5.019 1.853-10.22 2.614-15.284 2.614z" fill="#234957"/><path d="M146.152 198.584c-7.48 0-14.79-1.307-21.72-3.886-5.182-1.975-9.964-4.527-14.253-7.6-16.216-11.516-25.906-30.11-25.906-49.724v-32.89c0-3.604.31-7.104.921-10.403 2.138-12.435 8.11-23.822 17.259-32.862 11.746-11.574 27.265-17.945 43.699-17.945 17.22 0 33.764 7.213 45.475 19.807.13.116.258.242.377.372 6.502 7.122 11.276 15.703 13.804 24.817 1.47 5.2 2.222 10.665 2.222 16.214v32.89c0 16.276-6.453 31.64-18.173 43.26a59.477 59.477 0 0 1-7.9 6.58c-4.26 3.044-9.012 5.573-14.065 7.477a62.127 62.127 0 0 1-21.74 3.893zm0-144.721c-13.628 0-26.499 5.288-36.243 14.887-7.562 7.472-12.5 16.876-14.273 27.19-.506 2.732-.755 5.586-.755 8.544v32.89c0 16.195 8.025 31.562 21.466 41.108 3.566 2.554 7.539 4.672 11.83 6.308 11.403 4.241 24.507 4.257 35.992-.014a51.203 51.203 0 0 0 11.675-6.218 49.336 49.336 0 0 0 6.545-5.443c9.692-9.611 15.033-22.306 15.033-35.739v-32.892c0-4.575-.615-9.07-1.831-13.362-2.053-7.399-5.891-14.363-11.119-20.193a5.556 5.556 0 0 1-.34-.337c-9.723-10.633-23.566-16.73-37.98-16.73z" fill="#234957"/><path d="M146.35 172.204c-8.214 0-15.95-2.795-21.78-7.873a5.288 5.288 0 0 1-.51-7.47 5.31 5.31 0 0 1 7.483-.51c3.898 3.393 9.156 5.264 14.807 5.264 5.477 0 10.625-1.779 14.495-5.007a5.307 5.307 0 0 1 7.471.667 5.289 5.289 0 0 1-.668 7.459c-5.776 4.816-13.34 7.47-21.298 7.47zM149.442 145.929h-3.29a5.299 5.299 0 0 1-5.304-5.295 5.299 5.299 0 0 1 5.304-5.295h3.29c2.93 0 5.304 2.37 5.304 5.295a5.299 5.299 0 0 1-5.304 5.295zM146.152 226.27c-13.81 0-25.045-11.214-25.045-25v-11.634a5.299 5.299 0 0 1 5.304-5.294c2.93 0 5.303 2.37 5.303 5.294v11.635c0 7.945 6.476 14.41 14.438 14.41 3.82 0 7.448-1.507 10.217-4.246 2.708-2.73 4.22-6.352 4.22-10.164v-11.635a5.299 5.299 0 0 1 5.304-5.294c2.93 0 5.303 2.37 5.303 5.294v11.635c0 6.621-2.602 12.892-7.328 17.65-4.801 4.753-11.081 7.35-17.716 7.35zM197.267 359.333a5.299 5.299 0 0 1-5.304-5.295v-49.313a5.3 5.3 0 0 1 5.017-5.287c17.39-.938 27.957-4.77 32.708-6.972 1.729-.787 2.363-1.336 2.37-1.341-.184.16-.25.261-.25.261l7.987 6.968c-.502.575-2.063 2.09-5.675 3.733-5.987 2.774-16.173 6.214-31.551 7.57v44.38a5.297 5.297 0 0 1-5.302 5.296z" fill="#234957"/><path d="M235.803 300.166a5.299 5.299 0 0 1-5.304-5.294v-1.642c0-17.853-2.242-32.371-6.853-44.38-9.172-24.193-27.829-38.121-58.722-43.85a5.298 5.298 0 0 1-4.247-6.174c.536-2.875 3.308-4.769 6.184-4.24 34.423 6.384 56.24 22.902 66.698 50.495 5.076 13.219 7.55 28.976 7.55 48.15v1.64a5.302 5.302 0 0 1-5.306 5.295zM63.312 241.279a5.284 5.284 0 0 1-3.553-1.366 5.288 5.288 0 0 1-.38-7.478c17.423-19.253 42.12-33.402 66.063-37.846a5.304 5.304 0 0 1 6.184 4.237 5.295 5.295 0 0 1-4.245 6.174c-21.41 3.974-44.451 17.207-60.131 34.535a5.302 5.302 0 0 1-3.938 1.744z" fill="#234957"/><path d="M230.94 358.182a5.299 5.299 0 0 1-5.305-5.295v-55.176a5.299 5.299 0 0 1 5.304-5.294c2.93 0 5.304 2.37 5.304 5.294v55.176a5.299 5.299 0 0 1-5.304 5.295zM144.493 113.846a68.03 68.03 0 0 1-5.482-.218 5.298 5.298 0 0 1-4.876-5.277v-6.885c-10.695 1.17-32.8 2.868-44.738-1.35-2.129-.692-3.674-2.685-3.674-5.036a5.285 5.285 0 0 1 5.288-5.294 5.49 5.49 0 0 1 1.831.314c10.988 3.957 36.813 1.438 45.836.134a5.327 5.327 0 0 1 4.233 1.237 5.292 5.292 0 0 1 1.833 4.003v7.78c26.54-.113 52.02-17.678 52.291-17.867a5.31 5.31 0 0 1 7.385 1.305 5.29 5.29 0 0 1-1.305 7.373c-1.223.855-28.7 19.781-58.622 19.781zM114.267 134.993c-.79 0-1.593-.176-2.35-.55a5.29 5.29 0 0 1-2.4-7.095c2.578-5.2 7.792-8.431 13.603-8.431 5.68 0 10.836 3.119 13.456 8.136a5.287 5.287 0 0 1-2.254 7.14c-2.597 1.35-5.802.343-7.153-2.25a4.546 4.546 0 0 0-4.049-2.438c-1.75 0-3.32.972-4.096 2.54a5.3 5.3 0 0 1-4.757 2.948zM163.617 134.993a5.28 5.28 0 0 1-2.348-.55 5.291 5.291 0 0 1-2.4-7.095c2.577-5.201 7.79-8.431 13.604-8.431 5.682 0 10.837 3.119 13.456 8.138a5.29 5.29 0 0 1-2.256 7.14 5.308 5.308 0 0 1-7.153-2.251 4.54 4.54 0 0 0-4.047-2.438c-1.75 0-3.32.973-4.096 2.538a5.308 5.308 0 0 1-4.76 2.95zM353.531 246.718c-1.598 0-3.18-.72-4.225-2.088-13.317-17.47-32.428-29.27-53.81-33.23a5.296 5.296 0 0 1 1.934-10.413c23.977 4.44 45.4 17.66 60.318 37.228a5.288 5.288 0 0 1-1.01 7.42 5.26 5.26 0 0 1-3.207 1.083z" fill="#234957"/><path d="M209.03 359.799c-4.608 0-9.228-.207-13.727-.614-12.343-1.08-24.439-3.63-35.938-7.572-15.077-5.085-29.265-12.504-42.144-22.047-30.586-22.64-51.577-55.502-59.107-92.532a5.294 5.294 0 0 1 4.143-6.242 5.298 5.298 0 0 1 6.253 4.135c7.006 34.461 26.551 65.05 55.031 86.132 11.99 8.883 25.194 15.789 39.244 20.528 10.71 3.673 21.958 6.04 33.458 7.047 10.666.964 21.86.697 32.306-.759 57.91-7.855 106.056-51.136 119.828-107.697a5.3 5.3 0 0 1 6.408-3.895 5.294 5.294 0 0 1 3.9 6.395c-14.795 60.762-66.51 107.253-128.688 115.688-6.8.95-13.86 1.433-20.966 1.433zM310.547 72.22a5.32 5.32 0 0 1-.879-.075 5.295 5.295 0 0 1-4.36-6.092l2.817-16.864a5.3 5.3 0 0 1 6.103-4.352 5.295 5.295 0 0 1 4.36 6.093l-2.817 16.863a5.3 5.3 0 0 1-5.224 4.427z" fill="#234957"/></g></svg>