<?xml version="1.0" encoding="UTF-8" standalone="no"?>
<svg width="400px" height="400px" viewBox="0 0 400 400" version="1.1" xmlns="http://www.w3.org/2000/svg" xmlns:xlink="http://www.w3.org/1999/xlink">
    <!-- Generator: Sketch 3.8.3 (29802) - http://www.bohemiancoding.com/sketch -->
    <title>team</title>
    <desc>Created with Sketch.</desc>
    <defs></defs>
    <g id="Page-1" stroke="none" stroke-width="1" fill="none" fill-rule="evenodd">
        <g id="team">
            <g transform="translate(40.000000, 43.000000)" id="Layer_2">
                <g>
                    <g id="Group">
                        <path d="M315.306077,200.846853 C301.549613,181.549488 280.608177,167.665056 256.463204,163.194576 L256.463204,164.460006 C256.463204,169.098151 254.548508,173.314486 251.507624,176.378345 C248.438453,179.413965 244.214807,181.325346 239.568619,181.325346 C230.278011,181.325346 222.675801,173.736296 222.675801,164.461771 L222.675801,163.196341 C187.2,169.774106 158.620994,196.642873 149.611492,231.187169 C167.911602,266.285643 152.486188,306.805874 193.149171,312.977713 C266.519337,297.531349 294.502541,262.605836 315.306077,200.846853 L315.306077,200.846853 Z" id="Shape" fill="#BE5ADB"></path>
                        <path d="M96.0565746,294.435723 C65.559337,271.806235 44.0751381,237.683749 38.0216575,198.501308 C53.7140331,181.159446 74.9029834,168.877539 98.7880663,164.444122 L98.7880663,165.92134 C98.7880663,176.759562 107.670276,185.626396 118.527293,185.626396 C123.954917,185.626396 128.89105,183.393804 132.476464,179.846364 C136.030055,176.267156 138.266519,171.339568 138.266519,165.92134 L143.497901,198.845462 C161.699006,202.219942 187.403315,175.312348 187.403315,175.312348 C187.403315,175.312348 198.090608,191.217585 202.430939,202.668225 C206.620994,213.582338 209.780331,234.416928 209.780331,250.841043 C209.780331,263.135304 204.642652,256.571659 204.642652,266.719807 L204.642652,308.856683 L177.094365,311.288709 L171.051492,311.489907 C159.075359,310.439794 149.546077,311.897597 138.558232,308.120721 C123.884199,303.161366 108.262541,303.500225 96.0565746,294.435723 L96.0565746,294.435723 Z" id="Shape" fill="#AD4BD0"></path>
                        <path d="M273.356022,74.5156457 C278.396464,74.5156457 283.154033,73.4196457 287.434254,71.4800258 L287.434254,108.24456 C287.434254,121.398325 282.056133,133.316663 273.384309,142.001713 C268.598453,146.779285 262.79779,150.545572 256.378343,152.991717 C251.141657,154.959575 245.482431,156.027337 239.568619,156.027337 C233.654807,156.027337 227.997348,154.959575 222.758895,152.991717 C204.655028,146.133333 191.702983,128.623807 191.702983,108.24456 L191.702983,74.5156457 L273.356022,74.5156457 L273.356022,74.5156457 Z" id="Shape" fill="#F4CEAE"></path>
                        <path d="M195.240663,74.5156457 L195.240663,88.5695072 L270.028729,94.1906989 C270.028729,114.56818 257.076685,132.079472 238.972818,138.937855 C233.736133,140.905713 228.076906,141.973475 222.163094,141.973475 C216.25105,141.973475 210.591823,140.905713 205.35337,138.937855 C203.843536,138.362499 202.374365,137.700663 200.938785,136.984116 C202.271823,138.741952 203.682652,140.441546 205.240221,142.001713 C210.026077,146.779285 215.82674,150.545572 222.246188,152.991717 C227.482873,154.959575 233.142099,156.027337 239.055912,156.027337 C244.969724,156.027337 250.627182,154.959575 255.865635,152.991717 C273.969503,146.133333 286.921547,128.623807 286.921547,108.24456 L286.921547,74.5156457 L195.240663,74.5156457 L195.240663,74.5156457 Z" id="Shape" fill="#EEB490"></path>
                        <path d="M186.073812,46.4096876 L191.704751,48.7428792 L191.704751,67.715504 L190.939227,74.1256039 L272.265193,74.1256039 C277.305635,74.1256039 283.154033,73.4196457 287.434254,71.4800258 L287.434254,71.4517874 C295.149613,67.9378808 301.342762,61.5577842 304.581657,53.6881159 C306.243536,49.724161 307.143425,45.3683994 307.143425,40.7867311 C307.143425,22.1529662 292.023867,7.05958132 273.356022,7.05958132 L270.539669,23.9231562 L202.96663,29.5443478 C193.647735,29.5443478 186.073812,37.1051594 186.073812,46.4096876 L186.073812,46.4096876 Z" id="Shape" fill="#FBB735"></path>
                        <path d="M202.96663,29.5443478 L212.944972,28.714847 C207.070055,32.1616876 202.96663,36.0373977 202.96663,42.8798969 L208.597569,48.7428792 L208.597569,67.715504 L208.597569,74.5174106 L191.704751,74.5174106 L191.704751,67.715504 L191.704751,48.7428792 L186.073812,46.4096876 C186.073812,37.1051594 193.647735,29.5443478 202.96663,29.5443478 L202.96663,29.5443478 Z" id="Shape" fill="#FFD366"></path>
                        <path d="M259.279558,71.4517874 C266.994917,67.9378808 273.188066,61.5577842 276.426961,53.6881159 C278.08884,49.7259259 278.988729,45.3683994 278.988729,40.7867311 C278.988729,32.6505636 276.105193,25.190351 271.303425,19.3661965 L273.356022,7.05958132 C292.023867,7.05958132 307.143425,22.1529662 307.143425,40.788496 C307.143425,45.3701643 306.241768,49.7259259 304.581657,53.6898808 C301.34453,61.5595491 295.149613,67.9396457 287.434254,71.4535523 L287.434254,71.4817907 C283.154033,73.4196457 279.073591,74.1256039 274.033149,74.1256039 L245.201326,74.5156457 C250.241768,74.5156457 254.999337,73.4196457 259.279558,71.4800258 L259.279558,71.4517874 L259.279558,71.4517874 Z" id="Shape" fill="#FF9933"></path>
                        <path d="M222.675801,163.194576 L222.675801,164.460006 C222.675801,173.734531 230.278011,181.323581 239.568619,181.323581 C244.214807,181.323581 248.438453,179.4122 251.505856,176.37658 C254.54674,173.312721 256.461436,169.096386 256.461436,164.460006 L256.461436,163.194576 L256.461436,153.215858 L256.376575,152.991717 C251.13989,154.959575 245.480663,156.027337 239.566851,156.027337 C233.653039,156.027337 227.99558,154.959575 222.757127,152.991717 L222.672265,153.215858 L222.672265,163.194576 L222.675801,163.194576 Z" id="Shape" fill="#F4CCAD"></path>
                        <path d="M238.674033,161.156122 C232.256354,161.156122 225.98895,160.02306 220.043315,157.788702 C199.457238,149.98963 185.635359,130.067491 185.635359,108.209262 L185.635359,48.8664219 C185.635359,45.9419903 188.009724,43.5717359 190.939227,43.5717359 C193.868729,43.5717359 196.243094,45.9419903 196.243094,48.8664219 L196.243094,108.207498 C196.243094,125.695845 207.315801,141.63991 223.793149,147.882345 C233.260552,151.440374 244.07337,151.445668 253.569061,147.87705 C259.18232,145.737997 264.403094,142.363517 268.646188,138.129533 C276.678011,130.08514 281.104972,119.45694 281.104972,108.207498 L281.104972,71.543562 C281.104972,68.6191304 283.479337,66.248876 286.40884,66.248876 C289.338343,66.248876 291.712707,68.6191304 291.712707,71.543562 L291.712707,108.207498 C291.712707,122.279008 286.186077,135.563375 276.152928,145.610924 C270.856133,150.898551 264.348287,155.104296 257.327735,157.779878 C251.359116,160.02306 245.091713,161.156122 238.674033,161.156122 L238.674033,161.156122 Z" id="Shape" fill="#234957"></path>
                        <path d="M239.74011,138.835491 C232.525083,138.835491 225.725525,136.375227 220.598453,131.908277 C218.392044,129.986306 218.163978,126.641829 220.089282,124.43924 C222.01989,122.233121 225.364862,122.008979 227.573039,123.93095 C230.721768,126.673597 235.155801,128.246119 239.74011,128.246119 C244.248398,128.246119 248.479116,126.786551 251.654365,124.137443 C253.903204,122.261359 257.249945,122.561391 259.125746,124.804573 C261.003315,127.047755 260.706298,130.386937 258.457459,132.263021 C253.376354,136.500535 246.730608,138.835491 239.74011,138.835491 L239.74011,138.835491 Z" id="Shape" fill="#234957"></path>
                        <path d="M242.38674,116.350725 L239.570387,116.350725 C236.640884,116.350725 234.266519,113.98047 234.266519,111.056039 C234.266519,108.131607 236.640884,105.761353 239.570387,105.761353 L242.38674,105.761353 C245.316243,105.761353 247.690608,108.131607 247.690608,111.056039 C247.690608,113.98047 245.316243,116.350725 242.38674,116.350725 L242.38674,116.350725 Z" id="Shape" fill="#234957"></path>
                        <path d="M259.27779,105.106576 C254.801326,105.106576 251.159337,101.470892 251.159337,97.0021771 C251.159337,92.5334622 254.801326,88.8960129 259.27779,88.8960129 C263.754254,88.8960129 267.398011,92.5334622 267.398011,97.0021771 C267.398011,101.470892 263.756022,105.106576 259.27779,105.106576 L259.27779,105.106576 Z" id="Shape" fill="#234957"></path>
                        <path d="M219.859448,105.106576 C215.382983,105.106576 211.740994,101.470892 211.740994,97.0021771 C211.740994,92.5334622 215.382983,88.8960129 219.859448,88.8960129 C224.335912,88.8960129 227.979669,92.5334622 227.979669,97.0021771 C227.979669,101.470892 224.33768,105.106576 219.859448,105.106576 L219.859448,105.106576 Z" id="Shape" fill="#234957"></path>
                        <path d="M273.356022,79.8103317 C270.426519,79.8103317 268.052155,77.4400773 268.052155,74.5156457 C268.052155,71.5912142 270.426519,69.2209597 273.356022,69.2209597 C277.333923,69.2209597 281.186298,68.4232271 284.812376,66.8489404 C284.948508,66.771285 285.088177,66.7006892 285.231381,66.6336232 C291.712707,63.6827182 296.97768,58.2291916 299.673812,51.6743704 C301.114696,48.2363543 301.839558,44.5830209 301.839558,40.7867311 C301.839558,25.107401 289.060773,12.3525024 273.356022,12.3525024 C270.426519,12.3525024 268.052155,9.98224799 268.052155,7.05781643 C268.052155,4.13338486 270.426519,1.76313043 273.356022,1.76313043 C294.910939,1.76313043 312.447293,19.2691272 312.447293,40.7867311 C312.447293,45.9949372 311.448398,51.023124 309.473591,55.7300998 C305.790939,64.6798841 298.927735,71.8841868 290.128619,76.0387504 C289.965967,76.1340548 289.798011,76.2222995 289.626519,76.2999549 C284.487072,78.6296167 279.013481,79.8103317 273.356022,79.8103317 L273.356022,79.8103317 Z" id="Shape" fill="#234957"></path>
                        <path d="M202.963094,34.8390338 C200.231602,34.8390338 197.913812,32.7476329 197.683978,29.9838068 C197.44,27.0699646 199.609282,24.5108663 202.528177,24.2673108 L270.101215,18.6461192 C273.05547,18.4043285 275.585414,20.5698551 275.825856,23.4836973 C276.069834,26.3975395 273.900552,28.9566377 270.981657,29.2001932 L203.408619,34.8213849 C203.258343,34.8337391 203.109834,34.8390338 202.963094,34.8390338 L202.963094,34.8390338 Z" id="Shape" fill="#234957"></path>
                        <path d="M186.073812,51.7043736 C183.144309,51.7043736 180.769945,49.3341192 180.769945,46.4096876 C180.769945,34.1913172 190.72884,24.2496618 202.968398,24.2496618 C205.897901,24.2496618 208.272265,26.6199163 208.272265,29.5443478 C208.272265,32.4687794 205.897901,34.8390338 202.968398,34.8390338 C196.577238,34.8390338 191.37768,40.029591 191.37768,46.4096876 C191.37768,49.3341192 189.003315,51.7043736 186.073812,51.7043736 L186.073812,51.7043736 Z" id="Shape" fill="#234957"></path>
                        <path d="M272.265193,79.4202899 L190.939227,79.4202899 C188.009724,79.4202899 185.635359,77.0500354 185.635359,74.1256039 C185.635359,71.2011723 188.009724,68.8309179 190.939227,68.8309179 L272.265193,68.8309179 C275.194696,68.8309179 277.569061,71.2011723 277.569061,74.1256039 C277.569061,77.0500354 275.194696,79.4202899 272.265193,79.4202899 L272.265193,79.4202899 Z" id="Shape" fill="#234957"></path>
                        <path d="M191.704751,54.0393301 C191.025856,54.0393301 190.33989,53.9087279 189.675138,53.6334042 L184.042431,51.3002126 C181.337459,50.179504 180.052155,47.0803478 181.176575,44.380058 C182.299227,41.6797681 185.405525,40.4019839 188.106961,41.5191626 L193.739669,43.8523543 C196.444641,44.9730628 197.729945,48.072219 196.605525,50.7725089 C195.758674,52.8091981 193.783867,54.0393301 191.704751,54.0393301 L191.704751,54.0393301 Z" id="Shape" fill="#234957"></path>
                        <path d="M239.570387,186.618267 C227.330829,186.618267 217.371934,176.678377 217.371934,164.458242 L217.371934,153.215858 C217.371934,150.291427 219.746298,147.921172 222.675801,147.921172 C225.605304,147.921172 227.979669,150.291427 227.979669,153.215858 L227.979669,164.458242 C227.979669,170.838338 233.177459,176.028895 239.570387,176.028895 C242.636022,176.028895 245.549613,174.816412 247.773702,172.615588 C249.946519,170.427118 251.161105,167.51857 251.161105,164.458242 L251.161105,153.215858 C251.161105,150.291427 253.53547,147.921172 256.464972,147.921172 C259.394475,147.921172 261.76884,150.291427 261.76884,153.215858 L261.76884,164.458242 C261.76884,170.330048 259.461657,175.885939 255.275138,180.102274 C251.016133,184.316844 245.452376,186.618267 239.570387,186.618267 L239.570387,186.618267 Z" id="Shape" fill="#234957"></path>
                        <path d="M149.505414,236.958377 C149.211934,236.958377 148.914917,236.933668 148.614365,236.884251 C145.725525,236.39714 143.780773,233.663317 144.268729,230.781243 C144.309392,230.537688 144.364199,230.310016 144.424309,230.08411 C144.440221,230.006454 144.459669,229.928799 144.479116,229.852908 C154.059669,193.120142 184.374807,164.91182 221.706961,157.9899 C224.594033,157.456902 227.35558,159.354164 227.889503,162.229179 C228.425193,165.104193 226.524641,167.868019 223.644641,168.402783 C190.384088,174.569327 163.366188,199.676728 154.779227,232.389063 C154.750939,232.5179 154.719116,232.641443 154.687293,232.764986 C154.163978,235.232309 151.973481,236.958377 149.505414,236.958377 L149.505414,236.958377 Z" id="Shape" fill="#234957"></path>
                        <path d="M241.74674,211.363865 L221.553149,230.892432 C217.987182,234.341037 220.432265,240.368155 225.396685,240.368155 L225.433812,240.368155 C228.957348,240.368155 231.579227,243.615562 230.833149,247.051813 L228.327956,258.581874 C227.125746,264.118351 234.06674,267.649907 237.84663,263.424747 L257.863425,241.052934 C261.088177,237.449018 258.438011,231.780174 253.597348,231.868419 C250.068508,231.931955 248.028287,229.000464 248.028287,228.289211 C248.028287,227.487948 248.940552,223.850499 250.908287,216.813862 C252.423425,211.393868 245.793591,207.449327 241.74674,211.363865 L241.74674,211.363865 Z" id="Shape" fill="#FFD766"></path>
                        <path d="M273.812155,273.779388 L272.652376,272.014493 C294.168398,250.835749 291.871823,184.653939 272.265193,167.61211 C307.359116,180.889417 312.707182,195.903382 316.071602,204.066023 C316.07337,204.066023 302.762431,255.027375 273.812155,273.779388 L273.812155,273.779388 Z" id="Shape" fill="#AD4BD0"></path>
                        <path d="M162.080884,72.4436586 C165.107624,112.610911 205.475359,111.592567 205.475359,111.592567 C192.875138,162.564509 149.577901,147.62114 138.556464,139.770886 C141.089945,137.997166 143.459006,135.99401 145.663646,133.793185 C155.797569,123.645037 162.080884,109.720013 162.080884,94.3495395 L162.080884,72.4436586 L162.080884,72.4436586 Z" id="Shape" fill="#FBB735"></path>
                        <path d="M197.747624,110.914847 C185.53105,130.2581 165.862541,130.221037 152.007072,126.174132 C150.108287,128.890306 148.002652,131.452934 145.663646,133.79495 C143.459006,135.995775 141.089945,137.998931 138.556464,139.772651 C149.577901,147.622905 192.87337,162.566274 205.475359,111.594332 C205.475359,111.592567 202.337238,111.670222 197.747624,110.914847 L197.747624,110.914847 Z" id="Shape" fill="#FF9933"></path>
                        <path d="M83.680884,286.784902 C53.1836464,264.155414 31.6994475,230.032928 25.6459669,190.850486 C41.3383425,173.508625 62.5272928,161.226718 86.4123757,156.793301 L86.4123757,158.270519 C86.4123757,169.108741 95.2945856,177.975575 106.151602,177.975575 C111.579227,177.975575 116.515359,175.742982 120.100773,172.195543 C123.654365,168.616335 125.890829,163.688747 125.890829,158.270519 L125.890829,156.793301 C159.184972,162.966905 179.023204,178.699182 188.598453,203.954834 C193.566409,216.895047 195.802873,232.330821 195.802873,250.23039 L195.802873,251.871742 C195.802873,251.871742 194.881768,252.921855 191.920442,254.26847 C187.314917,256.403994 177.707845,259.32666 158.790718,260.345005 L158.790718,315.093823 L158.757127,315.323259 C146.780994,314.273147 135.200884,311.809353 124.213039,308.032477 C109.540773,303.074886 95.8868508,295.849404 83.680884,286.784902 L83.680884,286.784902 Z" id="Shape" fill="#EA5F6E"></path>
                        <path d="M188.598453,203.954834 C181.737017,185.855833 169.568177,172.673829 150.988729,164.369997 C155.695028,170.171208 159.448398,176.782506 162.278895,184.248013 C167.246851,197.188225 169.483315,212.624 169.483315,230.523568 L169.483315,232.164921 C169.483315,232.164921 168.56221,233.216799 165.600884,234.561649 C160.995359,236.697172 151.388287,239.619839 132.47116,240.638184 L132.47116,308.524882 L132.437569,308.754319 C129.283536,308.47723 126.163094,308.088953 123.067403,307.619491 C123.45105,307.753623 123.827624,307.901874 124.213039,308.032477 C135.200884,311.809353 146.782762,314.273147 158.757127,315.323259 L158.790718,315.093823 L158.790718,260.345005 C177.707845,259.32666 187.314917,256.403994 191.920442,254.26847 C194.881768,252.921855 195.802873,251.871742 195.802873,251.871742 L195.802873,250.23039 C195.802873,232.330821 193.566409,216.895047 188.598453,203.954834 L188.598453,203.954834 Z" id="Shape" fill="#D34A5E"></path>
                        <path d="M86.4123757,157.110982 L86.4123757,156.793301 C84.2466298,157.195697 82.1303867,157.73399 80.0123757,158.261694 C82.2541436,158.240515 84.4022099,157.82753 86.4123757,157.110982 L86.4123757,157.110982 Z" id="Shape" fill="#FF6C81"></path>
                        <path d="M191.920442,313.1242 L192.118453,314.536116 C185.538122,315.455626 178.79337,315.916264 171.951381,315.916264 C167.510276,315.916264 163.100994,315.718596 158.758895,315.325024 L158.792486,315.095588 L158.792486,260.34677 C177.709613,259.328425 187.316685,256.405758 191.92221,254.270235 L191.92221,313.1242 L191.920442,313.1242 Z" id="Shape" fill="#F4CCAD"></path>
                        <path d="M191.920442,254.270235 C187.314917,256.405758 177.707845,259.328425 158.790718,260.34677 L158.790718,286.620767 C177.707845,285.602422 187.314917,282.679755 191.920442,280.544232 L191.920442,254.270235 L191.920442,254.270235 Z" id="Shape" fill="#EEB490"></path>
                        <path d="M138.558232,139.770886 C134.643978,142.594718 130.365525,144.894377 125.793591,146.634564 C119.674696,148.934222 113.060773,150.182003 106.151602,150.182003 C99.2424309,150.182003 92.6302762,148.934222 86.5096133,146.634564 C81.9040884,144.860844 77.5938122,142.561185 73.6459669,139.705585 C59.4987845,129.557436 50.2205525,112.97095 50.2205525,94.3495395 L50.2205525,67.5178357 L50.2205525,64.7910725 L50.2205525,64.2333655 L50.2205525,61.5066023 C50.2205525,58.2874332 50.4839779,55.1353301 51.0426519,52.0802963 C64.761989,56.0866087 99.438674,52.473868 99.438674,52.473868 L99.438674,65.3487794 C129.870497,67.8125733 160.072486,46.7273688 160.072486,46.7273688 C161.387845,51.4237552 162.079116,56.3831111 162.079116,61.5066023 L162.079116,64.7910725 L162.079116,72.4436586 L162.079116,94.3495395 C162.079116,109.720013 155.795801,123.645037 145.661878,133.793185 C143.460773,135.99401 141.091713,137.998931 138.558232,139.770886 L138.558232,139.770886 Z" id="Shape" fill="#F4CCAD"></path>
                        <path d="M160.074254,46.7273688 C160.074254,46.7273688 129.872265,67.8125733 99.440442,65.3487794 L99.440442,52.473868 C99.440442,52.473868 64.7637569,56.0866087 51.0444199,52.0802963 C50.4857459,55.1353301 50.2223204,58.2874332 50.2223204,61.5066023 L50.2223204,64.2316006 L50.2223204,64.7893076 L50.2223204,67.514306 L50.2223204,77.9254235 C50.2223204,74.7062544 50.4857459,71.5541514 51.0444199,68.4991176 C64.7637569,72.50543 99.440442,68.8926892 99.440442,68.8926892 L99.440442,81.7676006 C129.872265,84.2313945 160.074254,63.14619 160.074254,63.14619 C161.389613,67.8425765 162.080884,72.8019324 162.080884,77.9254235 L162.080884,62.5884831 L162.080884,64.7893076 L162.080884,61.5066023 C162.080884,56.3831111 161.389613,51.4237552 160.074254,46.7273688 L160.074254,46.7273688 Z" id="Shape" fill="#EDB795"></path>
                        <path d="M147.604862,24.0996457 C153.394917,30.5044509 157.738785,38.2223382 160.074254,46.7291337 C160.074254,46.7291337 129.872265,67.8143382 99.440442,65.3505443 L99.440442,52.4756329 C99.440442,52.4756329 64.7637569,56.0883736 51.0444199,52.0820612 C53.0192265,40.4884638 58.6112707,30.0773462 66.639558,22.0629565 C76.8053039,11.9465765 90.7544751,5.67413849 106.151602,5.67413849 C122.535249,5.67413849 137.34011,12.8007858 147.573039,24.0996457 L147.604862,24.0996457 L147.604862,24.0996457 Z" id="Shape" fill="#FBB735"></path>
                        <path d="M147.604862,24.0996457 L147.571271,24.0996457 C137.34011,12.8025507 122.535249,5.67413849 106.149834,5.67413849 C101.615028,5.67413849 97.2304972,6.27773269 93.0068508,7.30313688 C104.051271,9.99460225 113.854586,15.9317101 121.251713,24.0978808 L121.285304,24.0978808 C127.075359,30.502686 131.419227,38.2205733 133.754696,46.7273688 C133.754696,46.7273688 118.845525,57.0996586 99.440442,62.4402319 L99.440442,65.3487794 C129.872265,67.8125733 160.074254,46.7273688 160.074254,46.7273688 C157.738785,38.2223382 153.394917,30.5044509 147.604862,24.0996457 L147.604862,24.0996457 Z" id="Shape" fill="#FF9933"></path>
                        <path d="M125.890829,156.793301 L125.890829,158.270519 C125.890829,163.688747 123.654365,168.616335 120.100773,172.195543 C116.515359,175.742982 111.579227,177.975575 106.151602,177.975575 C95.2945856,177.975575 86.4123757,169.108741 86.4123757,158.270519 L86.4123757,156.793301 L86.4123757,145.134403 L86.5113812,144.871433 C92.6302762,147.171092 99.2441989,148.418873 106.15337,148.418873 C113.062541,148.418873 119.674696,147.171092 125.795359,144.871433 L125.894365,145.134403 L125.894365,156.793301 L125.890829,156.793301 Z" id="Shape" fill="#F4CCAD"></path>
                        <path d="M125.791823,144.871433 C119.672928,147.171092 113.059006,148.418873 106.151602,148.418873 C99.2441989,148.418873 92.6302762,147.171092 86.5113812,144.871433 L86.4123757,145.134403 L86.4123757,156.793301 L86.4123757,158.270519 C86.4123757,159.318866 86.520221,160.340741 86.679337,161.346731 C92.7522652,163.605797 99.3060773,164.839459 106.151602,164.839459 C112.997127,164.839459 119.550939,163.607562 125.623867,161.348496 C125.784751,160.342506 125.892597,159.320631 125.892597,158.272283 L125.892597,156.793301 L125.892597,145.134403 L125.791823,144.871433 L125.791823,144.871433 Z" id="Shape" fill="#EDB795"></path>
                        <path d="M50.2223204,94.3495395 C50.2223204,112.97095 59.5005525,129.557436 73.6477348,139.705585 C66.3107182,144.959678 43.9725967,153.69591 26.3708287,142.857688 C17.9801105,137.702428 10.7102762,128.111987 6.62983425,111.592567 C6.62983425,111.592567 50.2223204,112.676213 50.2223204,67.5178357 L50.2223204,94.3495395 L50.2223204,94.3495395 Z" id="Shape" fill="#FBB735"></path>
                        <path d="M62.2179006,128.770293 C52.1051934,132.158892 38.1807735,133.70847 26.3708287,126.437101 C21.1801105,123.247936 16.4243094,118.346821 12.5807735,111.170757 C8.98651934,111.641984 6.63160221,111.590802 6.63160221,111.590802 C10.7102762,128.110222 17.9818785,137.700663 26.3708287,142.857688 C43.9725967,153.69591 66.3107182,144.959678 73.6477348,139.705585 C69.3427624,136.618783 65.4956906,132.926622 62.2179006,128.770293 L62.2179006,128.770293 Z" id="Shape" fill="#FF9933"></path>
                        <path d="M45.558453,153.297043 C38.240884,153.297043 30.6050829,151.685694 23.5862983,147.36523 C12.960884,140.835118 5.52132597,129.223871 1.48154696,112.859762 C1.08906077,111.269591 1.45502762,109.587646 2.47513812,108.302802 C3.49524862,107.017958 5.04751381,106.297881 6.69171271,106.297881 C6.81370166,106.327884 23.2450829,106.259053 34.1692818,95.4137713 C40.9122652,88.7212882 44.3332597,79.1379066 44.3332597,66.9336554 C44.3332597,64.0092238 46.7076243,61.6389694 49.6371271,61.6389694 C52.5666298,61.6389694 54.9409945,64.0092238 54.9409945,66.9336554 C54.9409945,82.1135201 50.439779,94.2507053 41.561105,103.009881 C32.4030939,112.04791 20.7858564,115.203543 13.5054144,116.303072 C16.9865193,126.698306 22.2355801,134.100277 29.1500552,138.350145 C44.0592265,147.53113 63.5668508,140.231523 70.1790055,135.494544 C72.558674,133.789655 75.8735912,134.333243 77.5814365,136.708792 C79.2892818,139.084341 78.7447514,142.39352 76.3650829,144.098409 C70.7429834,148.1259 58.6660773,153.297043 45.558453,153.297043 L45.558453,153.297043 Z" id="Shape" fill="#234957"></path>
                        <path d="M166.122431,153.53001 C153.368398,153.53001 141.478895,148.710081 135.478453,144.437269 C133.093481,142.73944 132.54011,139.432026 134.240884,137.051182 C135.941657,134.668573 139.253039,134.116161 141.639779,135.815755 C147.000221,139.633224 163.525304,146.233932 177.725525,140.983369 C187.245967,137.464167 194.229392,129.234461 198.541436,116.477797 C182.4,114.354628 159.690608,103.613475 157.363978,72.75781 C157.256133,71.4606119 157.289724,70.0575201 157.323315,68.7020805 C157.333923,68.1426087 157.348066,67.5884316 157.348066,67.0660225 C157.348066,64.141591 159.722431,61.7713366 162.651934,61.7713366 C165.581436,61.7713366 167.955801,64.141591 167.955801,67.0660225 C167.955801,67.6696167 167.93989,68.3085089 167.925746,68.9544605 C167.899227,70.0328116 167.872707,71.1482254 167.936354,71.9230145 C170.556464,106.712631 203.91779,106.324354 205.351602,106.301411 C206.974586,106.253758 208.578122,106.995014 209.612376,108.281623 C210.64663,109.568232 211.021436,111.262531 210.625414,112.863291 C205.703425,132.766016 195.873591,145.568567 181.406409,150.9162 C176.387182,152.76934 171.185856,153.53001 166.122431,153.53001 L166.122431,153.53001 Z" id="Shape" fill="#234957"></path>
                        <path d="M106.151602,155.584348 C98.6713812,155.584348 91.3626519,154.27656 84.4322652,151.698048 C79.2503867,149.72313 74.4680663,147.171092 70.1790055,144.098409 C53.9633149,132.582467 44.2731492,113.98753 44.2731492,94.374248 L44.2731492,61.4836586 C44.2731492,57.8797424 44.5825414,54.3799549 45.1942541,51.0813655 C47.3317127,38.645913 53.3038674,27.2588084 62.4530387,18.2190145 C74.199337,6.64483092 89.718453,0.273558776 106.151602,0.273558776 C123.371492,0.273558776 139.916022,7.48668599 151.626961,20.0809791 C151.75779,20.1974622 151.885083,20.3227697 152.003536,20.453372 C158.506077,27.5747246 163.279558,36.1556457 165.807735,45.2695652 C167.278674,50.4707118 168.030055,55.9348277 168.030055,61.4836586 L168.030055,94.374248 C168.030055,110.650113 161.577017,126.013527 149.857238,137.633597 C147.375028,140.086802 144.719558,142.298216 141.956243,144.213127 C137.697238,147.257572 132.944972,149.786667 127.892155,151.690989 C120.940552,154.27656 113.631823,155.584348 106.151602,155.584348 L106.151602,155.584348 Z M106.151602,10.8629308 C92.5241989,10.8629308 79.6534807,16.1505572 69.9085083,25.7498229 C62.3469613,33.2223897 57.4090608,42.625752 55.6358011,52.9398003 C55.1301657,55.6718583 54.880884,58.525694 54.880884,61.4836586 L54.880884,94.374248 C54.880884,110.568928 62.9056354,125.935871 76.3474033,135.48219 C79.9133702,138.035994 83.8859669,140.153868 88.1767956,141.789926 C99.5801105,146.030969 112.684199,146.046853 124.16884,141.775807 C128.33768,140.203285 132.273149,138.108354 135.84442,135.558081 C138.167514,133.946731 140.347403,132.130654 142.389392,130.115143 C152.081326,120.503523 157.42232,107.808631 157.42232,94.3760129 L157.42232,61.4836586 C157.42232,56.9090499 156.807072,52.4138615 155.590718,48.1216361 C153.538122,40.7231948 149.69989,33.7589179 144.472044,27.9294686 C144.353591,27.82181 144.240442,27.7088567 144.132597,27.5923736 C134.40884,16.9588792 120.565746,10.8629308 106.151602,10.8629308 L106.151602,10.8629308 Z" id="Shape" fill="#234957"></path>
                        <path d="M106.349613,129.204457 C98.1356906,129.204457 90.400884,126.408863 84.5701657,121.331259 C82.361989,119.409288 82.1339227,116.064812 84.0592265,113.860457 C85.9845304,111.657868 89.3330387,111.426667 91.5429834,113.350403 C95.441326,116.744296 100.699227,118.615085 106.349613,118.615085 C111.82674,118.615085 116.975028,116.836071 120.845083,113.608077 C123.090387,111.731994 126.437127,112.028496 128.316464,114.275208 C130.194033,116.51839 129.897017,119.857572 127.648177,121.733655 C121.872265,126.550055 114.30895,129.204457 106.349613,129.204457 L106.349613,129.204457 Z" id="Shape" fill="#234957"></path>
                        <path d="M109.441768,102.928696 L106.151602,102.928696 C103.222099,102.928696 100.847735,100.558441 100.847735,97.6340097 C100.847735,94.7095781 103.222099,92.3393237 106.151602,92.3393237 L109.441768,92.3393237 C112.371271,92.3393237 114.745635,94.7095781 114.745635,97.6340097 C114.745635,100.558441 112.371271,102.928696 109.441768,102.928696 L109.441768,102.928696 Z" id="Shape" fill="#234957"></path>
                        <path d="M106.151602,183.270261 C92.3420994,183.270261 81.1067403,172.056116 81.1067403,158.270519 L81.1067403,146.636329 C81.1067403,143.711897 83.481105,141.341643 86.4106077,141.341643 C89.3401105,141.341643 91.7144751,143.711897 91.7144751,146.636329 L91.7144751,158.270519 C91.7144751,166.216077 98.1904972,172.680889 106.151602,172.680889 C109.972155,172.680889 113.6,171.173668 116.368619,168.434551 C119.077127,165.704258 120.588729,162.082692 120.588729,158.270519 L120.588729,146.636329 C120.588729,143.711897 122.963094,141.341643 125.892597,141.341643 C128.822099,141.341643 131.196464,143.711897 131.196464,146.636329 L131.196464,158.270519 C131.196464,164.892406 128.594033,171.163079 123.868287,175.921237 C119.066519,180.6741 112.78674,183.270261 106.151602,183.270261 L106.151602,183.270261 Z" id="Shape" fill="#234957"></path>
                        <path d="M157.26674,316.332779 C154.337238,316.332779 151.962873,313.962525 151.962873,311.038093 L151.962873,261.725153 C151.962873,258.91191 154.167514,256.589308 156.980331,256.437527 C174.369945,255.500367 184.937017,251.668779 189.687514,249.46619 C191.416575,248.679047 192.051271,248.130164 192.058343,248.12487 C191.874475,248.285475 191.807293,248.386074 191.807293,248.386074 L199.794917,255.353881 C199.292818,255.929237 197.731713,257.443517 194.119779,259.086634 C188.133481,261.86105 177.946519,265.300831 162.56884,266.656271 L162.56884,311.036329 C162.570608,313.962525 160.196243,316.332779 157.26674,316.332779 L157.26674,316.332779 Z" id="Shape" fill="#234957"></path>
                        <path d="M195.802873,257.166428 C192.87337,257.166428 190.499006,254.796174 190.499006,251.871742 L190.499006,250.23039 C190.499006,232.376709 188.257238,217.85868 183.646409,205.850332 C174.474254,181.657147 155.817017,167.728593 124.923757,161.999742 C122.043757,161.464979 120.143204,158.701153 120.677127,155.826138 C121.212818,152.951124 123.984972,151.057391 126.861436,151.58686 C161.283536,157.970486 183.10011,174.488142 193.559337,202.080515 C198.635138,215.299581 201.108508,231.056567 201.108508,250.23039 L201.108508,251.871742 C201.10674,254.796174 198.732376,257.166428 195.802873,257.166428 L195.802873,257.166428 Z" id="Shape" fill="#234957"></path>
                        <path d="M23.3122652,198.278931 C22.0446409,198.278931 20.7734807,197.828882 19.758674,196.912902 C17.5858564,194.952103 17.4143646,191.604097 19.3785635,189.43504 C36.801768,170.181797 61.4983425,156.032631 85.441768,151.588625 C88.3146961,151.052097 91.0903867,152.949359 91.6260773,155.826138 C92.161768,158.701153 90.2612155,161.464979 87.3812155,161.999742 C65.9712707,165.974287 42.9295028,179.207472 27.2495028,196.535214 C26.2028729,197.689456 24.760221,198.278931 23.3122652,198.278931 L23.3122652,198.278931 Z" id="Shape" fill="#234957"></path>
                        <path d="M190.939227,315.182068 C188.009724,315.182068 185.635359,312.811813 185.635359,309.887382 L185.635359,254.711459 C185.635359,251.787027 188.009724,249.416773 190.939227,249.416773 C193.868729,249.416773 196.243094,251.787027 196.243094,254.711459 L196.243094,309.887382 C196.243094,312.811813 193.868729,315.182068 190.939227,315.182068 L190.939227,315.182068 Z" id="Shape" fill="#234957"></path>
                        <path d="M104.49326,70.8464283 C102.672265,70.8464283 100.845967,70.7758325 99.0108287,70.6275813 C96.2563536,70.4052045 94.1348066,68.1090757 94.1348066,65.3505443 L94.1348066,58.4656876 C83.440442,59.6358132 61.3356906,61.3336425 49.3966851,57.1155427 C47.2680663,56.4237037 45.7228729,54.4311369 45.7228729,52.0802963 C45.7228729,49.1558647 48.081326,46.7856103 51.0108287,46.7856103 C51.6243094,46.7856103 52.2643094,46.891504 52.8424309,47.0997617 C63.8302762,51.056657 89.6548066,48.5381514 98.678453,47.2338937 C100.204199,47.0168116 101.747624,47.4668599 102.910939,48.4710853 C104.074254,49.4770757 104.744309,50.9366441 104.744309,52.473868 L104.744309,60.2535266 C131.283094,60.1405733 156.764641,42.5763349 157.035138,42.3874911 C159.434254,40.7143704 162.742099,41.2950209 164.41989,43.6917488 C166.099448,46.0884767 165.514254,49.3888309 163.115138,51.0654815 C161.891713,51.9196908 134.415912,70.8464283 104.49326,70.8464283 L104.49326,70.8464283 Z" id="Shape" fill="#234957"></path>
                        <path d="M74.2665193,91.9934042 C73.4762431,91.9934042 72.6735912,91.8169147 71.9169061,91.4427568 C69.2914917,90.1455588 68.2165746,86.9687472 69.5177901,84.3478776 C72.0954696,79.148496 77.3091713,75.9169726 83.120442,75.9169726 C88.800884,75.9169726 93.9562431,79.0355427 96.5763536,84.0531401 C97.9306077,86.6457713 96.921105,89.8437617 94.3222099,91.1939066 C91.7250829,92.5422866 88.519779,91.5362963 87.1690608,88.9436651 C86.3840884,87.4399742 84.8335912,86.5045797 83.120442,86.5045797 C81.3701657,86.5045797 79.800221,87.477037 79.0240884,89.0442641 C78.0994475,90.9132882 76.2201105,91.9934042 74.2665193,91.9934042 L74.2665193,91.9934042 Z" id="Shape" fill="#234957"></path>
                        <path d="M123.617238,91.9934042 C122.826961,91.9934042 122.026077,91.8169147 121.269392,91.4427568 C118.643978,90.1455588 117.569061,86.9687472 118.868508,84.3478776 C121.446188,79.1467311 126.65989,75.9169726 132.472928,75.9169726 C138.155138,75.9169726 143.310497,79.0355427 145.92884,84.054905 C147.281326,86.6475362 146.271823,89.8455266 143.672928,91.1956715 C141.077569,92.5458164 137.870497,91.5380612 136.519779,88.9436651 C135.736575,87.4399742 134.186077,86.5063446 132.472928,86.5063446 C130.722652,86.5063446 129.152707,87.4788019 128.376575,89.0442641 C127.450166,90.9115233 125.570829,91.9934042 123.617238,91.9934042 L123.617238,91.9934042 Z" id="Shape" fill="#234957"></path>
                        <path d="M313.53105,203.718338 C311.932818,203.718338 310.350497,202.998261 309.305635,201.630467 C295.989392,184.159768 276.87779,172.359678 255.496133,168.399253 C252.616133,167.866254 250.713812,165.102428 251.249503,162.227414 C251.783425,159.354164 254.543204,157.448077 257.430276,157.98637 C281.407293,162.426847 302.829613,175.647678 317.747624,195.215072 C319.520884,197.541205 319.070055,200.864502 316.738122,202.634692 C315.77989,203.367124 314.651934,203.718338 313.53105,203.718338 L313.53105,203.718338 Z" id="Shape" fill="#234957"></path>
                        <path d="M169.030718,316.798712 C164.421657,316.798712 159.801989,316.592219 155.302541,316.184528 C142.960442,315.104412 130.864088,312.555903 119.365304,308.613127 C104.288177,303.528464 90.1003315,296.108844 77.2207735,286.566055 C46.6351381,263.925977 25.6441989,231.063626 18.1144751,194.034357 C17.5310497,191.168167 19.3856354,188.374338 22.2567956,187.791923 C25.1332597,187.204213 27.9266298,189.062647 28.5100552,191.927072 C35.5164641,226.388419 55.0612155,256.977585 83.5412155,278.059259 C95.5314917,286.941977 108.734586,293.848013 122.78453,298.586757 C133.494807,302.259504 144.742541,304.626229 156.243094,305.633984 C166.909171,306.597617 178.102099,306.331118 188.54895,304.875079 C246.458343,297.01953 294.605083,253.739002 308.377459,197.177636 C309.068729,194.336155 311.93105,192.590673 314.78453,193.282512 C317.629171,193.972586 319.37768,196.837011 318.684641,199.678493 C303.890387,260.440309 252.174144,306.931182 189.996906,315.365617 C183.197348,316.316895 176.136133,316.798712 169.030718,316.798712 L169.030718,316.798712 Z" id="Shape" fill="#234957"></path>
                        <path d="M270.54674,29.2196071 C270.256796,29.2196071 269.963315,29.1948986 269.668066,29.1454815 C266.777459,28.66543 264.827403,25.9369018 265.308287,23.0530628 L268.124641,6.18948792 C268.603757,3.30388406 271.340552,1.35543961 274.227624,1.83725604 C277.118232,2.31730757 279.068287,5.04583575 278.587403,7.92967472 L275.77105,24.7932496 C275.339669,27.3841159 273.092597,29.2196071 270.54674,29.2196071 L270.54674,29.2196071 Z" id="Shape" fill="#234957"></path>
                    </g>
                </g>
            </g>
        </g>
    </g>
</svg>